<svg width="35" height="35" viewBox="0 0 35 35" fill="none" xmlns="http://www.w3.org/2000/svg">
<path d="M17.5013 10.9372C17.5013 12.2909 16.9635 13.5891 16.0063 14.5464C15.0491 15.5036 13.7508 16.0413 12.3971 16.0413C11.0434 16.0413 9.74516 15.5036 8.78794 14.5464C7.83073 13.5891 7.29297 12.2909 7.29297 10.9372C7.29297 9.58347 7.83073 8.2852 8.78794 7.32798C9.74516 6.37077 11.0434 5.83301 12.3971 5.83301C13.7508 5.83301 15.0491 6.37077 16.0063 7.32798C16.9635 8.2852 17.5013 9.58347 17.5013 10.9372Z" stroke="#3E63F5" stroke-width="1.5"/>
<path d="M19.6875 16.0413C21.0412 16.0413 22.3395 15.5036 23.2967 14.5464C24.2539 13.5891 24.7917 12.2909 24.7917 10.9372C24.7917 9.58347 24.2539 8.2852 23.2967 7.32798C22.3395 6.37077 21.0412 5.83301 19.6875 5.83301" stroke="#3E63F5" stroke-width="1.5" stroke-linecap="round"/>
<path d="M19.1682 29.1661H5.62609C4.12984 29.1661 2.91797 28.0475 2.91797 26.6665C2.91797 23.2146 5.94984 20.4161 9.68901 20.4161H15.1053C16.555 20.4109 17.972 20.8468 19.1682 21.6659" stroke="#3E63F5" stroke-width="1.5" stroke-linecap="round" stroke-linejoin="round"/>
<path d="M27.7109 20.416V29.166M32.0859 24.791H23.3359" stroke="#3E63F5" stroke-width="1.5" stroke-linecap="round"/>
</svg>
