<svg width="44" height="44" viewBox="0 0 44 44" fill="none" xmlns="http://www.w3.org/2000/svg">
<path d="M30.9885 22.2401C29.1705 25.3121 26.5785 28.6361 23.3925 31.8241C14.9785 40.2381 5.6005 44.5001 2.4445 41.3441C-0.7115 38.1901 3.5525 28.8101 11.9645 20.3961C14.5445 17.8181 17.2125 15.6301 19.7645 13.9261C20.4498 13.4674 21.1245 13.0461 21.7885 12.6621" stroke="#3E63F5" stroke-width="2" stroke-linejoin="round"/>
<path d="M11.9646 31.8239C20.3786 40.2379 29.7566 44.4999 32.9126 41.3439C36.0686 38.1899 31.8046 28.8099 23.3926 20.3959C14.9746 11.9819 5.59659 7.71989 2.44059 10.8759C-0.715406 14.0299 3.54859 23.4079 11.9606 31.8219L11.9646 31.8239Z" stroke="#3E63F5" stroke-width="2" stroke-linecap="round" stroke-linejoin="round"/>
<path d="M25.7886 9C29.7886 9 34.7886 4 34.7886 0C34.7886 4 39.7886 9 43.7886 9C39.7886 9 34.7886 14 34.7886 18C34.7886 14 29.7886 9 25.7886 9Z" stroke="#3E63F5" stroke-width="2"/>
</svg>
