<svg width="48" height="48" viewBox="0 0 48 48" fill="none" xmlns="http://www.w3.org/2000/svg">
<path d="M34.9578 15.9994H35.0018C37.1262 15.9975 39.1828 16.7473 40.8076 18.1159C42.4325 19.4845 43.5208 21.3838 43.8799 23.4777C44.2391 25.5715 43.8461 27.7249 42.7703 29.5568C41.6945 31.3887 40.0054 32.781 38.0018 33.4874M34.9578 15.9994C34.9858 15.67 35.0005 15.3367 35.0018 14.9994C35.0062 12.1617 33.9138 9.43215 31.9528 7.38104C29.9919 5.32992 27.3142 4.11596 24.4792 3.9928C21.6443 3.86964 18.8714 4.84682 16.74 6.72015C14.6086 8.59348 13.2835 11.218 13.0418 14.0454M34.9578 15.9994C34.7565 18.2022 33.8957 20.2932 32.4878 21.9994M13.0418 14.0454C10.8359 14.2568 8.76275 15.195 7.14791 16.7126C5.53308 18.2302 4.46806 20.2411 4.12013 22.4296C3.7722 24.6182 4.16107 26.8603 5.22566 28.8038C6.29025 30.7473 7.97025 32.2822 10.0018 33.1674M13.0418 14.0454C13.3578 14.0147 13.6778 13.9994 14.0018 13.9994C16.2538 13.9994 18.3318 14.7434 20.0018 15.9994M36.5018 42.4994L32.0018 37.9994V33.9994M11.5018 42.4994L16.0018 37.9994V33.9994M24.0018 42.4994V33.9994M36.5018 40.9994C36.104 40.9994 35.7225 41.1574 35.4412 41.4387C35.1598 41.72 35.0018 42.1015 35.0018 42.4994C35.0018 42.8972 35.1598 43.2787 35.4412 43.56C35.7225 43.8413 36.104 43.9994 36.5018 43.9994C36.8996 43.9994 37.2812 43.8413 37.5625 43.56C37.8438 43.2787 38.0018 42.8972 38.0018 42.4994C38.0018 42.1015 37.8438 41.72 37.5625 41.4387C37.2812 41.1574 36.8996 40.9994 36.5018 40.9994ZM11.5018 40.9994C11.8996 40.9994 12.2812 41.1574 12.5625 41.4387C12.8438 41.72 13.0018 42.1015 13.0018 42.4994C13.0018 42.8972 12.8438 43.2787 12.5625 43.56C12.2812 43.8413 11.8996 43.9994 11.5018 43.9994C11.104 43.9994 10.7225 43.8413 10.4412 43.56C10.1598 43.2787 10.0018 42.8972 10.0018 42.4994C10.0018 42.1015 10.1598 41.72 10.4412 41.4387C10.7225 41.1574 11.104 40.9994 11.5018 40.9994ZM24.0018 40.9994C23.604 40.9994 23.2225 41.1574 22.9412 41.4387C22.6598 41.72 22.5018 42.1015 22.5018 42.4994C22.5018 42.8972 22.6598 43.2787 22.9412 43.56C23.2225 43.8413 23.604 43.9994 24.0018 43.9994C24.3996 43.9994 24.7812 43.8413 25.0625 43.56C25.3438 43.2787 25.5018 42.8972 25.5018 42.4994C25.5018 42.1015 25.3438 41.72 25.0625 41.4387C24.7812 41.1574 24.3996 40.9994 24.0018 40.9994Z" stroke="#3E63F5" stroke-width="1.5" stroke-linecap="round" stroke-linejoin="round"/>
</svg>
