<svg width="20" height="20" viewBox="0 0 20 20" fill="none" xmlns="http://www.w3.org/2000/svg">
<mask id="mask0_3657_4134" style="mask-type:alpha" maskUnits="userSpaceOnUse" x="0" y="0" width="20" height="20">
<path d="M0 0H19.898V12.5269C19.9474 12.5937 19.9814 12.6686 20 12.7653V13.1534C19.9814 13.2506 19.9474 13.3352 19.898 13.4066V20H0V0Z" fill="white"/>
</mask>
<g mask="url(#mask0_3657_4134)">
<path fill-rule="evenodd" clip-rule="evenodd" d="M0 20H20V0H0V20Z" fill="url(#paint0_radial_3657_4134)"/>
<path fill-rule="evenodd" clip-rule="evenodd" d="M1.79195 8.66859L1.40922 7.7393L1.02883 8.66859H1.79195ZM10.2134 8.29984C10.1377 8.34281 10.0468 8.3475 9.93727 8.3475H9.25836V7.82852H9.94625C10.0445 7.82852 10.1464 7.83219 10.2127 7.8682C10.284 7.90383 10.3293 7.97609 10.3293 8.07539C10.3293 8.17828 10.2853 8.25852 10.2134 8.29984ZM15.0529 8.66859L14.6679 7.7393L14.2852 8.66859H15.0529ZM6.03164 9.67641H5.45906L5.4557 7.84891L4.64672 9.67641H4.15641L3.34312 7.84484V9.67641H2.20687L1.99305 9.15555H0.829687L0.613828 9.67641H0.00664063L1.00555 7.33992H1.83656L2.78617 9.55352V7.33992H3.69914L4.42922 8.92633L5.10133 7.33992H6.03164V9.67641ZM8.31289 9.67641H6.44687V7.33992H8.31273V7.82852H7.00688V8.24789H8.28086V8.7282L7.00688 8.72617V9.19281H8.31281V9.67641H8.31289ZM10.9445 7.97109C10.9445 8.34047 10.696 8.5357 10.5521 8.59328C10.674 8.64023 10.7776 8.72086 10.8262 8.79078C10.9051 8.90469 10.9208 9.01133 10.9208 9.2168V9.67641H10.3573L10.3555 9.38266C10.3555 9.24375 10.3688 9.04125 10.2649 8.92937C10.1834 8.84578 10.0605 8.82844 9.85867 8.82844H9.25844V9.67641H8.70023V7.33992H9.98617C10.27 7.33992 10.4812 7.3493 10.6623 7.4532C10.8392 7.55641 10.9445 7.7093 10.9445 7.97117V7.97109ZM11.2692 9.67641H11.8391V7.33961H11.2692V9.67641ZM18.4505 9.67641H17.6582L16.5991 7.92445L16.601 9.67641H15.4633L15.2454 9.15555H14.0837L13.8748 9.67641H13.2209C12.9485 9.67641 12.6041 9.61586 12.4113 9.41898C12.2128 9.21945 12.1125 8.95203 12.1125 8.52602C12.1125 8.17961 12.1734 7.8632 12.4133 7.61305C12.5941 7.42656 12.8762 7.33992 13.2616 7.33992H13.8015V7.84023H13.2736C13.0695 7.84023 12.9533 7.87148 12.842 7.97977C12.748 8.07836 12.6814 8.26414 12.6814 8.50969C12.6814 8.76047 12.7314 8.93898 12.8366 9.05859C12.9205 9.15016 13.0774 9.17781 13.225 9.17781H13.4762L14.2632 7.33992H15.0999L16.0461 9.55023V7.33984H16.8978L17.8794 8.96695V7.33984H18.4505V9.67633V9.67641ZM0 10.1367H0.954609L1.16977 9.61586H1.65141L1.86586 10.1367H3.74438V9.73906L3.91234 10.138H4.88578L5.05305 9.73406V10.1367H9.7207L9.71836 9.28437H9.80867C9.87227 9.28578 9.89125 9.29305 9.89125 9.39797V10.1367H12.3038V9.93859C12.4986 10.0431 12.802 10.1367 13.1991 10.1367H14.2152L14.432 9.61586H14.9144L15.1292 10.1367H17.0843V9.64281L17.3811 10.1367H18.9469V6.87695H17.3967V7.26297L17.1803 6.87703H15.5867V7.26297L15.3875 6.87703H13.2367C12.8763 6.87703 12.5589 6.92656 12.3038 7.06711V6.87695H10.8213V7.06711C10.6565 6.92258 10.4349 6.87695 10.1895 6.87695H4.76664L4.40125 7.71992L4.02953 6.87695H2.32187V7.26297L2.13234 6.87703H0.676094L0 8.42539V10.1366V10.1367Z" fill="white"/>
<path fill-rule="evenodd" clip-rule="evenodd" d="M19.8988 11.861H18.8789C18.7774 11.861 18.7097 11.865 18.6551 11.9027C18.5965 11.9399 18.5718 11.9983 18.5718 12.0725C18.5718 12.1591 18.6218 12.2191 18.6961 12.2451C18.7521 12.2657 18.817 12.271 18.9122 12.2724L19.2114 12.28C19.5164 12.2887 19.722 12.3406 19.8468 12.4675C19.8679 12.4862 19.8828 12.5085 19.8988 12.5265V11.861ZM19.8988 13.4021C19.7616 13.6013 19.4975 13.7016 19.1391 13.7016H18.0599V13.1993H19.1357C19.2407 13.1993 19.316 13.185 19.3623 13.1413C19.3998 13.107 19.4286 13.0541 19.4286 12.9898C19.4286 12.9209 19.3999 12.8662 19.3609 12.8349C19.3173 12.798 19.2596 12.783 19.1631 12.7816C18.6389 12.7653 17.9843 12.798 17.9843 12.0588C17.9843 11.7202 18.2005 11.3634 18.7847 11.3634H19.8988V10.8984H18.864C18.5516 10.8984 18.3254 10.9723 18.1639 11.0903V10.8984H16.6341C16.3919 10.8984 16.1052 10.9594 15.9673 11.0903L15.9693 10.8984H13.2378V11.0903C13.0203 10.9334 12.6546 10.8984 12.4831 10.8984H10.6841V11.0903C10.5112 10.9231 10.1309 10.8984 9.89668 10.8984H7.88027L7.41965 11.3994L6.98762 10.8984H3.97559V14.1602H6.93129L7.40691 13.6533L7.85488 14.1602L9.6741 14.1616V13.3945H9.85434C10.0945 13.3978 10.3816 13.3891 10.6327 13.2805V14.1602H12.1346V13.3099H12.2068C12.2994 13.3099 12.3087 13.3152 12.3087 13.4068V14.1602H16.8725C17.1603 14.1602 17.4627 14.086 17.6319 13.9527V14.1602H19.0798C19.3812 14.1602 19.674 14.1186 19.8988 14.011V13.4021ZM17.6696 12.4676C17.7788 12.5809 17.8368 12.7237 17.8368 12.9631C17.8368 13.4674 17.522 13.7016 16.9598 13.7016H15.8703V13.1993H16.9548C17.0621 13.1993 17.1363 13.185 17.185 13.1413C17.2056 13.1219 17.2219 13.0984 17.233 13.0723C17.244 13.0462 17.2496 13.0181 17.2493 12.9898C17.2493 12.9209 17.2193 12.8662 17.181 12.8349C17.138 12.798 17.0796 12.783 16.9828 12.7816C16.4589 12.7653 15.8064 12.798 15.8064 12.0588C15.8064 11.7202 16.0192 11.3634 16.6027 11.3634H17.7242V11.861H16.701C16.5981 11.861 16.5311 11.865 16.4752 11.9027C16.4146 11.9399 16.3919 11.9983 16.3919 12.0725C16.3919 12.1591 16.4439 12.2191 16.5148 12.2451C16.5721 12.2657 16.634 12.271 16.7303 12.2724L17.0314 12.28C17.3365 12.2887 17.5427 12.3406 17.6696 12.4675V12.4676ZM12.6285 12.3243C12.5552 12.3673 12.4616 12.3716 12.354 12.3716H11.6749V11.848H12.363C12.4616 11.848 12.5629 11.85 12.6285 11.8884C12.7011 11.9277 12.7444 11.9996 12.7444 12.1005C12.7444 12.1995 12.7011 12.28 12.6285 12.3243ZM12.9662 12.6151C13.0904 12.6601 13.192 12.7427 13.2396 12.8109C13.3183 12.9255 13.3313 13.032 13.3319 13.2376V13.7016H12.7724V13.4095C12.7724 13.2676 12.7861 13.0601 12.6814 12.9522C12.6008 12.8663 12.476 12.8473 12.2728 12.8473H11.6749V13.7016H11.1143V11.3634H12.403C12.6868 11.3634 12.8929 11.3751 13.0758 11.474C13.252 11.5796 13.3613 11.7278 13.3613 11.9939C13.3613 12.3653 13.1135 12.5558 12.9662 12.6151ZM13.672 11.3634H15.5372V11.848H14.2286V12.271H15.5046V12.7484H14.2286V13.213L15.5372 13.2156V13.7016H13.672V11.3634ZM9.90426 12.4416H9.18082V11.848H9.91027C10.1118 11.848 10.2514 11.9283 10.2514 12.1345C10.2514 12.336 10.1185 12.4416 9.90426 12.4416ZM8.62457 13.4894L7.76871 12.5372L8.62473 11.6145V13.4894H8.62457ZM6.41035 13.213H5.03707V12.7484H6.26324V12.271H5.03707V11.848H6.4373L7.04723 12.5278L6.41035 13.213ZM10.8506 12.1345C10.8506 12.7816 10.3676 12.9169 9.87793 12.9169H9.18082V13.7016H8.09668L7.40856 12.9281L6.69379 13.7016H4.48184V11.3634H6.72809L7.41527 12.1291L8.12535 11.3634H9.91027C10.3539 11.3634 10.8506 11.4856 10.8506 12.1345V12.1345Z" fill="white"/>
<path fill-rule="evenodd" clip-rule="evenodd" d="M10.9444 7.97133C10.9444 8.34109 10.6963 8.53563 10.5527 8.5932C10.6746 8.64016 10.7782 8.72141 10.8268 8.7907C10.9057 8.90531 10.9211 9.01125 10.9211 9.21742V9.67633H10.3579L10.3555 9.38289C10.3555 9.24367 10.3696 9.04117 10.2653 8.9293C10.1833 8.8457 10.0611 8.82836 9.85855 8.82836H9.25902V9.67633H8.7002V7.33984H9.98684C10.27 7.33984 10.4814 7.34922 10.6623 7.45313C10.8398 7.55633 10.9444 7.70922 10.9444 7.97133Z" fill="#2F9BCA"/>
<path fill-rule="evenodd" clip-rule="evenodd" d="M8.31342 9.6764H6.44678V7.3396H8.31334V7.82851H7.00678V8.24788H8.28076V8.72819L7.00678 8.72687V9.19351H8.31342" fill="#2EA3D0"/>
<path fill-rule="evenodd" clip-rule="evenodd" d="M6.03169 9.67647H5.45911L5.45575 7.84897L4.64739 9.67647H4.15716L3.3431 7.84561V9.67647H2.20731L1.99317 9.15593H0.829736L0.61458 9.67647H0.00708008L1.00591 7.33968H1.83661L2.78622 9.55397V7.33968H3.6995L4.42997 8.9271L5.10138 7.3396H6.03169" fill="#55B2D8"/>
<path fill-rule="evenodd" clip-rule="evenodd" d="M10.214 8.29994C10.138 8.34361 10.0472 8.3476 9.93825 8.3476H9.25903V7.82861H9.94685C10.0451 7.82861 10.1467 7.83229 10.2126 7.86893C10.2846 7.90393 10.3296 7.97619 10.3296 8.0758C10.3296 8.17838 10.2859 8.25932 10.214 8.30002" fill="white"/>
<path fill-rule="evenodd" clip-rule="evenodd" d="M1.79225 8.66855L1.4092 7.73926L1.02881 8.66855" fill="white"/>
</g>
<defs>
<radialGradient id="paint0_radial_3657_4134" cx="0" cy="0" r="1" gradientUnits="userSpaceOnUse" gradientTransform="translate(3.3218 3.4744) scale(23.704)">
<stop stop-color="#88CDE7"/>
<stop offset="1" stop-color="#2274AD"/>
</radialGradient>
</defs>
</svg>
