<svg width="35" height="35" viewBox="0 0 35 35" fill="none" xmlns="http://www.w3.org/2000/svg">
<path d="M25.3761 3.5C25.144 3.5 24.9215 3.59219 24.7574 3.75628C24.5933 3.92038 24.5011 4.14294 24.5011 4.375C24.5011 4.60706 24.5933 4.82962 24.7574 4.99372C24.9215 5.15781 25.144 5.25 25.3761 5.25H28.5139L20.1261 13.6378L15.4956 9.0055C15.4143 8.92401 15.3178 8.85936 15.2115 8.81525C15.1052 8.77114 14.9912 8.74844 14.8761 8.74844C14.761 8.74844 14.6471 8.77114 14.5407 8.81525C14.4344 8.85936 14.3379 8.92401 14.2566 9.0055L5.50661 17.7555C5.3423 17.9198 5.25 18.1426 5.25 18.375C5.25 18.6074 5.3423 18.8302 5.50661 18.9945C5.67091 19.1588 5.89375 19.2511 6.12611 19.2511C6.35846 19.2511 6.5813 19.1588 6.74561 18.9945L14.8761 10.8623L19.5066 15.4945C19.5879 15.576 19.6844 15.6406 19.7907 15.6847C19.8971 15.7289 20.011 15.7516 20.1261 15.7516C20.2412 15.7516 20.3552 15.7289 20.4615 15.6847C20.5678 15.6406 20.6643 15.576 20.7456 15.4945L29.7511 6.48725V9.625C29.7511 9.85706 29.8433 10.0796 30.0074 10.2437C30.1715 10.4078 30.394 10.5 30.6261 10.5C30.8582 10.5 31.0807 10.4078 31.2448 10.2437C31.4089 10.0796 31.5011 9.85706 31.5011 9.625V4.375C31.5011 4.14294 31.4089 3.92038 31.2448 3.75628C31.0807 3.59219 30.8582 3.5 30.6261 3.5H25.3761ZM27.1261 15.75C26.894 15.75 26.6715 15.8422 26.5074 16.0063C26.3433 16.1704 26.2511 16.3929 26.2511 16.625V30.625C26.2511 30.8571 26.3433 31.0796 26.5074 31.2437C26.6715 31.4078 26.894 31.5 27.1261 31.5C27.3582 31.5 27.5807 31.4078 27.7448 31.2437C27.9089 31.0796 28.0011 30.8571 28.0011 30.625V16.625C28.0011 16.3929 27.9089 16.1704 27.7448 16.0063C27.5807 15.8422 27.3582 15.75 27.1261 15.75ZM13.1261 19.25C12.894 19.25 12.6715 19.3422 12.5074 19.5063C12.3433 19.6704 12.2511 19.8929 12.2511 20.125V30.625C12.2511 30.8571 12.3433 31.0796 12.5074 31.2437C12.6715 31.4078 12.894 31.5 13.1261 31.5C13.3582 31.5 13.5807 31.4078 13.7448 31.2437C13.9089 31.0796 14.0011 30.8571 14.0011 30.625V20.125C14.0011 19.8929 13.9089 19.6704 13.7448 19.5063C13.5807 19.3422 13.3582 19.25 13.1261 19.25ZM19.2511 23.625C19.2511 23.3929 19.3433 23.1704 19.5074 23.0063C19.6715 22.8422 19.894 22.75 20.1261 22.75C20.3582 22.75 20.5807 22.8422 20.7448 23.0063C20.9089 23.1704 21.0011 23.3929 21.0011 23.625V30.625C21.0011 30.8571 20.9089 31.0796 20.7448 31.2437C20.5807 31.4078 20.3582 31.5 20.1261 31.5C19.894 31.5 19.6715 31.4078 19.5074 31.2437C19.3433 31.0796 19.2511 30.8571 19.2511 30.625V23.625ZM5.25111 25.375C5.25111 25.1429 5.34329 24.9204 5.50739 24.7563C5.67148 24.5922 5.89404 24.5 6.12611 24.5C6.35817 24.5 6.58073 24.5922 6.74482 24.7563C6.90892 24.9204 7.00111 25.1429 7.00111 25.375V30.625C7.00111 30.8571 6.90892 31.0796 6.74482 31.2437C6.58073 31.4078 6.35817 31.5 6.12611 31.5C5.89404 31.5 5.67148 31.4078 5.50739 31.2437C5.34329 31.0796 5.25111 30.8571 5.25111 30.625V25.375Z" fill="#3E63F5"/>
</svg>
