<svg width="24" height="24" viewBox="0 0 24 24" fill="none" xmlns="http://www.w3.org/2000/svg">
<path d="M6.75005 12C6.75005 12.2528 6.76805 12.5063 6.8033 12.7545L5.3183 12.9667C5.27241 12.6466 5.24961 12.3235 5.25005 12C5.25005 8.27775 8.27855 5.25 12 5.25C13.5323 5.25 15.033 5.778 16.2263 6.73575L15.2865 7.90575C14.3569 7.15335 13.196 6.74508 12 6.75C9.10505 6.75 6.75005 9.105 6.75005 12ZM6.00005 15C6.00005 15.1989 6.07907 15.3897 6.21972 15.5303C6.36037 15.671 6.55114 15.75 6.75005 15.75C6.94896 15.75 7.13973 15.671 7.28038 15.5303C7.42103 15.3897 7.50005 15.1989 7.50005 15C7.50005 14.8011 7.42103 14.6103 7.28038 14.4697C7.13973 14.329 6.94896 14.25 6.75005 14.25C6.55114 14.25 6.36037 14.329 6.21972 14.4697C6.07907 14.6103 6.00005 14.8011 6.00005 15ZM12 3C16.9628 3 21 7.03725 21 12H22.5C22.5 6.21 17.7901 1.5 12 1.5C10.7678 1.5 9.5603 1.7115 8.4113 2.12925L8.9243 3.53925C9.9103 3.18165 10.9512 2.99916 12 3ZM16.5 9C16.5 9.19891 16.5791 9.38968 16.7197 9.53033C16.8604 9.67098 17.0511 9.75 17.25 9.75C17.449 9.75 17.6397 9.67098 17.7804 9.53033C17.921 9.38968 18 9.19891 18 9C18 8.80109 17.921 8.61032 17.7804 8.46967C17.6397 8.32902 17.449 8.25 17.25 8.25C17.0511 8.25 16.8604 8.32902 16.7197 8.46967C16.5791 8.61032 16.5 8.80109 16.5 9ZM6.75005 4.5C6.94896 4.5 7.13973 4.42098 7.28038 4.28033C7.42103 4.13968 7.50005 3.94891 7.50005 3.75C7.50005 3.55109 7.42103 3.36032 7.28038 3.21967C7.13973 3.07902 6.94896 3 6.75005 3C6.55114 3 6.36037 3.07902 6.21972 3.21967C6.07907 3.36032 6.00005 3.55109 6.00005 3.75C6.00005 3.94891 6.07907 4.13968 6.21972 4.28033C6.36037 4.42098 6.55114 4.5 6.75005 4.5ZM3.00005 12C3.00005 9.59625 3.93605 7.33575 5.6363 5.63625L4.57505 4.575C3.59672 5.54761 2.82116 6.70473 2.29331 7.97928C1.76547 9.25383 1.49584 10.6205 1.50005 12C1.50005 17.79 6.21005 22.5 12 22.5V21C7.0373 21 3.00005 16.9628 3.00005 12ZM21.375 19.125C21.375 20.3655 20.3656 21.375 19.125 21.375C17.8846 21.375 16.875 20.3655 16.875 19.125C16.875 18.7785 16.9605 18.4545 17.1 18.1613L12.9638 14.0243C12.6713 14.1645 12.3465 14.25 12 14.25C10.7595 14.25 9.75005 13.2405 9.75005 12C9.75005 10.7595 10.7595 9.75 12 9.75C13.2406 9.75 14.25 10.7595 14.25 12C14.25 12.3465 14.1653 12.6705 14.0251 12.9637L18.1613 17.1007C18.4538 16.9605 18.7785 16.875 19.125 16.875C20.3656 16.875 21.375 17.8845 21.375 19.125ZM12 12.75C12.4133 12.75 12.75 12.4132 12.75 12C12.75 11.5868 12.4133 11.25 12 11.25C11.5868 11.25 11.25 11.5868 11.25 12C11.25 12.4132 11.5868 12.75 12 12.75ZM19.875 19.125C19.875 18.926 19.7958 18.7352 19.655 18.5945C19.5142 18.4539 19.3233 18.3749 19.1243 18.375C18.9253 18.3751 18.7345 18.4543 18.5938 18.595C18.4532 18.7358 18.3742 18.9267 18.3743 19.1257C18.3744 19.3248 18.4536 19.5156 18.5943 19.6562C18.7351 19.7969 18.926 19.8758 19.125 19.8757C19.3241 19.8757 19.5149 19.7965 19.6555 19.6557C19.7962 19.5149 19.8751 19.324 19.875 19.125Z" fill="#3E63F5"/>
</svg>
