<svg width="35" height="35" viewBox="0 0 35 35" fill="none" xmlns="http://www.w3.org/2000/svg">
<path d="M17.4999 17.5V25.6M17.4999 17.5C22.719 17.5 26.9498 13.2921 26.9498 8.1013C26.9498 7.9663 26.9471 7.8313 26.9417 7.6963C26.8837 6.3463 26.8553 5.6713 25.94 4.83565C25.0247 4 24.0136 4 21.9873 4H13.0126C10.9876 4 9.97376 4 9.05982 4.837C8.14588 5.6713 8.11618 6.3463 8.05813 7.69495C8.05273 7.82995 8.05003 7.9654 8.05003 8.1013C8.05003 13.2921 12.2809 17.5 17.4999 17.5ZM17.4999 25.6C15.2401 25.6 13.2745 26.9662 12.2593 28.9817C11.7733 29.9443 12.4699 31 13.3933 31H21.6052C22.53 31 23.2252 29.9443 22.7406 28.9817C21.7254 26.9662 19.7598 25.6 17.4999 25.6ZM8.05003 8.05H6.6798C5.34736 8.05 4.68182 8.05 4.27008 8.5495C3.85833 9.05035 3.97983 9.6106 4.22148 10.7311C4.68047 12.8695 5.68081 14.7501 7.0362 16.15M26.9498 8.05H28.3201C29.6525 8.05 30.318 8.05 30.7298 8.5495C31.1415 9.05035 31.02 9.6106 30.7797 10.7311C30.318 12.8695 29.3191 14.7501 27.9623 16.15" stroke="#3E63F5" stroke-width="1.5" stroke-linecap="round"/>
</svg>
