<svg width="30" height="33" viewBox="0 0 30 33" fill="none" xmlns="http://www.w3.org/2000/svg">
<path d="M28.9294 7.48529L15.9882 0.259851C15.6857 0.0894031 15.3457 0 15 0C14.6543 0 14.3143 0.0894031 14.0118 0.259851L1.07059 7.48679C0.746772 7.66751 0.476545 7.9337 0.288197 8.25749C0.0998498 8.58129 0.0003101 8.95078 0 9.32727V23.6732C0.0003101 24.0497 0.0998498 24.4191 0.288197 24.7429C0.476545 25.0667 0.746772 25.3329 1.07059 25.5136L14.0118 32.7406C14.3144 32.9108 14.6544 33 15 33C15.3456 33 15.6856 32.9108 15.9882 32.7406L28.9294 25.5136C29.2532 25.3329 29.5235 25.0667 29.7118 24.7429C29.9002 24.4191 29.9997 24.0497 30 23.6732V9.32727C30 8.95052 29.9005 8.58072 29.7122 8.25664C29.5238 7.93256 29.2534 7.66613 28.9294 7.48529ZM14.8529 1.83784C14.8962 1.81368 14.9448 1.80102 14.9941 1.80102C15.0435 1.80102 15.092 1.81368 15.1353 1.83784L27.4279 8.70028L15 15.6362L2.57206 8.70028L14.8529 1.83784ZM1.91176 23.9356C1.86666 23.9091 1.82928 23.8708 1.80345 23.8247C1.77761 23.7786 1.76424 23.7263 1.76471 23.6732V10.2993L14.1176 17.1992V30.7501L1.91176 23.9356ZM28.0765 23.9356L15.8824 30.7501V17.1962L28.2353 10.2963V23.6702C28.2363 23.7238 28.2232 23.7767 28.1973 23.8234C28.1714 23.8701 28.1338 23.9088 28.0882 23.9356H28.0765Z" fill="#3E63F5"/>
</svg>
