<svg width="22" height="28" viewBox="0 0 22 28" fill="none" xmlns="http://www.w3.org/2000/svg">
<path d="M4.25102 3.12343C4.10328 3.12343 3.95699 3.15253 3.8205 3.20907C3.68401 3.2656 3.55999 3.34847 3.45552 3.45293C3.35106 3.5574 3.26819 3.68142 3.21165 3.81791C3.15512 3.9544 3.12602 4.10069 3.12602 4.24843C3.12602 4.39617 3.15512 4.54246 3.21165 4.67895C3.26819 4.81544 3.35106 4.93946 3.45552 5.04392C3.55999 5.14839 3.68401 5.23126 3.8205 5.28779C3.95699 5.34433 4.10328 5.37343 4.25102 5.37343C4.54939 5.37343 4.83553 5.2549 5.04651 5.04392C5.25749 4.83295 5.37602 4.5468 5.37602 4.24843C5.37602 3.95006 5.25749 3.66391 5.04651 3.45293C4.83553 3.24196 4.54939 3.12343 4.25102 3.12343ZM0.876019 4.24843C0.876206 3.62973 1.04646 3.02298 1.36818 2.4945C1.68989 1.96602 2.15069 1.53614 2.70021 1.25185C3.24972 0.967555 3.86682 0.839786 4.48404 0.882504C5.10127 0.925222 5.69488 1.13678 6.19999 1.49407C6.70511 1.85135 7.10229 2.34061 7.34814 2.90837C7.59398 3.47613 7.67903 4.10055 7.59398 4.71338C7.50893 5.32621 7.25707 5.90387 6.8659 6.38323C6.47474 6.86258 5.95934 7.2252 5.37602 7.43143V13.2904C5.50602 13.1944 5.64102 13.1054 5.78102 13.0234C7.20452 12.1654 9.02852 11.9149 10.578 11.7034L10.8465 11.6659C12.588 11.4229 13.9995 11.1829 15.012 10.5004C15.7695 9.98743 16.4175 9.13543 16.584 7.41643C15.8372 7.14146 15.2115 6.6114 14.8176 5.91987C14.4236 5.22834 14.2867 4.41984 14.4311 3.63718C14.5754 2.85451 14.9917 2.14802 15.6064 1.64251C16.2211 1.137 16.9947 0.864985 17.7905 0.874509C18.5863 0.884034 19.3531 1.17449 19.9556 1.69456C20.558 2.21464 20.9572 2.93088 21.0828 3.71678C21.2084 4.50268 21.0522 5.30767 20.6418 5.98957C20.2314 6.67147 19.5932 7.18641 18.84 7.44343C18.651 9.80893 17.733 11.3764 16.272 12.3634C14.7525 13.3909 12.789 13.6684 11.157 13.8934L11.1195 13.8994C9.36452 14.1424 7.95902 14.3374 6.94052 14.9494C6.46802 15.2344 6.09752 15.6034 5.83502 16.1224C5.56502 16.6534 5.37602 17.4064 5.37602 18.4984V20.5654C6.12705 20.8308 6.76008 21.3532 7.1632 22.0402C7.56632 22.7272 7.71357 23.5346 7.57894 24.3197C7.4443 25.1048 7.03644 25.817 6.42745 26.3305C5.81847 26.8439 5.04757 27.1255 4.25102 27.1255C3.45447 27.1255 2.68357 26.8439 2.07458 26.3305C1.4656 25.817 1.05774 25.1048 0.9231 24.3197C0.788464 23.5346 0.935721 22.7272 1.33884 22.0402C1.74196 21.3532 2.37498 20.8308 3.12602 20.5654V7.43143C2.46784 7.19873 1.89801 6.76765 1.49505 6.19759C1.09208 5.62753 0.875808 4.94654 0.876019 4.24843ZM17.751 3.12343C17.6033 3.12343 17.457 3.15253 17.3205 3.20907C17.184 3.2656 17.06 3.34847 16.9555 3.45293C16.8511 3.5574 16.7682 3.68142 16.7117 3.81791C16.6551 3.9544 16.626 4.10069 16.626 4.24843C16.626 4.39617 16.6551 4.54246 16.7117 4.67895C16.7682 4.81544 16.8511 4.93946 16.9555 5.04392C17.06 5.14839 17.184 5.23126 17.3205 5.28779C17.457 5.34433 17.6033 5.37343 17.751 5.37343C18.0494 5.37343 18.3355 5.2549 18.5465 5.04392C18.7575 4.83295 18.876 4.5468 18.876 4.24843C18.876 3.95006 18.7575 3.66391 18.5465 3.45293C18.3355 3.24196 18.0494 3.12343 17.751 3.12343ZM4.25102 22.6234C3.95265 22.6234 3.6665 22.742 3.45552 22.9529C3.24454 23.1639 3.12602 23.4501 3.12602 23.7484C3.12602 24.0468 3.24454 24.3329 3.45552 24.5439C3.6665 24.7549 3.95265 24.8734 4.25102 24.8734C4.54939 24.8734 4.83553 24.7549 5.04651 24.5439C5.25749 24.3329 5.37602 24.0468 5.37602 23.7484C5.37602 23.4501 5.25749 23.1639 5.04651 22.9529C4.83553 22.742 4.54939 22.6234 4.25102 22.6234Z" fill="#3E63F5"/>
</svg>
