<svg width="20" height="21" viewBox="0 0 20 21" fill="none" xmlns="http://www.w3.org/2000/svg">
<path d="M3.84667 17.1666C3.46278 17.1666 3.1425 17.0383 2.88583 16.7816C2.62917 16.525 2.50056 16.2044 2.5 15.82V7.67998C2.5 7.29609 2.62861 6.97581 2.88583 6.71915C3.14306 6.46248 3.46306 6.33387 3.84583 6.33331H7.5V5.17915C7.5 4.79581 7.62861 4.47554 7.88583 4.21831C8.14306 3.96109 8.46333 3.83276 8.84667 3.83331H11.1542C11.5375 3.83331 11.8578 3.96165 12.115 4.21831C12.3722 4.47498 12.5006 4.79526 12.5 5.17915V6.33331H16.1542C16.5375 6.33331 16.8575 6.46193 17.1142 6.71915C17.3708 6.97637 17.4994 7.29665 17.5 7.67998V15.8208C17.5 16.2041 17.3714 16.5244 17.1142 16.7816C16.8569 17.0389 16.5369 17.1672 16.1542 17.1666H3.84667ZM8.33333 6.33331H11.6667V5.17915C11.6667 5.05137 11.6133 4.93387 11.5067 4.82665C11.4 4.71943 11.2825 4.66609 11.1542 4.66665H8.84583C8.71806 4.66665 8.60056 4.71998 8.49333 4.82665C8.38611 4.93331 8.33278 5.05081 8.33333 5.17915V6.33331ZM16.6667 12.5833H11.6667V13.16C11.6667 13.3533 11.6028 13.5139 11.475 13.6416C11.3472 13.7694 11.1867 13.8333 10.9933 13.8333H9.00667C8.81333 13.8333 8.65278 13.7694 8.525 13.6416C8.39722 13.5139 8.33333 13.3533 8.33333 13.16V12.5833H3.33333V15.8208C3.33333 15.9486 3.38667 16.0661 3.49333 16.1733C3.6 16.2805 3.7175 16.3339 3.84583 16.3333H16.1542C16.2819 16.3333 16.3994 16.28 16.5067 16.1733C16.6139 16.0666 16.6672 15.9489 16.6667 15.82V12.5833ZM9.16667 13H10.8333V11.3333H9.16667V13ZM3.33333 11.75H8.33333V11.1733C8.33333 10.98 8.39722 10.8194 8.525 10.6916C8.65278 10.5639 8.81333 10.5 9.00667 10.5H10.9933C11.1867 10.5 11.3472 10.5639 11.475 10.6916C11.6028 10.8194 11.6667 10.98 11.6667 11.1733V11.75H16.6667V7.67998C16.6667 7.55165 16.6133 7.43387 16.5067 7.32665C16.4 7.21943 16.2825 7.16609 16.1542 7.16665H3.84583C3.71806 7.16665 3.60056 7.21998 3.49333 7.32665C3.38611 7.43332 3.33278 7.55109 3.33333 7.67998V11.75Z" fill="black"/>
</svg>
