<svg width="20" height="21" viewBox="0 0 20 21" fill="none" xmlns="http://www.w3.org/2000/svg">
<path fill-rule="evenodd" clip-rule="evenodd" d="M9.19232 11.1676L4.72065 2.75673C4.69496 2.70841 4.67904 2.65551 4.67379 2.60104C4.66855 2.54657 4.67408 2.4916 4.69008 2.43927C4.72239 2.33359 4.79536 2.24507 4.89294 2.19318C4.99052 2.1413 5.10471 2.13031 5.21039 2.16262C5.26272 2.17862 5.31139 2.20477 5.35361 2.23957C5.39584 2.27438 5.43079 2.31716 5.45648 2.36548L9.92857 10.7763L10.5627 10.4388C10.756 10.3361 10.9677 10.2724 11.1855 10.2514C11.4034 10.2305 11.6233 10.2526 11.8327 10.3167C12.042 10.3807 12.2366 10.4854 12.4055 10.6246C12.5744 10.7639 12.7142 10.9351 12.8169 11.1284L13.0869 11.6359L15.949 15.8255L10.0119 18.9821L8.13898 14.2663L7.8694 13.7588C7.76663 13.5655 7.70293 13.3539 7.68194 13.1361C7.66096 12.9182 7.68309 12.6983 7.74709 12.489C7.81109 12.2797 7.91569 12.085 8.05492 11.9161C8.19416 11.7472 8.3653 11.6074 8.55857 11.5046L9.19232 11.1676ZM8.9494 12.2405L10.9536 11.1751C11.0502 11.1237 11.156 11.0918 11.2649 11.0813C11.3739 11.0708 11.4838 11.0819 11.5885 11.1139C11.6931 11.1459 11.7905 11.1982 11.8749 11.2678C11.9594 11.3374 12.0293 11.423 12.0806 11.5196L12.3506 12.0267L8.8744 13.8751L8.60482 13.3676C8.55343 13.2709 8.52158 13.1651 8.51109 13.0562C8.5006 12.9472 8.51166 12.8373 8.54366 12.7326C8.57566 12.628 8.62796 12.5307 8.69758 12.4462C8.76719 12.3618 8.85276 12.2919 8.9494 12.2405ZM9.29523 14.9205L10.4423 17.8092L11.2065 17.403L10.3044 15.6467L11.0461 15.2659L11.9427 17.0117L14.7352 15.5267L12.9819 12.9601L9.29523 14.9205Z" fill="#1C1724"/>
<path d="M6.81602 15.1796C6.85807 15.1446 6.9066 15.1182 6.95885 15.102C7.0111 15.0857 7.06605 15.0799 7.12054 15.0849C7.17504 15.0898 7.22802 15.1055 7.27647 15.1309C7.32491 15.1564 7.36787 15.1911 7.40289 15.2332C7.43791 15.2752 7.4643 15.3238 7.48056 15.376C7.49683 15.4283 7.50264 15.4832 7.49767 15.5377C7.49269 15.5922 7.47704 15.6452 7.45159 15.6936C7.42614 15.7421 7.3914 15.785 7.34935 15.82L7.34893 15.8205L7.3481 15.8213L7.34685 15.8221L7.34268 15.8255L7.33018 15.8359L7.28727 15.8688C7.25088 15.8966 7.1999 15.9327 7.13435 15.9771C7.0031 16.0646 6.81352 16.1788 6.57435 16.293C5.95261 16.5912 5.27227 16.7474 4.58268 16.75C4.47218 16.75 4.36619 16.7061 4.28805 16.628C4.20991 16.5499 4.16602 16.4439 4.16602 16.3334C4.16602 16.2229 4.20991 16.1169 4.28805 16.0388C4.36619 15.9606 4.47218 15.9167 4.58268 15.9167C5.1483 15.914 5.70622 15.7855 6.21602 15.5405C6.37376 15.4655 6.52608 15.3796 6.67185 15.2834C6.71979 15.2517 6.76662 15.2183 6.81227 15.1834L6.81643 15.1792L6.81602 15.1796ZM8.14727 17.93C8.23921 17.8687 8.30302 17.7734 8.32466 17.665C8.34631 17.5566 8.32401 17.4441 8.26268 17.3521C8.20135 17.2602 8.10601 17.1964 7.99763 17.1747C7.88925 17.1531 7.77671 17.1754 7.68477 17.2367L7.68393 17.2375L7.6756 17.2425L7.63977 17.2655C7.60671 17.2863 7.55824 17.315 7.49435 17.3517C7.32261 17.4498 7.14599 17.5391 6.96518 17.6192C6.52018 17.8171 5.95727 18 5.41602 18C5.30551 18 5.19953 18.0439 5.12139 18.1221C5.04325 18.2002 4.99935 18.3062 4.99935 18.4167C4.99935 18.5272 5.04325 18.6332 5.12139 18.7113C5.19953 18.7895 5.30551 18.8334 5.41602 18.8334C6.12518 18.8334 6.81185 18.5996 7.30393 18.3809C7.57135 18.2621 7.83066 18.1258 8.08018 17.973L8.12768 17.943L8.14102 17.9342L8.14518 17.9317L8.14727 17.93Z" fill="#1C1724"/>
</svg>
