<svg width="263" height="72" viewBox="0 0 263 72" fill="none" xmlns="http://www.w3.org/2000/svg">
<path d="M42.9109 7.75046C46.1938 4.2334 50.8834 2.12272 56.0419 2.12272C62.842 2.12272 68.7042 5.87448 71.9868 11.5024C74.8007 10.3297 77.8492 9.62625 80.8979 9.62625C93.091 9.62625 103.174 19.709 103.174 32.1368C103.174 44.5648 93.3257 54.6476 80.8979 54.6476C79.4909 54.6476 77.8492 54.4139 76.442 54.1788C73.6283 59.103 68.4695 62.386 62.373 62.386C59.7937 62.386 57.4491 61.6821 55.3384 60.7449C52.5247 67.3102 45.9589 72 38.2213 72C30.2482 72 23.4484 66.8415 20.8693 59.8063C19.6966 60.0414 18.5245 60.2755 17.3516 60.2755C7.73822 60.2755 0 52.3034 0 42.9241C0 36.5931 3.51726 30.9649 8.67581 27.9167C7.50352 25.5715 7.03433 22.7581 7.03433 19.9441C7.03433 8.92316 15.945 0.0126492 26.9658 0.0126492C33.5314 -0.222052 39.1589 2.82621 42.9109 7.75046Z" fill="#333333"/>
<path d="M15.0076 37.2952C14.7729 37.2952 15.0076 37.5297 15.0076 37.2952C15.2417 37.7642 15.4764 37.7642 15.7109 37.9987C16.6485 38.4675 17.8208 38.702 18.759 38.702C20.8697 38.702 22.276 37.5295 22.276 35.6535C22.276 34.0123 20.8695 33.3084 19.4623 32.8396H19.2282C18.29 32.6051 17.352 32.1361 17.352 31.4328C17.352 30.7293 17.8208 30.4948 18.759 30.4948C19.697 30.4948 20.6348 30.7293 21.3387 31.1983C21.3387 31.1983 21.5728 31.4328 21.5728 31.1983C21.5728 31.1983 22.042 30.2605 22.042 30.0264V29.7917C20.8697 29.0882 19.6972 28.8535 18.759 28.8535H18.5249C16.6487 28.8535 15.2419 30.0266 15.2419 31.6671C15.2419 33.5435 16.6487 34.0123 18.0557 34.4815H18.2902C19.2284 34.7158 20.1658 34.9503 20.1658 35.888C20.1658 36.5921 19.6972 37.0609 18.759 37.0609C18.29 37.0609 17.352 37.0609 15.9452 36.3572C15.7109 36.3572 15.7109 36.1227 15.7109 36.1227H15.4764L15.0076 37.2952Z" fill="#FBFDFF"/>
<path d="M45.7251 37.2954C45.9594 37.7644 46.1941 37.7644 46.4282 37.9989C47.3664 38.4677 48.5389 38.7022 49.4771 38.7022C51.5869 38.7022 52.9941 37.5297 52.9941 35.6537C52.9941 34.0124 51.5867 33.3085 50.1804 32.8397H49.9457C49.0079 32.6052 48.0697 32.1362 48.0697 31.4329C48.0697 30.7294 48.5389 30.4949 49.4771 30.4949C50.4146 30.4949 51.3528 30.7295 52.0561 31.1985C52.0561 31.1985 52.2902 31.4329 52.2902 31.1985C52.2902 31.1985 52.7594 30.2607 52.7594 30.0266V29.7919C52.0561 29.3225 50.8834 29.0884 49.7114 29.0884H49.4771C47.6007 29.0884 46.1941 30.2607 46.1941 31.9017C46.1941 33.7781 47.6009 34.2469 49.0079 34.7159H49.2424C50.1804 34.9502 51.1185 35.1847 51.1185 36.1227C51.1185 36.826 50.6493 37.2956 49.7114 37.2956C49.2424 37.2956 48.3046 37.2956 46.8976 36.5923C46.6635 36.5923 46.6635 36.3574 46.6635 36.3574H46.4284L45.7251 37.2954Z" fill="#FBFDFF"/>
<path d="M68.7048 31.9016C68.4701 31.4328 68.2358 30.7293 68.0017 30.2605C67.5325 29.7917 67.2978 29.5566 66.5943 29.3225C66.1255 29.0884 65.422 28.8535 64.7185 28.8535C64.0146 28.8535 63.3115 29.0882 62.8423 29.3225C62.3733 29.5566 61.9048 30.0266 61.4356 30.2605C60.9668 30.7295 60.7323 31.1983 60.7323 31.9016C60.4976 32.3712 60.4976 33.0747 60.4976 33.778C60.4976 34.4815 60.4976 35.1846 60.7323 35.6538C60.9668 36.1227 61.2009 36.826 61.4356 37.2954C61.9048 37.7644 62.1388 37.9989 62.8423 38.2332C63.3115 38.4675 64.0146 38.7022 64.7185 38.7022C65.4218 38.7022 66.1253 38.4677 66.5943 38.2332C67.0635 37.9989 67.5325 37.5297 68.0017 37.2954C68.4699 36.8258 68.7048 36.3572 68.7048 35.6538C68.9393 35.1846 68.9393 34.4815 68.9393 33.778C68.9393 33.0745 68.9393 32.371 68.7048 31.9016ZM67.0635 33.7778C67.0635 34.7156 66.8288 35.6536 66.5943 36.1223C66.1255 36.592 65.6561 37.0605 64.9528 37.0605C64.2495 37.0605 63.5462 36.8256 63.3115 36.1223C62.8423 35.6534 62.8423 34.7156 62.8423 33.7778C62.8423 32.8396 63.077 31.9014 63.3115 31.4328C63.7803 30.9638 64.2493 30.4948 64.9528 30.4948C65.6561 30.4948 66.36 30.7293 66.5943 31.4328C66.8288 31.9016 67.0635 32.6051 67.0635 33.7778Z" fill="#FBFDFF"/>
<path d="M83.2426 36.5919C83.0083 36.5919 83.2426 36.357 83.2426 36.5919C82.774 36.5919 82.5393 36.5919 82.3052 36.8256C82.0705 36.8256 81.6011 36.8256 81.367 36.8256C80.4294 36.8256 79.7255 36.592 79.2569 36.1223C78.7879 35.6534 78.5532 34.7156 78.5532 33.7778C78.5532 32.8396 78.7879 32.1361 79.2569 31.4328C79.7255 30.9638 80.4294 30.4948 81.1325 30.4948C81.8358 30.4948 82.3052 30.4948 83.0085 30.7293C83.0085 30.7293 83.2426 30.7293 83.2426 30.4948C83.4773 30.0264 83.4773 29.7917 83.7118 29.3223C83.7118 29.0882 83.7118 29.0882 83.7118 29.0882C83.4773 29.0882 83.0085 28.8535 82.5391 28.8535C82.0703 28.8535 81.6009 28.8535 81.1323 28.8535C80.429 28.8535 79.7253 29.0882 79.2567 29.3225C78.7877 29.5566 78.3185 30.0266 77.8495 30.2605C77.3803 30.7295 77.1462 31.1983 76.9115 31.9016C76.6772 32.3712 76.6772 33.0747 76.6772 33.778C76.6772 35.1846 77.1464 36.3572 77.8497 37.2954C78.553 38.2332 79.7255 38.7022 81.367 38.7022C82.3052 38.7022 83.2426 38.4677 83.9467 38.2332C83.9467 38.2332 84.1808 38.2332 83.9467 37.9989L83.2426 36.5919Z" fill="#FBFDFF"/>
<path d="M92.1531 31.4328C91.9188 30.9638 91.6843 30.2603 91.4499 30.0264C90.9809 29.5564 90.7464 29.3223 90.2776 29.0882C89.8084 28.8535 89.1049 28.8535 88.6361 28.8535C87.9328 28.8535 87.2291 29.0882 86.7603 29.3225C86.2911 29.5566 85.8223 30.0266 85.3531 30.2605C84.8841 30.7295 84.6498 31.1983 84.6498 31.9016C84.4155 32.6051 84.4155 33.0747 84.4155 33.778C84.4155 34.4815 84.4155 35.1846 84.6498 35.6538C84.8841 36.1227 85.119 36.826 85.588 37.0609C86.0572 37.5299 86.526 37.7644 86.9948 37.9989C87.6987 38.2332 88.4022 38.4677 89.1051 38.2332C90.7466 38.2332 91.6848 37.7642 92.1533 37.5297C92.1533 37.5297 92.388 37.5297 92.1533 37.2954L91.6846 36.1225C91.6846 35.888 91.4499 36.1225 91.4499 36.1225C90.9809 36.357 90.5119 36.5922 89.1049 36.5922C88.1671 36.5922 87.4638 36.3572 86.9946 35.888C86.5258 35.419 86.2913 34.7158 86.2913 34.0123H92.1533C92.1533 34.0123 92.388 34.0123 92.388 33.778C92.3878 34.0123 92.6223 32.8396 92.1531 31.4328ZM86.2911 32.6051C86.2911 32.1361 86.5256 31.6671 86.7603 31.1983C87.2291 30.7293 87.6985 30.2605 88.402 30.2605C89.1051 30.2605 89.8084 30.4948 90.0431 31.1983C90.2776 31.6671 90.5119 32.1361 90.5119 32.6051H86.2911Z" fill="#FBFDFF"/>
<path d="M44.318 31.4328C44.0837 30.9638 43.8494 30.2603 43.6147 30.0264C43.1457 29.5564 42.9114 29.3223 42.4424 29.0882C41.9732 28.8535 41.2701 28.8535 40.8009 28.8535C40.0976 28.8535 39.3941 29.0882 38.9253 29.3225C38.4561 29.5566 37.9873 30.0266 37.5179 30.2605C37.0492 30.7295 36.8149 31.1983 36.8149 31.9016C36.5806 32.6051 36.5806 33.0747 36.5806 33.778C36.5806 34.4815 36.5806 35.1846 36.8149 35.6538C37.0492 36.1227 37.2839 36.826 37.7531 37.0609C38.2221 37.5299 38.6906 37.7644 39.1596 37.9989C39.8629 38.2332 40.567 38.4677 41.2703 38.2332C42.9116 38.2332 43.8498 37.7642 44.3184 37.5297C44.3184 37.5297 44.5531 37.5297 44.3184 37.2954L43.8498 36.1225C43.8498 35.888 43.6151 36.1225 43.6151 36.1225C43.1461 36.357 42.6769 36.5922 41.2705 36.5922C40.3325 36.5922 39.629 36.3572 39.1598 35.888C38.6908 35.419 38.4565 34.7158 38.4565 34.0123H44.3186C44.3186 34.0123 44.5533 34.0123 44.5533 33.778C44.5527 34.0123 44.7872 32.8396 44.318 31.4328ZM38.4559 32.6051C38.4559 32.1361 38.6904 31.6671 38.9251 31.1983C39.3941 30.7293 39.8627 30.2605 40.5666 30.2605C41.2699 30.2605 41.9732 30.4948 42.2081 31.1983C42.4422 31.6671 42.6765 32.1361 42.6765 32.6051H38.4559Z" fill="#FBFDFF"/>
<path d="M27.9039 32.3712C27.6694 32.3712 27.4347 32.3712 26.9661 32.3712C26.4973 32.3712 26.0279 32.3712 25.5591 32.6051C25.0899 32.8396 24.6209 32.8396 24.3868 33.0747C23.9176 33.3084 23.6836 33.778 23.4486 34.0123C23.2144 34.4815 23.2144 34.95 23.2144 35.419C23.2144 35.888 23.2144 36.357 23.4486 36.8258C23.6834 37.2954 23.9176 37.5297 24.1523 37.7642C24.3866 37.9987 24.8556 38.2332 25.3248 38.2332C25.7938 38.2332 26.2624 38.4675 26.9661 38.4675C27.6694 38.4675 28.1388 38.4675 28.8421 38.2332C29.3109 38.2332 30.2487 37.9989 30.2487 37.9989C30.4834 37.9989 30.7179 37.9989 30.7179 37.9989C30.9526 37.9989 30.9526 37.7644 30.9526 37.7644V32.3712C30.9526 31.1983 30.7179 30.2605 30.0146 29.7917C29.3111 29.3223 28.3731 28.8535 27.2008 28.8535C26.7316 28.8535 26.0281 28.8535 25.5593 29.0882C25.5593 29.0882 24.1525 29.3223 23.6836 29.7917C23.6836 29.7917 23.4489 29.7917 23.6836 30.0264L24.1525 31.1983C24.1525 31.4328 24.3868 31.1983 24.3868 31.1983C25.5591 30.4948 26.9661 30.4948 26.9661 30.4948C27.6694 30.4948 28.1388 30.7293 28.3729 30.964C28.6076 31.1983 28.8421 31.6671 28.8421 32.3712V32.6051C28.3729 32.3712 27.9039 32.3712 27.9039 32.3712ZM25.5591 36.5921C25.3248 36.3572 25.3248 36.3572 25.3248 36.1225C25.0899 35.888 25.0899 35.6535 25.0899 35.419C25.0899 34.95 25.3248 34.4815 25.5591 34.2468C25.5591 34.2468 26.0279 33.7778 27.2006 33.7778C28.1388 33.7778 28.8421 34.0121 28.8421 34.0121V36.8256C28.8421 36.8256 28.1388 37.0605 27.2006 37.0605C26.0279 37.0609 25.5591 36.5921 25.5591 36.5921Z" fill="#FBFDFF"/>
<path d="M75.9742 29.3225C75.9742 29.0884 76.2085 29.3225 75.9742 29.3225C75.7393 29.0884 75.2703 28.8535 74.8013 28.8535C74.098 28.8535 73.6292 28.8535 73.16 29.0882C72.6912 29.3223 72.4565 29.5566 72.2218 29.7917V29.0882C72.2218 29.0882 72.2218 28.8535 71.9871 28.8535H70.3458C70.3458 28.8535 70.1113 28.8535 70.1113 29.0882V38.2332C70.1113 38.2332 70.1113 38.4675 70.3458 38.4675H71.9871C71.9871 38.4675 72.2218 38.4675 72.2218 38.2332V33.778C72.2218 33.0747 72.2218 32.6051 72.4563 32.1363C72.691 31.6671 72.691 31.433 72.9251 31.1985C73.1598 30.9642 73.3943 30.7295 73.629 30.7295C73.8631 30.7295 74.0976 30.7295 74.3323 30.7295C74.5664 30.7295 75.0356 30.7295 75.0356 30.7295C75.0356 30.7295 75.2697 30.7295 75.2697 30.495C75.7393 30.2607 75.9742 29.5568 75.9742 29.3225Z" fill="#FBFDFF"/>
<path d="M61.4353 25.102C61.2006 25.102 60.9665 25.1021 60.732 24.8682C60.4973 24.8682 60.2633 24.8682 60.0286 24.8682C58.8563 24.8682 58.1528 25.1021 57.4495 25.8055C56.7456 26.509 56.5115 27.2123 56.277 28.6193V29.0887H54.8698C54.8698 29.0887 54.6357 29.0887 54.6357 29.3228L54.401 30.4953C54.401 30.7298 54.401 30.7298 54.6357 30.7298H56.0423L54.6357 38.2337C54.6357 38.937 54.401 39.4062 54.1663 39.6411C53.9316 40.1093 53.9316 40.3442 53.6975 40.5783C53.463 40.8132 53.463 40.8132 53.2283 41.0479C52.9942 41.0479 52.7593 41.0479 52.525 41.0479C52.2903 41.0479 52.2903 41.0479 52.0562 41.0479C51.8217 41.0479 51.8217 41.0479 51.8217 41.0479H51.587C51.587 41.2822 51.1187 42.2202 51.1187 42.2202C51.1187 42.4545 51.1187 42.4545 51.1187 42.4545C51.3529 42.4545 51.3529 42.4545 51.587 42.689C51.8217 42.689 52.2903 42.689 52.5252 42.689C52.9944 42.689 53.4634 42.689 53.932 42.4545C54.4012 42.2202 54.6359 41.9849 55.1043 41.7514C55.339 41.2822 55.5735 41.0479 55.8082 40.3442C56.0425 39.8748 56.2772 39.1715 56.2772 38.2337L57.684 30.7298H59.5596C59.5596 30.7298 59.7943 30.7298 59.7943 30.4953L60.0288 29.3228C60.0288 29.0887 60.0288 29.0887 59.7943 29.0887H57.9187C57.9187 29.0887 57.9187 28.3854 58.153 27.6815C58.153 27.4472 58.3873 27.2125 58.622 26.978C58.8563 26.7439 58.8563 26.7439 59.0912 26.7439C59.3253 26.7439 59.5596 26.7439 59.7943 26.7439C60.0288 26.7439 60.2635 26.7439 60.2635 26.7439C60.4975 26.7439 60.4975 26.7439 60.4975 26.7439C60.7322 26.7439 60.7323 26.7439 60.7323 26.7439L61.4353 25.102C61.4353 25.3367 61.4353 25.3367 61.4353 25.102Z" fill="#FBFDFF"/>
<path d="M34.7042 38.2335H33.0633C33.0633 38.2335 32.8286 38.2335 32.8286 37.9992V25.3366C32.8286 25.3366 32.8286 25.1021 33.0633 25.1021H34.7042C34.7042 25.1021 34.9389 25.1021 34.9389 25.3366V38.2335H34.7042Z" fill="#FBFDFF"/>
<path d="M110.208 34.7165C110.208 33.0755 110.912 31.9024 112.084 31.1991C113.256 30.4956 115.132 30.2613 117.711 30.2613C118.415 30.2613 118.885 30.2613 119.119 30.2613V29.5574C119.119 28.6198 118.885 27.9165 118.415 27.4475C117.946 26.9783 117.008 26.7442 116.071 26.7442C114.663 26.7442 113.256 27.2128 112.084 27.9165L111.381 26.5095C112.787 25.5713 114.429 25.1025 116.305 25.1025C118.181 25.1025 119.588 25.5713 120.291 26.2754C121.229 27.2128 121.464 28.3859 121.464 30.2615V35.6547C121.464 36.5931 121.464 37.5309 121.698 38.4687H119.588C119.353 37.7654 119.353 37.0619 119.353 36.5931C118.885 37.2964 118.181 37.7654 117.477 38.2342C116.774 38.7032 115.836 38.7032 114.663 38.7032C113.491 38.7032 112.319 38.4687 111.616 37.7654C110.677 37.0615 110.208 35.8886 110.208 34.7165ZM118.885 33.544V31.9024H117.711C116.539 31.9024 115.367 31.9024 114.663 32.1369C113.96 32.3718 113.256 32.6059 113.023 33.0753C112.553 33.3089 112.553 33.7785 112.553 34.482C112.553 35.1851 112.788 35.8886 113.256 36.1231C113.726 36.5927 114.429 36.8264 115.132 36.8264C116.071 36.8264 116.774 36.5927 117.243 36.3576C117.946 36.1231 118.415 35.6541 118.65 34.9506C118.885 34.482 118.885 34.013 118.885 33.544Z" fill="#333333"/>
<path d="M137.174 31.6679C137.174 33.0755 136.939 34.2478 136.47 35.1853C136.001 36.1233 135.298 37.0617 134.36 37.7652C133.423 38.4685 132.25 38.703 131.077 38.703C129.436 38.703 128.029 38.234 126.857 37.0617V44.5652H124.746V28.1512C124.746 27.213 124.746 26.2754 124.512 25.1027H126.622C126.622 25.5715 126.857 26.2756 126.857 27.213C127.326 26.5097 127.795 25.8062 128.733 25.5715C129.436 25.1027 130.374 24.8687 131.547 24.8687C132.72 24.8687 133.891 25.1025 134.83 25.806C135.767 26.5095 136.236 27.2128 136.705 28.3859C136.939 29.3231 137.174 30.4956 137.174 31.6679ZM134.829 31.6679C134.829 30.0274 134.595 28.8543 133.891 27.9165C133.188 26.9783 132.25 26.5095 131.078 26.5095C130.374 26.5095 129.436 26.7442 128.967 26.9783C128.264 27.4475 127.795 27.9165 127.56 28.6198C127.326 29.3233 127.091 30.0274 127.091 30.7303V35.1853C127.795 35.8888 128.264 36.1233 128.967 36.5929C129.671 36.8266 130.14 37.0617 131.078 37.0617C132.484 37.0617 133.423 36.5929 134.126 35.6545C134.595 34.482 134.829 33.3092 134.829 31.6679Z" fill="#333333"/>
<path d="M151.947 31.6679C151.947 33.0755 151.712 34.2478 151.243 35.1853C150.774 36.1233 150.071 37.0617 149.133 37.7652C148.195 38.4685 147.022 38.703 145.85 38.703C144.209 38.703 142.802 38.234 141.629 37.0617V44.5652H139.518V28.1512C139.518 27.213 139.518 26.2754 139.285 25.1027H141.395C141.395 25.5715 141.629 26.2756 141.629 27.213C142.098 26.5097 142.567 25.8062 143.505 25.5715C144.209 25.1027 145.146 24.8687 146.319 24.8687C147.492 24.8687 148.664 25.1025 149.601 25.806C150.54 26.5095 151.009 27.2128 151.478 28.3859C151.712 29.3231 151.947 30.4956 151.947 31.6679ZM149.601 31.6679C149.601 30.0274 149.368 28.8543 148.664 27.9165C147.96 26.9783 147.023 26.5095 145.85 26.5095C145.146 26.5095 144.209 26.7442 143.74 26.9783C143.037 27.4475 142.567 27.9165 142.333 28.6198C142.098 29.3233 141.864 30.0274 141.864 30.7303V35.1853C142.567 35.8888 143.037 36.1233 143.74 36.5929C144.443 36.8266 144.913 37.0617 145.85 37.0617C147.257 37.0617 148.195 36.5929 148.898 35.6545C149.133 34.482 149.601 33.3092 149.601 31.6679Z" fill="#333333"/>
<path d="M165.782 32.6057H156.168C156.168 34.0128 156.637 34.9506 157.34 35.8886C158.044 36.5927 158.982 37.0615 160.388 37.0615C161.092 37.0615 161.795 37.0615 162.499 36.8266C163.203 36.5929 163.672 36.3578 164.374 35.8888L165.313 37.2962C164.609 37.7652 163.906 38.234 162.968 38.4685C162.03 38.703 161.326 38.9375 160.154 38.9375C158.044 38.9375 156.637 38.2342 155.464 37.0617C154.292 35.8888 153.823 34.0132 153.823 31.9026C153.823 30.4958 154.057 29.3233 154.527 28.3859C154.996 27.4477 155.699 26.5095 156.637 26.0403C157.575 25.5713 158.747 25.1025 159.92 25.1025C161.796 25.1025 163.203 25.806 164.374 26.9783C165.313 28.151 165.782 29.7925 165.782 31.9024C166.016 31.9022 165.782 32.3716 165.782 32.6057ZM163.672 30.7299C163.672 29.3229 163.203 28.3855 162.733 27.6814C162.03 26.9779 161.092 26.5091 159.92 26.5091C158.747 26.5091 157.809 26.9779 157.106 27.6814C156.403 28.3853 156.168 29.557 155.933 30.7299H163.672Z" fill="#333333"/>
<path d="M179.85 38.2337H177.271L173.284 32.8401L169.533 38.2337H166.953L172.112 31.4333L167.657 25.1021H170.236L173.753 30.0269L177.271 25.1021H179.616L175.16 31.4333L179.85 38.2337Z" fill="#333333"/>
<path d="M187.589 24.8682C188.526 24.8682 189.23 25.1021 189.933 25.3368C190.637 25.5711 191.34 26.04 192.044 26.2749L191.106 27.6815C190.168 26.978 188.996 26.5092 187.589 26.5092C186.181 26.5092 185.009 26.978 184.306 27.9162C183.602 28.854 183.133 30.0269 183.133 31.6676C183.133 33.0752 183.602 34.482 184.306 35.4195C185.009 36.3575 186.181 36.8263 187.589 36.8263C188.761 36.8263 189.933 36.3575 191.106 35.654L191.809 37.2957C190.402 38.2335 188.996 38.7025 187.354 38.7025C185.947 38.7025 184.775 38.468 183.837 37.7647C182.899 37.0612 182.195 36.3575 181.726 35.1848C181.258 34.2473 181.023 33.075 181.023 31.9019C181.023 29.792 181.492 28.1505 182.664 26.9778C184.071 25.5708 185.713 24.8682 187.589 24.8682Z" fill="#333333"/>
<path d="M194.623 20.1777H196.733V27.2121C197.203 26.5088 197.672 26.0396 198.375 25.5706C199.078 25.1018 200.016 24.8677 201.188 24.8677C202.83 24.8677 204.003 25.3363 204.94 26.2745C205.644 27.2119 206.113 28.385 206.113 29.7917V38.2333H204.003V30.2605C204.003 29.3225 203.767 28.385 203.299 27.6811C202.83 26.9776 201.892 26.7435 200.719 26.7435C199.547 26.7435 198.609 27.2121 197.906 27.9158C197.203 28.619 196.733 29.7917 196.733 30.964V38.2333H194.623V20.1777Z" fill="#333333"/>
<path d="M208.692 34.7165C208.692 33.0755 209.396 31.9024 210.569 31.1991C211.741 30.4956 213.617 30.2613 216.196 30.2613C216.9 30.2613 217.369 30.2613 217.603 30.2613V29.5574C217.603 28.6198 217.369 27.9165 216.9 27.4475C216.43 26.9783 215.493 26.7442 214.554 26.7442C213.148 26.7442 211.741 27.2128 210.569 27.9165L209.865 26.5095C211.272 25.5713 212.913 25.1025 214.789 25.1025C216.665 25.1025 218.072 25.5713 218.775 26.2754C219.713 27.2128 219.948 28.3859 219.948 30.2615V35.6547C219.948 36.5931 219.948 37.5309 220.183 38.4687H218.072C217.837 37.7654 217.837 37.0619 217.837 36.5931C217.369 37.2964 216.665 37.7654 215.961 38.2342C215.258 38.7032 214.32 38.7032 213.148 38.7032C211.975 38.7032 210.803 38.4687 210.099 37.7654C209.396 37.0615 208.692 35.8886 208.692 34.7165ZM217.603 33.544V31.9024H216.43C215.258 31.9024 214.085 31.9024 213.382 32.1369C212.678 32.3718 211.975 32.6059 211.741 33.0753C211.272 33.544 211.272 34.0128 211.272 34.7163C211.272 35.4196 211.506 36.1231 211.975 36.3576C212.444 36.8264 213.147 37.0613 213.851 37.0613C214.789 37.0613 215.493 36.8264 215.961 36.5925C216.664 36.3576 217.134 35.8884 217.368 35.1849C217.368 34.482 217.603 34.013 217.603 33.544Z" fill="#333333"/>
<path d="M222.761 28.1511C222.761 27.2129 222.761 26.2753 222.527 25.1026H224.638C224.638 25.5714 224.871 26.2755 224.871 26.9784C225.34 26.2753 225.81 25.8061 226.747 25.3371C227.451 24.8685 228.389 24.6338 229.561 24.6338C231.202 24.6338 232.375 25.1026 233.313 26.0404C234.016 26.9784 234.485 28.151 234.485 29.5574V38.234H232.141V30.2613C232.141 29.3233 231.907 28.3858 231.438 27.6819C230.969 26.9784 230.03 26.7443 228.858 26.7443C227.685 26.7443 226.747 27.2129 226.044 27.9166C225.34 28.6198 224.871 29.7925 224.871 30.9648V38.234H222.761V28.1511Z" fill="#333333"/>
<path d="M236.361 41.0479C236.361 40.3442 236.596 39.6411 237.065 38.937C237.534 38.2337 238.238 37.7647 239.176 37.2959C238.238 36.8263 238.003 36.3577 238.003 35.6543C238.003 35.1851 238.238 34.7165 238.472 34.482C238.707 34.0128 239.176 33.7785 239.879 33.7785C239.176 33.544 238.472 32.8403 238.003 32.3717C237.534 31.6676 237.3 30.9645 237.3 29.7922C237.3 28.3854 237.769 27.2123 238.707 26.275C239.644 25.3368 241.051 25.1021 242.693 25.1021C243.162 25.1021 243.631 25.1021 243.865 25.1021C244.1 25.1021 244.569 25.3366 245.038 25.3366H249.493V26.9778L246.679 26.7437C247.148 26.9778 247.383 27.447 247.617 27.916C247.852 28.3852 248.086 29.0885 248.086 29.792C248.086 31.1986 247.617 32.3715 246.679 33.075C245.741 33.7783 244.335 34.2473 242.693 34.2473C241.755 34.2473 241.052 34.2473 240.583 34.4818C240.113 34.7161 239.879 34.9506 239.879 35.4193C239.879 36.1228 240.816 36.5924 242.458 36.5924C244.803 36.5924 246.679 37.0612 247.617 37.53C248.789 38.2335 249.258 39.1713 249.258 40.344C249.258 41.7512 248.555 42.9235 247.382 43.8611C246.21 44.5646 244.334 45.0333 242.224 45.0333C240.348 45.0333 238.941 44.7997 237.769 44.0958C236.831 43.158 236.361 42.22 236.361 41.0479ZM246.914 40.3442C246.914 39.8748 246.679 39.4062 246.444 39.1715C245.976 38.937 245.507 38.7025 244.568 38.468C243.631 38.2337 242.458 38.2337 240.817 38.2337C240.113 38.468 239.41 38.937 239.176 39.4062C238.941 39.875 238.707 40.3442 238.707 40.8134C238.707 42.4545 239.879 43.158 242.458 43.158C244.099 43.158 245.272 42.9237 245.976 42.4545C246.679 41.9849 246.914 41.2822 246.914 40.3442ZM245.976 29.5571C245.976 28.6195 245.741 27.9162 245.038 27.2125C244.568 26.7439 243.631 26.2752 242.458 26.2752C241.52 26.2752 240.583 26.5092 240.113 27.2125C239.41 27.6815 239.176 28.3856 239.176 29.323C239.176 30.261 239.41 30.9645 240.113 31.6676C240.583 32.1368 241.52 32.6056 242.693 32.6056C244.803 32.6056 245.976 31.6676 245.976 29.5571Z" fill="#333333"/>
<path d="M262.624 32.6057H253.01C253.01 34.0128 253.479 34.9506 254.182 35.8886C254.886 36.5927 255.824 37.0615 257.231 37.0615C257.934 37.0615 258.638 37.0615 259.341 36.8266C260.044 36.5929 260.514 36.3578 261.217 35.8888L262.156 37.2962C261.452 37.7652 260.748 38.234 259.81 38.4685C258.873 38.703 258.169 38.9375 256.996 38.9375C254.886 38.9375 253.479 38.2342 252.307 37.0617C251.134 35.8888 250.666 34.0132 250.666 31.9026C250.666 30.4958 250.899 29.3233 251.369 28.3859C251.838 27.4477 252.541 26.5095 253.479 26.0403C254.417 25.5713 255.59 25.1025 256.762 25.1025C258.638 25.1025 260.044 25.806 261.217 26.9783C262.156 28.151 262.624 29.7925 262.624 31.9024C262.624 31.9024 262.624 32.3716 262.624 32.6057ZM260.514 30.7299C260.514 29.3229 260.044 28.3855 259.576 27.6814C258.872 26.9779 257.935 26.5091 256.762 26.5091C255.59 26.5091 254.652 26.9779 253.948 27.6814C253.245 28.3853 253.01 29.557 252.776 30.7299H260.514Z" fill="#333333"/>
</svg>
