<svg width="147" height="40" viewBox="0 0 147 40" fill="none" xmlns="http://www.w3.org/2000/svg">
<path d="M45.7744 19.2299C45.7744 25.7699 49.9602 30.3299 55.7604 30.3299C61.5607 30.3299 65.7465 25.7699 65.7465 19.2299C65.7465 12.6899 61.5607 8.12988 55.7604 8.12988C49.9602 8.12988 45.7744 12.6899 45.7744 19.2299ZM61.9195 19.2299C61.9195 23.9099 59.3781 26.9399 55.7604 26.9399C52.1428 26.9399 49.6014 23.9099 49.6014 19.2299C49.6014 14.5499 52.1428 11.5199 55.7604 11.5199C59.3781 11.5199 61.9195 14.5499 61.9195 19.2299Z" fill="#333333"/>
<path d="M76.5233 30.3302C80.9184 30.3302 83.4299 26.6102 83.4299 22.1402C83.4299 17.6702 80.9184 13.9502 76.5233 13.9502C74.4903 13.9502 72.9953 14.7602 72.0087 15.9302V14.2502H68.4209V35.4002H72.0087V28.3502C72.9953 29.5202 74.4903 30.3302 76.5233 30.3302ZM71.919 21.6902C71.919 18.7202 73.5933 17.1002 75.8058 17.1002C78.4069 17.1002 79.8122 19.1402 79.8122 22.1402C79.8122 25.1402 78.4069 27.1802 75.8058 27.1802C73.5933 27.1802 71.919 25.5302 71.919 22.6202V21.6902Z" fill="#333333"/>
<path d="M93.1397 30.3302C96.279 30.3302 98.7606 28.6802 99.8668 25.9202L96.7873 24.7502C96.3089 26.3702 94.9037 27.2702 93.1397 27.2702C90.8375 27.2702 89.223 25.6202 88.9539 22.9202H99.9565V21.7202C99.9565 17.4002 97.5347 13.9502 92.9902 13.9502C88.4457 13.9502 85.5156 17.5202 85.5156 22.1402C85.5156 27.0002 88.6549 30.3302 93.1397 30.3302ZM92.9603 16.9802C95.2326 16.9802 96.3089 18.4802 96.3388 20.2202H89.1333C89.6715 18.0902 91.1066 16.9802 92.9603 16.9802Z" fill="#333333"/>
<path d="M102.648 30.0002H106.236V20.7602C106.236 18.5102 107.881 17.3102 109.495 17.3102C111.468 17.3102 112.246 18.7202 112.246 20.6702V30.0002H115.834V19.6202C115.834 16.2302 113.86 13.9502 110.571 13.9502C108.538 13.9502 107.133 14.8802 106.236 15.9302V14.2502H102.648V30.0002Z" fill="#333333"/>
<path d="M126.341 8.45996L118.209 30H122.006L123.83 25.08H133.098L134.952 30H138.809L130.677 8.45996H126.341ZM128.434 12.72L131.843 21.72H125.086L128.434 12.72Z" fill="#333333"/>
<path d="M144.968 8.52246H141.141V30.0625H144.968V8.52246Z" fill="#333333"/>
<path d="M37.0064 16.3714C37.9109 13.6477 37.5994 10.6639 36.1531 8.18644C33.978 4.38644 29.6054 2.43144 25.3349 3.35144C23.4351 1.20394 20.7056 -0.0173145 17.8441 0.000185529C13.479 -0.00981447 9.60589 2.81019 8.26296 6.97769C5.45875 7.55394 3.03823 9.31519 1.6218 11.8114C-0.569499 15.6014 -0.0699483 20.3789 2.85759 23.6289C1.95317 26.3527 2.26461 29.3364 3.71094 31.8139C5.88604 35.6139 10.2587 37.5689 14.5291 36.6489C16.4277 38.7964 19.1584 40.0177 22.0199 39.9989C26.3876 40.0102 30.2619 37.1877 31.6048 33.0164C34.409 32.4402 36.8295 30.6789 38.246 28.1827C40.4348 24.3927 39.934 19.6189 37.0077 16.3689L37.0064 16.3714ZM22.0224 37.3852C20.2746 37.3877 18.5816 36.7739 17.2399 35.6502C17.301 35.6177 17.4069 35.5589 17.4754 35.5164L25.4134 30.9164C25.8195 30.6852 26.0686 30.2514 26.0662 29.7827V18.5539L29.421 20.4977C29.4571 20.5152 29.4808 20.5502 29.4858 20.5902V29.8889C29.4808 34.0239 26.1434 37.3764 22.0224 37.3852ZM5.972 30.5064C5.09623 28.9889 4.78105 27.2102 5.08128 25.4839C5.13983 25.5189 5.24323 25.5827 5.31673 25.6252L13.2547 30.2252C13.6571 30.4614 14.1554 30.4614 14.559 30.2252L24.2498 24.6102V28.4977C24.2523 28.5377 24.2336 28.5764 24.2025 28.6014L16.1785 33.2502C12.6044 35.3152 8.03997 34.0877 5.97325 30.5064H5.972ZM3.88286 13.1202C4.75489 11.6002 6.13146 10.4377 7.77088 9.83394C7.77088 9.90269 7.76714 10.0239 7.76714 10.1089V19.3102C7.76465 19.7777 8.01381 20.2114 8.41868 20.4427L18.1095 26.0564L14.7546 28.0002C14.721 28.0227 14.6786 28.0264 14.6413 28.0102L6.61606 23.3577C3.04944 21.2852 1.8261 16.7064 3.88161 13.1214L3.88286 13.1202ZM31.4466 19.5564L21.7558 13.9414L25.1107 11.9989C25.1443 11.9764 25.1866 11.9727 25.224 11.9889L33.2492 16.6377C36.8221 18.7089 38.0467 23.2952 35.9824 26.8802C35.1091 28.3977 33.7338 29.5602 32.0956 30.1652V20.6889C32.0994 20.2214 31.8515 19.7889 31.4478 19.5564H31.4466ZM34.7852 14.5139C34.7267 14.4777 34.6233 14.4152 34.5498 14.3727L26.6118 9.77269C26.2094 9.53644 25.7111 9.53644 25.3075 9.77269L15.6167 15.3877V11.5002C15.6142 11.4602 15.6329 11.4214 15.664 11.3964L23.688 6.75144C27.2621 4.68269 31.8315 5.91394 33.892 9.50144C34.7628 11.0164 35.078 12.7902 34.7828 14.5139H34.7852ZM13.7929 21.4427L10.4368 19.4989C10.4007 19.4814 10.377 19.4464 10.372 19.4064V10.1077C10.3745 5.96769 13.7219 2.61269 17.8479 2.61519C19.5932 2.61519 21.2824 3.23019 22.6241 4.35019C22.5631 4.38269 22.4584 4.44144 22.3887 4.48394L14.4507 9.08394C14.0445 9.31519 13.7954 9.74769 13.7979 10.2164L13.7929 21.4402V21.4427ZM15.6154 17.5002L19.932 14.9989L24.2486 17.4989V22.5002L19.932 25.0002L15.6154 22.5002V17.5002Z" fill="#333333"/>
</svg>
