<svg width="196" height="34" viewBox="0 0 196 34" fill="none" xmlns="http://www.w3.org/2000/svg">
<g clip-path="url(#clip0_1259_2164)">
<mask id="mask0_1259_2164" style="mask-type:luminance" maskUnits="userSpaceOnUse" x="1" y="0" width="195" height="34">
<path d="M1.37891 0.262943H195.599V33.1318H1.37891V0.262943Z" fill="white"/>
</mask>
<g mask="url(#mask0_1259_2164)">
<mask id="mask1_1259_2164" style="mask-type:luminance" maskUnits="userSpaceOnUse" x="1" y="0" width="195" height="34">
<path d="M1.37891 33.1318H195.599V0.262947H1.37891V33.1318Z" fill="white"/>
</mask>
<g mask="url(#mask1_1259_2164)">
<path d="M77.543 3.86152C77.543 2.22995 78.8633 0.910306 80.4886 0.910306C82.1194 0.910306 83.4449 2.22995 83.4449 3.86152C83.4449 5.49097 82.1194 6.81201 80.4886 6.81201C78.8633 6.81201 77.543 5.49097 77.543 3.86152Z" fill="#333333"/>
<path d="M124.108 23.4909C124.108 21.8587 125.427 20.5376 127.053 20.5376C128.683 20.5376 130.008 21.8587 130.008 23.4909C130.008 25.119 128.683 26.4414 127.053 26.4414C125.427 26.4414 124.108 25.119 124.108 23.4909Z" fill="#96949A"/>
<path d="M29.1074 22.2154C26.5657 22.2154 24.7994 20.202 24.7994 17.3249C24.7994 14.4486 26.5657 12.4366 29.1074 12.4366C31.6637 12.4366 33.4495 14.4486 33.4495 17.3249C33.4495 20.2475 31.7009 22.2154 29.1074 22.2154ZM29.1074 8.13844C23.7301 8.13844 19.8276 12.003 19.8276 17.3249C19.8276 22.6469 23.7301 26.5107 29.1074 26.5107C34.5049 26.5107 38.4236 22.6469 38.4236 17.3249C38.4236 12.003 34.5049 8.13844 29.1074 8.13844Z" fill="#333333"/>
<path d="M71.8274 17.7845C71.6184 17.3922 71.3787 17.06 71.1234 16.7964L70.9609 16.6243L71.132 16.4607C71.3788 16.2012 71.6311 15.8935 71.8745 15.5369L76.6198 8.50083H70.8591L67.2937 14.0046C67.0919 14.2997 66.6844 14.4487 66.0744 14.4487H65.2618V4.04324C65.2618 1.96201 63.9619 1.67878 62.5575 1.67878H60.1533L60.1573 26.2402H65.2618V18.8727H65.74C66.3218 18.8727 66.7181 18.9398 66.8998 19.2552L69.7156 24.5562C70.5022 25.9948 71.2861 26.2402 72.7607 26.2402H76.6725L73.7591 21.4337L71.8274 17.7845Z" fill="#333333"/>
<path d="M96.6073 8.09934C94.0109 8.09934 92.3543 9.24975 91.4259 10.2225L91.1159 10.5351L91.0066 10.11C90.7338 9.06792 89.8146 8.49446 88.4312 8.49446H86.1436L86.1579 26.2339H91.2276V18.0579C91.2276 17.2586 91.3318 16.5648 91.5437 15.9319C92.1081 14.0164 93.6822 12.8255 95.6496 12.8255C97.2322 12.8255 97.8505 13.6584 97.8505 15.811V23.5372C97.8505 25.3744 98.7024 26.2339 100.546 26.2339H102.958L102.95 14.9515C102.95 10.4687 100.757 8.09934 96.6073 8.09934Z" fill="#333333"/>
<path d="M80.5563 8.50232H78.1533L78.1698 22.2184L78.1681 26.2382H80.733C80.7653 26.2382 80.7912 26.2417 80.8235 26.2417L82.0182 26.2382H83.2074V26.2312H83.2156L83.2259 11.1955C83.2259 9.3814 82.3546 8.50232 80.5563 8.50232Z" fill="#333333"/>
<path d="M49.0208 22.2154C46.4793 22.2154 44.7095 20.202 44.7095 17.3249C44.7095 14.4486 46.4793 12.4366 49.0208 12.4366C51.5718 12.4366 53.3625 14.4486 53.3625 17.3249C53.3625 20.2475 51.6145 22.2154 49.0208 22.2154ZM49.0208 8.13844C43.6381 8.13844 39.7349 12.003 39.7349 17.3249C39.7349 22.6469 43.6381 26.5107 49.0208 26.5107C54.4127 26.5107 58.3379 22.6469 58.3379 17.3249C58.3379 12.003 54.4127 8.13844 49.0208 8.13844Z" fill="#333333"/>
</g>
</g>
<mask id="mask2_1259_2164" style="mask-type:luminance" maskUnits="userSpaceOnUse" x="1" y="0" width="195" height="34">
<path d="M1.37891 0.262943H195.599V33.1318H1.37891V0.262943Z" fill="white"/>
</mask>
<g mask="url(#mask2_1259_2164)">
<mask id="mask3_1259_2164" style="mask-type:luminance" maskUnits="userSpaceOnUse" x="1" y="0" width="195" height="34">
<path d="M1.37891 0.909801H195.558V33.0898H1.37891V0.909801Z" fill="white"/>
</mask>
<g mask="url(#mask3_1259_2164)">
<mask id="mask4_1259_2164" style="mask-type:luminance" maskUnits="userSpaceOnUse" x="1" y="0" width="195" height="34">
<path d="M1.37891 33.1318H195.599V0.262947H1.37891V33.1318Z" fill="white"/>
</mask>
<g mask="url(#mask4_1259_2164)">
<path d="M157.691 22.2154C155.15 22.2154 153.379 20.202 153.379 17.3249C153.379 14.4486 155.15 12.4366 157.691 12.4366C160.242 12.4366 162.033 14.4486 162.033 17.3249C162.033 20.2475 160.285 22.2154 157.691 22.2154ZM157.691 8.13844C152.309 8.13844 148.406 12.003 148.406 17.3249C148.406 22.6469 152.309 26.5107 157.691 26.5107C163.083 26.5107 167.007 22.6469 167.007 17.3249C167.007 12.003 163.083 8.13844 157.691 8.13844Z" fill="#96949A"/>
<path d="M113.64 21.4349C110.868 21.4349 109.882 19.0229 109.882 16.7626C109.882 15.7668 110.134 12.5212 113.374 12.5212C114.984 12.5212 117.129 12.9813 117.129 16.9298C117.129 20.6537 115.23 21.4349 113.64 21.4349ZM119.761 8.4545C118.799 8.4545 118.059 8.83704 117.688 9.53568L117.548 9.80701L117.313 9.60351C116.494 8.89718 115.027 8.05938 112.645 8.05938C107.904 8.05938 104.712 11.6106 104.712 16.8955C104.712 22.1741 108.015 25.8631 112.74 25.8631C114.354 25.8631 115.629 25.4876 116.64 24.7239L117.032 24.4309V24.9239C117.032 27.2933 115.495 28.6003 112.711 28.6003C111.357 28.6003 110.125 28.2717 109.302 27.9737C108.226 27.6499 107.596 27.9178 107.159 28.9941L106.757 29.9871L106.188 31.4376L106.54 31.625C108.323 32.5684 110.643 33.1313 112.74 33.1313C117.058 33.1313 122.099 30.927 122.099 24.7239L122.117 8.4545H119.761Z" fill="#333333"/>
</g>
</g>
</g>
<mask id="mask5_1259_2164" style="mask-type:luminance" maskUnits="userSpaceOnUse" x="1" y="0" width="195" height="34">
<path d="M1.37891 0.262943H195.599V33.1318H1.37891V0.262943Z" fill="white"/>
</mask>
<g mask="url(#mask5_1259_2164)">
<mask id="mask6_1259_2164" style="mask-type:luminance" maskUnits="userSpaceOnUse" x="1" y="0" width="195" height="34">
<path d="M1.37891 33.1318H195.599V0.262947H1.37891V33.1318Z" fill="white"/>
</mask>
<g mask="url(#mask6_1259_2164)">
<path d="M10.2267 22.0118L6.09978 22.0077V17.0864C6.09978 16.0346 6.50859 15.4877 7.41227 15.3619H10.2267C12.2355 15.3619 13.5334 16.6256 13.5348 18.6697C13.5334 20.7678 12.2677 22.0104 10.2267 22.0118ZM6.09978 8.73623V7.44106C6.09978 6.30744 6.5807 5.76826 7.63606 5.69901H9.74775C11.5588 5.69901 12.6436 6.78019 12.6436 8.58868C12.6436 9.96778 11.901 11.577 9.81436 11.577H6.09978V8.73623ZM15.4974 13.6477L14.7512 13.2295L15.4025 12.6742C16.1599 12.0245 17.4297 10.5643 17.4297 8.04111C17.4297 4.18075 14.4274 1.689 9.78074 1.689H4.47794L3.87419 1.68761C2.49657 1.73797 1.39432 2.8555 1.37891 4.2381V26.1505H3.81247C3.81864 26.1519 3.82071 26.1505 3.82276 26.1519L9.88548 26.1505C15.0509 26.1505 18.3849 23.3461 18.3849 19.0025C18.3849 16.6639 17.3084 14.6645 15.4974 13.6477Z" fill="#333333"/>
<path d="M189.654 8.15658C187.551 8.15658 185.517 9.13914 184.212 10.7868L183.844 11.2511L183.556 10.7315C182.618 9.02375 181.001 8.15658 178.754 8.15658C176.398 8.15658 174.817 9.46782 174.083 10.2476L173.603 10.7665L173.418 10.0839C173.15 9.10138 172.273 8.56008 170.944 8.56008H168.813L168.792 26.231H173.634V18.4305C173.634 17.7473 173.719 17.071 173.891 16.364C174.353 14.4793 175.623 12.4519 177.758 12.6547C179.075 12.7806 179.718 13.7953 179.718 15.7556V26.231H184.594V18.4305C184.594 17.5767 184.674 16.9375 184.867 16.2962C185.259 14.4968 186.585 12.6519 188.645 12.6519C190.136 12.6519 190.687 13.4939 190.687 15.7556V23.6476C190.687 25.433 191.485 26.231 193.274 26.231H195.553L195.557 14.9499C195.557 10.4434 193.569 8.15658 189.654 8.15658Z" fill="#96949A"/>
<path d="M145.603 20.0955C145.588 20.1129 143.505 22.304 140.762 22.304C138.263 22.304 135.738 20.7745 135.738 17.3604C135.738 14.4127 137.696 12.3524 140.497 12.3524C141.407 12.3524 142.442 12.6776 142.604 13.2245L142.628 13.3168C143.001 14.5567 144.131 14.6232 144.353 14.6232L147.006 14.626V12.3133C147.006 9.26281 143.115 8.15646 140.497 8.15646C134.899 8.15646 130.837 12.0441 130.837 17.3975C130.837 22.7488 134.855 26.6309 140.395 26.6309C145.201 26.6309 147.815 23.4797 147.84 23.4482L147.979 23.2775L145.879 19.8018L145.603 20.0955Z" fill="#96949A"/>
</g>
</g>
</g>
<defs>
<clipPath id="clip0_1259_2164">
<rect width="195" height="33" fill="white" transform="translate(0.968262 0.5)"/>
</clipPath>
</defs>
</svg>
