<svg width="187" height="54" viewBox="0 0 187 54" fill="none" xmlns="http://www.w3.org/2000/svg">
<path d="M82.8779 26.1051C82.3202 24.2647 81.7666 22.4608 81.213 20.6569C81.1861 20.6615 81.1591 20.6661 81.1321 20.6708C81.1321 22.2568 81.1321 23.8427 81.1321 25.4287C81.1321 26.4734 81.1321 26.4734 80.047 26.4734C78.5056 26.4734 76.9642 26.4734 75.3855 26.4734C75.3751 26.6217 75.3584 26.7496 75.3583 26.8774C75.3566 28.7839 75.3471 30.6904 75.3655 32.5967C75.3693 32.9859 75.4343 33.3878 75.5507 33.7602C75.8213 34.6257 76.4434 34.9819 77.3667 35.0529C78.4508 35.1363 79.4941 34.9548 80.5127 34.5993C80.8798 34.4711 81.0419 34.6263 81.0415 34.993C81.0392 37.3165 81.0453 39.64 81.0283 41.9634C81.0273 42.1038 80.8806 42.33 80.7539 42.3692C79.6192 42.7198 78.4892 43.1113 77.3267 43.3421C76.329 43.5401 75.2893 43.6283 74.2703 43.6141C72.4033 43.5879 70.5505 43.3519 68.8584 42.5098C67.6894 41.928 66.7363 41.0958 66.0866 39.9464C65.4617 38.8408 65.048 37.6713 65.0113 36.419C64.9387 33.9387 64.9354 31.4565 64.9087 28.975C64.8999 28.1589 64.9073 27.3426 64.9073 26.4734C64.1302 26.4734 63.3871 26.4748 62.644 26.4729C62.1352 26.4716 61.9747 26.3129 61.9745 25.8087C61.9734 23.6341 61.9734 21.4596 61.9744 19.285C61.9747 18.6955 62.1412 18.5281 62.7548 18.5216C63.4544 18.5142 64.1541 18.5199 64.9073 18.5199C64.9073 18.3272 64.9073 18.1687 64.9073 18.0102C64.9073 16.6548 64.9275 15.299 64.8961 13.9443C64.8855 13.484 65.094 13.279 65.4946 13.1577C66.9616 12.7133 68.4272 12.2642 69.8937 11.8181C71.403 11.3589 72.9154 10.9089 74.4211 10.4385C74.9429 10.2756 75.3813 10.4798 75.3716 11.094C75.3354 13.3872 75.3572 15.6812 75.3572 17.9749C75.3572 18.1366 75.3572 18.2984 75.3572 18.5196C75.5616 18.5196 75.7385 18.5196 75.9154 18.5196C80.5137 18.5196 85.112 18.5195 89.7104 18.5197C90.4955 18.5198 90.6586 18.6629 90.8513 19.4106C91.5856 22.2603 92.3297 25.1075 93.0735 27.9548C93.0828 27.9905 93.1364 28.0152 93.1913 28.065C93.574 26.802 93.9496 25.5545 94.3301 24.3085C94.8664 22.5526 95.4058 20.7977 95.9452 19.0428C96.0708 18.6338 96.3157 18.4196 96.7946 18.423C99.1012 18.4391 101.408 18.4298 103.715 18.4305C104.278 18.4307 104.524 18.6013 104.694 19.1492C105.55 21.9186 106.4 24.69 107.253 27.4606C107.328 27.7043 107.405 27.9472 107.519 28.3079C107.724 27.5632 107.905 26.9231 108.077 26.2804C108.723 23.8597 109.359 21.4365 110.016 19.0187C110.114 18.658 110.403 18.5123 110.81 18.5132C115.5 18.5232 120.19 18.5196 124.88 18.5196C126.331 18.5196 127.783 18.5183 129.234 18.5202C129.808 18.521 129.99 18.6983 129.99 19.2606C129.991 27.0502 129.988 34.8399 129.996 42.6295C129.997 43.0643 129.822 43.1931 129.398 43.1916C126.312 43.1807 123.226 43.1862 120.14 43.1853C119.592 43.1852 119.541 43.1342 119.541 42.5918C119.54 35.383 119.541 28.1742 119.541 20.9654C119.541 20.8064 119.541 20.6473 119.541 20.4882C119.52 20.485 119.5 20.4817 119.48 20.4785C118.799 22.6558 118.118 24.8332 117.437 27.0105C116.436 30.2094 115.433 33.4077 114.433 36.6071C113.812 38.5959 113.192 40.5853 112.579 42.5765C112.45 42.9953 112.221 43.1982 111.737 43.1944C109.277 43.1756 106.818 43.1859 104.358 43.1857C103.69 43.1856 103.598 43.0945 103.396 42.4513C103.046 41.3387 102.667 40.2353 102.309 39.1252C101.661 37.114 101.02 35.1007 100.374 33.0887C100.368 33.0683 100.342 33.0536 100.287 32.9957C100.075 33.5939 99.862 34.1627 99.6722 34.7388C99.1883 36.2068 98.7166 37.6787 98.2368 39.1479C97.8612 40.2979 97.4762 41.4449 97.1053 42.5962C96.9763 42.9967 96.7433 43.1941 96.2874 43.1918C93.7821 43.1791 91.2767 43.182 88.7713 43.1894C88.3543 43.1906 88.118 43.0593 87.9909 42.6348C87.277 40.2483 86.5355 37.8696 85.7999 35.4892C85.2836 33.8183 84.7629 32.1486 84.2417 30.4791C83.7902 29.0327 83.3353 27.5874 82.8779 26.1051Z" fill="#333333"/>
<path d="M20.056 52.8489C17.5093 52.1172 15.1687 51.0362 12.9645 49.6625C10.9018 48.377 9.07854 46.8118 7.43182 45.0578C6.07273 43.6102 4.91885 42.007 3.9149 40.3008C2.68679 38.2137 1.79402 35.9931 1.17897 33.6716C0.903031 32.6301 0.716326 31.5575 0.596052 30.4875C0.443059 29.1264 0.290961 27.7503 0.336241 26.387C0.385659 24.899 0.62861 23.4136 0.846498 21.9354C1.11332 20.1253 1.70061 18.398 2.40851 16.709C3.05576 15.1648 3.85347 13.7004 4.77653 12.2944C5.82033 10.7044 7.03183 9.24454 8.39431 7.91836C10.1322 6.2268 12.0565 4.75479 14.2055 3.57165C16.3637 2.38339 18.6205 1.42593 21.0249 0.849133C22.2985 0.543613 23.6044 0.325953 24.909 0.194793C26.3225 0.052683 27.7577 -0.0511136 29.1721 0.0265445C30.7978 0.115809 32.4258 0.348122 34.0259 0.653002C36.0944 1.04711 38.0759 1.75187 39.9706 2.65678C41.693 3.4794 43.3508 4.41982 44.8301 5.62066C45.8972 6.48695 46.9753 7.35304 47.9447 8.31862C49.5769 9.94454 50.948 11.7765 52.09 13.7688C53.0123 15.3777 53.7742 17.0521 54.341 18.8108C54.8619 20.4274 55.3004 22.0668 55.4136 23.7614C55.524 25.4147 55.6377 27.0767 55.5822 28.7294C55.5194 30.5984 55.1448 32.4392 54.6374 34.2492C54.0864 36.2146 53.2881 38.0815 52.3029 39.8713C51.4655 41.3926 50.5032 42.8398 49.3348 44.1414C48.5461 45.02 47.7472 45.8961 46.8851 46.7045C45.3222 48.17 43.5742 49.4031 41.6908 50.456C40.0633 51.3657 38.3571 52.1003 36.5794 52.6692C35.018 53.1689 33.4171 53.4996 31.7854 53.7327C30.0501 53.9807 28.3107 54.0521 26.5743 53.9637C24.4813 53.8571 22.4058 53.5568 20.3964 52.9274C20.2973 52.8964 20.1907 52.8879 20.056 52.8489ZM36.6518 9.06686C36.253 8.90335 35.8547 8.73857 35.4553 8.57654C33.6048 7.82587 31.6657 7.373 29.6799 7.26552C28.1698 7.1838 26.6398 7.29577 25.1287 7.42952C23.0271 7.61553 21.0462 8.28122 19.1576 9.17685C17.5507 9.9389 16.0669 10.8908 14.7185 12.0537C13.4552 13.1433 12.3346 14.3416 11.365 15.685C10.0095 17.5631 9.02362 19.6101 8.40613 21.8217C7.99911 23.2795 7.75821 24.7682 7.72412 26.2829C7.69055 27.7744 7.78862 29.2516 8.07797 30.724C8.52739 33.011 9.35408 35.1464 10.5702 37.1446C11.7643 39.1068 13.257 40.8277 15.085 42.2417C16.1123 43.0364 17.2122 43.7577 18.3448 44.4024C19.8851 45.2793 21.5566 45.8716 23.3008 46.2609C25.0034 46.6409 26.7184 46.7971 28.4693 46.7614C29.8483 46.7334 31.2004 46.5785 32.5366 46.2879C34.1431 45.9385 35.692 45.3964 37.1523 44.66C38.6853 43.8868 40.0959 42.9323 41.4057 41.818C42.7036 40.7137 43.819 39.4638 44.7849 38.0928C45.6911 36.8067 46.4047 35.4114 46.977 33.9441C47.7628 31.9296 48.1841 29.8412 48.2579 27.7042C48.3009 26.4607 48.1417 25.2046 47.9992 23.9623C47.778 22.0341 47.1471 20.2126 46.288 18.4718C45.0804 16.0249 43.4462 13.895 41.3356 12.1033C39.9217 10.9031 38.3804 9.91553 36.6518 9.06686Z" fill="#333333"/>
<path d="M181.502 38.5273C180.315 39.9172 178.925 41.0243 177.287 41.883C175.878 42.6214 174.374 43.1052 172.81 43.3816C171.253 43.6569 169.667 43.6683 168.076 43.5238C166.265 43.3593 164.538 42.9168 162.936 42.1545C161.901 41.6626 160.922 41.0234 160.034 40.3217C159.213 39.6721 158.452 38.9133 157.834 38.0918C156.941 36.9066 156.289 35.5856 155.909 34.163C155.567 32.8853 155.423 31.5816 155.552 30.2803C155.742 28.3705 156.247 26.5259 157.433 24.9175C158.029 24.11 158.651 23.3038 159.373 22.5963C160.826 21.1725 162.608 20.211 164.585 19.5243C166.776 18.7632 169.042 18.5952 171.329 18.7393C173.106 18.8512 174.819 19.2936 176.458 19.9979C177.845 20.5943 179.114 21.3584 180.192 22.3367C182.005 23.9818 183.325 25.9464 183.834 28.2894C184.07 29.3748 184.238 30.5036 184.196 31.6046C184.115 33.7036 183.513 35.6952 182.256 37.4763C182.013 37.8197 181.769 38.1619 181.502 38.5273ZM166.003 29.6905C165.991 29.761 165.984 29.8327 165.966 29.902C165.501 31.6802 165.915 33.2057 167.401 34.4589C169.017 35.8222 171.63 35.5784 173.007 33.9174C174.549 32.0578 174.22 29.3081 172.39 27.8756C171.287 27.0124 170.078 26.77 168.727 27.1445C167.367 27.5215 166.52 28.4083 166.003 29.6905Z" fill="#333333"/>
<path d="M132.123 30.8867C132.123 24.3438 132.123 17.846 132.124 11.3483C132.124 11.1985 132.115 11.0447 132.145 10.8997C132.216 10.5574 132.39 10.3824 132.803 10.3848C135.883 10.4024 138.963 10.394 142.042 10.3947C142.598 10.3948 142.751 10.5415 142.751 11.0783C142.751 15.6658 142.751 20.2534 142.751 24.8409C142.751 30.8423 142.751 36.8438 142.751 42.8452C142.751 43.5321 142.666 43.6153 141.966 43.6154C138.979 43.6156 135.992 43.6156 133.004 43.6154C132.271 43.6153 132.124 43.4739 132.124 42.7542C132.122 38.8134 132.123 34.8726 132.123 30.8867Z" fill="#333333"/>
<path d="M143.814 42.2586C143.814 34.6319 143.814 27.0499 143.814 19.4679C143.814 18.7738 143.896 18.6926 144.6 18.6926C147.629 18.6923 150.658 18.6923 153.687 18.6926C154.306 18.6927 154.442 18.8248 154.442 19.4273C154.443 27.25 154.443 35.0726 154.442 42.8953C154.442 43.5189 154.342 43.6151 153.692 43.6152C150.679 43.6156 147.666 43.6154 144.652 43.6153C143.882 43.6153 143.814 43.5488 143.814 42.7998C143.814 42.6343 143.814 42.4689 143.814 42.2586Z" fill="#333333"/>
<path d="M119.37 13.1161C119.37 12.3911 119.365 11.7087 119.371 11.0264C119.375 10.5567 119.555 10.3856 120.028 10.3855C123.107 10.3846 126.186 10.3843 129.265 10.3857C129.824 10.386 129.995 10.5534 129.995 11.0973C129.997 12.7037 129.997 14.3101 129.995 15.9165C129.995 16.4644 129.834 16.6153 129.264 16.6153C126.2 16.6156 123.136 16.6157 120.072 16.6152C119.538 16.6151 119.372 16.4561 119.371 15.9309C119.367 15.0069 119.37 14.0828 119.37 13.1161Z" fill="#333333"/>
<path d="M153.444 16.6155C150.447 16.6155 147.493 16.6157 144.54 16.6153C143.911 16.6152 143.815 16.5249 143.815 15.9366C143.814 14.3028 143.814 12.669 143.815 11.0352C143.815 10.4939 143.925 10.3857 144.48 10.3856C147.584 10.3845 150.687 10.3845 153.791 10.3856C154.288 10.3858 154.442 10.5382 154.442 11.0248C154.443 12.6444 154.442 14.264 154.442 15.8835C154.442 16.6152 154.442 16.6152 153.668 16.6155C153.608 16.6155 153.548 16.6155 153.444 16.6155Z" fill="#333333"/>
<path d="M185.231 21.6965C185.025 21.3241 184.858 20.9559 184.65 20.4974C184.552 20.9634 184.749 21.4488 184.203 21.8079C184.248 21.1116 184.278 20.5383 184.331 19.9669C184.337 19.9018 184.49 19.7854 184.535 19.8017C184.643 19.8404 184.769 19.9257 184.814 20.0253C184.977 20.3826 185.108 20.7536 185.255 21.1273C185.654 20.7444 185.469 19.9674 186.211 19.731C186.256 20.3419 186.302 20.8837 186.328 21.4263C186.332 21.5143 186.244 21.6066 186.198 21.6969C186.143 21.6157 186.057 21.541 186.038 21.452C185.982 21.1956 185.954 20.9334 185.916 20.6814C185.701 21.0213 185.486 21.361 185.231 21.6965Z" fill="#333333"/>
<path d="M183.559 20.2344C183.559 20.1199 183.559 20.031 183.559 19.9289C183.409 19.9122 183.277 19.8975 183.14 19.8822C183.232 19.7256 183.533 19.6961 184.172 19.7685C184.182 19.7932 184.192 19.818 184.203 19.8427C184.074 19.8742 183.945 19.9058 183.798 19.9414C183.666 20.1909 183.909 20.5136 183.676 20.7694C183.637 20.7665 183.598 20.7636 183.559 20.7607C183.559 20.5938 183.559 20.4269 183.559 20.2344Z" fill="#333333"/>
<path d="M16.906 24.3132C16.2823 23.5811 15.74 22.8459 15.474 21.9386C14.9175 20.0406 15.2285 18.3017 16.4619 16.7448C17.8029 15.0522 19.628 14.36 21.764 14.5774C24.2765 14.8332 26.3673 16.7229 26.7949 19.1862C27.1551 21.261 26.5905 23.0613 25.0067 24.4741C23.6673 25.6689 22.0641 26.1438 20.219 25.8994C18.9214 25.7275 17.8919 25.1262 16.906 24.3132Z" fill="#333333"/>
<path d="M18.069 28.8375C19.1232 28.2483 20.2309 27.9604 21.4067 28.0569C23.4703 28.2264 25.0719 29.1503 26.1326 30.9273C26.7786 32.0096 26.999 33.1828 26.8592 34.399C26.6512 36.2075 25.726 37.6135 24.1551 38.605C22.9956 39.3369 21.7057 39.5556 20.3668 39.4269C19.2694 39.3214 18.2885 38.8833 17.4116 38.2031C16.3212 37.3574 15.6243 36.2674 15.35 34.9626C14.9662 33.1373 15.3467 31.4531 16.6591 30.0493C17.071 29.6087 17.5799 29.2546 18.069 28.8375Z" fill="#333333"/>
<path d="M29.5968 17.7579C30.4518 16.2166 31.671 15.1541 33.4014 14.7351C35.1517 14.3114 36.7948 14.5593 38.2726 15.6105C39.5117 16.4918 40.3105 17.6604 40.6003 19.14C40.9134 20.7378 40.596 22.2161 39.6413 23.5465C38.6467 24.9325 37.2336 25.7149 35.5501 25.9161C33.8917 26.1142 32.3683 25.6667 31.0834 24.5701C30.1424 23.7669 29.5216 22.7754 29.2006 21.5936C28.8425 20.275 29.0623 19.0195 29.5968 17.7579Z" fill="#333333"/>
<path d="M30.4406 37.432C29.6967 36.6297 29.3213 35.6947 29.1232 34.6766C28.8516 33.2811 29.1572 31.9747 29.8975 30.7987C30.809 29.3509 32.1222 28.4112 33.88 28.1246C35.6089 27.8427 37.1364 28.2586 38.5139 29.2988C39.5898 30.1112 40.2657 31.1805 40.5573 32.4595C40.9448 34.1589 40.6324 35.7487 39.5541 37.1535C38.6678 38.3084 37.5152 39.0898 36.046 39.3497C34.3789 39.6446 32.8225 39.3714 31.4501 38.3556C31.0937 38.0917 30.7917 37.7572 30.4406 37.432Z" fill="#333333"/>
</svg>
