<svg width="165" height="42" viewBox="0 0 165 42" fill="none" xmlns="http://www.w3.org/2000/svg">
<path d="M34.2526 14.1309C34.8457 12.514 36.3723 11.4771 38.0326 11.5004C40.3757 11.5332 42.0373 13.4938 41.9826 15.5737C41.9315 17.5163 40.5865 19.0996 38.6986 19.4494C38.5205 19.4824 38.3367 19.4971 38.1555 19.4977C36.9494 19.5016 35.7434 19.4995 34.5374 19.4989C34.4532 19.4989 34.3691 19.4933 34.285 19.4944C34.0699 19.4974 33.9837 19.3827 33.988 19.1789C33.99 19.0808 33.985 18.9827 33.985 18.8845C33.9847 17.847 33.9869 16.8094 33.9839 15.7719C33.9823 15.2206 34.0592 14.6833 34.2526 14.1309Z" fill="#333333"/>
<path d="M140.985 20.4592C140.984 14.1436 140.984 7.87087 140.984 1.55789C141.152 1.53568 141.288 1.50233 141.424 1.50213C143.48 1.49898 145.537 1.49974 147.593 1.50172C147.691 1.50182 147.789 1.52172 147.932 1.53724C147.944 1.74136 147.965 1.93553 147.965 2.1297C147.967 8.33317 147.966 14.5366 147.966 20.7401C147.966 20.9213 147.966 21.1025 147.966 21.2838C147.995 21.295 148.023 21.3062 148.052 21.3173C148.153 21.2071 148.257 21.1003 148.353 20.9859C150.581 18.326 152.808 15.6652 155.035 13.0045C155.201 12.8067 155.375 12.6153 155.528 12.4084C155.696 12.1827 155.898 12.0967 156.186 12.0992C157.724 12.1126 159.263 12.1054 160.802 12.1054C161.765 12.1053 162.729 12.1054 163.692 12.1054C163.849 12.1054 164.005 12.1054 164.263 12.1054C163.75 12.835 163.183 13.4074 162.669 14.0207C162.145 14.6467 161.607 15.2621 161.075 15.8822C160.534 16.5131 159.994 17.1449 159.451 17.7746C158.918 18.3936 158.381 19.0099 157.847 19.6283C157.313 20.2469 156.78 20.8664 156.247 21.486C155.714 22.1049 155.183 22.7245 154.613 23.389C158.077 27.392 161.531 31.3821 164.984 35.3721C164.97 35.4031 164.956 35.4341 164.942 35.465C164.776 35.4736 164.611 35.4896 164.446 35.4897C161.857 35.4913 159.269 35.4827 156.681 35.5C156.308 35.5025 156.071 35.3823 155.846 35.1003C154.586 33.5199 153.312 31.9506 152.042 30.3784C150.799 28.8397 149.554 27.302 148.309 25.7645C148.238 25.6771 148.159 25.5962 148.07 25.4958C147.92 25.6379 147.969 25.8013 147.969 25.944C147.965 27.6632 147.966 29.3824 147.966 31.1016C147.966 32.3624 147.966 33.6232 147.966 34.8839C147.966 35.0542 147.966 35.2245 147.966 35.4365C147.811 35.4575 147.689 35.488 147.567 35.4882C145.511 35.4912 143.454 35.4909 141.398 35.4889C141.286 35.4888 141.174 35.4675 141.094 35.4593C141.053 35.4256 141.04 35.418 141.031 35.4069C141.023 35.3958 141.017 35.3817 141.014 35.368C141.005 35.3264 140.991 35.2844 140.991 35.2425C140.988 30.3291 140.987 25.4157 140.985 20.4592Z" fill="#333333"/>
<path d="M108.964 12.005C109.643 12.005 110.279 12.005 110.899 12.005C111.006 12.4259 111.014 35.5325 110.908 36.0089C108.717 36.0149 106.51 36.0105 104.262 36.012C104.175 35.557 104.226 35.1327 104.217 34.714C104.208 34.2896 104.215 33.8648 104.215 33.3836C104.124 33.4435 104.07 33.4615 104.042 33.5003C103.053 34.8687 101.711 35.6758 100.171 36.1055C96.7188 37.0684 93.6311 36.2586 90.9619 33.7863C88.9446 31.9177 87.7691 29.5096 87.2539 26.7476C86.7178 23.8734 86.9705 21.0688 88.0965 18.3808C89.1433 15.882 90.7728 13.9238 93.0849 12.6532C94.6078 11.8164 96.2431 11.4228 97.9591 11.5125C99.7157 11.6044 101.364 12.1041 102.795 13.2248C103.225 13.5625 103.58 14.0082 103.969 14.4053C104.025 14.4622 104.076 14.5241 104.208 14.6713C104.208 13.7385 104.208 12.9119 104.208 12.0483C105.036 11.9636 105.811 12.0167 106.583 12.0071C107.363 11.9975 108.143 12.005 108.964 12.005ZM93.6466 22.1958C93.422 22.9009 93.3647 23.6237 93.4047 24.3647C93.4963 26.058 94.1561 27.4543 95.3741 28.5426C96.6939 29.7218 98.2288 30.1428 99.9327 29.8637C101.538 29.6006 102.873 28.8258 103.903 27.4839C104.123 27.1975 104.227 26.8963 104.222 26.5165C104.205 24.9722 104.181 23.4264 104.231 21.8837C104.253 21.1994 104.029 20.6935 103.605 20.2351C103.527 20.1509 103.451 20.0652 103.371 19.9833C101.873 18.4469 100.077 17.7878 98.0271 18.1633C95.8606 18.5602 94.4137 19.9406 93.6466 22.1958Z" fill="#333333"/>
<path d="M129.505 11.7166C133.255 12.4491 136.014 14.4534 137.984 17.6567C136.092 18.6811 134.25 19.6779 132.371 20.6953C131.15 18.8311 129.452 17.8001 127.2 17.803C125.578 17.805 124.179 18.4104 123.048 19.557C120.838 21.7961 120.863 25.441 123.232 27.6296C124.596 28.8906 126.232 29.4059 128.101 29.1495C129.973 28.8926 131.347 27.8862 132.371 26.3206C134.246 27.3353 136.086 28.3316 137.949 29.3401C137.867 29.503 137.82 29.6201 137.753 29.7241C135.511 33.1748 132.309 35.1593 128.128 35.4655C121.825 35.9272 116.422 31.702 115.251 25.9194C114.466 22.0423 115.408 18.5374 118.088 15.5497C120.11 13.2946 122.696 11.9885 125.751 11.5947C126.994 11.4345 128.236 11.4792 129.505 11.7166Z" fill="#333333"/>
<path d="M64.1546 16.7244C63.2147 16.5547 62.3033 16.4563 61.3978 16.6582C61.0271 16.7409 60.6495 16.894 60.3324 17.1047C59.3495 17.758 59.371 18.9055 60.3524 19.5564C61.0237 20.0016 61.7846 20.2253 62.5415 20.4519C63.803 20.8295 65.0745 21.173 66.3303 21.5688C67.3379 21.8863 68.2951 22.3296 69.1905 22.9089C71.7257 24.5493 72.3903 27.1942 71.7632 29.7559C71.1916 32.0908 69.6817 33.6287 67.5769 34.5953C66.2211 35.218 64.7856 35.4796 63.2977 35.4981C61.6146 35.519 59.9521 35.3674 58.3131 34.9789C56.5873 34.5698 54.9578 33.9167 53.4635 32.934C53.3472 32.8574 53.2329 32.7775 53.1195 32.6965C53.0862 32.6727 53.0593 32.6395 52.9839 32.5663C53.6087 31.0721 54.2407 29.5606 54.8871 28.0148C55.0224 28.0863 55.122 28.1263 55.2082 28.1862C56.8404 29.3213 58.6463 29.9946 60.5957 30.2717C61.6263 30.4182 62.6635 30.4973 63.6976 30.3045C64.317 30.189 64.9041 29.986 65.3615 29.5064C66.0508 28.7837 65.9403 27.8061 65.1016 27.2746C64.456 26.8655 63.7277 26.6826 63.0017 26.5013C61.7249 26.1824 60.4384 25.9016 59.1692 25.5545C58.0148 25.2387 56.9149 24.7752 55.9335 24.0562C54.4768 22.989 53.7306 21.5242 53.5927 19.7192C53.4358 17.665 54.0451 15.8709 55.4081 14.3589C56.3239 13.343 57.4549 12.637 58.7262 12.1736C60.3403 11.5853 62.0029 11.4119 63.7122 11.5396C64.9327 11.6307 66.1326 11.8037 67.3074 12.1512C68.5671 12.5238 69.75 13.0627 70.8208 13.8437C71.1962 14.1176 71.206 14.1192 71.0362 14.5677C70.5378 15.8845 70.0324 17.1987 69.5276 18.513C69.4932 18.6023 69.4409 18.6845 69.3679 18.8264C67.7537 17.8108 66.0517 17.0584 64.1546 16.7244Z" fill="#333333"/>
<path d="M82.9839 19.5151C82.9839 24.84 82.9839 30.122 82.9839 35.3868C82.6338 35.5112 76.5951 35.5406 76.0687 35.4371C75.9715 35.1147 75.9496 2.02985 76.0464 1.57024C76.4259 1.47399 82.552 1.47407 82.9839 1.58654C82.9839 7.53745 82.9839 13.5048 82.9839 19.5151Z" fill="#333333"/>
<path d="M12.7319 39.7552C12.1971 38.9931 11.9951 38.1546 11.9931 37.2674C11.985 33.7385 11.9765 30.2095 11.9946 26.6807C12.006 24.4605 13.4416 22.9683 15.2182 22.5823C17.2935 22.1315 19.4772 23.5827 19.8837 25.7009C19.9451 26.0209 19.9782 26.3518 19.9788 26.6777C19.9854 30.2209 19.9844 33.7641 19.9822 37.3073C19.9812 38.8564 19.3551 40.0802 18.0568 40.8903C16.3095 41.9805 14.1699 41.5733 12.8758 39.9515C12.8316 39.8961 12.7904 39.8381 12.7319 39.7552Z" fill="#333333"/>
<path d="M22.9868 12.0994C22.9869 9.62701 22.9805 7.19747 22.9903 4.76799C22.994 3.83448 23.216 2.96042 23.7654 2.1903C25.2212 0.14973 28.035 -0.0785334 29.7904 1.69798C30.5786 2.49559 30.9717 3.46515 30.9756 4.58288C30.9882 8.16994 30.9842 11.7571 30.9782 15.3442C30.9765 16.4122 30.6525 17.3709 29.9357 18.1636C29.2243 18.9504 28.3444 19.4115 27.2901 19.4883C26.1738 19.5696 25.1911 19.2274 24.3517 18.4722C23.6428 17.8344 23.2093 17.0324 23.0732 16.0797C23.011 15.644 22.9966 15.1989 22.9904 14.7576C22.9782 13.886 22.9868 13.0141 22.9868 12.0994Z" fill="#333333"/>
<path d="M27.5187 22.5112C30.9742 22.5112 34.3872 22.5395 37.7994 22.5003C39.7514 22.4778 41.6138 23.8411 41.9351 25.8816C42.2877 28.1211 40.6845 30.098 38.5859 30.4294C38.2766 30.4783 37.9591 30.4951 37.6453 30.4955C34.1323 30.5 30.6192 30.5023 27.1062 30.4966C25.1934 30.4935 23.5889 29.2652 23.1117 27.4586C22.4588 24.9874 24.3913 22.5303 27.0026 22.5115C27.1603 22.5104 27.3181 22.5113 27.5187 22.5112Z" fill="#333333"/>
<path d="M3.57322 11.782C4.13441 11.5766 4.68212 11.4993 5.24796 11.5C8.77713 11.5044 12.3063 11.5002 15.8355 11.5032C17.7184 11.5048 19.2752 12.6425 19.8152 14.4007C20.5808 16.8932 18.6421 19.4828 15.9782 19.4932C12.3199 19.5075 8.66159 19.4943 5.0033 19.4976C2.88514 19.4996 1.12582 17.7773 0.99282 15.7963C0.867199 13.9254 2.08334 12.3361 3.57322 11.782Z" fill="#333333"/>
<path d="M23.0483 33.5599C23.2969 33.5212 23.5205 33.5029 23.7442 33.5023C24.8124 33.4992 25.8805 33.4997 26.9487 33.5011C29.3345 33.5044 31.1628 35.4419 30.9699 37.8074C30.8388 39.4151 29.9795 40.5683 28.4968 41.1753C27.0263 41.7772 25.6306 41.5354 24.3996 40.5075C23.4837 39.7426 23.0331 38.7391 23.0013 37.5696C22.9668 36.2982 22.9939 35.0251 22.9958 33.7528C22.9959 33.698 23.0138 33.6433 23.0483 33.5599Z" fill="#333333"/>
<path d="M14.0344 0.988006C16.3897 -0.223086 19.0955 0.909735 19.8198 3.39464C19.9129 3.71416 19.969 4.05541 19.9736 4.38753C19.9912 5.65054 19.9812 6.91393 19.9796 8.17717C19.9795 8.26001 19.9641 8.34283 19.952 8.4633C19.8275 8.47432 19.7061 8.49419 19.5846 8.49442C18.3586 8.49669 17.1325 8.50638 15.9066 8.49329C13.9023 8.47189 12.1803 6.89745 12.0047 4.93163C11.8509 3.21011 12.5528 1.91476 14.0344 0.988006Z" fill="#333333"/>
<path d="M4.15134 22.5828C4.38198 22.5525 4.5764 22.5054 4.77106 22.5044C6.06572 22.4976 7.36044 22.5004 8.65513 22.5015C8.73851 22.5016 8.82187 22.5137 8.93841 22.5227C8.95245 22.6306 8.97804 22.7365 8.97825 22.8425C8.9807 24.0772 8.99054 25.312 8.97651 26.5465C8.95114 28.7784 7.12683 30.5394 4.89754 30.4993C2.67428 30.4594 1.13717 28.6346 0.996677 26.8445C0.832449 24.752 2.26986 22.9801 4.15134 22.5828Z" fill="#333333"/>
</svg>
