<svg width="162" height="68" viewBox="0 0 162 68" fill="none" xmlns="http://www.w3.org/2000/svg">
<g clip-path="url(#clip0_1259_2213)">
<path fill-rule="evenodd" clip-rule="evenodd" d="M161.632 35.1091C161.632 23.6622 156.086 14.6299 145.488 14.6299C134.844 14.6299 128.405 23.6622 128.405 35.0196C128.405 48.4787 136.007 55.2752 146.919 55.2752C152.24 55.2752 156.265 54.068 159.306 52.3688V43.4259C156.265 44.9462 152.777 45.8852 148.35 45.8852C144.012 45.8852 140.166 44.3649 139.674 39.0886H161.542C161.542 38.5074 161.632 36.1822 161.632 35.1091ZM139.54 30.8612C139.54 25.8085 142.626 23.7069 145.443 23.7069C148.171 23.7069 151.078 25.8085 151.078 30.8612H139.54Z" fill="#333333"/>
<path fill-rule="evenodd" clip-rule="evenodd" d="M111.142 14.6299C106.76 14.6299 103.942 16.6867 102.377 18.1176L101.796 15.3453H91.9575V67.4823L103.137 65.1124L103.182 52.4582C104.792 53.6208 107.162 55.2752 111.098 55.2752C119.102 55.2752 126.392 48.8364 126.392 34.6619C126.347 21.6948 118.968 14.6299 111.142 14.6299ZM108.459 45.4381C105.821 45.4381 104.255 44.4991 103.182 43.3365L103.137 26.7475C104.3 25.4508 105.91 24.5565 108.459 24.5565C112.529 24.5565 115.346 29.1173 115.346 34.9749C115.346 40.9666 112.573 45.4381 108.459 45.4381Z" fill="#333333"/>
<path fill-rule="evenodd" clip-rule="evenodd" d="M76.5747 11.9916L87.7994 9.57701V0.5L76.5747 2.86986V11.9916Z" fill="#333333"/>
<path d="M87.7994 15.3901H76.5747V54.5152H87.7994V15.3901Z" fill="#333333"/>
<path fill-rule="evenodd" clip-rule="evenodd" d="M64.5444 18.6988L63.8289 15.3899H54.1694V54.515H65.3494V27.9994C67.9878 24.5564 72.4598 25.1824 73.8461 25.6742V15.3899C72.4151 14.8534 67.1829 13.8696 64.5444 18.6988Z" fill="#333333"/>
<path fill-rule="evenodd" clip-rule="evenodd" d="M42.1848 5.68701L31.2732 8.01216L31.2285 43.8284C31.2285 50.4461 36.1924 55.32 42.8109 55.32C46.4779 55.32 49.1611 54.6492 50.6369 53.8444V44.7674C49.2059 45.3487 42.1401 47.4055 42.1401 40.7878V24.9142H50.6369V15.39H42.1401L42.1848 5.68701Z" fill="#333333"/>
<path fill-rule="evenodd" clip-rule="evenodd" d="M11.9542 26.7475C11.9542 25.0036 13.3853 24.3329 15.7554 24.3329C19.1541 24.3329 23.4472 25.3613 26.8459 27.1946V16.6867C23.1342 15.2112 19.4671 14.6299 15.7554 14.6299C6.6773 14.6299 0.640137 19.3696 0.640137 27.284C0.640137 39.6252 17.6336 37.6578 17.6336 42.9788C17.6336 45.0357 15.8448 45.7064 13.3405 45.7064C9.62881 45.7064 4.88851 44.1861 1.13205 42.1292V52.7712C5.29099 54.5598 9.49465 55.32 13.3405 55.32C22.6423 55.32 29.0372 50.7144 29.0372 42.7105C28.9925 29.3856 11.9542 31.7555 11.9542 26.7475Z" fill="#333333"/>
</g>
<defs>
<clipPath id="clip0_1259_2213">
<rect width="161" height="67" fill="white" transform="translate(0.640137 0.5)"/>
</clipPath>
</defs>
</svg>
