<svg width="206" height="62" viewBox="0 0 206 62" fill="none" xmlns="http://www.w3.org/2000/svg">
<g clip-path="url(#clip0_1400_3196)">
<path d="M201.364 36.9233C201.247 37.5108 201.043 38.01 200.765 38.4503C200.488 38.8903 200.122 39.2433 199.656 39.5217C199.202 39.7864 198.634 39.9326 197.962 39.9326C197.305 39.9326 196.735 39.8009 196.283 39.5217C195.831 39.256 195.446 38.8895 195.158 38.4503C194.88 38.0104 194.676 37.5108 194.545 36.9233C194.416 36.3402 194.352 35.7446 194.355 35.1473C194.355 34.5309 194.414 33.914 194.53 33.3423C194.647 32.7548 194.851 32.2411 195.129 31.8008C195.406 31.345 195.772 30.9933 196.238 30.7C196.692 30.4208 197.261 30.2741 197.932 30.2741C198.589 30.2741 199.144 30.4208 199.597 30.7C200.05 30.982 200.435 31.3632 200.721 31.8153C201.014 32.2701 201.218 32.7983 201.349 33.3713C201.48 33.9583 201.539 34.5454 201.539 35.1473C201.539 35.7492 201.48 36.3363 201.364 36.9233ZM205.248 32.1823C204.97 31.1988 204.562 30.3475 204.007 29.5989C203.437 28.8652 202.736 28.2628 201.889 27.8228C201.042 27.3825 200.02 27.1476 198.838 27.1476C197.903 27.1476 197.056 27.3386 196.282 27.7056C195.508 28.0727 194.865 28.6742 194.369 29.4816H194.311V27.5585H190.397V47.9183H194.515V40.7691H194.573C195.059 41.4873 195.724 42.0646 196.501 42.4428C197.29 42.8243 198.137 43.0153 199.071 43.0153C200.166 43.0153 201.13 42.7953 201.962 42.3694C202.766 41.9558 203.469 41.3693 204.021 40.6518C204.576 39.9326 204.985 39.1103 205.248 38.1711C205.526 37.2315 205.657 36.2634 205.657 35.25C205.657 34.1787 205.526 33.1513 205.248 32.1674V32.1823ZM184.937 36.9233C184.82 37.5108 184.616 38.01 184.338 38.4503C184.06 38.8907 183.695 39.2433 183.228 39.5217C182.776 39.7864 182.206 39.9326 181.535 39.9326C180.877 39.9326 180.323 39.8009 179.855 39.5217C179.403 39.2558 179.019 38.8893 178.73 38.4503C178.453 38.0104 178.249 37.5108 178.118 36.9233C177.989 36.3403 177.925 35.7446 177.928 35.1473C177.928 34.5309 177.986 33.914 178.103 33.3423C178.22 32.7548 178.424 32.2411 178.701 31.8008C178.979 31.345 179.344 30.9933 179.811 30.7C180.264 30.4208 180.833 30.2741 181.505 30.2741C182.162 30.2741 182.717 30.4208 183.17 30.7C183.623 30.9819 184.007 31.3632 184.294 31.8153C184.586 32.2701 184.79 32.7983 184.922 33.3713C185.053 33.9583 185.111 34.5454 185.111 35.1473C185.111 35.7492 185.053 36.3363 184.937 36.9233ZM187.579 29.5989C187.024 28.8652 186.309 28.2628 185.462 27.8228C184.615 27.3825 183.593 27.1476 182.41 27.1476C181.475 27.1476 180.629 27.3386 179.855 27.7056C179.081 28.0727 178.439 28.6742 177.942 29.4816H177.883V27.5585H173.97V47.9183H178.087V40.7691H178.146C178.632 41.4873 179.297 42.0646 180.074 42.4428C180.862 42.8243 181.709 43.0153 182.643 43.0153C183.753 43.0153 184.702 42.7953 185.535 42.3694C186.338 41.9555 187.041 41.3691 187.593 40.6518C188.149 39.9326 188.558 39.1103 188.836 38.1711C189.105 37.221 189.242 36.238 189.244 35.25C189.244 34.1787 189.112 33.1513 188.836 32.1674C188.558 31.1843 188.149 30.3325 187.579 29.5844V29.5989ZM160.477 34.5897L163.179 26.9417H163.237L165.851 34.5897H160.477ZM160.915 21.8042L153.074 42.6333H157.659L159.281 37.9951H167.034L168.596 42.6333H173.327L165.574 21.8042H160.901H160.915ZM152.738 36.0281C152.461 35.5583 152.11 35.1473 151.658 34.8246C151.22 34.5019 150.708 34.2516 150.139 34.0466C149.562 33.856 148.977 33.6896 148.387 33.5478C147.803 33.4152 147.233 33.283 146.678 33.1658C146.123 33.0486 145.612 32.916 145.189 32.7693C144.751 32.6227 144.4 32.4321 144.137 32.1968C143.86 31.9619 143.728 31.6686 143.728 31.287C143.728 30.9788 143.801 30.729 143.962 30.538C144.122 30.3475 144.312 30.2153 144.531 30.1126C144.751 30.0098 144.999 29.951 145.276 29.922C145.528 29.8939 145.782 29.8793 146.035 29.8781C146.766 29.8781 147.408 30.0247 147.949 30.3035C148.489 30.5824 148.796 31.1255 148.839 31.918H152.753C152.679 30.9784 152.432 30.2153 152.037 29.5984C151.643 28.9816 151.147 28.4977 150.548 28.1307C149.949 27.7636 149.263 27.4997 148.504 27.3381C147.744 27.1766 146.956 27.1032 146.138 27.1032C145.321 27.1032 144.532 27.177 143.758 27.3232C142.984 27.4699 142.284 27.7197 141.67 28.0867C141.043 28.4538 140.546 28.9385 140.181 29.5545C139.801 30.171 139.612 30.9788 139.612 31.947C139.612 32.6078 139.743 33.1654 140.02 33.6203C140.283 34.076 140.648 34.4571 141.086 34.7653C141.539 35.0591 142.036 35.3089 142.605 35.4994C143.175 35.69 143.759 35.852 144.357 35.9837C145.832 36.292 146.971 36.6002 147.803 36.9084C148.621 37.2166 149.03 37.6864 149.03 38.3029C149.03 38.6699 148.942 38.9781 148.767 39.2275C148.596 39.4713 148.371 39.6721 148.11 39.8146C147.847 39.9612 147.555 40.0644 147.234 40.1373C146.932 40.2063 146.624 40.2408 146.314 40.24C145.905 40.24 145.511 40.1965 145.146 40.0934C144.766 39.9906 144.43 39.8432 144.139 39.6381C143.846 39.4326 143.613 39.1683 143.423 38.8456C143.233 38.5228 143.145 38.1409 143.145 37.7005H139.232C139.276 38.713 139.495 39.5498 139.919 40.2251C140.327 40.9008 140.868 41.429 141.51 41.84C142.153 42.2509 142.897 42.5443 143.73 42.7203C144.562 42.8968 145.409 42.985 146.285 42.985C147.132 42.985 147.979 42.8968 148.797 42.7348C149.614 42.5737 150.344 42.2799 150.987 41.869C151.629 41.458 152.14 40.9149 152.535 40.2541C152.929 39.5793 153.133 38.7573 153.133 37.7589C153.133 37.0546 153.002 36.4676 152.724 35.9974L152.738 36.0281ZM135.697 23.0375H131.58V27.5585H129.082V30.3325H131.58V39.2284C131.58 39.9919 131.711 40.5938 131.959 41.0632C132.208 41.5334 132.558 41.8851 132.996 42.1499C133.434 42.3993 133.931 42.5753 134.5 42.6636C135.1 42.7532 135.705 42.7973 136.311 42.7953C136.72 42.7953 137.129 42.7808 137.567 42.7663C137.953 42.7531 138.339 42.7138 138.72 42.6487V39.4338C138.519 39.4796 138.314 39.5089 138.107 39.5217C137.884 39.5392 137.66 39.549 137.436 39.5511C136.735 39.5511 136.282 39.4338 136.048 39.1985C135.815 38.9641 135.698 38.4938 135.698 37.8045V30.3325H138.72V27.5585H135.698V23.0375H135.697ZM123.884 36.8061C123.884 37.0406 123.855 37.3492 123.811 37.7457C123.762 38.1512 123.627 38.5415 123.417 38.8907C123.198 39.2727 122.876 39.5954 122.424 39.8746C121.986 40.153 121.343 40.2856 120.541 40.2856C120.219 40.2856 119.898 40.2558 119.577 40.1974C119.27 40.1381 118.993 40.0354 118.759 39.8891C118.525 39.7421 118.35 39.5515 118.204 39.2872C118.073 39.0378 117.999 38.7296 117.999 38.3476C117.999 37.9511 118.073 37.6429 118.204 37.379C118.335 37.1288 118.525 36.9233 118.745 36.7477C118.963 36.5861 119.226 36.4544 119.533 36.3516C119.84 36.2489 120.132 36.1751 120.453 36.1163C120.782 36.0593 121.113 36.0104 121.446 35.9696C121.781 35.9257 122.088 35.8814 122.395 35.823C122.702 35.7646 122.979 35.6908 123.242 35.603C123.505 35.5152 123.724 35.3975 123.899 35.236V36.7775L123.884 36.8061ZM128.002 39.2868V31.4333C128.002 30.5235 127.797 29.7894 127.389 29.2318C126.98 28.6738 126.454 28.2483 125.826 27.9401C125.184 27.6319 124.483 27.4264 123.709 27.3091C122.949 27.2048 122.183 27.1508 121.417 27.1476C120.584 27.1476 119.752 27.2358 118.934 27.3974C118.117 27.5589 117.372 27.8373 116.715 28.2342C116.067 28.6212 115.514 29.1477 115.094 29.7758C114.67 30.4216 114.422 31.2286 114.364 32.1976H118.482C118.555 31.3761 118.832 30.8036 119.299 30.451C119.767 30.0985 120.394 29.9228 121.212 29.9228C121.577 29.9228 121.927 29.9518 122.249 29.9962C122.548 30.0357 122.836 30.1356 123.096 30.2899C123.344 30.4365 123.534 30.642 123.68 30.9063C123.826 31.1706 123.899 31.5224 123.899 31.9776C123.914 32.4031 123.797 32.7267 123.519 32.9611C123.242 33.1811 122.877 33.3576 122.41 33.4749C121.943 33.5921 121.417 33.6803 120.818 33.7392C120.219 33.798 119.606 33.8713 118.993 33.9741C118.38 34.0768 117.766 34.2085 117.153 34.3701C116.54 34.5317 115.999 34.7811 115.532 35.1191C115.05 35.4564 114.67 35.8967 114.364 36.4399C114.057 36.9979 113.911 37.7026 113.911 38.5539C113.911 39.3319 114.042 40.0072 114.305 40.5648C114.552 41.1085 114.922 41.5863 115.386 41.9597C115.868 42.3366 116.419 42.6158 117.007 42.7816C117.62 42.9577 118.292 43.0455 119.007 43.0455C119.942 43.0455 120.847 42.9138 121.738 42.6346C122.619 42.3643 123.417 41.8746 124.059 41.2111C124.074 41.4605 124.118 41.7095 124.162 41.9597C124.205 42.1942 124.278 42.444 124.352 42.6789H128.528C128.338 42.3707 128.192 41.9005 128.119 41.284C128.042 40.6362 128.003 39.9844 128.002 39.3319V39.2868H128.002ZM111.034 28.8648C110.626 28.3366 110.071 27.9107 109.37 27.617C108.669 27.3087 107.764 27.1617 106.654 27.1617C105.88 27.1617 105.091 27.3671 104.274 27.7636C103.456 28.1601 102.799 28.8059 102.274 29.6718H102.186V21.8187H98.068V42.6482H102.186V34.7363C102.186 33.1948 102.434 32.0941 102.945 31.4188C103.442 30.7435 104.259 30.4208 105.384 30.4208C106.362 30.4208 107.063 30.729 107.443 31.345C107.823 31.9615 108.027 32.8866 108.027 34.134V42.6482H112.145V33.3713C112.145 32.4317 112.057 31.5808 111.896 30.8173C111.735 30.0537 111.443 29.3934 111.034 28.8648ZM89.2625 36.1751H89.204L85.6706 21.8191H81.4065L77.8142 35.9991H77.7557L74.47 21.8191H69.9146L75.4046 42.6487H80.019L83.465 28.4683H83.5235L87.0281 42.6487H91.5546L94.0368 33.4007L97.1325 21.8191H92.664L89.2625 36.1751Z" fill="#333333"/>
<path d="M31.2923 55.1844C26.2543 55.1844 21.5526 53.6578 17.6248 51.0598L8.07464 54.1272L11.1704 44.8502C8.19168 40.7397 6.43982 35.6756 6.43982 30.215C6.43982 16.446 17.5811 5.24597 31.2778 5.24597C44.9746 5.24597 56.1159 16.446 56.1159 30.215C56.1159 43.9835 44.9746 55.184 31.2778 55.184H31.2923V55.1844ZM31.2923 0.519043C14.9811 0.519043 1.75212 13.8191 1.75212 30.2154C1.75212 35.8227 3.29998 41.0778 5.9865 45.5549L0.656738 61.4819L17.0116 56.2122C21.383 58.6422 26.2971 59.9151 31.2923 59.9113C47.603 59.9113 60.8324 46.6121 60.8324 30.2154C60.832 13.8191 47.603 0.519043 31.2923 0.519043Z" fill="#F1F1F1"/>
<path d="M31.2921 5.24609C17.5954 5.24609 6.4541 16.4461 6.4541 30.2151C6.4541 35.6757 8.20638 40.7399 11.1851 44.8503L8.08934 54.1273L17.6391 51.06C21.5668 53.6728 26.2541 55.1845 31.3066 55.1845C45.0033 55.1845 56.1446 43.9841 56.1446 30.2155C56.1446 16.4465 45.0033 5.24651 31.3066 5.24651H31.2921V5.24609Z" fill="#333333"/>
<path d="M24.3561 17.9293C23.8743 16.7697 23.5092 16.7258 22.7794 16.696C22.5022 16.678 22.2246 16.6684 21.9469 16.667C20.9974 16.667 20.0047 16.9458 19.4059 17.5622C18.676 18.3109 16.8652 20.0575 16.8652 23.6393C16.8652 27.2212 19.4644 30.6854 19.8147 31.1701C20.1798 31.654 24.8819 39.111 32.1828 42.1501C37.8921 44.5281 39.5863 44.3077 40.8856 44.0289C42.7838 43.6179 45.1641 42.2081 45.7629 40.5059C46.3617 38.8028 46.3617 37.3495 46.1862 37.0412C46.011 36.733 45.5288 36.5574 44.799 36.1899C44.0692 35.8228 40.5205 34.0613 39.8488 33.8264C39.1915 33.577 38.5638 33.6653 38.0677 34.37C37.3667 35.3535 36.6805 36.3519 36.1254 36.9534C35.6873 37.4232 34.9715 37.482 34.3731 37.2322C33.5699 36.895 31.3215 36.1017 28.5468 33.621C26.4001 31.6983 24.94 29.3058 24.5168 28.5866C24.0932 27.8529 24.4731 27.4266 24.8086 27.0306C25.1737 26.5753 25.524 26.2526 25.8891 25.8267C26.2542 25.4012 26.4586 25.1808 26.6923 24.6816C26.9408 24.1973 26.7653 23.6981 26.5901 23.3311C26.415 22.964 24.9549 19.3822 24.3561 17.9293Z" fill="#F1F1F1"/>
</g>
<defs>
<clipPath id="clip0_1400_3196">
<rect width="205" height="61" fill="white" transform="translate(0.65625 0.5)"/>
</clipPath>
</defs>
</svg>
