<svg width="181" height="180" viewBox="0 0 181 180" fill="none" xmlns="http://www.w3.org/2000/svg">
<g clip-path="url(#clip0_1400_3180)">
<path d="M177.603 65.7423C177.747 65.7423 177.963 65.7423 178.035 65.5263C178.107 65.4543 178.107 65.3823 178.107 65.3103C178.107 65.1671 178.035 65.0223 177.891 64.9503C177.747 64.8783 177.603 64.8783 177.387 64.8783H177.243V65.6695H177.603M177.387 64.5191C177.747 64.5191 177.963 64.5191 178.107 64.5911C178.61 64.7351 178.61 65.2383 178.61 65.3823C178.61 65.4543 178.61 65.5263 178.61 65.5975C178.61 65.7423 178.538 65.9575 178.25 66.1015C178.25 66.1015 178.178 66.1735 178.107 66.1735L178.754 67.324H178.107L177.603 66.2447H177.243V67.324H176.668V64.5191H177.387ZM177.603 68.4752C178.969 68.4752 180.12 67.396 180.12 65.9575C180.12 64.5191 179.041 63.4399 177.603 63.4399C176.236 63.4399 175.085 64.5911 175.085 65.9575C175.085 67.324 176.236 68.4752 177.603 68.4752ZM175.661 65.9575C175.661 64.8783 176.523 64.0159 177.675 64.0159C178.754 64.0159 179.616 64.8783 179.616 65.9575C179.616 67.0367 178.754 67.9 177.675 67.9C176.523 67.972 175.661 67.0367 175.661 65.9575ZM158.184 81.9963C154.875 81.9963 152.07 79.7667 151.208 76.7458H169.547L172.065 72.7905H151.208C152.07 69.7696 154.875 67.54 158.184 67.54H170.77L173.287 63.5839H157.896C151.71 63.5839 146.747 68.6192 146.747 74.7321C146.747 80.9179 151.782 85.8804 157.896 85.8804H171.13L173.647 81.9251H158.184M105.679 85.8804H118.985L121.502 81.9251H106.039C102.011 81.9251 98.7744 78.6882 98.7744 74.7321C98.7744 70.7048 102.011 67.54 106.039 67.54H118.626L121.144 63.5839H105.752C99.5656 63.5839 94.5318 68.6192 94.5318 74.7321C94.5318 80.9179 99.5656 85.8804 105.679 85.8804ZM24.1902 81.9963H11.7475C7.79219 81.9963 4.55532 78.7602 4.55532 74.8041C4.55532 70.7768 7.79219 67.612 11.7475 67.612H24.1182C28.1455 67.612 31.3824 70.848 31.3824 74.8041C31.3824 78.7602 28.1455 81.9963 24.1902 81.9963ZM11.4595 85.8804H24.4062C30.5911 85.8804 35.5537 80.9179 35.5537 74.7321C35.5537 68.5472 30.5911 63.5839 24.4062 63.5839H11.4595C5.34653 63.5839 0.312012 68.6192 0.312012 74.7321C0.312012 80.9179 5.34653 85.8804 11.4595 85.8804ZM56.6997 78.6882C60.8711 78.6882 64.2511 75.3081 64.2511 71.136C64.2511 66.964 60.8711 63.5839 56.6997 63.5839H37.9273V85.8804H42.2434V67.54H56.4125C58.4262 67.54 60.0078 69.1224 60.0078 71.136C60.0078 73.1505 58.4262 74.7321 56.4125 74.7321H44.3283L57.1318 85.8804H63.3887L54.7573 78.6162H56.6997M127.688 81.9963V63.5839H123.373V83.7947C123.373 84.37 123.589 84.8732 124.02 85.3052C124.451 85.7372 125.026 85.9524 125.602 85.9524H145.166L147.683 81.9963H127.688ZM75.1842 78.041H86.6197L80.5787 68.2592L69.4297 85.8804H64.3231L77.8451 64.7351C78.4203 63.8719 79.4275 63.3687 80.5067 63.3687C81.5851 63.3687 82.5204 63.8719 83.0956 64.7351L96.6887 85.9524H91.655L89.2813 81.9963H77.7018L75.1842 78.041Z" fill="#333333"/>
<path d="M2.39893 99.332H8.08018L14.9821 113.788V99.332H18.6552V117.743H13.2552L6.13955 102.42V117.67H2.39893V99.332Z" fill="#333333"/>
<path d="M22.8232 99.332H35.1251V102.353H26.7776V106.74H34.6189V109.761H26.7776V114.722H35.412V117.743H22.8232V99.332Z" fill="#333333"/>
<path d="M43.0339 102.353H37.5664V99.332H52.5289V102.353H47.0614V117.743H43.107V102.353H43.0339Z" fill="#333333"/>
<path d="M57.2751 112.348C57.3471 113.643 57.4911 116.016 61.7336 116.016C65.5457 116.016 66.0497 113.643 66.0497 112.708C66.0497 110.623 64.3961 110.263 61.8064 109.615C59.0008 108.896 57.7791 108.608 56.8431 107.961C55.3335 106.954 54.9015 105.587 54.9015 104.365C54.9015 100.625 58.4263 98.9712 61.8784 98.9712C63.1009 98.9712 65.5457 99.1864 67.057 100.769C68.0634 101.92 68.1354 103.142 68.2074 103.934H65.5457C65.4025 101.631 63.4601 101.128 61.6624 101.128C59.1456 101.128 57.5623 102.279 57.5623 104.077C57.5623 105.731 58.6416 106.235 60.8712 106.811C65.2585 107.961 65.7625 108.033 66.841 108.752C68.5674 109.903 68.6394 111.629 68.6394 112.42C68.6394 115.656 66.1217 118.174 61.3744 118.174C60.008 118.174 57.1319 117.959 55.6935 116.088C54.6143 114.722 54.6143 113.284 54.6143 112.348H57.2751Z" fill="#202020"/>
<path d="M75.2564 99.3301V110.694C75.2564 112.636 75.6876 113.498 76.0468 114.002C77.198 115.513 78.9957 115.8 80.2189 115.8C85.1814 115.8 85.1814 111.917 85.1814 110.55V99.3301H87.6263V110.694C87.6263 111.701 87.6263 113.714 86.1166 115.584C84.3182 117.887 81.5133 118.102 80.1469 118.102C78.4205 118.102 75.3284 117.599 73.6739 115.154C73.0987 114.362 72.5947 113.283 72.5947 110.55V99.3301H75.2564Z" fill="#333333"/>
<path d="M92.9502 117.743H95.4646V99.332H92.9502V117.743Z" fill="#333333"/>
<path d="M105.393 117.743V101.486H99.2051V99.332H114.021V101.486H107.839V117.743H105.393Z" fill="#333333"/>
<path d="M117.115 99.332H128.624V101.486H119.635V107.241H128.191V109.401H119.635V115.515H128.838V117.743H117.115V99.332Z" fill="#333333"/>
</g>
<defs>
<clipPath id="clip0_1400_3180">
<rect width="180" height="180" fill="white" transform="translate(0.312012)"/>
</clipPath>
</defs>
</svg>
