<svg width="232" height="72" viewBox="0 0 232 72" fill="none" xmlns="http://www.w3.org/2000/svg">
<g clip-path="url(#clip0_1259_2162)">
<path d="M122.038 18.0901C122.038 20.6847 119.946 22.7748 117.348 22.7748C114.75 22.7748 112.657 20.6847 112.657 18.0901C112.657 15.4955 114.677 13.4054 117.348 13.4054C120.018 13.4775 122.038 15.5676 122.038 18.0901ZM102.698 27.5315C102.698 27.964 102.698 28.6847 102.698 28.6847C102.698 28.6847 100.461 25.8018 95.6981 25.8018C87.8321 25.8018 81.6981 31.7838 81.6981 40.0721C81.6981 48.2883 87.76 54.3423 95.6981 54.3423C100.533 54.3423 102.698 51.3874 102.698 51.3874V52.6126C102.698 53.1892 103.131 53.6216 103.708 53.6216H109.554V26.5225C109.554 26.5225 104.214 26.5225 103.708 26.5225C103.131 26.5225 102.698 27.027 102.698 27.5315ZM102.698 44.9009C101.616 46.4865 99.4507 47.8559 96.8528 47.8559C92.2342 47.8559 88.6981 44.973 88.6981 40.0721C88.6981 35.1712 92.2342 32.2883 96.8528 32.2883C99.3785 32.2883 101.688 33.7297 102.698 35.2432V44.9009ZM113.884 26.5225H120.812V53.6216H113.884V26.5225ZM217.368 25.8018C212.605 25.8018 210.368 28.6847 210.368 28.6847V13.4775H203.44V53.6216C203.44 53.6216 208.781 53.6216 209.286 53.6216C209.863 53.6216 210.296 53.1171 210.296 52.6126V51.3874C210.296 51.3874 212.533 54.3423 217.296 54.3423C225.162 54.3423 231.296 48.2883 231.296 40.0721C231.296 31.8559 225.162 25.8018 217.368 25.8018ZM216.214 47.7838C213.543 47.7838 211.451 46.4144 210.368 44.8288V35.1712C211.451 33.7297 213.76 32.2162 216.214 32.2162C220.832 32.2162 224.368 35.0991 224.368 40C224.368 44.9009 220.832 47.7838 216.214 47.7838ZM199.832 37.5495V53.6937H192.904V38.3423C192.904 33.8739 191.461 32.0721 187.564 32.0721C185.471 32.0721 183.306 33.1532 181.935 34.7387V53.6216H175.007V26.5225H180.492C181.069 26.5225 181.502 27.027 181.502 27.5315V28.6847C183.523 26.5946 186.193 25.8018 188.863 25.8018C191.894 25.8018 194.42 26.6667 196.44 28.3964C198.894 30.4144 199.832 33.009 199.832 37.5495ZM158.193 25.8018C153.43 25.8018 151.193 28.6847 151.193 28.6847V13.4775H144.265V53.6216C144.265 53.6216 149.605 53.6216 150.11 53.6216C150.688 53.6216 151.121 53.1171 151.121 52.6126V51.3874C151.121 51.3874 153.358 54.3423 158.121 54.3423C165.987 54.3423 172.121 48.2883 172.121 40.0721C172.193 31.8559 166.059 25.8018 158.193 25.8018ZM157.038 47.7838C154.368 47.7838 152.275 46.4144 151.193 44.8288V35.1712C152.275 33.7297 154.585 32.2162 157.038 32.2162C161.657 32.2162 165.193 35.0991 165.193 40C165.193 44.9009 161.657 47.7838 157.038 47.7838ZM138.275 25.8018C140.368 25.8018 141.451 26.1622 141.451 26.1622V32.5766C141.451 32.5766 135.677 30.6306 132.069 34.7387V53.6937H125.141V26.5225C125.141 26.5225 130.482 26.5225 130.987 26.5225C131.564 26.5225 131.997 27.027 131.997 27.5315V28.6847C133.296 27.1712 136.11 25.8018 138.275 25.8018ZM66.327 51.1712C65.9662 50.3063 65.6053 49.3694 65.2445 48.5766C64.6672 47.2793 64.0899 46.0541 63.5847 44.9009L63.5125 44.8288C58.5332 34.018 53.193 23.0631 47.5641 12.2523L47.3476 11.8198C46.7703 10.7387 46.193 9.58559 45.6156 8.43243C44.894 7.13513 44.1723 5.76577 43.0177 4.46847C40.7084 1.58559 37.3888 0 33.8528 0C30.2445 0 26.9971 1.58559 24.6156 4.32432C23.5332 5.62162 22.7394 6.99099 22.0177 8.28829C21.4404 9.44144 20.8631 10.5946 20.2857 11.6757L20.0692 12.1081C14.5125 22.9189 9.10018 33.8739 4.1208 44.6847L4.04863 44.8288C3.54348 45.982 2.96616 47.2072 2.38884 48.5045C2.02801 49.2973 1.66719 50.1622 1.30636 51.0991C0.368218 53.7658 0.079558 56.2883 0.440383 58.8829C1.2342 64.2883 4.84244 68.8288 9.82183 70.8468C11.6981 71.6396 13.6466 72 15.6672 72C16.2445 72 16.9662 71.9279 17.5435 71.8559C19.9249 71.5676 22.3785 70.7748 24.76 69.4054C27.7187 67.7477 30.5332 65.3694 33.7084 61.9099C36.8837 65.3694 39.7703 67.7477 42.6569 69.4054C45.0383 70.7748 47.4919 71.5676 49.8734 71.8559C50.4507 71.9279 51.1723 72 51.7497 72C53.7703 72 55.7909 71.6396 57.595 70.8468C62.6466 68.8288 66.1826 64.2162 66.9765 58.8829C67.5538 56.3604 67.2651 53.8378 66.327 51.1712ZM33.7806 54.9189C29.8837 50.018 27.3579 45.4054 26.4919 41.5135C26.1311 39.8559 26.0589 38.4144 26.2754 37.1171C26.4198 35.964 26.8528 34.955 27.4301 34.0901C28.8012 32.1441 31.1105 30.9189 33.7806 30.9189C36.4507 30.9189 38.8321 32.0721 40.1311 34.0901C40.7084 34.955 41.1414 35.964 41.2857 37.1171C41.5022 38.4144 41.4301 39.9279 41.0692 41.5135C40.2033 45.3333 37.6775 49.9459 33.7806 54.9189ZM62.5744 58.3063C62.0692 62.0541 59.5435 65.2973 56.0074 66.7387C54.2754 67.4595 52.3991 67.6757 50.5229 67.4595C48.7187 67.2432 46.9146 66.6667 45.0383 65.5856C42.4404 64.1441 39.8424 61.9099 36.8115 58.5946C41.5744 52.7568 44.461 47.4234 45.5435 42.6667C46.0486 40.4324 46.1208 38.4144 45.9043 36.5405C45.6156 34.7387 44.9662 33.0811 43.9558 31.6396C41.7187 28.3964 37.9662 26.5225 33.7806 26.5225C29.595 26.5225 25.8424 28.4685 23.6053 31.6396C22.595 33.0811 21.9455 34.7387 21.6569 36.5405C21.3682 38.4144 21.4404 40.5045 22.0177 42.6667C23.1002 47.4234 26.0589 52.8288 30.7497 58.6667C27.7909 61.982 25.1208 64.2162 22.5229 65.6577C20.6466 66.7387 18.8424 67.3153 17.0383 67.5315C15.0899 67.7477 13.2136 67.4595 11.5538 66.8108C8.0177 65.3694 5.49193 62.1261 4.98677 58.3784C4.77028 56.5766 4.91461 54.7748 5.63626 52.7568C5.85275 52.036 6.21358 51.3153 6.5744 50.4505C7.07956 49.2973 7.65688 48.0721 8.2342 46.8468L8.30636 46.7027C13.2857 35.964 18.6259 25.009 24.1826 14.3423L24.3991 13.9099C24.9765 12.8288 25.5538 11.6757 26.1311 10.5946C26.7084 9.44144 27.3579 8.36036 28.1517 7.42342C29.6672 5.69369 31.6878 4.75676 33.9249 4.75676C36.162 4.75676 38.1827 5.69369 39.6981 7.42342C40.4919 8.36036 41.1414 9.44144 41.7187 10.5946C42.2961 11.6757 42.8734 12.8288 43.4507 13.9099L43.6672 14.3423C49.1517 25.0811 54.4919 36.036 59.4713 46.7748V46.8468C60.0486 48 60.5538 49.2973 61.1311 50.4505C61.4919 51.3153 61.8527 52.036 62.0692 52.7568C62.6466 54.6306 62.8631 56.4324 62.5744 58.3063Z" fill="#333333"/>
</g>
<defs>
<clipPath id="clip0_1259_2162">
<rect width="231" height="72" fill="white" transform="translate(0.295898)"/>
</clipPath>
</defs>
</svg>
