<svg width="34" height="34" viewBox="0 0 34 34" fill="none" xmlns="http://www.w3.org/2000/svg">
<path d="M17.0057 34C14.6559 34 12.4459 33.5542 10.3757 32.6627C8.3067 31.7698 6.50659 30.5584 4.97533 29.0284C3.44407 27.4984 2.23204 25.7002 1.33922 23.6338C0.446408 21.5673 0 19.358 0 17.0057C0 14.6534 0.446408 12.4434 1.33922 10.3757C2.23078 8.3067 3.4403 6.50659 4.96778 4.97533C6.49526 3.44407 8.29411 2.23204 10.3643 1.33922C12.4346 0.446408 14.6446 0 16.9943 0C19.3441 0 21.5541 0.446408 23.6243 1.33922C25.6933 2.23078 27.4934 3.44093 29.0247 4.96967C30.5559 6.49841 31.768 8.29726 32.6608 10.3662C33.5536 12.4352 34 14.6446 34 16.9943C34 19.3441 33.5542 21.5541 32.6627 23.6243C31.7711 25.6946 30.5597 27.4947 29.0284 29.0247C27.4972 30.5547 25.699 31.7667 23.6338 32.6608C21.5686 33.5548 19.3592 34.0013 17.0057 34ZM17 32.1111C18.8448 32.1111 20.6204 31.7875 22.3267 31.1402C24.0355 30.4917 25.5875 29.551 26.9828 28.3182L5.68178 7.01911C4.47289 8.41311 3.53852 9.96389 2.87867 11.6714C2.21882 13.379 1.88889 15.1552 1.88889 17C1.88889 21.2185 3.35278 24.7917 6.28056 27.7194C9.20833 30.6472 12.7815 32.1111 17 32.1111ZM28.3182 26.9809C29.5523 25.5869 30.4923 24.0361 31.1383 22.3286C31.7869 20.621 32.1111 18.8448 32.1111 17C32.1111 12.7815 30.6472 9.20833 27.7194 6.28055C24.7917 3.35278 21.2185 1.88889 17 1.88889C15.1476 1.88889 13.3633 2.20685 11.6469 2.84278C9.93178 3.47744 8.38918 4.42378 7.01911 5.68178L28.3182 26.9809Z" fill="#333333"/>
</svg>
