<svg width="20" height="20" viewBox="0 0 20 20" fill="none" xmlns="http://www.w3.org/2000/svg">
<path d="M12.4048 15C11.9176 15 11.502 14.8278 11.1582 14.4833C10.8143 14.1389 10.642 13.7236 10.6415 13.2375C10.6409 12.7514 10.8132 12.3356 11.1582 11.99C11.5032 11.6445 11.9187 11.4725 12.4048 11.4742C12.8909 11.4759 13.3065 11.6481 13.6515 11.9908C13.9965 12.3336 14.1684 12.7492 14.1673 13.2375C14.1662 13.7258 13.994 14.1414 13.6507 14.4842C13.3073 14.827 12.892 14.9989 12.4048 15ZM4.67982 17.5C4.29648 17.5 3.97648 17.3717 3.71982 17.115C3.46315 16.8583 3.33454 16.5381 3.33398 16.1542V5.51252C3.33398 5.12918 3.4626 4.80918 3.71982 4.55252C3.97704 4.29585 4.29732 4.16724 4.68065 4.16668H6.15482V2.30835H7.05232V4.16668H13.014V2.30835H13.8473V4.16668H15.3215C15.7048 4.16668 16.0251 4.29529 16.2823 4.55252C16.5395 4.80974 16.6679 5.13002 16.6673 5.51335V16.1542C16.6673 16.5375 16.539 16.8578 16.2823 17.115C16.0257 17.3722 15.7051 17.5006 15.3207 17.5H4.67982ZM4.67982 16.6667H15.3215C15.4493 16.6667 15.5668 16.6133 15.674 16.5067C15.7812 16.4 15.8345 16.2822 15.834 16.1533V8.84668H4.16732V16.1542C4.16732 16.282 4.22065 16.3995 4.32732 16.5067C4.43398 16.6139 4.55148 16.6672 4.67982 16.6667ZM4.16732 8.01252H15.834V5.51252C15.834 5.38474 15.7807 5.26724 15.674 5.16002C15.5673 5.05279 15.4495 4.99946 15.3207 5.00002H4.68065C4.55232 5.00002 4.43454 5.05335 4.32732 5.16002C4.2201 5.26668 4.16676 5.38446 4.16732 5.51335V8.01252Z" fill="#333333"/>
</svg>
