<svg width="24" height="24" viewBox="0 0 24 24" fill="none" xmlns="http://www.w3.org/2000/svg">
<path d="M7.05467 7.90331C6.43446 8.31327 5.68412 8.47834 4.94913 8.3665C4.21413 8.25467 3.54684 7.87391 3.07663 7.29804C2.60642 6.72217 2.36679 5.99222 2.40419 5.24971C2.4416 4.50719 2.75337 3.80502 3.27907 3.27932C3.80477 2.75362 4.50695 2.44184 5.24946 2.40444C5.99197 2.36703 6.72193 2.60667 7.2978 3.07688C7.87367 3.54709 8.25443 4.21438 8.36626 4.94937C8.47809 5.68437 8.31303 6.4347 7.90307 7.05491L10.3439 9.49691C10.8348 9.17262 11.4103 8.99985 11.9987 9.00011C12.6107 9.00011 13.1783 9.18251 13.6535 9.49691L16.0955 7.05491C15.6855 6.4347 15.5204 5.68437 15.6323 4.94937C15.7441 4.21438 16.1249 3.54709 16.7007 3.07688C17.2766 2.60667 18.0066 2.36703 18.7491 2.40444C19.4916 2.44184 20.1938 2.75362 20.7195 3.27932C21.2452 3.80502 21.5569 4.50719 21.5943 5.24971C21.6317 5.99222 21.3921 6.72217 20.9219 7.29804C20.4517 7.87391 19.7844 8.25467 19.0494 8.3665C18.3144 8.47834 17.5641 8.31327 16.9439 7.90331L14.5031 10.3441C14.8175 10.8193 14.9999 11.3881 14.9999 11.9989C14.9999 12.6109 14.8175 13.1785 14.5031 13.6537L16.9451 16.0957C17.5653 15.6858 18.3156 15.5207 19.0506 15.6325C19.7856 15.7444 20.4529 16.1251 20.9231 16.701C21.3933 17.2769 21.6329 18.0068 21.5955 18.7493C21.5581 19.4918 21.2464 20.194 20.7207 20.7197C20.195 21.2454 19.4928 21.5572 18.7503 21.5946C18.0078 21.632 17.2778 21.3924 16.7019 20.9221C16.1261 20.4519 15.7453 19.7846 15.6335 19.0497C15.5216 18.3147 15.6867 17.5643 16.0967 16.9441L13.6547 14.5021C13.1637 14.8264 12.5883 14.9992 11.9999 14.9989C11.3879 14.9989 10.8203 14.8165 10.3451 14.5021L7.90307 16.9441C8.31303 17.5643 8.47809 18.3147 8.36626 19.0497C8.25443 19.7846 7.87367 20.4519 7.2978 20.9221C6.72193 21.3924 5.99197 21.632 5.24946 21.5946C4.50695 21.5572 3.80477 21.2454 3.27907 20.7197C2.75337 20.194 2.4416 19.4918 2.40419 18.7493C2.36679 18.0068 2.60642 17.2769 3.07663 16.701C3.54684 16.1251 4.21413 15.7444 4.94913 15.6325C5.68412 15.5207 6.43446 15.6858 7.05467 16.0957L9.49667 13.6537C9.1726 13.1631 8.99984 12.5881 8.99987 12.0001C8.99987 11.3881 9.18227 10.8205 9.49667 10.3453L7.05467 7.90331ZM7.19987 5.40011C7.19987 4.92272 7.01023 4.46488 6.67266 4.12732C6.33509 3.78975 5.87726 3.60011 5.39987 3.60011C4.92248 3.60011 4.46464 3.78975 4.12708 4.12732C3.78951 4.46488 3.59987 4.92272 3.59987 5.40011C3.59987 5.8775 3.78951 6.33534 4.12708 6.6729C4.46464 7.01047 4.92248 7.20011 5.39987 7.20011C5.87726 7.20011 6.33509 7.01047 6.67266 6.6729C7.01023 6.33534 7.19987 5.8775 7.19987 5.40011ZM20.3999 5.40011C20.3999 4.92272 20.2102 4.46488 19.8727 4.12732C19.5351 3.78975 19.0773 3.60011 18.5999 3.60011C18.1225 3.60011 17.6646 3.78975 17.3271 4.12732C16.9895 4.46488 16.7999 4.92272 16.7999 5.40011C16.7999 5.8775 16.9895 6.33534 17.3271 6.6729C17.6646 7.01047 18.1225 7.20011 18.5999 7.20011C19.0773 7.20011 19.5351 7.01047 19.8727 6.6729C20.2102 6.33534 20.3999 5.8775 20.3999 5.40011ZM5.39987 20.4001C5.87726 20.4001 6.33509 20.2105 6.67266 19.8729C7.01023 19.5353 7.19987 19.0775 7.19987 18.6001C7.19987 18.1227 7.01023 17.6649 6.67266 17.3273C6.33509 16.9898 5.87726 16.8001 5.39987 16.8001C4.92248 16.8001 4.46464 16.9898 4.12708 17.3273C3.78951 17.6649 3.59987 18.1227 3.59987 18.6001C3.59987 19.0775 3.78951 19.5353 4.12708 19.8729C4.46464 20.2105 4.92248 20.4001 5.39987 20.4001ZM20.3999 18.6001C20.3999 18.1227 20.2102 17.6649 19.8727 17.3273C19.5351 16.9898 19.0773 16.8001 18.5999 16.8001C18.1225 16.8001 17.6646 16.9898 17.3271 17.3273C16.9895 17.6649 16.7999 18.1227 16.7999 18.6001C16.7999 19.0775 16.9895 19.5353 17.3271 19.8729C17.6646 20.2105 18.1225 20.4001 18.5999 20.4001C19.0773 20.4001 19.5351 20.2105 19.8727 19.8729C20.2102 19.5353 20.3999 19.0775 20.3999 18.6001ZM13.7999 12.0001C13.7999 11.5227 13.6102 11.0649 13.2727 10.7273C12.9351 10.3898 12.4773 10.2001 11.9999 10.2001C11.5225 10.2001 11.0646 10.3898 10.7271 10.7273C10.3895 11.0649 10.1999 11.5227 10.1999 12.0001C10.1999 12.4775 10.3895 12.9353 10.7271 13.2729C11.0646 13.6105 11.5225 13.8001 11.9999 13.8001C12.4773 13.8001 12.9351 13.6105 13.2727 13.2729C13.6102 12.9353 13.7999 12.4775 13.7999 12.0001Z" fill="#3E63F5"/>
</svg>
