<svg width="36" height="48" viewBox="0 0 36 48" fill="none" xmlns="http://www.w3.org/2000/svg">
<path d="M7.5 25.5C10.8137 25.5 13.5 22.8137 13.5 19.5C13.5 16.1863 10.8137 13.5 7.5 13.5C4.18629 13.5 1.5 16.1863 1.5 19.5C1.5 22.8137 4.18629 25.5 7.5 25.5Z" stroke="#3E63F5" stroke-width="1.5"/>
<path d="M28.5 34.5C31.8137 34.5 34.5 31.8137 34.5 28.5C34.5 25.1863 31.8137 22.5 28.5 22.5C25.1863 22.5 22.5 25.1863 22.5 28.5C22.5 31.8137 25.1863 34.5 28.5 34.5Z" stroke="#3E63F5" stroke-width="1.5"/>
<path d="M7.5 1.5V7.5M7.5 31.5V46.5M28.5 1.5V16.5M28.5 40.5V46.5" stroke="#3E63F5" stroke-width="1.5" stroke-linecap="round"/>
</svg>
