<svg width="35" height="35" viewBox="0 0 35 35" fill="none" xmlns="http://www.w3.org/2000/svg">
<path d="M12.8689 4.01074C17.7565 4.01074 21.7254 7.9796 21.7254 12.8679V21.7244H4.01172V12.8679C4.01172 7.97887 7.98057 4.01074 12.8689 4.01074Z" stroke="#3E63F5" stroke-width="1.5" stroke-linecap="round" stroke-linejoin="round"/>
<path d="M12.457 21.7245C12.457 26.8418 16.6053 30.99 21.7226 30.99C26.8398 30.99 30.9881 26.8411 30.9881 21.7245C30.9881 16.6079 26.8398 12.459 21.7226 12.459" stroke="#3E63F5" stroke-width="1.5" stroke-linecap="round" stroke-linejoin="round"/>
<path d="M7.59969 29.9445C8.97936 29.9445 10.0978 28.826 10.0978 27.4464C10.0978 26.0667 8.97936 24.9482 7.59969 24.9482C6.22001 24.9482 5.10156 26.0667 5.10156 27.4464C5.10156 28.826 6.22001 29.9445 7.59969 29.9445Z" stroke="#3E63F5" stroke-width="1.5" stroke-linecap="round" stroke-linejoin="round"/>
<path d="M8.99911 13.4504C9.89393 13.4504 10.6193 12.725 10.6193 11.8302C10.6193 10.9354 9.89393 10.21 8.99911 10.21C8.1043 10.21 7.37891 10.9354 7.37891 11.8302C7.37891 12.725 8.1043 13.4504 8.99911 13.4504Z" stroke="#3E63F5" stroke-width="1.5" stroke-linecap="round" stroke-linejoin="round"/>
<path d="M16.2374 13.4504C17.1322 13.4504 17.8576 12.725 17.8576 11.8302C17.8576 10.9354 17.1322 10.21 16.2374 10.21C15.3426 10.21 14.6172 10.9354 14.6172 11.8302C14.6172 12.725 15.3426 13.4504 16.2374 13.4504Z" stroke="#3E63F5" stroke-width="1.5" stroke-linecap="round" stroke-linejoin="round"/>
<path d="M25.6866 21.7238C26.5814 21.7238 27.3068 20.9984 27.3068 20.1036C27.3068 19.2088 26.5814 18.4834 25.6866 18.4834C24.7918 18.4834 24.0664 19.2088 24.0664 20.1036C24.0664 20.9984 24.7918 21.7238 25.6866 21.7238Z" stroke="#3E63F5" stroke-width="1.5" stroke-linecap="round" stroke-linejoin="round"/>
<path d="M25.2227 8.46124L28.7657 4.91895M25.2227 4.91895L28.7657 8.46124" stroke="#3E63F5" stroke-width="1.5" stroke-linecap="round" stroke-linejoin="round"/>
</svg>
