<svg width="20" height="21" viewBox="0 0 20 21" fill="none" xmlns="http://www.w3.org/2000/svg">
<path d="M2.5 3.83337V17.1667C2.5 17.9525 2.5 18.345 2.74417 18.5892C2.98833 18.8334 3.38083 18.8334 4.16667 18.8334H15.8333C16.6192 18.8334 17.0117 18.8334 17.2558 18.5892C17.5 18.345 17.5 17.9525 17.5 17.1667V3.83337M8.75 7.16671V8.41671M8.75 8.41671V9.66671M8.75 8.41671H11.25M11.25 7.16671V8.41671M11.25 8.41671V9.66671" stroke="black" stroke-width="1.25" stroke-linecap="round" stroke-linejoin="round"/>
<path d="M11.666 18.8334V15.5C11.666 15.058 11.4904 14.6341 11.1779 14.3215C10.8653 14.0089 10.4414 13.8334 9.99935 13.8334C9.55732 13.8334 9.1334 14.0089 8.82084 14.3215C8.50828 14.6341 8.33268 15.058 8.33268 15.5V18.8334M1.66602 3.83335H6.66602C7.19935 2.85585 8.49102 2.16669 9.99935 2.16669C11.5077 2.16669 12.7993 2.85585 13.3327 3.83335H18.3327M4.99935 7.16669H5.83268M4.99935 10.5H5.83268M4.99935 13.8334H5.83268M14.166 7.16669H14.9993M14.166 10.5H14.9993M14.166 13.8334H14.9993" stroke="black" stroke-width="1.25" stroke-linecap="round" stroke-linejoin="round"/>
</svg>
