<svg width="20" height="21" viewBox="0 0 20 21" fill="none" xmlns="http://www.w3.org/2000/svg">
<path d="M2.08268 15.5001C1.96379 15.5001 1.86463 15.4601 1.78518 15.3801C1.70574 15.3001 1.66602 15.2012 1.66602 15.0834V5.08342C1.66602 4.96509 1.70602 4.8662 1.78602 4.78675C1.86602 4.70731 1.96518 4.66731 2.08352 4.66675C2.20185 4.6662 2.30074 4.7062 2.38018 4.78675C2.45963 4.86731 2.49935 4.9662 2.49935 5.08342V12.1668H9.58268V7.16675C9.58268 6.94342 9.66574 6.7487 9.83185 6.58259C9.99796 6.41648 10.1927 6.33342 10.416 6.33342H15.8327C16.5205 6.33342 17.1091 6.57814 17.5985 7.06759C18.088 7.55703 18.3327 8.14564 18.3327 8.83342V15.0834C18.3327 15.2018 18.2927 15.3006 18.2127 15.3801C18.1327 15.4595 18.0335 15.4995 17.9152 15.5001C17.7968 15.5006 17.698 15.4606 17.6185 15.3801C17.5391 15.2995 17.4993 15.2006 17.4993 15.0834V13.0001H2.49935V15.0834C2.49935 15.2018 2.45935 15.3006 2.37935 15.3801C2.29935 15.4595 2.20102 15.4995 2.08268 15.5001ZM5.83102 10.5968C5.34046 10.5968 4.92435 10.4251 4.58268 10.0818C4.24102 9.73842 4.07018 9.32175 4.07018 8.83175C4.07018 8.34175 4.24157 7.92564 4.58435 7.58342C4.92713 7.2412 5.34379 7.07036 5.83435 7.07092C6.3249 7.07148 6.74102 7.24286 7.08268 7.58509C7.42435 7.92731 7.59546 8.34398 7.59602 8.83509C7.59657 9.3262 7.4249 9.74231 7.08102 10.0834C6.73713 10.4245 6.32046 10.5956 5.83102 10.5968ZM10.416 12.1668H17.4993V8.83342C17.4993 8.37509 17.3363 7.98287 17.0102 7.65675C16.6841 7.33064 16.2916 7.16731 15.8327 7.16675H10.416V12.1668ZM5.83268 9.76342C6.09046 9.76342 6.3099 9.67286 6.49102 9.49175C6.67213 9.31064 6.76268 9.0912 6.76268 8.83342C6.76268 8.57564 6.67213 8.3562 6.49102 8.17509C6.3099 7.99398 6.09046 7.90398 5.83268 7.90509C5.5749 7.9062 5.35546 7.99675 5.17435 8.17675C4.99324 8.35675 4.90296 8.57592 4.90352 8.83425C4.90407 9.09259 4.99463 9.31203 5.17518 9.49259C5.35574 9.67314 5.5749 9.76286 5.83268 9.76342Z" fill="#333333"/>
</svg>
