<svg width="34" height="37" viewBox="0 0 34 37" fill="none" xmlns="http://www.w3.org/2000/svg">
<path d="M3.58341 22.0002C2.10547 19.8499 1.32626 17.3781 1.33206 14.8585C1.33206 7.20399 8.38746 1.00024 17.0895 1.00024C25.7916 1.00024 32.847 7.20399 32.847 14.8585C32.8528 17.3781 32.0735 19.8499 30.5956 22.0002" stroke="#3E63F5" stroke-width="1.5" stroke-linecap="round"/>
<path d="M22.9987 30.7502L22.7426 31.8825C22.4668 33.1197 22.327 33.7375 22.0138 34.2275C21.5312 34.9827 20.7499 35.5516 19.8216 35.8235C19.2208 36.0002 18.5078 36.0002 17.0896 36.0002C15.6714 36.0002 14.9584 36.0002 14.3577 35.8252C13.429 35.5529 12.6476 34.9834 12.1654 34.2275C11.8522 33.7375 11.7124 33.1197 11.4366 31.8825L11.1806 30.7502M7.9956 27.4217C7.81439 26.9387 7.72379 26.6955 7.73364 26.4995C7.74478 26.2968 7.82177 26.1014 7.9553 25.9368C8.08883 25.7722 8.27318 25.6455 8.48605 25.572C8.6909 25.5002 8.97847 25.5002 9.54968 25.5002H24.6296C25.2027 25.5002 25.4883 25.5002 25.6932 25.5702C25.9063 25.6438 26.0909 25.7708 26.2245 25.9358C26.358 26.1007 26.4348 26.2965 26.4456 26.4995C26.4554 26.6955 26.3648 26.937 26.1836 27.4217C25.8488 28.316 25.6814 28.764 25.4233 29.1262C24.8836 29.8833 24.0377 30.4276 23.0597 30.647C22.5909 30.7502 22.0631 30.7502 21.0053 30.7502H13.1739C12.1162 30.7502 11.5863 30.7502 11.1195 30.6452C10.1419 30.4263 9.29596 29.8827 8.7559 29.1262C8.49787 28.764 8.33045 28.316 7.9956 27.4217Z" stroke="#3E63F5" stroke-width="1.5"/>
<path d="M17.0898 25.5002V16.7502" stroke="#3E63F5" stroke-width="1.5" stroke-linecap="round" stroke-linejoin="round"/>
</svg>
