<svg width="20" height="21" viewBox="0 0 20 21" fill="none" xmlns="http://www.w3.org/2000/svg">
<path d="M17.0417 18.1367L14.1667 15.2617V17.7083H13.3333V13.8333H17.2083V14.6667H14.7408L17.6158 17.5417L17.0417 18.1367ZM10 18C8.96222 18 7.98722 17.8033 7.075 17.41C6.16278 17.0167 5.36917 16.4822 4.69417 15.8067C4.01917 15.1311 3.48472 14.3378 3.09083 13.4267C2.69694 12.5156 2.5 11.5408 2.5 10.5025C2.5 9.46417 2.69694 8.48917 3.09083 7.5775C3.48417 6.66472 4.01778 5.87056 4.69167 5.195C5.36556 4.51944 6.15917 3.98472 7.0725 3.59083C7.98583 3.19694 8.96083 3 9.9975 3C11.0342 3 12.0092 3.19694 12.9225 3.59083C13.8358 3.98472 14.63 4.51917 15.305 5.19417C15.98 5.86917 16.5147 6.66278 16.9092 7.575C17.3036 8.48722 17.5006 9.46222 17.5 10.5C17.5 10.7244 17.4903 10.9489 17.4708 11.1733C17.4514 11.3978 17.4217 11.6222 17.3817 11.8467H16.5225C16.5703 11.6222 16.6064 11.3978 16.6308 11.1733C16.6547 10.9489 16.6667 10.7244 16.6667 10.5C16.6667 10.1722 16.6439 9.84444 16.5983 9.51667C16.5528 9.18889 16.4794 8.865 16.3783 8.545H13.0158C13.0792 8.86556 13.1236 9.18972 13.1492 9.5175C13.1758 9.84528 13.1892 10.1728 13.1892 10.5C13.1892 10.7244 13.1828 10.9489 13.17 11.1733C13.1572 11.3978 13.1378 11.6222 13.1117 11.8467H12.2783C12.3044 11.6222 12.3239 11.3978 12.3367 11.1733C12.3494 10.9489 12.3558 10.7244 12.3558 10.5C12.3558 10.1722 12.3428 9.84444 12.3167 9.51667C12.2906 9.18889 12.2461 8.865 12.1833 8.545H7.81667C7.75389 8.86556 7.70944 9.19 7.68333 9.51833C7.65722 9.84722 7.64417 10.1758 7.64417 10.5042C7.64417 10.8325 7.65722 11.1597 7.68333 11.4858C7.70944 11.8114 7.75389 12.1344 7.81667 12.455H11.1542V13.2883H8.01583C8.21861 14.0022 8.48028 14.6872 8.80083 15.3433C9.12194 15.9989 9.52167 16.6089 10 17.1733C10.2244 17.1733 10.4489 17.1611 10.6733 17.1367C10.8978 17.1128 11.1222 17.0869 11.3467 17.0592V17.8858C11.1222 17.9136 10.8978 17.9397 10.6733 17.9642C10.4489 17.9881 10.2244 18 10 18ZM3.62167 12.455H6.98417C6.92083 12.1344 6.87639 11.81 6.85083 11.4817C6.82417 11.1533 6.81083 10.8247 6.81083 10.4958C6.81083 10.1675 6.82389 9.84028 6.85 9.51417C6.87611 9.18861 6.92056 8.86556 6.98333 8.545H3.6225C3.52139 8.86556 3.44806 9.19 3.4025 9.51833C3.35639 9.84722 3.33333 10.1758 3.33333 10.5042C3.33333 10.8325 3.35611 11.1597 3.40167 11.4858C3.44722 11.8119 3.52056 12.135 3.62167 12.455ZM3.96167 7.71167H7.14917C7.31139 7.01611 7.53694 6.34944 7.82583 5.71167C8.11472 5.075 8.48583 4.47778 8.93917 3.92C7.83361 4.08444 6.84417 4.50306 5.97083 5.17583C5.09861 5.84806 4.42889 6.69333 3.96167 7.71167ZM8.93917 17.08C8.51806 16.5117 8.16055 15.9089 7.86667 15.2717C7.57222 14.6344 7.33583 13.9733 7.1575 13.2883H3.96167C4.42833 14.2956 5.10083 15.1356 5.97917 15.8083C6.85694 16.4806 7.84361 16.9044 8.93917 17.08ZM8.01583 7.71167H11.9842C11.7958 6.99667 11.5333 6.31722 11.1967 5.67333C10.86 5.02944 10.4611 4.41389 10 3.82667C9.53222 4.39111 9.13167 5.00111 8.79833 5.65667C8.465 6.31222 8.20417 6.99722 8.01583 7.71167ZM12.8433 7.71167H16.0383C15.5717 6.69333 14.9019 5.84528 14.0292 5.1675C13.1564 4.48972 12.1669 4.07389 11.0608 3.92C11.4819 4.48833 11.8317 5.09389 12.11 5.73667C12.3883 6.37944 12.6328 7.03778 12.8433 7.71167Z" fill="#1C1724"/>
</svg>
