<svg width="48" height="48" viewBox="0 0 48 48" fill="none" xmlns="http://www.w3.org/2000/svg">
<path d="M34.3082 32.616C32.0868 32.616 30.1882 31.9153 28.6122 30.514C27.0362 29.1127 26.0782 27.2747 25.7382 25H13.3702C13.1488 25.9 12.6795 26.6633 11.9622 27.29C11.2448 27.9167 10.3602 28.23 9.30817 28.23C8.13884 28.23 7.14151 27.8173 6.31617 26.992C5.49084 26.1667 5.07751 25.1693 5.07618 24C5.07484 22.8307 5.48817 21.8333 6.31617 21.008C7.14417 20.1827 8.14151 19.7693 9.30817 19.768C10.3588 19.768 11.2435 20.0813 11.9622 20.708C12.6808 21.3347 13.1502 22.0987 13.3702 23H25.7382C26.0768 20.7253 27.0348 18.8873 28.6122 17.486C30.1895 16.0847 32.0882 15.3847 34.3082 15.386C36.6908 15.386 38.7222 16.2387 40.4022 17.944C42.0822 19.6507 42.9222 21.6953 42.9222 24.078C42.9222 26.4073 42.0822 28.4127 40.4022 30.094C38.7222 31.7753 36.6908 32.6153 34.3082 32.614M34.3082 30.614C36.1282 30.614 37.6862 29.9673 38.9822 28.674C40.2755 27.378 40.9222 25.82 40.9222 24C40.9222 22.18 40.2755 20.6227 38.9822 19.328C37.6888 18.0333 36.1308 17.3853 34.3082 17.384C32.4855 17.3827 30.9275 18.03 29.6342 19.326C28.3408 20.622 27.6942 22.18 27.6942 24C27.6942 25.82 28.3408 27.378 29.6342 28.674C30.9275 29.97 32.4855 30.6167 34.3082 30.614Z" fill="#3E63F5"/>
</svg>
