<svg width="17" height="17" viewBox="0 0 17 17" fill="none" xmlns="http://www.w3.org/2000/svg">
<g clip-path="url(#clip0_906_300)">
<path fill-rule="evenodd" clip-rule="evenodd" d="M8.5 16.5C10.6217 16.5 12.6566 15.6571 14.1569 14.1569C15.6571 12.6566 16.5 10.6217 16.5 8.5C16.5 6.37827 15.6571 4.34344 14.1569 2.84315C12.6566 1.34285 10.6217 0.5 8.5 0.5C6.37827 0.5 4.34344 1.34285 2.84315 2.84315C1.34285 4.34344 0.5 6.37827 0.5 8.5C0.5 10.6217 1.34285 12.6566 2.84315 14.1569C4.34344 15.6571 6.37827 16.5 8.5 16.5ZM5.427 5.49C5.142 5.919 5 6.343 5 6.76C5 6.963 5.09 7.152 5.27 7.326C5.45 7.5 5.67 7.586 5.931 7.586C6.374 7.586 6.675 7.338 6.834 6.84C7.002 6.365 7.207 6.005 7.45 5.76C7.693 5.516 8.07 5.394 8.584 5.394C9.023 5.394 9.381 5.514 9.659 5.757C9.936 5.999 10.075 6.297 10.075 6.649C10.0762 6.82559 10.0292 6.99917 9.939 7.151C9.84729 7.3058 9.73418 7.44686 9.603 7.57C9.39259 7.7624 9.1765 7.94848 8.955 8.128C8.615 8.41 8.344 8.653 8.143 8.858C7.943 9.063 7.781 9.301 7.66 9.571C7.338 10.816 9.01 10.916 9.396 10.027C9.443 9.941 9.514 9.847 9.609 9.743C9.705 9.64 9.832 9.52 9.991 9.383C10.3956 9.04601 10.7937 8.70128 11.185 8.349C11.406 8.145 11.597 7.901 11.758 7.619C11.924 7.31806 12.0075 6.97859 12 6.635C12 6.16 11.859 5.72 11.576 5.315C11.294 4.909 10.894 4.589 10.376 4.353C9.858 4.118 9.261 4 8.584 4C7.856 4 7.219 4.14 6.673 4.423C6.127 4.705 5.712 5.061 5.427 5.49ZM7.567 12.57C7.567 12.8352 7.67236 13.0896 7.85989 13.2771C8.04743 13.4646 8.30178 13.57 8.567 13.57C8.83222 13.57 9.08657 13.4646 9.27411 13.2771C9.46164 13.0896 9.567 12.8352 9.567 12.57C9.567 12.3048 9.46164 12.0504 9.27411 11.8629C9.08657 11.6754 8.83222 11.57 8.567 11.57C8.30178 11.57 8.04743 11.6754 7.85989 11.8629C7.67236 12.0504 7.567 12.3048 7.567 12.57Z" fill="#B6B6B6"/>
</g>
<defs>
<clipPath id="clip0_906_300">
<rect width="16" height="16" fill="white" transform="translate(0.5 0.5)"/>
</clipPath>
</defs>
</svg>
