<svg width="24" height="18" viewBox="0 0 24 18" fill="none" xmlns="http://www.w3.org/2000/svg">
<g clip-path="url(#clip0_1947_4459)">
<path d="M5.45747 17.9114V8.68662L2.58222 6.06935L0.00390625 4.61694V16.2835C0.00390625 17.1842 0.737366 17.9114 1.64001 17.9114H5.45747Z" fill="#4285F4"/>
<path d="M18.543 17.9113H22.3604C23.2658 17.9113 23.9965 17.1814 23.9965 16.2834V4.61694L21.0762 6.2805L18.543 8.68653V17.9113Z" fill="#34A853"/>
<path d="M5.45765 8.6867L5.06641 5.08232L5.45765 1.63257L12.0019 6.51626L18.5461 1.63257L18.9838 4.89607L18.5461 8.6867L12.0019 13.5704L5.45765 8.6867Z" fill="#EA4335"/>
<path d="M18.543 1.63247V8.6866L23.9965 4.61692V2.44639C23.9965 0.433277 21.687 -0.71434 20.0701 0.492966L18.543 1.63247Z" fill="#FBBC04"/>
<path d="M0.00390625 4.61697L2.51211 6.48878L5.45747 8.68665V1.63251L3.93038 0.493009C2.31067 -0.71439 0.00390625 0.43332 0.00390625 2.44633V4.61697Z" fill="#C5221F"/>
</g>
<defs>
<clipPath id="clip0_1947_4459">
<rect width="24" height="18" fill="white"/>
</clipPath>
</defs>
</svg>
