<svg width="20" height="21" viewBox="0 0 20 21" fill="none" xmlns="http://www.w3.org/2000/svg">
<path d="M17.2963 9.87126L16.2353 9.52217V5.76363C16.2353 5.49359 16.1268 5.23462 15.9338 5.04367C15.7407 4.85272 15.4789 4.74545 15.2059 4.74545H10.9412V3.43636C10.9412 3.32063 10.8947 3.20964 10.812 3.12781C10.7292 3.04597 10.617 3 10.5 3C10.383 3 10.2708 3.04597 10.188 3.12781C10.1053 3.20964 10.0588 3.32063 10.0588 3.43636V4.74545H5.79412C5.5211 4.74545 5.25927 4.85272 5.06621 5.04367C4.87316 5.23462 4.76471 5.49359 4.76471 5.76363V9.52217L3.70368 9.87126C3.49865 9.93891 3.32034 10.0687 3.19404 10.2421C3.06774 10.4156 2.99986 10.624 3 10.8378V12.7454C3 17.1091 10.0912 18.912 10.3926 18.9869C10.4631 19.0044 10.5369 19.0044 10.6074 18.9869C11.8685 18.6503 13.087 18.1735 14.2397 17.5658C16.7 16.2473 18 14.5811 18 12.7454V10.8378C18.0001 10.624 17.9323 10.4156 17.806 10.2421C17.6797 10.0687 17.5014 9.93891 17.2963 9.87126ZM5.64706 5.76363C5.64706 5.72506 5.66255 5.68806 5.69013 5.66078C5.71771 5.6335 5.75512 5.61818 5.79412 5.61818H15.2059C15.2449 5.61818 15.2823 5.6335 15.3099 5.66078C15.3374 5.68806 15.3529 5.72506 15.3529 5.76363V9.23126L10.6397 7.67708C10.549 7.64714 10.451 7.64714 10.3603 7.67708L5.64706 9.23126V5.76363ZM17.1176 12.7454C17.1176 16.1709 11.3618 17.8756 10.5 18.112C9.6375 17.8756 3.88235 16.1709 3.88235 12.7454V10.8378C3.88233 10.8072 3.89204 10.7774 3.91013 10.7526C3.92821 10.7278 3.95374 10.7093 3.98309 10.6996L10.0588 8.69599V13.9091C10.0588 14.0248 10.1053 14.1358 10.188 14.2176C10.2708 14.2995 10.383 14.3454 10.5 14.3454C10.617 14.3454 10.7292 14.2995 10.812 14.2176C10.8947 14.1358 10.9412 14.0248 10.9412 13.9091V8.69599L17.0169 10.6996C17.0463 10.7093 17.0718 10.7278 17.0899 10.7526C17.108 10.7774 17.1177 10.8072 17.1176 10.8378V12.7454Z" fill="#333333"/>
</svg>
