<svg width="26" height="20" viewBox="0 0 26 20" fill="none" xmlns="http://www.w3.org/2000/svg">
<path d="M4.73116 19.8899V18.5655C4.73897 18.4541 4.72268 18.3424 4.6834 18.2377C4.64411 18.1331 4.58272 18.0379 4.50331 17.9585C4.42391 17.8791 4.32832 17.8174 4.22291 17.7775C4.11749 17.7375 4.00468 17.7202 3.89198 17.7267C3.74447 17.7172 3.59706 17.747 3.46515 17.813C3.33324 17.879 3.22167 17.9788 3.14208 18.102C3.06952 17.9825 2.96571 17.8845 2.84159 17.8185C2.71746 17.7525 2.57762 17.7208 2.43681 17.7267C2.31406 17.7206 2.19182 17.7463 2.0822 17.8013C1.97259 17.8563 1.8794 17.9386 1.81188 18.0402V17.7797H1.34766V19.8899H1.81635V18.7289C1.80638 18.6567 1.81265 18.5832 1.83472 18.5138C1.85678 18.4443 1.8941 18.3805 1.94399 18.3269C1.99389 18.2733 2.05514 18.2313 2.12335 18.2039C2.19157 18.1765 2.26507 18.1643 2.3386 18.1682C2.6466 18.1682 2.80283 18.3669 2.80283 18.7244V19.8987H3.27152V18.7289C3.26196 18.6568 3.26852 18.5835 3.29074 18.5142C3.31295 18.4449 3.35029 18.3812 3.4001 18.3278C3.44991 18.2743 3.51098 18.2323 3.57901 18.2047C3.64703 18.1771 3.72035 18.1647 3.79378 18.1682C4.11071 18.1682 4.26247 18.3669 4.26247 18.7244V19.8987L4.73116 19.8899ZM11.6656 17.7797H10.9023V17.1396H10.4336V17.7797H10.0095V18.1991H10.4425V19.1703C10.4425 19.6603 10.6344 19.9517 11.1835 19.9517C11.3886 19.9524 11.5898 19.8957 11.7638 19.7883L11.6299 19.3955C11.5054 19.4689 11.3641 19.5099 11.2192 19.5146C10.996 19.5146 10.9112 19.3734 10.9112 19.1615V18.1991H11.67L11.6656 17.7797ZM15.6249 17.7267C15.5117 17.7235 15.3997 17.7504 15.3007 17.8048C15.2018 17.8592 15.1194 17.939 15.0625 18.0358V17.7797H14.6027V19.8899H15.0669V18.7068C15.0669 18.358 15.2187 18.1638 15.5133 18.1638C15.6126 18.1624 15.7112 18.1804 15.8034 18.2168L15.9463 17.7753C15.8403 17.7378 15.7286 17.7184 15.616 17.7179L15.6249 17.7267ZM9.63904 17.9475C9.37626 17.793 9.07414 17.7163 8.76861 17.7267C8.2285 17.7267 7.87586 17.9828 7.87586 18.4022C7.87586 18.7465 8.13476 18.9584 8.61238 19.0246L8.83556 19.0555C9.09 19.0908 9.21052 19.1571 9.21052 19.2763C9.21052 19.4396 9.0409 19.5323 8.72397 19.5323C8.46905 19.5396 8.21906 19.4619 8.01424 19.3116L7.79105 19.6692C8.06147 19.8559 8.38536 19.9518 8.71504 19.9429C9.33104 19.9429 9.68814 19.6559 9.68814 19.2542C9.68814 18.8525 9.40692 18.6891 8.94269 18.6229L8.71951 18.592C8.51864 18.5655 8.35794 18.5258 8.35794 18.3845C8.35794 18.2433 8.50971 18.1373 8.76414 18.1373C8.99931 18.14 9.22984 18.2023 9.4337 18.3183L9.63904 17.9475ZM22.0728 17.7267C21.9596 17.7235 21.8476 17.7504 21.7486 17.8048C21.6496 17.8592 21.5673 17.939 21.5103 18.0358V17.7797H21.0506V19.8899H21.5148V18.7068C21.5148 18.358 21.6666 18.1638 21.9612 18.1638C22.0605 18.1624 22.159 18.1804 22.2513 18.2168L22.3941 17.7753C22.2881 17.7378 22.1764 17.7184 22.0638 17.7179L22.0728 17.7267ZM16.0914 18.8304C16.0858 18.9787 16.1117 19.1265 16.1672 19.2643C16.2228 19.4022 16.3068 19.527 16.4139 19.6309C16.5211 19.7348 16.649 19.8154 16.7894 19.8676C16.9299 19.9198 17.0798 19.9424 17.2296 19.934C17.5083 19.9481 17.7823 19.8583 17.9974 19.6824L17.7742 19.3116C17.6137 19.4326 17.418 19.4992 17.2162 19.5014C17.0446 19.4877 16.8845 19.4106 16.7678 19.2854C16.6511 19.1603 16.5863 18.9962 16.5863 18.826C16.5863 18.6557 16.6511 18.4917 16.7678 18.3665C16.8845 18.2414 17.0446 18.1643 17.2162 18.1505C17.418 18.1528 17.6137 18.2193 17.7742 18.3404L17.9974 17.9695C17.7823 17.7937 17.5083 17.7039 17.2296 17.7179C17.0798 17.7095 16.9299 17.7321 16.7894 17.7843C16.649 17.8365 16.5211 17.9172 16.4139 18.021C16.3068 18.1249 16.2228 18.2498 16.1672 18.3876C16.1117 18.5255 16.0858 18.6733 16.0914 18.8216V18.8304ZM20.439 18.8304V17.7797H19.9748V18.0358C19.896 17.9354 19.7941 17.8551 19.6777 17.8014C19.5613 17.7476 19.4336 17.7221 19.3052 17.7267C19.0093 17.7267 18.7254 17.843 18.5162 18.05C18.3069 18.257 18.1893 18.5377 18.1893 18.8304C18.1893 19.1231 18.3069 19.4038 18.5162 19.6108C18.7254 19.8178 19.0093 19.934 19.3052 19.934C19.4336 19.9387 19.5613 19.9131 19.6777 19.8594C19.7941 19.8057 19.896 19.7253 19.9748 19.625V19.8811H20.439V18.8304ZM18.7116 18.8304C18.719 18.7062 18.7629 18.5868 18.8381 18.487C18.9132 18.3872 19.0162 18.3113 19.1344 18.2687C19.2526 18.226 19.3808 18.2185 19.5033 18.247C19.6257 18.2755 19.7371 18.3388 19.8236 18.4291C19.9102 18.5194 19.9681 18.6328 19.9903 18.7553C20.0125 18.8777 19.9981 19.004 19.9487 19.1184C19.8993 19.2328 19.8171 19.3305 19.7123 19.3993C19.6075 19.4681 19.4846 19.5052 19.3588 19.5058C19.2704 19.5069 19.1828 19.4899 19.1014 19.4559C19.02 19.4219 18.9466 19.3716 18.8858 19.3081C18.825 19.2447 18.7781 19.1695 18.7481 19.0873C18.7182 19.0051 18.7057 18.9176 18.7116 18.8304ZM13.1096 17.7267C12.8136 17.7308 12.5314 17.8511 12.3251 18.0609C12.1187 18.2708 12.0051 18.5531 12.0093 18.8458C12.0134 19.1385 12.135 19.4176 12.3472 19.6217C12.5594 19.8258 12.8449 19.9381 13.1408 19.934C13.4619 19.9503 13.7777 19.8481 14.0269 19.6471L13.8037 19.3072C13.6275 19.4469 13.4091 19.5246 13.1832 19.5279C13.0298 19.5409 12.8772 19.4943 12.758 19.3978C12.6388 19.3014 12.5624 19.1627 12.5449 19.0114H14.1295C14.1295 18.954 14.1295 18.8966 14.1295 18.8348C14.1295 18.1726 13.7144 17.7312 13.1163 17.7312L13.1096 17.7267ZM13.1096 18.1373C13.1791 18.1358 13.2481 18.1479 13.3129 18.1729C13.3776 18.1978 13.4368 18.2351 13.4869 18.2827C13.5371 18.3302 13.5773 18.3871 13.6052 18.45C13.6331 18.5129 13.6482 18.5807 13.6497 18.6494H12.5338C12.5418 18.5077 12.6057 18.3748 12.7117 18.2791C12.8176 18.1833 12.9572 18.1325 13.1007 18.1373H13.1096ZM24.7398 18.8348V16.9321H24.2935V18.0358C24.2146 17.9354 24.1128 17.8551 23.9964 17.8014C23.88 17.7476 23.7523 17.7221 23.6239 17.7267C23.3279 17.7267 23.0441 17.843 22.8348 18.05C22.6255 18.257 22.508 18.5377 22.508 18.8304C22.508 19.1231 22.6255 19.4038 22.8348 19.6108C23.0441 19.8178 23.3279 19.934 23.6239 19.934C23.7523 19.9387 23.88 19.9131 23.9964 19.8594C24.1128 19.8057 24.2146 19.7253 24.2935 19.625V19.8811H24.7398V18.8348ZM25.5143 19.5831C25.5433 19.5827 25.5721 19.588 25.5991 19.5985C25.6247 19.6089 25.6482 19.6238 25.6683 19.6427C25.6879 19.6617 25.7038 19.6841 25.7152 19.7089C25.7265 19.7347 25.7323 19.7625 25.7323 19.7906C25.7323 19.8186 25.7265 19.8464 25.7152 19.8722C25.7038 19.897 25.6879 19.9194 25.6683 19.9384C25.6482 19.9573 25.6247 19.9722 25.5991 19.9826C25.5724 19.9942 25.5435 20.0003 25.5143 20.0002C25.472 19.9999 25.4306 19.9877 25.3951 19.9651C25.3595 19.9424 25.3312 19.9102 25.3134 19.8722C25.3023 19.8464 25.2965 19.8186 25.2965 19.7906C25.2965 19.7625 25.3023 19.7347 25.3134 19.7089C25.3248 19.6841 25.3407 19.6617 25.3603 19.6427C25.3804 19.6238 25.4038 19.6089 25.4295 19.5985C25.4586 19.5871 25.4897 19.5818 25.521 19.5831H25.5143ZM25.5143 19.9561C25.5366 19.9562 25.5586 19.9517 25.579 19.9429C25.5982 19.9344 25.6156 19.9224 25.6304 19.9075C25.6583 19.8774 25.6738 19.838 25.6738 19.7972C25.6738 19.7563 25.6583 19.7169 25.6304 19.6868C25.6157 19.6719 25.5982 19.6599 25.579 19.6515C25.5586 19.6427 25.5366 19.6382 25.5143 19.6383C25.492 19.6384 25.47 19.6429 25.4496 19.6515C25.4295 19.6596 25.4113 19.6716 25.396 19.6868C25.3681 19.7169 25.3526 19.7563 25.3526 19.7972C25.3526 19.838 25.3681 19.8774 25.396 19.9075C25.4113 19.9227 25.4295 19.9347 25.4496 19.9429C25.4721 19.9525 25.4965 19.957 25.521 19.9561H25.5143ZM25.5277 19.6934C25.5485 19.6924 25.569 19.6987 25.5857 19.7111C25.5925 19.7167 25.5979 19.7238 25.6014 19.7319C25.6049 19.7399 25.6064 19.7487 25.6058 19.7574C25.6061 19.7648 25.6049 19.7721 25.6022 19.7789C25.5995 19.7858 25.5954 19.792 25.5902 19.7972C25.5772 19.8088 25.5607 19.8158 25.5433 19.817L25.608 19.8899H25.5567L25.4964 19.817H25.4764V19.8899H25.4339V19.6956L25.5277 19.6934ZM25.4786 19.731V19.7839H25.5277C25.5364 19.7865 25.5457 19.7865 25.5545 19.7839C25.556 19.7809 25.5569 19.7774 25.5569 19.774C25.5569 19.7706 25.556 19.7671 25.5545 19.7641C25.556 19.761 25.5569 19.7576 25.5569 19.7541C25.5569 19.7507 25.556 19.7473 25.5545 19.7442C25.5457 19.7416 25.5364 19.7416 25.5277 19.7442L25.4786 19.731ZM23.0235 18.8348C23.0309 18.7106 23.0749 18.5912 23.15 18.4914C23.2252 18.3916 23.3282 18.3157 23.4463 18.2731C23.5645 18.2304 23.6928 18.2229 23.8152 18.2514C23.9377 18.2799 24.049 18.3432 24.1356 18.4335C24.2221 18.5238 24.2801 18.6372 24.3023 18.7597C24.3245 18.8822 24.31 19.0084 24.2606 19.1228C24.2112 19.2372 24.1291 19.3349 24.0243 19.4037C23.9195 19.4726 23.7966 19.5096 23.6708 19.5102C23.5824 19.5113 23.4948 19.4943 23.4134 19.4603C23.3319 19.4263 23.2585 19.376 23.1977 19.3126C23.1369 19.2491 23.0901 19.1739 23.0601 19.0917C23.0301 19.0095 23.0177 18.922 23.0235 18.8348ZM7.34914 18.8348V17.7797H6.88491V18.0358C6.80608 17.9354 6.70425 17.8551 6.58783 17.8014C6.47141 17.7476 6.34374 17.7221 6.21535 17.7267C5.91939 17.7267 5.63555 17.843 5.42627 18.05C5.21699 18.257 5.09942 18.5377 5.09942 18.8304C5.09942 19.1231 5.21699 19.4038 5.42627 19.6108C5.63555 19.8178 5.91939 19.934 6.21535 19.934C6.34374 19.9387 6.47141 19.9131 6.58783 19.8594C6.70425 19.8057 6.80608 19.7253 6.88491 19.625V19.8811H7.34914V18.8348ZM5.62168 18.8348C5.62908 18.7106 5.67305 18.5912 5.74818 18.4914C5.8233 18.3916 5.9263 18.3157 6.04449 18.2731C6.16268 18.2304 6.2909 18.2229 6.41337 18.2514C6.53583 18.2799 6.64719 18.3432 6.73374 18.4335C6.82028 18.5238 6.87823 18.6372 6.90044 18.7597C6.92266 18.8822 6.90817 19.0084 6.85877 19.1228C6.80937 19.2372 6.72721 19.3349 6.62241 19.4037C6.5176 19.4726 6.39473 19.5096 6.26892 19.5102C6.18018 19.512 6.09204 19.4954 6.0101 19.4617C5.92816 19.4279 5.85421 19.3777 5.79294 19.3142C5.73166 19.2507 5.6844 19.1753 5.65415 19.0928C5.6239 19.0102 5.61132 18.9224 5.61721 18.8348H5.62168Z" fill="#3D3C3C"/>
<path d="M16.5148 1.69922H9.48438V14.1946H16.5148V1.69922Z" fill="#FF5F00"/>
<path d="M9.93062 7.94902C9.92932 6.74545 10.2049 5.55737 10.7366 4.47474C11.2683 3.39211 12.0421 2.44332 12.9994 1.70021C11.8141 0.778944 10.3906 0.206061 8.89167 0.0470399C7.39272 -0.111981 5.87876 0.149276 4.52284 0.800951C3.16691 1.45263 2.02373 2.46843 1.22393 3.73226C0.424135 4.99609 0 6.45697 0 7.94792C0 9.43887 0.424135 10.8997 1.22393 12.1636C2.02373 13.4274 3.16691 14.4432 4.52284 15.0949C5.87876 15.7466 7.39272 16.0078 8.89167 15.8488C10.3906 15.6898 11.8141 15.1169 12.9994 14.1956C12.0424 13.4527 11.2688 12.5043 10.7371 11.4221C10.2054 10.3399 9.92966 9.15222 9.93062 7.94902Z" fill="#EB001B"/>
<path d="M26.0006 7.94823C26.0006 9.43929 25.5763 10.9003 24.7764 12.1641C23.9765 13.428 22.8331 14.4438 21.477 15.0954C20.1209 15.747 18.6068 16.0081 17.1078 15.8488C15.6087 15.6896 14.1852 15.1164 13 14.1948C13.9566 13.4513 14.73 12.5026 15.2619 11.4203C15.7937 10.338 16.07 9.15044 16.07 7.94713C16.07 6.74382 15.7937 5.55622 15.2619 4.47394C14.73 3.39166 13.9566 2.44296 13 1.69942C14.1852 0.777866 15.6087 0.204704 17.1078 0.0454549C18.6068 -0.113795 20.1209 0.147294 21.477 0.798878C22.8331 1.45046 23.9765 2.46625 24.7764 3.73012C25.5763 4.994 26.0006 6.45497 26.0006 7.94603V7.94823Z" fill="#F79E1B"/>
<path d="M25.2325 12.8703V12.6143H25.3374V12.5613H25.0718V12.6143H25.1856V12.8703H25.2325ZM25.748 12.8703V12.5613H25.6677L25.5739 12.782L25.4802 12.5613H25.4088V12.8703H25.4668V12.6385L25.5539 12.8394H25.6141L25.7012 12.6385V12.8725L25.748 12.8703Z" fill="#6F6F6F"/>
</svg>
