<svg width="35" height="35" viewBox="0 0 35 35" fill="none" xmlns="http://www.w3.org/2000/svg">
<path d="M16.7724 26.25C22.6057 26.25 27.6516 23.0125 30.2474 18.2292C27.6516 13.4458 22.6057 10.2083 16.7724 10.2083C10.9391 10.2083 5.89323 13.4458 3.2974 18.2292C5.89323 23.0125 10.9391 26.25 16.7724 26.25ZM16.7724 8.75C23.4224 8.75 29.1682 12.6146 31.8807 18.2292C29.1682 23.8438 23.4224 27.7083 16.7724 27.7083C10.1224 27.7083 4.37656 23.8438 1.66406 18.2292C4.37656 12.6146 10.1224 8.75 16.7724 8.75ZM16.7724 11.6667C20.4182 11.6667 23.3349 14.5833 23.3349 18.2292C23.3349 21.875 20.4182 24.7917 16.7724 24.7917C13.1266 24.7917 10.2099 21.875 10.2099 18.2292C10.2099 14.5833 13.1266 11.6667 16.7724 11.6667ZM16.7724 13.125C15.4187 13.125 14.1204 13.6628 13.1632 14.62C12.206 15.5772 11.6682 16.8755 11.6682 18.2292C11.6682 19.5829 12.206 20.8811 13.1632 21.8384C14.1204 22.7956 15.4187 23.3333 16.7724 23.3333C18.1261 23.3333 19.4244 22.7956 20.3816 21.8384C21.3388 20.8811 21.8766 19.5829 21.8766 18.2292C21.8766 16.8755 21.3388 15.5772 20.3816 14.62C19.4244 13.6628 18.1261 13.125 16.7724 13.125Z" fill="#3E63F5"/>
</svg>
