<svg width="44" height="32" viewBox="0 0 44 32" fill="none" xmlns="http://www.w3.org/2000/svg">
<path d="M34.76 4.74002C33.36 4.74002 32.14 5.16002 30.94 5.56002C29.54 3.14002 26.92 1.54002 24.1 1.54002C21.9 1.54002 19.9 2.54002 18.48 3.94002C16.88 1.94002 14.46 0.52002 11.66 0.52002C7 0.52002 3 4.34002 3 9.00002C3 10.18 3.42 11.38 3.82 12.58C2.66827 13.2118 1.70664 14.1404 1.03491 15.2693C0.363187 16.3983 0.00585278 17.6864 0 19C0 23 3.22 26.44 7.24 26.44C7.84 26.44 8.44 26.44 8.84 26.24C9.64 29.26 12.66 31.48 16.28 31.48C19.68 31.48 22.5 29.46 23.5 26.64C24.52 27.06 25.52 27.46 26.52 27.46C29.14 27.46 31.54 26 32.74 23.84C33.36 24 34 24 34.56 24C39.78 24 44 19.82 44 14.4C44.2 9.00002 40 4.74002 34.76 4.74002Z" fill="#3E63F5"/>
</svg>
