<svg width="49" height="48" viewBox="0 0 49 48" fill="none" xmlns="http://www.w3.org/2000/svg">
<path d="M12.2998 18.5459C12.2998 18.1481 12.4578 17.7665 12.7391 17.4852C13.0204 17.2039 13.402 17.0459 13.7998 17.0459H33.7998C34.1976 17.0459 34.5792 17.2039 34.8605 17.4852C35.1418 17.7665 35.2998 18.1481 35.2998 18.5459C35.2998 18.9437 35.1418 19.3253 34.8605 19.6066C34.5792 19.8879 34.1976 20.0459 33.7998 20.0459H13.7998C13.402 20.0459 13.0204 19.8879 12.7391 19.6066C12.4578 19.3253 12.2998 18.9437 12.2998 18.5459ZM13.7998 23.0459C13.402 23.0459 13.0204 23.2039 12.7391 23.4852C12.4578 23.7665 12.2998 24.1481 12.2998 24.5459C12.2998 24.9437 12.4578 25.3253 12.7391 25.6066C13.0204 25.8879 13.402 26.0459 13.7998 26.0459H23.7998C24.1976 26.0459 24.5792 25.8879 24.8605 25.6066C25.1418 25.3253 25.2998 24.9437 25.2998 24.5459C25.2998 24.1481 25.1418 23.7665 24.8605 23.4852C24.5792 23.2039 24.1976 23.0459 23.7998 23.0459H13.7998Z" fill="#3E63F5"/>
<path fill-rule="evenodd" clip-rule="evenodd" d="M5.7998 11.2073C5.7998 10.0914 6.24896 9.02129 7.04845 8.23228C7.84795 7.44326 8.9323 7 10.063 7H37.5366C38.6673 7 39.7517 7.44326 40.5512 8.23228C41.3507 9.02129 41.7998 10.0914 41.7998 11.2073V30.9327C41.7998 32.0486 41.3507 33.1187 40.5512 33.9077C39.7517 34.6967 38.6673 35.14 37.5366 35.14H29.6754L24.9404 41.434C24.8082 41.6096 24.6362 41.7523 24.4382 41.8505C24.2401 41.9488 24.0215 42 23.7998 42C23.5781 42 23.3595 41.9488 23.1615 41.8505C22.9634 41.7523 22.7914 41.6096 22.6592 41.434L17.9261 35.14H10.063C8.9323 35.14 7.84795 34.6967 7.04845 33.9077C6.24896 33.1187 5.7998 32.0486 5.7998 30.9327V11.2073ZM10.063 9.80484C9.68608 9.80484 9.32463 9.95259 9.05813 10.2156C8.79163 10.4786 8.64191 10.8353 8.64191 11.2073V30.9327C8.64191 31.7069 9.27854 32.3351 10.063 32.3351H18.6404C18.8622 32.3352 19.0808 32.3865 19.2789 32.4849C19.4769 32.5832 19.6489 32.726 19.7811 32.9017L23.7998 38.244L27.8204 32.9017C27.9526 32.726 28.1246 32.5832 28.3226 32.4849C28.5207 32.3865 28.7393 32.3352 28.9611 32.3351H37.5366C37.9135 32.3351 38.275 32.1874 38.5415 31.9244C38.808 31.6614 38.9577 31.3047 38.9577 30.9327V11.2054C38.9577 10.8334 38.808 10.4767 38.5415 10.2137C38.275 9.95072 37.9135 9.80297 37.5366 9.80297L10.063 9.80484Z" fill="#3E63F5"/>
</svg>
