<svg width="20" height="21" viewBox="0 0 20 21" fill="none" xmlns="http://www.w3.org/2000/svg">
<path d="M10.4987 4.81249C10.0568 4.81249 9.63292 4.98369 9.32042 5.28843C9.00791 5.59317 8.83235 6.00649 8.83235 6.43746C8.83235 6.86843 9.00791 7.28175 9.32042 7.58649C9.63292 7.89123 10.0568 8.06243 10.4987 8.06243C10.9407 8.06243 11.3645 7.89123 11.677 7.58649C11.9895 7.28175 12.1651 6.86843 12.1651 6.43746C12.1651 6.00649 11.9895 5.59317 11.677 5.28843C11.3645 4.98369 10.9407 4.81249 10.4987 4.81249ZM7.99916 6.43746C7.99916 5.791 8.26251 5.17103 8.73127 4.71392C9.20003 4.2568 9.8358 4 10.4987 4C11.1616 4 11.7974 4.2568 12.2662 4.71392C12.7349 5.17103 12.9983 5.791 12.9983 6.43746C12.9983 7.08391 12.7349 7.70389 12.2662 8.161C11.7974 8.61811 11.1616 8.87492 10.4987 8.87492C9.8358 8.87492 9.20003 8.61811 8.73127 8.161C8.26251 7.70389 7.99916 7.08391 7.99916 6.43746ZM6.37695 10.4966C6.34862 10.6288 6.33446 10.7653 6.33446 10.9061V11.3489L4.14235 11.9217C4.03562 11.9496 3.9446 12.0176 3.88929 12.1108C3.83398 12.2041 3.81891 12.3149 3.8474 12.419L4.38647 14.3811C4.54463 14.9558 4.91287 15.4542 5.42178 15.7824C5.9307 16.1106 6.54514 16.2459 7.14931 16.1629C7.34095 16.4148 7.56174 16.6455 7.8067 16.8478L7.66422 16.8885C7.24144 16.9991 6.80046 17.0274 6.36646 16.9717C5.93247 16.9161 5.51396 16.7777 5.13484 16.5643C4.75572 16.3509 4.42342 16.0668 4.15692 15.7282C3.89041 15.3896 3.69492 15.0031 3.58161 14.5908L3.04254 12.6286C3.00008 12.474 2.98927 12.3128 3.01072 12.1541C3.03216 11.9954 3.08545 11.8424 3.16754 11.7038C3.24963 11.5652 3.35891 11.4437 3.48914 11.3463C3.61937 11.2489 3.76801 11.1775 3.92655 11.1361L6.37695 10.4966ZM14.6663 11.3489V10.9061C14.6658 10.7653 14.6519 10.6288 14.6247 10.4966L17.0742 11.1369C17.3943 11.2207 17.6671 11.4249 17.8327 11.7048C17.9983 11.9847 18.0432 12.3173 17.9574 12.6294L17.4183 14.5916C17.3018 15.0156 17.0984 15.4121 16.8203 15.7573C16.5423 16.1025 16.1955 16.3893 15.8007 16.6002C15.406 16.8111 14.9715 16.9419 14.5235 16.9846C14.0755 17.0273 13.6232 16.981 13.1941 16.8487C13.4401 16.645 13.6593 16.4167 13.8515 16.1637C14.4556 16.2465 15.0699 16.1109 15.5787 15.7826C16.0875 15.4542 16.4555 14.9558 16.6135 14.3811L17.1534 12.419C17.1819 12.3149 17.1668 12.2041 17.1115 12.1108C17.0562 12.0176 16.9651 11.9496 16.8584 11.9217L14.6663 11.3489ZM14.6646 7.65619C14.6646 7.33296 14.7963 7.02297 15.0307 6.79442C15.2651 6.56586 15.583 6.43746 15.9144 6.43746C16.2459 6.43746 16.5638 6.56586 16.7982 6.79442C17.0325 7.02297 17.1642 7.33296 17.1642 7.65619C17.1642 7.97942 17.0325 8.2894 16.7982 8.51796C16.5638 8.74652 16.2459 8.87492 15.9144 8.87492C15.583 8.87492 15.2651 8.74652 15.0307 8.51796C14.7963 8.2894 14.6646 7.97942 14.6646 7.65619ZM15.9144 5.62497C15.362 5.62497 14.8322 5.83898 14.4416 6.2199C14.0509 6.60083 13.8315 7.11748 13.8315 7.65619C13.8315 8.1949 14.0509 8.71155 14.4416 9.09247C14.8322 9.4734 15.362 9.6874 15.9144 9.6874C16.4669 9.6874 16.9967 9.4734 17.3873 9.09247C17.7779 8.71155 17.9974 8.1949 17.9974 7.65619C17.9974 7.11748 17.7779 6.60083 17.3873 6.2199C16.9967 5.83898 16.4669 5.62497 15.9144 5.62497ZM5.08301 6.43746C4.75155 6.43746 4.43367 6.56586 4.19929 6.79442C3.96491 7.02297 3.83324 7.33296 3.83324 7.65619C3.83324 7.97942 3.96491 8.2894 4.19929 8.51796C4.43367 8.74652 4.75155 8.87492 5.08301 8.87492C5.41448 8.87492 5.73236 8.74652 5.96674 8.51796C6.20112 8.2894 6.33279 7.97942 6.33279 7.65619C6.33279 7.33296 6.20112 7.02297 5.96674 6.79442C5.73236 6.56586 5.41448 6.43746 5.08301 6.43746ZM3.00005 7.65619C3.00005 7.11748 3.2195 6.60083 3.61014 6.2199C4.00077 5.83898 4.53058 5.62497 5.08301 5.62497C5.63545 5.62497 6.16526 5.83898 6.55589 6.2199C6.94652 6.60083 7.16598 7.11748 7.16598 7.65619C7.16598 8.1949 6.94652 8.71155 6.55589 9.09247C6.16526 9.4734 5.63545 9.6874 5.08301 9.6874C4.53058 9.6874 4.00077 9.4734 3.61014 9.09247C3.2195 8.71155 3.00005 8.1949 3.00005 7.65619ZM8.41576 9.6874C8.08429 9.6874 7.76641 9.81581 7.53203 10.0444C7.29765 10.2729 7.16598 10.5829 7.16598 10.9061V13.7498C7.16598 14.6118 7.51711 15.4384 8.14212 16.0479C8.76713 16.6574 9.61482 16.9998 10.4987 16.9998C11.3826 16.9998 12.2303 16.6574 12.8553 16.0479C13.4803 15.4384 13.8315 14.6118 13.8315 13.7498V10.9061C13.8315 10.5829 13.6998 10.2729 13.4654 10.0444C13.231 9.81581 12.9131 9.6874 12.5817 9.6874H8.41576ZM7.99916 10.9061C7.99916 10.7984 8.04305 10.6951 8.12118 10.6189C8.19931 10.5427 8.30527 10.4999 8.41576 10.4999H12.5817C12.6922 10.4999 12.7981 10.5427 12.8763 10.6189C12.9544 10.6951 12.9983 10.7984 12.9983 10.9061V13.7498C12.9983 14.3963 12.7349 15.0163 12.2662 15.4734C11.7974 15.9305 11.1616 16.1873 10.4987 16.1873C9.8358 16.1873 9.20003 15.9305 8.73127 15.4734C8.26251 15.0163 7.99916 14.3963 7.99916 13.7498V10.9061Z" fill="#333333"/>
</svg>
