<svg width="49" height="48" viewBox="0 0 49 48" fill="none" xmlns="http://www.w3.org/2000/svg">
<path d="M32.9999 31.2001C32.6816 31.2001 32.3764 31.3265 32.1514 31.5516C31.9263 31.7766 31.7999 32.0818 31.7999 32.4001C31.7999 32.7184 31.9263 33.0236 32.1514 33.2486C32.3764 33.4737 32.6816 33.6001 32.9999 33.6001H37.7999C38.1182 33.6001 38.4234 33.4737 38.6484 33.2486C38.8735 33.0236 38.9999 32.7184 38.9999 32.4001C38.9999 32.0818 38.8735 31.7766 38.6484 31.5516C38.4234 31.3265 38.1182 31.2001 37.7999 31.2001H32.9999ZM5.3999 16.2001C5.3999 14.4497 6.09526 12.7709 7.333 11.5332C8.57074 10.2955 10.2495 9.6001 11.9999 9.6001H37.1999C38.9503 9.6001 40.6291 10.2955 41.8668 11.5332C43.1045 12.7709 43.7999 14.4497 43.7999 16.2001V31.8001C43.7999 33.5505 43.1045 35.2293 41.8668 36.467C40.6291 37.7047 38.9503 38.4001 37.1999 38.4001H11.9999C10.2495 38.4001 8.57074 37.7047 7.333 36.467C6.09526 35.2293 5.3999 33.5505 5.3999 31.8001V16.2001ZM11.9999 12.0001C10.886 12.0001 9.81771 12.4426 9.03005 13.2302C8.2424 14.0179 7.7999 15.0862 7.7999 16.2001V19.2001H41.3999V16.2001C41.3999 15.0862 40.9574 14.0179 40.1698 13.2302C39.3821 12.4426 38.3138 12.0001 37.1999 12.0001H11.9999ZM41.3999 21.6001H7.7999V31.8001C7.7999 34.1185 9.6815 36.0001 11.9999 36.0001H37.1999C38.3138 36.0001 39.3821 35.5576 40.1698 34.7699C40.9574 33.9823 41.3999 32.914 41.3999 31.8001V21.6001Z" fill="#3E63F5"/>
</svg>
