<svg width="60" height="60" viewBox="0 0 60 60" fill="none" xmlns="http://www.w3.org/2000/svg">
<g clip-path="url(#clip0_887_1780)">
<path d="M51.1343 4.91011V1.80464C51.1343 0.813119 50.3277 0.00651792 49.3361 0.00651792H44.4168C43.7935 0.00651792 43.2428 0.321284 42.9138 0.799877C34.9214 -1.34887 26.426 0.89644 20.5596 6.76273C11.7555 15.5668 11.5466 29.7357 19.9434 38.7922L18.1923 40.4971L17.141 39.4459C16.2505 38.5553 14.8009 38.5553 13.9104 39.4459L1.01105 52.3451C-0.318789 53.675 -0.318789 55.8387 1.01105 57.1686L2.88746 59.045C4.16117 60.3186 6.2334 60.3186 7.50723 59.045L20.5082 46.044C21.3988 45.1532 21.3986 43.704 20.5082 42.8135L19.4348 41.74L21.1854 40.0357C25.0415 43.612 30.0154 45.7702 35.2877 46.135C35.5201 46.151 35.7494 46.0741 35.9251 45.9211C36.1008 45.7682 36.2086 45.5517 36.2248 45.3193C36.2409 45.0868 36.164 44.8575 36.011 44.6818C35.858 44.506 35.6414 44.3982 35.409 44.3821C24.4444 43.6235 15.5606 34.5534 15.5606 23.099C15.5606 8.96457 29.0018 -1.21493 42.5933 2.53355V4.79257C30.2238 0.945541 17.7037 10.256 17.7037 23.1234C17.7037 33.6726 26.265 42.3154 36.8959 42.3154C45.9389 42.3154 50.7123 36.3423 50.8954 36.2506L50.8979 36.2478C50.9046 36.2406 50.9112 36.2333 50.9177 36.2259C54.2521 32.6592 56.0878 28.0074 56.0878 23.1234C56.0878 18.3462 54.3315 13.791 51.1345 10.2564V7.19656C55.617 11.2081 58.231 16.901 58.231 23.0987C58.231 34.0021 50.0964 43.0605 39.3485 44.2927C39.117 44.3193 38.9055 44.4368 38.7606 44.6192C38.6157 44.8017 38.5491 45.0342 38.5756 45.2657C38.5887 45.3804 38.6243 45.4913 38.6803 45.5922C38.7363 45.6931 38.8116 45.782 38.902 45.8538C38.9923 45.9256 39.096 45.9788 39.2069 46.0105C39.3179 46.0422 39.434 46.0518 39.5486 46.0386C51.1766 44.7055 59.988 34.9064 59.9881 23.0989C59.9879 15.8867 56.7154 9.2839 51.1343 4.91011ZM6.26457 57.8022C5.67617 58.3906 4.71863 58.3906 4.13012 57.8022L2.25371 55.9258C1.60895 55.281 1.60895 54.2321 2.25371 53.5873L9.02258 46.8185L13.1354 50.9313L6.26457 57.8022ZM14.3779 49.689L10.2651 45.5762L11.5091 44.3322L15.6219 48.445L14.3779 49.689ZM19.2657 44.8012L16.8645 47.2024L12.7517 43.0896L15.1531 40.6883C15.3568 40.4845 15.6949 40.4846 15.8986 40.6883L19.2659 44.0557C19.4695 44.2597 19.4695 44.5974 19.2657 44.8012ZM29.0254 38.6779C27.1314 37.7148 25.4282 36.4155 23.9987 34.8434V21.8177C23.9987 21.7808 24.0287 21.7508 24.0655 21.7508H29.0255V38.6779H29.0254ZM35.8093 40.5222C34.0897 40.418 32.3953 40.057 30.7827 39.451V15.1551C30.7827 15.1375 30.7896 15.1205 30.8021 15.108C30.8145 15.0955 30.8314 15.0884 30.8491 15.0883H35.8093V40.5222ZM35.8093 8.49277V13.3312H30.8491C29.8435 13.3312 29.0255 14.1494 29.0255 15.1551V19.9935H24.0655C23.0596 19.9935 22.2416 20.8118 22.2416 21.8176V32.5593C14.7802 21.0124 23.1185 5.68847 36.8957 5.68847C38.8508 5.68847 40.7643 6.01003 42.5933 6.64285V6.66874H37.6333C36.6274 6.66874 35.8093 7.48707 35.8093 8.49277ZM42.5933 39.6039C40.9734 40.1645 39.2794 40.4817 37.5665 40.5452V8.49289C37.5665 8.45609 37.5965 8.42609 37.6333 8.42609H42.5934V39.6039H42.5933ZM54.3304 23.1234C54.3304 26.7618 53.2084 30.2581 51.1343 33.1855V25.0964C51.1343 24.981 51.1115 24.8667 51.0674 24.7602C51.0232 24.6536 50.9585 24.5567 50.8769 24.4751C50.7953 24.3935 50.6985 24.3288 50.5919 24.2847C50.4853 24.2405 50.3711 24.2178 50.2557 24.2178C50.1403 24.2178 50.0261 24.2405 49.9195 24.2847C49.8129 24.3288 49.716 24.3935 49.6345 24.4751C49.5529 24.5567 49.4882 24.6536 49.444 24.7602C49.3999 24.8667 49.3771 24.981 49.3771 25.0964V35.2937C47.9227 36.7865 46.2017 38.0067 44.3505 38.8856V1.83042C44.3505 1.81277 44.3575 1.79583 44.3699 1.78332C44.3824 1.7708 44.3993 1.76372 44.417 1.76363H49.3362C49.3587 1.76363 49.3773 1.78203 49.3773 1.80464V20.9964C49.3773 21.1118 49.4 21.2261 49.4441 21.3326C49.4883 21.4392 49.553 21.5361 49.6346 21.6177C49.7162 21.6993 49.813 21.764 49.9196 21.8081C50.0262 21.8523 50.1404 21.875 50.2558 21.875C50.3712 21.875 50.4854 21.8523 50.592 21.8081C50.6986 21.764 50.7955 21.6993 50.877 21.6177C50.9586 21.5361 51.0233 21.4392 51.0675 21.3326C51.1116 21.2261 51.1344 21.1118 51.1344 20.9964V13.0613C53.2082 15.9887 54.3304 19.485 54.3304 23.1234Z" fill="#58A4FD"/>
</g>
<defs>
<clipPath id="clip0_887_1780">
<rect width="60" height="60" fill="white"/>
</clipPath>
</defs>
</svg>
