<svg width="60" height="60" viewBox="0 0 60 60" fill="none" xmlns="http://www.w3.org/2000/svg">
<g id="Frame" clip-path="url(#clip0_888_1783)">
<g id="Group">
<path id="Vector" d="M41.0398 31.3079C40.9063 31.184 40.7395 31.1017 40.56 31.0711C40.3804 31.0405 40.1958 31.0628 40.0287 31.1354C39.8616 31.208 39.7193 31.3277 39.6192 31.4799C39.5191 31.632 39.4654 31.8101 39.4648 31.9922V57.4922C39.4651 57.6478 39.504 57.8008 39.5781 57.9376C39.6523 58.0743 39.7592 58.1905 39.8894 58.2756C40.0196 58.3607 40.169 58.412 40.324 58.425C40.479 58.438 40.6348 58.4123 40.7773 58.35L45.8352 56.1469L47.2414 59.4282C47.3437 59.6529 47.5306 59.8282 47.7614 59.916C47.9923 60.0038 48.2484 59.9969 48.4742 59.8969L55.3133 56.9485C55.538 56.8462 55.7133 56.6593 55.8011 56.4284C55.8889 56.1976 55.882 55.9415 55.782 55.7157L54.3758 52.4344L59.4336 50.2313C59.5763 50.169 59.7013 50.0722 59.7972 49.9496C59.8931 49.8269 59.957 49.6823 59.9831 49.5288C60.0091 49.3753 59.9965 49.2177 59.9464 49.0703C59.8963 48.9229 59.8103 48.7903 59.6961 48.6844L41.0398 31.3079ZM52.7586 51.0844C52.5338 51.1868 52.3585 51.3736 52.2708 51.6045C52.183 51.8353 52.1899 52.0914 52.2898 52.3172L53.6961 55.5985L48.5773 57.825L47.1711 54.5438C47.0688 54.319 46.8819 54.1437 46.6511 54.056C46.4202 53.9682 46.1641 53.9751 45.9383 54.075L41.3305 56.0813V34.1672L57.3711 49.1016L52.7586 51.0844Z" fill="#58A4FD"/>
<path id="Vector_2" d="M36.5625 54.375C36.8111 54.375 37.0496 54.2762 37.2254 54.1004C37.4012 53.9246 37.5 53.6861 37.5 53.4375C37.5 53.1889 37.4012 52.9504 37.2254 52.7746C37.0496 52.5988 36.8111 52.5 36.5625 52.5H5.6625C4.65799 52.5 3.69463 52.101 2.98433 51.3907C2.27404 50.6804 1.875 49.717 1.875 48.7125V16.875H52.5V38.9062C52.5 39.1549 52.5988 39.3933 52.7746 39.5692C52.9504 39.745 53.1889 39.8438 53.4375 39.8438C53.6861 39.8438 53.9246 39.745 54.1004 39.5692C54.2762 39.3933 54.375 39.1549 54.375 38.9062V5.6625C54.3738 4.16109 53.7768 2.72153 52.7151 1.65988C51.6535 0.598223 50.2139 0.00124135 48.7125 0L5.6625 0C4.16109 0.00124135 2.72153 0.598223 1.65988 1.65988C0.598223 2.72153 0.00124135 4.16109 0 5.6625L0 48.7172C0.00248187 50.2178 0.600011 51.6561 1.66153 52.7168C2.72305 53.7774 4.1619 54.3738 5.6625 54.375H36.5625ZM5.6625 1.875H48.7172C49.7209 1.87624 50.683 2.27583 51.3923 2.98599C52.1016 3.69615 52.5 4.6588 52.5 5.6625V15H1.875V5.6625C1.875 4.65799 2.27404 3.69463 2.98433 2.98433C3.69463 2.27404 4.65799 1.875 5.6625 1.875Z" fill="#58A4FD"/>
<path id="Vector_3" d="M45.9375 11.25C46.4938 11.25 47.0375 11.0851 47.5 10.776C47.9626 10.467 48.323 10.0277 48.5359 9.5138C48.7488 8.99988 48.8045 8.43438 48.696 7.88881C48.5874 7.34324 48.3196 6.8421 47.9262 6.44876C47.5329 6.05543 47.0318 5.78756 46.4862 5.67904C45.9406 5.57052 45.3751 5.62622 44.8612 5.83909C44.3473 6.05196 43.908 6.41245 43.599 6.87496C43.29 7.33747 43.125 7.88124 43.125 8.4375C43.125 9.18342 43.4213 9.89879 43.9488 10.4262C44.4762 10.9537 45.1916 11.25 45.9375 11.25ZM45.9375 7.5C46.1229 7.5 46.3042 7.55498 46.4583 7.658C46.6125 7.76101 46.7327 7.90743 46.8036 8.07874C46.8746 8.25004 46.8932 8.43854 46.857 8.6204C46.8208 8.80226 46.7315 8.9693 46.6004 9.10041C46.4693 9.23153 46.3023 9.32081 46.1204 9.35699C45.9385 9.39316 45.75 9.3746 45.5787 9.30364C45.4074 9.23268 45.261 9.11252 45.158 8.95835C45.055 8.80418 45 8.62292 45 8.4375C45 8.18886 45.0988 7.9504 45.2746 7.77459C45.4504 7.59877 45.6889 7.5 45.9375 7.5ZM38.4375 11.25C38.9938 11.25 39.5375 11.0851 40 10.776C40.4626 10.467 40.823 10.0277 41.0359 9.5138C41.2488 8.99988 41.3045 8.43438 41.196 7.88881C41.0874 7.34324 40.8196 6.8421 40.4262 6.44876C40.0329 6.05543 39.5318 5.78756 38.9862 5.67904C38.4406 5.57052 37.8751 5.62622 37.3612 5.83909C36.8473 6.05196 36.408 6.41245 36.099 6.87496C35.79 7.33747 35.625 7.88124 35.625 8.4375C35.625 9.18342 35.9213 9.89879 36.4488 10.4262C36.9762 10.9537 37.6916 11.25 38.4375 11.25ZM38.4375 7.5C38.6229 7.5 38.8042 7.55498 38.9583 7.658C39.1125 7.76101 39.2327 7.90743 39.3036 8.07874C39.3746 8.25004 39.3932 8.43854 39.357 8.6204C39.3208 8.80226 39.2315 8.9693 39.1004 9.10041C38.9693 9.23153 38.8023 9.32081 38.6204 9.35699C38.4385 9.39316 38.25 9.3746 38.0787 9.30364C37.9074 9.23268 37.761 9.11252 37.658 8.95835C37.555 8.80418 37.5 8.62292 37.5 8.4375C37.5 8.18886 37.5988 7.9504 37.7746 7.77459C37.9504 7.59877 38.1889 7.5 38.4375 7.5ZM30.9375 11.25C31.4938 11.25 32.0375 11.0851 32.5 10.776C32.9626 10.467 33.323 10.0277 33.5359 9.5138C33.7488 8.99988 33.8045 8.43438 33.696 7.88881C33.5874 7.34324 33.3196 6.8421 32.9262 6.44876C32.5329 6.05543 32.0318 5.78756 31.4862 5.67904C30.9406 5.57052 30.3751 5.62622 29.8612 5.83909C29.3473 6.05196 28.908 6.41245 28.599 6.87496C28.2899 7.33747 28.125 7.88124 28.125 8.4375C28.125 9.18342 28.4213 9.89879 28.9488 10.4262C29.4762 10.9537 30.1916 11.25 30.9375 11.25ZM30.9375 7.5C31.1229 7.5 31.3042 7.55498 31.4583 7.658C31.6125 7.76101 31.7327 7.90743 31.8036 8.07874C31.8746 8.25004 31.8932 8.43854 31.857 8.6204C31.8208 8.80226 31.7315 8.9693 31.6004 9.10041C31.4693 9.23153 31.3023 9.32081 31.1204 9.35699C30.9385 9.39316 30.75 9.3746 30.5787 9.30364C30.4074 9.23268 30.261 9.11252 30.158 8.95835C30.055 8.80418 30 8.62292 30 8.4375C30 8.18886 30.0988 7.9504 30.2746 7.77459C30.4504 7.59877 30.6889 7.5 30.9375 7.5ZM34.6875 24.375H16.7812C16.5661 23.3154 15.9912 22.3627 15.154 21.6784C14.3168 20.9941 13.2688 20.6203 12.1875 20.6203C11.1062 20.6203 10.0582 20.9941 9.22101 21.6784C8.38381 22.3627 7.80892 23.3154 7.59375 24.375H6.5625C6.31386 24.375 6.0754 24.4738 5.89959 24.6496C5.72377 24.8254 5.625 25.0639 5.625 25.3125C5.625 25.5611 5.72377 25.7996 5.89959 25.9754C6.0754 26.1512 6.31386 26.25 6.5625 26.25H7.59375C7.80892 27.3096 8.38381 28.2623 9.22101 28.9466C10.0582 29.6309 11.1062 30.0047 12.1875 30.0047C13.2688 30.0047 14.3168 29.6309 15.154 28.9466C15.9912 28.2623 16.5661 27.3096 16.7812 26.25H34.6875C34.9361 26.25 35.1746 26.1512 35.3504 25.9754C35.5262 25.7996 35.625 25.5611 35.625 25.3125C35.625 25.0639 35.5262 24.8254 35.3504 24.6496C35.1746 24.4738 34.9361 24.375 34.6875 24.375ZM12.1875 28.125C11.6312 28.125 11.0875 27.9601 10.625 27.651C10.1624 27.342 9.80196 26.9027 9.58909 26.3888C9.37622 25.8749 9.32052 25.3094 9.42904 24.7638C9.53756 24.2182 9.80543 23.7171 10.1988 23.3238C10.5921 22.9304 11.0932 22.6626 11.6388 22.554C12.1844 22.4455 12.7499 22.5012 13.2638 22.7141C13.7777 22.927 14.217 23.2874 14.526 23.75C14.835 24.2125 15 24.7562 15 25.3125C15 26.0584 14.7037 26.7738 14.1762 27.3012C13.6488 27.8287 12.9334 28.125 12.1875 28.125ZM25.2188 43.125C25.0036 42.0654 24.4287 41.1127 23.5915 40.4284C22.7543 39.7441 21.7063 39.3703 20.625 39.3703C19.5437 39.3703 18.4957 39.7441 17.6585 40.4284C16.8213 41.1127 16.2464 42.0654 16.0312 43.125H6.5625C6.31386 43.125 6.0754 43.2238 5.89959 43.3996C5.72377 43.5754 5.625 43.8139 5.625 44.0625C5.625 44.3111 5.72377 44.5496 5.89959 44.7254C6.0754 44.9012 6.31386 45 6.5625 45H16.0312C16.2464 46.0596 16.8213 47.0123 17.6585 47.6966C18.4957 48.3809 19.5437 48.7547 20.625 48.7547C21.7063 48.7547 22.7543 48.3809 23.5915 47.6966C24.4287 47.0123 25.0036 46.0596 25.2188 45H34.6875C34.9361 45 35.1746 44.9012 35.3504 44.7254C35.5262 44.5496 35.625 44.3111 35.625 44.0625C35.625 43.8139 35.5262 43.5754 35.3504 43.3996C35.1746 43.2238 34.9361 43.125 34.6875 43.125H25.2188ZM20.625 46.875C20.0687 46.875 19.525 46.71 19.0625 46.401C18.5999 46.092 18.2395 45.6527 18.0266 45.1388C17.8137 44.6249 17.758 44.0594 17.8665 43.5138C17.9751 42.9682 18.2429 42.4671 18.6363 42.0738C19.0296 41.6804 19.5307 41.4126 20.0763 41.304C20.6219 41.1955 21.1874 41.2512 21.7013 41.4641C22.2152 41.677 22.6545 42.0374 22.9635 42.5C23.2726 42.9625 23.4375 43.5062 23.4375 44.0625C23.4375 44.8084 23.1412 45.5238 22.6137 46.0512C22.0863 46.5787 21.3709 46.875 20.625 46.875ZM30.9375 30C29.8569 29.9998 28.8094 30.3729 27.9723 31.0563C27.1352 31.7396 26.5599 32.6912 26.3438 33.75H6.5625C6.31386 33.75 6.0754 33.8488 5.89959 34.0246C5.72377 34.2004 5.625 34.4389 5.625 34.6875C5.625 34.9361 5.72377 35.1746 5.89959 35.3504C6.0754 35.5262 6.31386 35.625 6.5625 35.625H26.3438C26.5211 36.494 26.9414 37.2948 27.5557 37.9345C28.1701 38.5742 28.9533 39.0264 29.8144 39.2387C30.6755 39.451 31.5792 39.4147 32.4205 39.1339C33.2618 38.8531 34.0062 38.3394 34.5672 37.6525C35.1282 36.9656 35.4828 36.1336 35.5898 35.2532C35.6968 34.3727 35.5519 33.48 35.1718 32.6787C34.7917 31.8773 34.1921 31.2003 33.4426 30.7261C32.6931 30.252 31.8244 30.0002 30.9375 30ZM30.9375 37.5C30.3812 37.5 29.8375 37.335 29.375 37.026C28.9124 36.717 28.552 36.2777 28.3391 35.7638C28.1262 35.2499 28.0705 34.6844 28.179 34.1388C28.2876 33.5932 28.5554 33.0921 28.9488 32.6988C29.3421 32.3054 29.8432 32.0376 30.3888 31.929C30.9344 31.8205 31.4999 31.8762 32.0138 32.0891C32.5277 32.302 32.967 32.6624 33.276 33.125C33.585 33.5875 33.75 34.1312 33.75 34.6875C33.75 35.4334 33.4537 36.1488 32.9262 36.6762C32.3988 37.2037 31.6834 37.5 30.9375 37.5Z" fill="#58A4FD"/>
</g>
</g>
<defs>
<clipPath id="clip0_888_1783">
<rect width="60" height="60" fill="white"/>
</clipPath>
</defs>
</svg>
