<svg width="60" height="60" viewBox="0 0 60 60" fill="none" xmlns="http://www.w3.org/2000/svg">
<g id="Frame" clip-path="url(#clip0_883_1725)">
<g id="Group">
<path id="Vector" d="M2.46094 31.2135C2.46094 30.5666 1.93629 30.0458 1.28906 30.0458C0.641836 30.0458 0.117188 30.5749 0.117188 31.2218C0.117188 31.8691 0.641836 32.3937 1.28906 32.3937C1.93629 32.3937 2.46094 31.8691 2.46094 31.2218V31.2135ZM1.46578 27.8683C1.53023 27.8788 1.59398 27.8837 1.65715 27.8837C2.22105 27.8837 2.7177 27.4764 2.81203 26.9018C4.82813 14.6375 14.9638 5.59339 27.2351 4.8414L26.8419 5.23421C26.3842 5.69194 26.3842 6.43397 26.8419 6.89183C26.9506 7.00082 27.0797 7.08726 27.2219 7.14619C27.3641 7.20511 27.5165 7.23536 27.6704 7.23519C27.8244 7.23541 27.9769 7.20518 28.1192 7.14626C28.2615 7.08733 28.3907 7.00086 28.4994 6.89183L30.9449 4.44636C31.4026 3.98862 31.4026 3.24659 30.9449 2.78886L28.4994 0.343389C28.0417 -0.114463 27.3001 -0.114463 26.8419 0.343389C26.3842 0.800654 26.3842 1.54269 26.8419 2.00042L27.3313 2.48979C21.027 2.83269 14.9871 5.24136 10.1783 9.36226C5.03027 13.7737 1.59305 19.8679 0.499453 26.5214C0.39457 27.1606 0.827227 27.7634 1.46578 27.8683ZM42.1242 54.1049L42.1051 54.1164C41.5457 54.434 41.347 55.1441 41.6616 55.7066C41.7366 55.841 41.8374 55.9592 41.9581 56.0546C42.0788 56.15 42.2172 56.2207 42.3652 56.2626C42.5133 56.3045 42.6681 56.3169 42.821 56.2989C42.9738 56.281 43.1216 56.2331 43.2559 56.158C43.2606 56.1552 43.2691 56.1507 43.2756 56.1466C43.8346 55.829 44.0332 55.1188 43.7191 54.5568C43.4033 53.9915 42.6892 53.7896 42.1242 54.1049ZM38.2507 55.9474C26.603 60.3727 13.678 56.1246 6.87609 45.8482L7.41352 45.992C8.03836 46.16 8.68102 45.7883 8.84859 45.1635C9.01617 44.5382 8.64527 43.8959 8.02008 43.728L4.6793 42.833C4.53069 42.7931 4.37568 42.7829 4.22313 42.803C4.07059 42.8231 3.92351 42.8731 3.79031 42.9502C3.65691 43.0269 3.53999 43.1293 3.44627 43.2513C3.35255 43.3734 3.28389 43.5128 3.24422 43.6615L2.34879 47.0023C2.18121 47.6276 2.55246 48.2703 3.1773 48.4378C3.27891 48.4648 3.38109 48.4782 3.48129 48.4782C3.73924 48.4778 3.98989 48.3925 4.19445 48.2353C4.399 48.0782 4.54606 47.858 4.61285 47.6089L4.79191 46.9409C8.24707 52.2387 13.3635 56.2688 19.3501 58.3704C22.423 59.4488 25.6562 59.9998 28.9129 60C32.3685 60 35.8187 59.3783 39.083 58.1387C39.6877 57.9085 39.9921 57.2319 39.7623 56.6268C39.5325 56.0221 38.8554 55.7181 38.2507 55.9474ZM42.1047 8.32726L42.1385 8.34694C42.3146 8.44773 42.5139 8.50073 42.7167 8.50069C43.1241 8.50069 43.5196 8.28788 43.7361 7.9089C44.0561 7.34663 43.8601 6.6312 43.2981 6.31034L43.2875 6.3039C42.7286 5.97694 42.0108 6.16562 41.6844 6.72413C41.3576 7.28312 41.5457 8.00077 42.1047 8.32726Z" fill="#58A4FD"/>
<path id="Vector_2" d="M38.3743 32.9371C37.5997 32.1624 36.5698 31.7359 35.4748 31.7359C34.3794 31.7359 33.3494 32.1624 32.5749 32.9371L31.7326 33.7796C31.6419 33.8708 31.534 33.9431 31.4152 33.9923C31.2964 34.0415 31.1691 34.0666 31.0405 34.0663C30.9119 34.0667 30.7845 34.0415 30.6657 33.9923C30.5469 33.9432 30.439 33.8709 30.3484 33.7798L26.3561 29.7875C25.9745 29.4058 25.9745 28.7851 26.3561 28.4033L27.1985 27.5606C27.9731 26.786 28.3996 25.7565 28.3996 24.661C28.3996 23.5656 27.9731 22.5362 27.1989 21.7616L21.8376 16.4003C21.063 15.6257 20.033 15.1991 18.9382 15.1991C17.8427 15.1991 16.8127 15.6257 16.0382 16.4003C13.787 18.6516 12.5469 21.6449 12.5469 24.8291C12.5469 28.0133 13.787 31.0066 16.0382 33.2579L26.8776 44.0978C29.2017 46.4214 32.2544 47.5836 35.3069 47.5836C38.3594 47.5836 41.412 46.4214 43.7356 44.0978C44.5102 43.3232 44.9368 42.2932 44.9368 41.1983C44.9368 40.1028 44.5102 39.0729 43.7356 38.2984L38.3743 32.9371ZM42.0781 42.4401C38.3445 46.1737 32.2691 46.1742 28.5348 42.4401L17.6953 31.6008C15.8867 29.7917 14.8906 27.3871 14.8906 24.8291C14.8906 22.2711 15.8867 19.8664 17.6953 18.0574C18.0271 17.7255 18.4685 17.543 18.9377 17.543C19.4069 17.543 19.8482 17.7255 20.18 18.0574L25.5413 23.4187C25.8732 23.7506 26.0558 24.1919 26.0558 24.661C26.0558 25.1301 25.8732 25.5716 25.5413 25.9035L24.6986 26.7462C23.4031 28.0417 23.4031 30.1496 24.6986 31.4451L28.6903 35.4373C29.3179 36.0649 30.1524 36.4105 31.04 36.4105C31.9276 36.4105 32.7621 36.0648 33.3897 35.4373L34.2324 34.5946C34.3952 34.4309 34.5888 34.3011 34.8021 34.2128C35.0153 34.1245 35.244 34.0794 35.4748 34.0801C35.7056 34.0794 35.9342 34.1245 36.1474 34.2128C36.3606 34.3011 36.5541 34.4309 36.7168 34.5946L42.0785 39.9559C42.41 40.2878 42.593 40.7291 42.593 41.1983C42.593 41.6675 42.41 42.1083 42.0781 42.4401ZM32.7416 14.1033C32.0947 14.1033 31.5697 14.6278 31.5697 15.2751C31.5697 15.922 32.0947 16.447 32.7416 16.447C38.7561 16.447 43.6496 21.3401 43.6496 27.3546C43.6496 28.0018 44.1741 28.5265 44.8215 28.5265C45.4688 28.5265 45.9934 28.0018 45.9934 27.3546C45.9934 20.0477 40.0488 14.1033 32.7416 14.1033ZM32.7416 23.3496C34.9502 23.3496 36.747 25.1463 36.747 27.3546C36.747 28.0018 37.272 28.5265 37.9189 28.5265C38.5661 28.5265 39.0908 28.0018 39.0908 27.3546C39.0908 23.8536 36.2425 21.0054 32.7416 21.0054C32.0947 21.0054 31.5697 21.5304 31.5697 22.1773C31.5697 22.8246 32.0947 23.3496 32.7416 23.3496ZM55.2264 44.0556L54.5594 44.2346C60.5424 32.4513 57.7427 18.007 47.606 9.35307C47.1139 8.93284 46.3738 8.99143 45.9535 9.4835C45.5333 9.97557 45.5919 10.7153 46.0839 11.1355C55.3372 19.0351 57.9331 32.189 52.5696 42.9758L52.4258 42.4389C52.2582 41.8135 51.6155 41.4423 50.9907 41.6103C50.3654 41.7778 49.9941 42.4201 50.1617 43.0453L51.057 46.3861C51.1972 46.9098 51.671 47.2549 52.1882 47.2549C52.2884 47.2549 52.391 47.242 52.4922 47.2146L55.833 46.3198C56.4583 46.1522 56.8295 45.5095 56.662 44.8847C56.4944 44.2594 55.8513 43.8881 55.2264 44.0556Z" fill="#58A4FD"/>
</g>
</g>
<defs>
<clipPath id="clip0_883_1725">
<rect width="60" height="60" fill="white"/>
</clipPath>
</defs>
</svg>
