<svg width="60" height="60" viewBox="0 0 60 60" fill="none" xmlns="http://www.w3.org/2000/svg">
<g clip-path="url(#clip0_885_1774)">
<path d="M27.0968 43.5484V39.6774C27.0968 38.0768 25.7942 36.7742 24.1935 36.7742V34.8387C25.7942 34.8387 27.0968 33.5361 27.0968 31.9355V28.0645C27.0968 26.4639 25.7942 25.1613 24.1935 25.1613V23.2258C25.7942 23.2258 27.0968 21.9232 27.0968 20.3226V16.4516C27.0968 14.851 25.7942 13.5484 24.1935 13.5484H2.90323C1.30258 13.5484 0 14.851 0 16.4516V20.3226C0 21.9232 1.30258 23.2258 2.90323 23.2258V25.1613C1.30258 25.1613 0 26.4639 0 28.0645V31.9355C0 33.5361 1.30258 34.8387 2.90323 34.8387V36.7742C1.30258 36.7742 0 38.0768 0 39.6774V43.5484C0 45.149 1.30258 46.4516 2.90323 46.4516H24.1935C25.7942 46.4516 27.0968 45.149 27.0968 43.5484ZM1.93548 20.3226V16.4516C1.93548 16.195 2.03744 15.9488 2.21893 15.7673C2.40042 15.5858 2.64656 15.4839 2.90323 15.4839H24.1935C24.4502 15.4839 24.6964 15.5858 24.8778 15.7673C25.0593 15.9488 25.1613 16.195 25.1613 16.4516V20.3226C25.1613 20.5792 25.0593 20.8254 24.8778 21.0069C24.6964 21.1884 24.4502 21.2903 24.1935 21.2903H2.90323C2.64656 21.2903 2.40042 21.1884 2.21893 21.0069C2.03744 20.8254 1.93548 20.5792 1.93548 20.3226ZM4.83871 23.2258H22.2581V25.1613H4.83871V23.2258ZM1.93548 31.9355V28.0645C1.93548 27.8079 2.03744 27.5617 2.21893 27.3802C2.40042 27.1987 2.64656 27.0968 2.90323 27.0968H24.1935C24.4502 27.0968 24.6964 27.1987 24.8778 27.3802C25.0593 27.5617 25.1613 27.8079 25.1613 28.0645V31.9355C25.1613 32.1921 25.0593 32.4383 24.8778 32.6198C24.6964 32.8013 24.4502 32.9032 24.1935 32.9032H2.90323C2.64656 32.9032 2.40042 32.8013 2.21893 32.6198C2.03744 32.4383 1.93548 32.1921 1.93548 31.9355ZM4.83871 34.8387H22.2581V36.7742H4.83871V34.8387ZM1.93548 43.5484V39.6774C1.93548 39.4208 2.03744 39.1746 2.21893 38.9931C2.40042 38.8116 2.64656 38.7097 2.90323 38.7097H24.1935C24.4502 38.7097 24.6964 38.8116 24.8778 38.9931C25.0593 39.1746 25.1613 39.4208 25.1613 39.6774V43.5484C25.1613 43.805 25.0593 44.0512 24.8778 44.2327C24.6964 44.4142 24.4502 44.5161 24.1935 44.5161H2.90323C2.64656 44.5161 2.40042 44.4142 2.21893 44.2327C2.03744 44.0512 1.93548 43.805 1.93548 43.5484ZM60 20.3226V16.4516C60 14.851 58.6974 13.5484 57.0968 13.5484H35.8064C34.2058 13.5484 32.9032 14.851 32.9032 16.4516V20.3226C32.9032 21.9232 34.2058 23.2258 35.8064 23.2258V25.1613C34.2058 25.1613 32.9032 26.4639 32.9032 28.0645V31.9355C32.9032 33.5361 34.2058 34.8387 35.8064 34.8387V36.7742C34.2058 36.7742 32.9032 38.0768 32.9032 39.6774V43.5484C32.9032 45.149 34.2058 46.4516 35.8064 46.4516H57.0968C58.6974 46.4516 60 45.149 60 43.5484V39.6774C60 38.0768 58.6974 36.7742 57.0968 36.7742V34.8387C58.6974 34.8387 60 33.5361 60 31.9355V28.0645C60 26.4639 58.6974 25.1613 57.0968 25.1613V23.2258C58.6974 23.2258 60 21.9232 60 20.3226ZM34.8387 20.3226V16.4516C34.8387 16.195 34.9407 15.9488 35.1222 15.7673C35.3036 15.5858 35.5498 15.4839 35.8064 15.4839H57.0968C57.3534 15.4839 57.5996 15.5858 57.7811 15.7673C57.9626 15.9488 58.0645 16.195 58.0645 16.4516V20.3226C58.0645 20.5792 57.9626 20.8254 57.7811 21.0069C57.5996 21.1884 57.3534 21.2903 57.0968 21.2903H35.8064C35.5498 21.2903 35.3036 21.1884 35.1222 21.0069C34.9407 20.8254 34.8387 20.5792 34.8387 20.3226ZM58.0645 39.6774V43.5484C58.0645 43.805 57.9626 44.0512 57.7811 44.2327C57.5996 44.4142 57.3534 44.5161 57.0968 44.5161H35.8064C35.5498 44.5161 35.3036 44.4142 35.1222 44.2327C34.9407 44.0512 34.8387 43.805 34.8387 43.5484V39.6774C34.8387 39.4208 34.9407 39.1746 35.1222 38.9931C35.3036 38.8116 35.5498 38.7097 35.8064 38.7097H57.0968C57.3534 38.7097 57.5996 38.8116 57.7811 38.9931C57.9626 39.1746 58.0645 39.4208 58.0645 39.6774ZM55.1613 36.7742H37.7419V34.8387H55.1613V36.7742ZM58.0645 28.0645V31.9355C58.0645 32.1921 57.9626 32.4383 57.7811 32.6198C57.5996 32.8013 57.3534 32.9032 57.0968 32.9032H35.8064C35.5498 32.9032 35.3036 32.8013 35.1222 32.6198C34.9407 32.4383 34.8387 32.1921 34.8387 31.9355V28.0645C34.8387 27.8079 34.9407 27.5617 35.1222 27.3802C35.3036 27.1987 35.5498 27.0968 35.8064 27.0968H57.0968C57.3534 27.0968 57.5996 27.1987 57.7811 27.3802C57.9626 27.5617 58.0645 27.8079 58.0645 28.0645ZM55.1613 25.1613H37.7419V23.2258H55.1613V25.1613ZM43.5484 3.87097V2.71452L48.4964 5.80645L43.5484 8.89839V7.74194C43.5484 7.48528 43.4464 7.23913 43.2649 7.05764C43.0835 6.87615 42.8373 6.7742 42.5806 6.7742H11.6129V8.70968H41.6129V10.6452C41.6129 10.8179 41.6591 10.9875 41.7468 11.1363C41.8345 11.2852 41.9604 11.4079 42.1115 11.4916C42.2626 11.5753 42.4334 11.6171 42.606 11.6126C42.7787 11.608 42.9471 11.5574 43.0935 11.4658L50.8355 6.6271C50.9747 6.54011 51.0894 6.41914 51.169 6.27559C51.2486 6.13203 51.2903 5.97059 51.2903 5.80645C51.2903 5.64232 51.2486 5.48088 51.169 5.33732C51.0894 5.19376 50.9747 5.0728 50.8355 4.98581L43.0935 0.147099C42.9471 0.0555433 42.7787 0.00486771 42.606 0.000333494C42.4334 -0.00420072 42.2626 0.0375717 42.1115 0.121314C41.9604 0.205056 41.8345 0.327716 41.7468 0.476557C41.6591 0.625399 41.6129 0.794997 41.6129 0.967744V2.90323H9.67742V4.83871H42.5806C42.8373 4.83871 43.0835 4.73675 43.2649 4.55527C43.4464 4.37378 43.5484 4.12763 43.5484 3.87097ZM16.4516 56.129V57.2855L11.5035 54.1935L16.4516 51.1016V52.2581C16.4516 52.5147 16.5536 52.7609 16.7351 52.9424C16.9165 53.1238 17.1627 53.2258 17.4194 53.2258H48.3871V51.2903H18.3871V49.3548C18.3872 49.1819 18.341 49.0122 18.2533 48.8632C18.1655 48.7142 18.0395 48.5914 17.8883 48.5077C17.737 48.4239 17.5661 48.3822 17.3932 48.3868C17.2204 48.3915 17.052 48.4424 16.9055 48.5342L9.16355 53.3729C9.02486 53.4603 8.91059 53.5815 8.83143 53.725C8.75227 53.8686 8.7108 54.0299 8.7109 54.1938C8.71099 54.3578 8.75265 54.519 8.83198 54.6625C8.91131 54.8059 9.02572 54.9269 9.16452 55.0142L16.9065 59.8529C17.0529 59.9445 17.2213 59.9951 17.394 59.9997C17.5666 60.0042 17.7374 59.9624 17.8885 59.8787C18.0396 59.7949 18.1655 59.6723 18.2532 59.5234C18.3409 59.3746 18.3871 59.205 18.3871 59.0323V57.0968H50.3226V55.1613H17.4194C17.1627 55.1613 16.9165 55.2632 16.7351 55.4447C16.5536 55.6262 16.4516 55.8724 16.4516 56.129ZM50.3226 51.2903H52.2581V53.2258H50.3226V51.2903ZM54.1935 51.2903H56.129V53.2258H54.1935V51.2903ZM7.74194 6.7742H9.67742V8.70968H7.74194V6.7742ZM3.87097 6.7742H5.80645V8.70968H3.87097V6.7742Z" fill="#58A4FD"/>
</g>
<defs>
<clipPath id="clip0_885_1774">
<rect width="60" height="60" fill="white"/>
</clipPath>
</defs>
</svg>
