<svg width="24" height="24" viewBox="0 0 24 24" fill="none" xmlns="http://www.w3.org/2000/svg">
<g clip-path="url(#clip0_1767_4490)">
<path d="M12.921 17.7692C12.921 18.0752 12.7994 18.3687 12.583 18.5851C12.3666 18.8015 12.0731 18.923 11.7671 18.923C11.4611 18.923 11.1676 18.8015 10.9512 18.5851C10.7348 18.3687 10.6133 18.0752 10.6133 17.7692C10.6133 17.4632 10.7348 17.1697 10.9512 16.9533C11.1676 16.7369 11.4611 16.6154 11.7671 16.6154C12.0731 16.6154 12.3666 16.7369 12.583 16.9533C12.7994 17.1697 12.921 17.4632 12.921 17.7692Z" fill="#3E63F5"/>
<path fill-rule="evenodd" clip-rule="evenodd" d="M11.7329 6.52152C10.988 6.52152 10.3262 6.74306 9.83786 7.08829C9.36709 7.4206 9.07632 7.85076 8.98678 8.29568C8.97034 8.38627 8.936 8.47268 8.88576 8.54984C8.83553 8.627 8.7704 8.69337 8.6942 8.74505C8.618 8.79674 8.53226 8.8327 8.44199 8.85084C8.35172 8.86898 8.25874 8.86894 8.16848 8.8507C8.07823 8.83247 7.99253 8.79641 7.91638 8.74465C7.84023 8.69289 7.77518 8.62645 7.72502 8.54924C7.67486 8.47203 7.64061 8.38558 7.62427 8.29497C7.60793 8.20436 7.60983 8.11139 7.62986 8.02152C7.80155 7.17045 8.33324 6.45599 9.03847 5.95752C9.77324 5.43876 10.7185 5.13599 11.7329 5.13599C13.8791 5.13599 15.8942 6.55291 15.8942 8.60399C15.8942 9.7966 15.1852 10.7972 14.2012 11.4C14.0446 11.496 13.8562 11.5257 13.6775 11.4828C13.4989 11.4399 13.3446 11.3277 13.2486 11.1711C13.1527 11.0144 13.1229 10.826 13.1658 10.6473C13.2087 10.4687 13.3209 10.3144 13.4775 10.2184C14.1505 9.80676 14.5095 9.20952 14.5095 8.60399C14.5095 7.58952 13.4185 6.52152 11.7329 6.52152ZM11.7329 11.3815C11.9165 11.3815 12.0926 11.4545 12.2225 11.5843C12.3523 11.7141 12.4252 11.8902 12.4252 12.0738V13.4603C12.4252 13.5512 12.4073 13.6412 12.3725 13.7252C12.3377 13.8092 12.2868 13.8855 12.2225 13.9498C12.1582 14.0141 12.0819 14.0651 11.9979 14.0999C11.9139 14.1347 11.8238 14.1526 11.7329 14.1526C11.642 14.1526 11.552 14.1347 11.468 14.0999C11.384 14.0651 11.3077 14.0141 11.2434 13.9498C11.1791 13.8855 11.1281 13.8092 11.0933 13.7252C11.0585 13.6412 11.0406 13.5512 11.0406 13.4603V12.0738C11.0406 11.8902 11.1136 11.7141 11.2434 11.5843C11.3732 11.4545 11.5493 11.3815 11.7329 11.3815Z" fill="#3E63F5"/>
<path fill-rule="evenodd" clip-rule="evenodd" d="M14.4331 10.4548C14.4799 10.5328 14.5108 10.6192 14.5241 10.7092C14.5375 10.7991 14.5329 10.8908 14.5108 10.979C14.4887 11.0672 14.4494 11.1502 14.3952 11.2232C14.341 11.2963 14.273 11.3579 14.195 11.4046L12.0857 12.6674C12.0077 12.716 11.9207 12.7486 11.8299 12.7632C11.7391 12.7779 11.6463 12.7743 11.557 12.7527C11.4676 12.7311 11.3834 12.6919 11.3093 12.6374C11.2352 12.5829 11.1728 12.5141 11.1256 12.4352C11.0783 12.3563 11.0473 12.2688 11.0343 12.1777C11.0213 12.0867 11.0266 11.994 11.0498 11.905C11.073 11.816 11.1137 11.7325 11.1695 11.6595C11.2254 11.5864 11.2952 11.5252 11.375 11.4794L13.4842 10.2166C13.6417 10.1225 13.83 10.0947 14.0079 10.1394C14.1859 10.184 14.3388 10.2974 14.4331 10.4548Z" fill="#3E63F5"/>
<path fill-rule="evenodd" clip-rule="evenodd" d="M11.9994 22.6154C17.8619 22.6154 22.6148 17.8625 22.6148 12C22.6148 6.13755 17.8619 1.38462 11.9994 1.38462C6.13694 1.38462 1.38401 6.13755 1.38401 12C1.38401 17.8625 6.13694 22.6154 11.9994 22.6154ZM11.9994 23.5385C18.3723 23.5385 23.5379 18.3729 23.5379 12C23.5379 5.62709 18.3723 0.461548 11.9994 0.461548C5.62648 0.461548 0.460938 5.62709 0.460938 12C0.460938 18.3729 5.62648 23.5385 11.9994 23.5385Z" fill="#3E63F5"/>
</g>
<defs>
<clipPath id="clip0_1767_4490">
<rect width="24" height="24" fill="white"/>
</clipPath>
</defs>
</svg>
