<svg width="20" height="20" viewBox="0 0 20 20" fill="none" xmlns="http://www.w3.org/2000/svg">
<path d="M13.2248 12.3775C13.2241 12.5123 13.1703 12.6415 13.0751 12.7369C12.9799 12.8324 12.8509 12.8865 12.716 12.8875H7.28227C7.14701 12.8875 7.01729 12.8337 6.92164 12.7381C6.826 12.6424 6.77227 12.5127 6.77227 12.3775C6.77227 12.2422 6.826 12.1125 6.92164 12.0168C7.01729 11.9212 7.14701 11.8675 7.28227 11.8675H12.716C12.8511 11.8681 12.9804 11.9221 13.0759 12.0176C13.1714 12.1131 13.2254 12.2424 13.226 12.3775M12.7173 9.15122H7.28227C7.15154 9.1577 7.0283 9.21419 6.93807 9.30901C6.84783 9.40382 6.79751 9.5297 6.79751 9.66059C6.79751 9.79148 6.84783 9.91736 6.93807 10.0122C7.0283 10.107 7.15154 10.1635 7.28227 10.17H12.716C12.8467 10.1635 12.97 10.107 13.0602 10.0122C13.1505 9.91736 13.2008 9.79148 13.2008 9.66059C13.2008 9.5297 13.1505 9.40382 13.0602 9.30901C12.97 9.21419 12.848 9.1577 12.7173 9.15122ZM17.301 3.54747V17.8112C17.3012 17.9673 17.2706 18.1218 17.211 18.266C17.1514 18.4103 17.0639 18.5413 16.9536 18.6517C16.8434 18.7621 16.7124 18.8497 16.5682 18.9095C16.4241 18.9692 16.2696 19 16.1135 19H3.88477C3.56982 19 3.26778 18.8749 3.04508 18.6522C2.82238 18.4295 2.69727 18.1274 2.69727 17.8125V3.54622C2.6971 3.39017 2.7277 3.23562 2.7873 3.0914C2.8469 2.94718 2.93435 2.81612 3.04463 2.70572C3.15492 2.59532 3.28589 2.50774 3.43004 2.44798C3.5742 2.38823 3.72872 2.35747 3.88477 2.35747H7.04102C7.40691 1.93117 7.86064 1.58901 8.37111 1.35444C8.88158 1.11986 9.43673 0.998413 9.99852 0.998413C10.5603 0.998413 11.1155 1.11986 11.6259 1.35444C12.1364 1.58901 12.5901 1.93117 12.956 2.35747H16.111C16.2671 2.3573 16.4216 2.3879 16.5658 2.4475C16.7101 2.50711 16.8411 2.59455 16.9515 2.70484C17.0619 2.81512 17.1495 2.94609 17.2093 3.09024C17.269 3.2344 17.2998 3.38892 17.2998 3.54497M7.11227 4.90372V5.07247H12.8848V4.90372C12.8928 4.51955 12.824 4.13766 12.6825 3.78041C12.541 3.42316 12.3297 3.09774 12.0608 2.82322C11.7919 2.54871 11.471 2.33062 11.1168 2.18173C10.7625 2.03284 10.3821 1.95614 9.99789 1.95614C9.61364 1.95614 9.23326 2.03284 8.87903 2.18173C8.5248 2.33062 8.20385 2.54871 7.93499 2.82322C7.66613 3.09774 7.45476 3.42316 7.31327 3.78041C7.17178 4.13766 7.10427 4.51955 7.11227 4.90372ZM16.2798 3.54497C16.2798 3.52264 16.2754 3.50054 16.2668 3.47991C16.2583 3.45929 16.2458 3.44055 16.23 3.42476C16.2142 3.40897 16.1954 3.39645 16.1748 3.38791C16.1542 3.37937 16.1321 3.37497 16.1098 3.37497H13.591C13.7973 3.85747 13.9035 4.37747 13.9035 4.90372V5.58247C13.9029 5.71753 13.8489 5.84687 13.7534 5.94237C13.6579 6.03787 13.5286 6.09181 13.3935 6.09247H6.60352C6.46846 6.09181 6.33912 6.03787 6.24362 5.94237C6.14812 5.84687 6.09417 5.71753 6.09352 5.58247V4.90372C6.09352 4.37872 6.19977 3.85747 6.40602 3.37497H3.88477C3.86244 3.37497 3.84034 3.37937 3.81971 3.38791C3.79908 3.39645 3.78034 3.40897 3.76456 3.42476C3.74877 3.44055 3.73625 3.45929 3.72771 3.47991C3.71916 3.50054 3.71477 3.52264 3.71477 3.54497V17.8087C3.71477 17.8538 3.73268 17.897 3.76456 17.9289C3.79644 17.9608 3.83968 17.9787 3.88477 17.9787H16.111C16.1561 17.9787 16.1993 17.9608 16.2312 17.9289C16.2631 17.897 16.281 17.8538 16.281 17.8087L16.2798 3.54497Z" fill="#1C1724"/>
</svg>
