<svg width="20" height="21" viewBox="0 0 20 21" fill="none" xmlns="http://www.w3.org/2000/svg">
<path d="M10.7541 3.31841C10.5541 3.11453 10.2828 3 10 3C9.71718 3 9.44594 3.11453 9.24593 3.31841L2.15639 10.5461C2.10681 10.5967 2.06748 10.6567 2.04065 10.7227C2.01381 10.7888 2 10.8596 2 10.9311C2 11.0026 2.01381 11.0734 2.04065 11.1394C2.06748 11.2055 2.10681 11.2655 2.15639 11.3161C2.25653 11.4182 2.39235 11.4755 2.53396 11.4755C2.60408 11.4755 2.67352 11.4615 2.7383 11.4341C2.80308 11.4067 2.86195 11.3666 2.91153 11.3161L3.60054 10.6124V16.3687C3.60054 16.8014 3.7691 17.2163 4.06913 17.5222C4.36916 17.8281 4.77609 18 5.2004 18H14.7996C15.2239 18 15.6308 17.8281 15.9309 17.5222C16.2309 17.2163 16.3995 16.8014 16.3995 16.3687V10.6124L17.0885 11.3161C17.1886 11.4182 17.3244 11.4755 17.466 11.4755C17.6077 11.4755 17.7435 11.4182 17.8436 11.3161C17.9437 11.214 18 11.0755 18 10.9311C18 10.7867 17.9437 10.6482 17.8436 10.5461L15.3329 7.98716V4.40594C15.3329 4.26172 15.2767 4.12341 15.1767 4.02144C15.0767 3.91946 14.941 3.86218 14.7996 3.86218H13.733C13.5916 3.86218 13.4559 3.91946 13.3559 4.02144C13.2559 4.12341 13.1997 4.26172 13.1997 4.40594V5.81211L10.7541 3.31841ZM15.3329 9.52492V16.3687C15.3329 16.5129 15.2767 16.6512 15.1767 16.7532C15.0767 16.8552 14.941 16.9125 14.7996 16.9125H5.2004C5.05897 16.9125 4.92332 16.8552 4.82331 16.7532C4.7233 16.6512 4.66712 16.5129 4.66712 16.3687V9.52492L10 4.08729L15.3329 9.52492Z" fill="#333333"/>
</svg>
