<svg width="48" height="48" viewBox="0 0 48 48" fill="none" xmlns="http://www.w3.org/2000/svg">
<path d="M36 4C40.33 4 44 7.63 44 12.034C44 16.506 40.27 19.646 36.824 21.78C36.5731 21.9235 36.289 21.999 36 21.999C35.711 21.999 35.4269 21.9235 35.176 21.78C31.736 19.628 28 16.524 28 12.034C28 7.63 31.67 4 36 4Z" stroke="#3E63F5" stroke-width="1.5"/>
<path d="M36 12H36.018" stroke="#3E63F5" stroke-width="4" stroke-linecap="round" stroke-linejoin="round"/>
<path d="M10 44C13.3137 44 16 41.3137 16 38C16 34.6863 13.3137 32 10 32C6.68629 32 4 34.6863 4 38C4 41.3137 6.68629 44 10 44Z" stroke="#3E63F5" stroke-width="1.5" stroke-linecap="round" stroke-linejoin="round"/>
<path d="M22 14H19C15.134 14 12 16.686 12 20C12 23.314 15.134 26 19 26H25C28.866 26 32 28.686 32 32C32 35.314 28.866 38 25 38H22" stroke="#3E63F5" stroke-width="1.5" stroke-linecap="round" stroke-linejoin="round"/>
</svg>
