<svg width="288" height="85" viewBox="0 0 288 85" fill="none" xmlns="http://www.w3.org/2000/svg">
<path fill-rule="evenodd" clip-rule="evenodd" d="M38.2197 9.70429C31.9341 10.4554 26.4902 14.4241 23.8327 20.1908C21.9715 24.2311 21.6827 29.6833 23.1227 33.5833C23.6181 34.9243 23.6167 35.1007 23.1055 35.4029C17.2439 38.8757 14.3776 47.1603 16.7003 53.9165C19.1743 61.1131 25.7291 65.243 33.5642 64.5411L34.6679 64.4421L35.3109 65.7455C41.4359 78.1795 58.5705 78.6768 65.2975 66.6158C66.1744 65.0435 66.0772 65.1194 66.7994 65.4353C72.8762 68.0927 80.5262 65.9609 84.3602 60.542C85.2947 59.2205 85.5201 58.9979 85.8369 59.086C87.67 59.5986 92.5495 59.3716 94.7397 58.6733C100.712 56.7691 104.792 53.3382 107.46 47.9786C112.574 37.7032 107.883 24.6959 97.4368 20.1843C97.0091 19.9999 96.4979 19.7787 96.2999 19.6927C92.8137 18.1811 86.8852 18.1312 82.7999 19.5792C81.1591 20.1604 81.262 20.19 80.3843 18.8982C74.6913 10.5161 62.9236 9.17295 55.5047 16.0586L54.9093 16.6109L53.5845 15.2512C49.3876 10.9419 44.0351 9.00957 38.2197 9.70429ZM177.448 22.4968C177.66 22.5236 178.038 22.5243 178.287 22.4983C178.536 22.4723 178.362 22.4499 177.9 22.4499C177.438 22.4491 177.234 22.4701 177.448 22.4968ZM182.73 22.4976C182.945 22.5243 183.295 22.5243 183.51 22.4976C183.725 22.4708 183.549 22.4484 183.12 22.4484C182.691 22.4484 182.516 22.4708 182.73 22.4976ZM200.97 22.4976C201.184 22.5243 201.535 22.5243 201.75 22.4976C201.964 22.4708 201.789 22.4484 201.36 22.4484C200.931 22.4484 200.755 22.4708 200.97 22.4976ZM213.808 22.4968C214.02 22.5236 214.398 22.5243 214.647 22.4983C214.896 22.4723 214.722 22.4499 214.26 22.4499C213.798 22.4491 213.594 22.4701 213.808 22.4968ZM179.397 23.7352L179.34 24.7595L178.14 24.8268L176.94 24.8933L178.096 24.9171C179.522 24.9461 179.543 24.9258 179.492 23.6564L179.453 22.7115L179.397 23.7352ZM181.496 29.3984C181.496 33.0759 181.511 34.5802 181.53 32.7419C181.549 30.9028 181.549 27.8933 181.53 26.055C181.511 24.2159 181.496 25.7203 181.496 29.3984ZM202.968 24.5188C202.968 25.5128 202.987 25.9032 203.009 25.3863C203.032 24.8701 203.031 24.0569 203.009 23.579C202.986 23.1019 202.968 23.5248 202.968 24.5188ZM212.696 29.4584C212.696 33.1691 212.711 34.7046 212.73 32.8706C212.748 31.0365 212.748 28.0003 212.73 26.1237C212.711 24.247 212.696 25.7478 212.696 29.4584ZM239.37 25.6299C239.584 25.6567 239.936 25.6567 240.15 25.6299C240.365 25.6032 240.189 25.5815 239.76 25.5815C239.331 25.5815 239.155 25.6032 239.37 25.6299ZM194.555 26.2357C194.512 26.3514 194.419 26.4858 194.349 26.535C194.27 26.5892 194.296 26.6239 194.416 26.6254C194.53 26.6261 194.636 26.5017 194.669 26.3261C194.735 25.9784 194.669 25.9256 194.555 26.2357ZM174.175 31.145C174.175 33.9282 174.191 35.0501 174.21 33.6368C174.229 32.2243 174.229 29.9471 174.21 28.5765C174.19 27.2066 174.175 28.3618 174.175 31.145ZM179.455 31.145C179.455 33.9282 179.471 35.0501 179.49 33.6368C179.509 32.2243 179.509 29.9471 179.489 28.5765C179.471 27.2066 179.455 28.3618 179.455 31.145ZM197.695 30.9643C197.695 33.6484 197.71 34.7465 197.73 33.4041C197.749 32.0623 197.749 29.8669 197.73 28.5244C197.71 27.1827 197.695 28.2808 197.695 30.9643ZM247.015 31.025C247.015 33.7417 247.031 34.8701 247.05 33.5327C247.069 32.1954 247.069 29.9724 247.05 28.5931C247.031 27.2138 247.015 28.3076 247.015 31.025ZM243.78 27.2297C244.037 27.4943 244.276 27.7112 244.309 27.7112C244.341 27.7112 244.158 27.4943 243.9 27.2297C243.642 26.9644 243.405 26.7475 243.371 26.7475C243.338 26.7475 243.522 26.9644 243.78 27.2297ZM193.32 28.9538C193.32 28.9748 193.496 29.1512 193.71 29.3457L194.1 29.6992L193.748 29.3081C193.419 28.943 193.32 28.8606 193.32 28.9538ZM241.08 28.9538C241.08 28.9748 241.255 29.1512 241.47 29.3457L241.86 29.6992L241.507 29.3081C241.179 28.943 241.08 28.8606 241.08 28.9538ZM250.132 33.013C250.132 34.7024 250.149 35.3935 250.17 34.5491C250.191 33.7041 250.191 32.3211 250.17 31.4768C250.149 30.6317 250.132 31.3228 250.132 33.013ZM186.268 30.4828C186.268 30.7141 186.293 30.8095 186.323 30.6932C186.353 30.5775 186.353 30.3874 186.323 30.2717C186.293 30.156 186.268 30.2507 186.268 30.4828ZM234.161 31.145C234.161 31.6756 234.183 31.8773 234.208 31.5939C234.233 31.3105 234.233 30.8768 234.207 30.6303C234.181 30.383 234.16 30.6151 234.161 31.145ZM162.76 31.2057C162.76 31.7023 162.781 31.9055 162.807 31.6575C162.833 31.4088 162.833 31.0018 162.807 30.7539C162.781 30.5052 162.76 30.7083 162.76 31.2057ZM217.36 31.2057C217.36 31.7023 217.382 31.9055 217.408 31.6575C217.433 31.4088 217.433 31.0018 217.408 30.7539C217.382 30.5052 217.36 30.7083 217.36 31.2057ZM207.874 31.145C207.875 31.4768 207.898 31.5975 207.926 31.4146C207.954 31.2317 207.953 30.9606 207.924 30.8124C207.896 30.6642 207.873 30.8139 207.874 31.145ZM202.83 31.145C202.832 31.4103 202.856 31.5043 202.885 31.3546C202.913 31.205 202.913 30.9881 202.882 30.8724C202.852 30.7575 202.829 30.8804 202.83 31.145ZM245.43 31.145C245.431 31.4103 245.456 31.5043 245.485 31.3546C245.513 31.205 245.513 30.9881 245.482 30.8724C245.452 30.7575 245.429 30.8804 245.43 31.145ZM171.028 31.2057C171.028 31.437 171.053 31.5325 171.083 31.4161C171.113 31.3004 171.113 31.1103 171.083 30.9946C171.053 30.8789 171.028 30.9736 171.028 31.2057ZM186.268 31.9286C186.268 32.1599 186.293 32.2554 186.323 32.139C186.353 32.0233 186.353 31.8332 186.323 31.7175C186.293 31.6019 186.268 31.6966 186.268 31.9286ZM71.6162 32.6754C72.1555 33.2168 71.4657 34.2708 70.6571 34.1414C69.8313 34.0091 68.8255 34.9149 68.9039 35.7195C68.9392 36.0781 68.9543 36.086 69.7197 36.1453L70.5002 36.2053L70.5362 36.7714C70.5895 37.5976 70.318 37.8319 69.3093 37.8319C68.5648 37.8319 68.5367 37.8434 68.4741 38.1637C68.41 38.4904 68.1854 39.6876 67.8571 41.4464C67.7649 41.9438 67.5719 43.0281 67.4301 43.8566C67.0283 46.1916 66.7051 47.0562 65.9318 47.8557C64.8863 48.9372 62.1079 48.9429 62.3491 47.8629C62.5125 47.1328 62.7825 46.9246 63.509 46.9687C64.6473 47.0381 65.0649 46.4518 65.4674 44.218C65.5689 43.6542 65.7273 42.7874 65.8195 42.29C66.6935 37.5832 66.6806 37.8319 66.0484 37.8319C65.3659 37.8319 65.1189 37.3678 65.4278 36.6629C65.6215 36.2205 65.7352 36.1497 66.2551 36.1475C66.7814 36.1446 66.898 36.0181 67.091 35.2402C67.3797 34.0735 67.9751 33.2443 68.8629 32.773C69.3827 32.4975 71.3685 32.4267 71.6162 32.6754ZM47.3954 32.8843C47.53 33.1359 47.5783 44.1652 47.4472 44.5094C47.3299 44.8151 45.8906 44.7797 45.7243 44.4667C45.6436 44.3156 45.5997 42.2763 45.5997 38.6755C45.5997 32.3204 45.5471 32.6515 46.5602 32.6515C47.1405 32.6515 47.2946 32.6942 47.3954 32.8843ZM143.04 32.6891C143.04 32.7101 143.215 32.8857 143.43 33.0802L143.82 33.4344L143.467 33.0426C143.139 32.6775 143.04 32.5959 143.04 32.6891ZM146.932 33.0426L146.58 33.4344L146.97 33.0802C147.334 32.7506 147.415 32.6515 147.323 32.6515C147.302 32.6515 147.126 32.8272 146.932 33.0426ZM189.84 32.6891C189.84 32.7101 190.015 32.8857 190.23 33.0802L190.62 33.4344L190.267 33.0426C189.939 32.6775 189.84 32.5959 189.84 32.6891ZM144.93 33.8205C145.079 33.8494 145.321 33.8494 145.47 33.8205C145.618 33.7923 145.497 33.7684 145.2 33.7684C144.903 33.7684 144.781 33.7923 144.93 33.8205ZM168.27 33.819C168.386 33.8486 168.574 33.8486 168.69 33.819C168.805 33.7886 168.711 33.7633 168.48 33.7633C168.249 33.7633 168.154 33.7886 168.27 33.819ZM191.732 33.8212C191.881 33.8494 192.097 33.8486 192.211 33.8183C192.326 33.7879 192.204 33.7648 191.94 33.7662C191.676 33.7677 191.582 33.7923 191.732 33.8212ZM205.171 33.8212C205.321 33.8494 205.537 33.8486 205.651 33.8183C205.766 33.7879 205.644 33.7648 205.38 33.7662C205.116 33.7677 205.022 33.7923 205.171 33.8212ZM218.82 35.061C219.078 35.3263 219.316 35.5431 219.349 35.5431C219.382 35.5431 219.197 35.3263 218.94 35.061C218.682 34.7957 218.444 34.5788 218.411 34.5788C218.378 34.5788 218.562 34.7957 218.82 35.061ZM226.495 35.2113L225.9 35.8439L226.53 35.246C226.876 34.9171 227.16 34.633 227.16 34.6135C227.16 34.5238 227.049 34.6236 226.495 35.2113ZM235.32 34.7371C235.32 34.7581 235.495 34.9345 235.71 35.1289L236.1 35.4824L235.747 35.0913C235.419 34.7263 235.32 34.6438 235.32 34.7371ZM209.393 35.3921L208.98 35.8439L209.43 35.4289C209.678 35.2005 209.88 34.9973 209.88 34.9771C209.88 34.8853 209.778 34.972 209.393 35.3921ZM170.569 35.8027C170.512 35.893 170.536 35.9089 170.635 35.8475C170.731 35.7875 170.895 35.8793 171.083 36.0998L171.38 36.4468L171.122 36.055C170.848 35.64 170.708 35.5757 170.569 35.8027ZM33.8623 36.0738C35.4772 36.3846 35.9135 36.749 35.5924 37.5196C35.3591 38.0791 35.1158 38.2432 34.7831 38.0639C33.3971 37.3193 31.5597 37.4935 31.5597 38.369C31.5597 38.9025 31.9269 39.1685 33.2553 39.5979C35.2447 40.242 35.9891 40.9498 35.9956 42.2047C36.0071 44.1783 34.2086 45.3219 31.8088 44.8679C30.2932 44.5809 29.3176 44.0424 29.4587 43.5717C29.4818 43.4958 29.5322 43.2869 29.5711 43.1069C29.6855 42.5821 30.0441 42.4671 30.6215 42.7693C32.374 43.686 34.1099 43.5378 34.1099 42.4708C34.1099 42.003 33.6988 41.6929 32.6138 41.3423C30.263 40.5818 29.638 40.0035 29.6416 38.5909C29.6474 36.6586 31.415 35.6039 33.8623 36.0738ZM41.3171 36.0383C43.6507 36.4005 44.0783 37.2825 44.0157 41.6148L43.9797 44.132L43.6672 44.3662C43.1675 44.7407 40.6857 45.0255 39.4711 44.8477C37.756 44.5968 36.8402 43.6657 36.8402 42.1722C36.8402 40.2182 38.5919 39.0543 41.3402 39.1837C42.1905 39.2242 42.3727 38.8888 41.8708 38.2071C41.3927 37.5579 39.4819 37.4509 38.399 38.0133C37.8993 38.2728 37.8489 38.2512 37.5616 37.6548C37.1167 36.7316 37.571 36.3448 39.4199 36.073C39.9477 35.9957 40.3963 35.9256 40.4171 35.9183C40.4373 35.9104 40.8427 35.9646 41.3171 36.0383ZM54.6919 36.3745C55.9915 37.0468 56.9714 39.3333 56.4724 40.5312L56.2939 40.9599L53.6774 40.9924L51.0602 41.0249L51.0688 41.5187C51.0904 42.7043 52.0999 43.3267 53.7976 43.2009C56.0037 43.0382 55.81 43.0043 56.0267 43.5963C56.6611 45.3335 51.7327 45.4354 50.0248 43.7207C48.6439 42.3341 48.5704 38.9856 49.8844 37.3728C50.9745 36.0362 53.1604 35.5822 54.6919 36.3745ZM61.8681 36.0282C63.4982 36.3116 64.0245 36.78 63.6494 37.615C63.4075 38.1536 63.3311 38.1622 62.0402 37.7863C60.5433 37.3504 59.4129 37.7249 59.6188 38.5887C59.6887 38.883 60.472 39.3138 61.6269 39.6933C64.3139 40.5767 65.0383 42.9898 63.0287 44.3669C61.2453 45.5894 57.0261 44.6973 57.6388 43.2262C57.9045 42.5886 58.1183 42.4715 58.5856 42.7093C60.1106 43.4864 61.2957 43.5985 61.907 43.0245C62.6147 42.3609 62.2209 41.8057 60.7039 41.3278C58.33 40.5796 57.5553 39.7519 57.7785 38.202C58.0154 36.5559 59.7124 35.653 61.8681 36.0282ZM76.4999 36.3571C79.3749 37.8478 79.3864 43.1669 76.5179 44.5122C73.2117 46.0622 70.2374 43.4655 70.7853 39.5076C71.1748 36.6998 74.0757 35.1007 76.4999 36.3571ZM90.3549 36.0282C91.8712 36.2263 92.0757 36.402 91.7107 37.1935C91.4227 37.8196 91.4335 37.816 90.1252 37.7429C88.4159 37.649 87.8291 37.9996 87.4173 39.3623C86.6879 41.7768 88.1668 43.6563 90.4197 43.1763C91.414 42.9652 91.4147 42.9652 91.6811 43.4048C92.2118 44.2787 91.9425 44.6178 90.55 44.8253C87.2467 45.319 85.3883 43.7575 85.3833 40.4828C85.3797 37.9121 86.356 36.5328 88.5002 36.0803C89.4088 35.888 89.3008 35.8909 90.3549 36.0282ZM98.2015 36.3752C99.3038 37.0591 99.8639 38.1066 99.9957 39.7302C100.098 40.9801 100.147 40.9592 97.0797 40.9946L94.4999 41.0249L94.4603 41.3734C94.2998 42.7888 96.0263 43.5016 98.5989 43.0831C99.2714 42.9732 99.5997 43.2761 99.5997 44.0048C99.5997 44.9438 95.9695 45.2453 94.4207 44.4349C91.3665 42.8365 91.8028 37.1567 95.0565 36.1554C95.7808 35.9328 97.7054 36.0672 98.2015 36.3752ZM150.84 36.1215C150.84 36.1974 150.664 36.3101 150.45 36.3723C150.189 36.4475 150.142 36.4887 150.307 36.4959C150.603 36.5089 151.057 36.2024 150.93 36.0752C150.88 36.0253 150.84 36.0463 150.84 36.1215ZM256.459 36.2248C256.331 36.3636 256.011 36.3926 254.94 36.3629C254.193 36.3427 253.608 36.3665 253.638 36.4164C253.746 36.5899 256.257 36.5198 256.507 36.3362C256.635 36.2422 256.712 36.1388 256.68 36.107C256.647 36.0752 256.547 36.128 256.459 36.2248ZM81.7408 36.407L82.0015 36.6687L82.4543 36.407C83.3313 35.9003 85.0802 36.0665 85.0802 36.6564C85.0802 37.3591 84.623 37.8319 83.944 37.8319C82.2499 37.8319 81.9244 38.4753 81.8423 41.9886L81.7797 44.6395L80.969 44.6749C80.1914 44.7096 80.1532 44.698 80.0387 44.3959C79.8249 43.8298 79.8847 36.7316 80.1064 36.4128C80.3714 36.0333 81.365 36.0297 81.7408 36.407ZM249.88 36.2733C249.8 36.3535 249.255 36.3875 248.427 36.3636C247.699 36.3434 247.128 36.3665 247.158 36.4164C247.272 36.6015 249.8 36.5198 249.96 36.326C250.131 36.1193 250.072 36.081 249.88 36.2733ZM148.23 36.4692C148.345 36.4995 148.535 36.4995 148.65 36.4692C148.766 36.4388 148.671 36.4142 148.44 36.4142C148.209 36.4142 148.115 36.4388 148.23 36.4692ZM156.331 36.4714C156.48 36.5003 156.696 36.4995 156.812 36.4692C156.926 36.4388 156.804 36.4157 156.54 36.4164C156.276 36.4179 156.182 36.4424 156.331 36.4714ZM173.31 36.4692C173.426 36.4995 173.614 36.4995 173.73 36.4692C173.845 36.4388 173.751 36.4142 173.52 36.4142C173.289 36.4142 173.194 36.4388 173.31 36.4692ZM196.83 36.4692C196.945 36.4995 197.135 36.4995 197.25 36.4692C197.366 36.4388 197.271 36.4142 197.04 36.4142C196.809 36.4142 196.715 36.4388 196.83 36.4692ZM213.694 36.475C214.043 36.4995 214.583 36.4995 214.894 36.475C215.205 36.4497 214.92 36.4301 214.26 36.4301C213.6 36.4309 213.345 36.4511 213.694 36.475ZM52.1258 37.7639C51.5289 38.0249 50.8701 39.0355 51.1084 39.3247C51.2056 39.4425 52.2367 39.4671 54.3902 39.4042C54.707 39.3955 54.6551 38.8309 54.2937 38.3552C53.7407 37.6273 52.9394 37.409 52.1258 37.7639ZM73.9202 37.7798C72.2735 38.4695 72.298 42.525 73.9526 43.1922C75.3472 43.7539 76.4791 42.8069 76.6353 40.9461C76.8405 38.5092 75.6079 37.0721 73.9202 37.7798ZM95.3877 37.8666C94.901 38.1962 94.3516 39.1165 94.5331 39.2986C94.6742 39.4403 97.6751 39.4902 97.894 39.3543C98.2972 39.1042 97.8011 38.1463 97.0718 37.7675C96.5656 37.5051 95.8615 37.5463 95.3877 37.8666ZM39.4617 40.9845C38.4717 41.5606 38.5437 42.8149 39.592 43.2508C40.0953 43.4597 41.8514 43.3737 42.0033 43.1322C42.1559 42.8893 42.1509 41.2476 41.9954 40.957C41.8075 40.6042 40.0823 40.623 39.4617 40.9845ZM205.016 50.6035C205.016 54.2809 205.031 55.786 205.05 53.9469C205.068 52.1078 205.068 49.0991 205.05 47.26C205.031 45.4209 205.016 46.9253 205.016 50.6035ZM208.247 45.6031C208.248 46.5313 208.266 46.8949 208.289 46.4113C208.312 45.9277 208.312 45.1686 208.289 44.7248C208.266 44.2802 208.247 44.6756 208.247 45.6031ZM147.27 47.0778C147.583 47.1024 148.097 47.1024 148.41 47.0778C148.723 47.0525 148.467 47.0323 147.84 47.0323C147.213 47.0323 146.956 47.0525 147.27 47.0778ZM160.23 47.0778C160.543 47.1024 161.057 47.1024 161.37 47.0778C161.683 47.0525 161.427 47.0323 160.8 47.0323C160.173 47.0323 159.916 47.0525 160.23 47.0778ZM181.544 47.2C181.4 47.3858 181.402 47.393 181.568 47.2636C181.688 47.1696 182.336 47.1031 183.368 47.0793L184.98 47.0417L183.344 47.0149C181.911 46.9918 181.689 47.0149 181.544 47.2ZM189.24 47.0692C190.538 47.1566 191.974 47.1624 191.922 47.0793C191.891 47.0294 191.153 46.999 190.283 47.0106C189.413 47.0229 188.943 47.0489 189.24 47.0692ZM225.57 47.0778C225.916 47.1024 226.483 47.1024 226.83 47.0778C227.176 47.0533 226.893 47.0337 226.2 47.0337C225.507 47.0337 225.223 47.0533 225.57 47.0778ZM230.67 47.0778C230.983 47.1024 231.497 47.1024 231.81 47.0778C232.124 47.0525 231.867 47.0323 231.24 47.0323C230.613 47.0323 230.357 47.0525 230.67 47.0778ZM250.174 47.0778C250.522 47.1024 251.062 47.1017 251.374 47.0771C251.685 47.0525 251.4 47.0323 250.74 47.033C250.08 47.033 249.826 47.0533 250.174 47.0778ZM149.15 47.5036C149.209 47.7942 149.296 47.8969 149.496 47.9085C149.725 47.9222 149.728 47.9164 149.522 47.8701C149.363 47.834 149.28 47.7176 149.28 47.5297C149.28 47.3728 149.233 47.2152 149.175 47.179C149.118 47.1436 149.107 47.2896 149.15 47.5036ZM175.701 47.8383C175.679 48.6444 175.798 48.9241 176.154 48.9082C176.283 48.9025 176.265 48.8707 176.1 48.8063C175.902 48.7297 175.848 48.5649 175.791 47.881L175.722 47.0489L175.701 47.8383ZM224.52 47.4104C224.385 47.7668 224.32 47.7791 223.989 47.5058L223.74 47.299L223.988 47.5701C224.284 47.8947 224.592 47.8195 224.671 47.4024C224.743 47.0229 224.665 47.0272 224.52 47.4104ZM227.64 52.2061L227.7 57.2903L227.731 52.298C227.748 49.5516 227.722 47.2636 227.671 47.213C227.621 47.1624 227.607 49.4092 227.64 52.2061ZM252.24 52.3869L252.3 57.6518L252.331 52.478C252.348 49.6326 252.322 47.2636 252.271 47.213C252.221 47.1624 252.207 49.4909 252.24 52.3869ZM146.336 54.158C146.336 57.6699 146.351 59.0889 146.37 57.312C146.389 55.5344 146.389 52.6608 146.37 50.9266C146.351 49.1916 146.336 50.6454 146.336 54.158ZM229.854 52.29C229.854 54.7754 229.87 55.7918 229.889 54.5491C229.91 53.3071 229.91 51.2736 229.889 50.0309C229.87 48.789 229.854 49.8054 229.854 52.29ZM202.08 48.3747C202.304 48.6061 202.514 48.7962 202.547 48.7962C202.58 48.7962 202.424 48.6061 202.2 48.3747C201.976 48.1427 201.766 47.9526 201.733 47.9526C201.7 47.9526 201.856 48.1427 202.08 48.3747ZM177.45 48.8851C177.862 48.909 178.538 48.909 178.95 48.8851C179.363 48.862 179.025 48.8425 178.2 48.8425C177.375 48.8425 177.037 48.862 177.45 48.8851ZM179.925 50.4827C179.925 51.2447 179.944 51.557 179.968 51.176C179.993 50.795 179.993 50.1712 179.968 49.7902C179.944 49.4092 179.925 49.7208 179.925 50.4827ZM258.992 49.4851C259.174 49.5126 259.444 49.5119 259.592 49.4837C259.739 49.4548 259.59 49.4323 259.26 49.4331C258.93 49.4338 258.809 49.4577 258.992 49.4851ZM151.65 49.7244C151.798 49.7533 152.042 49.7533 152.19 49.7244C152.338 49.6962 152.217 49.6724 151.92 49.6724C151.623 49.6724 151.502 49.6962 151.65 49.7244ZM164.61 49.7244C164.758 49.7533 165.002 49.7533 165.15 49.7244C165.298 49.6962 165.177 49.6724 164.88 49.6724C164.583 49.6724 164.462 49.6962 164.61 49.7244ZM197.97 49.7244C198.119 49.7533 198.361 49.7533 198.51 49.7244C198.659 49.6962 198.537 49.6724 198.24 49.6724C197.943 49.6724 197.821 49.6962 197.97 49.7244ZM209.67 49.723C209.786 49.7526 209.974 49.7526 210.09 49.723C210.205 49.6926 210.111 49.6673 209.88 49.6673C209.649 49.6673 209.555 49.6926 209.67 49.723ZM221.73 49.7244C221.879 49.7533 222.121 49.7533 222.27 49.7244C222.419 49.6962 222.297 49.6724 222 49.6724C221.703 49.6724 221.581 49.6962 221.73 49.7244ZM234.134 49.749C234.032 49.8133 234.195 49.8299 234.554 49.7916C234.876 49.7562 235.163 49.7078 235.19 49.6839C235.299 49.5878 234.289 49.6499 234.134 49.749ZM246.452 49.7251C246.601 49.7533 246.817 49.7526 246.931 49.7222C247.046 49.6919 246.924 49.6687 246.66 49.6702C246.396 49.6716 246.302 49.6962 246.452 49.7251ZM200.271 50.8745C200.56 51.2035 200.572 51.2056 201.951 51.1803L203.34 51.1543L201.964 51.116C200.745 51.0813 200.552 51.0466 200.283 50.8102L199.98 50.5435L200.271 50.8745ZM208.252 54.0973C208.252 55.8532 208.269 56.5718 208.289 55.6942C208.31 54.8158 208.31 53.3794 208.289 52.5011C208.269 51.6228 208.252 52.3413 208.252 54.0973ZM232.972 54.158C232.972 55.8807 232.989 56.5689 233.01 55.6869C233.03 54.805 233.03 53.3953 233.009 52.5539C232.989 51.7131 232.972 52.4346 232.972 54.158ZM258.515 51.1746C258.963 51.1984 259.665 51.1977 260.075 51.1746C260.484 51.1507 260.118 51.1319 259.26 51.1319C258.402 51.1326 258.067 51.1514 258.515 51.1746ZM216.282 52.29C216.282 52.8531 216.302 53.0837 216.328 52.8025C216.353 52.5206 216.353 52.0601 216.328 51.7782C216.302 51.4962 216.282 51.7269 216.282 52.29ZM157.588 51.8085C157.588 52.0399 157.612 52.1353 157.643 52.0189C157.673 51.9032 157.673 51.7131 157.643 51.5975C157.612 51.4818 157.588 51.5765 157.588 51.8085ZM184.517 51.5671C184.592 51.6669 184.681 51.8563 184.713 51.9893C184.769 52.2177 184.773 52.217 184.786 51.9734C184.794 51.8324 184.705 51.643 184.59 51.5519C184.407 51.4081 184.398 51.4102 184.517 51.5671ZM241.003 52.4707C241.002 53.0671 241.023 53.3266 241.047 53.0469C241.072 52.7671 241.073 52.2792 241.048 51.9625C241.024 51.6459 241.003 51.8743 241.003 52.4707ZM192.514 52.3507C192.515 52.6818 192.539 52.8033 192.566 52.6196C192.593 52.4367 192.593 52.1657 192.565 52.0175C192.536 51.8693 192.514 52.0189 192.514 52.3507ZM264.754 52.3507C264.755 52.6818 264.779 52.8033 264.806 52.6196C264.834 52.4367 264.833 52.1657 264.804 52.0175C264.776 51.8693 264.753 52.0189 264.754 52.3507ZM170.55 52.3507C170.551 52.6153 170.576 52.71 170.605 52.5596C170.633 52.41 170.633 52.1931 170.602 52.0782C170.572 51.9625 170.549 52.0854 170.55 52.3507ZM175.721 53.1936C175.722 53.7242 175.743 53.9259 175.768 53.6426C175.793 53.3592 175.793 52.9254 175.767 52.6789C175.741 52.4317 175.721 52.6637 175.721 53.1936ZM137.79 52.7404C138.103 52.7649 138.616 52.7649 138.93 52.7404C139.244 52.7158 138.987 52.6948 138.36 52.6948C137.733 52.6948 137.477 52.7158 137.79 52.7404ZM259.237 53.344C260.215 53.3642 261.781 53.3642 262.717 53.344C263.654 53.3238 262.854 53.3071 260.94 53.3071C259.026 53.3071 258.26 53.3238 259.237 53.344ZM201.27 53.584C201.65 53.6079 202.27 53.6079 202.65 53.584C203.029 53.5601 202.719 53.5406 201.96 53.5406C201.201 53.5406 200.891 53.5601 201.27 53.584ZM175.905 54.372C175.956 54.4233 176.858 54.45 177.909 54.432L179.82 54.398L177.815 54.338C176.713 54.3055 175.853 54.3206 175.905 54.372ZM262.17 54.3062C262.451 54.3315 262.909 54.3315 263.19 54.3062C263.47 54.2809 263.241 54.2599 262.68 54.2599C262.119 54.2599 261.889 54.2809 262.17 54.3062ZM259.11 55.2648C259.225 55.2951 259.415 55.2951 259.53 55.2648C259.646 55.2344 259.551 55.2098 259.32 55.2098C259.089 55.2098 258.995 55.2344 259.11 55.2648ZM135.899 55.7853C135.592 56.125 135.723 56.1568 136.045 55.8207C136.192 55.6681 136.268 55.5431 136.215 55.5431C136.161 55.5431 136.019 55.6522 135.899 55.7853ZM137.376 55.6327C137.923 55.6551 138.787 55.6551 139.295 55.6327C139.804 55.6103 139.356 55.5922 138.3 55.5922C137.244 55.5922 136.828 55.611 137.376 55.6327ZM217.8 56.4467C218.024 56.6788 218.234 56.8689 218.267 56.8689C218.3 56.8689 218.144 56.6788 217.92 56.4467C217.696 56.2147 217.486 56.0253 217.453 56.0253C217.42 56.0253 217.576 56.2147 217.8 56.4467ZM242.52 56.4467C242.744 56.6788 242.954 56.8689 242.987 56.8689C243.02 56.8689 242.864 56.6788 242.64 56.4467C242.416 56.2147 242.206 56.0253 242.173 56.0253C242.14 56.0253 242.296 56.2147 242.52 56.4467ZM168.893 56.5371L168.54 56.9289L168.93 56.5747C169.294 56.245 169.375 56.146 169.283 56.146C169.262 56.146 169.086 56.3217 168.893 56.5371ZM192.224 56.8978C192.314 57.0135 192.36 57.2173 192.326 57.3496C192.291 57.4826 192.311 57.5918 192.371 57.5918C192.565 57.5918 192.486 57.0236 192.27 56.853C192.08 56.7033 192.076 56.7077 192.224 56.8978ZM145 57.299C144.924 57.4602 144.908 57.5918 144.963 57.5918C145.068 57.5918 145.254 57.1241 145.179 57.0489C145.156 57.0258 145.076 57.1385 145 57.299ZM224.523 57.0272C224.516 57.2231 224.772 57.5918 224.914 57.5896C225.014 57.5882 225.019 57.56 224.929 57.4993C224.858 57.4508 224.738 57.3026 224.663 57.1696C224.589 57.0373 224.525 56.973 224.523 57.0272ZM149.448 58.9769C149.449 60.0374 149.467 60.4552 149.489 59.9051C149.512 59.355 149.512 58.4875 149.489 57.9771C149.467 57.4667 149.448 57.9171 149.448 58.9769ZM188.688 57.3207C188.814 57.4696 189.03 57.5853 189.168 57.5773C189.41 57.5643 189.411 57.5614 189.18 57.505C189.048 57.4725 188.832 57.3569 188.7 57.2477C188.462 57.0511 188.462 57.0518 188.688 57.3207ZM239.333 57.346C239.27 57.4089 238.705 57.479 238.079 57.5014L236.94 57.5412L238.095 57.5665C238.998 57.586 239.283 57.552 239.4 57.4111C239.565 57.2116 239.515 57.1631 239.333 57.346ZM141.466 57.505C141.517 57.5571 142.23 57.5838 143.05 57.565L144.54 57.5304L142.955 57.4704C142.084 57.4378 141.414 57.453 141.466 57.505ZM206.94 57.4711L205.74 57.5448L206.903 57.5679C207.575 57.5817 208.097 57.5405 208.14 57.4711C208.181 57.4046 208.197 57.3612 208.177 57.3742C208.157 57.3865 207.6 57.4306 206.94 57.4711ZM213.42 57.4711L212.22 57.5448L213.383 57.5679C214.055 57.5817 214.577 57.5405 214.62 57.4711C214.661 57.4046 214.677 57.3612 214.657 57.3742C214.637 57.3865 214.08 57.4306 213.42 57.4711ZM226.38 57.4711L225.18 57.5448L226.343 57.5679C227.015 57.5817 227.537 57.5405 227.58 57.4711C227.621 57.4046 227.637 57.3612 227.617 57.3742C227.597 57.3865 227.04 57.4306 226.38 57.4711ZM231.66 57.4711L230.46 57.5448L231.622 57.5679C232.295 57.5817 232.817 57.5405 232.86 57.4711C232.9 57.4046 232.917 57.3612 232.897 57.3742C232.877 57.3865 232.32 57.4306 231.66 57.4711ZM132.69 57.56C133.037 57.5846 133.603 57.5846 133.95 57.56C134.297 57.5354 134.013 57.5159 133.32 57.5159C132.627 57.5159 132.343 57.5354 132.69 57.56ZM174.51 57.5614C175.417 57.5817 176.902 57.5817 177.81 57.5614C178.718 57.5405 177.975 57.5238 176.16 57.5238C174.345 57.5238 173.603 57.5405 174.51 57.5614ZM182.255 57.5607C182.67 57.5838 183.318 57.5838 183.695 57.56C184.072 57.5361 183.732 57.5166 182.94 57.5173C182.148 57.5173 181.84 57.5369 182.255 57.5607ZM190.115 57.56C190.496 57.5846 191.09 57.5838 191.434 57.56C191.778 57.5354 191.466 57.5159 190.74 57.5159C190.014 57.5166 189.732 57.5361 190.115 57.56ZM162.407 59.2783C162.407 60.1726 162.426 60.5391 162.449 60.0916C162.472 59.6441 162.472 58.9125 162.449 58.4651C162.426 58.0176 162.407 58.3834 162.407 59.2783ZM152.07 57.92C152.317 57.946 152.723 57.946 152.97 57.92C153.217 57.894 153.015 57.873 152.52 57.873C152.025 57.873 151.823 57.894 152.07 57.92ZM165.03 57.92C165.277 57.946 165.683 57.946 165.93 57.92C166.177 57.894 165.975 57.873 165.48 57.873C164.985 57.873 164.783 57.894 165.03 57.92ZM197.73 57.92C197.945 57.9467 198.295 57.9467 198.51 57.92C198.724 57.8933 198.549 57.8708 198.12 57.8708C197.691 57.8708 197.515 57.8933 197.73 57.92ZM220.95 57.92C221.198 57.946 221.602 57.946 221.85 57.92C222.098 57.894 221.895 57.873 221.4 57.873C220.905 57.873 220.702 57.894 220.95 57.92ZM245.85 57.92C246.064 57.9467 246.416 57.9467 246.63 57.92C246.845 57.8933 246.669 57.8708 246.24 57.8708C245.811 57.8708 245.635 57.8933 245.85 57.92ZM258.93 57.92C259.145 57.9467 259.495 57.9467 259.71 57.92C259.924 57.8933 259.749 57.8708 259.32 57.8708C258.891 57.8708 258.715 57.8933 258.93 57.92ZM242.19 58.5243C242.636 58.5475 243.364 58.5475 243.81 58.5243C244.256 58.5012 243.891 58.4824 243 58.4824C242.109 58.4824 241.744 58.5012 242.19 58.5243ZM147.447 61.0524C147.66 61.0784 148.038 61.0791 148.288 61.0531C148.536 61.0271 148.362 61.0054 147.9 61.0046C147.438 61.0039 147.234 61.0256 147.447 61.0524ZM160.41 61.0524C160.625 61.0791 160.975 61.0791 161.19 61.0524C161.404 61.0256 161.229 61.0039 160.8 61.0039C160.371 61.0039 160.196 61.0256 160.41 61.0524Z" fill="#08A1DF"/>
<path fill-rule="evenodd" clip-rule="evenodd" d="M4.91976 0.190847C4.91976 0.403382 5.17824 0.366514 5.2524 0.143136C5.27832 0.0643387 5.21424 0 5.10984 0C5.00544 0 4.91976 0.0860259 4.91976 0.190847ZM6.35976 0.120725C6.35976 0.18651 6.17112 0.240728 5.94 0.240728C5.64696 0.240728 5.52024 0.295669 5.52024 0.421455C5.52024 0.639772 5.01696 0.665074 4.6944 0.46266C4.43592 0.300729 4.03776 0.414226 4.10904 0.628929C4.13568 0.709894 4.28904 0.809655 4.44888 0.849415C4.7232 0.918814 4.71744 0.928212 4.3416 1.01496C4.12272 1.06556 3.91464 1.1834 3.87936 1.27665C3.77352 1.55208 3.6 1.46967 3.6 1.14436C3.6 0.725798 3.4884 0.76339 2.88 1.38581C2.5884 1.68365 2.2788 1.92799 2.1924 1.92799C2.10528 1.92799 1.9872 2.04944 1.9296 2.19908C1.87272 2.348 1.6848 2.60102 1.51272 2.76223C1.20816 3.04633 1.08 3.61453 1.31976 3.61453C1.386 3.61453 1.44 3.6955 1.44 3.79526C1.44 4.03527 1.3212 4.0237 1.13184 3.7649C0.98496 3.56538 0.97272 3.5661 0.89136 3.77719C0.84096 3.90731 0.864 4.03671 0.94608 4.08804C1.04544 4.14948 1.05336 4.26226 0.97128 4.46756L0.85536 4.75889L0.84744 4.4278C0.8424 4.21382 0.77472 4.09671 0.65592 4.09671C0.4032 4.09671 0.29304 4.44298 0.4608 4.71335C0.6624 5.03721 0.6372 5.54253 0.41976 5.54253C0.28368 5.54253 0.23976 5.68928 0.23976 6.14471C0.23976 6.4758 0.18576 6.74689 0.12024 6.74689C0.04032 6.74689 0 18.7356 0 42.4708C0 66.206 0.04032 78.1946 0.12024 78.1946C0.18576 78.1946 0.23976 78.4657 0.23976 78.7968C0.23976 79.2523 0.28368 79.399 0.41976 79.399C0.6264 79.399 0.6768 80.0605 0.48024 80.1826C0.29592 80.2969 0.33768 80.7234 0.54 80.8015C0.63936 80.8398 0.72 80.9482 0.72 81.0422C0.72 81.3234 1.09656 81.3913 1.27728 81.1427C1.43208 80.9301 1.44 80.9316 1.44 81.1832C1.44 81.3379 1.51488 81.4477 1.62 81.4477C1.71864 81.4477 1.8 81.5019 1.8 81.5677C1.8 81.6342 1.70064 81.6885 1.57968 81.6885C1.16568 81.6885 1.1952 81.8547 1.70208 82.3738C2.28816 82.9731 2.39976 83.0085 2.39976 82.5921C2.39976 82.4265 2.45376 82.2906 2.52 82.2906C2.58624 82.2906 2.64024 82.3723 2.64024 82.4714C2.64024 82.5711 2.72088 82.6521 2.82024 82.6521C2.91888 82.6521 3.00024 82.7063 3.00024 82.7728C3.00024 82.8393 2.90088 82.8935 2.77992 82.8935C2.3652 82.8935 2.39544 83.0598 2.90232 83.5789C3.39912 84.0871 3.99888 84.283 4.10184 83.9714C4.13064 83.8846 4.23936 83.8825 4.4424 83.9634L4.73976 84.0827L4.41 84.0907C4.19688 84.0957 4.08024 84.1637 4.08024 84.283C4.08024 84.5367 4.42512 84.6473 4.6944 84.4789C5.01696 84.2765 5.52024 84.3018 5.52024 84.5201C5.52024 84.6459 5.64696 84.7008 5.94 84.7008C6.17112 84.7008 6.35976 84.755 6.35976 84.8208C6.35976 84.9011 52.3598 84.9415 144.12 84.9415C235.88 84.9415 281.88 84.9011 281.88 84.8208C281.88 84.755 282.071 84.7008 282.304 84.7008C282.583 84.7008 282.753 84.6343 282.802 84.5056C282.861 84.3516 282.984 84.3263 283.398 84.3835C283.907 84.4529 284.175 84.2194 283.77 84.0589C283.687 84.0263 283.823 84.0292 284.07 84.0647C284.539 84.1326 285.405 83.5391 285.03 83.4075C284.663 83.2796 284.931 83.1458 285.42 83.2131C285.961 83.2875 286.297 82.6723 285.81 82.4981C285.728 82.4685 285.699 82.402 285.747 82.3506C285.795 82.2986 285.916 82.3246 286.016 82.4078C286.33 82.6702 286.8 82.4627 286.8 82.0608C286.8 81.8699 286.723 81.6848 286.629 81.6487C286.525 81.6082 286.484 81.486 286.523 81.3342C286.613 80.988 286.8 81.0234 286.8 81.387C286.8 81.7803 286.92 81.7673 287.338 81.3292C287.642 81.0104 287.664 80.9352 287.541 80.6612C287.297 80.1234 287.355 79.8653 287.7 79.952C287.927 80.0091 288 79.9802 288 79.8342C288 79.7272 287.946 79.6405 287.88 79.6405C287.814 79.6405 287.76 79.4236 287.76 79.1583C287.76 78.893 287.814 78.6761 287.88 78.6761C287.96 78.6761 288 66.5277 288 42.4708C288 18.4139 287.96 6.26543 287.88 6.26543C287.814 6.26543 287.76 6.04856 287.76 5.78325C287.76 5.51795 287.814 5.30107 287.88 5.30107C287.946 5.30107 288 5.21433 288 5.10734C288 4.96131 287.927 4.93239 287.7 4.9895C287.356 5.07625 287.297 4.81817 287.538 4.28684C287.661 4.01502 287.629 3.93334 287.238 3.49742C286.997 3.22995 286.8 2.95741 286.8 2.89163C286.8 2.82512 286.726 2.7709 286.635 2.7709C286.543 2.7709 286.402 2.68921 286.319 2.58873C286.203 2.44849 286.129 2.43909 286.001 2.54608C285.909 2.62271 285.797 2.64728 285.751 2.60102C285.705 2.55475 285.746 2.468 285.842 2.408C285.985 2.31981 285.989 2.27065 285.864 2.14486C285.738 2.01908 285.69 2.02269 285.602 2.16655C285.542 2.26342 285.456 2.30463 285.409 2.25836C285.363 2.21209 285.387 2.10077 285.462 2.00968C285.648 1.78341 285.515 1.68582 285.126 1.76389C284.915 1.80654 284.731 1.76172 284.608 1.63738C284.503 1.53184 284.359 1.44581 284.288 1.44581C284.218 1.44581 284.16 1.3916 284.16 1.32509C284.16 1.2593 284.295 1.20509 284.46 1.20509C284.647 1.20509 284.76 1.27304 284.76 1.38581C284.76 1.48485 284.841 1.56654 284.94 1.56654C285.197 1.56654 285.16 1.42774 284.815 1.09882C284.573 0.868211 284.427 0.825559 284.067 0.877609C283.821 0.913031 283.687 0.9152 283.77 0.882669C284.165 0.726521 283.911 0.480733 283.434 0.557361C282.955 0.633989 282.948 0.630375 283.027 0.317356C283.087 0.0730136 283.062 0 282.913 0C282.807 0 282.72 0.054218 282.72 0.120725C282.72 0.18651 282.504 0.240728 282.24 0.240728C281.976 0.240728 281.76 0.18651 281.76 0.120725C281.76 0.0404828 235.78 0 144.06 0C52.3397 0 6.35976 0.0404828 6.35976 0.120725ZM3.00024 2.16872C3.00024 2.23523 2.91888 2.28945 2.82024 2.28945C2.72088 2.28945 2.64024 2.37041 2.64024 2.47017C2.64024 2.56921 2.59344 2.6509 2.53656 2.6509C2.47968 2.6509 2.4588 2.51499 2.49048 2.34945C2.54592 2.05739 3.00024 1.89618 3.00024 2.16872ZM286.8 3.61453C286.8 3.74683 286.752 3.85526 286.694 3.85526C286.636 3.85526 286.56 3.74683 286.525 3.61453C286.484 3.45766 286.522 3.37381 286.631 3.37381C286.724 3.37381 286.8 3.48224 286.8 3.61453ZM42.025 9.64285C46.6488 10.1084 50.3028 11.881 53.5846 15.2512L54.9094 16.611L55.5048 16.0587C62.9237 9.17296 74.6914 10.5161 80.3844 18.8982C81.2621 20.1901 81.1591 20.1604 82.8 19.5792C86.8853 18.1312 92.8138 18.1811 96.3 19.6927C96.498 19.7787 97.0092 19.9999 97.4369 20.1843C107.883 24.6959 112.574 37.7032 107.46 47.9786C104.792 53.3382 100.712 56.7691 94.7398 58.6733C92.5495 59.3716 87.6701 59.5986 85.837 59.0861C85.5202 58.9979 85.2948 59.2205 84.3602 60.542C80.5262 65.9609 72.8762 68.0928 66.7994 65.4353C66.0773 65.1194 66.1745 65.0435 65.2975 66.6159C58.5706 78.6768 41.436 78.1795 35.311 65.7455L34.668 64.4421L33.5642 64.5411C25.7292 65.243 19.1743 61.1131 16.7004 53.9165C14.3777 47.1603 17.244 38.8758 23.1055 35.4029C23.6167 35.1007 23.6182 34.9243 23.1228 33.5834C21.6828 29.6833 21.9715 24.2311 23.8327 20.1908C27.0612 13.1844 34.4801 8.88235 42.025 9.64285ZM179.396 22.6429C179.569 22.9696 179.554 24.6164 179.376 24.7957C179.195 24.9771 176.844 24.9938 176.512 24.8152C176.234 24.6663 176.162 22.8171 176.424 22.5547C176.692 22.285 179.245 22.361 179.396 22.6429ZM184.651 29.371L184.682 36.2711L184.411 36.3644C184.064 36.4844 181.716 36.4634 181.593 36.3391C181.441 36.1865 181.412 22.9284 181.563 22.6451C181.683 22.4195 181.794 22.405 183.156 22.4369L184.62 22.4701L184.651 29.371ZM202.915 22.6429C202.985 22.773 203.04 23.6521 203.04 24.6309C203.04 25.5967 203.065 26.3861 203.096 26.3861C203.127 26.3861 203.492 26.2104 203.906 25.9957C205.977 24.9237 209 25.849 210.293 27.9512C211.676 30.1973 211.197 33.8899 209.308 35.5554C207.733 36.9434 204.706 37.1625 203.42 35.9805C203.134 35.7181 202.928 35.8179 202.769 36.2971C202.714 36.4641 200.192 36.4959 199.968 36.3326C199.785 36.1981 199.682 22.82 199.862 22.5272C200.015 22.2793 202.778 22.3841 202.915 22.6429ZM215.807 22.601C215.93 22.9219 215.887 36.068 215.762 36.2661C215.672 36.4092 215.364 36.4468 214.26 36.4468C213.156 36.4468 212.848 36.4092 212.757 36.2661C212.596 36.0087 212.602 22.9472 212.764 22.6429C212.936 22.3219 215.686 22.2836 215.807 22.601ZM146.4 25.8931C146.697 26.0319 147.102 26.2806 147.3 26.4454L147.66 26.7447L147.79 26.3543L147.921 25.9646L149.17 25.9292C149.858 25.9097 150.541 25.9249 150.69 25.9617L150.96 26.029V31.1435C150.96 37.0873 151.161 36.4511 149.283 36.4482C148.099 36.4468 148.02 36.4309 147.892 36.1735C147.674 35.7354 147.652 35.7369 146.866 36.2234L146.118 36.6875H144.669C138.287 36.6875 137.46 27.2384 143.7 25.6176C144.242 25.4767 145.864 25.6422 146.4 25.8931ZM169.687 25.8844C169.988 26.0232 170.335 26.2466 170.456 26.3818C170.747 26.7049 170.836 26.6919 171.024 26.2957C171.202 25.9227 173.683 25.7109 174.073 26.0355C174.324 26.2444 174.321 36.047 174.069 36.2993C173.724 36.6456 171.369 36.4865 171.058 36.0955L170.801 35.7723L170.179 36.1923C168.156 37.5593 164.417 36.3709 163.399 34.0366C163.283 33.772 163.135 33.4568 163.068 33.3368C163.003 33.2168 162.886 32.6891 162.81 32.1636C162.358 29.0457 164.065 26.3659 166.98 25.6184C167.533 25.4767 169.146 25.635 169.687 25.8844ZM193.272 25.9401C193.604 26.1085 193.943 26.329 194.026 26.4295C194.198 26.6377 194.52 26.5639 194.52 26.3174C194.52 25.9169 197.249 25.6798 197.616 26.0485C197.845 26.2791 197.821 36.0673 197.59 36.2986C197.238 36.6521 194.916 36.4952 194.599 36.0969L194.334 35.7636L193.708 36.1865C191.152 37.9136 187.133 35.9776 186.371 32.6515C185.354 28.2216 189.614 24.0793 193.272 25.9401ZM224.027 25.6704C226.503 26.2437 228.36 28.6329 228.36 31.2455C228.36 32.1975 228.509 32.1614 224.39 32.1975L220.74 32.2294L220.702 32.5004C220.508 33.8689 222.895 34.4949 224.36 33.4605C224.836 33.1243 224.924 33.1062 226.208 33.0903C228.231 33.0643 228.303 33.3137 226.762 35.0104C223.594 38.497 217.716 36.4367 217.362 31.7161C217.076 27.8782 220.427 24.8376 224.027 25.6704ZM241.7 25.8887C247.653 27.9635 246.137 36.7475 239.826 36.7475C235.938 36.7475 233.251 33.2132 234.371 29.5719C235.33 26.4555 238.605 24.8094 241.7 25.8887ZM254.655 26.0015C256.414 26.8473 256.676 27.7112 256.678 32.6768C256.68 36.8841 256.851 36.5068 254.952 36.5068C253.328 36.5068 253.44 36.7706 253.44 32.9284C253.44 29.1736 253.216 28.5454 251.882 28.5577C250.413 28.57 250.2 29.1223 250.2 32.9139C250.2 36.7511 250.314 36.5068 248.517 36.5068C247.346 36.5068 247.195 36.4822 247.085 36.274C246.876 35.8829 246.917 26.2104 247.128 26.0348C247.515 25.7116 249.757 25.9227 249.937 26.2993L250.096 26.6341L250.577 26.2516C251.643 25.4044 253.213 25.3082 254.655 26.0015ZM155.331 26.0933C155.435 26.1974 155.52 26.3406 155.52 26.4114C155.52 26.483 155.707 27.143 155.935 27.8789C156.164 28.6155 156.518 29.7693 156.722 30.443C157.221 32.0934 157.344 32.1722 157.674 31.059C158.01 29.9276 158.729 27.5811 158.977 26.8076C159.279 25.8642 159.215 25.8931 160.906 25.9307C162.592 25.9683 162.658 26.008 162.321 26.7729C162.225 26.9912 161.768 28.2266 161.306 29.5184C159.484 34.6157 158.954 36.0412 158.817 36.2299C158.579 36.5574 155.64 36.5372 155.64 36.2082C155.64 36.1692 154.766 33.7005 153.721 30.7835C151.743 25.2692 151.741 25.9039 153.735 25.9039C154.855 25.9039 155.182 25.943 155.331 26.0933ZM179.376 26.0485C179.554 26.2271 179.582 35.982 179.405 36.2617C179.245 36.5147 176.552 36.5104 176.392 36.2567C176.219 35.982 176.249 26.2242 176.424 26.0485C176.519 25.9538 177.024 25.9039 177.9 25.9039C178.776 25.9039 179.281 25.9538 179.376 26.0485ZM222.039 28.3914C221.598 28.4883 220.663 29.3948 220.704 29.6854C220.743 29.963 224.652 30.1575 224.913 29.8951C225.555 29.2503 223.361 28.1023 222.039 28.3914ZM144.106 28.8917C142.896 29.5257 142.322 31.1168 142.896 32.2387C143.94 34.2766 146.603 34.2484 147.51 32.1896C148.463 30.0267 146.172 27.8073 144.106 28.8917ZM167.7 28.7081C165.116 29.7722 165.571 33.5393 168.304 33.7142C171.623 33.926 171.954 28.9184 168.642 28.6134C168.322 28.5837 167.898 28.6264 167.7 28.7081ZM191.104 28.7471C189.635 29.2871 188.967 31.3727 189.878 32.5735C191.043 34.1053 192.876 34.1566 193.992 32.6877C195.478 30.7315 193.404 27.9013 191.104 28.7471ZM204.628 28.7153C202.783 29.3876 202.332 31.732 203.777 33.1496C204.855 34.2087 206.826 33.8291 207.562 32.4216C208.623 30.3932 206.698 27.962 204.628 28.7153ZM238.786 28.8917C236.897 29.8821 236.92 32.525 238.825 33.5067C240.844 34.5463 243.128 31.8824 241.89 29.932C241.069 28.6394 239.969 28.2707 238.786 28.8917ZM68.863 32.773C67.9752 33.2443 67.3798 34.0735 67.091 35.2403C66.8981 36.0181 66.7814 36.1446 66.2551 36.1475C65.7353 36.1497 65.6215 36.2205 65.4278 36.6629C65.119 37.3678 65.3659 37.8319 66.0485 37.8319C66.6806 37.8319 66.6936 37.5832 65.8195 42.29C65.7274 42.7874 65.569 43.6542 65.4674 44.218C65.065 46.4518 64.6474 47.0381 63.509 46.9687C62.7826 46.9246 62.5126 47.1328 62.3491 47.8629C62.1079 48.943 64.8864 48.9372 65.9318 47.8557C66.7051 47.0562 67.0284 46.1916 67.4302 43.8566C67.572 43.0281 67.765 41.9438 67.8571 41.4464C68.1854 39.6876 68.4101 38.4904 68.4742 38.1637C68.5368 37.8434 68.5649 37.8319 69.3094 37.8319C70.3181 37.8319 70.5895 37.5977 70.5362 36.7714L70.5002 36.2053L69.7198 36.1453C68.9544 36.0861 68.9393 36.0781 68.904 35.7195C68.8255 34.9149 69.8314 34.0091 70.6572 34.1414C71.4658 34.2708 72.1555 33.2168 71.6162 32.6754C71.3686 32.4267 69.3828 32.4975 68.863 32.773ZM45.7243 32.8843C45.6437 33.0354 45.5998 35.0747 45.5998 38.6755C45.5998 45.0653 45.5386 44.6995 46.6114 44.6995C47.5999 44.6995 47.52 45.2272 47.52 38.7182C47.52 32.3161 47.5733 32.6515 46.5602 32.6515C45.9792 32.6515 45.8258 32.6942 45.7243 32.8843ZM31.7714 36.073C30.4805 36.3514 29.6453 37.3389 29.6417 38.5909C29.6381 40.0035 30.263 40.5818 32.6138 41.3423C33.6989 41.6929 34.11 42.003 34.11 42.4708C34.11 43.5378 32.3741 43.686 30.6216 42.7693C30.0442 42.4672 29.6856 42.5821 29.5711 43.1069C29.5322 43.2869 29.4818 43.4958 29.4588 43.5718C29.3177 44.0424 30.2933 44.5809 31.8089 44.8679C34.2086 45.3219 36.0072 44.1783 35.9957 42.2047C35.9892 40.9498 35.2447 40.2421 33.2554 39.5979C31.927 39.1685 31.5598 38.9025 31.5598 38.369C31.5598 37.4936 33.3972 37.3193 34.7832 38.0639C35.2267 38.3025 35.8423 37.5102 35.6846 36.9051C35.5111 36.24 33.2374 35.7571 31.7714 36.073ZM39.42 36.073C37.571 36.3449 37.1167 36.7316 37.5617 37.6548C37.849 38.2512 37.8994 38.2729 38.399 38.0133C39.4819 37.4509 41.3928 37.5579 41.8709 38.2071C42.3727 38.8888 42.1906 39.2242 41.3402 39.1837C38.592 39.0543 36.8402 40.2182 36.8402 42.1722C36.8402 43.6657 37.7561 44.5968 39.4711 44.8477C40.6858 45.0255 43.1676 44.7407 43.6673 44.3662L43.9798 44.132L44.0158 41.6148C44.0676 38.0054 43.8487 37.1516 42.6996 36.4771C42.2942 36.2393 40.6404 35.8345 40.4172 35.9183C40.3963 35.9256 39.9478 35.9957 39.42 36.073ZM52.0776 36.0832C50.0105 36.4331 49.0176 37.8818 49.0234 40.5428C49.0298 43.8631 50.9602 45.3617 54.5407 44.8267C55.975 44.6127 56.2997 44.3438 56.0268 43.5963C55.8101 43.0043 56.0038 43.0382 53.7977 43.2009C52.0999 43.3267 51.0905 42.7043 51.0689 41.5187L51.0602 41.025L53.6774 40.9924L56.2939 40.9599L56.4725 40.5312C56.6316 40.1495 56.6302 39.9898 56.4588 39.0738C56.0254 36.7482 54.4608 35.6805 52.0776 36.0832ZM59.9609 36.0427C57.9564 36.428 57.0499 38.7427 58.351 40.1531C58.7765 40.6143 59.351 40.9013 60.7039 41.3279C62.221 41.8057 62.6148 42.3609 61.907 43.0245C61.2958 43.5985 60.1106 43.4865 58.5857 42.7093C58.1184 42.4715 57.9046 42.5886 57.6389 43.2262C57.325 43.9795 57.9658 44.4588 59.7931 44.8376C64.3018 45.7737 65.9614 41.1182 61.627 39.6934C60.4721 39.3138 59.6887 38.883 59.6189 38.5888C59.413 37.7249 60.5434 37.3504 62.0402 37.7863C63.3312 38.1622 63.4075 38.1536 63.6494 37.615C63.936 36.9767 63.828 36.7172 63.1483 36.4092C62.1511 35.9574 61.0574 35.8316 59.9609 36.0427ZM74.016 36.0463C69.6708 36.6094 69.4987 44.0373 73.813 44.8224C76.7779 45.3624 78.673 43.5587 78.5801 40.2833C78.4944 37.2528 76.806 35.6848 74.016 36.0463ZM88.5002 36.0803C86.3561 36.5328 85.3798 37.9121 85.3834 40.4828C85.3884 43.7575 87.2467 45.319 90.5501 44.8253C91.9426 44.6178 92.2118 44.2788 91.6812 43.4048C91.4148 42.9652 91.4141 42.9652 90.4198 43.1763C88.1669 43.6563 86.688 41.7768 87.4174 39.3623C87.8292 37.9996 88.416 37.649 90.1253 37.743C91.4335 37.816 91.4227 37.8196 91.7107 37.1936C92.0758 36.402 91.8713 36.2263 90.355 36.0282C89.3009 35.8909 89.4089 35.888 88.5002 36.0803ZM95.0566 36.1555C91.8029 37.1567 91.3666 42.8366 94.4208 44.4349C95.9695 45.2453 99.5998 44.9438 99.5998 44.0048C99.5998 43.2761 99.2714 42.9732 98.599 43.0831C96.0264 43.5016 94.2999 42.7888 94.4604 41.3734L94.5 41.025L97.0798 40.9946C100.147 40.9592 100.098 40.9801 99.9958 39.7302C99.7654 36.8986 97.6406 35.361 95.0566 36.1555ZM80.1065 36.4128C79.8847 36.7316 79.825 43.8298 80.0388 44.3959C80.1533 44.698 80.1914 44.7096 80.969 44.6749L81.7798 44.6395L81.8424 41.9886C81.9245 38.4753 82.2499 37.8319 83.9441 37.8319C84.623 37.8319 85.0802 37.3591 85.0802 36.6564C85.0802 36.0665 83.3314 35.9003 82.4544 36.407L82.0015 36.6687L81.7409 36.407C81.365 36.0297 80.3714 36.0333 80.1065 36.4128ZM53.64 37.7719C54.3766 38.1543 54.9432 39.3883 54.3902 39.4042C51.2309 39.4967 50.9026 39.4526 51.0754 38.9618C51.4606 37.8709 52.7119 37.2904 53.64 37.7719ZM75.4078 37.7589C77.0414 38.4442 77.1336 42.191 75.5395 43.0975C74.2594 43.8255 73.1225 43.0896 72.7855 41.3156C72.3218 38.8729 73.6783 37.0338 75.4078 37.7589ZM97.0718 37.7675C97.8012 38.1463 98.2973 39.1042 97.8941 39.3543C97.6752 39.4902 94.6742 39.4403 94.5331 39.2987C94.3517 39.1165 94.901 38.1962 95.3878 37.8666C95.8615 37.5463 96.5657 37.5051 97.0718 37.7675ZM41.9954 40.957C42.151 41.2476 42.156 42.8893 42.0034 43.1322C41.8514 43.3737 40.0954 43.4597 39.5921 43.2508C38.5438 42.8149 38.4718 41.5606 39.4618 40.9845C40.0824 40.623 41.8075 40.6042 41.9954 40.957ZM139.81 43.8407C139.914 43.9491 140.336 44.9048 140.748 45.9646C141.159 47.0251 141.543 48.001 141.601 48.1333C141.659 48.2663 141.823 48.6726 141.965 49.0369C142.389 50.1249 142.592 50.6374 142.8 51.1456C143.073 51.81 143.248 52.2517 144.295 54.891C145.443 57.7841 145.516 57.5918 143.27 57.5918H141.485L141.257 57.14C141.132 56.8913 140.993 56.5154 140.947 56.305C140.81 55.6653 140.718 55.6421 138.352 55.6494C135.888 55.6566 135.973 55.6262 135.6 56.6275C135.23 57.6207 135.273 57.6034 133.304 57.5651C131.147 57.5231 131.192 57.6308 132.294 55.1216C132.381 54.9228 132.65 54.2448 132.89 53.6158C133.132 52.9862 133.38 52.3623 133.442 52.23C133.505 52.0977 134.232 50.2811 135.059 48.194C137.077 43.0983 136.738 43.6318 137.987 43.5877C139.247 43.5428 139.564 43.5869 139.81 43.8407ZM179.95 43.6628C180.096 43.7192 180.122 43.9939 180.094 45.2091L180.06 46.6875L177.96 46.7482L175.86 46.8082L175.825 47.7003C175.777 48.883 175.725 48.8533 177.824 48.8136C180.084 48.7702 180 48.7066 180 50.477C180 52.1223 180.122 52.0355 177.772 52.076L175.86 52.1093V53.1936V54.278L177.84 54.3387C178.929 54.3713 179.888 54.4428 179.97 54.4963C180.175 54.6293 180.18 57.2419 179.976 57.4472C179.751 57.6728 172.639 57.6518 172.452 57.4248C172.228 57.1544 172.252 43.8428 172.476 43.6787C172.652 43.5493 179.617 43.5342 179.95 43.6628ZM208.2 43.6983C208.233 43.7301 208.272 44.578 208.288 45.5829C208.303 46.5884 208.317 47.4509 208.318 47.5C208.319 47.5492 208.675 47.4003 209.11 47.1689C211.048 46.1366 213.396 46.8342 214.32 48.716L214.69 49.4728L214.694 53.4098C214.695 55.5749 214.663 57.401 214.621 57.4689C214.507 57.6554 211.86 57.6287 211.704 57.4393C211.625 57.3446 211.563 56.0658 211.539 54.0322C211.492 50.1415 211.355 49.7736 209.94 49.7663C208.483 49.7584 208.32 50.1849 208.32 54.0026C208.32 57.8781 208.449 57.5918 206.704 57.5918C204.759 57.5918 204.96 58.3899 204.962 50.6852C204.963 43.9216 204.976 43.6534 205.299 43.5906C205.581 43.5363 208.129 43.631 208.2 43.6983ZM154.32 46.9991C159.012 48.781 158.689 56.5103 153.871 57.7646C152.515 58.1174 151.212 57.9504 150.231 57.2983C149.514 56.8219 149.52 56.8082 149.52 58.893C149.52 60.2131 149.476 60.8406 149.376 60.941C149.178 61.1398 146.622 61.1398 146.424 60.941C146.316 60.8319 146.28 59.128 146.28 54.0105V47.2239L146.588 47.1068C147.533 46.7453 149.28 47.0244 149.28 47.5354C149.28 47.9237 149.589 47.9251 149.993 47.5398C150.822 46.7489 152.959 46.4815 154.32 46.9991ZM167.664 47.2029C171.521 49.1107 171.58 55.4636 167.76 57.4147C166.308 58.1557 164.503 58.1203 163.156 57.3236C162.408 56.8819 162.446 56.7944 162.47 58.9234C162.485 60.1646 162.446 60.8008 162.351 60.9157C162.205 61.0921 159.839 61.1702 159.43 61.0126C159.26 60.9468 159.24 60.2239 159.24 54.0814V47.2239L159.548 47.1068C160.525 46.733 162.12 47.0113 162.12 47.555C162.12 47.9338 162.516 47.9208 162.935 47.5289C163.896 46.6311 166.189 46.4728 167.664 47.2029ZM199.893 46.9803C201.575 47.5196 203.029 48.9343 203.423 50.4141C203.622 51.1623 203.545 51.202 201.9 51.2035L200.58 51.2049L200.011 50.6121C197.778 48.2887 194.46 51.1999 196.283 53.8826C197.169 55.1867 198.75 55.2438 200.065 54.0206L200.629 53.4951H201.932C203.738 53.4951 203.792 53.545 203.25 54.7081C201.21 59.0774 194.818 58.9595 192.997 54.5195C191.151 50.023 195.287 45.5026 199.893 46.9803ZM222.988 46.947C223.269 47.0562 223.676 47.2759 223.891 47.4357C224.289 47.7306 224.52 47.7176 224.52 47.4003C224.52 47.0207 226.927 46.7909 227.528 47.114C227.796 47.2579 227.898 56.8667 227.636 57.3583C227.419 57.766 224.807 57.7075 224.618 57.2904C224.487 57.0026 224.04 56.8602 224.04 57.1067C224.04 57.4263 222.428 57.9496 221.436 57.9518C216.378 57.9634 214.312 50.9252 218.434 47.7314C219.643 46.7959 221.69 46.4431 222.988 46.947ZM237.208 46.9687C237.994 47.2889 238.722 47.9735 239.111 48.7564L239.46 49.4591L239.499 53.3512C239.545 57.9959 239.698 57.5918 237.9 57.5918C236.159 57.5918 236.301 57.9063 236.257 53.9737C236.213 50.0006 236.126 49.7598 234.744 49.7606C233.236 49.7606 233.04 50.2572 233.04 54.0756C233.04 55.9472 232.992 57.2152 232.916 57.3583C232.765 57.6402 230.212 57.7162 229.944 57.4472C229.644 57.1458 229.748 47.2665 230.053 47.1024C230.605 46.806 232.548 47.0056 232.825 47.3873L233.07 47.7256L233.332 47.4783C234.112 46.7424 236.034 46.4894 237.208 46.9687ZM247.707 46.9499C247.99 47.0605 248.349 47.2499 248.506 47.3714C248.855 47.6396 249.12 47.6547 249.12 47.4075C249.12 47.1234 249.641 46.9889 250.74 46.9889C251.292 46.9889 251.883 47.0417 252.052 47.1068L252.36 47.2239V52.2922C252.36 58.8056 252.261 59.3933 250.947 60.6266C248.077 63.3223 242.227 62.4418 241.309 59.1764C241.107 58.4557 241.191 58.4224 243.134 58.4622L244.768 58.4954L245.169 58.8887C246.434 60.1314 248.592 59.3391 249.038 57.4704C249.173 56.9058 248.969 56.8299 248.409 57.2369C245.958 59.0196 242.186 57.3843 241.195 54.1088C239.91 49.8603 243.914 45.4571 247.707 46.9499ZM261.041 46.9824C262.912 47.6287 264.234 49.1736 264.661 51.2114C265.128 53.438 265.223 53.383 260.906 53.3744C259.011 53.3708 257.399 53.3693 257.323 53.3715C256.924 53.3809 257.072 54.0582 257.568 54.4869C258.609 55.3891 259.911 55.4079 260.86 54.5354C261.244 54.1811 264.156 54.0655 264.284 54.3995C264.388 54.6705 263.681 55.7173 262.88 56.4778C259.501 59.6868 254.02 57.3337 253.825 52.5915C253.662 48.6082 257.381 45.7181 261.041 46.9824ZM185.121 47.1675C185.26 47.2658 185.63 47.782 185.941 48.3147C186.594 49.4345 186.875 49.663 187.094 49.2495C188.25 47.0641 188.416 46.9571 190.559 47.0128C192.328 47.0591 192.324 47.0229 190.777 49.1432C188.996 51.5837 188.818 51.8505 188.857 52.024C188.896 52.191 191.186 55.4094 192.233 56.767C192.815 57.5217 192.683 57.5918 190.68 57.5918H188.881L188.551 57.1313C188.369 56.879 187.95 56.2299 187.62 55.6891C186.838 54.4089 186.8 54.4154 185.752 56.0296C184.694 57.6583 184.821 57.5918 182.768 57.5918C180.72 57.5918 180.744 57.6359 181.914 56.0253C182.371 55.3956 183.005 54.513 183.322 54.0626C183.64 53.6129 184.079 53.0014 184.298 52.7042C184.874 51.9221 184.936 52.0551 182.251 48.4094C181.625 47.56 181.472 47.2752 181.576 47.1501C181.776 46.908 184.772 46.9224 185.121 47.1675ZM137.994 49.308C137.34 51.4804 137.251 51.7637 137.152 52.0175C136.936 52.5698 137.092 52.6515 138.365 52.6515C139.588 52.6515 139.946 52.4635 139.583 52.0131C139.519 51.9336 139.303 51.2967 139.105 50.5984C138.422 48.194 138.353 48.1145 137.994 49.308ZM258.18 49.7085C257.423 50.1025 256.797 51.0654 257.28 51.0922C257.346 51.0958 258.237 51.0987 259.26 51.0987C260.283 51.0987 261.174 51.0958 261.24 51.0922C261.757 51.0632 260.937 49.9138 260.199 49.6319C259.739 49.4562 258.579 49.5003 258.18 49.7085ZM150.838 49.9948C148.431 51.2729 149.225 54.852 151.92 54.8708C154.635 54.8889 155.421 51.129 152.94 49.9861C152.321 49.7013 151.383 49.7056 150.838 49.9948ZM163.944 49.8863C162.156 50.6071 161.77 53.0209 163.239 54.2838C164.897 55.7079 167.331 54.557 167.329 52.3507C167.329 50.5362 165.548 49.2401 163.944 49.8863ZM220.972 49.942C219.627 50.5348 219.077 52.4331 219.879 53.7047C221.439 56.1756 225.181 54.4631 224.416 51.6278C224.033 50.208 222.296 49.3579 220.972 49.942ZM245.725 49.9283C244.333 50.5471 243.766 52.4621 244.601 53.7279C246.002 55.8539 249.062 54.9142 249.059 52.3594C249.057 50.4965 247.311 49.2234 245.725 49.9283ZM284.76 83.6237C284.76 83.6859 284.625 83.7365 284.46 83.7365C284.118 83.7365 284.052 83.5377 284.37 83.4654C284.618 83.409 284.76 83.4661 284.76 83.6237ZM4.91976 84.7507C4.91976 84.8555 5.00544 84.9415 5.10984 84.9415C5.32224 84.9415 5.2848 84.682 5.06232 84.6076C4.98384 84.5815 4.91976 84.6459 4.91976 84.7507Z" fill="white" fill-opacity="0.4"/>
<path fill-rule="evenodd" clip-rule="evenodd" d="M176.49 22.6813C176.33 22.8418 176.28 23.0926 176.28 23.7324C176.28 24.8529 176.38 24.9136 178.08 24.8254L179.34 24.7597L179.374 23.6449C179.405 22.6444 179.387 22.5302 179.194 22.5244C176.945 22.4601 176.696 22.4745 176.49 22.6813ZM181.77 22.5078C181.462 22.5671 181.442 36.1946 181.749 36.3131C182.184 36.4809 184.298 36.3912 184.491 36.1968C184.703 35.9849 184.782 22.9994 184.574 22.6705C184.477 22.5179 182.353 22.3943 181.77 22.5078ZM199.976 22.5642C199.739 22.6972 199.708 36.0045 199.944 36.2416C200.251 36.5495 202.8 36.4115 202.8 36.0869C202.8 35.7652 203.112 35.6517 203.33 35.8939C204.851 37.5811 208.976 36.6226 210.281 34.2774C212.889 29.593 208.523 23.809 204.049 26.0211C202.912 26.5835 202.92 26.5944 202.92 24.469C202.92 23.3305 202.873 22.6365 202.793 22.5866C202.603 22.4688 200.179 22.45 199.976 22.5642ZM212.96 22.5092C212.66 22.5678 212.65 36.1982 212.95 36.3131C213.384 36.4809 215.498 36.3912 215.691 36.1968C215.903 35.9842 215.982 22.9994 215.773 22.6683C215.676 22.515 213.548 22.395 212.96 22.5092ZM143.915 25.6647C140.307 26.1932 138.384 30.6123 140.244 34.0974C141.571 36.5828 144.866 37.5479 146.999 36.0746C147.72 35.5765 147.702 35.5772 147.858 36.0247L147.984 36.3862H149.283C151.132 36.3862 150.96 36.9327 150.96 31.0807C150.96 25.3329 151.141 25.904 149.312 25.904C148.096 25.904 147.84 25.9908 147.84 26.4028C147.84 26.7823 147.589 26.7795 147.112 26.3941C146.312 25.7486 145.15 25.4833 143.915 25.6647ZM167.4 25.6242C162.355 26.2206 161.07 33.8235 165.614 36.1903C167.175 37.0035 169.611 36.8532 170.509 35.8895L170.775 35.6033L171.098 35.9994L171.421 36.3948L172.74 36.3609L174.06 36.3262L174.091 31.2138C174.116 27.2031 174.09 26.0804 173.971 26.0045C173.34 25.6018 171 25.998 171 26.5069C171 26.7064 170.744 26.6435 170.351 26.3479C169.618 25.7956 168.424 25.5028 167.4 25.6242ZM190.92 25.6308C185.814 26.1527 184.542 33.9109 189.18 36.2365C190.597 36.9471 192.711 36.8814 193.739 36.0941C194.246 35.7059 194.44 35.7045 194.688 36.0854C194.948 36.483 197.434 36.5604 197.605 36.1758C197.657 36.0594 197.673 33.7143 197.64 30.9644L197.58 25.9647L196.35 25.93C195.038 25.8932 194.64 26.0009 194.64 26.3905C194.64 26.7101 194.328 26.692 193.871 26.3457C193.175 25.8173 191.965 25.5245 190.92 25.6308ZM222.06 25.6669C216.791 26.4932 215.671 33.9268 220.476 36.183C222.675 37.2153 224.842 36.8206 226.561 35.0734C228.271 33.3377 228.219 33.0984 226.147 33.1533C224.728 33.1916 224.638 33.209 224.317 33.5104C223.341 34.4256 221.896 34.2919 220.938 33.1967C220.049 32.1796 220.156 32.147 224.34 32.1644C228.765 32.1825 228.559 32.2866 228.171 30.2328C227.594 27.1778 224.962 25.2122 222.06 25.6669ZM251.985 25.6669C251.36 25.771 251.016 25.9308 250.521 26.3435C250.092 26.7021 249.982 26.6999 249.89 26.3291C249.797 25.9604 249.426 25.8765 248.1 25.9279L247.14 25.9647L247.08 31.0034C247.047 33.775 247.063 36.1201 247.116 36.2141C247.247 36.4498 249.746 36.4635 249.939 36.2307C250.022 36.131 250.081 34.9461 250.104 32.9473C250.148 29.1166 250.363 28.5549 251.79 28.5549C253.307 28.5549 253.471 28.9822 253.448 32.8468C253.425 36.6515 253.309 36.3862 254.996 36.3862C256.817 36.3862 256.68 36.6768 256.68 32.8338C256.68 29.3154 256.544 28.1783 256.02 27.2797C255.314 26.0696 253.621 25.3929 251.985 25.6669ZM237.9 25.9308C232.481 27.8024 233.219 35.7478 238.894 36.6312C242.954 37.2638 246.234 33.689 245.215 29.7419C244.419 26.6566 240.982 24.8666 237.9 25.9308ZM152.296 26.0659C152.194 26.1888 152.265 26.5185 152.589 27.4214C152.825 28.0778 153.065 28.7674 153.122 28.954C153.234 29.314 153.875 31.1039 154.145 31.808C154.233 32.04 154.613 33.0969 154.989 34.1574C155.814 36.4838 155.711 36.3862 157.324 36.3862C158.851 36.3862 158.811 36.4158 159.337 34.8803C159.541 34.2839 159.905 33.2538 160.144 32.5909C160.384 31.9287 160.739 30.9253 160.933 30.3622C161.128 29.799 161.334 29.2294 161.392 29.0971C161.88 27.9831 162.433 26.1859 162.33 26.0551C162.182 25.8686 159.815 25.8447 159.477 26.0262C159.323 26.1093 159.11 26.6045 158.815 27.5624C158.577 28.3402 158.31 29.1932 158.222 29.4585C158.134 29.7239 157.971 30.266 157.859 30.6636C157.338 32.5143 157.251 32.4752 156.538 30.0607C156.361 29.4643 156.173 28.8412 156.118 28.6756C156.063 28.5101 155.872 27.8862 155.693 27.2898C155.513 26.6934 155.283 26.1375 155.181 26.0551C154.911 25.8375 152.476 25.8469 152.296 26.0659ZM176.55 26.0284L176.28 26.1375V31.0627C176.28 36.9529 176.1 36.4115 178.034 36.3609L179.34 36.3262L179.371 31.1899L179.402 26.0537L179.131 25.9806C178.72 25.87 176.857 25.9047 176.55 26.0284ZM224.27 28.7147C224.785 29.0573 225.19 29.7304 224.998 29.927C224.886 30.0427 220.885 30.068 220.702 29.9545C220.364 29.7441 221.164 28.6836 221.88 28.3937C222.379 28.1913 223.761 28.3771 224.27 28.7147ZM146.255 28.7855C147.564 29.4629 148.146 30.9376 147.59 32.1673C146.699 34.1408 144.246 34.409 143.072 32.661C141.625 30.5046 143.996 27.6166 146.255 28.7855ZM169.535 28.7848C171.066 29.5757 171.547 31.4357 170.559 32.7463C169.182 34.5731 166.47 33.9464 165.972 31.6873C165.522 29.6501 167.729 27.8522 169.535 28.7848ZM193.03 28.7834C194.886 29.6299 195.022 32.4608 193.255 33.4598C190.777 34.8601 188.281 31.8644 189.973 29.52C190.615 28.6294 191.974 28.3019 193.03 28.7834ZM206.475 28.7855C207.874 29.4238 208.382 31.3815 207.475 32.6393C205.95 34.7531 202.886 33.8191 202.867 31.2347C202.853 29.2626 204.728 27.9896 206.475 28.7855ZM240.815 28.7841C243.214 30.0202 242.456 33.741 239.806 33.7338C237.098 33.7259 236.401 30.0542 238.86 28.7544C239.358 28.4913 240.273 28.505 240.815 28.7841ZM136.859 43.9781C136.757 44.1776 136.159 45.6278 135.532 47.2008C134.905 48.7746 134.319 50.224 134.229 50.4228C134.14 50.6216 133.87 51.299 133.629 51.9287C133.388 52.5583 133.141 53.1822 133.08 53.3145C132.444 54.6923 131.546 57.1777 131.629 57.328C131.749 57.542 134.91 57.5753 135.162 57.3656C135.242 57.2991 135.408 56.9565 135.531 56.6051C135.916 55.5049 135.816 55.5432 138.295 55.5432C140.768 55.5432 140.755 55.5388 141.05 56.4591C141.376 57.4748 141.329 57.4517 143.19 57.4878C145.441 57.5319 145.369 57.6823 144.322 55.1217C144.024 54.393 143.418 52.8749 142.974 51.7479C142.531 50.6216 141.992 49.2662 141.775 48.7363C141.417 47.858 140.917 46.582 140.241 44.8203C139.762 43.5719 139.83 43.6152 138.349 43.6152H137.046L136.859 43.9781ZM172.464 43.7598C172.235 43.9897 172.258 57.1495 172.487 57.3403C172.728 57.5413 179.706 57.5456 179.947 57.3447C180.211 57.1249 180.196 54.6345 179.93 54.5318C179.826 54.4921 178.882 54.4588 177.834 54.4588C175.611 54.4588 175.678 54.4993 175.682 53.1721C175.684 52.006 175.583 52.0602 177.845 52.0226L179.82 51.9894V50.4828V48.977L177.908 48.9438C175.681 48.9047 175.68 48.904 175.68 47.9303C175.68 46.7179 175.624 46.7483 177.88 46.7483C180.247 46.7483 180.12 46.8372 180.12 45.1818C180.12 44.349 180.07 43.8545 179.976 43.7598C179.77 43.5538 172.669 43.5538 172.464 43.7598ZM205.227 43.7562C205.114 43.8704 205.08 45.4695 205.08 50.6303V57.357L205.35 57.4473C205.499 57.4965 206.187 57.5088 206.88 57.4741L208.14 57.4112L208.2 54.1581C208.25 51.4009 208.291 50.8479 208.464 50.5313C209.019 49.5141 210.317 49.3797 211.15 50.253L211.5 50.6187L211.535 53.9253C211.578 57.8796 211.422 57.5774 213.36 57.4762L214.62 57.4112L214.651 53.5942C214.688 49.1758 214.644 48.93 213.62 47.8276C212.527 46.6507 210.57 46.3869 209.101 47.2182C208.209 47.7242 208.212 47.7307 208.173 45.5403L208.14 43.676L206.757 43.642C205.784 43.6181 205.332 43.6521 205.227 43.7562ZM151.112 46.984C150.427 47.2312 149.76 47.6584 149.76 47.8493C149.76 48.1623 149.218 47.876 149.159 47.5312L149.098 47.1698L147.849 47.1351C147.163 47.1163 146.555 47.1459 146.5 47.2016C146.393 47.3093 146.344 60.8291 146.451 60.9361C146.502 60.9874 148.245 61.0113 149.19 60.9737C149.38 60.9657 149.4 60.7908 149.402 59.0674C149.404 56.71 149.393 56.7309 150.367 57.3143L151.134 57.7726H152.576C155.676 57.7726 157.595 55.695 157.585 52.3501C157.575 48.4775 154.358 45.8107 151.112 46.984ZM164.045 46.9854C163.685 47.1199 163.188 47.3924 162.942 47.5912C162.356 48.064 162.145 48.0568 162.098 47.5616L162.06 47.1698L160.818 47.1351C160.004 47.1127 159.517 47.1488 159.407 47.2406C159.187 47.4235 159.154 60.777 159.373 60.9129C159.484 60.9823 161.087 61.0192 162.09 60.9766C162.358 60.965 162.36 60.9527 162.36 59.0522C162.36 57.1878 162.494 56.5249 162.777 56.9854C163.558 58.2534 167.197 58.051 168.743 56.6536C172.934 52.867 169.149 45.0806 164.045 46.9854ZM196.98 46.8307C193.362 47.6548 191.544 51.646 193.277 54.9576C195.338 58.8953 201.311 58.7637 203.187 54.74C203.702 53.6347 203.681 53.6159 201.958 53.6159H200.508L200.124 54.0265C198.019 56.2806 194.699 53.9542 196.004 51.1407C196.81 49.4028 198.715 49.1455 200.094 50.5891L200.569 51.0857H201.984H203.4V50.7069C203.4 48.5259 199.602 46.2336 196.98 46.8307ZM220.5 46.8228C216.35 47.9006 214.875 53.0904 217.805 56.3087C219.33 57.9852 222.569 58.3951 223.991 57.0924C224.273 56.8336 224.594 56.8957 224.7 57.2304C224.795 57.5312 224.887 57.5449 226.32 57.4741L227.58 57.4112V52.2901V47.1698H226.14C224.754 47.1698 224.698 47.1799 224.663 47.4307C224.606 47.8298 224.284 47.8804 223.931 47.5464C223.319 46.9673 221.456 46.5748 220.5 46.8228ZM234.279 46.9587C234.004 47.0751 233.65 47.2919 233.491 47.4408C233.127 47.785 232.889 47.785 232.738 47.4408C232.612 47.1517 230.27 46.9507 230.015 47.2074C229.832 47.3895 229.881 57.2456 230.064 57.409C230.172 57.5052 230.627 57.5268 231.54 57.4791L232.86 57.4112L232.92 54.2181C232.972 51.4067 233.007 50.9708 233.206 50.5674C233.632 49.7079 234.792 49.3876 235.57 49.9146C236.259 50.3809 236.276 50.4771 236.278 53.9926C236.28 57.8399 236.139 57.5442 237.946 57.4878C239.701 57.4329 239.553 57.8189 239.493 53.4403C239.434 49.2192 239.361 48.8259 238.459 47.8891C237.508 46.9008 235.483 46.4497 234.279 46.9587ZM244.935 46.9305C239.663 48.4175 239.76 56.6789 245.063 57.7264C246.447 57.9996 247.692 57.7705 248.55 57.0852C249.229 56.543 249.306 57.4603 248.661 58.4225C247.82 59.6804 246.063 59.9269 245.104 58.9213L244.755 58.5555H243.057C241.105 58.5555 241.167 58.5302 241.378 59.2344C242.347 62.4672 248.301 63.2443 251.01 60.4915C252.207 59.2756 252.249 58.998 252.211 52.5091L252.18 47.1698L250.769 47.1358C249.362 47.1018 249.358 47.1025 249.22 47.4069C249.049 47.7821 248.943 47.7864 248.471 47.4365C247.606 46.7953 246.152 46.5871 244.935 46.9305ZM257.735 46.9804C252.963 48.5129 252.423 55.0502 256.884 57.3006C258.227 57.9779 260.224 58.0097 261.512 57.3736C262.769 56.7526 264.441 54.9258 264.16 54.4798C263.973 54.1812 261.307 54.2391 260.957 54.5485C259.614 55.7362 256.894 55.0935 257.064 53.6289L257.1 53.3145L260.75 53.2827C264.883 53.2465 264.721 53.2863 264.718 52.306C264.708 48.6127 261.137 45.8888 257.735 46.9804ZM181.617 47.2348C181.574 47.3035 181.986 47.9678 182.53 48.7103C183.074 49.4534 183.706 50.3325 183.935 50.6636C184.164 50.9954 184.452 51.3785 184.575 51.5152C184.904 51.8795 184.86 52.0523 184.226 52.9046C183.91 53.3289 183.357 54.0995 182.996 54.6171C182.635 55.1347 182.083 55.9054 181.77 56.329C180.88 57.5305 180.885 57.5355 182.898 57.5095C184.86 57.4842 184.662 57.5905 185.678 56.0254C186.851 54.2152 186.724 54.2195 187.848 55.9516C188.936 57.6266 188.662 57.4755 190.644 57.49C192.872 57.5059 192.932 57.777 189.75 53.4684C188.53 51.8173 188.464 52.2222 190.376 49.6146C191.266 48.4023 191.977 47.3563 191.957 47.2905C191.904 47.1177 188.657 47.0657 188.455 47.2341C188.368 47.3064 188.01 47.85 187.658 48.4421C186.859 49.7896 186.753 49.7946 185.995 48.5259C185.097 47.0223 185.261 47.1098 183.348 47.1098C182.335 47.1098 181.664 47.1582 181.617 47.2348ZM139.063 50.1915C139.9 52.8793 139.929 52.7672 138.4 52.7701C136.792 52.7737 136.839 52.9075 137.577 50.4496C138.35 47.8695 138.339 47.871 139.063 50.1915ZM260.688 49.846C261.211 50.2146 261.543 50.7453 261.433 51.0351C261.376 51.1826 261.014 51.2065 259.232 51.179L257.1 51.1457L257.124 50.7843C257.204 49.5929 259.479 48.9944 260.688 49.846ZM152.947 49.9262C155.482 51.111 154.686 54.941 151.905 54.941C149.171 54.941 148.368 51.2238 150.831 49.971C151.627 49.5662 152.153 49.5546 152.947 49.9262ZM165.78 49.8763C168.345 51.1139 167.672 54.941 164.89 54.941C162.564 54.941 161.399 52.2576 162.978 50.5378C163.754 49.692 164.857 49.4317 165.78 49.8763ZM223.059 49.9537C225.544 51.1963 224.748 54.941 222 54.941C219.103 54.941 218.469 50.7503 221.22 49.7852C221.827 49.572 222.403 49.6247 223.059 49.9537ZM247.339 49.7802C248.786 50.2154 249.593 52.1911 248.873 53.5393C247.589 55.9451 244.206 55.1029 244.185 52.3725C244.171 50.5284 245.686 49.2828 247.339 49.7802Z" fill="#052A61"/>
</svg>
