<svg width="102" height="72" viewBox="0 0 102 72" fill="none" xmlns="http://www.w3.org/2000/svg">
<path d="M80.4786 9.97954C77.2439 9.97954 74.4224 10.9485 71.6531 11.8748C68.4184 6.28403 62.3621 2.58379 55.8451 2.58379C50.7626 2.58379 46.1409 4.89703 42.8586 8.13178C39.1584 3.51003 33.5676 0.227783 27.0981 0.227783C16.3299 0.227783 7.08637 9.05329 7.08637 19.8263C7.08637 22.5528 8.05537 25.322 8.98162 28.096C6.31893 29.5558 4.09569 31.7019 2.54286 34.3113C0.990034 36.9208 0.164272 39.8985 0.151367 42.935C0.151367 52.1785 7.59462 60.13 16.8856 60.13C18.2726 60.13 19.6549 60.13 20.5811 59.6645C22.4336 66.6423 29.4066 71.777 37.7761 71.777C45.6326 71.777 52.1496 67.1031 54.4581 60.586C56.8141 61.5598 59.1274 62.486 61.4406 62.486C67.4921 62.486 73.0401 59.1135 75.8094 54.1165C77.2439 54.487 78.7211 54.487 80.0179 54.487C92.0829 54.487 101.83 44.8255 101.83 32.3045C102.295 19.8263 92.5864 9.97954 80.4786 9.97954Z" fill="#EFF9FF"/>
</svg>
