<svg width="17" height="16" viewBox="0 0 17 16" fill="none" xmlns="http://www.w3.org/2000/svg">
<path d="M3.16797 7.33337H13.8346M8.5013 14V1.33337M3.16797 7.50137C3.16797 12.626 7.77997 14.426 8.42597 14.6534C8.47619 14.6712 8.52641 14.6712 8.57664 14.6534C9.22397 14.4334 13.8346 12.6787 13.8346 7.50204V2.86937C13.8348 2.80979 13.815 2.75188 13.7783 2.70488C13.7417 2.65788 13.6904 2.62449 13.6326 2.61004L8.56597 1.34137C8.52351 1.33076 8.47909 1.33076 8.43664 1.34137L3.36997 2.61004C3.31217 2.62449 3.26087 2.65788 3.22426 2.70488C3.18765 2.75188 3.16783 2.80979 3.16797 2.86937V7.50137Z" stroke="#96949A" stroke-miterlimit="10" stroke-linecap="round" stroke-linejoin="round"/>
</svg>
