<svg width="20" height="21" viewBox="0 0 20 21" fill="none" xmlns="http://www.w3.org/2000/svg">
<path d="M17.6988 6.31263L10.6398 4.0221C10.5492 3.99263 10.4511 3.99263 10.3604 4.0221L3.30148 6.31263C3.21369 6.34116 3.13735 6.39584 3.08324 6.46893C3.02914 6.54202 3.00002 6.62983 3 6.71992V12.4462C3 12.5602 3.04648 12.6694 3.12922 12.7499C3.21196 12.8305 3.32418 12.8757 3.44118 12.8757C3.55819 12.8757 3.67041 12.8305 3.75315 12.7499C3.83589 12.6694 3.88237 12.5602 3.88237 12.4462V7.31546L6.72654 8.23883C6.36787 8.75481 6.12483 9.33852 6.01322 9.95199C5.90162 10.5654 5.92395 11.1949 6.07876 11.7994C6.23358 12.4039 6.5174 12.9699 6.91178 13.4606C7.30615 13.9513 7.80223 14.3556 8.36774 14.6473C6.95228 15.1147 5.72064 16.0495 4.83827 17.3673C4.78755 17.4619 4.7748 17.5714 4.8025 17.6746C4.83021 17.7779 4.89638 17.8673 4.98814 17.9257C5.0799 17.984 5.19067 18.007 5.29889 17.9902C5.40711 17.9734 5.50503 17.918 5.57358 17.8347C6.7111 16.139 8.50598 15.1663 10.5001 15.1663C12.4943 15.1663 14.2892 16.139 15.4267 17.8347C15.4948 17.9197 15.5933 17.9767 15.7026 17.9942C15.8118 18.0118 15.9239 17.9888 16.0165 17.9296C16.1091 17.8705 16.1755 17.7796 16.2024 17.675C16.2294 17.5705 16.215 17.4599 16.162 17.3652C15.2796 16.0495 14.0495 15.1147 12.6325 14.6452C13.1977 14.3531 13.6935 13.9486 14.0875 13.4578C14.4815 12.9669 14.7649 12.4009 14.9194 11.7964C15.0738 11.1919 15.0959 10.5626 14.984 9.94926C14.8721 9.33595 14.6289 8.75244 14.2701 8.23668L17.6988 7.1272C17.7865 7.09863 17.8628 7.04393 17.9169 6.97084C17.9709 6.89776 18 6.80998 18 6.71992C18 6.62986 17.9709 6.54208 17.9169 6.46899C17.8628 6.3959 17.7865 6.34121 17.6988 6.31263ZM14.1767 10.7283C14.1769 11.2986 14.0372 11.8607 13.7691 12.3678C13.501 12.8749 13.1123 13.3122 12.6354 13.6434C12.1584 13.9746 11.6071 14.1901 11.0273 14.2719C10.4476 14.3537 9.85609 14.2994 9.30222 14.1136C8.74835 13.9278 8.24811 13.6158 7.84318 13.2037C7.43826 12.7915 7.14037 12.2911 6.97434 11.7442C6.80831 11.1973 6.77894 10.6197 6.88868 10.0595C6.99842 9.49932 7.24409 8.97276 7.60523 8.52371L10.3604 9.41773C10.4511 9.4472 10.5492 9.4472 10.6398 9.41773L13.395 8.52371C13.9023 9.15243 14.1776 9.92892 14.1767 10.7283ZM10.5001 8.55807L4.83827 6.71992L10.5001 4.88177L16.162 6.71992L10.5001 8.55807Z" fill="#333333"/>
</svg>
