<svg width="20" height="20" viewBox="0 0 20 20" fill="none" xmlns="http://www.w3.org/2000/svg">
<path d="M6.25065 3.75002C6.02964 3.75002 5.81768 3.83782 5.6614 3.9941C5.50512 4.15038 5.41732 4.36234 5.41732 4.58336C5.41732 4.80437 5.50512 5.01633 5.6614 5.17261C5.81768 5.32889 6.02964 5.41669 6.25065 5.41669C6.47167 5.41669 6.68363 5.32889 6.83991 5.17261C6.99619 5.01633 7.08399 4.80437 7.08399 4.58336C7.08399 4.36234 6.99619 4.15038 6.83991 3.9941C6.68363 3.83782 6.47167 3.75002 6.25065 3.75002ZM4.58399 4.58336C4.58407 4.27165 4.67156 3.96622 4.83652 3.70174C5.00148 3.43727 5.2373 3.22435 5.5172 3.08718C5.7971 2.95001 6.10986 2.89407 6.41995 2.92574C6.73004 2.9574 7.02504 3.07539 7.27144 3.2663C7.51784 3.45721 7.70577 3.71339 7.81387 4.00575C7.92198 4.2981 7.94593 4.61492 7.88301 4.92021C7.82009 5.2255 7.67282 5.50702 7.45793 5.73281C7.24303 5.9586 6.96913 6.1196 6.66732 6.19752V10.0592C6.83177 9.89419 7.01177 9.75336 7.20732 9.63669C7.96065 9.18336 8.93399 9.04919 9.80732 8.92836L9.94315 8.91003C10.9015 8.77669 11.7365 8.64086 12.3457 8.22919C12.854 7.88502 13.254 7.31002 13.3232 6.19502C12.9311 6.09117 12.5903 5.84788 12.3647 5.51077C12.1392 5.17366 12.0443 4.76585 12.0978 4.36379C12.1514 3.96173 12.3498 3.593 12.6557 3.32671C12.9617 3.06042 13.3543 2.91485 13.7599 2.91728C14.1655 2.91971 14.5563 3.06998 14.8591 3.33992C15.1618 3.60985 15.3557 3.98093 15.4045 4.38361C15.4532 4.78629 15.3535 5.19292 15.1239 5.52731C14.8943 5.86169 14.5506 6.10087 14.1573 6.20003C14.0823 7.54586 13.589 8.39419 12.8123 8.91919C12.0148 9.45836 10.9757 9.60836 10.0582 9.73586L10.0032 9.74336C9.05816 9.87419 8.23982 9.98836 7.63732 10.3509C7.34019 10.5236 7.09962 10.779 6.94482 11.0859C6.77566 11.4175 6.66732 11.8692 6.66732 12.5V13.8025C7.0601 13.9039 7.4024 14.1451 7.63007 14.4809C7.85774 14.8166 7.95515 15.2239 7.90404 15.6263C7.85292 16.0287 7.6568 16.3987 7.35242 16.6668C7.04804 16.935 6.65631 17.0829 6.25065 17.0829C5.845 17.0829 5.45327 16.935 5.14889 16.6668C4.84451 16.3987 4.64839 16.0287 4.59727 15.6263C4.54616 15.2239 4.64357 14.8166 4.87124 14.4809C5.09891 14.1451 5.44121 13.9039 5.83399 13.8025V6.19752C5.47616 6.10513 5.15918 5.89643 4.93291 5.60424C4.70663 5.31204 4.58389 4.95292 4.58399 4.58336ZM13.7507 3.75002C13.5296 3.75002 13.3177 3.83782 13.1614 3.9941C13.0051 4.15038 12.9173 4.36234 12.9173 4.58336C12.9173 4.80437 13.0051 5.01633 13.1614 5.17261C13.3177 5.32889 13.5296 5.41669 13.7507 5.41669C13.9717 5.41669 14.1836 5.32889 14.3399 5.17261C14.4962 5.01633 14.584 4.80437 14.584 4.58336C14.584 4.36234 14.4962 4.15038 14.3399 3.9941C14.1836 3.83782 13.9717 3.75002 13.7507 3.75002ZM6.25065 14.5834C6.02964 14.5834 5.81768 14.6712 5.6614 14.8274C5.50512 14.9837 5.41732 15.1957 5.41732 15.4167C5.41732 15.6377 5.50512 15.8497 5.6614 16.0059C5.81768 16.1622 6.02964 16.25 6.25065 16.25C6.47167 16.25 6.68363 16.1622 6.83991 16.0059C6.99619 15.8497 7.08399 15.6377 7.08399 15.4167C7.08399 15.1957 6.99619 14.9837 6.83991 14.8274C6.68363 14.6712 6.47167 14.5834 6.25065 14.5834Z" fill="#1C1724"/>
</svg>
