<svg width="48" height="48" viewBox="0 0 48 48" fill="none" xmlns="http://www.w3.org/2000/svg">
<path d="M6 24C6 26.3638 6.46558 28.7044 7.37017 30.8883C8.27475 33.0722 9.60062 35.0565 11.2721 36.7279C12.9435 38.3994 14.9278 39.7252 17.1117 40.6298C19.2956 41.5344 21.6362 42 24 42C26.3638 42 28.7044 41.5344 30.8883 40.6298C33.0722 39.7252 35.0565 38.3994 36.7279 36.7279C38.3994 35.0565 39.7252 33.0722 40.6298 30.8883C41.5344 28.7044 42 26.3638 42 24C42 21.6362 41.5344 19.2956 40.6298 17.1117C39.7252 14.9278 38.3994 12.9435 36.7279 11.2721C35.0565 9.60062 33.0722 8.27475 30.8883 7.37017C28.7044 6.46558 26.3638 6 24 6C21.6362 6 19.2956 6.46558 17.1117 7.37017C14.9278 8.27475 12.9435 9.60062 11.2721 11.2721C9.60062 12.9435 8.27475 14.9278 7.37017 17.1117C6.46558 19.2956 6 21.6362 6 24Z" stroke="#3E63F5" stroke-width="1.8" stroke-linecap="round" stroke-linejoin="round"/>
<path d="M16 24C16 28.7739 16.8429 33.3523 18.3431 36.7279C19.8434 40.1036 21.8783 42 24 42C26.1217 42 28.1566 40.1036 29.6569 36.7279C31.1571 33.3523 32 28.7739 32 24C32 19.2261 31.1571 14.6477 29.6569 11.2721C28.1566 7.89642 26.1217 6 24 6C21.8783 6 19.8434 7.89642 18.3431 11.2721C16.8429 14.6477 16 19.2261 16 24Z" stroke="#3E63F5" stroke-width="1.8" stroke-linecap="round" stroke-linejoin="round"/>
<path d="M6 24C6 28.42 14.06 32 24 32C33.94 32 42 28.42 42 24C42 19.58 33.94 16 24 16C14.06 16 6 19.58 6 24Z" stroke="#3E63F5" stroke-width="1.8" stroke-linecap="round" stroke-linejoin="round"/>
</svg>
