<svg width="48" height="48" viewBox="0 0 48 48" fill="none" xmlns="http://www.w3.org/2000/svg">
<path d="M3.74609 35.25C3.74609 36.6424 4.29922 37.9777 5.28378 38.9623C6.26835 39.9469 7.60371 40.5 8.99609 40.5C10.3885 40.5 11.7238 39.9469 12.7084 38.9623C13.693 37.9777 14.2461 36.6424 14.2461 35.25C14.2461 33.8576 13.693 32.5223 12.7084 31.5377C11.7238 30.5531 10.3885 30 8.99609 30C7.60371 30 6.26835 30.5531 5.28378 31.5377C4.29922 32.5223 3.74609 33.8576 3.74609 35.25Z" stroke="#3E63F5" stroke-width="1.5" stroke-linecap="round" stroke-linejoin="round"/>
<path d="M16.4961 46.5C15.7711 45.1407 14.6903 44.0039 13.3693 43.2113C12.0483 42.4187 10.5367 42 8.99609 42C7.45552 42 5.94391 42.4187 4.62288 43.2113C3.30185 44.0039 2.22107 45.1407 1.49609 46.5M33.7461 35.25C33.7461 35.9394 33.8819 36.6221 34.1457 37.2591C34.4096 37.896 34.7963 38.4748 35.2838 38.9623C35.7713 39.4498 36.35 39.8365 36.987 40.1004C37.624 40.3642 38.3067 40.5 38.9961 40.5C39.6855 40.5 40.3682 40.3642 41.0052 40.1004C41.6421 39.8365 42.2209 39.4498 42.7084 38.9623C43.1959 38.4748 43.5826 37.896 43.8465 37.2591C44.1103 36.6221 44.2461 35.9394 44.2461 35.25C44.2461 33.8576 43.693 32.5223 42.7084 31.5377C41.7238 30.5531 40.3885 30 38.9961 30C37.6037 30 36.2683 30.5531 35.2838 31.5377C34.2992 32.5223 33.7461 33.8576 33.7461 35.25Z" stroke="#3E63F5" stroke-width="1.5" stroke-linecap="round" stroke-linejoin="round"/>
<path d="M46.4942 46.5C45.7692 45.1407 44.6884 44.0039 43.3674 43.2113C42.0464 42.4187 40.5348 42 38.9942 42C37.4536 42 35.942 42.4187 34.621 43.2113C33.2999 44.0039 32.2192 45.1407 31.4942 46.5M30.4922 16.5C29.6905 15.5592 28.6941 14.8036 27.5718 14.2855C26.4496 13.7674 25.2283 13.4991 23.9922 13.4991C22.7561 13.4991 21.5348 13.7674 20.4125 14.2855C19.2903 14.8036 18.2939 15.5592 17.4922 16.5M18.0962 39.414C21.9267 40.8738 26.1626 40.861 29.9842 39.378M12.6922 12C11.0505 13.538 9.74201 15.3966 8.84757 17.4607C7.95313 19.5248 7.49182 21.7504 7.49219 24C7.49219 24.506 7.52219 25 7.56819 25.5M40.4182 25.5C40.4622 25.004 40.4942 24.5 40.4942 24C40.4946 21.7504 40.0332 19.5248 39.1388 17.4607C38.2444 15.3966 36.9358 13.538 35.2942 12M18.7442 6.75C18.7442 7.43944 18.88 8.12213 19.1438 8.75909C19.4077 9.39605 19.7944 9.9748 20.2819 10.4623C20.7694 10.9498 21.3481 11.3365 21.9851 11.6004C22.6221 11.8642 23.3047 12 23.9942 12C24.6836 12 25.3663 11.8642 26.0033 11.6004C26.6402 11.3365 27.219 10.9498 27.7065 10.4623C28.194 9.9748 28.5807 9.39605 28.8446 8.75909C29.1084 8.12213 29.2442 7.43944 29.2442 6.75C29.2442 5.35761 28.6911 4.02226 27.7065 3.03769C26.7219 2.05312 25.3866 1.5 23.9942 1.5C22.6018 1.5 21.2664 2.05312 20.2819 3.03769C19.2973 4.02226 18.7442 5.35761 18.7442 6.75Z" stroke="#3E63F5" stroke-width="1.5" stroke-linecap="round" stroke-linejoin="round"/>
</svg>
