<svg width="35" height="11" viewBox="0 0 35 11" fill="none" xmlns="http://www.w3.org/2000/svg">
<path d="M14.0151 0.183105L12.2363 10.8402H15.0811L16.8613 0.183105H14.0151Z" fill="#3D3C3C"/>
<path d="M9.85037 0.195112L7.0641 7.46296L6.76704 6.36557C6.21754 5.04333 4.65759 3.14438 2.82617 1.94764L5.37391 10.835L8.38407 10.8298L12.8642 0.192871L9.85037 0.195112Z" fill="#3D3C3C"/>
<path d="M5.68667 0.957604C5.52131 0.308436 5.04206 0.114955 4.4472 0.0917969H0.0365844L0 0.303953C3.43235 1.15407 5.7035 3.20243 6.64592 5.66538L5.68667 0.957604Z" fill="#3D3C3C"/>
<path d="M22.627 2.22615C23.5577 2.21121 24.2323 2.41888 24.7562 2.63402L25.0131 2.75728L25.3979 0.44747C24.8345 0.231578 23.9514 0 22.8495 0C20.0383 0 18.0569 1.4455 18.0415 3.51701C18.0232 5.04767 19.453 5.90228 20.5329 6.4125C21.6414 6.93542 22.0131 7.26784 22.008 7.73474C21.9992 8.44815 21.1241 8.77535 20.3068 8.77535C19.1676 8.77535 18.5625 8.61474 17.6281 8.21732L17.2616 8.047L16.8613 10.4323C17.5272 10.7303 18.7557 10.9866 20.031 11C23.0214 11 24.9648 9.57168 24.9853 7.35823C24.9977 6.1473 24.2389 5.22323 22.5948 4.46499C21.5997 3.97046 20.991 3.64177 20.9968 3.14275C20.9968 2.69976 21.5134 2.22615 22.627 2.22615Z" fill="#3D3C3C"/>
<path d="M32.6976 0.194824H30.4996C29.817 0.194824 29.3092 0.38457 29.0092 1.07931L24.7852 10.846H27.7726C27.7726 10.846 28.2599 9.53269 28.3704 9.24508C28.6975 9.24508 31.6001 9.24956 32.0135 9.24956C32.0984 9.62158 32.3603 10.846 32.3603 10.846H34.9995L32.6976 0.194824ZM29.1892 7.06376C29.4233 6.45194 30.3226 4.08535 30.3226 4.08535C30.3072 4.11449 30.5545 3.46905 30.7016 3.0679L30.8933 3.98674C30.8933 3.98674 31.4384 6.53112 31.5525 7.06376H29.1892Z" fill="#3D3C3C"/>
</svg>
