<svg width="20" height="20" viewBox="0 0 20 20" fill="none" xmlns="http://www.w3.org/2000/svg">
<g clip-path="url(#clip0_1289_3919)">
<path d="M5.41667 17.4999C5.41756 16.4935 5.17542 15.5018 4.71083 14.609C4.62775 14.4521 4.52921 14.3039 4.41667 14.1665H0.416667V14.3749C0.9625 15.3307 1.25 16.3999 1.25 17.4999H8.33333M12.5 19.5832H0M12.9167 7.91655C12.9176 6.91016 12.6754 5.91844 12.2108 5.02571C12.1278 4.86879 12.0292 4.72055 11.9167 4.58321H7.91667V4.79155C8.4625 5.74738 8.75 6.81655 8.75 7.91655H15.8333M20 9.99988H12.5M12.0833 17.9165V15.8332C12.0833 15.8332 10.8333 14.9999 8.75 14.9999C7.91167 14.9999 7.20833 15.1349 6.66667 15.2957M19.5833 8.33321V6.24988C19.5833 6.24988 18.3333 5.41655 16.25 5.41655C15.4117 5.41655 14.7083 5.55155 14.1667 5.71321M8.625 13.3332C8.625 13.3332 7.29167 12.4999 7.29167 11.4582C7.29167 11.0719 7.44514 10.7014 7.71831 10.4282C7.99149 10.155 8.362 10.0015 8.74833 10.0015C9.13467 10.0015 9.50517 10.155 9.77835 10.4282C10.0515 10.7014 10.205 11.0719 10.205 11.4582C10.205 12.4999 8.875 13.3332 8.875 13.3332H8.625ZM16.125 3.74988C16.125 3.74988 14.7917 2.91655 14.7917 1.87488C14.7917 1.48855 14.9451 1.11804 15.2183 0.844861C15.4915 0.571683 15.862 0.418213 16.2483 0.418213C16.6347 0.418213 17.0052 0.571683 17.2784 0.844861C17.5515 1.11804 17.705 1.48855 17.705 1.87488C17.705 2.91655 16.375 3.74988 16.375 3.74988H16.125Z" stroke="#333333" stroke-width="0.833333"/>
</g>
<defs>
<clipPath id="clip0_1289_3919">
<rect width="20" height="20" fill="white"/>
</clipPath>
</defs>
</svg>
