<svg width="195" height="41" viewBox="0 0 195 41" fill="none" xmlns="http://www.w3.org/2000/svg">
<g clip-path="url(#clip0_1074_1595)">
<path d="M7.88 40.39C6.76 40.39 5.78 40.23 4.95 39.91C4.12 39.59 3.44 39.16 2.89 38.61C2.34 38.06 1.93 37.43 1.66 36.72C1.39 36.01 1.25 35.26 1.25 34.47V23.73H2.5V34.19C2.5 34.99 2.63 35.71 2.89 36.35C3.15 36.98 3.52 37.52 4 37.95C4.48 38.38 5.06 38.71 5.73 38.94C6.4 39.17 7.15 39.28 7.97 39.28C8.79 39.28 9.48 39.17 10.14 38.94C10.8 38.72 11.36 38.39 11.84 37.95C12.31 37.52 12.68 36.98 12.94 36.35C13.2 35.72 13.33 35 13.33 34.19V23.73H14.53V34.42C14.53 35.22 14.39 35.98 14.11 36.71C13.83 37.43 13.41 38.07 12.86 38.61C12.31 39.15 11.61 39.59 10.78 39.91C9.95 40.23 8.98 40.39 7.89 40.39H7.88Z" fill="white"/>
<path d="M19.1797 23.73H21.0097L28.5197 34.61C28.9897 35.3 29.4397 35.99 29.8897 36.67C30.3397 37.35 30.7697 38.01 31.1897 38.66H31.2397C31.2197 37.58 31.2097 36.58 31.1897 35.65C31.1697 34.72 31.1697 33.72 31.1697 32.66V23.73H32.3997V40.1H30.7097L23.8997 30.21C23.3097 29.34 22.7097 28.48 22.1097 27.61C21.5097 26.74 20.9297 25.85 20.3597 24.91H20.3097C20.3297 25.49 20.3397 26.1 20.3497 26.75C20.3497 27.4 20.3597 28.05 20.3597 28.71V40.1H19.1797V23.73Z" fill="white"/>
<path d="M36.9805 23.73H38.2805V40.1H36.9805V23.73Z" fill="white"/>
<path d="M41.0703 23.73H42.4703L46.6803 34.73C46.9803 35.53 47.2503 36.24 47.4903 36.86C47.7203 37.48 47.9603 38.11 48.2003 38.75H48.2703C48.4903 38.09 48.7203 37.45 48.9603 36.82C49.1903 36.19 49.4603 35.5 49.7703 34.73L53.8903 23.73H55.2403L48.9303 40.1H47.4603L41.0803 23.73H41.0703Z" fill="white"/>
<path d="M58.0098 23.73H69.0098V24.89H59.2598V31.25H65.8798V32.41H59.2598V38.93H69.2498V40.11H58.0098V23.73Z" fill="white"/>
<path d="M72.2307 23.73H79.6707C80.5807 23.73 81.3507 23.86 81.9707 24.13C82.5907 24.39 83.0907 24.74 83.4707 25.17C83.8607 25.6 84.1307 26.08 84.3007 26.63C84.4707 27.17 84.5507 27.74 84.5507 28.31C84.5507 28.86 84.4707 29.39 84.3207 29.9C84.1707 30.41 83.9207 30.88 83.5707 31.3C83.2207 31.72 82.7807 32.08 82.2207 32.38C81.6707 32.68 81.0007 32.89 80.2107 33L85.0707 40.1H83.5507L78.8607 33.17H73.4707V40.1H72.2207V23.73H72.2307ZM78.9007 32.01C79.7207 32.01 80.4007 31.91 80.9607 31.7C81.5107 31.49 81.9607 31.21 82.2807 30.87C82.6107 30.52 82.8507 30.14 82.9907 29.7C83.1307 29.26 83.2107 28.82 83.2107 28.35C83.2107 27.88 83.1407 27.47 83.0107 27.05C82.8707 26.63 82.6607 26.26 82.3607 25.94C82.0607 25.62 81.6707 25.36 81.1907 25.17C80.7107 24.98 80.1207 24.88 79.4307 24.88H73.4807V32.01H78.9007Z" fill="white"/>
<path d="M94.3103 40.35C93.3603 40.35 92.5003 40.25 91.7103 40.05C90.9203 39.85 90.2303 39.55 89.6403 39.15C89.0503 38.75 88.5703 38.24 88.2203 37.62C87.8703 37 87.6503 36.28 87.5703 35.44H88.8903C88.9703 36.1 89.1603 36.68 89.4703 37.16C89.7703 37.64 90.1603 38.04 90.6403 38.35C91.1103 38.66 91.6603 38.88 92.2903 39.03C92.9203 39.18 93.6103 39.25 94.3603 39.25C95.0203 39.25 95.6303 39.18 96.2003 39.04C96.7703 38.9 97.2603 38.7 97.6703 38.42C98.0803 38.15 98.4003 37.8 98.6303 37.39C98.8603 36.98 98.9803 36.49 98.9803 35.93C98.9803 35.17 98.8203 34.6 98.4903 34.2C98.1603 33.81 97.7503 33.49 97.2503 33.27C96.7703 33.03 96.2503 32.85 95.6903 32.74C95.1303 32.63 94.5303 32.51 93.8803 32.4C93.1303 32.27 92.4703 32.14 91.9203 32.02C91.3703 31.89 90.8203 31.69 90.2703 31.42C89.6603 31.12 89.1803 30.7 88.8303 30.17C88.4803 29.64 88.3003 28.97 88.3003 28.15C88.3003 27.43 88.4403 26.78 88.7203 26.2C89.0003 25.62 89.3903 25.14 89.8903 24.75C90.3903 24.36 90.9803 24.05 91.6603 23.84C92.3403 23.62 93.0803 23.52 93.8903 23.52C94.7003 23.52 95.3903 23.61 96.0803 23.8C96.7703 23.98 97.3803 24.27 97.9203 24.65C98.4603 25.04 98.9003 25.52 99.2603 26.11C99.6103 26.7 99.8403 27.4 99.9303 28.22H98.5803C98.5003 27.61 98.3203 27.07 98.0503 26.62C97.7803 26.17 97.4303 25.8 97.0103 25.5C96.5903 25.21 96.1103 24.99 95.5703 24.85C95.0203 24.7 94.4403 24.63 93.8103 24.63C92.5103 24.63 91.4703 24.94 90.7003 25.56C89.9303 26.18 89.5403 27.01 89.5403 28.04C89.5403 28.61 89.6603 29.07 89.9003 29.43C90.1403 29.79 90.4703 30.09 90.8803 30.31C91.2903 30.54 91.7603 30.71 92.2903 30.83C92.8203 30.95 93.3803 31.06 93.9803 31.16C95.0103 31.34 95.9003 31.52 96.6503 31.7C97.4003 31.88 98.0503 32.15 98.5803 32.51C99.0903 32.83 99.5103 33.24 99.8203 33.75C100.13 34.26 100.29 34.94 100.29 35.8C100.29 36.55 100.14 37.22 99.8403 37.78C99.5403 38.35 99.1303 38.83 98.6003 39.21C98.0703 39.59 97.4403 39.88 96.7103 40.08C95.9803 40.27 95.1803 40.37 94.3103 40.37V40.35Z" fill="white"/>
<path d="M104.039 23.73H105.339V40.1H104.039V23.73Z" fill="white"/>
<path d="M113.939 24.89H108.039V23.73H121.139V24.89H115.239V40.1H113.939V24.89Z" fill="white"/>
<path d="M129.421 33.22L123.061 23.73H124.601L128.281 29.29C128.631 29.85 128.951 30.35 129.241 30.77C129.531 31.2 129.801 31.62 130.061 32.03H130.131C130.371 31.65 130.621 31.24 130.891 30.83C131.151 30.41 131.461 29.94 131.821 29.41L135.551 23.73H137.021L130.691 33.22V40.11H129.411V33.22H129.421Z" fill="white"/>
<path d="M150.619 16.5805H154.469V3.69047H159.389V0.230469H145.689V3.69047H150.619V16.5805Z" fill="white"/>
<path d="M137.139 16.9301C141.019 16.9301 144.279 14.3201 145.289 10.7901H141.479C140.689 12.4701 139.049 13.6601 137.139 13.6601C134.449 13.6601 132.309 11.3501 132.309 8.48008C132.309 5.61008 134.459 3.34008 137.169 3.34008C139.109 3.34008 140.809 4.51008 141.579 6.31008H145.339C144.379 2.69008 141.069 0.0800781 137.169 0.0800781C132.499 0.0800781 128.689 3.86008 128.689 8.51008C128.689 13.1601 132.499 16.9401 137.139 16.9401" fill="white"/>
<path d="M119.119 16.8605C123.509 16.8605 126.359 14.0105 126.359 10.4205V0.230469H122.619V9.85047C122.619 12.5605 120.989 13.5905 119.229 13.5905C117.469 13.5905 115.799 12.5605 115.799 9.85047V0.230469H111.949V10.4605C111.949 13.7505 114.729 16.8605 119.119 16.8605Z" fill="white"/>
<path d="M105.46 10.5505C108.66 9.71047 109.34 7.28047 109.34 5.34047C109.34 2.44047 107.59 0.230469 104.06 0.230469H95.0195V16.5805H98.8695V10.8805H101.49L105.62 16.5805H110.03L105.45 10.5605L105.46 10.5505ZM103.15 7.56047H98.8795V3.57047H103.22C104.62 3.57047 105.34 4.34047 105.34 5.53047C105.34 6.72047 104.66 7.56047 103.15 7.56047Z" fill="white"/>
<path d="M84.1702 16.5805H88.0202V3.69047H92.9202V0.230469H79.2402V3.69047H84.1702V16.5805Z" fill="white"/>
<path d="M71.3302 16.8102C75.5802 16.8102 78.3302 15.0402 78.3302 11.4602C78.3302 8.47023 76.3902 7.40023 73.6102 6.93023L70.2502 6.37023C68.5202 6.09023 68.1502 5.55023 68.1502 4.85023C68.1502 3.71023 69.1502 3.03023 70.9002 3.03023C72.5102 3.03023 73.8402 3.59023 74.1902 5.20023H78.1102C77.6402 1.67023 74.6502 -0.00976562 70.9202 -0.00976562C66.8802 -0.00976562 64.4302 1.97023 64.4302 5.08023C64.4302 7.51023 65.9502 9.14023 68.9402 9.66023L72.5602 10.2902C73.7702 10.5002 74.5902 11.2002 74.5902 12.0902C74.5902 13.0702 73.6302 13.7702 71.6702 13.7702C69.7102 13.7702 68.1902 13.0202 67.9602 11.6002H63.9902C64.3902 15.0302 67.0702 16.8102 71.3202 16.8102" fill="white"/>
<path d="M47.1895 16.5805H50.7295V6.23047L58.2795 16.5805H61.4695V0.230469H57.9295V10.1105L50.7795 0.230469H47.1895V16.5805Z" fill="white"/>
<path d="M36.3101 0.0703125C31.6401 0.0703125 27.8301 3.85031 27.8301 8.50031C27.8301 13.1503 31.6401 16.9303 36.3101 16.9303C40.9801 16.9303 44.7601 13.1503 44.7601 8.50031C44.7601 3.85031 40.9501 0.0703125 36.3101 0.0703125ZM36.2901 13.6603C33.6001 13.6603 31.4601 11.3503 31.4601 8.48031C31.4601 5.61031 33.6101 3.34031 36.2901 3.34031C38.9701 3.34031 41.1501 5.60031 41.1501 8.48031C41.1501 11.3603 38.9801 13.6603 36.2901 13.6603Z" fill="#DB4E3D"/>
<path d="M18.7695 12.98H22.5795L25.8495 8.50002L22.5795 4.02002H18.7695L22.1295 8.50002L18.7695 12.98Z" fill="white"/>
<path d="M8.45 16.9303C12.33 16.9303 15.59 14.3203 16.6 10.7903H12.79C12 12.4703 10.36 13.6603 8.45 13.6603C5.76 13.6603 3.62 11.3503 3.62 8.48031C3.62 5.61031 5.77 3.34031 8.48 3.34031C10.42 3.34031 12.12 4.51031 12.89 6.31031H16.65C15.69 2.69031 12.37 0.0703125 8.48 0.0703125C3.81 0.0703125 0 3.85031 0 8.50031C0 13.1503 3.81 16.9303 8.45 16.9303Z" fill="#008CE2"/>
<path d="M189.469 10.5505C192.669 9.71047 193.349 7.28047 193.349 5.34047C193.349 2.44047 191.599 0.230469 188.069 0.230469H179.029V16.5805H182.879V10.8805H185.489L189.619 16.5805H194.029L189.449 10.5605L189.469 10.5505ZM187.159 7.56047H182.889V3.57047H187.229C188.629 3.57047 189.349 4.34047 189.349 5.53047C189.349 6.72047 188.669 7.56047 187.159 7.56047Z" fill="white"/>
<path d="M168.24 0.0703125C163.57 0.0703125 159.76 3.85031 159.76 8.50031C159.76 13.1503 163.57 16.9303 168.24 16.9303C172.91 16.9303 176.69 13.1503 176.69 8.50031C176.69 3.85031 172.89 0.0703125 168.24 0.0703125ZM168.22 13.6603C165.53 13.6603 163.39 11.3503 163.39 8.48031C163.39 5.61031 165.54 3.34031 168.22 3.34031C170.9 3.34031 173.08 5.60031 173.08 8.48031C173.08 11.3603 170.91 13.6603 168.22 13.6603Z" fill="white"/>
</g>
<defs>
<clipPath id="clip0_1074_1595">
<rect width="194.04" height="40.39" fill="white"/>
</clipPath>
</defs>
</svg>
