<svg width="35" height="29" viewBox="0 0 35 29" fill="none" xmlns="http://www.w3.org/2000/svg">
<path fill-rule="evenodd" clip-rule="evenodd" d="M0.215599 0.554624C0.0968236 0.607819 0 0.738137 0 0.844247C0 1.30443 0.244309 2.11363 0.435983 2.287C0.550536 2.39058 0.692388 2.65487 0.751494 2.87413C0.883217 3.3633 1.01888 3.39567 2.57338 3.3087L3.69921 3.24565L3.73102 2.57381C3.7617 1.93208 3.6083 0.760652 3.47658 0.627804C3.36822 0.518879 0.44161 0.453017 0.215599 0.554624ZM4.69332 0.581925C4.58243 0.69282 4.57624 0.973997 4.66265 1.96558C4.78086 3.31855 4.88838 3.50065 5.57542 3.50938C5.84393 3.51304 7.91968 4.05119 8.32414 4.22231C8.6101 4.34334 8.81472 3.92537 8.7452 3.36189C8.70833 3.06186 8.65823 2.33935 8.63403 1.75589C8.60982 1.17243 8.551 0.659046 8.50343 0.614857C8.33596 0.459492 4.84587 0.429093 4.69332 0.581925ZM11.4807 0.501992C11.141 0.592059 11.083 0.789079 11.3532 0.933749C11.4717 0.997077 11.7911 1.24166 12.0633 1.47696C12.7858 2.10237 13.0811 1.9622 13.0811 0.993138C13.0811 0.493268 12.3541 0.27007 11.4807 0.501992ZM26.7434 0.496083C26.3665 0.566166 26.2761 0.729692 26.2987 1.2988C26.3108 1.60278 26.2812 2.31008 26.2331 2.87019C26.1174 4.21528 26.2193 4.39428 26.9418 4.11845C27.2089 4.01628 27.6615 3.89301 27.9474 3.84403C29.7358 3.53865 30.0525 3.37653 30.1667 2.7061C30.2168 2.4131 30.319 1.84821 30.3936 1.45079C30.4994 0.890406 30.5011 0.704643 30.4015 0.621894C30.2799 0.52085 27.1821 0.414459 26.7434 0.496083ZM32.1704 0.511279C31.614 0.562223 31.5783 0.583615 31.4569 0.940223C31.2318 1.60165 31.0739 2.48402 31.1116 2.87019L31.1479 3.24565L32.3711 3.33544C33.7708 3.43845 34.0967 3.35992 34.0967 2.92C34.0967 2.75423 34.2197 2.52821 34.4049 2.35483C34.9318 1.86087 35.2032 0.69451 34.8204 0.567291C34.5955 0.492423 32.7928 0.454425 32.1704 0.511279ZM14.2939 0.595718C14.0831 0.729692 13.9477 1.21633 13.8734 2.10574L13.8033 2.94843L14.3823 3.57946C14.7006 3.9265 15.0989 4.39147 15.2669 4.6127C15.6834 5.16042 15.7738 5.12664 16.1265 4.29099C16.2945 3.89301 16.5464 3.33881 16.6866 3.05989C17.0364 2.36271 16.8183 1.56196 16.0586 0.753334C15.8245 0.503962 14.6088 0.395601 14.2939 0.595718ZM17.3699 0.616264C17.2292 0.705205 17.2326 0.741513 17.3961 0.905041C17.6131 1.12205 17.8718 0.963021 17.7629 0.67931C17.6888 0.487074 17.5976 0.472438 17.3699 0.616264ZM18.6905 1.01678C17.925 2.21129 17.9202 2.24957 18.4158 3.24565C18.5628 3.54034 18.7406 4.02276 18.8113 4.31773C18.9698 4.97915 19.3514 5.11848 19.6706 4.63155C19.7742 4.47337 20.1674 3.99039 20.5442 3.55807C21.2859 2.70778 21.3652 2.44349 21.0796 1.77475C20.9968 1.58111 20.8882 1.22984 20.8384 0.993982L20.7474 0.565039L19.8836 0.534078L19.0196 0.503399L18.6905 1.01678ZM21.8026 0.678185C21.4978 1.4719 22.3261 1.99682 22.9701 1.41814C23.2296 1.18481 23.5319 0.942757 23.6414 0.879992C24.0399 0.652573 23.7081 0.511279 22.7751 0.511279C22.0517 0.511279 21.8536 0.545337 21.8026 0.678185ZM9.67148 1.17608C9.38636 1.4612 9.60337 3.89582 9.97602 4.59524C10.1466 4.91554 10.3222 5.05374 10.9366 5.35265C11.2021 5.48184 11.6178 5.72192 11.8607 5.88629C12.5781 6.37153 12.754 5.90769 12.758 3.52007C12.7585 3.1432 11.9195 2.33485 10.8013 1.63514C9.73059 0.965273 9.83839 1.00918 9.67148 1.17608ZM24.0101 1.72634C23.5049 2.08998 22.9034 2.53891 22.674 2.72354L22.2563 3.05932L22.2451 4.57611C22.2313 6.40896 22.2704 6.47595 23.0377 5.93668C23.5547 5.57331 24.0042 5.31634 24.7371 4.96564C25.4529 4.62311 25.6924 0.960489 24.993 1.05618C24.9578 1.06097 24.5156 1.36241 24.0101 1.72634ZM17.4707 3.85839C17.1577 4.11986 17.0508 4.33912 16.7792 5.27609L16.5067 6.21645L16.7434 6.91728C17.0952 7.95896 17.6342 8.5275 17.7716 8.00202C17.8045 7.87593 17.945 7.55985 18.0832 7.2995C18.3759 6.74925 18.4215 5.85843 18.1862 5.29523C18.1045 5.09934 18.0043 4.74357 17.9641 4.50433C17.8628 3.90567 17.688 3.67685 17.4707 3.85839ZM1.28289 4.42074C1.15426 4.5488 1.1354 4.85137 1.17931 6.08106L1.23307 7.5849L1.60826 7.95248L1.98344 8.32007L3.0558 8.16639C3.64546 8.08196 4.42904 7.98288 4.79718 7.94657C5.71052 7.85651 5.81353 7.71043 5.43862 7.03887C5.27791 6.75122 5.14647 6.42585 5.14647 6.3158C5.14647 6.20575 5.05922 6.00085 4.95255 5.86012C4.84559 5.71939 4.6998 5.40191 4.62831 5.1545C4.40595 4.38612 4.14054 4.26425 2.68906 4.26425C1.73688 4.26425 1.40251 4.3014 1.28289 4.42074ZM30.7319 4.34081C30.623 4.44945 30.2365 5.33998 30.2365 5.48184C30.2365 5.54686 30.01 6.04757 29.733 6.59445C29.1276 7.79008 29.1327 7.79993 30.4262 7.97866C30.941 8.04987 31.6849 8.16921 32.079 8.24379C33.3942 8.49317 33.7992 7.95248 33.8648 5.85927C33.9155 4.24736 33.9338 4.26425 32.1071 4.26425C31.3928 4.26425 30.7738 4.29859 30.7319 4.34081ZM20.4162 5.04164C19.4592 6.25951 19.2906 6.81595 19.4738 8.15204L19.5406 8.63896L19.8552 8.50668C20.028 8.43378 20.4198 8.06507 20.7258 7.68707L21.2819 6.99975L21.3213 5.84492C21.3591 4.74836 21.2817 4.37149 21.0196 4.37149C20.9774 4.37149 20.7058 4.67293 20.4162 5.04164ZM5.53967 4.54993C5.35475 4.73513 5.80762 5.94062 6.43949 6.94458C6.49494 7.03324 6.5867 7.23589 6.64327 7.39519C6.81778 7.88831 7.40884 8.09293 9.25858 8.30009C10.0225 8.38565 10.1505 8.26096 9.87329 7.70199C9.76887 7.49202 9.62026 7.07884 9.54258 6.78387C9.20539 5.50013 8.82401 5.15366 7.42488 4.85954C7.02408 4.7751 6.56165 4.65491 6.397 4.59243C6.0584 4.4638 5.64634 4.44326 5.53967 4.54993ZM13.6173 5.3732C13.6173 6.71829 14.5492 8.72959 15.1872 8.7614C15.6283 8.78335 15.6429 6.6907 15.2066 6.03012C13.9384 4.11114 13.6173 3.97829 13.6173 5.3732ZM28.3826 4.63043C28.1588 4.71177 27.7971 4.81112 27.5784 4.85194C27.2255 4.91723 25.8404 5.49422 25.8404 5.57557C25.8404 5.59302 25.7394 5.87222 25.6158 6.19562C24.7169 8.55002 24.6834 8.45967 26.3623 8.21762C28.0541 7.97359 28.0977 7.93897 28.9841 6.14045C29.7316 4.62423 29.5633 4.20205 28.3826 4.63043ZM10.5288 6.43683C10.3853 6.60964 10.5153 7.18945 10.7599 7.46866C10.8432 7.56379 10.9482 7.76222 10.9932 7.9097C11.1362 8.37777 11.5758 8.98262 11.9322 9.2016C13.4546 10.1374 13.6977 10.004 13.2117 8.49936C12.8717 7.44755 10.9293 5.95413 10.5288 6.43683ZM23.4815 6.62878C22.28 7.4346 21.8285 7.93729 21.6965 8.61645C21.629 8.96489 21.54 9.33248 21.4992 9.43324C21.4038 9.66854 21.9287 9.82615 22.1849 9.63898C22.2789 9.57003 22.5201 9.43859 22.7208 9.34655C23.1587 9.14615 23.6073 8.71524 23.8297 8.28095C24.7605 6.46357 24.6327 5.85702 23.4815 6.62878ZM3.9134 8.92746C2.77884 9.09577 2.93364 9.03694 2.85652 9.3305C2.78757 9.59226 4.45831 11.4049 5.06344 11.7252C5.37783 11.8915 6.27231 11.8068 7.48005 11.4969C8.45952 11.2453 8.47528 11.1555 7.69311 10.2796C7.38351 9.93311 6.98102 9.4642 6.79892 9.23819C6.40487 8.74929 5.65591 8.66851 3.9134 8.92746ZM28.554 8.8706C28.4248 8.92549 28.232 9.10478 28.1253 9.26915C27.8802 9.64686 27.7206 9.83657 27.154 10.422C26.3884 11.2132 26.6249 11.4592 28.3831 11.7012C29.6221 11.8715 29.8355 11.8259 30.4606 11.2568C30.7206 11.0201 31.1637 10.6216 31.4446 10.3713C32.3323 9.581 32.2518 9.04398 31.2301 8.93759C29.943 8.80361 28.7806 8.77434 28.554 8.8706ZM8.21324 9.15347C8.09419 9.46335 8.14682 9.57622 8.65851 10.111C9.40579 10.892 10.0627 11.3407 10.4582 11.3407C10.6436 11.3407 11.0174 11.4077 11.289 11.4896C11.5609 11.5712 11.8097 11.6114 11.8424 11.5788C12.1655 11.2554 11.1646 9.80223 10.4945 9.62182C10.271 9.56158 10.0627 9.47152 10.032 9.42198C10.0014 9.37244 9.67598 9.29786 9.30924 9.2562C8.94222 9.21482 8.55972 9.13686 8.45952 9.08338C8.32864 9.0133 8.2594 9.033 8.21324 9.15347ZM16.5892 9.26239C16.4786 9.37272 16.4938 10.0541 16.6069 10.0541C16.7322 10.0541 16.8138 9.60605 16.7316 9.37104C16.6956 9.26887 16.6317 9.21989 16.5892 9.26239ZM25.5725 9.25311C25.5134 9.27478 25.1759 9.37441 24.8224 9.47433C23.9915 9.70879 23.2778 10.4313 23.0059 11.3128C22.9242 11.5774 23.1801 11.5799 24.519 11.3266C25.1827 11.2011 26.9024 9.71047 26.7729 9.373C26.7093 9.20779 25.9102 9.12786 25.5725 9.25311ZM1.27163 9.59029C1.0656 9.8391 1.09741 13.2349 1.30766 13.4449C1.42728 13.5648 1.6364 13.4986 2.57507 13.0427C4.27902 12.2155 4.34431 12.1181 3.58015 11.5484C3.30855 11.3457 2.84555 10.8903 2.55142 10.5366C1.76869 9.5948 1.45796 9.36513 1.27163 9.59029ZM32.9934 9.8664C32.8443 10.0581 32.3306 10.619 31.8518 11.1127C31.1935 11.791 30.9968 12.0601 31.0457 12.2146C31.1237 12.46 33.186 13.4854 33.6017 13.4854H33.8823V11.6686C33.8823 9.91284 33.8741 9.84614 33.6439 9.68486C33.3236 9.46082 33.3047 9.46589 32.9934 9.8664ZM8.09532 12.2729C7.28443 12.3264 7.124 12.3843 6.99369 12.6703C6.84817 12.9897 6.85521 12.9959 7.95655 13.5327L8.7832 13.9352L9.08802 13.7182C9.25549 13.5988 9.52597 13.2563 9.68894 12.9568L9.98503 12.4128L9.70329 12.3058C9.43027 12.2019 9.22819 12.1977 8.09532 12.2729ZM25.1742 12.3086C24.8097 12.5284 25.6381 13.8068 26.1453 13.8068C26.3513 13.8068 27.823 13.1814 28.0828 12.9838C28.2793 12.8341 27.8385 12.4215 27.4276 12.3705C26.3062 12.2307 25.347 12.2045 25.1742 12.3086ZM3.9134 13.39C3.07719 13.708 2.07689 14.182 1.89112 14.3486C1.72337 14.4989 2.18356 14.951 2.83964 15.2805C4.94073 16.3363 5.04036 16.3495 5.99338 15.6982C6.3939 15.4246 6.80511 15.2009 6.90728 15.2009C7.10402 15.2009 7.71985 14.6467 7.71985 14.4697C7.71985 14.4122 7.53887 14.2712 7.31792 14.1561C6.6064 13.786 5.86672 13.3689 5.64071 13.2107C5.31281 12.981 4.86755 13.0272 3.9134 13.39ZM29.2675 13.2532C28.8383 13.4806 27.3066 14.3545 27.2494 14.4044C27.1594 14.4829 27.6893 15.0872 27.9072 15.1544C28.0383 15.195 28.4743 15.4224 28.8762 15.6594C29.2838 15.9003 29.7369 16.0872 29.9019 16.0824C30.281 16.0717 31.5279 15.6549 31.7378 15.4686C31.8262 15.3903 32.1054 15.2437 32.3585 15.1429C32.6363 15.0323 32.8778 14.8446 32.9687 14.6687L33.1195 14.3773L32.1178 13.8766C30.377 13.0069 29.9205 12.907 29.2675 13.2532ZM7.48033 15.8795C6.37673 16.4745 6.46849 16.7019 7.81273 16.7019C8.51356 16.7019 8.68497 16.5851 8.68497 16.1075C8.68497 15.4261 8.41534 15.3751 7.48033 15.8795ZM1.2843 15.6245C1.14666 15.7053 1.12612 16.007 1.15145 17.5753C1.18663 19.7645 1.26572 19.9761 1.82273 19.3715C2.00764 19.1711 2.5897 18.5657 3.11659 18.0262C3.6432 17.4866 4.07439 16.9929 4.07439 16.9293C4.07439 16.8491 1.51622 15.4801 1.45205 15.5257C1.44952 15.5277 1.37408 15.5719 1.2843 15.6245ZM26.2961 15.7495C26.1332 15.9169 26.1239 16.2158 26.273 16.4945C26.4585 16.8409 28.1993 16.7514 28.1993 16.3957C28.1993 16.014 26.5753 15.4626 26.2961 15.7495ZM32.032 16.2338L30.8785 16.817L31.0348 17.1081C31.4361 17.8553 33.3236 19.6001 33.6121 19.4906L33.8873 19.3859L33.8578 17.5345L33.8285 15.6833L33.5068 15.667C33.3056 15.6569 32.7542 15.8685 32.032 16.2338ZM28.957 17.3557C28.8135 17.4132 28.3311 17.5091 27.885 17.5691C27.4386 17.629 26.9891 17.7028 26.8858 17.7335C26.5931 17.8196 26.7611 18.2992 27.246 18.7616C27.4754 18.9803 27.6632 19.1976 27.6632 19.2443C27.6632 19.2908 27.8574 19.5413 28.0946 19.801L28.5261 20.2731L30.1316 20.2004C32.665 20.0862 32.6523 20.1053 31.1834 18.6293C29.9103 17.3501 29.5242 17.1292 28.957 17.3557ZM5.03924 17.4824C4.65139 17.6741 2.78757 19.5553 2.78757 19.7552C2.78757 20.0234 3.19146 20.1112 4.79802 20.1928C6.54419 20.2815 6.40234 20.3369 7.42713 19.1641C8.54734 17.8823 8.52173 17.7422 7.13273 17.5516C5.74232 17.3614 5.31282 17.347 5.03924 17.4824ZM8.10263 19.6696C7.99737 19.9443 8.28783 20.1926 8.46487 19.9789C8.62642 19.7842 8.54199 19.4898 8.32442 19.4898C8.24055 19.4898 8.14063 19.5705 8.10263 19.6696ZM26.3299 19.671C26.2303 19.9308 26.3932 20.0316 26.7543 19.9339L27.0735 19.8472L26.7355 19.6713C26.4219 19.5078 26.3927 19.5078 26.3299 19.671ZM1.73266 21.0811C1.23307 21.5804 1.19085 21.7411 1.15764 23.2726C1.11908 25.0578 1.02141 24.9543 2.74422 24.9565C4.28999 24.9585 4.22357 25.0035 4.79943 23.554C5.01982 22.999 5.30465 22.3761 5.43244 22.1698C5.88333 21.4422 5.7229 21.257 4.52079 21.1166C2.20692 20.8467 1.96993 20.8436 1.73266 21.0811ZM31.7378 20.9953C31.4133 21.04 30.8496 21.0817 30.4848 21.0873C29.1439 21.109 29.0477 21.286 29.7006 22.5326C29.9365 22.9829 30.1293 23.4412 30.1293 23.5506C30.1293 23.6601 30.2258 23.8723 30.3438 24.0224C30.4617 24.1724 30.5582 24.3477 30.5582 24.4122C30.5582 24.9838 33.1547 25.2566 33.6723 24.739C33.9988 24.4125 33.9521 22.4746 33.598 21.6668C33.2479 20.8675 33.0855 20.809 31.7378 20.9953ZM7.59798 21.0893C6.91995 21.1841 6.85915 21.252 6.1175 22.7409C5.39641 24.189 5.39021 24.2115 5.65591 24.4499C5.94187 24.7069 7.98273 24.2582 8.44601 23.8369C8.87439 23.4468 8.67681 20.9536 8.22169 21.0051C8.15217 21.013 7.87156 21.0507 7.59798 21.0893ZM26.5911 21.0648C26.3074 21.1802 26.2728 21.3434 26.2711 22.5779L26.2694 23.7896L26.6716 23.9497C26.8925 24.0378 27.17 24.1566 27.288 24.214C28.4541 24.7801 29.7921 24.614 29.3908 23.9528C29.279 23.7685 29.1546 23.4614 29.1141 23.2706C29.0738 23.0795 28.999 22.8974 28.9477 22.8659C28.8968 22.8343 28.6584 22.4527 28.4183 22.0178C28.1785 21.583 27.9165 21.2019 27.8363 21.1712C27.568 21.0682 26.7538 20.9987 26.5911 21.0648ZM7.60276 25.1226C7.21407 25.254 6.54673 25.4237 6.11976 25.5C5.13353 25.6765 4.71781 26.0142 4.71781 26.6397C4.71781 26.8685 4.65251 27.307 4.57286 27.6143C4.31336 28.6146 4.38203 28.647 6.58332 28.5575C9.55946 28.437 10.2974 28.0469 9.42661 27.0551C9.1885 26.784 9.07395 26.5203 9.01765 26.1133C8.86398 25.0044 8.56732 24.7967 7.60276 25.1226ZM26.2792 25.1071C26.2114 25.189 26.1022 25.5591 26.0369 25.9295C25.9429 26.4632 25.8435 26.6776 25.5579 26.9636C25.1503 27.3709 25.0822 27.8229 25.3864 28.0985C26.1222 28.7641 30.914 28.7298 30.5011 28.0616C30.4685 28.0089 30.3711 27.5907 30.2847 27.1319C30.028 25.7688 30.0378 25.7812 29.0265 25.5614C28.5422 25.4558 27.8681 25.2771 27.5289 25.164C26.7977 24.9199 26.4478 24.9039 26.2792 25.1071ZM0.938104 25.9318C0.834809 25.9917 0.750369 26.1648 0.750369 26.3163C0.750369 26.4713 0.605137 26.7573 0.417404 26.9709C0.0723354 27.3641 0.032087 27.8795 0.319175 28.2254C0.431195 28.3605 1.56238 28.4942 2.76956 28.515C3.52133 28.528 3.61674 28.4114 3.69161 27.3897C3.72567 26.9287 3.80166 26.4609 3.86049 26.3506C4.10705 25.8901 1.62149 25.5335 0.938104 25.9318ZM31.6306 25.9124L31.1479 25.9765L31.1158 26.4764C31.0975 26.7584 31.1558 27.1491 31.2498 27.374C31.3413 27.5929 31.4161 27.8809 31.4161 28.0137C31.4161 28.4582 31.6444 28.5271 32.9445 28.4759C34.1252 28.4294 34.4438 28.3484 34.7852 28.007C35.047 27.7452 34.9884 27.4624 34.5792 27.0095C34.3729 26.7809 34.204 26.5262 34.204 26.4432C34.204 25.8507 33.3754 25.6799 31.6306 25.9124Z" fill="#019CDE"/>
<path d="M14.4831 9.31738C14.4421 9.39944 14.3797 9.47216 14.3496 9.55811C14.3364 9.59579 14.3192 9.63276 14.3029 9.66918C14.2895 9.69912 14.2916 9.73388 14.2791 9.76356C14.2641 9.79915 14.2834 9.85893 14.2862 9.89656C14.2894 9.93965 14.3051 9.99096 14.3244 10.0296C14.3529 10.0866 14.3684 10.1294 14.4144 10.1754C14.4509 10.2119 14.4945 10.2507 14.5346 10.2822C14.5786 10.3168 14.6229 10.3561 14.6719 10.3833C14.7124 10.4058 14.7553 10.4241 14.7963 10.4462C14.8385 10.4689 14.8867 10.5163 14.9336 10.5267C14.969 10.5346 15.0045 10.5615 15.0408 10.5615C15.0873 10.5615 15.1027 10.5072 15.1095 10.4667C15.1206 10.3997 15.1266 10.3375 15.1266 10.2698C15.1266 10.2253 15.1053 10.1976 15.0856 10.1583C15.0471 10.0813 14.9636 10.0347 14.9226 9.96091C14.8772 9.87926 14.8047 9.79277 14.7453 9.71637C14.7177 9.68093 14.7031 9.63347 14.6719 9.60054C14.643 9.57012 14.6204 9.52326 14.6032 9.4847C14.5792 9.43062 14.5212 9.3909 14.4917 9.33931C14.4858 9.32904 14.4663 9.35231 14.4659 9.36028C14.4638 9.40061 14.4653 9.44198 14.4659 9.48232C14.467 9.55027 14.5072 9.60799 14.5393 9.66584C14.6042 9.78259 14.6762 9.89578 14.7353 10.0157C14.7647 10.0756 14.7883 10.1603 14.8349 10.2097C14.909 10.2885 14.6739 10.0652 14.5899 9.99714C14.5447 9.96057 14.5004 9.92317 14.4545 9.8875C14.4252 9.8647 14.4604 9.90479 14.4659 9.91134C14.542 10.0017 14.6135 10.0972 14.6957 10.1821C14.7095 10.1963 14.7751 10.2615 14.7248 10.2112C14.6333 10.1197 14.5387 10.0113 14.4245 9.94852C14.4187 9.94536 14.4029 9.93116 14.4078 9.94756C14.4218 9.99462 14.4588 10.0404 14.485 10.081C14.5324 10.1546 14.5752 10.2504 14.6375 10.3127C14.6974 10.3725 14.5184 10.1915 14.4497 10.1421C14.4277 10.1262 14.3587 10.0832 14.383 10.0953C14.4305 10.1191 14.4739 10.1506 14.5179 10.1802C14.6269 10.2534 14.7264 10.3478 14.842 10.4104C14.9167 10.4508 14.8218 10.2929 14.8091 10.275C14.786 10.2426 14.695 10.1571 14.7786 10.2288C14.8361 10.2781 14.8988 10.3224 14.955 10.3728C14.9917 10.4056 14.8915 10.2975 14.8573 10.2622C14.8452 10.2497 14.8224 10.2348 14.8144 10.2188C14.8049 10.1999 14.8528 10.2368 14.8702 10.2488C14.9205 10.2838 14.977 10.3163 15.0237 10.3556C15.0284 10.3596 14.9633 10.2831 14.9464 10.266C14.8529 10.1711 14.7746 10.0637 14.6804 9.96949" stroke="#019CDE" stroke-width="0.5" stroke-linecap="round"/>
<path d="M20.6576 9.59863C20.61 9.59863 20.5403 9.66215 20.505 9.69492C20.4684 9.72889 20.4228 9.7545 20.383 9.78549C20.2353 9.90035 20.1187 10.0466 19.9969 10.1888C19.9347 10.2613 19.8998 10.3316 19.9025 10.4309C19.9052 10.5315 19.9922 10.6174 20.0655 10.675C20.0912 10.6952 20.2454 10.776 20.2714 10.7174C20.2966 10.6609 20.3386 10.614 20.3615 10.5553C20.3869 10.4906 20.388 10.4386 20.3982 10.3709C20.4147 10.2622 20.411 10.1508 20.4431 10.0448C20.4586 9.99342 20.4624 9.93906 20.4793 9.88846C20.4893 9.8584 20.505 9.82633 20.5117 9.79598C20.5159 9.77687 20.5264 9.75982 20.5327 9.74116C20.5353 9.73332 20.4851 9.77208 20.4788 9.77834C20.4354 9.82179 20.4177 9.8801 20.3906 9.93422C20.2938 10.1279 20.1987 10.3167 20.1261 10.521C20.1133 10.5568 20.0998 10.5971 20.0998 10.6354C20.0998 10.6766 20.1152 10.5541 20.1165 10.5129C20.1191 10.4332 20.0665 10.1991 20.0665 10.2789C20.0665 10.3189 20.189 10.6592 20.2243 10.6435C20.2409 10.6361 20.2402 10.5754 20.2409 10.5658C20.2475 10.4773 20.2457 10.3881 20.2457 10.2994C20.2457 10.1799 20.2457 10.0604 20.2457 9.94089C20.2457 9.88616 20.2611 10.0504 20.2819 10.1011C20.285 10.1084 20.3351 10.2139 20.3401 10.2107C20.3675 10.1929 20.349 10.0592 20.3487 10.0296C20.3486 10.0232 20.3372 9.93165 20.3229 9.97522C20.2901 10.0755 20.2855 10.3953 20.2886 10.2898C20.2894 10.2635 20.2964 10.2318 20.3077 10.2078C20.3205 10.1806 20.2992 10.2674 20.2977 10.2975C20.2973 10.3047 20.2992 10.3836 20.3015 10.3823C20.3031 10.3813 20.322 10.3442 20.322 10.3508C20.322 10.371 20.2861 10.4289 20.3101 10.4481C20.3329 10.4664 20.3189 10.4985 20.3139 10.521C20.307 10.5519 20.3058 10.5854 20.28 10.5425" stroke="#019CDE" stroke-width="0.5" stroke-linecap="round"/>
<path d="M16.6886 8.75391C16.6368 8.76038 16.5811 9.10561 16.5811 9.1661C16.5811 9.33035 16.5273 9.49642 16.5273 9.66392C16.5273 9.83995 16.5448 10.2622 16.7693 10.3121C17.0565 10.3759 16.9214 9.69866 16.8848 9.57033C16.8528 9.45837 16.8122 9.32519 16.7792 9.20991C16.7614 9.14753 16.7218 8.89728 16.6528 8.89728" stroke="#019CDE" stroke-width="0.5" stroke-linecap="round"/>
<path d="M16.6989 9.54274C16.6989 9.64501 16.6989 9.74728 16.6989 9.84955C16.6989 9.88375 16.7106 10.0183 16.7106 9.9113C16.7106 9.78688 16.7033 9.67728 16.669 9.55705C16.6677 9.5525 16.6556 9.48244 16.6462 9.48619C16.629 9.49308 16.6403 9.59867 16.641 9.6136C16.6477 9.74007 16.7329 9.88387 16.7782 10.0017C16.7942 10.0433 16.8037 10.0852 16.8159 10.1278C16.832 10.1842 16.8393 10.2008 16.8393 10.1226C16.8393 9.9181 16.7808 9.72326 16.7808 9.51934C16.7808 9.39649 16.7808 9.27364 16.7808 9.15079C16.7808 9.08253 16.7808 9.01428 16.7808 8.94603C16.7808 8.89968 16.7672 8.79346 16.7223 8.78223" stroke="#019CDE" stroke-width="0.5" stroke-linecap="round"/>
<path d="M18.5393 8.75391C18.5393 9.08243 18.593 9.40001 18.593 9.72963C18.593 9.89298 18.5113 9.98091 18.4676 10.1339C18.4483 10.2015 18.3954 10.2843 18.3521 10.34C18.3076 10.3972 18.2838 10.41 18.2306 10.4525C18.1959 10.4803 18.1186 10.4923 18.0733 10.4923C18.0063 10.4923 17.9882 10.4375 17.9618 10.3848C17.8961 10.2533 17.9658 10.0319 17.9658 9.89192C17.9658 9.8157 18.0324 9.68619 18.0644 9.61513C18.1021 9.53128 18.1713 9.46235 18.2356 9.39808C18.2913 9.34241 18.4676 9.19821 18.4676 9.11233C18.4676 9.06277 18.5074 8.99471 18.4855 8.95104" stroke="#019CDE" stroke-width="0.5" stroke-linecap="round"/>
<path d="M18.3611 9.84509C18.3611 9.93869 18.3611 10.0323 18.3611 10.1259C18.3611 10.1965 18.3803 9.98594 18.3897 9.91594C18.3912 9.90512 18.4147 9.74109 18.4021 9.74109C18.3766 9.74109 18.3515 9.8608 18.3468 9.88019C18.3272 9.96101 18.3666 9.8462 18.3728 9.82559C18.3802 9.80098 18.4399 9.50806 18.4365 9.50903C18.4049 9.51807 18.3993 9.63173 18.3969 9.65594C18.3891 9.73387 18.4051 9.59027 18.4079 9.57599C18.4116 9.55691 18.4501 9.40488 18.4287 9.44338C18.3767 9.53695 18.3675 9.66314 18.3442 9.76644C18.3264 9.84523 18.3377 9.78845 18.3377 9.73914C18.3377 9.72468 18.3485 9.59675 18.326 9.59939C18.2759 9.60528 18.2418 9.86022 18.2324 9.89839C18.2174 9.95948 18.2027 10.0203 18.1921 10.0823C18.1918 10.084 18.1779 10.1504 18.1746 10.1421C18.1679 10.1254 18.1826 10.0894 18.1856 10.0739C18.1972 10.0154 18.2106 9.95625 18.2181 9.89709C18.2217 9.86906 18.2166 9.77813 18.1915 9.85354C18.1648 9.93359 18.1622 10.0172 18.1622 10.1005C18.1622 10.1202 18.1602 10.1211 18.1648 10.1025C18.1683 10.0887 18.184 10.0509 18.1739 10.0609C18.1497 10.0851 18.1593 10.1072 18.1882 10.0583C18.2228 9.99969 18.2436 9.93578 18.2558 9.86849C18.2686 9.79803 18.2675 9.72935 18.2675 9.65789C18.2675 9.59394 18.2924 9.539 18.302 9.47653C18.3093 9.42905 18.3255 9.39545 18.3403 9.35108C18.36 9.29196 18.3534 9.21695 18.3787 9.16127C18.4229 9.06408 18.5249 8.9455 18.5249 8.83887" stroke="#019CDE" stroke-width="0.5" stroke-linecap="round"/>
<path d="M18.2226 10.208C18.1963 10.2113 18.1627 10.2731 18.1433 10.2925C18.1371 10.2987 18.12 10.301 18.1179 10.3081C18.1168 10.3122 18.1173 10.3415 18.1173 10.325" stroke="#019CDE" stroke-width="0.5" stroke-linecap="round"/>
</svg>
