<svg width="110" height="89" viewBox="0 0 110 89" fill="none" xmlns="http://www.w3.org/2000/svg">
<mask id="path-1-inside-1_1451_3046" fill="white">
<path fill-rule="evenodd" clip-rule="evenodd" d="M0.677597 0.454041C0.304303 0.621227 0 1.0308 0 1.36428C0 2.81058 0.767829 5.35376 1.37023 5.89866C1.73026 6.22419 2.17608 7.05481 2.36184 7.74391C2.77582 9.28131 3.2022 9.38304 8.08776 9.1097L11.6261 8.91156L11.7261 6.80005C11.8225 4.7832 11.3404 1.10156 10.9264 0.684035C10.5858 0.341701 1.38792 0.134706 0.677597 0.454041ZM14.7504 0.539846C14.4019 0.888372 14.3825 1.77207 14.654 4.88846C15.0256 9.14066 15.3635 9.71299 17.5227 9.74041C18.3666 9.75191 24.8904 11.4432 26.1616 11.9811C27.0603 12.3614 27.7034 11.0478 27.4849 9.27689C27.369 8.33392 27.2116 6.0632 27.1355 4.22945C27.0594 2.39571 26.8746 0.782226 26.7251 0.643346C26.1987 0.155055 15.2299 0.0595164 14.7504 0.539846ZM36.0822 0.288627C35.0145 0.571694 34.8323 1.1909 35.6815 1.64558C36.0539 1.84461 37.0579 2.61331 37.9133 3.35282C40.184 5.31837 41.1119 4.87785 41.1119 1.83223C41.1119 0.261207 38.8271 -0.440271 36.0822 0.288627ZM84.0505 0.270054C82.8661 0.490315 82.5821 1.00426 82.6529 2.79289C82.6909 3.74824 82.5981 5.9712 82.4468 7.73152C82.0832 11.959 82.4035 12.5215 84.6742 11.6547C85.5136 11.3335 86.9361 10.9461 87.8348 10.7922C93.4554 9.83241 94.4506 9.32289 94.8098 7.21581C94.9672 6.29496 95.2883 4.5196 95.5227 3.27056C95.8553 1.50936 95.8606 0.92553 95.5475 0.665462C95.1654 0.347896 85.4296 0.0135245 84.0505 0.270054ZM101.107 0.317816C99.3583 0.477925 99.2459 0.545156 98.8647 1.66592C98.157 3.7447 97.6608 6.51787 97.7793 7.73152L97.8934 8.91156L101.738 9.19374C106.137 9.5175 107.161 9.2707 107.161 7.88809C107.161 7.36707 107.548 6.65675 108.13 6.11185C109.786 4.5594 110.639 0.893684 109.435 0.493852C108.729 0.258553 103.063 0.139129 101.107 0.317816ZM44.9236 0.583194C44.2611 1.00426 43.8356 2.5337 43.602 5.32899L43.3818 7.97744L45.2014 9.96067C46.2018 11.0514 47.4535 12.5127 47.9816 13.208C49.2908 14.9294 49.5748 14.8232 50.6831 12.1969C51.2112 10.9461 52.003 9.20435 52.4435 8.32773C53.543 6.13661 52.8575 3.61997 50.47 1.07856C49.734 0.294817 45.9135 -0.045746 44.9236 0.583194ZM54.5912 0.647766C54.1489 0.927295 54.1596 1.04141 54.6735 1.55535C55.3555 2.23737 56.1684 1.73757 55.8261 0.845913C55.5935 0.241741 55.3069 0.195744 54.5912 0.647766ZM58.7417 1.90653C56.3356 5.66071 56.3206 5.78101 57.8784 8.91156C58.3401 9.83772 58.8992 11.3539 59.1212 12.2809C59.6192 14.3597 60.8187 14.7976 61.8218 13.2672C62.1474 12.7701 63.3831 11.2522 64.5676 9.89345C66.8985 7.22112 67.1479 6.39049 66.2501 4.28872C65.99 3.68013 65.6485 2.57616 65.492 1.83488L65.2063 0.486773L62.4915 0.389468L59.7758 0.293047L58.7417 1.90653ZM68.5226 0.842376C67.5645 3.3369 70.1679 4.98665 72.1918 3.16795C73.0074 2.43463 73.9574 1.67389 74.3015 1.47663C75.5541 0.761881 74.5112 0.317816 71.5788 0.317816C69.3054 0.317816 68.6827 0.424852 68.5226 0.842376ZM30.3961 2.4072C29.5 3.30329 30.182 10.9549 31.3532 13.1531C31.8893 14.1598 32.4413 14.5941 34.3723 15.5336C35.2065 15.9396 36.513 16.6941 37.2764 17.2107C39.5312 18.7357 40.0841 17.278 40.0964 9.77402C40.0982 8.58957 37.4613 6.04904 33.9468 3.84996C30.5819 1.74465 30.9206 1.88264 30.3961 2.4072ZM75.4604 4.13657C73.8725 5.27945 71.9822 6.69036 71.2612 7.27065L69.9485 8.32596L69.9131 13.093C69.8698 18.8534 69.9927 19.0639 72.4041 17.3691C74.0291 16.2271 75.4418 15.4194 77.7452 14.3173C79.9947 13.2407 80.7475 1.72962 78.5493 2.03038C78.4388 2.04541 77.0491 2.9928 75.4604 4.13657ZM54.9079 10.8373C53.9243 11.6591 53.5881 12.3482 52.7345 15.2929L51.8782 18.2483L52.6222 20.451C53.7279 23.7248 55.4219 25.5117 55.8535 23.8601C55.957 23.4639 56.3984 22.4705 56.8328 21.6522C57.7527 19.9229 57.896 17.1231 57.1565 15.3531C56.9 14.7374 56.5851 13.6193 56.4586 12.8674C56.1401 10.9859 55.5908 10.2667 54.9079 10.8373ZM4.03193 12.6047C3.62768 13.0072 3.56842 13.9581 3.70641 17.8229L3.87537 22.5492L5.05452 23.7045L6.23366 24.8597L9.60394 24.3767C11.4571 24.1114 13.9198 23.8 15.0769 23.6859C17.9473 23.4028 18.2711 22.9437 17.0928 20.8331C16.5877 19.9291 16.1746 18.9065 16.1746 18.5606C16.1746 18.2147 15.9004 17.5708 15.5652 17.1285C15.229 16.6862 14.7708 15.6884 14.5461 14.9108C13.8473 12.4959 13.0131 12.1129 8.45132 12.1129C5.45877 12.1129 4.40788 12.2296 4.03193 12.6047ZM96.586 12.3535C96.2437 12.6949 95.0291 15.4937 95.0291 15.9396C95.0291 16.1439 94.317 17.7176 93.4466 19.4363C91.5439 23.1941 91.5598 23.225 95.6253 23.7867C97.2432 24.0105 99.5812 24.3856 100.82 24.62C104.953 25.4037 106.226 23.7045 106.432 17.1258C106.592 12.0598 106.649 12.1129 100.908 12.1129C98.663 12.1129 96.7178 12.2208 96.586 12.3535ZM64.1651 14.5561C61.1575 18.3837 60.6276 20.1325 61.2035 24.3316L61.4132 25.862L62.4021 25.4462C62.9453 25.2171 64.1766 24.0583 65.1381 22.8703L66.8861 20.7101L67.0099 17.0807C67.1285 13.6344 66.8852 12.4499 66.0616 12.4499C65.929 12.4499 65.0753 13.3973 64.1651 14.5561ZM17.4104 13.0107C16.8292 13.5928 18.2525 17.3814 20.2384 20.5368C20.4127 20.8154 20.7011 21.4523 20.8789 21.953C21.4273 23.5028 23.2849 24.1459 29.0984 24.7969C31.4992 25.0658 31.9017 24.674 31.0303 22.9172C30.7022 22.2573 30.2351 20.9587 29.991 20.0317C28.9312 15.9971 27.7326 14.9082 23.3353 13.9838C22.0757 13.7184 20.6223 13.3407 20.1048 13.1443C19.0407 12.74 17.7457 12.6755 17.4104 13.0107ZM42.7971 15.5981C42.7971 19.8256 45.7259 26.1468 47.7313 26.2468C49.1174 26.3158 49.1634 19.7389 47.7923 17.6627C43.8064 11.6317 42.7971 11.2141 42.7971 15.5981ZM89.2024 13.2637C88.4991 13.5194 87.3624 13.8316 86.6751 13.9599C85.5658 14.1651 81.2128 15.9785 81.2128 16.2341C81.2128 16.289 80.8952 17.1665 80.5069 18.1829C77.6815 25.5824 77.5763 25.2985 82.8528 24.5377C88.1701 23.7708 88.3072 23.662 91.0927 18.0095C93.4422 13.2442 92.9132 11.9174 89.2024 13.2637ZM33.0905 18.941C32.6394 19.4841 33.0481 21.3063 33.8168 22.1839C34.0786 22.4828 34.4086 23.1065 34.5501 23.57C34.9995 25.0411 36.3812 26.942 37.5011 27.6302C42.2858 30.5715 43.0501 30.1522 41.5224 25.4232C40.4538 22.1175 34.3493 17.4239 33.0905 18.941ZM73.7991 19.5443C70.0228 22.0768 68.6039 23.6567 68.1891 25.7912C67.9768 26.8863 67.6972 28.0416 67.569 28.3583C67.2691 29.0978 68.9188 29.5931 69.7238 29.0049C70.0193 28.7882 70.7774 28.3751 71.4081 28.0858C72.7845 27.456 74.1945 26.1017 74.8933 24.7368C77.8187 19.025 77.4171 17.1187 73.7991 19.5443ZM12.2993 26.7687C8.73351 27.2976 9.22002 27.1128 8.97765 28.0354C8.76092 28.858 14.0118 34.5548 15.9137 35.5614C16.9018 36.0842 19.713 35.818 23.5087 34.844C26.5871 34.0532 26.6366 33.771 24.1784 31.0182C23.2053 29.9293 21.9403 28.4556 21.368 27.7452C20.1296 26.2087 17.7757 25.9548 12.2993 26.7687ZM89.7411 26.59C89.3351 26.7625 88.7291 27.3259 88.3939 27.8425C87.6234 29.0297 87.1218 29.6259 85.3412 31.4658C82.9351 33.9524 83.6781 34.7255 89.2041 35.4862C93.0981 36.0214 93.7686 35.8781 95.7333 34.0895C96.5506 33.3455 97.9429 32.093 98.8258 31.3066C101.616 28.8227 101.363 27.1349 98.1517 26.8005C94.1065 26.3794 90.4532 26.2874 89.7411 26.59ZM25.8131 27.479C25.4389 28.4529 25.6043 28.8076 27.2125 30.4883C29.561 32.9431 31.6257 34.3531 32.8685 34.3531C33.4514 34.3531 34.6262 34.5636 35.4798 34.821C36.3343 35.0776 37.1163 35.2041 37.2189 35.1014C38.2344 34.0851 35.0888 29.518 32.9826 28.9509C32.2803 28.7616 31.6257 28.4786 31.5292 28.3229C31.4328 28.1672 30.4102 27.9328 29.2576 27.8019C28.1041 27.6718 26.902 27.4268 26.5871 27.2587C26.1757 27.0385 25.9581 27.1004 25.8131 27.479ZM52.1374 27.8213C51.7898 28.1681 51.8375 30.3097 52.1931 30.3097C52.5868 30.3097 52.8433 28.9014 52.585 28.1628C52.4718 27.8417 52.271 27.6877 52.1374 27.8213ZM80.3707 27.7921C80.1849 27.8602 79.1243 28.1734 78.0133 28.4874C75.402 29.2243 73.1587 31.495 72.3042 34.2655C72.0476 35.097 72.8517 35.105 77.0597 34.3089C79.1455 33.9143 84.5503 29.2296 84.1434 28.169C83.9435 27.6497 81.4322 27.3985 80.3707 27.7921ZM3.99656 28.8519C3.34904 29.6338 3.449 40.3063 4.10979 40.9662C4.48574 41.3431 5.14297 41.1352 8.09306 39.7022C13.4483 37.1024 13.6536 36.7963 11.2519 35.0059C10.3983 34.369 8.94315 32.9378 8.01876 31.8258C5.55873 28.866 4.58215 28.1442 3.99656 28.8519ZM103.694 29.7196C103.225 30.322 101.61 32.085 100.106 33.6366C98.0367 35.7684 97.4184 36.6141 97.5723 37.0997C97.8173 37.8711 104.299 41.0936 105.605 41.0936H106.487V35.3836C106.487 29.8656 106.462 29.6559 105.738 29.1491C104.731 28.4449 104.672 28.4609 103.694 29.7196ZM25.4424 37.2828C22.8939 37.4509 22.3897 37.6331 21.9802 38.5319C21.5228 39.5359 21.5449 39.5553 25.0063 41.2422L27.6043 42.5072L28.5623 41.8252C29.0887 41.4501 29.9388 40.3736 30.4509 39.4324L31.3815 37.7225L30.496 37.3863C29.638 37.0599 29.0029 37.0466 25.4424 37.2828ZM79.119 37.3952C77.9735 38.086 80.5768 42.1038 82.1708 42.1038C82.8183 42.1038 87.4438 40.1383 88.2603 39.5173C88.8777 39.0467 87.4925 37.7499 86.201 37.5898C82.6768 37.1501 79.6621 37.0679 79.119 37.3952ZM12.2993 40.7937C9.67117 41.7933 6.52736 43.283 5.94353 43.8066C5.41632 44.279 6.86261 45.6997 8.92457 46.7355C15.528 50.0536 15.8411 50.0951 18.8363 48.0482C20.0951 47.1884 21.3875 46.4852 21.7086 46.4852C22.3269 46.4852 24.2624 44.7434 24.2624 44.187C24.2624 44.0066 23.6936 43.5634 22.9992 43.2016C20.763 42.0384 18.4383 40.7274 17.728 40.2303C16.6974 39.5084 15.298 39.6535 12.2993 40.7937ZM91.9835 40.3638C90.6345 41.0786 85.8206 43.8252 85.641 43.9818C85.358 44.2286 87.0236 46.1278 87.7083 46.3392C88.1205 46.4666 89.4907 47.1813 90.7539 47.9261C92.0348 48.6833 93.459 49.2707 93.9773 49.2557C95.1689 49.2221 99.0876 47.912 99.7475 47.3264C100.025 47.0805 100.903 46.6196 101.698 46.3029C102.571 45.9553 103.33 45.3653 103.616 44.8124L104.09 43.8969L100.942 42.3232C95.4705 39.5898 94.0357 39.2758 91.9835 40.3638ZM23.5096 48.6179C20.0412 50.4879 20.3295 51.2026 24.5543 51.2026C26.7569 51.2026 27.2956 50.8355 27.2956 49.3344C27.2956 47.1928 26.4482 47.0327 23.5096 48.6179ZM4.03636 47.8165C3.6038 48.0703 3.53922 49.0186 3.61884 53.9475C3.72941 60.8278 3.97797 61.493 5.72857 59.5929C6.30974 58.9631 8.13906 57.0604 9.795 55.3646C11.4501 53.6689 12.8052 52.1173 12.8052 51.9174C12.8052 51.6653 4.76527 47.3627 4.56358 47.506C4.55562 47.5122 4.31854 47.651 4.03636 47.8165ZM82.645 48.2092C82.1328 48.7355 82.1036 49.675 82.5724 50.5507C83.1554 51.6396 88.6265 51.3583 88.6265 50.2402C88.6265 49.0407 83.5225 47.3078 82.645 48.2092ZM100.672 49.7316L97.0469 51.5644L97.5378 52.4791C98.7992 54.8277 104.731 60.3112 105.638 59.9671L106.503 59.6381L106.41 53.8193L106.318 48.0013L105.307 47.95C104.675 47.9182 102.942 48.5834 100.672 49.7316ZM91.0078 53.2575C90.5567 53.438 89.0405 53.7396 87.6384 53.9281C86.2355 54.1165 84.8228 54.3482 84.4982 54.4447C83.5782 54.7153 84.1063 56.2227 85.6304 57.676C86.3514 58.3634 86.9414 59.0463 86.9414 59.1931C86.9414 59.3391 87.5517 60.1263 88.2974 60.9428L89.6535 62.4263L94.6992 62.198C102.661 61.8389 102.622 61.899 98.0049 57.2603C94.0039 53.2398 92.7902 52.5455 91.0078 53.2575ZM15.8376 53.6556C14.6186 54.258 8.76093 60.1706 8.76093 60.7986C8.76093 61.6416 10.0303 61.9176 15.0795 62.1742C20.5675 62.4528 20.1216 62.6271 23.3424 58.941C26.8631 54.9126 26.7826 54.4721 22.4171 53.8732C18.0473 53.2752 16.6974 53.2301 15.8376 53.6556ZM25.4654 60.5297C25.1346 61.3931 26.0475 62.1733 26.6039 61.5019C27.1116 60.8897 26.8463 59.9645 26.1625 59.9645C25.8989 59.9645 25.5848 60.2183 25.4654 60.5297ZM82.7511 60.5341C82.438 61.3506 82.9501 61.6673 84.085 61.3603L85.0882 61.0879L84.0258 60.535C83.0404 60.0211 82.9484 60.0211 82.7511 60.5341ZM5.44551 64.9659C3.87537 66.5351 3.74268 67.0402 3.6383 71.8533C3.51711 77.4642 3.21016 77.1387 8.6247 77.1457C13.4828 77.1519 13.2741 77.2935 15.0839 72.7379C15.7766 70.9934 16.6718 69.0359 17.0734 68.3875C18.4905 66.1008 17.9863 65.5188 14.2082 65.0774C6.93604 64.229 6.19121 64.2193 5.44551 64.9659ZM99.7475 64.6961C98.7276 64.8368 96.9557 64.9677 95.8093 64.9854C91.5952 65.0535 91.2926 65.6099 93.3449 69.5277C94.0862 70.943 94.6921 72.3831 94.6921 72.7272C94.6921 73.0713 94.9955 73.7383 95.3662 74.2098C95.7368 74.6813 96.0402 75.2324 96.0402 75.435C96.0402 77.2316 104.2 78.0887 105.827 76.462C106.853 75.4358 106.707 69.3455 105.594 66.8067C104.493 64.2945 103.983 64.1105 99.7475 64.6961ZM23.8794 64.9916C21.7484 65.2897 21.5573 65.5028 19.2264 70.1823C16.9601 74.7335 16.9407 74.8043 17.7757 75.5535C18.6745 76.3611 25.0886 74.9511 26.5446 73.6269C27.891 72.4008 27.27 64.5652 25.8396 64.7271C25.6211 64.7518 24.7392 64.8704 23.8794 64.9916ZM83.572 64.9146C82.6803 65.2773 82.5715 65.7903 82.5662 69.6701L82.5609 73.4782L83.825 73.9816C84.5194 74.2585 85.3916 74.6317 85.7622 74.8122C89.4271 76.5911 93.6324 76.0692 92.3709 73.9913C92.0198 73.4119 91.6288 72.4468 91.5014 71.8471C91.3749 71.2465 91.1396 70.6741 90.9786 70.5751C90.8185 70.476 90.0693 69.2765 89.3147 67.9098C88.561 66.5431 87.7375 65.3454 87.4854 65.249C86.6424 64.9252 84.0833 64.7067 83.572 64.9146ZM23.8944 77.6676C22.6728 78.0807 20.5754 78.6141 19.2335 78.8539C16.1339 79.4085 14.8274 80.47 14.8274 82.4356C14.8274 83.1547 14.6222 84.5329 14.3718 85.4989C13.5563 88.6427 13.7721 88.7444 20.6904 88.4631C30.044 88.0845 32.3634 86.8585 29.6265 83.7412C28.8781 82.8894 28.5181 82.0605 28.3412 80.7814C27.8582 77.2961 26.9259 76.6433 23.8944 77.6676ZM82.5919 77.619C82.3787 77.8764 82.0355 79.0396 81.8302 80.2037C81.5348 81.8809 81.2225 82.555 80.3247 83.4537C79.0438 84.7337 78.8297 86.1544 79.786 87.0204C82.0983 89.1124 97.1583 89.0045 95.8606 86.9045C95.758 86.7391 95.452 85.4246 95.1804 83.9827C94.3736 79.6986 94.4046 79.7376 91.2263 79.0467C89.7039 78.715 87.5853 78.1533 86.5194 77.7977C84.2213 77.0307 83.1217 76.9803 82.5919 77.619ZM2.94833 80.2108C2.62368 80.3992 2.3583 80.9433 2.3583 81.4192C2.3583 81.9066 1.90186 82.8053 1.31184 83.4767C0.22734 84.7125 0.100845 86.3321 1.00312 87.4193C1.35519 87.8439 4.91034 88.2641 8.70432 88.3295C11.067 88.3702 11.3669 88.004 11.6022 84.793C11.7092 83.344 11.9481 81.8738 12.133 81.5271C12.9079 80.0799 5.0961 78.9591 2.94833 80.2108ZM99.4105 80.1498L97.8934 80.3515L97.7926 81.9225C97.7351 82.8089 97.9182 84.0367 98.2136 84.7434C98.5011 85.4316 98.7364 86.3366 98.7364 86.7541C98.7364 88.1508 99.4538 88.3676 103.54 88.2066C107.251 88.0606 108.252 87.8059 109.325 86.7329C110.148 85.9102 109.964 85.0212 108.677 83.5979C108.029 82.8796 107.498 82.0791 107.498 81.8181C107.498 79.9561 104.894 79.4191 99.4105 80.1498Z"/>
</mask>
<path fill-rule="evenodd" clip-rule="evenodd" d="M0.677597 0.454041C0.304303 0.621227 0 1.0308 0 1.36428C0 2.81058 0.767829 5.35376 1.37023 5.89866C1.73026 6.22419 2.17608 7.05481 2.36184 7.74391C2.77582 9.28131 3.2022 9.38304 8.08776 9.1097L11.6261 8.91156L11.7261 6.80005C11.8225 4.7832 11.3404 1.10156 10.9264 0.684035C10.5858 0.341701 1.38792 0.134706 0.677597 0.454041ZM14.7504 0.539846C14.4019 0.888372 14.3825 1.77207 14.654 4.88846C15.0256 9.14066 15.3635 9.71299 17.5227 9.74041C18.3666 9.75191 24.8904 11.4432 26.1616 11.9811C27.0603 12.3614 27.7034 11.0478 27.4849 9.27689C27.369 8.33392 27.2116 6.0632 27.1355 4.22945C27.0594 2.39571 26.8746 0.782226 26.7251 0.643346C26.1987 0.155055 15.2299 0.0595164 14.7504 0.539846ZM36.0822 0.288627C35.0145 0.571694 34.8323 1.1909 35.6815 1.64558C36.0539 1.84461 37.0579 2.61331 37.9133 3.35282C40.184 5.31837 41.1119 4.87785 41.1119 1.83223C41.1119 0.261207 38.8271 -0.440271 36.0822 0.288627ZM84.0505 0.270054C82.8661 0.490315 82.5821 1.00426 82.6529 2.79289C82.6909 3.74824 82.5981 5.9712 82.4468 7.73152C82.0832 11.959 82.4035 12.5215 84.6742 11.6547C85.5136 11.3335 86.9361 10.9461 87.8348 10.7922C93.4554 9.83241 94.4506 9.32289 94.8098 7.21581C94.9672 6.29496 95.2883 4.5196 95.5227 3.27056C95.8553 1.50936 95.8606 0.92553 95.5475 0.665462C95.1654 0.347896 85.4296 0.0135245 84.0505 0.270054ZM101.107 0.317816C99.3583 0.477925 99.2459 0.545156 98.8647 1.66592C98.157 3.7447 97.6608 6.51787 97.7793 7.73152L97.8934 8.91156L101.738 9.19374C106.137 9.5175 107.161 9.2707 107.161 7.88809C107.161 7.36707 107.548 6.65675 108.13 6.11185C109.786 4.5594 110.639 0.893684 109.435 0.493852C108.729 0.258553 103.063 0.139129 101.107 0.317816ZM44.9236 0.583194C44.2611 1.00426 43.8356 2.5337 43.602 5.32899L43.3818 7.97744L45.2014 9.96067C46.2018 11.0514 47.4535 12.5127 47.9816 13.208C49.2908 14.9294 49.5748 14.8232 50.6831 12.1969C51.2112 10.9461 52.003 9.20435 52.4435 8.32773C53.543 6.13661 52.8575 3.61997 50.47 1.07856C49.734 0.294817 45.9135 -0.045746 44.9236 0.583194ZM54.5912 0.647766C54.1489 0.927295 54.1596 1.04141 54.6735 1.55535C55.3555 2.23737 56.1684 1.73757 55.8261 0.845913C55.5935 0.241741 55.3069 0.195744 54.5912 0.647766ZM58.7417 1.90653C56.3356 5.66071 56.3206 5.78101 57.8784 8.91156C58.3401 9.83772 58.8992 11.3539 59.1212 12.2809C59.6192 14.3597 60.8187 14.7976 61.8218 13.2672C62.1474 12.7701 63.3831 11.2522 64.5676 9.89345C66.8985 7.22112 67.1479 6.39049 66.2501 4.28872C65.99 3.68013 65.6485 2.57616 65.492 1.83488L65.2063 0.486773L62.4915 0.389468L59.7758 0.293047L58.7417 1.90653ZM68.5226 0.842376C67.5645 3.3369 70.1679 4.98665 72.1918 3.16795C73.0074 2.43463 73.9574 1.67389 74.3015 1.47663C75.5541 0.761881 74.5112 0.317816 71.5788 0.317816C69.3054 0.317816 68.6827 0.424852 68.5226 0.842376ZM30.3961 2.4072C29.5 3.30329 30.182 10.9549 31.3532 13.1531C31.8893 14.1598 32.4413 14.5941 34.3723 15.5336C35.2065 15.9396 36.513 16.6941 37.2764 17.2107C39.5312 18.7357 40.0841 17.278 40.0964 9.77402C40.0982 8.58957 37.4613 6.04904 33.9468 3.84996C30.5819 1.74465 30.9206 1.88264 30.3961 2.4072ZM75.4604 4.13657C73.8725 5.27945 71.9822 6.69036 71.2612 7.27065L69.9485 8.32596L69.9131 13.093C69.8698 18.8534 69.9927 19.0639 72.4041 17.3691C74.0291 16.2271 75.4418 15.4194 77.7452 14.3173C79.9947 13.2407 80.7475 1.72962 78.5493 2.03038C78.4388 2.04541 77.0491 2.9928 75.4604 4.13657ZM54.9079 10.8373C53.9243 11.6591 53.5881 12.3482 52.7345 15.2929L51.8782 18.2483L52.6222 20.451C53.7279 23.7248 55.4219 25.5117 55.8535 23.8601C55.957 23.4639 56.3984 22.4705 56.8328 21.6522C57.7527 19.9229 57.896 17.1231 57.1565 15.3531C56.9 14.7374 56.5851 13.6193 56.4586 12.8674C56.1401 10.9859 55.5908 10.2667 54.9079 10.8373ZM4.03193 12.6047C3.62768 13.0072 3.56842 13.9581 3.70641 17.8229L3.87537 22.5492L5.05452 23.7045L6.23366 24.8597L9.60394 24.3767C11.4571 24.1114 13.9198 23.8 15.0769 23.6859C17.9473 23.4028 18.2711 22.9437 17.0928 20.8331C16.5877 19.9291 16.1746 18.9065 16.1746 18.5606C16.1746 18.2147 15.9004 17.5708 15.5652 17.1285C15.229 16.6862 14.7708 15.6884 14.5461 14.9108C13.8473 12.4959 13.0131 12.1129 8.45132 12.1129C5.45877 12.1129 4.40788 12.2296 4.03193 12.6047ZM96.586 12.3535C96.2437 12.6949 95.0291 15.4937 95.0291 15.9396C95.0291 16.1439 94.317 17.7176 93.4466 19.4363C91.5439 23.1941 91.5598 23.225 95.6253 23.7867C97.2432 24.0105 99.5812 24.3856 100.82 24.62C104.953 25.4037 106.226 23.7045 106.432 17.1258C106.592 12.0598 106.649 12.1129 100.908 12.1129C98.663 12.1129 96.7178 12.2208 96.586 12.3535ZM64.1651 14.5561C61.1575 18.3837 60.6276 20.1325 61.2035 24.3316L61.4132 25.862L62.4021 25.4462C62.9453 25.2171 64.1766 24.0583 65.1381 22.8703L66.8861 20.7101L67.0099 17.0807C67.1285 13.6344 66.8852 12.4499 66.0616 12.4499C65.929 12.4499 65.0753 13.3973 64.1651 14.5561ZM17.4104 13.0107C16.8292 13.5928 18.2525 17.3814 20.2384 20.5368C20.4127 20.8154 20.7011 21.4523 20.8789 21.953C21.4273 23.5028 23.2849 24.1459 29.0984 24.7969C31.4992 25.0658 31.9017 24.674 31.0303 22.9172C30.7022 22.2573 30.2351 20.9587 29.991 20.0317C28.9312 15.9971 27.7326 14.9082 23.3353 13.9838C22.0757 13.7184 20.6223 13.3407 20.1048 13.1443C19.0407 12.74 17.7457 12.6755 17.4104 13.0107ZM42.7971 15.5981C42.7971 19.8256 45.7259 26.1468 47.7313 26.2468C49.1174 26.3158 49.1634 19.7389 47.7923 17.6627C43.8064 11.6317 42.7971 11.2141 42.7971 15.5981ZM89.2024 13.2637C88.4991 13.5194 87.3624 13.8316 86.6751 13.9599C85.5658 14.1651 81.2128 15.9785 81.2128 16.2341C81.2128 16.289 80.8952 17.1665 80.5069 18.1829C77.6815 25.5824 77.5763 25.2985 82.8528 24.5377C88.1701 23.7708 88.3072 23.662 91.0927 18.0095C93.4422 13.2442 92.9132 11.9174 89.2024 13.2637ZM33.0905 18.941C32.6394 19.4841 33.0481 21.3063 33.8168 22.1839C34.0786 22.4828 34.4086 23.1065 34.5501 23.57C34.9995 25.0411 36.3812 26.942 37.5011 27.6302C42.2858 30.5715 43.0501 30.1522 41.5224 25.4232C40.4538 22.1175 34.3493 17.4239 33.0905 18.941ZM73.7991 19.5443C70.0228 22.0768 68.6039 23.6567 68.1891 25.7912C67.9768 26.8863 67.6972 28.0416 67.569 28.3583C67.2691 29.0978 68.9188 29.5931 69.7238 29.0049C70.0193 28.7882 70.7774 28.3751 71.4081 28.0858C72.7845 27.456 74.1945 26.1017 74.8933 24.7368C77.8187 19.025 77.4171 17.1187 73.7991 19.5443ZM12.2993 26.7687C8.73351 27.2976 9.22002 27.1128 8.97765 28.0354C8.76092 28.858 14.0118 34.5548 15.9137 35.5614C16.9018 36.0842 19.713 35.818 23.5087 34.844C26.5871 34.0532 26.6366 33.771 24.1784 31.0182C23.2053 29.9293 21.9403 28.4556 21.368 27.7452C20.1296 26.2087 17.7757 25.9548 12.2993 26.7687ZM89.7411 26.59C89.3351 26.7625 88.7291 27.3259 88.3939 27.8425C87.6234 29.0297 87.1218 29.6259 85.3412 31.4658C82.9351 33.9524 83.6781 34.7255 89.2041 35.4862C93.0981 36.0214 93.7686 35.8781 95.7333 34.0895C96.5506 33.3455 97.9429 32.093 98.8258 31.3066C101.616 28.8227 101.363 27.1349 98.1517 26.8005C94.1065 26.3794 90.4532 26.2874 89.7411 26.59ZM25.8131 27.479C25.4389 28.4529 25.6043 28.8076 27.2125 30.4883C29.561 32.9431 31.6257 34.3531 32.8685 34.3531C33.4514 34.3531 34.6262 34.5636 35.4798 34.821C36.3343 35.0776 37.1163 35.2041 37.2189 35.1014C38.2344 34.0851 35.0888 29.518 32.9826 28.9509C32.2803 28.7616 31.6257 28.4786 31.5292 28.3229C31.4328 28.1672 30.4102 27.9328 29.2576 27.8019C28.1041 27.6718 26.902 27.4268 26.5871 27.2587C26.1757 27.0385 25.9581 27.1004 25.8131 27.479ZM52.1374 27.8213C51.7898 28.1681 51.8375 30.3097 52.1931 30.3097C52.5868 30.3097 52.8433 28.9014 52.585 28.1628C52.4718 27.8417 52.271 27.6877 52.1374 27.8213ZM80.3707 27.7921C80.1849 27.8602 79.1243 28.1734 78.0133 28.4874C75.402 29.2243 73.1587 31.495 72.3042 34.2655C72.0476 35.097 72.8517 35.105 77.0597 34.3089C79.1455 33.9143 84.5503 29.2296 84.1434 28.169C83.9435 27.6497 81.4322 27.3985 80.3707 27.7921ZM3.99656 28.8519C3.34904 29.6338 3.449 40.3063 4.10979 40.9662C4.48574 41.3431 5.14297 41.1352 8.09306 39.7022C13.4483 37.1024 13.6536 36.7963 11.2519 35.0059C10.3983 34.369 8.94315 32.9378 8.01876 31.8258C5.55873 28.866 4.58215 28.1442 3.99656 28.8519ZM103.694 29.7196C103.225 30.322 101.61 32.085 100.106 33.6366C98.0367 35.7684 97.4184 36.6141 97.5723 37.0997C97.8173 37.8711 104.299 41.0936 105.605 41.0936H106.487V35.3836C106.487 29.8656 106.462 29.6559 105.738 29.1491C104.731 28.4449 104.672 28.4609 103.694 29.7196ZM25.4424 37.2828C22.8939 37.4509 22.3897 37.6331 21.9802 38.5319C21.5228 39.5359 21.5449 39.5553 25.0063 41.2422L27.6043 42.5072L28.5623 41.8252C29.0887 41.4501 29.9388 40.3736 30.4509 39.4324L31.3815 37.7225L30.496 37.3863C29.638 37.0599 29.0029 37.0466 25.4424 37.2828ZM79.119 37.3952C77.9735 38.086 80.5768 42.1038 82.1708 42.1038C82.8183 42.1038 87.4438 40.1383 88.2603 39.5173C88.8777 39.0467 87.4925 37.7499 86.201 37.5898C82.6768 37.1501 79.6621 37.0679 79.119 37.3952ZM12.2993 40.7937C9.67117 41.7933 6.52736 43.283 5.94353 43.8066C5.41632 44.279 6.86261 45.6997 8.92457 46.7355C15.528 50.0536 15.8411 50.0951 18.8363 48.0482C20.0951 47.1884 21.3875 46.4852 21.7086 46.4852C22.3269 46.4852 24.2624 44.7434 24.2624 44.187C24.2624 44.0066 23.6936 43.5634 22.9992 43.2016C20.763 42.0384 18.4383 40.7274 17.728 40.2303C16.6974 39.5084 15.298 39.6535 12.2993 40.7937ZM91.9835 40.3638C90.6345 41.0786 85.8206 43.8252 85.641 43.9818C85.358 44.2286 87.0236 46.1278 87.7083 46.3392C88.1205 46.4666 89.4907 47.1813 90.7539 47.9261C92.0348 48.6833 93.459 49.2707 93.9773 49.2557C95.1689 49.2221 99.0876 47.912 99.7475 47.3264C100.025 47.0805 100.903 46.6196 101.698 46.3029C102.571 45.9553 103.33 45.3653 103.616 44.8124L104.09 43.8969L100.942 42.3232C95.4705 39.5898 94.0357 39.2758 91.9835 40.3638ZM23.5096 48.6179C20.0412 50.4879 20.3295 51.2026 24.5543 51.2026C26.7569 51.2026 27.2956 50.8355 27.2956 49.3344C27.2956 47.1928 26.4482 47.0327 23.5096 48.6179ZM4.03636 47.8165C3.6038 48.0703 3.53922 49.0186 3.61884 53.9475C3.72941 60.8278 3.97797 61.493 5.72857 59.5929C6.30974 58.9631 8.13906 57.0604 9.795 55.3646C11.4501 53.6689 12.8052 52.1173 12.8052 51.9174C12.8052 51.6653 4.76527 47.3627 4.56358 47.506C4.55562 47.5122 4.31854 47.651 4.03636 47.8165ZM82.645 48.2092C82.1328 48.7355 82.1036 49.675 82.5724 50.5507C83.1554 51.6396 88.6265 51.3583 88.6265 50.2402C88.6265 49.0407 83.5225 47.3078 82.645 48.2092ZM100.672 49.7316L97.0469 51.5644L97.5378 52.4791C98.7992 54.8277 104.731 60.3112 105.638 59.9671L106.503 59.6381L106.41 53.8193L106.318 48.0013L105.307 47.95C104.675 47.9182 102.942 48.5834 100.672 49.7316ZM91.0078 53.2575C90.5567 53.438 89.0405 53.7396 87.6384 53.9281C86.2355 54.1165 84.8228 54.3482 84.4982 54.4447C83.5782 54.7153 84.1063 56.2227 85.6304 57.676C86.3514 58.3634 86.9414 59.0463 86.9414 59.1931C86.9414 59.3391 87.5517 60.1263 88.2974 60.9428L89.6535 62.4263L94.6992 62.198C102.661 61.8389 102.622 61.899 98.0049 57.2603C94.0039 53.2398 92.7902 52.5455 91.0078 53.2575ZM15.8376 53.6556C14.6186 54.258 8.76093 60.1706 8.76093 60.7986C8.76093 61.6416 10.0303 61.9176 15.0795 62.1742C20.5675 62.4528 20.1216 62.6271 23.3424 58.941C26.8631 54.9126 26.7826 54.4721 22.4171 53.8732C18.0473 53.2752 16.6974 53.2301 15.8376 53.6556ZM25.4654 60.5297C25.1346 61.3931 26.0475 62.1733 26.6039 61.5019C27.1116 60.8897 26.8463 59.9645 26.1625 59.9645C25.8989 59.9645 25.5848 60.2183 25.4654 60.5297ZM82.7511 60.5341C82.438 61.3506 82.9501 61.6673 84.085 61.3603L85.0882 61.0879L84.0258 60.535C83.0404 60.0211 82.9484 60.0211 82.7511 60.5341ZM5.44551 64.9659C3.87537 66.5351 3.74268 67.0402 3.6383 71.8533C3.51711 77.4642 3.21016 77.1387 8.6247 77.1457C13.4828 77.1519 13.2741 77.2935 15.0839 72.7379C15.7766 70.9934 16.6718 69.0359 17.0734 68.3875C18.4905 66.1008 17.9863 65.5188 14.2082 65.0774C6.93604 64.229 6.19121 64.2193 5.44551 64.9659ZM99.7475 64.6961C98.7276 64.8368 96.9557 64.9677 95.8093 64.9854C91.5952 65.0535 91.2926 65.6099 93.3449 69.5277C94.0862 70.943 94.6921 72.3831 94.6921 72.7272C94.6921 73.0713 94.9955 73.7383 95.3662 74.2098C95.7368 74.6813 96.0402 75.2324 96.0402 75.435C96.0402 77.2316 104.2 78.0887 105.827 76.462C106.853 75.4358 106.707 69.3455 105.594 66.8067C104.493 64.2945 103.983 64.1105 99.7475 64.6961ZM23.8794 64.9916C21.7484 65.2897 21.5573 65.5028 19.2264 70.1823C16.9601 74.7335 16.9407 74.8043 17.7757 75.5535C18.6745 76.3611 25.0886 74.9511 26.5446 73.6269C27.891 72.4008 27.27 64.5652 25.8396 64.7271C25.6211 64.7518 24.7392 64.8704 23.8794 64.9916ZM83.572 64.9146C82.6803 65.2773 82.5715 65.7903 82.5662 69.6701L82.5609 73.4782L83.825 73.9816C84.5194 74.2585 85.3916 74.6317 85.7622 74.8122C89.4271 76.5911 93.6324 76.0692 92.3709 73.9913C92.0198 73.4119 91.6288 72.4468 91.5014 71.8471C91.3749 71.2465 91.1396 70.6741 90.9786 70.5751C90.8185 70.476 90.0693 69.2765 89.3147 67.9098C88.561 66.5431 87.7375 65.3454 87.4854 65.249C86.6424 64.9252 84.0833 64.7067 83.572 64.9146ZM23.8944 77.6676C22.6728 78.0807 20.5754 78.6141 19.2335 78.8539C16.1339 79.4085 14.8274 80.47 14.8274 82.4356C14.8274 83.1547 14.6222 84.5329 14.3718 85.4989C13.5563 88.6427 13.7721 88.7444 20.6904 88.4631C30.044 88.0845 32.3634 86.8585 29.6265 83.7412C28.8781 82.8894 28.5181 82.0605 28.3412 80.7814C27.8582 77.2961 26.9259 76.6433 23.8944 77.6676ZM82.5919 77.619C82.3787 77.8764 82.0355 79.0396 81.8302 80.2037C81.5348 81.8809 81.2225 82.555 80.3247 83.4537C79.0438 84.7337 78.8297 86.1544 79.786 87.0204C82.0983 89.1124 97.1583 89.0045 95.8606 86.9045C95.758 86.7391 95.452 85.4246 95.1804 83.9827C94.3736 79.6986 94.4046 79.7376 91.2263 79.0467C89.7039 78.715 87.5853 78.1533 86.5194 77.7977C84.2213 77.0307 83.1217 76.9803 82.5919 77.619ZM2.94833 80.2108C2.62368 80.3992 2.3583 80.9433 2.3583 81.4192C2.3583 81.9066 1.90186 82.8053 1.31184 83.4767C0.22734 84.7125 0.100845 86.3321 1.00312 87.4193C1.35519 87.8439 4.91034 88.2641 8.70432 88.3295C11.067 88.3702 11.3669 88.004 11.6022 84.793C11.7092 83.344 11.9481 81.8738 12.133 81.5271C12.9079 80.0799 5.0961 78.9591 2.94833 80.2108ZM99.4105 80.1498L97.8934 80.3515L97.7926 81.9225C97.7351 82.8089 97.9182 84.0367 98.2136 84.7434C98.5011 85.4316 98.7364 86.3366 98.7364 86.7541C98.7364 88.1508 99.4538 88.3676 103.54 88.2066C107.251 88.0606 108.252 87.8059 109.325 86.7329C110.148 85.9102 109.964 85.0212 108.677 83.5979C108.029 82.8796 107.498 82.0791 107.498 81.8181C107.498 79.9561 104.894 79.4191 99.4105 80.1498Z" fill="#333333" stroke="#333333" stroke-width="2" mask="url(#path-1-inside-1_1451_3046)"/>
<path d="M46.6283 30.7977C46.5006 30.662 46.4278 30.442 46.3497 30.263C46.5603 30.4992 46.7557 30.7482 46.9789 30.9745C47.0319 31.0283 47.2366 31.2688 47.2216 31.2562C47.075 31.1327 46.8974 31.0304 46.7392 30.9206C46.6847 30.8827 46.5342 30.7668 46.5639 30.8262C46.589 30.8763 46.6609 30.9234 46.6987 30.9625C46.8063 31.0736 47.1211 31.4132 47.0059 31.3101C46.829 31.1519 46.6322 31.0125 46.4515 30.8576C46.1888 30.6324 46.4748 30.9009 46.5474 31.003C46.5873 31.0591 46.8853 31.5555 46.6508 31.4284C46.3364 31.2581 46.0601 31.0132 45.7693 30.8012C45.8408 30.9188 45.9179 31.0312 46.0081 31.1213C46.0128 31.126 46.017 31.1302 46.0208 31.134C46.0518 31.1646 46.0567 31.1699 46.0208 31.134C45.9245 31.039 45.5769 30.6995 45.4178 30.585C45.3486 30.5351 45.1317 30.4 45.2081 30.4382C45.3574 30.5128 45.4938 30.612 45.632 30.7048C45.6783 30.7359 45.724 30.7681 45.7693 30.8012C45.6854 30.6632 45.6092 30.518 45.5287 30.3932C45.4462 30.2654 45.3299 30.1216 45.286 29.9737C45.2706 29.9222 45.3204 29.9668 45.3384 29.9767C45.6401 30.1427 45.8983 30.4097 46.1437 30.6613C45.9048 30.4072 45.693 30.1265 45.4687 29.8599C45.4514 29.8393 45.3407 29.7133 45.4328 29.785C45.5769 29.8971 45.7164 30.0146 45.8583 30.1295C46.1224 30.3434 46.8612 31.0452 46.6283 30.7977Z" fill="#333333"/>
<path d="M45.5227 27.9932C45.3937 28.2511 45.1977 28.4796 45.1032 28.7497C45.0617 28.8682 45.0076 28.9844 44.9564 29.0988C44.9143 29.1929 44.9207 29.3022 44.8815 29.3954C44.8344 29.5073 44.8952 29.6952 44.9039 29.8134C44.914 29.9489 44.9631 30.1101 45.0238 30.2314C45.1134 30.4107 45.1622 30.5451 45.3069 30.6899C45.4217 30.8046 45.5587 30.9266 45.6845 31.0254C45.8227 31.1341 45.9622 31.2576 46.116 31.343C46.2432 31.4138 46.3781 31.4714 46.507 31.5408C46.6398 31.6123 46.7911 31.7613 46.9384 31.794C47.0498 31.8187 47.1615 31.9034 47.2755 31.9034C47.4216 31.9034 47.4701 31.7325 47.4913 31.6052C47.5264 31.3947 47.5452 31.1992 47.5452 30.9865C47.5452 30.8466 47.4782 30.7596 47.4164 30.6359C47.2954 30.394 47.0329 30.2477 46.904 30.0157C46.7614 29.7591 46.5334 29.4872 46.3467 29.2471C46.26 29.1357 46.214 28.9866 46.116 28.8831C46.0254 28.7875 45.9541 28.6402 45.9002 28.519C45.8247 28.3491 45.6423 28.2242 45.5496 28.0621C45.5312 28.0298 45.4701 28.1029 45.4687 28.128C45.4621 28.2547 45.4668 28.3848 45.4687 28.5115C45.4721 28.7251 45.5985 28.9065 45.6995 29.0883C45.9033 29.4552 46.1297 29.811 46.3152 30.188C46.4079 30.3763 46.4821 30.6423 46.6283 30.7977C46.8612 31.0452 46.1224 30.3434 45.8583 30.1295C45.7164 30.0146 45.5769 29.8971 45.4328 29.785C45.3407 29.7133 45.4514 29.8393 45.4687 29.8599C45.7077 30.1439 45.9325 30.444 46.1909 30.7108C46.2342 30.7556 46.4403 30.9603 46.2822 30.8022C45.9948 30.5148 45.6974 30.1742 45.3384 29.9767C45.3204 29.9668 45.2706 29.9222 45.286 29.9737C45.3299 30.1216 45.4462 30.2654 45.5287 30.3932C45.6778 30.6244 45.8122 30.9254 46.0081 31.1213C46.1961 31.3093 45.6336 30.7403 45.4178 30.585C45.3486 30.5351 45.1317 30.4 45.2081 30.4382C45.3574 30.5128 45.4938 30.612 45.632 30.7048C45.9748 30.935 46.2873 31.2316 46.6508 31.4284C46.8853 31.5555 46.5873 31.0591 46.5474 31.003C46.4748 30.9009 46.1888 30.6324 46.4515 30.8576C46.6322 31.0125 46.829 31.1519 47.0059 31.3101C47.1211 31.4132 46.8063 31.0736 46.6987 30.9625C46.6609 30.9234 46.589 30.8763 46.5639 30.8262C46.5342 30.7668 46.6847 30.8827 46.7392 30.9206C46.8974 31.0304 47.075 31.1327 47.2216 31.2562C47.2366 31.2688 47.0319 31.0283 46.9789 30.9745C46.6848 30.6762 46.4389 30.3386 46.1429 30.0426" stroke="#333333" stroke-linecap="round"/>
<path d="M63.7881 30.5418C63.793 30.5316 63.798 30.5214 63.803 30.5111C63.8199 30.3348 63.8439 30.1626 63.877 30.0615C63.9143 29.9476 63.9454 30.1274 63.9549 30.2027C63.9568 30.218 63.9579 30.2289 63.9579 30.2323C63.9589 30.3253 64.0172 30.7458 63.9309 30.8016C63.9207 30.8082 63.8488 30.6668 63.7982 30.5628C63.7947 30.5556 63.7913 30.5486 63.7881 30.5418C63.7358 30.6497 63.6845 30.7578 63.6343 30.8664V31.0802C63.6343 31.3591 63.6398 31.6393 63.6193 31.9177C63.6171 31.9477 63.6192 32.1386 63.5669 32.1619C63.5137 32.1855 63.3973 31.9513 63.2906 31.6874C63.2797 31.7172 63.2689 31.747 63.2583 31.7769C63.244 31.8169 63.2294 31.8588 63.2166 31.9016C63.201 32.0549 63.1759 32.23 63.1759 32.1364C63.1759 32.0589 63.1934 31.9788 63.2166 31.9016C63.2226 31.8428 63.2271 31.7873 63.2283 31.7514C63.2306 31.6799 63.2188 31.5688 63.2008 31.4524C63.1262 31.2462 63.071 31.0634 63.071 31.0158C63.071 30.8366 63.1555 31.1611 63.2008 31.4524C63.2286 31.5294 63.2592 31.6097 63.2906 31.6874C63.394 31.4067 63.5104 31.1348 63.6343 30.8664V29.9536C63.6343 29.7816 63.6827 30.2979 63.7482 30.457C63.751 30.4639 63.7668 30.4978 63.7881 30.5418Z" fill="#333333"/>
<path d="M64.9287 28.8779C64.7791 28.8779 64.5602 29.0776 64.4493 29.1806C64.3343 29.2873 64.191 29.3678 64.0658 29.4652C63.6017 29.8262 63.2352 30.2859 62.8523 30.7327C62.657 30.9605 62.5472 31.1814 62.5556 31.4937C62.5642 31.8099 62.8375 32.0796 63.068 32.2608C63.1488 32.3243 63.6334 32.5782 63.7152 32.3941C63.7941 32.2165 63.9263 32.0689 63.9984 31.8847C64.0779 31.6814 64.0816 31.5178 64.1137 31.3049C64.1653 30.9633 64.1539 30.6135 64.2545 30.2802C64.3033 30.1187 64.3154 29.9478 64.3684 29.7888C64.3999 29.6943 64.4491 29.5935 64.4703 29.4982C64.4836 29.4381 64.5167 29.3845 64.5362 29.3259C64.5444 29.3012 64.3866 29.4231 64.3669 29.4427C64.2304 29.5793 64.1748 29.7625 64.0897 29.9326C63.7855 30.5412 63.4866 31.1346 63.2583 31.7769C63.2183 31.8892 63.1759 32.0158 63.1759 32.1364C63.1759 32.266 63.2241 31.8809 63.2283 31.7514C63.2365 31.5008 63.071 30.7651 63.071 31.0158C63.071 31.1416 63.4561 32.2111 63.5669 32.1619C63.6192 32.1386 63.6171 31.9477 63.6193 31.9177C63.6398 31.6393 63.6343 31.3591 63.6343 31.0802C63.6343 30.7047 63.6343 30.3291 63.6343 29.9536C63.6343 29.7816 63.6827 30.2979 63.7482 30.457C63.7577 30.4802 63.9153 30.8117 63.9309 30.8016C64.0172 30.7458 63.9589 30.3253 63.9579 30.2323C63.9577 30.2124 63.9218 29.9245 63.877 30.0615C63.7739 30.3766 63.7594 31.3817 63.7691 31.0503C63.7716 30.9676 63.7936 30.8679 63.8291 30.7926C63.8693 30.7071 63.8024 30.9799 63.7976 31.0742C63.7964 31.0968 63.8026 31.3451 63.8096 31.3409C63.8148 31.3378 63.874 31.2213 63.874 31.242C63.874 31.3052 63.7611 31.4873 63.8366 31.5477C63.9083 31.6051 63.8643 31.706 63.8485 31.7769C63.827 31.874 63.823 31.9791 63.7422 31.8443" stroke="#333333" stroke-linecap="round"/>
<path d="M52.4483 26.2236C52.2856 26.244 52.1104 27.329 52.1104 27.5191C52.1104 28.0353 51.9414 28.5572 51.9414 29.0837C51.9414 29.6369 51.9963 30.964 52.7018 31.1207C53.6043 31.3213 53.18 29.1928 53.0648 28.7895C52.9642 28.4377 52.8366 28.0191 52.7331 27.6568C52.6771 27.4607 52.5524 26.6742 52.3357 26.6742" stroke="#333333" stroke-linecap="round"/>
<path d="M52.485 29.666V29.5725C52.3924 29.3546 52.3141 29.1321 52.3031 28.9244C52.3007 28.8775 52.2653 28.5456 52.3195 28.524C52.349 28.5122 52.3869 28.7324 52.391 28.7467C52.4351 28.9012 52.465 29.0501 52.485 29.1989C52.5049 29.348 52.5149 29.497 52.5191 29.6514C52.521 29.7198 52.5217 29.7891 52.5217 29.8601C52.5217 30.1964 52.485 29.7734 52.485 29.666Z" fill="#333333"/>
<path d="M52.485 28.7017C52.485 29.0231 52.485 29.3446 52.485 29.666C52.485 29.7734 52.5217 30.1964 52.5217 29.8601C52.5217 29.469 52.499 29.1246 52.391 28.7467C52.3869 28.7324 52.349 28.5122 52.3195 28.524C52.2653 28.5456 52.3007 28.8775 52.3031 28.9244C52.3241 29.3219 52.5918 29.7738 52.7342 30.144C52.7845 30.2748 52.8145 30.4067 52.8527 30.5403C52.9034 30.7178 52.9262 30.77 52.9262 30.524C52.9262 29.8814 52.7424 29.2691 52.7424 28.6282C52.7424 28.2421 52.7424 27.856 52.7424 27.4699C52.7424 27.2553 52.7424 27.0408 52.7424 26.8263C52.7424 26.6807 52.6997 26.3468 52.5585 26.3115" stroke="#333333" stroke-linecap="round"/>
<path d="M58.2674 26.2236C58.2674 27.2562 58.4363 28.2542 58.4363 29.2902C58.4363 29.8036 58.1794 30.0799 58.0421 30.5606C57.9813 30.7732 57.8152 31.0334 57.6791 31.2083C57.5392 31.3883 57.4643 31.4284 57.2973 31.5619C57.188 31.6494 56.9453 31.6871 56.8029 31.6871C56.5922 31.6871 56.5353 31.5148 56.4525 31.3492C56.2458 30.9359 56.465 30.2403 56.465 29.8002C56.465 29.5607 56.6743 29.1537 56.7748 28.9303C56.8934 28.6668 57.111 28.4502 57.313 28.2482C57.488 28.0732 58.0421 27.62 58.0421 27.3501C58.0421 27.1943 58.167 26.9804 58.0984 26.8432" stroke="#333333" stroke-linecap="round"/>
<path d="M57.7117 30.5362V29.7027C57.6722 29.8158 57.6231 29.9435 57.6667 29.7639C57.6792 29.7129 57.7364 29.4408 57.8017 29.3536C57.8642 29.0569 57.9563 28.5953 57.9487 28.5974C57.9259 28.6039 57.9075 28.6276 57.8925 28.6612C57.8766 28.7301 57.8624 28.7892 57.8588 28.8079C57.85 28.8528 57.7995 29.3041 57.824 29.0591C57.8299 29.0005 57.8417 28.7745 57.8925 28.6612C57.9275 28.5086 57.9705 28.3078 57.9241 28.3911C57.7608 28.6852 57.7319 29.0818 57.6586 29.4064C57.6026 29.6541 57.6381 29.4756 57.6381 29.3206C57.6381 29.2752 57.6719 28.8731 57.6014 28.8814C57.5282 28.89 57.4658 29.0677 57.4171 29.2675C57.4156 29.4212 57.4088 29.5728 57.3807 29.7272C57.3472 29.9115 57.2934 30.0878 57.208 30.252C57.1982 30.3009 57.1889 30.35 57.1805 30.3993C57.1796 30.4046 57.1357 30.6132 57.1254 30.5872C57.1043 30.5345 57.1505 30.4214 57.1601 30.3727C57.1636 30.355 57.1672 30.3372 57.1708 30.3195C57.1699 30.3209 57.1691 30.3223 57.1683 30.3237C57.1474 30.359 57.1298 30.3825 57.1158 30.3969C57.1075 30.4216 57.0986 30.447 57.0947 30.4626C57.0801 30.5212 57.0865 30.5184 57.0865 30.4565C57.0865 30.4428 57.0866 30.4291 57.0866 30.4154C57.0781 30.4143 57.0777 30.4007 57.0868 30.3813C57.0888 30.1443 57.1026 29.9077 57.1785 29.6802C57.2575 29.4432 57.2734 29.729 57.2622 29.8171C57.2409 29.9851 57.2044 30.1531 57.1708 30.3195C57.1838 30.2972 57.1962 30.2747 57.208 30.252C57.2372 30.1075 57.2718 29.9646 57.3072 29.8211C57.323 29.7569 57.3611 29.4975 57.4171 29.2675C57.4658 29.0677 57.5282 28.89 57.6014 28.8814C57.6719 28.8731 57.6381 29.2752 57.6381 29.3206C57.6381 29.4756 57.6026 29.6541 57.6586 29.4064C57.7319 29.0818 57.7608 28.6852 57.9241 28.3911C57.9705 28.3078 57.9275 28.5086 57.8925 28.6612C57.9075 28.6276 57.9259 28.6039 57.9487 28.5974C57.9563 28.5953 57.8642 29.0569 57.8017 29.3536C57.8144 29.3367 57.8274 29.3268 57.8404 29.3268C57.88 29.3268 57.8061 29.8423 57.8016 29.8763C57.772 30.0963 57.7117 30.7582 57.7117 30.5362Z" fill="#333333"/>
<path d="M57.7117 29.6536C57.7117 29.9478 57.7117 30.242 57.7117 30.5362C57.7117 30.7582 57.772 30.0963 57.8016 29.8763C57.8061 29.8423 57.88 29.3268 57.8404 29.3268C57.7603 29.3268 57.6816 29.703 57.6667 29.7639C57.605 30.0179 57.729 29.6571 57.7484 29.5923C57.7717 29.515 57.9594 28.5944 57.9487 28.5974C57.8492 28.6259 57.8316 28.9831 57.824 29.0591C57.7995 29.3041 57.85 28.8528 57.8588 28.8079C57.8705 28.7479 57.9914 28.2701 57.9241 28.3911C57.7608 28.6852 57.7319 29.0818 57.6586 29.4064C57.6026 29.6541 57.6381 29.4756 57.6381 29.3206C57.6381 29.2752 57.6719 28.8731 57.6014 28.8814C57.4439 28.8999 57.3368 29.7012 57.3072 29.8211C57.2599 30.0131 57.2138 30.2043 57.1805 30.3993C57.1796 30.4046 57.1357 30.6132 57.1254 30.5872C57.1043 30.5345 57.1505 30.4214 57.1601 30.3727C57.1964 30.1889 57.2387 30.003 57.2622 29.8171C57.2734 29.729 57.2575 29.4432 57.1785 29.6802C57.0946 29.9318 57.0865 30.1944 57.0865 30.4565C57.0865 30.5184 57.0801 30.5212 57.0947 30.4626C57.1055 30.4193 57.1549 30.3003 57.1233 30.3319C57.0472 30.408 57.0775 30.4773 57.1683 30.3237C57.2771 30.1395 57.3423 29.9386 57.3807 29.7272C57.421 29.5057 57.4175 29.2899 57.4175 29.0653C57.4175 28.8643 57.4956 28.6916 57.5258 28.4953C57.5487 28.3461 57.5998 28.2405 57.6463 28.101C57.7082 27.9152 57.6873 27.6795 57.7668 27.5045C57.9057 27.199 58.2265 26.8264 58.2265 26.4912" stroke="#333333" stroke-linecap="round"/>
<path d="M57.2707 30.793C57.1882 30.8033 57.0824 30.9977 57.0215 31.0585C57.002 31.0781 56.9483 31.0851 56.9418 31.1076C56.9382 31.1203 56.9398 31.2126 56.9398 31.1607" stroke="#333333" stroke-linecap="round"/>
</svg>
