<svg width="129.9" height="123.5" xmlns="http://www.w3.org/2000/svg" viewBox="0 0 129.9 123.5">
    <defs>
        <style>.cls-1{fill:#fff;}.cls-2{fill:#009cde;}</style>
    </defs>
    <g id="Layer_1">
        <g>
            <path class="cls-1"
                d="M15.6,78.1v2.2c0,.4,.2,.6,.7,.6h.2q.1,0,.1,.1v.4q0,.1-.1,.1h-3.3q-.1,0-.1-.1v-.3s0-.1,.1-.1h.4c.4,0,.7,0,.7-.3v-5.5c0-.2-.1-.3-.8-.3h-.3q-.1,0-.1-.1v-.4q0-.1,.1-.1h3.2q.1,0,.1,.1v.4q0,.1-.1,.1h-.3c-.4,0-.6,.1-.6,.4v2.8h.1Z" />
            <path class="cls-1"
                d="M25.5,81.2c0,.1,0,.3-.2,.3-.1,0-.3-.1-.4-.2-.1-.1-.7-.8-1.3-1.5-.7-.9-1.4-1.7-1.6-1.9-.4-.4-1.7-2.2-1.9-2.5h0v2.2c0,1,.1,2.6,.1,2.7,0,.4,.2,.5,.4,.5h.3q.1,0,.1,.1v.4q0,.1-.1,.1h-2.3v-.5h.3c.2,0,.4-.1,.5-.5v-4.8c0-.6-.4-.8-.8-.8h-.1q-.1,0-.1-.1v-.4s0-.1,.1-.1h1.9c.2,0,.3,0,.4,.1,0,.1,1.9,2.4,2.2,2.8,.3,.3,1.8,2.2,2,2.4h-.1v-3c0-.4,0-1.3-.1-1.5s-.3-.3-.6-.3h-.3q-.1,0-.1-.1v-.4s0-.1,.1-.1h2.3q.1,0,.1,.1v.3q0,.1-.1,.1h-.2c-.4,0-.5,.1-.5,.3v6.3Z" />
            <path class="cls-1"
                d="M30.4,74.8c-.6,0-1.5,0-2,.1-.4,.3-.7,.8-.9,1.2l-.1,.1-.3-.1s-.1-.1-.1-.2c.1-.4,.5-1.6,.6-1.9,0-.1,.1-.2,.1-.2h.1l.1,.1c.2,.1,.3,.2,.6,.2,.6,0,1.2,.1,2.1,.1h.6c.6,0,1.6,0,2.2-.1,.3,0,.4,0,.6-.1l.2-.1h.1q.1,0,.1,.4c0,.2,.3,1.4,.4,1.8q0,.1-.1,.1l-.3,.1c-.1,0-.2,0-.2-.1-.2-.4-.5-.9-.8-1.2-.4-.1-1.7-.2-2-.2v5.7c0,.3,.1,.4,.4,.4h.6q.1,0,.1,.1v.3s0,.1-.1,.1h-3.2q-.1,0-.1-.1v-.3q0-.1,.1-.1h.6c.2,0,.4-.1,.4-.3v-5.8h.2Z" />
            <path class="cls-1"
                d="M38.5,77.4c.1,0,1,0,1.2-.1,.4-.1,.6-.3,.6-.8q0-.1,.1-.1h.4s.1,0,.1,.1v1.1c0,.4,0,.8,.1,1.1q0,.1-.1,.1h-.3s-.1,0-.1-.1c-.1-.4-.2-.7-.6-.8-.5-.1-1-.1-1.2-.1v2.2c0,.8,.5,.8,1.1,.8,.7,0,1.1,0,1.7-.4,.1-.1,.7-.8,.8-1.1q.1-.1,.2-.1l.3,.1v.1l-.6,1.7c0,.1-.1,.2-.2,.2h-5.7q-.1,0-.1-.1v-.4q0-.1,.1-.1h.1c.8,0,.8-.1,.8-.3v-5.4c0-.3-.1-.4-.8-.4h-.2s-.1,0-.1-.1v-.4s0-.1,.1-.1h5.4s.1,0,.1,.2c0,.1,.5,1.5,.5,1.6v.1l-.3,.1q-.1,0-.1-.1s-.8-.9-1.1-1.2c-.2-.2-.4-.2-.6-.2h-1.7v2.9h.1Z" />
            <path class="cls-1"
                d="M45.1,76.8v-1.5c0-.3-.2-.5-.6-.5h-.2s-.1,0-.1-.1v-.4s0-.1,.1-.1h3.2c1,0,1.7,.3,2.1,.6,.4,.3,.6,.8,.6,1.2,0,1.1-.6,1.7-1.9,2.2h0c.4,.1,.7,.6,1.3,1.5,.2,.3,.6,.8,.9,1,.2,.2,.4,.2,.7,.2q.1,0,.1,.1v.3q0,.1-.1,.1h-1.8c-.3-.2-1-1.5-1.1-1.8-.6-1-.8-1.3-1.5-1.3h-.4v2.1c0,.2,.1,.4,.4,.4h.4q.1,0,.1,.1v.4q0,.1-.1,.1h-2.8q-.1,0-.1-.1v-.4s0-.1,.1-.1h.2c.4,0,.6-.1,.6-.4v-3.6h-.1Zm1.2,1h.5c1.8,0,2-1.2,2-1.7s-.2-.9-.5-1.1c-.4-.3-.9-.4-1.5-.4-.2,0-.5,.1-.5,.4v2.8Z" />
            <path class="cls-1"
                d="M59.4,81.2c0,.1,0,.3-.2,.3-.1,0-.3-.1-.4-.2-.1-.1-.7-.8-1.3-1.5-.7-.9-1.4-1.7-1.6-1.9-.4-.4-1.7-2.2-1.9-2.5h0v2.2c0,1,.1,2.6,.1,2.7,0,.4,.2,.5,.4,.5h.3q.1,0,.1,.1v.4q0,.1-.1,.1h-2.3v-.5h.5c.2,0,.4-.1,.5-.5v-4.8c0-.6-.4-.8-.8-.8h-.1q-.1,0-.1-.1v-.4s0-.1,.1-.1h1.9c.2,0,.3,0,.4,.1,0,.1,1.9,2.4,2.2,2.8,.3,.3,1.8,2.2,2,2.4h.1v-3c0-.4,0-1.3-.1-1.5s-.3-.3-.6-.3h-.3q-.1,0-.1-.1v-.4s0-.1,.1-.1h2.3q.1,0,.1,.1v.3q0,.1-.1,.1h-.2c-.4,0-.5,.1-.5,.3v6.3h-.4Z" />
            <path class="cls-1"
                d="M63.7,78.6c-.1,.2-.6,1.5-.6,1.7v.3c0,.2,.1,.3,.3,.3h.4q.1,0,.1,.1v.4q0,.1-.1,.1h-2.4c-.1,0-.1-.1-.1-.1v-.3q0-.1,.1-.1h.2c.3,0,.5-.2,.7-.3,.1-.1,.9-2,1.3-2.8,.1-.2,1.1-2.4,1.2-2.7,0-.1,.1-.2,.1-.2v-.1s-.1-.1-.1-.2c0,0,0-.1,.2-.1,.3,0,.8-.3,.9-.5,0-.1,.1-.1,.2-.1s.1,.1,.2,.2c.2,.6,1,2.9,1.2,3.6,.2,.8,.9,2.7,1,2.8,.2,.3,.5,.4,.8,.4h.3q.1,0,.1,.1v.3s0,.1-.1,.1h-2.9c-.1,0-.1-.1-.1-.1v-.3s0-.1,.1-.1h.3c.2,0,.3-.1,.3-.3-.1-.3-.5-1.6-.6-2h-3v-.1Zm2.4-.5c-.1-.2-.8-2.6-.8-2.7s0-.2-.1-.2c0,0-.1,0-.1,.2,0,.1-1,2.6-1.1,2.7h2.1Z" />
            <path class="cls-1"
                d="M72.7,78.2v2.4c0,.1-.1,.3-.4,.3h-.6q-.1,0-.1,.1v.3q0,.1,.1,.1h3.2q.1,0,.1-.1v-.3q0-.1-.1-.1h-.6c-.3,0-.3-.2-.4-.4v-5.7c.3,0,1.6,0,2,.2,.3,.3,.6,.8,.8,1.2,0,0,0,.1,.2,.1l.3-.1s.1,0,.1-.1c-.1-.4-.4-1.6-.4-1.8,0-.3-.1-.4-.1-.4h-.1l-.2,.1c-.2,.1-.3,.1-.6,.1-.7,0-1.6,.1-2.3,.1h-.6c-.9,0-1.5,0-2.1-.1-.3,0-.4,0-.6-.2l-.1-.1h-.1q-.1,0-.1,.2c-.1,.3-.4,1.6-.6,1.9q0,.1,.1,.2l.3,.1q.1,0,.1-.1c.2-.4,.5-.9,.9-1.2,.5-.1,1.3-.1,2-.1v3.4h-.1Z" />
            <path class="cls-1"
                d="M80.9,78.1v2.2c0,.4,.2,.6,.7,.6h.2q.1,0,.1,.1v.4q0,.1-.1,.1h-3.3q-.1,0-.1-.1v-.3s0-.1,.1-.1h.4c.4,0,.7,0,.7-.3v-5.5c0-.2-.1-.3-.8-.3h-.3q-.1,0-.1-.1v-.4q0-.1,.1-.1h3.2q.1,0,.1,.1v.4q0,.1-.1,.1h-.3c-.4,0-.6,.1-.6,.4v2.8h.1Z" />
            <path class="cls-1"
                d="M84.7,80.9c-.6-.4-1.4-1.5-1.4-3,0-.7,.1-1.6,.9-2.5,.9-1.1,1.9-1.3,3-1.3,.7,0,1.6,.1,2.4,.8,.7,.6,1.3,1.6,1.3,3,0,.8-.2,1.5-.6,2.2-.6,.9-1.5,1.5-3.2,1.5-.6,0-1.6-.2-2.4-.7Zm4.8-3c0-2.1-1.4-3.4-2.4-3.4-.6,0-1,.1-1.6,.6-.6,.6-.9,1.6-.9,2.4,0,2.5,1.7,3.4,2.5,3.4,2.2,.2,2.4-2.1,2.4-3Z" />
            <path class="cls-1"
                d="M99.2,81.2c0,.1,0,.3-.2,.3-.1,0-.3-.1-.4-.2s-.7-.8-1.3-1.5c-.7-.9-1.4-1.7-1.6-1.9-.4-.4-1.7-2.2-1.9-2.5h0v2.2c0,1,.1,2.6,.1,2.7,0,.4,.2,.5,.4,.5h.3q.1,0,.1,.1v.4q0,.1-.1,.1h-2.3v-.5h.5c.2,0,.4-.1,.5-.5v-4.8c0-.6-.4-.8-.8-.8h-.1q-.1,0-.1-.1v-.4s0-.1,.1-.1h1.9c.2,0,.3,0,.4,.1,0,.1,1.9,2.4,2.2,2.8,.3,.3,1.8,2.2,2,2.4h.1v-3c0-.4,0-1.3-.1-1.5s-.3-.3-.6-.3h-.3q-.1,0-.1-.1v-.4s0-.1,.1-.1h2.3q.1,0,.1,.1v.3q0,.1-.1,.1h-.2c-.4,0-.5,.1-.5,.3v6.3h-.4Z" />
            <path class="cls-1"
                d="M106.1,78.6c.1,.4,.6,1.6,.6,2,0,.1-.1,.3-.3,.3h-.3q-.1,0-.1,.1v.3q0,.1,.1,.1h2.9c.1,0,.1-.1,.1-.1v-.3s0-.1-.1-.1h-.3c-.3,0-.5-.1-.7-.4-.1-.2-.8-2-1-2.8-.2-.6-1-2.9-1.2-3.6,0-.1-.1-.2-.2-.2s-.2,0-.2,.1c-.1,.1-.6,.4-.9,.5-.1,0-.2,.1-.2,.1q0,.1,.1,.2v.1c0,.1,0,.2-.1,.2-.1,.3-1,2.4-1.1,2.7-.4,.8-1.2,2.7-1.3,2.8-.1,.2-.4,.3-.7,.3h-.2q-.1,0-.1,.1v.3q0,.1,.1,.1h2.4q.1,0,.1-.1v-.4q0-.1-.1-.1h-.4c-.2,0-.3-.1-.3-.3v-.3c.1-.2,.6-1.5,.6-1.7h2.8v.1Zm-2.4-.5c.1-.2,1.1-2.6,1.1-2.7,.1-.1,.1-.2,.1-.2,0,0,.1,.1,.1,.2s.8,2.5,.8,2.7h-2.1Z" />
            <path class="cls-1"
                d="M111.4,76.9v-1.7c0-.3-.1-.4-.7-.4h-.2q-.1,0-.1-.1v-.4s0-.1,.1-.1h3.1q.1,0,.1,.1v.4s0,.1-.1,.1h-.2c-.6,0-.6,.1-.6,.4v5.8h2.4c.3-.1,1-1.1,1.3-1.5l.1-.1,.3,.1v.2c0,.1-.4,1.7-.5,2h-5.8q-.1,0-.1-.1v-.3q0-.1,.1-.1h.5c.3,0,.4-.1,.4-.3v-4h-.1Z" />
        </g>
        <g>
            <path class="cls-1"
                d="M.9,100.9c-.1,0-.1-.1-.2-.1s-.1,0-.1,.1l-.1,.2c0,.1-.1,.1-.3,.1-.1,0-.2-.1-.2-.2,.1-.6,.2-2.2,.2-2.5,0-.1,.1-.1,.1-.1h.4c.1,0,.2,.1,.2,.1,0,.3,0,.7,.4,1.4,.3,.6,1,1,1.7,1,.6,0,1.6-.5,1.6-1.4,0-1.1-.8-1.6-1.8-2-.4-.1-1.4-.5-2-1-.5-.4-.7-1.1-.7-2.1,0-.7,.4-1.3,.9-1.7s1.2-.6,1.9-.6c.8,0,1.2,.1,1.4,.3,.1,.1,.2,.1,.3,.1,0,0,.1,0,.1-.1l.1-.1c0-.1,.1-.1,.3-.1s.2,.1,.2,.2c0,.7,.2,2,.2,2.2q0,.1-.1,.1l-.4,.1q-.1,0-.1-.1c-.1-.2-.3-.9-.7-1.4-.3-.3-.7-.5-1.3-.5-1.1,0-1.4,.9-1.4,1.2s.1,.7,.3,1c.3,.4,1,.7,1.4,.8,.9,.3,1.7,.6,2.2,1.1,.4,.4,.6,.9,.6,1.9,0,1.5-1,2.8-2.8,2.8-1.1,0-1.8-.3-2.3-.7Z" />
            <path class="cls-1"
                d="M11.5,93.1c-.8,0-1.8,0-2.5,.2-.5,.4-.9,1-1.2,1.5,0,.1-.1,.1-.2,.1l-.4-.1c-.1,0-.1-.1-.1-.2,.1-.4,.6-2.1,.7-2.4,0-.1,.1-.2,.2-.2s.1,0,.2,.1l.2,.1c.3,.2,.4,.2,.8,.2,.7,0,1.5,.1,2.6,.1h.8c.8,0,2,0,2.8-.1,.3,0,.5,0,.7-.2l.2-.2c.1,0,.1-.1,.2-.1s.1,.1,.2,.4c0,.3,.4,1.7,.5,2.3q0,.1-.1,.2l-.3,.1q-.2,0-.2-.1c-.2-.5-.6-1.2-1-1.5-.5-.2-2.2-.2-2.5-.2v7.2c0,.3,.1,.5,.5,.5h.8c.1,0,.1,.1,.1,.2v.4q0,.1-.1,.1c-.1,0-1.4-.1-2-.1s-1.9,.1-2,.1-.2-.1-.2-.2v-.4q0-.1,.1-.1h.8c.3,0,.4-.2,.5-.3,.1-.8,.1-1.8,.1-3v-4.4h-.2Z" />
            <path class="cls-1"
                d="M19.2,93.7c0-.4-.1-.6-.7-.6h-.4q-.1,0-.1-.1v-.6q0-.1,.1-.1c.1,0,1.4,.1,2,.1,.5,0,1.7-.1,1.8-.1s.1,0,.1,.1v.5q0,.1-.1,.1h-.3c-.6,0-.9,.2-.9,.4v5c0,.6,.1,1.2,.5,1.6,.5,.6,1.3,.9,1.9,.9,.7,0,1.4-.3,1.8-.7,.6-.5,.7-1.3,.7-2.1v-2.7c0-.9,0-1.6-.1-1.8,0-.3-.2-.5-.9-.5h-.2c-.1,0-.1-.1-.1-.2v-.5q0-.1,.1-.1c.1,0,1.2,.1,1.7,.1,.3,0,1.3-.1,1.5-.1,.1,0,.1,.1,.1,.1v.4q0,.1-.1,.1h-.2c-.7,0-.8,.3-.8,.5v1.9c0,.2,0,2.4-.1,2.9-.1,1-.4,1.9-1.1,2.5-.5,.5-1.4,.8-2.7,.8-.8,0-1.4-.1-1.9-.3-.9-.4-1.4-.9-1.6-1.7-.1-.6-.2-1.4-.2-3.2v-2.6h.2Z" />
            <path class="cls-1"
                d="M30.9,95.5c0-.3,0-1.8-.1-2.2,0-.2-.2-.3-.6-.3h-.7q-.1,0-.1-.1v-.5q0-.1,.1-.1c.1,0,1.6,.1,2,.1,.3,0,1.7-.1,2.1-.1,1.9,0,3.2,.1,4.4,1.2,.9,.8,1.4,1.7,1.4,3.2s-.3,2.4-1.2,3.4c-1.2,1.3-3.7,1.3-4.2,1.3h-2.7c-.3,0-1.8,.1-1.9,.1s-.1,0-.1-.2v-.4q0-.1,.1-.1h.9c.3,0,.4-.2,.4-.3,0-.2,.1-2.9,.1-3.9v-1.1h.1Zm1.6,1.3v2.9c0,.3,.1,.5,.2,.7,.2,.3,.7,.4,1.2,.4,1.3,0,2.5-.6,3.1-1.4,.5-.6,.8-1.5,.8-2.5,0-1.2-.4-2.2-.9-2.8-.7-.8-1.8-1.3-3.2-1.3-.3,0-.7,0-.9,.1-.2,.1-.3,.3-.3,.5v3.4Z" />
            <path class="cls-1"
                d="M43.9,96.4c.1,0,1.3-.1,1.5-.1,.5-.1,.7-.4,.7-1q0-.1,.1-.1h.4q.1,0,.1,.1v1.4c0,.4,.1,1.1,.1,1.3q0,.1-.1,.1h-.4q-.1,0-.1-.1c-.1-.5-.2-.8-.7-.9-.6-.1-1.3-.1-1.5-.1v2.8c0,.9,.6,1,1.4,1,.9,0,1.4,0,2.1-.6,.2-.1,.9-1,1.1-1.3q.1-.1,.3-.1l.3,.2,.1,.1-.7,2.1c0,.1-.1,.2-.2,.2s-1.2-.1-5.4-.1c-.4,0-1.5,.1-1.7,.1-.1,0-.1-.1-.1-.1v-.5q0-.1,.1-.1h.2c.9,0,1-.1,1-.4v-6.8c-.1-.4-.2-.5-1-.5h-.2q-.1,0-.1-.1v-.5s0-.1,.1-.1c.3,0,1.4,.1,1.7,.1h5s.1,0,.1,.3c0,.2,.6,1.9,.6,2v.1l-.3,.1q-.1,0-.2-.1c0-.1-1-1.2-1.3-1.5-.2-.2-.6-.3-.8-.3h-2.1v3.4h-.1Z" />
            <path class="cls-1"
                d="M59.6,101.1c0,.2-.1,.4-.3,.4s-.4-.1-.5-.2c-.1-.1-.8-1-1.6-1.9-.9-1.1-1.8-2.1-2-2.4-.5-.6-2.1-2.7-2.4-3.1h0v2.7c0,1.2,.1,3.2,.1,3.4,.1,.5,.3,.7,.5,.7h.4q.1,0,.1,.1v.5q0,.1-.1,.1c-.1,0-.9-.1-1.5-.1-.3,0-1.2,.1-1.3,.1,0,0-.1,0-.1-.1v-.5s0-.1,.1-.1h.5c.2,0,.5-.1,.6-.6,0-.2,.1-1.7,.1-3.9v-2.1c0-.7-.5-1.1-1.1-1.1h-.2q-.1,0-.1-.1v-.5q0-.1,.1-.1c.1,0,.9,.1,1.3,.1h1c.3,0,.4,0,.5,.2,.1,.1,2.4,3,2.8,3.5,.4,.4,2.2,2.8,2.5,3h.1v-1.3c0-1.1,0-1.8-.1-2.4,0-.5-.1-1.6-.2-1.9-.1-.2-.4-.4-.7-.4h-.3q-.1,0-.1-.1v-.6q0-.1,.1-.1c.1,0,1,.1,1.6,.1,.4,0,1.1-.1,1.3-.1q.1,0,.1,.2v.4q0,.1-.1,.1h-.2c-.5,0-.6,.1-.6,.4-.1,.5-.1,1.1-.1,1.7v6h-.2Z" />
            <path class="cls-1"
                d="M66.2,93.1c-.8,0-1.8,0-2.5,.2-.5,.4-.9,1-1.2,1.5,0,.1-.1,.1-.2,.1l-.4-.1c-.1,0-.1-.1-.1-.2,.1-.4,.6-2.1,.7-2.4,0-.1,.1-.2,.2-.2s.1,0,.2,.1l.2,.1c.3,.2,.4,.2,.8,.2,.7,0,1.5,.1,2.6,.1h.8c.8,0,2,0,2.8-.1,.3,0,.5,0,.7-.2l.2-.2c.1,0,.1-.1,.2-.1s.1,.1,.2,.4c0,.3,.4,1.7,.5,2.3q0,.1-.1,.2l-.3,.1q-.2,0-.2-.1c-.2-.5-.6-1.2-1-1.5-.5-.2-2.2-.2-2.5-.2v7.2c0,.3,.1,.5,.5,.5h.8c.1,0,.1,.1,.1,.2v.4q0,.1-.1,.1c-.1,0-1.4-.1-2-.1s-1.9,.1-2,.1-.2-.1-.2-.2v-.4q0-.1,.1-.1h.8c.3,0,.4-.2,.5-.3,.1-.8,.1-1.8,.1-3v-4.4h-.2Z" />
            <path class="cls-1"
                d="M87.9,96.7v3c0,.8,.1,1,.6,1h.6c.1,0,.1,.1,.1,.1v.4q0,.1-.2,.1c-.2,0-1.2-.1-1.8-.1-.4,0-1.6,.1-1.9,.1-.1,0-.2-.1-.2-.1v-.5q0-.1,.1-.1h.8c.3,0,.4-.2,.4-.7v-2.9c0-.1-.1-.2-.3-.2h-4.5q-.2,0-.2,.1v2.9c0,.6,.2,.7,.4,.7h.6q.1,0,.1,.1v.4q0,.1-.1,.1c-.2,0-1.4-.1-1.8-.1s-1.7,.1-2,.1q-.1,0-.1-.1v-.5q0-.1,.1-.1h.6c.5,0,.5-.3,.5-.7v-5.9c0-.6-.2-.8-.6-.8h-.5c-.1,0-.2,0-.2-.1v-.4c0-.1,0-.2,.2-.2s1.5,.1,2,.1c.4,0,1.6-.1,1.8-.1,.1,0,.2,0,.2,.2v.4q0,.1-.2,.1h-.6c-.3,0-.5,.2-.5,.5v2.6c0,.1,0,.2,.2,.2h4.5c.2,0,.3,0,.3-.2v-2.5c0-.4-.2-.6-.5-.6h-.6q-.1,0-.1-.1v-.5q0-.1,.1-.1c.2,0,1.5,.1,1.9,.1,.3,0,1.5-.1,1.7-.1s.2,.1,.2,.2v.4q0,.1-.2,.1h-.5c-.3,0-.4,.2-.4,.5v3.2h0Z" />
            <path class="cls-1"
                d="M92.7,100.7c-.7-.5-1.8-1.9-1.8-3.8,0-.8,.1-2,1.1-3.2,1.2-1.4,2.4-1.7,3.7-1.7,.9,0,2,.2,3,1.1,.9,.8,1.6,2,1.6,3.8,0,1-.2,1.9-.8,2.8-.8,1.1-1.9,1.8-4,1.8-.6,.1-1.7-.1-2.8-.8Zm6-3.7c0-2.6-1.8-4.2-3-4.2-.7,0-1.3,.1-2,.7-.8,.8-1.1,2-1.1,3.1,0,3.2,2.1,4.3,3.1,4.3,2.8,0,3-2.8,3-3.9Z" />
            <path class="cls-1"
                d="M103.1,93.7c0-.4-.1-.6-.7-.6h-.4q-.1,0-.1-.1v-.6q0-.1,.1-.1c.1,0,1.4,.1,2,.1,.5,0,1.7-.1,1.8-.1s.1,0,.1,.1v.5q0,.1-.1,.1h-.3c-.6,0-.9,.2-.9,.4v5c0,.6,.1,1.2,.5,1.6,.5,.6,1.3,.9,1.9,.9,.7,0,1.4-.3,1.8-.7,.6-.5,.7-1.3,.7-2.1v-2.7c0-.9,0-1.6-.1-1.8,0-.3-.2-.5-.9-.5h-.2c-.1,0-.1-.1-.1-.2v-.5q0-.1,.1-.1c.1,0,1.2,.1,1.7,.1,.3,0,1.3-.1,1.5-.1,.1,0,.1,.1,.1,.1v.4q0,.1-.1,.1h-.2c-.7,0-.8,.3-.8,.5v1.9c0,.2,0,2.4-.1,2.9-.1,1-.4,1.9-1.1,2.5-.5,.5-1.4,.8-2.7,.8-.8,0-1.4-.1-1.9-.3-.9-.4-1.4-.9-1.6-1.7-.1-.6-.2-1.4-.2-3.2v-2.6h.2Z" />
            <path class="cls-1"
                d="M114.5,100.9c-.1,0-.1-.1-.2-.1s-.1,0-.1,.1l-.1,.2c0,.1-.1,.1-.3,.1-.1,0-.2-.1-.2-.2,.1-.6,.2-2.2,.2-2.5,0-.1,.1-.1,.1-.1h.4c.1,0,.2,.1,.2,.1,0,.3,0,.7,.4,1.4,.3,.6,1,1,1.7,1,.6,0,1.6-.5,1.6-1.4,0-1.1-.8-1.6-1.8-2-.4-.1-1.4-.5-2-1-.5-.4-.7-1.1-.7-2.1,0-.7,.4-1.3,.9-1.7s1.2-.6,1.9-.6c.8,0,1.2,.1,1.4,.3,.1,.1,.2,.1,.3,.1,0,0,.1,0,.1-.1l.1-.1c0-.1,.1-.1,.3-.1s.2,.1,.2,.2c0,.7,.2,2,.2,2.2q0,.1-.1,.1l-.4,.1q-.1,0-.1-.1c-.1-.2-.3-.9-.7-1.4-.3-.3-.7-.5-1.3-.5-1.1,0-1.4,.9-1.4,1.2s.1,.7,.3,1c.3,.4,1,.7,1.4,.8,.9,.3,1.7,.6,2.2,1.1,.4,.4,.6,.9,.6,1.9,0,1.5-1,2.8-2.8,2.8-1.2,0-1.9-.3-2.3-.7Z" />
            <path class="cls-1"
                d="M124.5,96.4c.1,0,1.3-.1,1.5-.1,.5-.1,.7-.4,.7-1q0-.1,.1-.1h.4q.1,0,.1,.1v1.4c0,.4,.1,1.1,.1,1.3q0,.1-.1,.1h-.4q-.1,0-.1-.1c-.1-.5-.2-.8-.7-.9-.6-.1-1.3-.1-1.5-.1v2.8c0,.9,.6,1,1.4,1,.9,0,1.4,0,2.1-.6,.2-.1,.9-1,1.1-1.3q.1-.1,.3-.1l.3,.2,.1,.1-.7,2.1c0,.1-.1,.2-.2,.2s-1.2-.1-5.4-.1c-.4,0-1.5,.1-1.7,.1-.1,0-.1-.1-.1-.1v-.5q0-.1,.1-.1h.2c.9,0,1-.1,1-.4v-6.8c-.1-.4-.2-.5-1-.5h-.2q-.1,0-.1-.1v-.5s0-.1,.1-.1c.3,0,1.4,.1,1.7,.1h5s.1,0,.1,.3c0,.2,.6,1.9,.6,2v.1l-.3,.1q-.1,0-.2-.1c0-.1-1-1.2-1.3-1.5-.2-.2-.6-.3-.8-.3h-2.1v3.4h-.1Z" />
        </g>
        <g>
            <path class="cls-1"
                d="M24.3,114.5c-.3,0-.5,.2-.5,.5s.1,.3,.3,.4c.1,.1,.3,.2,.3,.4,0,.3-.2,.5-.5,.5-.2,0-.7-.2-.7-.8,0-.5,.3-.9,.6-1.3,.2-.2,.6-.5,1.1-.5h1l1.3-.1c.2,0,.3,.1,.1,.3-.4,.5-1.6,2.4-1.6,3.8,0,.7,.4,1,.8,1,.6,0,1.2-.4,1.6-1,.2-.4,.4-1.2,.6-1.8,.1-.5,.1-1.2,.2-1.7,.1-.4,.4-.4,.6-.4,.3,0,.3,.2,.3,.3,0,.2-.3,1.1-.7,2.2-.2,.5-.3,.9-.3,1.3,0,.6,.6,1.1,1.2,1.1,.9,0,2-1,2-2.9,0-.2-.1-.7-.2-.9-.1-.1-.5-.4-.5-.8,0-.3,.3-.6,.6-.6s.7,.2,.7,1.4c0,1-.3,2.3-1,3.2-.4,.5-1,1.3-2.1,1.3-.9,0-1.4-.8-1.4-1.3-.3,.3-1.2,1.3-2.3,1.3-.6,0-1.3-.5-1.3-1.4,0-1.2,1.3-3.1,1.8-3.7l-.1-.1c-.2,.1-.7,.2-1,.2h-.9v.1Z" />
            <path class="cls-1"
                d="M39.4,113.5c.1,0,.1,.1,0,.1-.3,.6-1,2.5-1,2.7-.1,.2-.7,2-.7,2.1s.1,.2,.2,.2c.2,0,.9-.7,1-.9,0,0,.1-.1,.1,0l.1,.1s.1,.1,0,.1c-.2,.3-1.4,1.5-2.2,1.5-.2,0-.3-.1-.3-.2,0-.2,.1-.6,.7-2.1h-.1c-.6,.9-2,2.4-3,2.4-.3,0-.8-.3-.8-.9,0-2,2.3-5.1,4-5.1,.6,0,.9,.3,1,.5l.3-.4c0-.1,.1-.1,.1-.1h.6Zm-1.8,2.4c.2-.4,.3-.8,.3-1.2s-.1-.8-.7-.8c-1.3,0-2.8,2.9-2.8,4.3,0,.3,.1,.5,.4,.5,.8,0,2.5-2.2,2.8-2.8Z" />
            <path class="cls-1"
                d="M41.1,119.5c1,0,1.8-.7,1.8-1.7,0-.7-.4-1.4-.5-1.6-.1-.2-.5-.8-.5-1.3s.4-.9,.7-.9,.3,.2,.4,.4,.3,.3,.5,.3,.4-.2,.4-.4c0-.5-.6-.7-1-.7-1,0-1.8,.9-1.8,1.7,0,.6,.3,1.1,.4,1.4,.2,.4,.6,1,.6,1.6,0,.5-.4,.9-.8,.9-.3,0-.4-.2-.5-.4s-.3-.4-.6-.4-.5,.3-.5,.5c.1,.2,.6,.6,1.4,.6Z" />
            <path class="cls-1"
                d="M44.5,119.3c-.1,0-.2,0,0,0l3.1-8c.2-.4,.2-.6,.2-.7,0-.2-.2-.3-.5-.3h-.4c-.1,0-.2,0-.1-.1l.1-.2q0-.1,.2-.1h1.9c.1,0,.2,0,.2,.2,0,.1,0,.2-.1,.4l-2.2,5.1,.1,.1c.7-1,1.6-2.2,2.8-2.2,.6,0,1,.5,1,1.2,0,1.1-.5,2.3-1,3.2-.6,1-1.3,1.8-2.1,1.8-.4,0-.7-.3-.7-.6s.2-.7,.5-.7,.5,.2,.5,.4c0,.1,.1,.3,.2,.3,.3,0,.8-.9,1-1.6,.3-.8,.6-1.9,.6-2.5,0-.3,0-.8-.4-.8-.7,0-2,1.5-2.3,1.9s-.6,1-.9,1.6l-.6,1.4c0,.1-.1,.1-.2,.1h-.9v.1Z" />
            <path class="cls-1"
                d="M51.9,119.1c0-.3,.2-1,.8-2.5l.4-1.1c.1-.4,.3-.7,.3-.8s-.1-.2-.2-.2c-.2,0-.9,.8-1.1,1q-.1,.1-.2,0l-.1-.1c-.1,0-.1-.1,0-.1,.1-.1,1.5-1.8,2.4-1.7,.2,0,.3,.1,.3,.3,0,.3-.2,.9-.5,1.6l-.8,2.1c-.2,.5-.3,.8-.3,.9s0,.2,.2,.2c.3-.1,1-.9,1.1-1h.2l.1,.1q.1,.1,0,.2c-.1,.1-1.2,1.5-2.4,1.5-.1,0-.2-.2-.2-.4Zm1.8-8.7c0-.4,.3-.7,.7-.7,.5,0,.7,.4,.7,.7,0,.2-.2,.7-.7,.7-.6,0-.7-.5-.7-.7Z" />
            <path class="cls-1"
                d="M55.8,119.3q-.2,0-.2-.1l1-2.6c.3-.9,.7-1.9,.7-2.1,0-.1-.1-.2-.2-.2-.3,0-.9,.7-1.2,.9h-.1l-.1-.1q-.1-.1,0-.1c.2-.3,1.2-1.4,2.2-1.4,.3,0,.4,.2,.4,.4,0,.4-.6,1.8-.7,2.1h.1c.4-.7,1.9-2.5,3.2-2.5,.4,0,.7,.2,.7,.6,0,.6-.3,1.3-.8,2.5-.4,.9-.7,1.7-.7,1.9,0,.1,.1,.2,.2,.2,.2,0,.8-.5,1-.7h.2l.1,.1q.1,.1,0,.2c-.2,.2-1.3,1.2-2.2,1.2-.2,0-.3-.1-.3-.3,0-.3,.5-1.4,.9-2.6,.2-.5,.7-1.7,.7-2,0-.2-.1-.3-.3-.3-.5,0-1.9,1.3-2.5,2.3-.2,.4-.5,.8-.8,1.7l-.3,.9c0,.1-.1,.1-.2,.1h-.8v-.1Z" />
            <path class="cls-1"
                d="M61.4,121.6c0-1,1.7-1.7,2.4-2-.4-.3-.5-.5-.5-.8s.2-.5,1.2-1c-.4-.1-1.1-.6-1.1-1.6s.9-2.7,2.5-2.7c.7,0,1.1,.4,1.2,.7,.2-.2,.7-.5,1.2-.5s.6,.4,.6,.5c0,.2-.1,.4-.4,.4s-.4-.1-.5-.2c-.1-.1-.2-.1-.3-.1s-.3,.1-.4,.2c.1,.1,.1,.6,.1,.8,0,.7-.4,2.2-2,2.5-.2,0-.4,.1-.4,.1-.3,.1-.7,.4-.7,.7,0,.2,.1,.3,.2,.4,.2,.2,.9,.6,1.8,1.2,.8,.5,1,1,1,1.5,0,.2-.2,1.8-3,1.8-1.5,0-2.9-.8-2.9-1.9Zm3.1,1.4c.9,0,1.7-.3,1.7-1.1,0-.6-.6-1-.9-1.2-.1-.1-1-.7-1.2-.8-1.1,.5-1.8,1-1.8,1.6,0,1,1.3,1.5,2.2,1.5Zm1.9-8.2c0-.6-.3-.9-.6-.9-.8,0-1.6,1.6-1.6,2.7,0,.6,.2,.9,.7,.9,1,0,1.5-1.7,1.5-2.7Z" />
            <path class="cls-1"
                d="M70.3,114.4h-1q-.1,0-.1-.1l.1-.3c0-.1,.1-.1,.2-.1h1l.7-1.6c.1-.1,.1-.2,.2-.2,.2,0,.5-.2,.6-.2s.2-.1,.2-.1c.1,0,.1,.1,0,.3l-.9,1.9h1.4q.1,0,.1,.2l-.1,.3-.1,.1h-1.4l-1.4,3.1c-.2,.4-.3,.7-.3,.9s.1,.2,.2,.2c.4,0,1.3-.8,1.4-.9,0-.1,.1,0,.1,0l.2,.2v.1c-.2,.2-1.5,1.4-2.6,1.4-.3,0-.4-.1-.4-.3s.1-.4,.2-.7l1.7-4.2Z" />
            <path class="cls-1"
                d="M72.9,117.7c0-1.8,1.3-4.2,3.2-4.2,.9,0,1.5,.7,1.5,1.6,0,1.5-1.2,4.3-3.2,4.3-.8,.1-1.5-.7-1.5-1.7Zm4.2-2.8c0-.4-.2-.8-.7-.8-.6,0-1.3,.5-2,1.7-.5,.8-.8,1.6-.8,2.3,0,.4,.3,.7,.6,.7,1.4,0,2.9-2.9,2.9-3.9Z" />
            <path class="cls-1"
                d="M78.8,119.3q-.2,0-.2-.1l1-2.6c.3-.9,.7-1.9,.7-2.1,0-.1-.1-.2-.2-.2-.3,0-.9,.7-1.2,.9h-.1l-.1-.1q-.1-.1,0-.1c.2-.3,1.2-1.4,2.2-1.4,.3,0,.4,.2,.4,.4,0,.4-.6,1.8-.7,2.1h.1c.4-.7,1.9-2.5,3.2-2.5,.4,0,.7,.2,.7,.6,0,.6-.3,1.3-.8,2.5-.4,.9-.7,1.7-.7,1.9,0,.1,.1,.2,.2,.2,.2,0,.8-.5,1-.7h.2l.1,.1q.1,.1,0,.2c-.2,.2-1.3,1.2-2.2,1.2-.2,0-.3-.1-.3-.3,0-.3,.5-1.4,.9-2.6,.2-.5,.7-1.7,.7-2,0-.2-.1-.3-.3-.3-.5,0-1.9,1.3-2.5,2.3-.2,.4-.5,.8-.8,1.7l-.3,.9c0,.1-.1,.1-.2,.1h-.8v-.1Z" />
            <path class="cls-1"
                d="M85,121c0-.1,0-.2,.2-.2,.3-.1,1.1-.6,1.1-1.2,0-.3-.1-.5-.3-.7-.1-.1-.4-.3-.4-.6s.2-.6,.6-.6c.6,0,1,.9,1,1.4,0,1.6-1.7,2.2-2,2.2-.1-.2-.2-.2-.2-.3Z" />
            <path class="cls-1"
                d="M97.1,110.4c-.1,0-.1-.1-.1-.1l.1-.3q0-.1,.2-.1h1.7c.2,0,.2,.1,.2,.3-.2,.5-2.7,7-2.9,7.9-.1,.4-.1,.6,.1,.6s.9-.6,1-.7h.2l.1,.1v.1c-.1,.1-1.3,1.2-2,1.2-.2,0-.4-.1-.4-.3,0-.3,.3-1.2,.6-2h-.1c-.7,1.1-2,2.4-2.9,2.4-.5,0-.9-.3-.9-.9,0-1.1,.8-2.8,1.9-3.9,.4-.4,1.3-1.1,2.2-1.1,.4,0,.6,.2,.9,.5l1.1-3.1c.1-.3,0-.5-.3-.5h-.7v-.1Zm-1.6,6.4c.4-.5,.9-1.4,.9-2,0-.7-.3-.9-.7-.9-1.3,0-2.8,3.1-2.8,4.3,0,.3,.2,.4,.4,.4,.5,.2,1.6-1,2.2-1.8Z" />
            <path class="cls-1"
                d="M98.9,119.5c.5,0,.8-.4,.8-.8,0-.2-.2-.7-.8-.7-.5,0-.7,.4-.7,.7,0,.4,.3,.8,.7,.8Z" />
            <path class="cls-1"
                d="M101.7,118.2c0-1.9,1.6-4.7,3.2-4.7,.7,0,.8,.5,.8,.8s-.3,.6-.6,.6c-.2,0-.3-.1-.4-.3,0-.2-.2-.4-.4-.4-.3,0-.7,.3-1,1-.4,.8-.6,2-.6,2.4,0,1,.3,1.2,.6,1.2,.5,0,1.1-.6,1.2-.8,0-.1,.1-.1,.1-.1l.2,.1s.1,.1,0,.2c-.2,.3-1.1,1.2-2,1.2-.5,.1-1.1-.3-1.1-1.2Z" />
            <path class="cls-1"
                d="M105.6,118.7c0-.3,.2-.7,.7-.7,.6,0,.8,.6,.8,.7,0,.4-.3,.8-.8,.8-.4,0-.7-.4-.7-.8Z" />
        </g>
        <g>
            <path class="cls-2"
                d="M50.2,45.3c-.2-1,.1-2.2,.3-2.2,0,0-.4,0-.9,.1v-1c-2,.7-4.1,1.2-6.3,1.5-.5,1.6-.7,3.3-.9,5h.8c1.7,0,3.3-.1,4.6-.2h.3c.2,0,.4,0,.6-.1,.3,0,.5-.1,.8-.1h.2c1-.1,1.8-.3,2-.5-.1-2.6-1.3-1.7-1.5-2.5Z" />
            <path class="cls-2"
                d="M86.2,27.1c2.1-.7,4.3-1.6,6.3-2.8-2-1.2-4.1-2.1-6.3-2.8-1.6,1.1-3.2,2.1-4.9,2.8,1.7,.8,3.4,1.7,4.9,2.8Z" />
            <path class="cls-2"
                d="M49.8,25.6c-1.4,.6-2.7,1.2-4,2,1.3,.3,2.6,.4,3.9,.5-.1-.9,0-1.7,.1-2.5Z" />
            <path class="cls-2"
                d="M57.4,18.2c.1,0,.3-.1,.4-.1-.4-.2-.8-.5-1.2-.7,.3,.3,.5,.6,.8,.8Z" />
            <path class="cls-2"
                d="M37.4,24.3c2,1.2,4.1,2.1,6.3,2.8,1.6-1.1,3.2-2.1,4.9-2.8-1.7-.7-3.4-1.7-4.9-2.8-2.2,.7-4.3,1.6-6.3,2.8Z" />
            <path class="cls-2"
                d="M90.8,15c-2.3-.4-4.6-.6-6.9-.5-1.1,1.6-2.3,3-3.7,4.3,1.9,.1,3.7,.4,5.6,1,1.9-1.4,3.6-3,5-4.8Z" />
            <path class="cls-2"
                d="M45.8,21c1.5,.9,3,1.7,4.6,2.3,.4-1,1-1.7,1.8-2.4-.2-.2-.5-.3-.7-.5-2-.1-3.8,.2-5.7,.6Z" />
            <path class="cls-2"
                d="M66.6,17c.2-1.1,.2-2.2,.2-3.3-.4,1-.7,2.1-.9,3.2,.2,0,.5,0,.7,.1Z" />
            <path class="cls-2"
                d="M58.3,6.1c-.1,1.1-.1,2.2,0,3.3,.1,.8,.2,1.5,.3,2.3,1,.9,1.9,1.9,2.8,3,0-1.3,0-2.7,.2-4-.4-.6-.8-1.3-1.2-1.9-.6-.9-1.3-1.8-2.1-2.7Z" />
            <path class="cls-2"
                d="M81.8,14.7c-1.9,.2-3.8,.7-5.5,1.3-.7,1-1.4,2-2.1,2.9,.2,.1,.3,.1,.5,.2,1.1-.2,2.2-.3,3.3-.4,1.3-1.1,2.6-2.5,3.8-4Z" />
            <path class="cls-2"
                d="M48.1,14.7c1.2,1.5,2.5,2.9,3.9,4.1,1.1,0,2.2,.2,3.3,.4,.1-.1,.3-.1,.5-.2-.8-.9-1.5-1.9-2.1-2.9-1.8-.7-3.7-1.2-5.6-1.4Z" />
            <path class="cls-2"
                d="M62.2,0h-2.8c-.4,1.3-.7,2.7-.9,4,1.2,1.2,2.4,2.5,3.4,3.9,.1,.1,.2,.3,.3,.5,0-.2,.1-.4,.1-.6,.4-1.6,1.1-3.2,1.8-4.8-.6-1-1.2-2.1-1.9-3Z" />
            <path class="cls-2"
                d="M71.6,6.1c-.8,.8-1.5,1.7-2.2,2.7-.4,.6-.8,1.2-1.2,1.9,.2,1.4,.3,2.7,.2,4,.8-1.1,1.8-2,2.8-3,.1-.7,.3-1.5,.3-2.3,.2-1,.2-2.1,.1-3.3Z" />
            <path class="cls-2"
                d="M70.6,0h-2.8c-.7,1-1.3,2-1.9,3,.7,1.5,1.4,3.1,1.8,4.8,.1,.2,.1,.4,.1,.6,.1-.1,.2-.3,.3-.5,1-1.4,2.1-2.7,3.4-3.9-.2-1.4-.6-2.7-.9-4Z" />
            <path class="cls-2"
                d="M56.8,10.3c0-.2-.1-.4-.1-.6-.1-1.7-.1-3.4,.1-5-1.7-1.5-3.5-2.8-5.6-3.9,0,2.3,.2,4.6,.6,6.7,1.8,.7,3.5,1.7,5,2.8Z" />
            <path class="cls-2"
                d="M73.2,9.6c0,.2-.1,.4-.1,.6,1.5-1.1,3.2-2.1,4.9-2.9,.5-2.2,.7-4.4,.6-6.7-2,1.1-3.9,2.4-5.6,3.9,.3,1.8,.4,3.5,.2,5.1Z" />
            <path class="cls-2"
                d="M69.3,17.4c.4-.8,.8-1.6,1.1-2.4-.6,.7-1.2,1.5-1.7,2.3,.2,.1,.4,.1,.6,.1Z" />
            <path class="cls-2"
                d="M93.3,15.6c-.2-.1-.4-.2-.7-.2-1.4,1.9-3,3.5-4.8,5,1.9,.7,3.7,1.6,5.5,2.6v-7.4Z" />
            <path class="cls-2"
                d="M45.9,14.5c-2.2-.1-4.5,.1-6.9,.5,1.5,1.8,3.1,3.4,4.9,4.8,1.9-.5,3.7-.8,5.6-1-1.3-1.3-2.5-2.7-3.6-4.3Z" />
            <path class="cls-2"
                d="M52.4,9.5c.3,1,.7,2.1,1.2,3.1,.3,.7,.7,1.4,1.1,2.1,1.3,.5,2.5,1.1,3.6,1.8-.5-1.2-.9-2.5-1.2-3.9-1.4-1.1-3-2.2-4.7-3.1Z" />
            <path class="cls-2"
                d="M80.3,28.2c1.3-.1,2.6-.2,3.8-.5-1.3-.8-2.6-1.5-4-2,.1,.7,.1,1.5,.2,2.5Z" />
            <path class="cls-2"
                d="M76.3,12.6c.5-1,.8-2,1.2-3.1-1.7,.9-3.3,1.9-4.7,3.1-.3,1.3-.7,2.6-1.2,3.9,1.1-.7,2.4-1.3,3.6-1.8,.4-.7,.8-1.4,1.1-2.1Z" />
            <path class="cls-2"
                d="M84.1,21c-1.9-.4-3.8-.6-5.6-.6-.2,.2-.5,.4-.7,.5,.8,.7,1.4,1.4,1.8,2.4,1.5-.6,3-1.4,4.5-2.3Z" />
            <path class="cls-2" d="M65.8,0h-1.7c.3,.5,.6,.9,.9,1.3,.2-.5,.5-.9,.8-1.3Z" />
            <path class="cls-2" d="M72.5,18.3l.8-.8c-.4,.2-.8,.5-1.2,.7,.1,0,.3,0,.4,.1Z" />
            <path class="cls-2"
                d="M66.1,8.2c-.3-1.1-.7-2.2-1.1-3.2-.4,1.1-.8,2.1-1.1,3.2-.2,.7-.3,1.5-.5,2.2,.6,1.2,1.2,2.4,1.6,3.7,.4-1.3,1-2.5,1.6-3.7-.2-.7-.3-1.5-.5-2.2Z" />
            <path class="cls-2"
                d="M60.6,17.4c.2,0,.4-.1,.7-.1-.5-.8-1.1-1.6-1.7-2.3,.2,.9,.6,1.7,1,2.4Z" />
            <path class="cls-2"
                d="M63.3,17c.2,0,.5-.1,.7-.1-.2-1.1-.5-2.1-.9-3.2-.1,1.1,0,2.2,.2,3.3Z" />
            <path class="cls-2"
                d="M50,6.7c-.4-2.2-.6-4.4-.5-6.7h-7.2c.2,1.7,.4,3.5,.9,5.1,2.4,.2,4.7,.8,6.8,1.6Z" />
            <path class="cls-2"
                d="M83.1,35.8c-.9-.1-1.9-.2-2.8-.4v5c1.8,.7,3.8,1.3,5.8,1.6-.8-2.3-1.8-4.3-3-6.2Z" />
            <path class="cls-2"
                d="M93.3,42.1v-4.9c-.4-.7-.9-1.5-1.3-2.1-2.3,.5-4.6,.8-6.9,.7,1.1,1.9,2.1,4,2.8,6.3,1.7,.2,3.5,.2,5.4,0Z" />
            <path class="cls-2"
                d="M49.6,40.3v-4.9c-.9,.2-1.8,.3-2.8,.4-1.2,1.9-2.2,3.9-3,6.1,2.1-.3,4-.9,5.8-1.6Z" />
            <path class="cls-2"
                d="M89.2,0c-.2,1.7-.4,3.3-.8,4.9,1.8-.1,3.7-.1,5.5,.1,0-.2-.1-.4-.1-.8,0-1.9,1.4-.7,1.4-2.8V0h-6Z" />
            <path class="cls-2"
                d="M80.3,42.1v.7h0v.4c-.6,0-.9-.1-.9-.1,.2,0,.6,1.2,.3,2.2-.2,.8-1.3-.1-1.3,2.5,.2,.2,1,.4,2,.5h.1c.2,0,.4,.1,.6,.1h0c1.5,.2,3.4,.3,5.6,.3h.8c-.2-1.7-.4-3.4-.9-5-2.2-.4-4.3-.9-6.3-1.6Z" />
            <path class="cls-2"
                d="M93.9,45.3c-.1-.5-.1-1.1,0-1.5-1.9,.2-3.7,.3-5.6,.1,.4,1.5,.6,3.1,.8,4.8,3.2-.1,5.6-.5,6.1-.9,0-2.6-1.1-1.7-1.3-2.5Z" />
            <path class="cls-2"
                d="M38,35.1c-.5,.7-.9,1.4-1.3,2.1v4.9c1.8,.1,3.7,.2,5.4,0,.7-2.2,1.6-4.3,2.8-6.3-2.3,.1-4.6-.2-6.9-.7Z" />
            <path class="cls-2"
                d="M36,43.7c.1,.4,.2,1,0,1.5-.2,.8-1.3-.1-1.3,2.5,.5,.4,2.9,.8,6.1,.9,.2-1.6,.4-3.2,.8-4.8-1.9,.2-3.7,.1-5.6-.1Z" />
            <path class="cls-2"
                d="M87.5,0h-7.2c.1,2.3-.1,4.5-.5,6.7,2.1-.8,4.4-1.3,6.7-1.6,.5-1.7,.8-3.4,1-5.1Z" />
            <path class="cls-2"
                d="M36.1,4.2c0,.3,0,.6-.1,.8,1.9-.2,3.7-.2,5.5-.1-.4-1.6-.6-3.2-.8-4.9h-6.1V1.4c.1,2.1,1.5,.8,1.5,2.8Z" />
            <path class="cls-2"
                d="M36.6,25.7v7.4c.2,.1,.5,.2,.7,.2,1.4-1.9,3-3.5,4.8-5-1.9-.6-3.7-1.5-5.5-2.6Z" />
            <path class="cls-2" d="M80.3,32.2v1.5l1.5,.3-1.5-1.8Z" />
            <path class="cls-2"
                d="M85.9,28.9c-1.9,.5-3.7,.8-5.6,1,1.3,1.3,2.6,2.7,3.7,4.3,2.2,.1,4.5,0,6.9-.5-1.5-1.8-3.2-3.4-5-4.8Z" />
            <path class="cls-2"
                d="M93.3,33.1v-7.4c-1.8,1.1-3.6,2-5.5,2.6,1.7,1.4,3.3,3.1,4.8,5,.2-.1,.4-.2,.7-.2Z" />
            <path class="cls-2" d="M49.6,32.2c-.5,.6-1,1.1-1.5,1.8l1.5-.3v-1.5Z" />
            <path class="cls-2"
                d="M49.6,29.9c-1.9-.1-3.7-.4-5.6-1-1.8,1.3-3.4,2.9-4.9,4.8,2.3,.5,4.6,.6,6.9,.5,1-1.6,2.2-3,3.6-4.3Z" />
            <path class="cls-2"
                d="M37.3,15.4c-.2,.1-.5,.2-.7,.2v7.4c1.8-1.1,3.6-2,5.5-2.6-1.8-1.5-3.4-3.2-4.8-5Z" />
            <path class="cls-2"
                d="M93.3,6.5c-1.8-.1-3.7-.2-5.4,0-.7,2.2-1.6,4.3-2.8,6.3,2.3,0,4.6,.2,6.9,.7,.5-.7,.9-1.4,1.3-2.1V6.5Z" />
            <path class="cls-2" d="M57.6,0h-4.5c1.4,.8,2.7,1.7,3.9,2.7l.6-2.7Z" />
            <path class="cls-2"
                d="M46.8,12.9c1.9,.1,3.8,.5,5.6,1l-.3-.6c-.7-1.5-1.2-3.1-1.6-4.7-2.1-.9-4.3-1.5-6.6-1.9,.7,2.3,1.7,4.3,2.9,6.2Z" />
            <path class="cls-2"
                d="M77.5,13.9c1.8-.5,3.7-.9,5.6-1,1.2-1.9,2.2-3.9,3-6.1-2.3,.4-4.6,1-6.6,1.9-.4,1.6-.9,3.2-1.6,4.7-.2,.1-.3,.3-.4,.5Z" />
            <path class="cls-2"
                d="M36.6,6.5v4.9c.4,.7,.9,1.5,1.3,2.1,2.3-.5,4.6-.8,6.9-.7-1.1-1.9-2.1-4-2.8-6.3-1.7-.1-3.5-.1-5.4,0Z" />
            <path class="cls-2" d="M76.7,0h-4.5c.2,.9,.5,1.8,.6,2.7,1.3-1,2.6-1.9,3.9-2.7Z" />
        </g>
    </g>
</svg>