<svg width="465" height="200" viewBox="0 0 465 200" fill="none" xmlns="http://www.w3.org/2000/svg">
<path d="M78.4008 10H115.001V94.6H130.001V125.8H115.001V150H77.8008V125.8H6.40078L3.80078 93L78.4008 10ZM44.6008 94.6H77.8008V58L44.6008 94.6Z" fill="#333333"/>
<path d="M404.401 10H441.001V94.6H456.001V125.8H441.001V150H403.801V125.8H332.401L329.801 93L404.401 10ZM370.601 94.6H403.801V58L370.601 94.6Z" fill="#333333"/>
<path d="M177.911 37.8594C179.456 38.5448 180.975 39.1952 182.574 39.7465L186 31.0998C179.657 25.878 173.008 20.8673 164.447 20.4817C158.307 20.6729 150.111 22.5075 145.694 26.9596C145.265 27.4503 144.825 27.9329 144.365 28.396H143.46C140.569 19.1726 140.665 10.5981 141.552 1.02102L141.65 0.00576264C140.267 -0.023245 139.177 0.0519754 137.812 0.352544L136.134 0.822545C134.128 1.36848 133.316 1.41289 132.146 3.16023C130.37 12.1889 130.583 22.6702 133.919 31.341L134.409 32.4518C134.999 33.8481 135.522 35.04 136.672 36.0569C137.75 36.3491 138.581 36.3426 139.693 36.2364L140.745 36.0569C141.67 35.9053 142.546 35.7215 143.446 35.4566L144.365 35.1556C147.117 34.3693 148.586 33.367 150.248 31.0153C150.841 30.1353 151.445 29.2622 152.058 28.396C153.676 26.5641 155.343 24.1258 157.942 23.8896C161.731 24.4804 166.171 25.9566 168.803 28.8466L167.834 29.1846C160.624 32.3234 154.984 39.8103 151.929 46.8634L151.606 47.7735H150.701L150.248 48.6748C148.927 49.1669 147.57 49.3881 146.175 49.576C141.584 49.576 137.722 46.9827 134.182 44.281C132.789 43.1841 131.512 42.1835 129.883 41.4645C129.245 42.074 128.608 42.6843 127.975 43.2988L127.196 44.0557L126.423 44.7915L125.685 45.5132C124.641 46.5197 124.261 47.2469 124 48.6748C128.207 52.2976 132.695 56.065 138.346 56.9852C142.354 57.1747 144.731 55.5342 147.618 52.9277C148.331 52.2474 149.056 51.58 149.796 50.9279C151.009 50.206 151.918 49.9966 152.37 48.6466L152.511 47.7735C153.416 46.8722 153.416 46.8722 154.185 45.8583L155.085 44.619C155.743 43.7234 156.394 42.822 157.036 41.9152C158.505 39.5419 159.653 37.437 162.269 36.2259C167.721 34.4687 172.863 35.6897 177.911 37.8594Z" fill="#333333"/>
<path d="M238 6H232C201.624 6 177 30.6243 177 61V105C177 135.376 201.624 160 232 160H238C268.376 160 293 135.376 293 105V61C293 30.6243 268.376 6 238 6Z" fill="#333333"/>
<path d="M293 57H177V93H293V57Z" fill="#F1F1F1"/>
<path d="M262.816 84.6191C269.168 84.6191 274.316 79.4704 274.316 73.1191C274.316 66.7679 269.168 61.6191 262.816 61.6191C256.465 61.6191 251.316 66.7679 251.316 73.1191C251.316 79.4704 256.465 84.6191 262.816 84.6191Z" fill="#333333"/>
<path d="M207.352 61.6191C213.703 61.6191 218.852 66.7679 218.852 73.1191C218.852 79.4704 213.703 84.6191 207.352 84.6191C201 84.6191 195.852 79.4704 195.852 73.1191C195.852 66.7679 201 61.6191 207.352 61.6191Z" fill="#333333"/>
<path d="M207.5 75C213.851 75 219 79.0294 219 84C219 88.9706 213.851 93 207.5 93C201.149 93 196 88.9706 196 84C196 79.0294 201.149 75 207.5 75Z" fill="#F1F1F1"/>
<path d="M262.5 75C268.851 75 274 79.0294 274 84C274 88.9706 268.851 93 262.5 93C256.149 93 251 88.9706 251 84C251 79.0294 256.149 75 262.5 75Z" fill="#F1F1F1"/>
<path d="M281.5 32.5C279.312 32.5 277.214 31.6308 275.666 30.0836C274.119 28.5365 273.25 26.438 273.25 24.25C273.25 18.75 281.5 9.46875 281.5 9.46875C281.5 9.46875 289.75 18.75 289.75 24.25C289.75 26.438 288.881 28.5365 287.334 30.0836C285.786 31.6308 283.688 32.5 281.5 32.5Z" fill="#3E63F5"/>
</svg>
