<svg width="1143" height="1567" viewBox="0 0 1143 1567" fill="none" xmlns="http://www.w3.org/2000/svg">
<path fill-rule="evenodd" clip-rule="evenodd" d="M412.53 228.759C459.466 242.913 376.291 152.546 547.472 256.422C718.653 360.298 548.153 531.298 603.653 618.798C659.153 706.298 839.429 724.216 822.541 834.007C805.653 943.798 1068.58 1014.11 1070.71 1111.5C1073.04 1217.95 863.571 1371.65 835.513 1427.3C807.919 1482.03 734.037 1372.62 681.04 1340.15C633.272 1310.89 589.826 1312.4 539.435 1245.9C486.044 1175.45 564.653 1103.8 353.351 971.692C142.05 839.587 261.824 699.675 230.021 551.419C196.48 395.063 -23.9658 294.382 13.1528 228.759C50.5307 162.678 348.399 209.42 412.53 228.759Z" fill="#3E63F5"/>
<path d="M507.484 403.632C508.086 403.777 508.688 403.921 509.309 404.07C529.124 408.941 551.322 418.582 563.064 436.107C567.296 443.734 568.405 453.314 569.341 461.851C569.423 462.588 569.504 463.326 569.588 464.085C570.389 473.013 570.134 482.006 570.069 490.96C571.151 489.692 572.226 488.417 573.298 487.14C573.898 486.43 574.497 485.721 575.115 484.99C576.435 483.203 577.063 482.203 577.346 480.044C575.905 478.843 574.464 477.643 572.98 476.406C573.416 473.963 574.323 472.492 575.891 470.584C578.927 470.961 580.442 471.829 582.668 473.904C583.175 474.37 583.683 474.836 584.206 475.317C584.584 475.676 584.962 476.035 585.351 476.406C588.239 475.268 590.02 473.261 592.037 470.993C592.39 470.603 592.743 470.212 593.106 469.81C595.297 467.367 597.395 464.864 599.451 462.306C602.806 458.136 606.439 454.26 610.097 450.358C613.282 446.959 616.317 443.441 619.336 439.894C622.941 435.662 626.565 431.461 630.334 427.374C630.981 426.671 631.627 425.967 632.293 425.242C633.442 424.002 634.599 422.769 635.767 421.547C636.24 421.038 636.714 420.53 637.202 420.006C637.611 419.578 638.02 419.151 638.442 418.71C639.366 417.484 639.366 417.484 639.013 415.947C638.439 414.453 637.776 413.048 637.02 411.637C638.221 410.196 639.422 408.755 640.659 407.271C644.374 408.384 646.757 410.688 649.574 413.229C650.54 414.085 651.508 414.94 652.476 415.793C652.943 416.205 653.41 416.616 653.891 417.04C656.425 419.236 659.076 421.278 661.763 423.281C661.193 426.091 659.996 427.657 658.125 429.831C656.684 429.35 655.243 428.87 653.758 428.375C650.426 431.63 647.221 434.943 644.181 438.472C641.047 442.092 637.807 445.619 634.598 449.172C632.127 451.912 629.663 454.655 627.241 457.439C624.582 460.493 621.849 463.478 619.12 466.47C617.685 468.054 616.27 469.651 614.87 471.266C612.701 473.764 610.47 476.202 608.229 478.634C605.388 481.719 602.605 484.839 599.906 488.049C602.307 490.211 604.709 492.372 607.183 494.599C605.356 499.167 605.356 499.167 603.545 500.421C600.884 500.121 599.476 498.874 597.541 497.1C597.027 496.634 596.513 496.168 595.983 495.688C595.596 495.328 595.21 494.969 594.812 494.599C590.732 499.606 590.732 499.606 586.943 504.833C585.351 506.97 585.351 506.97 583.168 507.698C604.96 507.883 626.784 507.455 648.555 506.465C668.152 505.597 668.152 505.597 676.312 512.056C677.773 513.52 677.773 513.52 679 515.766C680.491 518.102 680.491 518.102 683.016 518.394C684.396 518.366 684.396 518.366 685.804 518.338C686.313 518.334 686.821 518.33 687.345 518.326C689.022 518.307 690.697 518.257 692.374 518.205C693.543 518.183 694.713 518.163 695.883 518.144C698.319 518.102 700.755 518.045 703.19 517.978C706.205 517.898 709.218 517.854 712.233 517.827C714.513 517.804 716.793 517.769 719.073 517.73C720.15 517.713 721.226 517.7 722.303 517.691C733.036 517.579 741.129 514.547 750.467 509.479C758.498 505.408 767.12 506.033 775.881 506.743C776.73 506.807 777.579 506.871 778.454 506.937C789.323 507.812 800.138 509.206 810.949 510.609C811.189 511.329 811.429 512.05 811.676 512.792C804.112 512.432 804.112 512.432 796.394 512.064C801.437 512.785 806.48 513.505 811.676 514.248C810.949 519.342 810.949 519.342 810.221 520.07C808.817 520.082 807.413 520.042 806.011 519.981C804.734 519.929 804.734 519.929 803.431 519.875C802.535 519.834 801.638 519.793 800.715 519.751C799.816 519.713 798.917 519.675 797.99 519.636C795.76 519.541 793.53 519.443 791.3 519.342C791.751 519.4 792.203 519.459 792.668 519.519C794.714 519.788 796.76 520.065 798.805 520.342C799.515 520.434 800.226 520.526 800.958 520.621C801.64 520.715 802.323 520.809 803.026 520.905C803.969 521.031 803.969 521.031 804.932 521.159C806.582 521.525 806.582 521.525 808.766 522.98C808.07 523.922 807.372 524.861 806.673 525.8C806.285 526.324 805.897 526.847 805.496 527.387C803.536 529.915 802.444 530.523 799.305 530.986C798.066 531.094 796.826 531.18 795.584 531.247C784.103 531.958 772.44 533.148 761.463 536.807C762.383 536.799 763.303 536.791 764.252 536.782C765.46 536.775 766.668 536.768 767.876 536.762C768.482 536.756 769.089 536.75 769.714 536.743C770.59 536.74 770.59 536.74 771.483 536.736C772.021 536.733 772.558 536.729 773.112 536.725C774.562 536.807 774.562 536.807 776.745 537.535C775.691 539.793 774.451 541.763 772.97 543.766C772.369 544.601 772.369 544.601 771.756 545.452C767.555 549.607 761.06 550.24 755.504 551.453C754.663 551.645 753.822 551.838 752.956 552.036C737.508 555.453 737.508 555.453 730.807 551.953C730.308 551.72 729.809 551.486 729.296 551.246C727.217 550.272 725.198 549.248 723.203 548.113C717.055 544.926 710.404 547.094 703.972 548.451C703.216 548.607 702.46 548.764 701.682 548.924C698.542 549.573 695.403 550.222 692.271 550.906C691.209 551.136 691.209 551.136 690.125 551.371C689.497 551.509 688.868 551.648 688.221 551.79C686.506 552.09 686.506 552.09 683.595 552.09C683.707 551.383 683.819 550.677 683.934 549.949C684.383 546.805 684.567 543.662 684.732 540.492C684.764 539.925 684.795 539.357 684.828 538.773C684.904 537.39 684.978 536.007 685.051 534.624C684.57 534.624 684.09 534.624 683.595 534.624C683.55 535.36 683.505 536.095 683.459 536.853C682.14 547.187 677.281 559.116 668.97 565.664C663.463 569.527 658.372 571.313 651.703 571.448C651.089 571.468 650.475 571.489 649.843 571.51C647.828 571.574 645.813 571.625 643.797 571.676C642.381 571.719 640.966 571.763 639.55 571.808C635.826 571.924 632.103 572.029 628.379 572.13C623.888 572.255 619.398 572.392 614.907 572.528C611.405 572.634 607.903 572.738 604.401 572.835C596.823 573.049 589.276 573.403 581.713 573.922C581.472 569.839 581.232 565.757 580.985 561.55C578.353 572.895 575.838 584.184 574.435 595.754C574.365 596.28 574.295 596.807 574.223 597.349C573.516 603.261 573.627 609.187 573.662 615.13C573.666 616.219 573.669 617.307 573.672 618.396C573.68 621.037 573.692 623.678 573.707 626.319C574.188 625.358 574.668 624.397 575.163 623.408C575.163 625.809 575.163 628.211 575.163 630.685C574.064 631.16 572.966 631.634 571.834 632.124C564.171 635.441 556.517 638.763 548.965 642.329C553.269 640.93 557.51 639.412 561.743 637.81C574.823 632.871 588.066 628.454 601.361 624.136C601.864 623.972 602.368 623.808 602.886 623.639C623.586 616.903 644.64 610.329 666.13 606.67C666.13 605.949 666.13 605.229 666.13 604.487C666.61 604.487 667.09 604.487 667.585 604.487C667.585 604.967 667.585 605.447 667.585 605.942C668.41 605.937 668.41 605.937 669.251 605.932C674.433 605.903 679.616 605.881 684.798 605.867C687.463 605.859 690.127 605.849 692.791 605.832C695.363 605.817 697.934 605.808 700.506 605.804C701.964 605.8 703.421 605.789 704.879 605.777C705.767 605.777 706.656 605.777 707.571 605.777C708.354 605.774 709.136 605.77 709.942 605.767C712.015 605.945 713.182 606.223 714.888 607.398C720.746 618.68 717.556 633.705 714.024 645.376C710.39 656.632 704.379 669.699 693.784 675.805C688.795 678.156 683.912 679.339 678.501 680.262C651.932 685.22 626.259 695.097 601.394 705.451C600.297 705.906 600.297 705.906 599.178 706.369C598.199 706.813 598.199 706.813 597.201 707.265C595.539 707.825 595.539 707.825 593.356 707.097C593.899 706.758 593.899 706.758 594.452 706.411C604.758 699.952 614.926 693.352 624.876 686.357C625.412 685.981 625.948 685.604 626.5 685.217C626.997 684.865 627.494 684.513 628.006 684.151C628.447 683.839 628.888 683.527 629.343 683.206C630.578 682.314 630.578 682.314 631.926 680.899C611.11 690.932 591.23 702.043 573.861 717.465C568.5 722.133 562.634 725.803 556.56 729.475C550.19 733.351 543.893 737.303 537.73 741.503C535.378 743.084 534.225 743.575 531.439 743.567C530.521 743.566 530.521 743.566 529.585 743.566C528.593 743.561 528.593 743.561 527.582 743.555C526.905 743.554 526.229 743.553 525.532 743.552C523.367 743.548 521.202 743.539 519.036 743.529C517.571 743.526 516.105 743.522 514.639 743.519C511.041 743.511 507.443 743.499 503.845 743.484C504.601 743.568 505.358 743.653 506.137 743.74C508.947 744.054 511.757 744.37 514.567 744.688C515.783 744.825 516.998 744.961 518.214 745.096C519.963 745.291 521.711 745.489 523.46 745.687C524.002 745.747 524.544 745.807 525.102 745.869C529.056 746.32 529.056 746.32 530.876 746.843C532.837 747.249 534.441 746.854 536.4 746.474C537.627 746.241 537.627 746.241 538.88 746.004C539.746 745.833 540.613 745.661 541.505 745.485C543.283 745.142 545.06 744.799 546.838 744.456C548.132 744.204 548.132 744.204 549.452 743.947C551.527 743.55 553.602 743.179 555.685 742.83C556.221 742.738 556.756 742.647 557.309 742.552C558.688 742.318 560.069 742.091 561.45 741.864C565.133 740.862 566.177 738.46 568.068 735.297C571.9 729.232 576.134 724.573 583.168 722.38C591.168 721.162 598.264 723.479 605.728 726.018C607.453 726.601 609.179 727.184 610.905 727.765C611.992 728.133 613.076 728.507 614.159 728.888C621.265 731.34 627.966 732.101 635.474 732.068C636.758 732.067 636.758 732.067 638.069 732.066C644.047 732.004 649.811 731.493 655.682 730.37C659.12 729.726 661.931 729.558 665.402 730.385C667.965 732.948 668.921 735.004 669.279 738.611C668.985 741.927 668.035 743.192 665.948 745.758C665.463 746.36 665.463 746.36 664.969 746.974C661.824 750.822 658.448 754.466 655.037 758.078C653.389 759.825 651.81 761.619 650.256 763.451C646.414 767.861 642.175 772.209 636.036 772.742C630.783 772.81 626.125 771.959 621.056 770.637C620.268 770.441 619.48 770.245 618.668 770.043C614.926 769.107 611.195 768.135 607.465 767.152C601.342 765.553 595.586 764.191 589.234 763.963C587.534 763.86 587.534 763.86 586.079 763.133C584.651 763.716 584.651 763.716 583.168 764.588C582.501 764.943 582.501 764.943 581.82 765.306C575.944 768.515 570.12 771.766 564.474 775.368C557.672 779.698 550.647 783.629 543.599 787.542C542.43 788.191 541.262 788.842 540.097 789.497C534.677 792.541 529.165 795.214 523.448 797.655C522.867 797.904 522.286 798.153 521.688 798.41C518.653 799.672 515.873 800.601 512.578 800.975C513.138 799.944 513.699 798.913 514.261 797.882C514.854 796.786 514.854 796.786 515.46 795.668C516.561 793.65 517.695 791.652 518.837 789.658C523.327 781.758 527.012 773.882 530.043 765.316C529.741 765.918 529.439 766.52 529.128 767.141C522.995 779.115 515.584 790.409 507.622 801.241C506.709 802.495 505.814 803.761 504.922 805.031C491.407 824.267 491.407 824.267 485.129 825.522C479.41 826.196 473.678 825.665 468.004 824.854C467.318 824.756 466.631 824.659 465.924 824.559C454.645 822.885 443.671 820.314 432.754 817.031C431.99 816.804 431.226 816.577 430.438 816.343C415.26 811.62 415.26 811.62 411.423 805.341C406.529 795.806 405.412 786.33 405.328 775.777C405.318 774.962 405.308 774.148 405.297 773.308C405.404 754.299 416.481 741.322 428.161 727.474C428.491 727.082 428.821 726.69 429.161 726.287C433.698 720.911 438.342 715.653 443.119 710.489C444.975 708.469 446.776 706.41 448.568 704.334C449.751 703.003 450.951 701.698 452.167 700.4C452.558 699.982 452.948 699.565 453.35 699.135C454.127 698.306 454.906 697.48 455.688 696.658C457.272 694.966 458.601 693.501 459.706 691.451C461.561 688.645 464.153 686.978 466.867 685.038C467.475 684.598 468.083 684.158 468.709 683.704C487.116 670.491 506.394 658.763 526.405 648.151C527.097 647.782 527.79 647.413 528.503 647.034C537.876 642.053 547.335 637.32 556.97 632.868C539.968 638.667 523.212 644.892 506.894 652.407C506.059 652.79 505.225 653.174 504.365 653.569C503.631 653.911 502.896 654.252 502.139 654.604C500.513 655.297 499.02 655.798 497.295 656.156C498.435 653.296 500.42 651.528 502.617 649.47C530.018 622.883 545.094 583.502 549.692 546.268C549.549 546.814 549.406 547.361 549.259 547.924C548.604 550.42 547.943 552.915 547.282 555.41C546.945 556.7 546.945 556.7 546.601 558.015C545.47 562.265 544.311 566.31 542.415 570.283C538.437 569.176 535.208 567.295 531.726 565.144C531.151 564.791 530.576 564.438 529.984 564.075C525.31 561.157 521.061 557.946 516.944 554.273C516.944 556.237 519.947 558.229 521.277 559.571C527.183 565.353 534.062 570.126 540.959 574.65C531.466 603.392 516.248 630.077 496.171 652.75C495.378 653.665 494.611 654.604 493.858 655.552C490.204 659.996 486.492 662.39 481.331 664.843C479.846 665.582 478.362 666.324 476.879 667.069C475.785 667.615 475.785 667.615 474.668 668.172C471.576 669.755 468.578 671.481 465.593 673.258C465.105 673.546 464.617 673.835 464.114 674.133C461.947 675.428 459.83 676.761 457.75 678.193C455.815 679.443 455.815 679.443 454.359 679.443C454.232 678.992 454.105 678.541 453.975 678.076C448.807 659.943 442.081 642.342 433.343 625.614C432.964 624.88 432.964 624.88 432.577 624.131C432.04 623.129 431.473 622.143 430.882 621.172C430.049 619.734 429.364 618.451 428.888 616.858C429.559 614.379 429.559 614.379 430.89 612.128C431.321 611.37 431.753 610.612 432.197 609.831C432.546 609.268 432.895 608.705 433.255 608.125C438.93 608.528 444.438 609.521 450.009 610.654C451.445 610.945 452.882 611.228 454.319 611.511C469.017 614.465 469.017 614.465 471.097 617.586C471.172 618.141 471.247 618.697 471.324 619.269C472.175 622.595 474.077 624.608 476.802 626.54C486.609 631.836 503.127 626.317 513.306 623.408C513.404 622.807 513.503 622.207 513.605 621.588C513.981 619.306 514.358 617.023 514.736 614.741C514.904 613.729 515.072 612.716 515.239 611.704C516.314 605.207 517.436 598.728 518.778 592.28C519.823 585.258 518.104 581.151 514.033 575.377C511.453 572.289 508.741 569.21 504.565 568.622C498.622 568.627 492.854 569.654 487.016 570.647C485.464 570.91 483.912 571.171 482.359 571.426C480.954 571.657 479.55 571.894 478.147 572.132C475.26 572.492 472.546 572.523 469.641 572.466C469.641 572.947 469.641 573.427 469.641 573.922C472.886 573.82 476.131 573.712 479.375 573.603C480.286 573.575 481.197 573.546 482.135 573.517C488.021 573.316 493.82 572.909 499.661 572.165C502.961 571.912 505.187 571.943 508.047 573.723C509.95 575.386 511.626 577.128 513.306 579.016C513.775 579.461 514.244 579.905 514.727 580.363C517.389 583.187 518.004 585.677 518.172 589.523C517.851 597.501 516.994 616.081 511.122 621.952C507.909 622.453 504.668 622.747 501.434 623.089C500.539 623.19 499.644 623.291 498.721 623.395C482.219 625.165 482.219 625.165 477.229 621.549C475.795 620.096 475.463 618.879 475.463 616.858C474.263 616.618 473.062 616.378 471.825 616.13C472.785 615.41 473.746 614.69 474.736 613.947C465.183 605.8 445.819 607.226 433.983 607.398C434.413 605.088 434.942 602.888 435.685 600.66C435.873 600.089 436.06 599.518 436.253 598.929C436.45 598.331 436.646 597.734 436.848 597.118C441.138 584.038 441.138 584.038 439.003 570.809C437.41 567.755 436.028 566.845 432.754 565.735C427.441 564.715 421.901 565.078 416.517 565.189C416.961 565.266 417.405 565.343 417.862 565.422C419.886 565.776 421.908 566.142 423.931 566.508C424.629 566.629 425.328 566.749 426.047 566.873C432.65 568.084 432.65 568.084 435.438 570.283C439.325 578.057 435.055 590.308 432.527 597.937C431.49 601.014 430.41 604.074 429.298 607.125C429.037 607.849 428.775 608.573 428.506 609.319C425.222 618.004 420.255 625.572 411.559 629.548C396.763 635.558 378.596 626.767 364.848 621.225C346.857 613.441 346.857 613.441 342.288 605.942C340.679 600.849 340.601 595.589 340.651 590.296C340.658 589.153 340.658 589.153 340.666 587.988C341.003 562.273 341.003 562.273 346.788 555.257C349.094 553.331 351.483 551.831 354.114 550.407C354.665 550.105 355.217 549.804 355.786 549.493C365.66 544.184 375.801 539.374 385.952 534.624C386.413 534.408 386.873 534.192 387.348 533.97C405.828 525.33 439.302 510.308 460.181 514.248C461.689 515.52 462.979 516.922 464.317 518.372C476.014 530.149 493.639 537.829 509.667 541.174C509.257 541.006 508.848 540.838 508.426 540.665C500.54 537.413 492.835 534.144 485.566 529.647C483.989 528.675 482.398 527.728 480.808 526.778C469.669 520.041 460.057 513.522 456.315 500.33C455.719 496.973 455.351 493.63 455.087 490.232C454.411 490.172 453.736 490.112 453.04 490.051C450.72 489.505 450.72 489.505 449.401 488.14C447.887 485.43 447.728 483.321 447.764 480.272C447.771 479.548 447.777 478.825 447.784 478.08C447.792 477.527 447.801 476.975 447.809 476.406C447.192 476.21 446.575 476.015 445.939 475.814C443.368 474.924 440.925 473.874 438.44 472.767C430.323 469.263 422.055 467.291 413.288 470.129C409.081 472.085 407.235 475.484 404.873 479.316C403.84 480.781 402.793 482.236 401.735 483.683C401.257 484.343 400.78 485.004 400.288 485.684C399.051 487.322 399.051 487.322 397.596 488.777C397.521 489.242 397.446 489.708 397.368 490.187C396.642 492.367 395.18 492.705 393.229 493.871C392.041 494.924 390.874 496.002 389.727 497.1C385.086 501.31 381.263 503.959 374.817 503.653C365.731 502.167 358.513 496.083 351.749 490.232C352.168 487.927 352.779 486.752 354.458 485.127C355.045 484.55 355.045 484.55 355.645 483.961C356.055 483.569 356.465 483.177 356.888 482.773C357.301 482.37 357.715 481.966 358.14 481.551C359.158 480.558 360.183 479.573 361.209 478.589C363.828 479.75 365.881 481.366 368.123 483.137C373.814 487.5 380.025 491.688 387.408 491.688C389.65 491.384 391.833 491.027 393.957 490.232C394.197 489.752 394.437 489.272 394.685 488.777C395.165 488.777 395.645 488.777 396.14 488.777C396.312 488.292 396.484 487.807 396.661 487.307C401.572 475.917 410.641 463.827 422.236 458.758C422.751 458.578 423.265 458.398 423.794 458.212C419.561 453.545 412.423 451.161 406.329 450.207C402.15 450.588 399.469 454.526 396.868 457.484C395.882 458.883 394.911 460.293 393.957 461.714C391.284 465.512 388.921 467.131 384.497 468.4C384.009 468.561 383.521 468.721 383.018 468.887C381.571 469.314 380.163 469.611 378.675 469.856C377.837 469.999 377.837 469.999 376.983 470.146C375.195 470.317 373.86 470.328 372.125 469.856C370.277 468.214 369.436 466.289 368.486 464.034C368.227 463.442 367.967 462.85 367.699 462.24C362.335 448.238 361.992 431.312 364.848 416.731C366.729 413.91 368.035 413.838 371.261 412.956C372.151 412.706 373.041 412.455 373.959 412.197C376.154 411.712 377.907 411.59 380.13 411.637C380.078 412.178 380.027 412.719 379.973 413.277C378.546 428.743 378.392 442.59 383.041 457.484C383.521 457.484 384.002 457.484 384.497 457.484C385.236 456.737 385.943 455.957 386.634 455.165C393.737 447.975 406.916 445.012 416.79 444.704C430.556 445.326 441.248 453.418 451.448 461.851C453.263 460.975 454.855 460.065 456.542 458.94C457.503 458.94 458.463 458.94 459.453 458.94C459.693 460.141 459.934 461.341 460.181 462.579C463.345 447.136 465.184 431.64 462.364 416.004C463.085 416.004 463.805 416.004 464.547 416.004C461.552 412.062 458.728 409.835 454.342 407.532C453.867 407.206 453.393 406.879 452.904 406.543C452.904 405.823 452.904 405.102 452.904 404.36C453.977 404.003 455.055 403.657 456.133 403.314C456.732 403.12 457.332 402.925 457.949 402.725C472.747 399.087 492.749 399.966 507.484 403.632ZM466.003 418.187C466.731 419.642 466.731 419.642 466.731 419.642L466.003 418.187ZM492.929 461.123C490.213 469.27 492.782 478.408 496.124 485.974C498.11 489.872 499.936 493.215 503.845 495.327C507.781 494.587 511.302 493.303 514.943 491.642C515.429 491.426 515.915 491.209 516.417 490.985C518.05 490.255 519.681 489.517 521.311 488.777C523.243 487.901 525.176 487.025 527.109 486.15C528.373 485.578 529.635 485.003 530.897 484.426C540.901 479.882 540.901 479.882 546.054 480.772C551.044 482.662 554.931 486.232 558.874 489.726C559.446 490.134 560.019 490.541 560.608 490.96C561.329 490.72 562.049 490.48 562.791 490.232C563.517 488.688 563.517 488.688 563.974 486.821C564.149 486.203 564.323 485.585 564.503 484.948C565.502 480.73 565.799 476.806 565.748 472.494C565.745 471.958 565.741 471.423 565.738 470.871C565.729 469.562 565.716 468.254 565.702 466.945C559.947 464.631 554.293 463.192 548.191 462.124C547.33 461.969 546.469 461.815 545.582 461.655C538.726 460.453 531.886 459.511 524.949 458.94C524.004 458.859 523.058 458.779 522.084 458.695C506.979 456.998 506.979 456.998 492.929 461.123ZM458.725 466.945C459.453 468.4 459.453 468.4 459.453 468.4L458.725 466.945ZM562.791 512.064C563.519 513.52 563.519 513.52 563.519 513.52L562.791 512.064ZM562.064 513.52C561.83 513.959 561.596 514.398 561.354 514.851C545.366 544.764 545.366 544.764 537.321 548.451C535.312 548.663 533.529 548.591 531.499 548.451C533.471 550.423 534.538 550.531 537.321 550.634C542.296 549.185 545.542 545.597 548.965 541.902C549.34 541.552 549.715 541.202 550.102 540.841C555.311 535.249 558.197 526.279 561.336 519.342C561.647 518.665 561.959 517.987 562.28 517.289C562.997 515.602 562.997 515.602 562.064 513.52ZM530.771 760.95C531.499 762.405 531.499 762.405 531.499 762.405L530.771 760.95Z" fill="#3E63F5"/>
<path d="M825.869 596.3C826.401 596.281 826.934 596.262 827.483 596.243C830.466 596.672 832.268 598.021 834.124 600.348C839.766 609.504 843.835 618.267 843.971 629.139C843.981 629.667 843.991 630.196 844.002 630.74C843.972 634.001 843.534 636.11 841.515 638.691C837.952 641.011 835.849 641.036 831.327 641.601C830.846 637.039 830.366 632.476 829.871 627.775C829.391 632.097 828.91 636.42 828.416 640.874C824.327 641.691 824.327 641.691 821.812 641.061C821.27 640.931 820.728 640.801 820.169 640.667C819.321 640.454 819.321 640.454 818.455 640.237C813.768 639.133 809.228 638.149 804.4 637.963C803.76 637.934 803.119 637.905 802.459 637.875C793.357 637.666 785.197 638.467 776.837 642.056C771.078 644.468 766.081 644.797 759.872 644.603C750.208 644.305 741.683 645.739 732.355 648.151C731.192 648.449 731.192 648.449 730.006 648.752C726.957 649.536 723.909 650.323 720.871 651.149C719.884 651.417 719.884 651.417 718.877 651.69C718.299 651.85 717.72 652.01 717.124 652.174C715.617 652.517 715.617 652.517 713.434 652.517C713.719 651.692 714.004 650.866 714.298 650.016C717.642 639.918 720.381 630.171 721.109 619.505C721.172 618.598 721.234 617.69 721.299 616.755C721.345 616.069 721.391 615.382 721.439 614.675C722.212 614.639 722.986 614.602 723.783 614.565C726.69 614.426 729.597 614.281 732.503 614.133C733.754 614.071 735.005 614.01 736.257 613.951C749.222 613.524 749.222 613.524 761.419 609.536C766.874 606.825 770.862 606.233 776.948 607.099C780.087 607.45 782.654 607.168 785.752 606.443C786.275 606.321 786.798 606.199 787.336 606.074C795.034 604.208 802.638 601.928 810.242 599.715C810.788 599.556 811.334 599.397 811.897 599.234C812.93 598.933 813.962 598.631 814.994 598.327C818.617 597.272 822.086 596.38 825.869 596.3Z" fill="#3E63F5"/>
<path d="M432.527 629.958C433.247 630.198 433.967 630.438 434.71 630.685C435.349 632.974 435.349 632.974 435.437 635.779C433.977 637.484 432.785 638.597 431.026 639.918C430.079 640.676 429.134 641.434 428.189 642.193C427.7 642.575 427.212 642.958 426.708 643.352C424.419 645.172 422.224 647.096 420.019 649.015C416.414 652.115 412.76 655.147 409.068 658.143C406.842 659.97 404.652 661.836 402.462 663.706C398.776 666.847 395.007 669.863 391.185 672.836C386.932 676.153 382.796 679.602 378.674 683.082C383.073 680.2 387.367 677.208 391.591 674.076C392.181 673.641 392.77 673.205 393.378 672.756C399.803 667.993 406.161 663.141 412.512 658.278C414.245 656.951 415.98 655.625 417.716 654.3C418.247 653.894 418.777 653.489 419.324 653.071C420.348 652.289 421.371 651.509 422.396 650.729C424.783 648.908 427.154 647.072 429.496 645.194C429.932 644.848 430.369 644.502 430.818 644.145C431.989 643.214 433.153 642.274 434.317 641.334C434.927 640.942 435.537 640.55 436.165 640.146C436.886 640.386 437.606 640.626 438.348 640.874C439.25 642.773 440.004 644.59 440.714 646.559C440.918 647.087 441.123 647.614 441.333 648.158C442.997 652.659 442.997 652.659 441.987 655.428C440.606 656.915 440.606 656.915 438.803 658.476C438.144 659.05 437.484 659.624 436.805 660.215C434.14 662.457 431.439 664.652 428.731 666.842C426.664 668.561 424.68 670.346 422.702 672.166C419.488 675.121 416.18 677.91 412.784 680.652C410.929 682.163 409.103 683.701 407.284 685.255C402.441 689.393 397.486 693.363 392.453 697.267C390.954 698.436 389.464 699.618 387.976 700.801C382.314 705.282 376.577 709.605 370.624 713.692C370.07 714.074 369.516 714.455 368.946 714.848C354.042 724.942 339.153 723.258 321.802 720.48C320.455 720.197 320.455 720.197 319 719.469C319 718.989 319 718.508 319 718.013C320.539 716.889 322.079 715.852 323.685 714.83C324.697 714.17 325.708 713.508 326.718 712.845C327.511 712.326 327.511 712.326 328.319 711.796C337.824 705.487 346.963 698.619 356.114 691.815C356.545 691.495 356.976 691.175 357.42 690.845C369.081 682.171 380.544 673.237 391.8 664.042C394.517 661.826 397.255 659.641 400.026 657.492C405.478 653.264 410.69 648.799 415.877 644.251C418.139 642.276 420.42 640.324 422.702 638.372C423.103 638.029 423.504 637.685 423.917 637.332C424.69 636.67 425.465 636.011 426.241 635.353C427.102 634.609 427.947 633.848 428.783 633.076C429.23 632.669 429.678 632.262 430.139 631.842C430.543 631.465 430.948 631.088 431.365 630.699C431.94 630.332 431.94 630.332 432.527 629.958ZM376.491 683.81C375.771 684.891 375.771 684.891 375.036 685.993C375.996 685.513 376.957 685.032 377.946 684.538C377.466 684.297 376.986 684.057 376.491 683.81Z" fill="#3E63F5"/>
<path d="M533.683 470.584C534.404 471.065 535.124 471.545 535.866 472.04C535.626 474.201 535.386 476.363 535.139 478.589C533.217 477.629 531.296 476.668 529.317 475.678C529.152 476.354 528.987 477.029 528.816 477.725C527.861 480.045 527.861 480.045 526.224 481.455C523.71 482.426 522.409 482.333 519.856 481.5C517.955 479.789 517.696 478.877 517.491 476.315C517.673 474.223 517.673 474.223 518.401 472.767C514.779 471.647 511.291 470.944 507.53 470.493C507.033 470.43 506.535 470.368 506.022 470.303C504.812 470.151 503.601 470.003 502.391 469.857C502.391 469.376 502.391 468.896 502.391 468.401C511.991 465.63 524.461 466.969 533.683 470.584ZM521.312 472.767C521.312 473.968 521.312 475.169 521.312 476.406C522.753 477.127 522.753 477.127 524.223 477.862C525.707 476.87 525.707 476.87 527.134 475.678C527.134 475.198 527.134 474.718 527.134 474.223C525.019 473.308 523.643 472.767 521.312 472.767Z" fill="#3E63F5"/>
<path d="M557.062 471.175C557.949 471.18 558.837 471.185 559.751 471.19C562.065 471.312 562.065 471.312 564.248 472.04C564.248 472.52 564.248 473 564.248 473.495C562.327 473.735 560.406 473.975 558.427 474.223C558.577 474.898 558.727 475.574 558.881 476.27C559.154 478.589 559.154 478.589 557.699 480.772C555.925 481.136 555.925 481.136 554.06 480.772C552.741 478.953 552.741 478.953 551.877 477.134C550.676 477.614 549.475 478.094 548.238 478.589C548.238 476.668 548.238 474.747 548.238 472.767C551.263 471.312 553.724 471.136 557.062 471.175ZM555.106 475.314C554.761 475.675 554.416 476.035 554.06 476.406C555.141 477.126 555.141 477.126 556.243 477.861C556.484 476.661 556.724 475.46 556.971 474.223C556.068 474.139 556.068 474.139 555.106 475.314Z" fill="#3E63F5"/>
<mask id="mask0_2944_6892" style="mask-type:alpha" maskUnits="userSpaceOnUse" x="9" y="194" width="1063" height="1248">
<path fill-rule="evenodd" clip-rule="evenodd" d="M412.878 228.36C459.813 242.514 376.638 152.147 547.819 256.023C719 359.899 548.5 530.899 604 618.399C659.5 705.899 839.777 723.817 822.889 833.608C806 943.399 1068.93 1013.71 1071.06 1111.1C1073.38 1217.56 863.919 1371.26 835.861 1426.9C808.267 1481.63 734.384 1372.22 681.387 1339.75C633.62 1310.49 590.174 1312 539.783 1245.5C486.392 1175.05 565 1103.4 353.699 971.293C142.398 839.188 262.171 699.276 230.368 551.02C196.828 394.664 -23.6182 293.983 13.5005 228.36C50.8783 162.279 348.747 209.021 412.878 228.36Z" fill="#3E63F5"/>
</mask>
<g mask="url(#mask0_2944_6892)">
<path d="M507.484 403.632C508.086 403.777 508.688 403.921 509.309 404.07C529.124 408.941 551.322 418.582 563.064 436.107C567.296 443.734 568.405 453.314 569.341 461.851C569.423 462.588 569.504 463.325 569.588 464.085C570.389 473.013 570.134 482.006 570.069 490.96C571.151 489.692 572.226 488.417 573.298 487.14C573.898 486.43 574.497 485.721 575.115 484.99C576.435 483.203 577.063 482.203 577.346 480.044C575.905 478.843 574.464 477.643 572.98 476.405C573.416 473.963 574.323 472.492 575.891 470.584C578.927 470.961 580.442 471.829 582.668 473.904C583.175 474.37 583.683 474.836 584.206 475.317C584.584 475.676 584.962 476.035 585.351 476.405C588.239 475.268 590.02 473.261 592.037 470.993C592.39 470.603 592.743 470.212 593.106 469.81C595.297 467.367 597.395 464.864 599.451 462.306C602.806 458.136 606.439 454.26 610.097 450.358C613.282 446.958 616.317 443.441 619.336 439.894C622.941 435.662 626.565 431.461 630.334 427.374C630.981 426.671 631.627 425.967 632.293 425.242C633.442 424.002 634.599 422.769 635.767 421.547C636.24 421.038 636.714 420.53 637.202 420.006C637.611 419.578 638.02 419.151 638.442 418.71C639.366 417.484 639.366 417.484 639.013 415.947C638.439 414.453 637.776 413.048 637.02 411.637C638.221 410.196 639.422 408.755 640.659 407.271C644.374 408.384 646.757 410.688 649.574 413.229C650.54 414.085 651.508 414.94 652.476 415.793C652.943 416.205 653.41 416.616 653.891 417.04C656.425 419.236 659.076 421.278 661.763 423.281C661.193 426.091 659.996 427.657 658.125 429.83C656.684 429.35 655.243 428.87 653.758 428.375C650.426 431.63 647.221 434.943 644.181 438.472C641.047 442.092 637.807 445.619 634.598 449.172C632.127 451.912 629.663 454.655 627.241 457.439C624.582 460.493 621.849 463.478 619.12 466.47C617.685 468.054 616.27 469.651 614.87 471.266C612.701 473.763 610.47 476.202 608.229 478.634C605.388 481.719 602.605 484.839 599.906 488.049C602.307 490.211 604.709 492.372 607.183 494.599C605.356 499.166 605.356 499.166 603.545 500.421C600.884 500.121 599.476 498.874 597.541 497.1C597.027 496.634 596.513 496.168 595.983 495.688C595.596 495.328 595.21 494.969 594.812 494.599C590.732 499.606 590.732 499.606 586.943 504.833C585.351 506.97 585.351 506.97 583.168 507.698C604.96 507.883 626.784 507.455 648.555 506.464C668.152 505.597 668.152 505.597 676.312 512.056C677.773 513.52 677.773 513.52 679 515.766C680.491 518.102 680.491 518.102 683.016 518.394C684.396 518.366 684.396 518.366 685.804 518.338C686.313 518.334 686.821 518.33 687.345 518.326C689.022 518.307 690.697 518.257 692.374 518.205C693.543 518.183 694.713 518.163 695.883 518.144C698.319 518.102 700.755 518.045 703.19 517.978C706.205 517.898 709.218 517.854 712.233 517.827C714.513 517.804 716.793 517.769 719.073 517.73C720.15 517.713 721.226 517.7 722.303 517.69C733.036 517.579 741.129 514.547 750.467 509.479C758.499 505.408 767.12 506.033 775.881 506.743C776.73 506.807 777.579 506.871 778.454 506.937C789.323 507.812 800.138 509.206 810.949 510.609C811.189 511.329 811.429 512.05 811.676 512.792C804.112 512.432 804.112 512.432 796.394 512.064C801.437 512.785 806.48 513.505 811.676 514.248C810.949 519.342 810.949 519.342 810.221 520.069C808.817 520.082 807.413 520.042 806.011 519.981C804.734 519.929 804.734 519.929 803.431 519.875C802.535 519.834 801.638 519.793 800.715 519.751C799.816 519.713 798.917 519.675 797.99 519.636C795.76 519.541 793.53 519.443 791.3 519.342C791.751 519.4 792.203 519.459 792.668 519.519C794.714 519.788 796.76 520.065 798.805 520.342C799.515 520.434 800.226 520.526 800.958 520.621C801.641 520.715 802.323 520.809 803.026 520.905C803.969 521.031 803.969 521.031 804.932 521.159C806.582 521.525 806.582 521.525 808.766 522.98C808.07 523.921 807.372 524.861 806.673 525.8C806.285 526.324 805.897 526.847 805.496 527.387C803.536 529.915 802.444 530.523 799.305 530.986C798.066 531.094 796.826 531.18 795.584 531.247C784.103 531.958 772.44 533.148 761.463 536.807C762.383 536.799 763.303 536.79 764.252 536.782C765.46 536.775 766.668 536.768 767.876 536.762C768.482 536.756 769.089 536.75 769.714 536.743C770.59 536.74 770.59 536.74 771.483 536.736C772.021 536.732 772.558 536.729 773.112 536.725C774.562 536.807 774.562 536.807 776.745 537.535C775.691 539.793 774.451 541.763 772.97 543.766C772.369 544.601 772.369 544.601 771.756 545.452C767.555 549.607 761.06 550.24 755.504 551.453C754.663 551.645 753.822 551.838 752.956 552.036C737.508 555.453 737.508 555.453 730.807 551.953C730.308 551.72 729.809 551.486 729.296 551.246C727.217 550.272 725.198 549.248 723.203 548.113C717.055 544.926 710.404 547.094 703.972 548.451C703.216 548.607 702.46 548.763 701.682 548.924C698.542 549.573 695.403 550.222 692.271 550.906C691.209 551.136 691.209 551.136 690.125 551.371C689.497 551.509 688.868 551.648 688.221 551.79C686.506 552.09 686.506 552.09 683.595 552.09C683.707 551.383 683.819 550.677 683.934 549.949C684.383 546.805 684.567 543.662 684.732 540.492C684.764 539.924 684.795 539.357 684.828 538.773C684.904 537.39 684.978 536.007 685.051 534.624C684.57 534.624 684.09 534.624 683.595 534.624C683.55 535.36 683.505 536.095 683.459 536.853C682.14 547.187 677.281 559.116 668.97 565.664C663.463 569.527 658.372 571.313 651.703 571.448C651.089 571.468 650.475 571.488 649.843 571.51C647.828 571.574 645.813 571.625 643.797 571.676C642.381 571.719 640.966 571.763 639.55 571.808C635.826 571.924 632.103 572.029 628.379 572.13C623.888 572.255 619.398 572.391 614.907 572.528C611.405 572.634 607.903 572.738 604.401 572.835C596.823 573.049 589.276 573.403 581.713 573.922C581.472 569.839 581.232 565.757 580.985 561.55C578.353 572.895 575.838 584.184 574.435 595.754C574.365 596.28 574.295 596.807 574.223 597.349C573.516 603.261 573.627 609.187 573.662 615.13C573.666 616.219 573.669 617.307 573.672 618.396C573.68 621.037 573.692 623.678 573.707 626.319C574.188 625.358 574.668 624.397 575.163 623.408C575.163 625.809 575.163 628.211 575.163 630.685C574.064 631.16 572.966 631.634 571.834 632.123C564.171 635.441 556.517 638.763 548.965 642.329C553.269 640.93 557.51 639.412 561.743 637.81C574.823 632.871 588.066 628.454 601.361 624.135C601.864 623.972 602.368 623.808 602.886 623.639C623.586 616.903 644.64 610.329 666.13 606.67C666.13 605.949 666.13 605.229 666.13 604.487C666.61 604.487 667.09 604.487 667.585 604.487C667.585 604.967 667.585 605.447 667.585 605.942C668.41 605.937 668.41 605.937 669.251 605.932C674.433 605.903 679.616 605.881 684.798 605.867C687.463 605.859 690.127 605.849 692.791 605.832C695.363 605.816 697.934 605.808 700.506 605.804C701.964 605.8 703.421 605.789 704.879 605.777C705.767 605.777 706.656 605.777 707.571 605.777C708.354 605.774 709.136 605.77 709.942 605.767C712.015 605.945 713.182 606.223 714.888 607.398C720.746 618.68 717.556 633.705 714.024 645.376C710.39 656.632 704.379 669.699 693.784 675.805C688.795 678.156 683.912 679.339 678.501 680.262C651.932 685.22 626.259 695.097 601.394 705.451C600.297 705.906 600.297 705.906 599.178 706.369C598.199 706.813 598.199 706.813 597.201 707.265C595.539 707.825 595.539 707.825 593.356 707.097C593.899 706.757 593.899 706.757 594.452 706.411C604.758 699.951 614.926 693.352 624.876 686.357C625.412 685.981 625.948 685.604 626.5 685.217C626.997 684.865 627.494 684.513 628.006 684.151C628.447 683.839 628.888 683.527 629.343 683.206C630.578 682.314 630.578 682.314 631.926 680.899C611.11 690.932 591.23 702.043 573.861 717.465C568.5 722.133 562.634 725.803 556.56 729.475C550.19 733.35 543.893 737.303 537.73 741.502C535.378 743.084 534.225 743.575 531.439 743.566C530.521 743.566 530.521 743.566 529.585 743.566C528.593 743.561 528.593 743.561 527.582 743.555C526.905 743.554 526.229 743.553 525.532 743.552C523.367 743.548 521.202 743.539 519.036 743.529C517.571 743.526 516.105 743.522 514.639 743.519C511.041 743.511 507.443 743.499 503.845 743.484C504.601 743.568 505.358 743.653 506.137 743.74C508.947 744.054 511.757 744.37 514.567 744.688C515.783 744.824 516.998 744.961 518.214 745.096C519.963 745.291 521.711 745.489 523.46 745.687C524.002 745.747 524.544 745.807 525.102 745.869C529.056 746.32 529.056 746.32 530.876 746.843C532.837 747.249 534.441 746.854 536.4 746.474C537.627 746.241 537.627 746.241 538.88 746.004C539.746 745.832 540.613 745.661 541.505 745.485C543.283 745.142 545.06 744.799 546.838 744.456C548.132 744.204 548.132 744.204 549.452 743.947C551.527 743.55 553.602 743.179 555.685 742.83C556.221 742.738 556.756 742.647 557.309 742.552C558.688 742.318 560.069 742.091 561.45 741.863C565.133 740.862 566.177 738.46 568.068 735.297C571.9 729.232 576.134 724.573 583.168 722.38C591.168 721.162 598.264 723.479 605.728 726.018C607.453 726.601 609.179 727.184 610.905 727.765C611.992 728.133 613.076 728.507 614.159 728.888C621.265 731.34 627.966 732.101 635.474 732.068C636.758 732.067 636.758 732.067 638.069 732.066C644.047 732.004 649.811 731.493 655.682 730.37C659.12 729.725 661.931 729.558 665.402 730.385C667.965 732.948 668.921 735.003 669.279 738.611C668.985 741.927 668.035 743.192 665.948 745.758C665.463 746.36 665.463 746.36 664.969 746.974C661.824 750.822 658.448 754.466 655.037 758.078C653.389 759.825 651.81 761.618 650.256 763.451C646.414 767.861 642.175 772.209 636.036 772.742C630.783 772.81 626.125 771.959 621.056 770.637C620.268 770.441 619.48 770.245 618.668 770.043C614.926 769.107 611.195 768.135 607.465 767.152C601.342 765.553 595.586 764.191 589.234 763.963C587.534 763.86 587.534 763.86 586.079 763.133C584.651 763.716 584.651 763.716 583.168 764.588C582.501 764.943 582.501 764.943 581.82 765.306C575.944 768.515 570.12 771.765 564.474 775.368C557.672 779.698 550.647 783.629 543.599 787.542C542.43 788.191 541.262 788.842 540.097 789.497C534.677 792.541 529.165 795.214 523.448 797.655C522.867 797.904 522.286 798.153 521.688 798.41C518.653 799.672 515.873 800.6 512.578 800.975C513.138 799.944 513.699 798.913 514.261 797.882C514.854 796.786 514.854 796.786 515.46 795.667C516.561 793.65 517.695 791.652 518.837 789.658C523.327 781.758 527.012 773.882 530.043 765.316C529.741 765.918 529.439 766.52 529.128 767.141C522.995 779.115 515.584 790.409 507.622 801.241C506.709 802.495 505.814 803.761 504.922 805.031C491.407 824.267 491.407 824.267 485.129 825.522C479.41 826.196 473.678 825.665 468.004 824.854C467.318 824.756 466.631 824.659 465.924 824.559C454.645 822.885 443.671 820.314 432.754 817.03C431.99 816.804 431.226 816.577 430.438 816.343C415.26 811.62 415.26 811.62 411.423 805.341C406.529 795.806 405.412 786.33 405.328 775.777C405.318 774.962 405.308 774.147 405.297 773.308C405.404 754.299 416.481 741.322 428.161 727.474C428.491 727.082 428.821 726.69 429.161 726.286C433.698 720.911 438.342 715.653 443.119 710.488C444.975 708.469 446.776 706.41 448.568 704.334C449.751 703.003 450.951 701.698 452.167 700.4C452.558 699.982 452.948 699.565 453.35 699.135C454.127 698.306 454.906 697.48 455.688 696.657C457.272 694.966 458.601 693.501 459.706 691.451C461.561 688.645 464.153 686.978 466.867 685.038C467.475 684.598 468.083 684.158 468.709 683.704C487.116 670.491 506.394 658.763 526.405 648.151C527.097 647.782 527.79 647.413 528.503 647.033C537.876 642.053 547.335 637.32 556.97 632.868C539.968 638.667 523.212 644.892 506.894 652.407C506.059 652.79 505.225 653.174 504.365 653.569C503.631 653.91 502.896 654.252 502.139 654.604C500.513 655.297 499.02 655.798 497.295 656.156C498.435 653.296 500.42 651.528 502.617 649.47C530.018 622.883 545.094 583.502 549.692 546.268C549.549 546.814 549.406 547.361 549.259 547.924C548.604 550.42 547.943 552.915 547.282 555.41C546.945 556.7 546.945 556.7 546.601 558.015C545.47 562.265 544.311 566.31 542.415 570.283C538.437 569.176 535.208 567.295 531.726 565.144C531.151 564.791 530.576 564.438 529.984 564.075C525.31 561.157 521.061 557.946 516.944 554.273C516.944 556.237 519.947 558.229 521.277 559.571C527.183 565.353 534.062 570.126 540.959 574.65C531.466 603.392 516.248 630.077 496.171 652.75C495.378 653.665 494.611 654.603 493.858 655.552C490.204 659.996 486.492 662.39 481.331 664.843C479.846 665.582 478.362 666.324 476.879 667.069C475.785 667.615 475.785 667.615 474.668 668.172C471.576 669.755 468.578 671.481 465.593 673.258C465.105 673.546 464.617 673.835 464.114 674.133C461.947 675.428 459.83 676.761 457.75 678.192C455.815 679.443 455.815 679.443 454.359 679.443C454.232 678.992 454.105 678.541 453.975 678.076C448.807 659.943 442.081 642.342 433.343 625.614C432.964 624.88 432.964 624.88 432.577 624.131C432.04 623.129 431.473 622.143 430.882 621.172C430.049 619.734 429.364 618.451 428.888 616.858C429.559 614.379 429.559 614.379 430.89 612.128C431.321 611.37 431.753 610.612 432.197 609.831C432.546 609.268 432.895 608.705 433.255 608.125C438.93 608.528 444.438 609.521 450.009 610.654C451.445 610.945 452.882 611.228 454.319 611.511C469.017 614.465 469.017 614.465 471.097 617.586C471.172 618.141 471.247 618.697 471.324 619.269C472.175 622.595 474.077 624.608 476.802 626.54C486.609 631.836 503.127 626.316 513.306 623.408C513.404 622.807 513.503 622.207 513.605 621.588C513.981 619.306 514.358 617.023 514.736 614.741C514.904 613.729 515.072 612.716 515.239 611.704C516.314 605.207 517.436 598.728 518.778 592.28C519.823 585.258 518.104 581.151 514.033 575.377C511.453 572.289 508.741 569.21 504.565 568.622C498.622 568.627 492.854 569.654 487.016 570.647C485.464 570.91 483.912 571.171 482.359 571.426C480.954 571.657 479.55 571.894 478.147 572.132C475.26 572.492 472.546 572.523 469.641 572.466C469.641 572.947 469.641 573.427 469.641 573.922C472.886 573.82 476.131 573.712 479.375 573.603C480.286 573.575 481.197 573.546 482.135 573.517C488.021 573.316 493.82 572.909 499.661 572.165C502.961 571.912 505.187 571.943 508.047 573.723C509.95 575.386 511.626 577.128 513.306 579.016C513.775 579.461 514.244 579.905 514.727 580.363C517.389 583.187 518.004 585.677 518.172 589.523C517.851 597.501 516.994 616.081 511.122 621.952C507.909 622.453 504.668 622.747 501.434 623.089C500.539 623.19 499.644 623.291 498.721 623.395C482.219 625.165 482.219 625.165 477.229 621.549C475.795 620.096 475.463 618.879 475.463 616.858C474.263 616.618 473.062 616.378 471.825 616.13C472.785 615.41 473.746 614.689 474.736 613.947C465.183 605.8 445.819 607.226 433.983 607.398C434.413 605.088 434.942 602.888 435.685 600.66C435.873 600.089 436.06 599.518 436.253 598.929C436.45 598.331 436.646 597.734 436.848 597.118C441.138 584.038 441.138 584.038 439.003 570.809C437.41 567.755 436.028 566.845 432.754 565.735C427.441 564.715 421.901 565.078 416.517 565.189C416.961 565.266 417.405 565.342 417.862 565.422C419.886 565.776 421.908 566.142 423.931 566.508C424.629 566.629 425.328 566.749 426.047 566.873C432.65 568.084 432.65 568.084 435.438 570.283C439.325 578.057 435.055 590.307 432.527 597.937C431.49 601.014 430.41 604.074 429.298 607.125C429.037 607.849 428.775 608.573 428.506 609.319C425.222 618.004 420.255 625.572 411.559 629.548C396.763 635.558 378.596 626.767 364.848 621.225C346.857 613.441 346.857 613.441 342.288 605.942C340.679 600.849 340.601 595.589 340.651 590.296C340.658 589.153 340.658 589.153 340.666 587.988C341.003 562.273 341.003 562.273 346.788 555.257C349.094 553.331 351.483 551.831 354.114 550.407C354.665 550.105 355.217 549.803 355.786 549.493C365.66 544.184 375.801 539.374 385.952 534.624C386.413 534.408 386.873 534.192 387.348 533.97C405.828 525.33 439.302 510.308 460.181 514.248C461.689 515.52 462.979 516.922 464.317 518.372C476.014 530.149 493.639 537.829 509.667 541.174C509.257 541.006 508.848 540.838 508.426 540.665C500.54 537.412 492.835 534.144 485.566 529.647C483.989 528.675 482.398 527.728 480.808 526.778C469.669 520.041 460.057 513.522 456.315 500.33C455.719 496.973 455.351 493.63 455.087 490.232C454.411 490.172 453.736 490.112 453.04 490.05C450.72 489.505 450.72 489.505 449.401 488.14C447.887 485.43 447.728 483.321 447.764 480.272C447.771 479.548 447.777 478.825 447.784 478.08C447.792 477.527 447.801 476.975 447.809 476.405C447.192 476.21 446.575 476.015 445.939 475.814C443.368 474.924 440.925 473.874 438.44 472.767C430.323 469.263 422.055 467.291 413.288 470.129C409.081 472.085 407.235 475.484 404.873 479.316C403.84 480.781 402.793 482.236 401.735 483.683C401.257 484.343 400.78 485.004 400.288 485.684C399.051 487.321 399.051 487.321 397.596 488.777C397.521 489.242 397.446 489.708 397.368 490.187C396.642 492.367 395.18 492.705 393.229 493.871C392.041 494.924 390.874 496.002 389.727 497.1C385.086 501.31 381.263 503.959 374.817 503.653C365.731 502.167 358.513 496.083 351.749 490.232C352.168 487.927 352.779 486.752 354.458 485.127C355.045 484.55 355.045 484.55 355.645 483.961C356.055 483.569 356.465 483.177 356.888 482.773C357.301 482.37 357.715 481.966 358.14 481.551C359.158 480.558 360.183 479.573 361.209 478.589C363.828 479.75 365.881 481.366 368.123 483.137C373.814 487.5 380.025 491.688 387.408 491.688C389.65 491.384 391.833 491.027 393.957 490.232C394.197 489.752 394.437 489.272 394.685 488.777C395.165 488.777 395.645 488.777 396.14 488.777C396.312 488.292 396.484 487.807 396.661 487.307C401.572 475.917 410.641 463.827 422.236 458.758C422.751 458.578 423.265 458.398 423.794 458.212C419.561 453.545 412.423 451.161 406.329 450.207C402.15 450.588 399.469 454.526 396.868 457.484C395.882 458.883 394.911 460.293 393.957 461.714C391.284 465.512 388.921 467.131 384.497 468.4C384.009 468.561 383.521 468.721 383.018 468.886C381.571 469.314 380.163 469.611 378.675 469.856C377.837 469.999 377.837 469.999 376.983 470.146C375.195 470.317 373.86 470.328 372.125 469.856C370.277 468.214 369.436 466.289 368.486 464.034C368.227 463.442 367.967 462.85 367.699 462.24C362.335 448.238 361.992 431.312 364.848 416.731C366.729 413.909 368.035 413.838 371.261 412.956C372.151 412.706 373.041 412.455 373.959 412.197C376.154 411.712 377.907 411.59 380.13 411.637C380.078 412.178 380.027 412.719 379.973 413.277C378.546 428.743 378.392 442.59 383.041 457.484C383.521 457.484 384.002 457.484 384.497 457.484C385.236 456.737 385.943 455.957 386.634 455.165C393.737 447.975 406.916 445.012 416.79 444.704C430.556 445.326 441.248 453.418 451.448 461.851C453.263 460.975 454.855 460.065 456.542 458.94C457.503 458.94 458.463 458.94 459.453 458.94C459.693 460.141 459.934 461.341 460.181 462.578C463.345 447.136 465.184 431.64 462.364 416.004C463.085 416.004 463.805 416.004 464.547 416.004C461.552 412.062 458.728 409.835 454.342 407.532C453.867 407.206 453.393 406.879 452.904 406.543C452.904 405.823 452.904 405.102 452.904 404.36C453.977 404.003 455.055 403.657 456.133 403.314C456.732 403.119 457.332 402.925 457.949 402.725C472.747 399.087 492.749 399.966 507.484 403.632ZM466.003 418.187C466.731 419.642 466.731 419.642 466.731 419.642L466.003 418.187ZM492.929 461.123C490.213 469.27 492.782 478.408 496.124 485.974C498.11 489.872 499.936 493.215 503.845 495.327C507.781 494.587 511.302 493.303 514.943 491.642C515.429 491.425 515.915 491.209 516.417 490.985C518.05 490.255 519.681 489.517 521.311 488.777C523.243 487.901 525.176 487.025 527.109 486.15C528.373 485.578 529.635 485.003 530.897 484.426C540.901 479.882 540.901 479.882 546.054 480.772C551.044 482.662 554.931 486.232 558.874 489.726C559.446 490.134 560.019 490.541 560.608 490.96C561.329 490.72 562.049 490.48 562.791 490.232C563.517 488.688 563.517 488.688 563.974 486.821C564.148 486.203 564.323 485.585 564.503 484.948C565.502 480.73 565.799 476.806 565.748 472.494C565.745 471.958 565.741 471.423 565.738 470.871C565.729 469.562 565.716 468.253 565.702 466.945C559.947 464.631 554.293 463.192 548.191 462.124C547.33 461.969 546.469 461.815 545.582 461.655C538.726 460.453 531.886 459.511 524.949 458.94C524.004 458.859 523.058 458.778 522.084 458.695C506.979 456.998 506.979 456.998 492.929 461.123ZM458.725 466.945C459.453 468.4 459.453 468.4 459.453 468.4L458.725 466.945ZM562.791 512.064C563.519 513.52 563.519 513.52 563.519 513.52L562.791 512.064ZM562.064 513.52C561.83 513.959 561.596 514.398 561.354 514.851C545.366 544.764 545.366 544.764 537.321 548.451C535.312 548.663 533.529 548.591 531.499 548.451C533.471 550.423 534.538 550.531 537.321 550.634C542.296 549.185 545.542 545.597 548.965 541.902C549.34 541.552 549.715 541.202 550.102 540.841C555.311 535.249 558.197 526.279 561.336 519.342C561.647 518.664 561.959 517.987 562.28 517.289C562.997 515.602 562.997 515.602 562.064 513.52ZM530.771 760.949C531.499 762.405 531.499 762.405 531.499 762.405L530.771 760.949Z" fill="#FBFDFF"/>
<path d="M825.869 596.3C826.401 596.281 826.934 596.262 827.483 596.243C830.466 596.672 832.268 598.02 834.124 600.348C839.766 609.504 843.835 618.267 843.971 629.139C843.981 629.667 843.991 630.195 844.002 630.74C843.972 634.001 843.534 636.109 841.515 638.69C837.952 641.01 835.849 641.036 831.327 641.601C830.846 637.038 830.366 632.476 829.871 627.774C829.391 632.097 828.91 636.42 828.416 640.874C824.327 641.691 824.327 641.691 821.812 641.061C821.27 640.931 820.728 640.801 820.169 640.667C819.321 640.454 819.321 640.454 818.455 640.237C813.768 639.133 809.228 638.149 804.4 637.963C803.76 637.934 803.119 637.905 802.459 637.875C793.357 637.666 785.197 638.466 776.837 642.056C771.078 644.468 766.081 644.797 759.872 644.603C750.208 644.305 741.683 645.739 732.355 648.151C731.192 648.448 731.192 648.448 730.006 648.752C726.957 649.536 723.909 650.323 720.871 651.149C719.884 651.417 719.884 651.417 718.877 651.69C718.299 651.85 717.72 652.01 717.124 652.174C715.617 652.517 715.617 652.517 713.434 652.517C713.719 651.692 714.004 650.866 714.298 650.016C717.642 639.918 720.381 630.171 721.109 619.505C721.172 618.598 721.234 617.69 721.299 616.755C721.345 616.069 721.391 615.382 721.439 614.675C722.212 614.639 722.986 614.602 723.783 614.565C726.69 614.426 729.597 614.281 732.503 614.133C733.754 614.071 735.005 614.01 736.257 613.951C749.222 613.524 749.222 613.524 761.419 609.536C766.874 606.825 770.862 606.232 776.948 607.099C780.087 607.45 782.654 607.168 785.752 606.443C786.275 606.321 786.798 606.199 787.336 606.074C795.034 604.208 802.638 601.928 810.242 599.715C810.788 599.556 811.334 599.397 811.897 599.234C812.93 598.933 813.962 598.631 814.994 598.327C818.617 597.271 822.086 596.38 825.869 596.3Z" fill="#FBFDFF"/>
<path d="M432.527 629.958C433.247 630.198 433.967 630.438 434.71 630.685C435.349 632.974 435.349 632.974 435.437 635.779C433.977 637.484 432.785 638.597 431.026 639.918C430.079 640.676 429.134 641.434 428.189 642.193C427.7 642.575 427.212 642.958 426.708 643.352C424.419 645.172 422.224 647.096 420.019 649.015C416.414 652.115 412.76 655.147 409.068 658.143C406.842 659.97 404.652 661.836 402.462 663.706C398.776 666.847 395.007 669.863 391.185 672.836C386.932 676.153 382.796 679.602 378.674 683.082C383.073 680.2 387.367 677.208 391.591 674.076C392.181 673.641 392.77 673.205 393.378 672.756C399.803 667.993 406.161 663.141 412.512 658.278C414.245 656.951 415.98 655.625 417.716 654.3C418.247 653.894 418.777 653.489 419.324 653.071C420.348 652.289 421.371 651.509 422.396 650.729C424.783 648.908 427.154 647.072 429.496 645.194C429.932 644.848 430.369 644.502 430.818 644.145C431.989 643.214 433.153 642.274 434.317 641.334C434.927 640.942 435.537 640.55 436.165 640.146C436.886 640.386 437.606 640.626 438.348 640.874C439.25 642.773 440.004 644.59 440.714 646.559C440.918 647.087 441.123 647.614 441.333 648.158C442.997 652.659 442.997 652.659 441.987 655.428C440.606 656.915 440.606 656.915 438.803 658.476C438.144 659.05 437.484 659.624 436.805 660.215C434.14 662.457 431.439 664.652 428.731 666.842C426.664 668.561 424.68 670.346 422.702 672.166C419.488 675.121 416.18 677.91 412.784 680.652C410.929 682.163 409.103 683.701 407.284 685.255C402.441 689.393 397.486 693.363 392.453 697.267C390.954 698.436 389.464 699.618 387.976 700.801C382.314 705.282 376.577 709.605 370.624 713.692C370.07 714.074 369.516 714.455 368.946 714.848C354.042 724.942 339.153 723.258 321.802 720.48C320.455 720.197 320.455 720.197 319 719.469C319 718.989 319 718.508 319 718.013C320.539 716.889 322.079 715.852 323.685 714.83C324.697 714.17 325.708 713.508 326.718 712.845C327.511 712.326 327.511 712.326 328.319 711.796C337.824 705.487 346.963 698.619 356.114 691.815C356.545 691.495 356.976 691.175 357.42 690.845C369.081 682.171 380.544 673.237 391.8 664.042C394.517 661.826 397.255 659.641 400.026 657.492C405.478 653.264 410.69 648.799 415.877 644.251C418.139 642.276 420.42 640.324 422.702 638.372C423.103 638.029 423.504 637.685 423.917 637.332C424.69 636.67 425.465 636.011 426.241 635.353C427.102 634.609 427.947 633.848 428.783 633.076C429.23 632.669 429.678 632.262 430.139 631.842C430.543 631.465 430.948 631.088 431.365 630.699C431.94 630.332 431.94 630.332 432.527 629.958ZM376.491 683.81C375.771 684.891 375.771 684.891 375.036 685.993C375.996 685.513 376.957 685.032 377.946 684.538C377.466 684.297 376.986 684.057 376.491 683.81Z" fill="#FBFDFF"/>
<path d="M533.683 470.584C534.404 471.065 535.124 471.545 535.866 472.04C535.626 474.201 535.386 476.362 535.139 478.589C533.217 477.629 531.296 476.668 529.317 475.678C529.152 476.354 528.987 477.029 528.816 477.725C527.861 480.045 527.861 480.045 526.224 481.455C523.71 482.426 522.409 482.333 519.856 481.5C517.955 479.789 517.696 478.877 517.491 476.315C517.673 474.223 517.673 474.223 518.401 472.767C514.779 471.647 511.291 470.943 507.53 470.493C507.033 470.43 506.535 470.368 506.022 470.303C504.812 470.15 503.601 470.003 502.391 469.857C502.391 469.376 502.391 468.896 502.391 468.401C511.991 465.63 524.461 466.969 533.683 470.584ZM521.312 472.767C521.312 473.968 521.312 475.169 521.312 476.406C522.753 477.127 522.753 477.127 524.223 477.862C525.707 476.87 525.707 476.87 527.134 475.678C527.134 475.198 527.134 474.718 527.134 474.223C525.019 473.308 523.643 472.767 521.312 472.767Z" fill="#FBFDFF"/>
<path d="M557.062 471.175C557.949 471.18 558.837 471.185 559.751 471.19C562.065 471.312 562.065 471.312 564.248 472.04C564.248 472.52 564.248 473 564.248 473.495C562.327 473.735 560.406 473.975 558.427 474.223C558.577 474.898 558.727 475.574 558.881 476.269C559.154 478.589 559.154 478.589 557.699 480.772C555.925 481.136 555.925 481.136 554.06 480.772C552.741 478.953 552.741 478.953 551.877 477.134C550.676 477.614 549.475 478.094 548.238 478.589C548.238 476.668 548.238 474.747 548.238 472.767C551.263 471.312 553.724 471.136 557.062 471.175ZM555.106 475.314C554.761 475.675 554.416 476.035 554.06 476.406C555.141 477.126 555.141 477.126 556.243 477.861C556.484 476.661 556.724 475.46 556.971 474.223C556.068 474.139 556.068 474.139 555.106 475.314Z" fill="#FBFDFF"/>
</g>
</svg>
