<svg width="570" height="462" viewBox="0 0 570 462" fill="none" xmlns="http://www.w3.org/2000/svg">
<path d="M204.417 3.51102C205.07 3.66803 205.723 3.82505 206.397 3.98682C227.887 9.27633 251.963 19.7465 264.698 38.7777C269.287 47.0599 270.489 57.4631 271.505 66.7342C271.594 67.5349 271.682 68.3356 271.773 69.1606C272.642 78.8562 272.366 88.6217 272.294 98.3458C273.468 96.9684 274.634 95.584 275.797 94.1968C276.447 93.4266 277.097 92.6564 277.767 91.8629C279.199 89.9216 279.881 88.8356 280.187 86.4914C278.624 85.1875 277.062 83.8835 275.451 82.54C275.924 79.8878 276.909 78.2898 278.609 76.2177C281.902 76.6277 283.545 77.5703 285.959 79.8234C286.509 80.3297 287.06 80.836 287.627 81.3576C288.037 81.7478 288.447 82.138 288.869 82.54C292.001 81.3045 293.933 79.1249 296.121 76.6622C296.503 76.2383 296.886 75.8144 297.28 75.3776C299.656 72.7241 301.931 70.006 304.161 67.2281C307.8 62.6996 311.74 58.4908 315.708 54.2532C319.162 50.5618 322.454 46.7419 325.728 42.8897C329.638 38.2945 333.568 33.7324 337.656 29.2942C338.357 28.5302 339.058 27.7661 339.78 26.9789C341.026 25.6319 342.281 24.293 343.548 22.9657C344.062 22.4136 344.576 21.8614 345.105 21.2925C345.549 20.828 345.992 20.3635 346.449 19.8848C347.452 18.5539 347.452 18.5539 347.069 16.8842C346.446 15.2617 345.727 13.7359 344.908 12.2042C346.21 10.6394 347.512 9.07466 348.854 7.46247C352.883 8.67123 355.468 11.1738 358.523 13.933C359.571 14.8625 360.62 15.7907 361.67 16.7175C362.177 17.1645 362.683 17.6114 363.205 18.072C365.953 20.4565 368.828 22.6737 371.743 24.8488C371.124 27.9005 369.826 29.6011 367.797 31.9614C366.234 31.4399 364.671 30.9183 363.061 30.3809C359.446 33.9154 355.971 37.513 352.674 41.3461C349.275 45.2768 345.761 49.1073 342.281 52.9659C339.601 55.9412 336.928 58.9198 334.302 61.9431C331.417 65.2598 328.453 68.5017 325.493 71.7507C323.937 73.4711 322.403 75.2048 320.884 76.9586C318.532 79.6709 316.113 82.3185 313.682 84.9602C310.6 88.3099 307.582 91.6986 304.655 95.1846C307.259 97.5318 309.864 99.8789 312.547 102.297C310.566 107.258 310.566 107.258 308.601 108.62C305.715 108.294 304.188 106.94 302.089 105.014C301.532 104.508 300.974 104.001 300.4 103.48C299.981 103.089 299.562 102.699 299.13 102.297C294.704 107.735 294.704 107.735 290.596 113.411C288.869 115.732 288.869 115.732 286.501 116.522C310.137 116.723 333.806 116.259 357.418 115.183C378.671 114.24 378.671 114.24 387.522 121.255C389.107 122.845 389.107 122.845 390.437 125.284C392.054 127.82 392.054 127.82 394.792 128.137C396.289 128.108 396.289 128.108 397.817 128.077C398.368 128.073 398.92 128.069 399.488 128.064C401.307 128.043 403.123 127.989 404.942 127.932C406.21 127.909 407.479 127.887 408.748 127.867C411.39 127.82 414.032 127.759 416.673 127.686C419.942 127.599 423.21 127.551 426.48 127.522C428.953 127.497 431.426 127.459 433.899 127.417C435.067 127.398 436.234 127.384 437.402 127.374C449.043 127.253 457.82 123.96 467.948 118.456C476.658 114.036 486.009 114.715 495.511 115.485C496.432 115.555 497.353 115.624 498.302 115.696C510.089 116.646 521.819 118.16 533.544 119.684C533.805 120.466 534.065 121.248 534.333 122.054C526.129 121.663 526.129 121.663 517.759 121.264C523.228 122.047 528.698 122.829 534.333 123.635C533.544 129.167 533.544 129.167 532.755 129.957C531.233 129.971 529.71 129.928 528.189 129.862C526.804 129.804 526.804 129.804 525.391 129.746C524.419 129.702 523.447 129.657 522.445 129.612C521.47 129.57 520.495 129.529 519.49 129.487C517.071 129.384 514.652 129.277 512.234 129.167C512.723 129.231 513.213 129.294 513.718 129.36C515.937 129.651 518.155 129.952 520.373 130.254C521.144 130.354 521.914 130.453 522.709 130.556C523.449 130.658 524.189 130.76 524.951 130.865C525.974 131.002 525.974 131.002 527.018 131.141C528.808 131.538 528.808 131.538 531.176 133.119C530.421 134.14 529.665 135.161 528.907 136.181C528.486 136.749 528.065 137.318 527.631 137.903C525.505 140.65 524.32 141.309 520.916 141.812C519.572 141.93 518.227 142.023 516.88 142.096C504.428 142.868 491.779 144.16 479.873 148.134C480.872 148.125 481.87 148.116 482.898 148.106C484.208 148.099 485.519 148.092 486.829 148.085C487.487 148.078 488.144 148.071 488.822 148.065C489.772 148.061 489.772 148.061 490.741 148.057C491.324 148.053 491.907 148.049 492.507 148.044C494.08 148.134 494.08 148.134 496.448 148.924C495.305 151.376 493.96 153.516 492.354 155.691C491.702 156.597 491.702 156.597 491.037 157.522C486.481 162.034 479.437 162.721 473.411 164.039C472.499 164.247 471.587 164.456 470.647 164.671C453.893 168.383 453.893 168.383 446.625 164.582C446.084 164.328 445.543 164.075 444.986 163.814C442.732 162.756 440.542 161.644 438.378 160.411C431.71 156.951 424.496 159.305 417.521 160.779C416.701 160.948 415.881 161.118 415.037 161.293C411.632 161.997 408.227 162.702 404.83 163.444C403.678 163.694 403.678 163.694 402.503 163.949C401.821 164.1 401.14 164.25 400.438 164.405C398.578 164.73 398.578 164.73 395.421 164.73C395.542 163.963 395.663 163.196 395.788 162.406C396.275 158.991 396.475 155.577 396.654 152.135C396.688 151.519 396.723 150.903 396.758 150.269C396.84 148.767 396.92 147.265 397 145.763C396.479 145.763 395.958 145.763 395.421 145.763C395.372 146.562 395.323 147.361 395.273 148.183C393.842 159.406 388.573 172.361 379.559 179.471C373.586 183.666 368.065 185.606 360.832 185.752C360.166 185.774 359.5 185.796 358.814 185.819C356.629 185.89 354.443 185.945 352.258 186C350.722 186.047 349.186 186.095 347.651 186.144C343.613 186.27 339.574 186.383 335.536 186.493C330.665 186.629 325.795 186.777 320.924 186.925C317.126 187.04 313.328 187.153 309.53 187.258C301.311 187.491 293.126 187.876 284.923 188.439C284.662 184.005 284.402 179.572 284.133 175.004C281.279 187.324 278.552 199.583 277.03 212.147C276.954 212.719 276.878 213.291 276.799 213.88C276.033 220.3 276.153 226.735 276.191 233.189C276.195 234.371 276.199 235.554 276.202 236.736C276.211 239.604 276.224 242.472 276.241 245.34C276.762 244.296 277.283 243.253 277.819 242.178C277.819 244.786 277.819 247.394 277.819 250.081C276.628 250.597 275.436 251.112 274.209 251.643C265.897 255.246 257.596 258.854 249.405 262.726C254.074 261.207 258.673 259.559 263.265 257.819C277.451 252.455 291.813 247.659 306.233 242.969C306.779 242.791 307.324 242.613 307.887 242.43C330.337 235.115 353.171 227.975 376.479 224.002C376.479 223.219 376.479 222.437 376.479 221.631C376.999 221.631 377.52 221.631 378.057 221.631C378.057 222.153 378.057 222.674 378.057 223.212C378.951 223.206 378.951 223.206 379.864 223.201C385.484 223.169 391.105 223.145 396.726 223.13C399.615 223.121 402.505 223.11 405.395 223.092C408.184 223.075 410.973 223.066 413.762 223.062C415.343 223.057 416.924 223.045 418.505 223.032C419.468 223.032 420.432 223.032 421.425 223.032C422.273 223.029 423.121 223.025 423.995 223.021C426.244 223.215 427.51 223.517 429.36 224.792C435.713 237.044 432.254 253.361 428.423 266.035C424.482 278.259 417.962 292.449 406.471 299.079C401.06 301.633 395.764 302.918 389.896 303.92C361.08 309.304 333.236 320.03 306.269 331.274C305.079 331.768 305.079 331.768 303.865 332.272C302.804 332.753 302.804 332.753 301.721 333.244C299.919 333.852 299.919 333.852 297.551 333.062C298.14 332.693 298.14 332.693 298.74 332.317C309.917 325.302 320.945 318.135 331.737 310.539C332.318 310.13 332.899 309.722 333.497 309.301C334.037 308.919 334.576 308.537 335.131 308.143C335.61 307.804 336.088 307.465 336.581 307.117C337.92 306.148 337.92 306.148 339.383 304.611C316.806 315.507 295.245 327.573 276.407 344.32C270.593 349.39 264.231 353.375 257.643 357.363C250.735 361.572 243.905 365.864 237.221 370.425C234.67 372.142 233.42 372.675 230.398 372.666C229.402 372.666 229.402 372.666 228.387 372.666C227.311 372.66 227.311 372.66 226.214 372.653C225.481 372.652 224.747 372.651 223.991 372.65C221.643 372.646 219.295 372.636 216.947 372.626C215.357 372.622 213.767 372.618 212.177 372.615C208.275 372.606 204.373 372.592 200.47 372.576C201.291 372.668 202.111 372.759 202.956 372.854C206.004 373.195 209.052 373.539 212.099 373.883C213.418 374.032 214.736 374.18 216.054 374.327C217.951 374.539 219.847 374.754 221.744 374.969C222.332 375.034 222.92 375.099 223.526 375.166C227.813 375.656 227.813 375.656 229.788 376.225C231.914 376.665 233.654 376.236 235.778 375.824C237.11 375.571 237.11 375.571 238.468 375.313C239.408 375.127 240.347 374.941 241.315 374.75C243.243 374.377 245.171 374.004 247.099 373.632C248.503 373.358 248.503 373.358 249.934 373.079C252.184 372.649 254.435 372.246 256.694 371.866C257.275 371.767 257.856 371.667 258.455 371.564C259.951 371.311 261.449 371.063 262.946 370.817C266.941 369.729 268.073 367.121 270.124 363.686C274.281 357.099 278.872 352.04 286.501 349.658C295.178 348.335 302.874 350.851 310.969 353.609C312.84 354.242 314.712 354.875 316.584 355.506C317.762 355.906 318.939 356.312 320.113 356.726C327.82 359.389 335.088 360.215 343.23 360.179C344.623 360.178 344.623 360.178 346.044 360.177C352.528 360.11 358.78 359.554 365.148 358.335C368.876 357.635 371.925 357.454 375.689 358.351C378.469 361.135 379.506 363.367 379.895 367.285C379.575 370.886 378.544 372.26 376.281 375.046C375.756 375.699 375.756 375.699 375.22 376.366C371.808 380.545 368.148 384.502 364.448 388.425C362.66 390.323 360.948 392.27 359.263 394.26C355.095 399.049 350.498 403.77 343.84 404.349C338.142 404.423 333.091 403.499 327.593 402.064C326.739 401.851 325.884 401.638 325.004 401.418C320.945 400.402 316.898 399.346 312.853 398.279C306.212 396.542 299.969 395.064 293.081 394.816C291.237 394.704 291.237 394.704 289.658 393.914C288.11 394.547 288.11 394.547 286.501 395.495C285.778 395.881 285.778 395.88 285.039 396.274C278.666 399.76 272.35 403.289 266.227 407.201C258.849 411.904 251.23 416.172 243.586 420.422C242.318 421.126 241.052 421.833 239.788 422.545C233.91 425.851 227.931 428.753 221.731 431.403C221.101 431.674 220.471 431.945 219.822 432.224C216.53 433.594 213.516 434.603 209.942 435.009C210.55 433.889 211.158 432.77 211.767 431.65C212.411 430.46 212.411 430.46 213.068 429.246C214.262 427.054 215.491 424.885 216.731 422.72C221.6 414.141 225.597 405.588 228.884 396.285C228.557 396.939 228.229 397.593 227.892 398.267C221.239 411.27 213.203 423.535 204.567 435.298C203.576 436.66 202.606 438.035 201.639 439.414C186.981 460.303 186.981 460.303 180.172 461.666C173.969 462.399 167.752 461.821 161.599 460.941C160.854 460.835 160.11 460.729 159.343 460.62C147.11 458.803 135.208 456.01 123.368 452.445C122.539 452.199 121.71 451.952 120.856 451.699C104.394 446.569 104.394 446.569 100.233 439.751C94.9253 429.396 93.7139 419.106 93.6224 407.645C93.6114 406.761 93.6004 405.876 93.5891 404.964C93.7054 384.321 105.718 370.228 118.386 355.19C118.744 354.764 119.102 354.339 119.47 353.901C124.392 348.063 129.429 342.353 134.609 336.745C136.622 334.552 138.576 332.315 140.519 330.061C141.802 328.616 143.103 327.199 144.423 325.789C144.846 325.335 145.269 324.882 145.705 324.415C146.548 323.515 147.393 322.618 148.241 321.725C149.959 319.888 151.4 318.297 152.599 316.071C154.611 313.023 157.422 311.214 160.365 309.106C161.025 308.628 161.684 308.15 162.363 307.658C182.327 293.309 203.235 280.573 224.938 269.048C225.689 268.648 226.44 268.248 227.214 267.835C237.379 262.427 247.638 257.287 258.087 252.452C239.649 258.75 221.475 265.509 203.777 273.67C202.872 274.087 201.967 274.503 201.035 274.932C200.238 275.303 199.441 275.674 198.62 276.056C196.857 276.809 195.238 277.353 193.367 277.742C194.603 274.636 196.756 272.716 199.139 270.481C228.857 241.609 245.208 198.842 250.195 158.408C250.04 159.001 249.885 159.595 249.725 160.206C249.015 162.917 248.297 165.627 247.58 168.336C247.215 169.736 247.215 169.736 246.842 171.165C245.615 175.78 244.358 180.173 242.302 184.487C237.987 183.285 234.486 181.242 230.709 178.906C230.086 178.523 229.462 178.14 228.82 177.746C223.75 174.576 219.142 171.089 214.677 167.101C214.677 169.234 217.935 171.397 219.377 172.854C225.782 179.133 233.243 184.317 240.723 189.229C230.427 220.442 213.922 249.421 192.148 274.043C191.288 275.037 190.456 276.056 189.639 277.086C185.676 281.912 181.65 284.512 176.052 287.176C174.441 287.978 172.832 288.784 171.224 289.593C170.037 290.185 170.037 290.185 168.826 290.79C165.472 292.51 162.222 294.384 158.984 296.313C158.455 296.627 157.925 296.941 157.38 297.264C155.03 298.67 152.733 300.118 150.478 301.672C148.378 303.031 148.378 303.031 146.8 303.031C146.662 302.541 146.525 302.051 146.383 301.546C140.778 281.855 133.483 262.74 124.006 244.574C123.595 243.777 123.595 243.777 123.176 242.964C122.593 241.876 121.978 240.805 121.338 239.75C120.434 238.189 119.691 236.795 119.175 235.066C119.903 232.374 119.903 232.374 121.346 229.929C121.814 229.106 122.282 228.283 122.764 227.435C123.142 226.823 123.521 226.212 123.911 225.582C130.066 226.019 136.04 227.098 142.082 228.328C143.639 228.644 145.198 228.952 146.757 229.259C162.697 232.467 162.697 232.467 164.953 235.856C165.034 236.459 165.116 237.062 165.2 237.684C166.123 241.296 168.185 243.481 171.141 245.58C181.777 251.332 199.692 245.337 210.731 242.178C210.838 241.526 210.945 240.874 211.056 240.203C211.464 237.724 211.873 235.245 212.283 232.767C212.465 231.667 212.646 230.568 212.828 229.469C213.993 222.413 215.211 215.377 216.666 208.375C217.8 200.749 215.935 196.289 211.52 190.019C208.722 186.665 205.78 183.322 201.251 182.683C194.806 182.689 188.551 183.804 182.218 184.882C180.535 185.168 178.852 185.451 177.168 185.728C175.644 185.979 174.121 186.237 172.599 186.495C169.468 186.886 166.525 186.919 163.375 186.858C163.375 187.38 163.375 187.901 163.375 188.439C166.894 188.328 170.412 188.211 173.931 188.093C174.919 188.062 175.907 188.031 176.925 187.999C183.308 187.781 189.597 187.339 195.932 186.531C199.511 186.256 201.926 186.289 205.027 188.223C207.091 190.029 208.91 191.921 210.731 193.971C211.24 194.454 211.748 194.937 212.273 195.434C215.16 198.501 215.827 201.204 216.009 205.381C215.661 214.045 214.731 234.222 208.363 240.598C204.879 241.142 201.363 241.461 197.856 241.833C196.885 241.942 195.914 242.052 194.913 242.165C177.015 244.086 177.015 244.086 171.603 240.16C170.049 238.582 169.689 237.26 169.689 235.066C168.386 234.805 167.084 234.544 165.742 234.276C166.784 233.493 167.826 232.711 168.899 231.905C158.539 223.057 137.538 224.606 124.7 224.792C125.167 222.284 125.741 219.895 126.547 217.476C126.75 216.855 126.954 216.235 127.163 215.595C127.376 214.947 127.589 214.298 127.808 213.629C132.46 199.425 132.46 199.425 130.145 185.058C128.417 181.742 126.919 180.753 123.368 179.548C117.606 178.441 111.597 178.834 105.758 178.955C106.239 179.039 106.72 179.122 107.216 179.208C109.412 179.593 111.605 179.99 113.798 180.388C114.556 180.519 115.313 180.65 116.094 180.784C123.255 182.1 123.255 182.1 126.279 184.487C130.494 192.93 125.863 206.233 123.122 214.518C121.996 217.86 120.825 221.182 119.619 224.496C119.336 225.282 119.053 226.069 118.761 226.879C115.199 236.31 109.812 244.529 100.381 248.847C84.3334 255.373 64.6294 245.826 49.7191 239.808C30.2067 231.355 30.2067 231.355 25.2516 223.212C23.5068 217.681 23.4215 211.969 23.4757 206.22C23.4837 204.98 23.4837 204.98 23.4919 203.714C23.8579 175.789 23.8579 175.789 30.1321 168.169C32.6328 166.078 35.2243 164.449 38.0773 162.903C38.6756 162.575 39.274 162.247 39.8905 161.91C50.5996 156.145 61.5981 150.921 72.608 145.763C73.1077 145.529 73.6073 145.294 74.1221 145.052C94.165 135.67 130.469 119.357 153.114 123.635C154.75 125.017 156.148 126.54 157.6 128.114C170.286 140.903 189.401 149.243 206.785 152.876C206.34 152.693 205.896 152.511 205.438 152.323C196.886 148.791 188.53 145.242 180.646 140.358C178.936 139.302 177.21 138.274 175.485 137.243C163.405 129.927 152.98 122.847 148.921 108.521C148.275 104.875 147.876 101.245 147.589 97.5555C146.857 97.4903 146.124 97.4251 145.369 97.3579C142.853 96.7652 142.853 96.7652 141.423 95.2834C139.781 92.3407 139.608 90.0498 139.647 86.7384C139.654 85.953 139.661 85.1675 139.669 84.3583C139.678 83.7582 139.687 83.1582 139.696 82.54C139.027 82.3281 138.357 82.1162 137.668 81.8979C134.879 80.9312 132.229 79.7905 129.534 78.5885C120.731 74.7835 111.764 72.6422 102.255 75.7237C97.6925 77.8477 95.6903 81.539 93.1291 85.7011C92.0082 87.2914 90.8736 88.8722 89.7254 90.4429C89.2075 91.1601 88.6897 91.8773 88.1561 92.6162C86.8149 94.3943 86.8149 94.3943 85.2364 95.9749C85.155 96.4802 85.0736 96.9855 84.9897 97.5061C84.2016 99.8737 82.6162 100.241 80.5007 101.507C79.2116 102.65 77.946 103.821 76.7024 105.014C71.6686 109.585 67.5227 112.462 60.5315 112.13C50.6768 110.516 42.8488 103.909 35.5121 97.5555C35.9675 95.0514 36.6301 93.7761 38.4503 92.0111C39.0875 91.3846 39.0875 91.3846 39.7375 90.7454C40.1826 90.3196 40.6278 89.8938 41.0864 89.455C41.5346 89.017 41.9827 88.5789 42.4445 88.1276C43.5486 87.0499 44.66 85.9796 45.7727 84.9109C48.6128 86.1718 50.8399 87.9265 53.2708 89.8502C59.4437 94.5882 66.18 99.1361 74.1866 99.1361C76.6183 98.8065 78.9865 98.4185 81.29 97.5555C81.5505 97.0339 81.8109 96.5123 82.0793 95.9749C82.6002 95.9749 83.1211 95.9749 83.6578 95.9749C83.844 95.4482 84.0302 94.9215 84.2221 94.3789C89.5486 82.0098 99.3852 68.88 111.961 63.3755C112.518 63.1799 113.076 62.9843 113.65 62.7827C109.059 57.7144 101.317 55.1256 94.7077 54.0896C90.1753 54.5037 87.268 58.7798 84.4471 61.9925C83.3772 63.5114 82.3245 65.0427 81.29 66.586C78.3908 70.7101 75.8284 72.4679 71.0295 73.8468C70.5004 74.021 69.9713 74.1952 69.4262 74.3747C67.8568 74.8393 66.3299 75.1615 64.7153 75.4274C63.8072 75.5832 63.8072 75.5832 62.8808 75.7423C60.9414 75.9284 59.4936 75.9399 57.6118 75.4274C55.607 73.6441 54.6949 71.5538 53.6654 69.1051C53.3836 68.4622 53.1018 67.8194 52.8114 67.1571C46.9939 51.951 46.6214 33.5699 49.7191 17.7362C51.7593 14.6719 53.1759 14.594 56.6745 13.6366C57.6401 13.3646 58.6056 13.0926 59.6004 12.8124C61.9814 12.2853 63.8827 12.1533 66.2938 12.2042C66.2377 12.7918 66.1816 13.3793 66.1239 13.9847C64.5757 30.7801 64.4088 45.8173 69.4509 61.9925C69.9718 61.9925 70.4928 61.9925 71.0295 61.9925C71.8312 61.1804 72.5984 60.334 73.348 59.4734C81.0515 51.6657 95.3447 48.4484 106.053 48.113C120.984 48.7893 132.58 57.5766 143.643 66.7342C145.611 65.7828 147.338 64.7946 149.168 63.573C150.209 63.573 151.251 63.573 152.325 63.573C152.585 64.877 152.846 66.181 153.114 67.5245C156.546 50.755 158.54 33.9262 155.482 16.9459C156.263 16.9459 157.045 16.9459 157.85 16.9459C154.601 12.6655 151.538 10.2473 146.781 7.74648C146.266 7.39196 145.752 7.03744 145.221 6.67218C145.221 5.88979 145.221 5.10741 145.221 4.30131C146.386 3.9142 147.554 3.53777 148.724 3.16527C149.374 2.95439 150.024 2.74351 150.694 2.52625C166.742 -1.42455 188.436 -0.470527 204.417 3.51102ZM159.428 19.3168C160.217 20.8974 160.217 20.8974 160.217 20.8974L159.428 19.3168ZM188.631 65.9439C185.686 74.7908 188.472 84.7149 192.097 92.9311C194.25 97.164 196.23 100.795 200.47 103.088C204.74 102.284 208.558 100.891 212.507 99.0867C213.034 98.8512 213.562 98.6156 214.105 98.373C215.877 97.5797 217.645 96.7783 219.413 95.9749C221.509 95.0234 223.605 94.0722 225.702 93.1227C227.072 92.5011 228.442 91.877 229.81 91.25C240.66 86.3149 240.66 86.3149 246.248 87.2817C251.661 89.3339 255.876 93.2116 260.153 97.006C260.774 97.4481 261.394 97.8902 262.034 98.3458C262.815 98.085 263.597 97.8242 264.402 97.5555C265.188 95.8779 265.188 95.8779 265.684 93.851C265.873 93.1797 266.063 92.5083 266.258 91.8166C267.341 87.2359 267.663 82.9746 267.608 78.2922C267.604 77.7105 267.601 77.1288 267.597 76.5295C267.588 75.1084 267.574 73.6873 267.559 72.2662C261.317 69.7538 255.185 68.1903 248.567 67.0306C247.633 66.8627 246.699 66.6949 245.737 66.522C238.301 65.2159 230.882 64.1933 223.359 63.573C222.334 63.4854 221.308 63.3978 220.252 63.3075C203.869 61.4644 203.869 61.4644 188.631 65.9439ZM151.535 72.2662C152.325 73.8468 152.325 73.8468 152.325 73.8468L151.535 72.2662ZM264.402 121.264C265.191 122.845 265.191 122.845 265.191 122.845L264.402 121.264ZM263.612 122.845C263.359 123.322 263.105 123.799 262.843 124.29C245.503 156.774 245.503 156.774 236.777 160.779C234.598 161.009 232.665 160.931 230.463 160.779C232.601 162.92 233.759 163.038 236.777 163.15C242.173 161.576 245.693 157.68 249.405 153.666C249.812 153.286 250.219 152.906 250.639 152.515C256.289 146.442 259.419 136.7 262.823 129.167C263.161 128.432 263.499 127.696 263.847 126.938C264.625 125.105 264.625 125.105 263.612 122.845ZM229.674 391.543C230.463 393.124 230.463 393.124 230.463 393.124L229.674 391.543Z" fill="#EFF9FF"/>
<path d="M549.736 212.74C550.314 212.72 550.892 212.7 551.487 212.679C554.722 213.145 556.677 214.609 558.689 217.136C564.809 227.079 569.222 236.595 569.369 248.402C569.38 248.976 569.391 249.55 569.402 250.141C569.371 253.682 568.896 255.972 566.705 258.775C562.841 261.294 560.56 261.322 555.655 261.936C555.134 256.981 554.614 252.026 554.077 246.92C553.556 251.615 553.035 256.309 552.498 261.146C548.064 262.034 548.064 262.034 545.336 261.349C544.748 261.208 544.16 261.067 543.555 260.921C542.634 260.69 542.634 260.69 541.695 260.454C536.613 259.255 531.688 258.187 526.452 257.985C525.757 257.953 525.062 257.921 524.346 257.889C514.475 257.662 505.625 258.532 496.558 262.43C490.312 265.049 484.893 265.406 478.159 265.196C467.678 264.872 458.431 266.429 448.314 269.049C447.053 269.372 447.053 269.372 445.767 269.701C442.46 270.552 439.154 271.407 435.859 272.304C434.789 272.595 434.789 272.595 433.697 272.892C433.07 273.066 432.442 273.239 431.795 273.418C430.161 273.79 430.161 273.79 427.793 273.79C428.102 272.894 428.412 271.997 428.73 271.074C432.358 260.108 435.328 249.523 436.117 237.94C436.185 236.955 436.253 235.969 436.323 234.954C436.373 234.209 436.423 233.463 436.475 232.695C437.314 232.656 438.153 232.616 439.018 232.575C442.171 232.425 445.323 232.267 448.475 232.107C449.832 232.039 451.189 231.973 452.546 231.909C466.608 231.445 466.608 231.445 479.836 227.114C485.752 224.17 490.078 223.527 496.679 224.468C500.083 224.849 502.867 224.542 506.227 223.755C506.794 223.623 507.361 223.491 507.945 223.354C516.294 221.328 524.541 218.853 532.788 216.449C533.38 216.276 533.972 216.104 534.583 215.926C535.703 215.6 536.823 215.272 537.942 214.942C541.871 213.796 545.634 212.827 549.736 212.74Z" fill="#EFF9FF"/>
<path d="M123.127 249.291C123.908 249.552 124.69 249.813 125.495 250.082C126.188 252.567 126.188 252.567 126.284 255.614C124.7 257.465 123.407 258.673 121.499 260.108C120.473 260.931 119.447 261.754 118.422 262.578C117.892 262.994 117.362 263.409 116.816 263.838C114.334 265.814 111.953 267.903 109.561 269.987C105.652 273.353 101.689 276.646 97.685 279.9C95.2704 281.884 92.8952 283.91 90.5199 285.941C86.5223 289.352 82.4346 292.627 78.2894 295.856C73.6762 299.458 69.1903 303.204 64.7205 306.982C69.4917 303.852 74.1479 300.603 78.7301 297.203C79.3694 296.729 80.0087 296.256 80.6674 295.769C87.6362 290.596 94.5321 285.328 101.419 280.047C103.3 278.605 105.182 277.165 107.064 275.726C107.639 275.285 108.215 274.845 108.808 274.391C109.918 273.543 111.028 272.695 112.139 271.848C114.728 269.871 117.3 267.877 119.84 265.838C120.313 265.462 120.786 265.086 121.274 264.698C122.544 263.687 123.807 262.667 125.069 261.646C125.73 261.22 126.392 260.794 127.073 260.355C127.855 260.616 128.636 260.877 129.441 261.146C130.418 263.208 131.236 265.182 132.006 267.32C132.228 267.893 132.45 268.466 132.678 269.056C134.483 273.944 134.483 273.944 133.387 276.951C131.889 278.566 131.889 278.566 129.934 280.261C129.219 280.884 128.504 281.508 127.767 282.15C124.877 284.585 121.947 286.968 119.011 289.346C116.769 291.213 114.617 293.151 112.472 295.128C108.986 298.337 105.398 301.366 101.715 304.343C99.7029 305.985 97.722 307.654 95.7494 309.342C90.4967 313.836 85.1232 318.147 79.6643 322.387C78.0382 323.657 76.4229 324.939 74.8084 326.224C68.6677 331.09 62.4464 335.785 55.9891 340.224C55.3887 340.638 54.7882 341.052 54.1695 341.478C38.0054 352.441 21.8574 350.612 3.03859 347.595C1.57855 347.287 1.57855 347.287 0 346.497C0 345.975 0 345.454 0 344.916C1.66947 343.695 3.33957 342.57 5.08095 341.459C6.17851 340.742 7.27503 340.024 8.37062 339.304C9.23041 338.74 9.23041 338.74 10.1076 338.164C20.4159 331.314 30.328 323.855 40.253 316.466C40.7201 316.118 41.1872 315.771 41.6685 315.413C54.3158 305.993 66.7489 296.291 78.9559 286.306C81.9035 283.899 84.8725 281.527 87.8777 279.193C93.7904 274.601 99.4436 269.752 105.069 264.813C107.522 262.668 109.997 260.549 112.472 258.429C112.907 258.056 113.341 257.683 113.79 257.299C114.628 256.581 115.468 255.865 116.31 255.151C117.243 254.343 118.16 253.516 119.066 252.677C119.552 252.235 120.037 251.793 120.537 251.338C120.976 250.928 121.415 250.519 121.867 250.097C122.491 249.698 122.491 249.698 123.127 249.291ZM62.3527 307.773C61.5713 308.946 61.5713 308.946 60.7741 310.144C61.816 309.622 62.8578 309.1 63.9312 308.563C63.4103 308.302 62.8894 308.041 62.3527 307.773Z" fill="#EFF9FF"/>
<path d="M232.833 76.2183C233.615 76.7399 234.396 77.2615 235.201 77.7989C234.941 80.1461 234.68 82.4932 234.412 84.9115C232.328 83.8683 230.245 82.8251 228.098 81.7504C227.919 82.4838 227.74 83.2173 227.555 83.973C226.519 86.4921 226.519 86.4921 224.743 88.0233C222.017 89.078 220.605 88.9765 217.837 88.0727C215.775 86.2142 215.494 85.2243 215.272 82.4419C215.469 80.1698 215.469 80.1698 216.259 78.5892C212.331 77.3719 208.547 76.6084 204.469 76.1195C203.929 76.0513 203.389 75.983 202.833 75.9127C201.521 75.7473 200.208 75.5871 198.895 75.428C198.895 74.9064 198.895 74.3849 198.895 73.8475C209.307 70.8378 222.832 72.2927 232.833 76.2183ZM219.416 78.5892C219.416 79.8932 219.416 81.1971 219.416 82.5406C220.978 83.323 220.978 83.323 222.573 84.1212C224.183 83.0439 224.183 83.0439 225.73 81.7504C225.73 81.2288 225.73 80.7072 225.73 80.1698C223.436 79.1767 221.944 78.5892 219.416 78.5892Z" fill="#EFF9FF"/>
<path d="M258.191 76.8604C259.154 76.8655 260.116 76.8706 261.108 76.8758C263.617 77.0085 263.617 77.0085 265.985 77.7988C265.985 78.3204 265.985 78.842 265.985 79.3794C263.901 79.6402 261.818 79.901 259.671 80.1697C259.834 80.9032 259.997 81.6367 260.164 82.3924C260.46 84.9114 260.46 84.9114 258.882 87.2823C256.958 87.6775 256.958 87.6775 254.935 87.2823C253.505 85.3066 253.505 85.3066 252.567 83.3309C251.265 83.8525 249.963 84.3741 248.621 84.9114C248.621 82.8251 248.621 80.7387 248.621 78.5891C251.902 77.0091 254.57 76.818 258.191 76.8604ZM256.07 81.3551C255.695 81.7463 255.321 82.1375 254.935 82.5406C256.107 83.323 256.107 83.323 257.303 84.1212C257.564 82.8172 257.824 81.5132 258.092 80.1697C257.113 80.0785 257.113 80.0785 256.07 81.3551Z" fill="#EFF9FF"/>
</svg>
