<svg width="288" height="65" viewBox="0 0 288 65" fill="none" xmlns="http://www.w3.org/2000/svg">
<path d="M25.9204 6.40765C25.9973 6.4261 26.0742 6.44455 26.1535 6.46356C28.6831 7.08506 31.5169 8.31528 33.0159 10.5514C33.5561 11.5245 33.6977 12.7469 33.8172 13.8362C33.8276 13.9303 33.838 14.0244 33.8488 14.1213C33.951 15.2605 33.9185 16.408 33.9101 17.5505C34.0483 17.3887 34.1855 17.226 34.3224 17.063C34.3989 16.9725 34.4754 16.882 34.5543 16.7888C34.7229 16.5607 34.8031 16.4331 34.8391 16.1577C34.6552 16.0044 34.4713 15.8512 34.2817 15.6934C34.3374 15.3817 34.4532 15.194 34.6533 14.9505C35.041 14.9987 35.2344 15.1094 35.5185 15.3742C35.5833 15.4337 35.6481 15.4932 35.7148 15.5544C35.7631 15.6003 35.8114 15.6461 35.8611 15.6934C36.2298 15.5482 36.4571 15.2921 36.7146 15.0027C36.7597 14.9529 36.8047 14.9031 36.8511 14.8518C37.1308 14.54 37.3986 14.2207 37.6611 13.8943C38.0894 13.3622 38.5532 12.8676 39.0202 12.3697C39.4268 11.936 39.8142 11.4872 40.1996 11.0346C40.6599 10.4946 41.1225 9.9586 41.6037 9.43712C41.6862 9.34734 41.7687 9.25757 41.8537 9.16508C42.0004 9.0068 42.148 8.84949 42.2972 8.69354C42.3577 8.62866 42.4181 8.56378 42.4804 8.49694C42.5326 8.44236 42.5849 8.38777 42.6387 8.33154C42.7567 8.17516 42.7567 8.17516 42.7116 7.97897C42.6383 7.78833 42.5537 7.60906 42.4572 7.42908C42.6105 7.24523 42.7638 7.06137 42.9217 6.87194C43.396 7.01397 43.7003 7.30801 44.0598 7.63221C44.1832 7.74143 44.3067 7.85049 44.4303 7.95938C44.4899 8.0119 44.5495 8.06442 44.6109 8.11853C44.9344 8.39871 45.2728 8.65922 45.6159 8.9148C45.5431 9.27336 45.3903 9.47317 45.1514 9.75051C44.9675 9.68923 44.7835 9.62794 44.594 9.5648C44.1685 9.9801 43.7595 10.4028 43.3714 10.8532C42.9713 11.315 42.5576 11.7651 42.148 12.2185C41.8326 12.5681 41.5179 12.918 41.2088 13.2733C40.8693 13.663 40.5204 14.0439 40.172 14.4256C39.9888 14.6278 39.8082 14.8315 39.6295 15.0376C39.3526 15.3563 39.0678 15.6673 38.7817 15.9777C38.419 16.3713 38.0638 16.7695 37.7191 17.1791C38.0257 17.4549 38.3323 17.7307 38.6482 18.0148C38.4149 18.5976 38.4149 18.5976 38.1837 18.7577C37.844 18.7194 37.6642 18.5603 37.4172 18.334C37.3516 18.2745 37.286 18.215 37.2183 18.1537C37.169 18.1079 37.1197 18.062 37.0688 18.0148C36.5479 18.6537 36.5479 18.6537 36.0643 19.3206C35.8611 19.5934 35.8611 19.5934 35.5824 19.6862C38.3644 19.7098 41.1504 19.6553 43.9297 19.5288C46.4315 19.4181 46.4315 19.4181 47.4733 20.2423C47.6598 20.4291 47.6598 20.4291 47.8164 20.7157C48.0067 21.0137 48.0067 21.0137 48.329 21.0509C48.5052 21.0475 48.5052 21.0475 48.685 21.0439C48.7499 21.0434 48.8148 21.0429 48.8817 21.0423C49.0958 21.0399 49.3096 21.0335 49.5237 21.0268C49.673 21.0241 49.8223 21.0215 49.9717 21.0191C50.2827 21.0137 50.5936 21.0065 50.9046 20.998C51.2893 20.9877 51.674 20.9821 52.0589 20.9786C52.35 20.9758 52.6411 20.9712 52.9322 20.9663C53.0696 20.9641 53.207 20.9624 53.3445 20.9612C54.7147 20.947 55.7478 20.5601 56.9399 19.9135C57.9652 19.3941 59.0658 19.4738 60.1843 19.5643C60.2927 19.5725 60.4011 19.5807 60.5128 19.5892C61.9003 19.7008 63.281 19.8786 64.6611 20.0577C64.6917 20.1496 64.7224 20.2415 64.754 20.3362C63.7883 20.2903 63.7883 20.2903 62.803 20.2434C63.4468 20.3353 64.0907 20.4272 64.754 20.5219C64.6611 21.1719 64.6611 21.1719 64.5682 21.2648C64.389 21.2664 64.2097 21.2613 64.0307 21.2536C63.8677 21.2468 63.8677 21.2468 63.7014 21.2399C63.587 21.2347 63.4725 21.2295 63.3546 21.2242C63.2398 21.2193 63.1251 21.2145 63.0068 21.2095C62.7221 21.1974 62.4374 21.1849 62.1527 21.1719C62.2103 21.1794 62.268 21.1869 62.3274 21.1946C62.5886 21.2288 62.8497 21.2642 63.1108 21.2996C63.2015 21.3113 63.2922 21.3231 63.3857 21.3352C63.4728 21.3471 63.5599 21.3591 63.6497 21.3714C63.7701 21.3875 63.7701 21.3875 63.8929 21.4039C64.1037 21.4505 64.1037 21.4505 64.3824 21.6362C64.2935 21.7563 64.2044 21.8762 64.1153 21.996C64.0657 22.0628 64.0161 22.1296 63.965 22.1984C63.7148 22.5211 63.5753 22.5986 63.1746 22.6577C63.0165 22.6715 62.8581 22.6825 62.6996 22.691C61.2339 22.7818 59.745 22.9336 58.3437 23.4005C58.4611 23.3994 58.5786 23.3984 58.6997 23.3972C58.8539 23.3964 59.0081 23.3955 59.1624 23.3947C59.2398 23.3939 59.3172 23.3932 59.397 23.3923C59.5088 23.3919 59.5088 23.3919 59.6229 23.3914C59.6915 23.391 59.7601 23.3905 59.8308 23.39C60.0159 23.4005 60.0159 23.4005 60.2946 23.4934C60.16 23.7815 60.0018 24.0328 59.8127 24.2885C59.736 24.3949 59.736 24.3949 59.6577 24.5036C59.1214 25.0337 58.2922 25.1145 57.583 25.2693C57.4757 25.2938 57.3683 25.3183 57.2577 25.3436C55.2856 25.7797 55.2856 25.7797 54.4301 25.3331C54.3664 25.3033 54.3028 25.2735 54.2372 25.2428C53.9718 25.1185 53.7141 24.988 53.4593 24.8431C52.6745 24.4364 51.8254 24.713 51.0043 24.8862C50.9078 24.9062 50.8113 24.9261 50.7119 24.9466C50.3111 25.0294 49.9104 25.1122 49.5106 25.1994C49.375 25.2288 49.375 25.2288 49.2366 25.2587C49.1564 25.2764 49.0761 25.2941 48.9935 25.3123C48.7746 25.3505 48.7746 25.3505 48.403 25.3505C48.4173 25.2604 48.4315 25.1702 48.4462 25.0774C48.5035 24.6762 48.527 24.2751 48.5482 23.8706C48.5522 23.7982 48.5562 23.7259 48.5603 23.6513C48.5701 23.4749 48.5795 23.2984 48.5888 23.1219C48.5275 23.1219 48.4662 23.1219 48.403 23.1219C48.3973 23.2158 48.3915 23.3096 48.3856 23.4063C48.2172 24.7249 47.597 26.2471 46.5359 27.0825C45.8329 27.5754 45.183 27.8034 44.3316 27.8205C44.2532 27.8231 44.1749 27.8257 44.0941 27.8284C43.8369 27.8367 43.5797 27.8432 43.3224 27.8497C43.1416 27.8552 42.9609 27.8608 42.7801 27.8665C42.3048 27.8814 41.8295 27.8947 41.3541 27.9076C40.7808 27.9235 40.2075 27.941 39.6342 27.9584C39.1872 27.9719 38.7401 27.9852 38.293 27.9975C37.3256 28.0249 36.3622 28.0701 35.3966 28.1362C35.3659 27.6153 35.3353 27.0944 35.3037 26.5577C34.9677 28.0052 34.6467 29.4456 34.4675 30.9219C34.4586 30.9891 34.4496 31.0563 34.4404 31.1255C34.3502 31.8799 34.3644 32.636 34.3688 33.3943C34.3693 33.5332 34.3697 33.6721 34.3701 33.811C34.3711 34.148 34.3727 34.485 34.3746 34.8219C34.4359 34.6994 34.4973 34.5768 34.5604 34.4505C34.5604 34.7569 34.5604 35.0634 34.5604 35.3791C34.4202 35.4396 34.28 35.5002 34.1355 35.5626C33.1571 35.986 32.18 36.4098 31.2159 36.8648C31.7655 36.6863 32.3068 36.4927 32.8472 36.2882C34.5171 35.658 36.2076 35.0944 37.905 34.5434C37.9692 34.5225 38.0334 34.5016 38.0996 34.48C40.7422 33.6205 43.4299 32.7817 46.1733 32.3148C46.1733 32.2229 46.1733 32.1309 46.1733 32.0362C46.2347 32.0362 46.296 32.0362 46.3591 32.0362C46.3591 32.0975 46.3591 32.1588 46.3591 32.2219C46.4644 32.2213 46.4644 32.2213 46.5718 32.2207C47.2334 32.217 47.895 32.2141 48.5566 32.2123C48.8967 32.2113 49.2368 32.21 49.577 32.2079C49.9053 32.2059 50.2335 32.2048 50.5618 32.2043C50.7479 32.2038 50.934 32.2024 51.1201 32.2009C51.2335 32.2009 51.347 32.2009 51.4638 32.2009C51.5637 32.2004 51.6635 32.2 51.7664 32.1996C52.0311 32.2224 52.1801 32.2578 52.3979 32.4076C53.1457 33.8472 52.7385 35.7644 52.2875 37.2536C51.8237 38.6898 51.0563 40.3572 49.7037 41.1362C49.0668 41.4363 48.4434 41.5872 47.7527 41.705C44.3608 42.3376 41.0834 43.5979 37.9091 44.9191C37.7691 44.9771 37.7691 44.9771 37.6262 45.0362C37.5013 45.0928 37.5013 45.0928 37.3738 45.1505C37.1617 45.2219 37.1617 45.2219 36.883 45.1291C36.9523 45.0857 36.9523 45.0857 37.0229 45.0415C38.3386 44.2173 39.6366 43.3753 40.9069 42.4827C40.9753 42.4347 41.0437 42.3867 41.1142 42.3372C41.1776 42.2923 41.2411 42.2474 41.3064 42.2012C41.3628 42.1614 41.4191 42.1216 41.4771 42.0806C41.6348 41.9668 41.6348 41.9668 41.8069 41.7862C39.1495 43.0665 36.6116 44.4841 34.3942 46.4519C33.7098 47.0476 32.961 47.5159 32.1856 47.9844C31.3724 48.4789 30.5685 48.9833 29.7817 49.5191C29.4814 49.7209 29.3343 49.7835 28.9786 49.7825C28.8614 49.7825 28.8614 49.7825 28.7419 49.7825C28.6153 49.7817 28.6153 49.7817 28.4862 49.781C28.3998 49.7809 28.3135 49.7807 28.2245 49.7806C27.9481 49.7801 27.6717 49.7789 27.3953 49.7777C27.2081 49.7773 27.021 49.7769 26.8339 49.7765C26.3745 49.7754 25.9152 49.7738 25.4559 49.7719C25.5525 49.7827 25.649 49.7935 25.7485 49.8046C26.1073 49.8446 26.466 49.885 26.8247 49.9255C26.9799 49.943 27.1351 49.9604 27.2903 49.9777C27.5135 50.0026 27.7367 50.0278 27.96 50.053C28.0292 50.0607 28.0984 50.0683 28.1697 50.0762C28.6744 50.1338 28.6744 50.1338 28.9068 50.2006C29.1571 50.2523 29.3619 50.202 29.6119 50.1535C29.7686 50.1238 29.7686 50.1238 29.9285 50.0934C30.0391 50.0716 30.1497 50.0498 30.2637 50.0273C30.4906 49.9835 30.7175 49.9397 30.9445 49.896C31.1096 49.8638 31.1096 49.8638 31.2782 49.831C31.543 49.7804 31.8079 49.7331 32.0738 49.6885C32.1422 49.6768 32.2106 49.6651 32.2811 49.6531C32.4573 49.6232 32.6335 49.5942 32.8098 49.5652C33.28 49.4374 33.4132 49.1309 33.6546 48.7273C34.1439 47.9534 34.6844 47.3589 35.5824 47.0791C36.6036 46.9237 37.5096 47.2193 38.4624 47.5434C38.6827 47.6177 38.9029 47.6921 39.1233 47.7662C39.262 47.8132 39.4005 47.8609 39.5387 47.9096C40.4458 48.2224 41.3013 48.3196 42.2598 48.3152C42.4238 48.3152 42.4238 48.3152 42.591 48.3151C43.3542 48.3072 44.0901 48.2419 44.8396 48.0986C45.2785 48.0164 45.6373 47.9951 46.0804 48.1005C46.4077 48.4276 46.5297 48.6899 46.5754 49.1502C46.5379 49.5733 46.4165 49.7347 46.1501 50.0621C46.0883 50.1389 46.0883 50.1389 46.0252 50.2172C45.6236 50.7083 45.1928 51.1732 44.7573 51.6342C44.5468 51.8571 44.3453 52.0859 44.1469 52.3197C43.6564 52.8824 43.1152 53.4372 42.3315 53.5052C41.6609 53.5138 41.0663 53.4053 40.4191 53.2367C40.3186 53.2116 40.218 53.1866 40.1144 53.1608C39.6367 53.0414 39.1603 52.9174 38.6841 52.792C37.9024 52.5879 37.1677 52.4142 36.3568 52.385C36.1398 52.3719 36.1398 52.3719 35.954 52.2791C35.7717 52.3535 35.7717 52.3535 35.5824 52.4648C35.4972 52.5101 35.4972 52.5101 35.4103 52.5564C34.6601 52.9659 33.9167 53.3806 33.1959 53.8402C32.3275 54.3928 31.4307 54.8943 30.5309 55.3936C30.3817 55.4765 30.2327 55.5595 30.0839 55.6431C29.392 56.0315 28.6883 56.3726 27.9585 56.684C27.8843 56.7158 27.8102 56.7476 27.7338 56.7804C27.3463 56.9414 26.9915 57.0599 26.5708 57.1077C26.6423 56.9761 26.7139 56.8445 26.7856 56.713C26.8614 56.5731 26.8614 56.5731 26.9387 56.4304C27.0793 56.173 27.224 55.9181 27.3699 55.6636C27.943 54.6557 28.4135 53.6507 28.8004 52.5577C28.7619 52.6345 28.7233 52.7113 28.6836 52.7905C27.9006 54.3184 26.9546 55.7595 25.9381 57.1416C25.8215 57.3017 25.7072 57.4632 25.5935 57.6253C23.8681 60.0797 23.8681 60.0797 23.0666 60.2398C22.3366 60.3258 21.6047 60.258 20.8804 60.1545C20.7928 60.1421 20.7052 60.1297 20.6149 60.1169C19.1751 59.9034 17.774 59.5752 16.3804 59.1563C16.2829 59.1274 16.1853 59.0984 16.0848 59.0686C14.147 58.4659 14.147 58.4659 13.6572 57.6648C13.0325 56.4481 12.8899 55.239 12.8791 53.8925C12.8779 53.7885 12.8766 53.6845 12.8752 53.5774C12.8889 51.1519 14.3029 49.4961 15.794 47.7291C15.8361 47.6791 15.8782 47.6291 15.9216 47.5776C16.5009 46.8917 17.0938 46.2207 17.7036 45.5618C17.9406 45.3041 18.1705 45.0414 18.3993 44.7765C18.5502 44.6067 18.7034 44.4402 18.8587 44.2745C18.9085 44.2212 18.9584 44.168 19.0097 44.1131C19.1088 44.0074 19.2083 43.902 19.3081 43.797C19.5104 43.5812 19.68 43.3943 19.8211 43.1326C20.0579 42.7746 20.3888 42.562 20.7353 42.3143C20.8129 42.2582 20.8905 42.2021 20.9704 42.1442C23.3203 40.4582 25.7813 38.9617 28.3359 37.6077C28.4243 37.5606 28.5127 37.5136 28.6038 37.4651C29.8003 36.8296 31.0078 36.2257 32.2379 35.6576C30.0675 36.3976 27.9284 37.1918 25.8452 38.1507C25.7386 38.1996 25.6321 38.2486 25.5223 38.299C25.4286 38.3426 25.3348 38.3862 25.2382 38.4311C25.0306 38.5195 24.84 38.5835 24.6198 38.6291C24.7653 38.2642 25.0187 38.0386 25.2991 37.776C28.7972 34.3836 30.7218 29.3586 31.3088 24.6077C31.2906 24.6774 31.2723 24.7471 31.2535 24.819C31.1699 25.1375 31.0855 25.4558 31.0011 25.7742C30.9581 25.9387 30.9581 25.9387 30.9142 26.1066C30.7698 26.6489 30.6218 27.165 30.3798 27.6719C29.8719 27.5307 29.4598 27.2906 29.0153 27.0161C28.9419 26.9712 28.8685 26.9262 28.7929 26.8798C28.1961 26.5074 27.6537 26.0977 27.1282 25.6291C27.1282 25.8797 27.5116 26.1338 27.6813 26.305C28.4353 27.0428 29.3135 27.6519 30.194 28.2291C28.982 31.8965 27.0393 35.3015 24.4763 38.1945C24.3751 38.3113 24.2771 38.431 24.181 38.5521C23.7145 39.1191 23.2406 39.4246 22.5817 39.7376C22.3921 39.8319 22.2027 39.9266 22.0134 40.0216C21.8737 40.0912 21.8737 40.0912 21.7312 40.1623C21.3364 40.3643 20.9538 40.5846 20.5727 40.8112C20.5104 40.8481 20.448 40.8849 20.3838 40.9229C20.1072 41.0882 19.8369 41.2583 19.5714 41.4409C19.3243 41.6005 19.3243 41.6005 19.1385 41.6005C19.1223 41.5429 19.1061 41.4854 19.0894 41.426C18.4297 39.1124 17.571 36.8665 16.4556 34.732C16.4072 34.6383 16.4072 34.6383 16.3578 34.5428C16.2892 34.415 16.2168 34.2892 16.1414 34.1652C16.0351 33.9818 15.9475 33.818 15.8869 33.6148C15.9725 33.2985 15.9725 33.2985 16.1424 33.0112C16.1975 32.9145 16.2525 32.8178 16.3093 32.7181C16.3539 32.6463 16.3984 32.5745 16.4443 32.5005C17.1688 32.5518 17.872 32.6786 18.5832 32.8231C18.7665 32.8602 18.9499 32.8964 19.1334 32.9325C21.0097 33.3095 21.0097 33.3095 21.2753 33.7077C21.2849 33.7785 21.2944 33.8494 21.3043 33.9224C21.4129 34.3468 21.6557 34.6036 22.0036 34.8502C23.2555 35.526 25.3643 34.8217 26.6637 34.4505C26.6763 34.3739 26.6889 34.2973 26.7019 34.2184C26.7499 33.9271 26.7981 33.6359 26.8463 33.3446C26.8677 33.2155 26.8891 33.0863 26.9105 32.9571C27.0477 32.1282 27.191 31.3014 27.3622 30.4787C27.4957 29.5826 27.2763 29.0586 26.7566 28.3219C26.4272 27.9278 26.0809 27.535 25.5478 27.4599C24.7892 27.4606 24.0529 27.5916 23.3075 27.7184C23.1094 27.7519 22.9113 27.7852 22.713 27.8177C22.5337 27.8472 22.3544 27.8775 22.1752 27.9079C21.8067 27.9537 21.4603 27.9577 21.0895 27.9505C21.0895 28.0118 21.0895 28.0731 21.0895 28.1362C21.5037 28.1232 21.9179 28.1095 22.332 28.0956C22.4483 28.0919 22.5646 28.0883 22.6844 28.0845C23.4358 28.059 24.1761 28.007 24.9217 27.9121C25.343 27.8798 25.6272 27.8837 25.9923 28.1108C26.2353 28.3231 26.4493 28.5454 26.6637 28.7862C26.7235 28.843 26.7834 28.8997 26.8451 28.9582C27.185 29.3185 27.2635 29.6361 27.285 30.1268C27.244 31.1449 27.1345 33.5156 26.385 34.2648C25.9748 34.3287 25.5609 34.3662 25.1482 34.4099C25.0339 34.4228 24.9196 34.4356 24.8018 34.4489C22.6951 34.6747 22.6951 34.6747 22.0581 34.2133C21.8751 34.0279 21.8327 33.8726 21.8327 33.6148C21.6794 33.5842 21.5261 33.5535 21.3682 33.5219C21.4908 33.43 21.6134 33.3381 21.7398 33.2434C20.5203 32.2037 18.0483 32.3858 16.5372 32.4076C16.5921 32.113 16.6597 31.8323 16.7546 31.548C16.7785 31.4751 16.8025 31.4022 16.8271 31.3271C16.8522 31.2508 16.8772 31.1746 16.903 31.096C17.4506 29.427 17.4506 29.427 17.1781 27.739C16.9747 27.3493 16.7984 27.2332 16.3804 27.0916C15.7021 26.9615 14.9949 27.0077 14.3075 27.0219C14.3642 27.0317 14.4209 27.0415 14.4793 27.0516C14.7377 27.0968 14.9958 27.1435 15.254 27.1902C15.3431 27.2056 15.4323 27.221 15.5242 27.2369C16.3672 27.3914 16.3672 27.3914 16.723 27.6719C17.2192 28.6639 16.6741 30.227 16.3514 31.2005C16.219 31.5932 16.0811 31.9835 15.9391 32.3728C15.9058 32.4652 15.8725 32.5577 15.8381 32.6529C15.4189 33.761 14.7847 34.7267 13.6746 35.234C11.7858 36.0009 9.46646 34.8791 7.7114 34.1719C5.41466 33.1788 5.41466 33.1788 4.8314 32.2219C4.62603 31.5721 4.616 30.9009 4.62237 30.2255C4.62331 30.0797 4.62331 30.0797 4.62428 29.931C4.66736 26.6499 4.66736 26.6499 5.40588 25.7546C5.70023 25.5089 6.00527 25.3174 6.34108 25.1358C6.41151 25.0973 6.48195 25.0588 6.55451 25.0191C7.81505 24.3418 9.10965 23.728 10.4056 23.1219C10.4644 23.0944 10.5232 23.0668 10.5838 23.0384C12.943 21.936 17.2163 20.0193 19.8817 20.5219C20.0743 20.6843 20.2389 20.8632 20.4097 21.0483C21.903 22.5509 24.153 23.5309 26.1991 23.9577C26.1469 23.9362 26.0946 23.9148 26.0407 23.8927C25.034 23.4777 24.0504 23.0607 23.1225 22.4868C22.9211 22.3628 22.718 22.242 22.515 22.1208C21.093 21.2612 19.866 20.4293 19.3882 18.746C19.3121 18.3177 19.2652 17.8912 19.2314 17.4577C19.1452 17.45 19.059 17.4423 18.9701 17.4344C18.674 17.3648 18.674 17.3648 18.5056 17.1907C18.3123 16.8449 18.292 16.5758 18.2966 16.1867C18.2974 16.0944 18.2982 16.0021 18.2991 15.907C18.3002 15.8365 18.3013 15.766 18.3024 15.6934C18.2236 15.6685 18.1448 15.6436 18.0636 15.6179C17.7354 15.5043 17.4235 15.3703 17.1062 15.2291C16.07 14.782 15.0145 14.5304 13.8953 14.8925C13.3582 15.142 13.1225 15.5758 12.8211 16.0648C12.6891 16.2516 12.5556 16.4374 12.4204 16.6219C12.3595 16.7062 12.2985 16.7905 12.2357 16.8773C12.0779 17.0862 12.0779 17.0862 11.892 17.2719C11.8825 17.3313 11.8729 17.3907 11.863 17.4518C11.7702 17.73 11.5836 17.7732 11.3346 17.9219C11.1829 18.0563 11.0339 18.1938 10.8875 18.334C10.295 18.8711 9.80702 19.2091 8.98411 19.1701C7.82414 18.9805 6.90272 18.2042 6.03915 17.4577C6.09274 17.1634 6.17074 17.0136 6.38499 16.8062C6.45999 16.7326 6.45999 16.7326 6.5365 16.6575C6.5889 16.6075 6.64129 16.5574 6.69527 16.5059C6.74803 16.4544 6.80078 16.4029 6.85513 16.3499C6.9851 16.2233 7.11591 16.0975 7.24689 15.9719C7.58119 16.1201 7.84334 16.3263 8.12947 16.5523C8.85607 17.109 9.64897 17.6434 10.5914 17.6434C10.8776 17.6046 11.1564 17.5591 11.4275 17.4577C11.4582 17.3964 11.4888 17.3351 11.5204 17.2719C11.5818 17.2719 11.6431 17.2719 11.7062 17.2719C11.7282 17.2101 11.7501 17.1482 11.7727 17.0844C12.3996 15.6311 13.5575 14.0884 15.0377 13.4416C15.1033 13.4186 15.1689 13.3956 15.2366 13.3719C14.6962 12.7764 13.7849 12.4722 13.0069 12.3505C12.4734 12.3992 12.1312 12.9016 11.7991 13.2791C11.6732 13.4576 11.5493 13.6375 11.4275 13.8188C11.0863 14.3034 10.7847 14.5099 10.2198 14.6719C10.1575 14.6924 10.0952 14.7129 10.0311 14.734C9.84634 14.7886 9.66661 14.8264 9.47656 14.8577C9.36968 14.876 9.36968 14.876 9.26064 14.8947C9.03236 14.9165 8.86193 14.9179 8.64044 14.8577C8.40445 14.6481 8.2971 14.4025 8.17592 14.1148C8.14275 14.0393 8.10957 13.9637 8.0754 13.8859C7.39063 12.0992 7.34679 9.9395 7.7114 8.07908C7.95156 7.71903 8.1183 7.70988 8.53011 7.59739C8.64376 7.56543 8.75741 7.53347 8.87451 7.50054C9.15477 7.4386 9.37857 7.42311 9.66237 7.42908C9.65577 7.49812 9.64917 7.56715 9.64237 7.63828C9.46014 9.61171 9.44049 11.3785 10.034 13.2791C10.0953 13.2791 10.1566 13.2791 10.2198 13.2791C10.3142 13.1837 10.4045 13.0842 10.4927 12.9831C11.3995 12.0657 13.0819 11.6877 14.3424 11.6483C16.0997 11.7277 17.4648 12.7602 18.7669 13.8362C18.9986 13.7244 19.2018 13.6083 19.4172 13.4648C19.5398 13.4648 19.6625 13.4648 19.7888 13.4648C19.8195 13.618 19.8501 13.7712 19.8817 13.9291C20.2857 11.9587 20.5204 9.98136 20.1604 7.98623C20.2524 7.98623 20.3444 7.98623 20.4391 7.98623C20.0567 7.48328 19.6962 7.19915 19.1363 6.90531C19.0757 6.86365 19.0151 6.822 18.9527 6.77908C18.9527 6.68715 18.9527 6.59523 18.9527 6.50051C19.0898 6.45503 19.2273 6.4108 19.365 6.36703C19.4415 6.34225 19.518 6.31747 19.5968 6.29195C21.4859 5.82774 24.0394 5.93983 25.9204 6.40765ZM20.625 8.2648C20.7179 8.45051 20.7179 8.45051 20.7179 8.45051L20.625 8.2648ZM24.0624 13.7434C23.7157 14.7829 24.0437 15.9489 24.4703 16.9143C24.7237 17.4117 24.9568 17.8383 25.4559 18.1077C25.9584 18.0133 26.4079 17.8495 26.8727 17.6376C26.9348 17.6099 26.9969 17.5822 27.0608 17.5537C27.2694 17.4605 27.4775 17.3663 27.6856 17.2719C27.9323 17.1601 28.179 17.0484 28.4258 16.9368C28.5872 16.8638 28.7484 16.7904 28.9094 16.7168C30.1865 16.1369 30.1865 16.1369 30.8443 16.2505C31.4814 16.4916 31.9776 16.9473 32.481 17.3931C32.5541 17.445 32.6271 17.497 32.7024 17.5505C32.7943 17.5199 32.8863 17.4892 32.9811 17.4577C33.0737 17.2605 33.0737 17.2605 33.132 17.0224C33.1543 16.9435 33.1766 16.8646 33.1996 16.7834C33.3271 16.2451 33.365 15.7444 33.3585 15.1943C33.3581 15.1259 33.3577 15.0576 33.3572 14.9871C33.3561 14.8202 33.3545 14.6532 33.3527 14.4862C32.618 14.191 31.8962 14.0073 31.1172 13.871C31.0073 13.8513 30.8974 13.8316 30.7842 13.8113C29.9089 13.6578 29.0356 13.5377 28.1501 13.4648C28.0294 13.4545 27.9087 13.4442 27.7843 13.4336C25.856 13.217 25.856 13.217 24.0624 13.7434ZM19.6959 14.4862C19.7888 14.6719 19.7888 14.6719 19.7888 14.6719L19.6959 14.4862ZM32.9811 20.2434C33.074 20.4291 33.074 20.4291 33.074 20.4291L32.9811 20.2434ZM32.8882 20.4291C32.8583 20.4851 32.8284 20.5412 32.7976 20.5989C30.7565 24.4157 30.7565 24.4157 29.7295 24.8862C29.473 24.9133 29.2454 24.9041 28.9862 24.8862C29.238 25.1378 29.3742 25.1516 29.7295 25.1648C30.3646 24.9799 30.779 24.5221 31.2159 24.0505C31.2638 24.0059 31.3117 23.9612 31.3611 23.9152C32.0261 23.2017 32.3946 22.0571 32.7953 21.1719C32.835 21.0855 32.8748 20.9991 32.9158 20.9101C33.0073 20.6947 33.0073 20.6947 32.8882 20.4291ZM28.8933 52.0005C28.9862 52.1862 28.9862 52.1862 28.9862 52.1862L28.8933 52.0005Z" fill="#FBFDFF"/>
<path d="M100.643 43.2657C102.35 44.7041 103.437 46.61 103.68 48.8429C103.835 52.2222 103.053 55.0286 100.777 57.5831C99.2693 59.2132 97.1758 60.3042 94.9482 60.4708C92.7371 60.5529 90.874 60.1479 89.2109 58.6139C87.7504 57.202 86.787 55.2107 86.7493 53.1658C86.7059 50.1749 87.2841 47.3947 89.3727 45.1286C89.4193 45.0776 89.4659 45.0267 89.5139 44.9741C92.3116 41.9437 97.1267 40.5428 100.643 43.2657ZM92.8102 47.5429C92.7439 47.6069 92.6777 47.671 92.6095 47.737C91.4444 48.9419 91.0094 50.5768 91.025 52.2141C91.1052 53.593 91.6233 54.6779 92.6244 55.6215C93.3493 56.1934 94.1278 56.3644 95.0398 56.2715C96.4273 55.9928 97.4952 55.1682 98.3161 54.0295C99.2615 52.5543 99.6066 50.9517 99.2902 49.2252C99.0182 48.0956 98.4217 47.0962 97.4553 46.4286C95.7755 45.5098 94.0496 46.3081 92.8102 47.5429Z" fill="#FBFDFF"/>
<path d="M80.6694 43.2657C82.3766 44.7041 83.463 46.61 83.7062 48.8429C83.8616 52.2222 83.0793 55.0286 80.803 57.5831C79.2957 59.2132 77.2022 60.3042 74.9746 60.4708C72.7634 60.5529 70.9003 60.1479 69.2373 58.6139C67.7768 57.202 66.8134 55.2107 66.7757 53.1658C66.7322 50.1749 67.3105 47.3947 69.3991 45.1286C69.4457 45.0776 69.4922 45.0267 69.5402 44.9741C72.338 41.9437 77.1531 40.5428 80.6694 43.2657ZM72.8365 47.5429C72.7703 47.6069 72.7041 47.671 72.6358 47.737C71.4707 48.9419 71.0358 50.5768 71.0514 52.2141C71.1316 53.593 71.6497 54.6779 72.6507 55.6215C73.3757 56.1934 74.1541 56.3644 75.0662 56.2715C76.4537 55.9928 77.5216 55.1682 78.3425 54.0295C79.2879 52.5543 79.633 50.9517 79.3165 49.2252C79.0446 48.0956 78.4481 47.0962 77.4817 46.4286C75.8018 45.5098 74.076 46.3081 72.8365 47.5429Z" fill="#FBFDFF"/>
<path d="M211.355 41.8785C211.679 42.1905 211.919 42.5426 212.168 42.9153C212.35 43.1823 212.549 43.4349 212.749 43.6892C212.827 43.7903 212.904 43.8915 212.982 43.9928C213.021 44.0427 213.059 44.0925 213.099 44.1439C213.21 44.2886 213.321 44.4334 213.432 44.5782C213.884 45.1657 214.337 45.7512 214.792 46.3356C215.395 47.1087 215.993 47.8848 216.59 48.6621C216.663 48.7581 216.737 48.8541 216.813 48.953C216.85 49.001 216.887 49.0489 216.925 49.0984C217.163 49.4076 217.402 49.7157 217.642 50.0234C217.73 50.1366 217.73 50.1366 217.82 50.2521C217.937 50.4013 218.053 50.5505 218.17 50.6996C218.223 50.7679 218.277 50.8363 218.331 50.9067C218.379 50.9675 218.427 51.0284 218.476 51.0911C218.585 51.2353 218.687 51.3851 218.787 51.5356C218.99 51.3331 218.961 50.9006 218.997 50.6198C219.014 50.4903 219.014 50.4903 219.032 50.3581C219.056 50.1699 219.081 49.9817 219.105 49.7934C219.144 49.4956 219.183 49.1979 219.222 48.9002C219.335 48.0536 219.446 47.2069 219.556 46.36C219.623 45.8426 219.691 45.3253 219.76 44.8081C219.787 44.6107 219.812 44.4133 219.838 44.2158C219.873 43.9395 219.91 43.6635 219.947 43.3875C219.957 43.3056 219.967 43.2237 219.978 43.1394C220.078 42.41 220.078 42.41 220.367 42.157C220.54 42.1111 220.54 42.1111 220.736 42.1119C220.81 42.1114 220.884 42.1108 220.96 42.1102C221.039 42.1115 221.119 42.1129 221.2 42.1142C221.323 42.1144 221.323 42.1144 221.448 42.1145C221.62 42.1151 221.793 42.1165 221.965 42.1188C222.23 42.1222 222.494 42.1226 222.759 42.1226C222.927 42.1235 223.094 42.1246 223.261 42.1258C223.341 42.1261 223.42 42.1263 223.502 42.1265C224.061 42.1355 224.061 42.1355 224.269 42.3428C224.29 43.2702 224.093 44.2231 223.963 45.1413C223.942 45.2976 223.92 45.4539 223.898 45.6103C223.84 46.0312 223.781 46.4521 223.722 46.8729C223.673 47.2253 223.624 47.5777 223.575 47.9301C223.459 48.7614 223.343 49.5927 223.226 50.4239C223.106 51.28 222.987 52.1361 222.868 52.9923C222.765 53.7295 222.663 54.4666 222.56 55.2037C222.498 55.643 222.437 56.0824 222.376 56.5218C222.318 56.9346 222.261 57.3473 222.203 57.76C222.181 57.9111 222.16 58.0621 222.139 58.2132C222.111 58.4201 222.082 58.627 222.052 58.8338C222.036 58.9493 222.02 59.0648 222.003 59.1839C221.832 60.1927 221.832 60.1927 221.574 60.4499C221.221 60.5293 220.906 60.5292 220.552 60.4499C220.24 60.2103 220.043 59.9107 219.827 59.5852C219.764 59.4967 219.701 59.4083 219.636 59.3171C219.506 59.1344 219.378 58.9508 219.25 58.7663C218.981 58.377 218.698 57.9978 218.416 57.6178C218.309 57.4727 218.203 57.3276 218.096 57.1825C217.744 56.7043 217.383 56.2323 217.022 55.7606C216.498 55.0756 215.981 54.3853 215.472 53.6892C214.986 53.0273 214.488 52.3746 213.987 51.7239C213.493 51.0799 213.493 51.0799 213.275 50.7423C213.142 50.5061 213.142 50.5061 212.934 50.4213C212.93 50.5078 212.926 50.5943 212.921 50.6834C212.865 51.694 212.759 52.6937 212.636 53.6982C212.615 53.8654 212.595 54.0327 212.575 54.1999C212.533 54.5472 212.49 54.8945 212.448 55.2417C212.393 55.6858 212.34 56.13 212.286 56.5742C212.245 56.9182 212.203 57.2622 212.161 57.6061C212.141 57.77 212.121 57.9338 212.101 58.0977C212.074 58.3261 212.046 58.5544 212.017 58.7827C212.009 58.8496 212.002 58.9164 211.993 58.9853C211.874 59.9315 211.874 59.9315 211.634 60.1713C211.352 60.1796 211.073 60.182 210.791 60.1804C210.707 60.1803 210.623 60.1801 210.536 60.18C210.265 60.1795 209.994 60.1783 209.723 60.1771C209.54 60.1767 209.357 60.1762 209.174 60.1759C208.724 60.1748 208.274 60.1732 207.825 60.1713C207.613 59.7632 207.642 59.4345 207.707 58.9945C207.721 58.8879 207.721 58.8879 207.736 58.7792C207.768 58.5414 207.802 58.3038 207.837 58.0662C207.86 57.8957 207.884 57.7252 207.907 57.5546C207.971 57.0915 208.036 56.6287 208.102 56.1658C208.17 55.6817 208.237 55.1974 208.305 54.713C208.418 53.8998 208.532 53.0866 208.647 52.2736C208.779 51.3332 208.911 50.3927 209.041 49.452C209.167 48.5476 209.294 47.6432 209.42 46.7389C209.474 46.3538 209.528 45.9687 209.582 45.5836C209.645 45.1303 209.709 44.677 209.773 44.2239C209.796 44.0574 209.82 43.8909 209.843 43.7244C209.874 43.4973 209.907 43.2704 209.939 43.0435C209.953 42.9443 209.953 42.9443 209.966 42.843C210.013 42.5229 210.06 42.2443 210.24 41.9713C210.614 41.7846 210.955 41.7565 211.355 41.8785Z" fill="#FBFDFF"/>
<path d="M182.09 41.8785C182.414 42.1905 182.654 42.5426 182.903 42.9153C183.085 43.1823 183.285 43.4349 183.484 43.6892C183.562 43.7903 183.64 43.8915 183.718 43.9928C183.756 44.0427 183.794 44.0925 183.834 44.1439C183.945 44.2886 184.056 44.4334 184.168 44.5782C184.619 45.1657 185.073 45.7512 185.528 46.3356C186.13 47.1087 186.728 47.8848 187.325 48.6621C187.399 48.7581 187.472 48.8541 187.548 48.953C187.585 49.001 187.622 49.0489 187.66 49.0984C187.898 49.4076 188.137 49.7157 188.377 50.0234C188.466 50.1366 188.466 50.1366 188.556 50.2521C188.672 50.4013 188.789 50.5505 188.905 50.6996C188.959 50.7679 189.012 50.8363 189.067 50.9067C189.114 50.9675 189.162 51.0284 189.211 51.0911C189.32 51.2353 189.422 51.3851 189.523 51.5356C189.725 51.3331 189.697 50.9006 189.732 50.6198C189.75 50.4903 189.75 50.4903 189.767 50.3581C189.792 50.1699 189.816 49.9817 189.84 49.7934C189.879 49.4956 189.918 49.1979 189.958 48.9002C190.07 48.0536 190.181 47.2069 190.291 46.36C190.359 45.8426 190.427 45.3253 190.496 44.8081C190.522 44.6107 190.548 44.4133 190.573 44.2158C190.608 43.9395 190.645 43.6635 190.682 43.3875C190.692 43.3056 190.703 43.2237 190.713 43.1394C190.814 42.41 190.814 42.41 191.102 42.157C191.275 42.1111 191.275 42.1111 191.472 42.1119C191.546 42.1114 191.619 42.1108 191.695 42.1102C191.775 42.1115 191.854 42.1129 191.936 42.1142C192.058 42.1144 192.058 42.1144 192.183 42.1145C192.355 42.1151 192.528 42.1165 192.7 42.1188C192.965 42.1222 193.23 42.1226 193.494 42.1226C193.662 42.1235 193.829 42.1246 193.997 42.1258C194.076 42.1261 194.156 42.1263 194.238 42.1265C194.797 42.1355 194.797 42.1355 195.004 42.3428C195.026 43.2702 194.828 44.2231 194.699 45.1413C194.677 45.2976 194.655 45.4539 194.634 45.6103C194.575 46.0312 194.516 46.4521 194.457 46.8729C194.408 47.2253 194.359 47.5777 194.31 47.9301C194.194 48.7614 194.078 49.5927 193.962 50.4239C193.842 51.28 193.722 52.1361 193.603 52.9923C193.501 53.7295 193.398 54.4666 193.295 55.2037C193.233 55.643 193.172 56.0824 193.111 56.5218C193.054 56.9346 192.996 57.3473 192.938 57.76C192.917 57.9111 192.896 58.0621 192.875 58.2132C192.846 58.4201 192.817 58.627 192.788 58.8338C192.772 58.9493 192.755 59.0648 192.739 59.1839C192.567 60.1927 192.567 60.1927 192.31 60.4499C191.956 60.5293 191.641 60.5292 191.288 60.4499C190.976 60.2103 190.778 59.9107 190.562 59.5852C190.499 59.4967 190.436 59.4083 190.371 59.3171C190.241 59.1344 190.113 58.9508 189.986 58.7663C189.716 58.377 189.433 57.9978 189.151 57.6178C189.045 57.4727 188.938 57.3276 188.832 57.1825C188.479 56.7043 188.119 56.2323 187.757 55.7606C187.233 55.0756 186.717 54.3853 186.207 53.6892C185.721 53.0273 185.223 52.3746 184.722 51.7239C184.228 51.0799 184.228 51.0799 184.01 50.7423C183.877 50.5061 183.877 50.5061 183.67 50.4213C183.665 50.5078 183.661 50.5943 183.657 50.6834C183.6 51.694 183.494 52.6937 183.371 53.6982C183.351 53.8654 183.331 54.0327 183.31 54.1999C183.268 54.5472 183.226 54.8945 183.183 55.2417C183.129 55.6858 183.075 56.13 183.022 56.5742C182.98 56.9182 182.938 57.2622 182.896 57.6061C182.876 57.77 182.856 57.9338 182.837 58.0977C182.809 58.3261 182.781 58.5544 182.753 58.7827C182.745 58.8496 182.737 58.9164 182.729 58.9853C182.609 59.9315 182.609 59.9315 182.369 60.1713C182.088 60.1796 181.808 60.182 181.527 60.1804C181.442 60.1803 181.358 60.1801 181.271 60.18C181 60.1795 180.729 60.1783 180.459 60.1771C180.276 60.1767 180.093 60.1762 179.909 60.1759C179.46 60.1748 179.01 60.1732 178.56 60.1713C178.349 59.7632 178.377 59.4345 178.442 58.9945C178.457 58.8879 178.457 58.8879 178.471 58.7792C178.504 58.5414 178.538 58.3038 178.572 58.0662C178.595 57.8957 178.619 57.7252 178.642 57.5546C178.706 57.0915 178.771 56.6287 178.837 56.1658C178.905 55.6817 178.973 55.1974 179.04 54.713C179.153 53.8998 179.267 53.0866 179.382 52.2736C179.515 51.3332 179.646 50.3927 179.777 49.452C179.902 48.5476 180.029 47.6432 180.156 46.7389C180.21 46.3538 180.263 45.9687 180.317 45.5836C180.38 45.1303 180.444 44.677 180.508 44.2239C180.532 44.0574 180.555 43.8909 180.578 43.7244C180.61 43.4973 180.642 43.2704 180.674 43.0435C180.688 42.9443 180.688 42.9443 180.702 42.843C180.748 42.5229 180.796 42.2443 180.976 41.9713C181.349 41.7846 181.69 41.7565 182.09 41.8785Z" fill="#FBFDFF"/>
<path d="M137.496 41.8785C137.82 42.1905 138.06 42.5426 138.309 42.9153C138.491 43.1823 138.69 43.4349 138.89 43.6892C138.968 43.7903 139.046 43.8915 139.123 43.9928C139.162 44.0427 139.2 44.0925 139.24 44.1439C139.351 44.2886 139.462 44.4334 139.573 44.5782C140.025 45.1657 140.478 45.7512 140.934 46.3356C141.536 47.1087 142.134 47.8848 142.731 48.6621C142.804 48.7581 142.878 48.8541 142.954 48.953C142.991 49.001 143.028 49.0489 143.066 49.0984C143.304 49.4076 143.543 49.7157 143.783 50.0234C143.871 50.1366 143.871 50.1366 143.961 50.2521C144.078 50.4013 144.194 50.5505 144.311 50.6996C144.364 50.7679 144.418 50.8363 144.473 50.9067C144.52 50.9675 144.568 51.0284 144.617 51.0911C144.726 51.2353 144.828 51.3851 144.928 51.5356C145.131 51.3331 145.102 50.9006 145.138 50.6198C145.155 50.4903 145.155 50.4903 145.173 50.3581C145.197 50.1699 145.222 49.9817 145.246 49.7934C145.285 49.4956 145.324 49.1979 145.364 48.9002C145.476 48.0536 145.587 47.2069 145.697 46.36C145.764 45.8426 145.833 45.3253 145.902 44.8081C145.928 44.6107 145.953 44.4133 145.979 44.2158C146.014 43.9395 146.051 43.6635 146.088 43.3875C146.098 43.3056 146.108 43.2237 146.119 43.1394C146.219 42.41 146.219 42.41 146.508 42.157C146.681 42.1111 146.681 42.1111 146.878 42.1119C146.951 42.1114 147.025 42.1108 147.101 42.1102C147.18 42.1115 147.26 42.1129 147.341 42.1142C147.464 42.1144 147.464 42.1144 147.589 42.1145C147.761 42.1151 147.934 42.1165 148.106 42.1188C148.371 42.1222 148.635 42.1226 148.9 42.1226C149.068 42.1235 149.235 42.1246 149.403 42.1258C149.482 42.1261 149.562 42.1263 149.643 42.1265C150.202 42.1355 150.202 42.1355 150.41 42.3428C150.431 43.2702 150.234 44.2231 150.104 45.1413C150.083 45.2976 150.061 45.4539 150.039 45.6103C149.981 46.0312 149.922 46.4521 149.863 46.8729C149.814 47.2253 149.765 47.5777 149.716 47.9301C149.6 48.7614 149.484 49.5927 149.367 50.4239C149.247 51.28 149.128 52.1361 149.009 52.9923C148.907 53.7295 148.804 54.4666 148.701 55.2037C148.639 55.643 148.578 56.0824 148.517 56.5218C148.459 56.9346 148.402 57.3473 148.344 57.76C148.322 57.9111 148.301 58.0621 148.28 58.2132C148.252 58.4201 148.223 58.627 148.193 58.8338C148.177 58.9493 148.161 59.0648 148.144 59.1839C147.973 60.1927 147.973 60.1927 147.715 60.4499C147.362 60.5293 147.047 60.5292 146.694 60.4499C146.381 60.2103 146.184 59.9107 145.968 59.5852C145.905 59.4967 145.842 59.4083 145.777 59.3171C145.647 59.1344 145.519 58.9508 145.392 58.7663C145.122 58.377 144.839 57.9978 144.557 57.6178C144.45 57.4727 144.344 57.3276 144.237 57.1825C143.885 56.7043 143.524 56.2323 143.163 55.7606C142.639 55.0756 142.122 54.3853 141.613 53.6892C141.127 53.0273 140.629 52.3746 140.128 51.7239C139.634 51.0799 139.634 51.0799 139.416 50.7423C139.283 50.5061 139.283 50.5061 139.075 50.4213C139.071 50.5078 139.067 50.5943 139.062 50.6834C139.006 51.694 138.9 52.6937 138.777 53.6982C138.757 53.8654 138.736 54.0327 138.716 54.1999C138.674 54.5472 138.631 54.8945 138.589 55.2417C138.534 55.6858 138.481 56.13 138.427 56.5742C138.386 56.9182 138.344 57.2622 138.302 57.6061C138.282 57.77 138.262 57.9338 138.242 58.0977C138.215 58.3261 138.187 58.5544 138.158 58.7827C138.151 58.8496 138.143 58.9164 138.135 58.9853C138.015 59.9315 138.015 59.9315 137.775 60.1713C137.493 60.1796 137.214 60.182 136.933 60.1804C136.848 60.1803 136.764 60.1801 136.677 60.18C136.406 60.1795 136.135 60.1783 135.864 60.1771C135.681 60.1767 135.498 60.1762 135.315 60.1759C134.865 60.1748 134.416 60.1732 133.966 60.1713C133.754 59.7632 133.783 59.4345 133.848 58.9945C133.862 58.8879 133.862 58.8879 133.877 58.7792C133.909 58.5414 133.944 58.3038 133.978 58.0662C134.001 57.8957 134.025 57.7252 134.048 57.5546C134.112 57.0915 134.177 56.6287 134.243 56.1658C134.311 55.6817 134.378 55.1974 134.446 54.713C134.559 53.8998 134.673 53.0866 134.788 52.2736C134.92 51.3332 135.052 50.3927 135.183 49.452C135.308 48.5476 135.435 47.6432 135.561 46.7389C135.615 46.3538 135.669 45.9687 135.723 45.5836C135.786 45.1303 135.85 44.677 135.914 44.2239C135.938 44.0574 135.961 43.8909 135.984 43.7244C136.015 43.4973 136.048 43.2704 136.08 43.0435C136.094 42.9443 136.094 42.9443 136.107 42.843C136.154 42.5229 136.201 42.2443 136.381 41.9713C136.755 41.7846 137.096 41.7565 137.496 41.8785Z" fill="#FBFDFF"/>
<path d="M54.2318 42.1092C54.2952 42.1086 54.3585 42.1079 54.4238 42.1073C54.6337 42.1056 54.8434 42.1067 55.0533 42.108C55.2 42.1077 55.3467 42.1074 55.4933 42.1069C55.8015 42.1064 56.1097 42.1071 56.4179 42.1089C56.8097 42.111 57.2014 42.1098 57.5932 42.1076C57.8967 42.1062 58.2002 42.1066 58.5038 42.1076C58.648 42.1078 58.7922 42.1076 58.9364 42.1067C60.4395 42.0996 61.6001 42.4006 62.7156 43.4522C63.5982 44.3913 63.8755 45.4817 63.8537 46.7418C63.7756 47.6481 63.4582 48.4135 62.8956 49.1216C62.8444 49.189 62.7931 49.2564 62.7403 49.3258C62.278 49.8916 61.7271 50.2861 61.1283 50.694C60.8555 50.8712 60.8555 50.8712 60.666 51.0716C60.7322 51.111 60.7984 51.1504 60.8667 51.1909C61.9836 51.8746 62.6979 52.6178 63.0292 53.9269C63.2523 55.3568 62.8968 56.7714 62.0595 57.943C61.1476 59.1589 59.9096 59.8612 58.4363 60.1716C57.8575 60.2452 57.2744 60.2307 56.6922 60.2235C56.5302 60.2231 56.3682 60.2229 56.2062 60.2228C55.8704 60.2222 55.5345 60.2202 55.1987 60.2168C54.7678 60.2126 54.3369 60.2112 53.906 60.2109C53.5732 60.2105 53.2404 60.2091 52.9075 60.2073C52.7485 60.2065 52.5894 60.2058 52.4304 60.2054C52.2096 60.2046 51.9889 60.2025 51.7682 60.2C51.7025 60.2 51.6369 60.1999 51.5693 60.1999C51.1182 60.1929 51.1182 60.1929 50.9111 59.9859C50.9226 59.7321 50.9452 59.4917 50.9786 59.2406C50.9924 59.1283 50.9924 59.1283 51.0065 59.0137C51.0355 58.7804 51.066 58.5474 51.0969 58.3145C51.1058 58.2462 51.1147 58.1779 51.1239 58.1076C51.1859 57.6318 51.2517 57.1567 51.3183 56.6815C51.3398 56.5264 51.3614 56.3712 51.3829 56.216C51.4526 55.7143 51.5228 55.2128 51.593 54.7112C51.6174 54.5373 51.6417 54.3634 51.666 54.1895C51.7671 53.4669 51.8683 52.7443 51.9699 52.0218C52.1149 50.9906 52.2591 49.9592 52.4023 48.9277C52.5034 48.1992 52.6054 47.4709 52.7081 46.7426C52.7692 46.3086 52.83 45.8745 52.8899 45.4404C52.9461 45.0334 53.0032 44.6265 53.0613 44.2198C53.0823 44.0706 53.1031 43.9213 53.1234 43.7719C53.1511 43.5683 53.1802 43.3649 53.2097 43.1614C53.2256 43.0475 53.2416 42.9336 53.258 42.8163C53.4039 42.2049 53.6233 42.1108 54.2318 42.1092ZM56.9498 45.8716C56.8833 46.3144 56.8172 46.7572 56.7514 47.2001C56.7289 47.3507 56.7064 47.5013 56.6838 47.6518C56.6513 47.8685 56.6191 48.0851 56.5869 48.3018C56.5768 48.369 56.5666 48.4361 56.5561 48.5053C56.5114 48.809 56.4853 49.0922 56.4853 49.4002C56.737 49.4077 56.9884 49.4132 57.2402 49.4176C57.3108 49.4199 57.3815 49.4222 57.4543 49.4246C57.9945 49.4316 58.3773 49.3423 58.7919 48.9685C58.8355 48.9156 58.8791 48.8627 58.924 48.8082C58.9909 48.7296 58.9909 48.7296 59.059 48.6493C59.4011 48.1447 59.4649 47.5838 59.4582 46.9859C59.3863 46.6196 59.2683 46.3318 58.9995 46.0631C58.5706 45.8423 58.1429 45.8604 57.6698 45.8658C57.566 45.8664 57.566 45.8664 57.4601 45.8671C57.29 45.8681 57.1199 45.8698 56.9498 45.8716ZM56.0208 52.8359C55.7084 54.6373 55.7084 54.6373 55.5563 56.4573C55.8196 56.4674 56.0825 56.4747 56.346 56.4805C56.4563 56.4852 56.4563 56.4852 56.5688 56.49C57.2051 56.5004 57.6717 56.3395 58.1598 55.927C58.2012 55.876 58.2426 55.825 58.2853 55.7725C58.3282 55.722 58.3711 55.6715 58.4152 55.6194C58.787 55.0207 58.7844 54.3532 58.715 53.6716C58.5013 53.195 58.2653 53.0242 57.786 52.8359C57.4791 52.8036 57.1767 52.8094 56.8686 52.8185C56.746 52.8204 56.746 52.8204 56.6211 52.8223C56.4209 52.8255 56.2209 52.8305 56.0208 52.8359Z" fill="#FBFDFF"/>
<path d="M165.553 42.2496C165.697 42.2985 165.697 42.2985 165.843 42.3483C166.865 42.7306 168.091 43.4665 168.712 44.3853C168.77 44.766 168.74 44.9045 168.509 45.2188C168.417 45.3156 168.322 45.4108 168.227 45.5047C168.152 45.5808 168.152 45.5808 168.075 45.6584C167.969 45.7651 167.863 45.871 167.755 45.9763C167.592 46.1374 167.432 46.3014 167.272 46.4659C167.169 46.5694 167.065 46.6726 166.961 46.7757C166.89 46.8492 166.89 46.8492 166.817 46.9243C166.556 47.1757 166.41 47.2616 166.045 47.304C165.676 47.2557 165.515 47.1435 165.228 46.9099C164.31 46.1982 163.456 46.0643 162.302 46.1496C160.974 46.416 159.911 47.2928 159.172 48.4014C158.25 49.9182 157.9 51.5781 158.3 53.3181C158.586 54.3304 159.102 55.2577 160.031 55.7952C160.168 55.8631 160.305 55.9291 160.444 55.9925C160.53 56.0327 160.616 56.0729 160.705 56.1144C161.551 56.2967 162.327 56.1678 163.138 55.8996C163.143 55.8235 163.149 55.7474 163.155 55.6689C163.163 55.5689 163.17 55.4688 163.178 55.3657C163.186 55.2666 163.194 55.1675 163.201 55.0654C163.225 54.8376 163.26 54.6331 163.324 54.4139C163.217 54.415 163.111 54.4161 163.002 54.4172C162.863 54.418 162.725 54.4189 162.586 54.4197C162.516 54.4205 162.446 54.4213 162.374 54.4221C162.195 54.4229 162.016 54.4188 161.837 54.4139C161.807 54.3833 161.776 54.3526 161.744 54.321C161.749 53.5546 161.859 52.7866 161.965 52.0286C161.976 51.9476 161.986 51.8665 161.997 51.783C162.008 51.7066 162.019 51.6303 162.031 51.5517C162.041 51.4836 162.05 51.4155 162.06 51.3454C162.131 51.115 162.203 51.0327 162.395 50.8853C162.632 50.8512 162.632 50.8512 162.919 50.8522C163.027 50.852 163.135 50.8517 163.245 50.8514C163.42 50.8531 163.42 50.8531 163.597 50.8549C163.716 50.855 163.835 50.8552 163.958 50.8554C164.209 50.8558 164.461 50.8572 164.713 50.8592C165.036 50.8618 165.359 50.8629 165.682 50.8633C165.99 50.8638 166.297 50.8651 166.605 50.8665C166.78 50.8671 166.78 50.8671 166.958 50.8677C167.065 50.8686 167.172 50.8695 167.282 50.8704C167.377 50.871 167.472 50.8716 167.569 50.8723C167.783 50.8853 167.783 50.8853 167.876 50.9782C167.949 51.7586 167.807 52.5444 167.7 53.3152C167.681 53.4497 167.663 53.5842 167.645 53.7188C167.606 53.9991 167.568 54.2793 167.529 54.5595C167.479 54.9172 167.43 55.275 167.382 55.6329C167.345 55.9101 167.306 56.1872 167.268 56.4643C167.25 56.5962 167.232 56.7281 167.214 56.86C167.189 57.0446 167.163 57.2292 167.138 57.4137C167.123 57.5183 167.109 57.623 167.094 57.7308C166.938 58.6071 166.938 58.6071 166.672 58.8544C165.769 59.3419 164.855 59.7038 163.875 60.0027C163.8 60.026 163.724 60.0492 163.646 60.0731C161.65 60.6635 159.476 60.7305 157.587 59.7822C155.65 58.6672 154.349 56.8892 153.761 54.7498C153.096 52.0198 153.489 49.1469 154.869 46.7068C154.945 46.5712 154.945 46.5712 155.023 46.4329C156.26 44.3667 158.259 42.7545 160.598 42.1263C162.233 41.7344 163.96 41.6725 165.553 42.2496Z" fill="#FBFDFF"/>
<path d="M110.285 42.1386C110.411 42.1378 110.411 42.1378 110.539 42.137C110.716 42.1361 110.894 42.1355 111.071 42.1351C111.343 42.1342 111.616 42.1313 111.888 42.1284C112.06 42.1278 112.232 42.1273 112.404 42.127C112.527 42.1252 112.527 42.1252 112.652 42.1235C112.881 42.1243 112.881 42.1243 113.249 42.1574C113.661 42.7749 113.375 43.6945 113.272 44.3896C113.248 44.5623 113.248 44.5623 113.222 44.7384C113.179 45.0427 113.135 45.3468 113.09 45.651C113.028 46.0797 112.966 46.5085 112.904 46.9373C112.871 47.1652 112.838 47.3929 112.805 47.6207C112.79 47.7242 112.775 47.8277 112.76 47.9344C112.747 48.0249 112.733 48.1155 112.72 48.2088C112.69 48.4841 112.687 48.7522 112.692 49.0289C113.417 48.0826 114.141 47.1352 114.846 46.1735C115.775 44.9071 115.775 44.9071 116.223 44.3451C116.484 44.0136 116.721 43.6859 116.93 43.3186C117.555 42.2757 117.555 42.2757 118.135 42.0735C118.803 41.9559 119.469 42.0046 120.141 42.0472C120.345 42.0535 120.548 42.0591 120.751 42.064C121.12 42.0756 121.489 42.0889 121.858 42.1113C121.968 42.1178 121.968 42.1178 122.081 42.1245C122.261 42.1574 122.261 42.1574 122.446 42.3431C122.499 42.7768 122.509 43.0514 122.245 43.4077C122.153 43.5167 122.06 43.6241 121.965 43.7302C121.861 43.8519 121.758 43.9738 121.655 44.0958C121.602 44.1585 121.548 44.2213 121.493 44.2859C121.228 44.6026 120.982 44.9326 120.734 45.2623C120.284 45.8548 119.821 46.4346 119.35 47.0099C118.963 47.4832 118.588 47.9646 118.217 48.4507C118.011 48.7204 117.802 48.9879 117.592 49.2546C117.504 49.3659 117.417 49.4774 117.33 49.5891C117.141 49.8306 116.951 50.067 116.75 50.2984C116.689 50.3697 116.627 50.4411 116.565 50.5146C116.511 50.5739 116.458 50.6333 116.403 50.6945C116.289 50.8887 116.289 50.8887 116.375 51.1212C116.537 51.537 116.732 51.931 116.933 52.3293C116.976 52.415 117.019 52.5007 117.063 52.589C117.154 52.7707 117.245 52.9523 117.337 53.1339C117.473 53.4053 117.609 53.6769 117.745 53.9487C118.276 55.0078 118.82 56.0596 119.375 57.1063C119.6 57.5327 119.823 57.9605 120.043 58.39C120.087 58.4748 120.132 58.5596 120.178 58.647C120.582 59.4429 120.582 59.4429 120.495 59.8931C120.347 60.0887 120.266 60.1633 120.021 60.2052C119.946 60.2046 119.87 60.204 119.793 60.2033C119.707 60.2033 119.622 60.2033 119.534 60.2033C119.442 60.2018 119.35 60.2004 119.255 60.1989C119.16 60.1985 119.066 60.1981 118.968 60.1977C118.666 60.1962 118.365 60.1927 118.063 60.1891C117.858 60.1877 117.653 60.1865 117.449 60.1853C116.947 60.1822 116.445 60.1776 115.943 60.1717C115.483 59.3263 115.047 58.4769 114.648 57.6007C114.545 57.3768 114.442 57.1528 114.339 56.929C114.312 56.8703 114.285 56.8116 114.257 56.7511C113.856 55.8813 113.444 55.0165 113.033 54.1512C112.933 53.9413 112.834 53.7312 112.734 53.5212C112.704 53.4587 112.675 53.3962 112.644 53.3319C112.494 53.0155 112.353 52.6984 112.227 52.3717C112.196 52.3717 112.166 52.3717 112.134 52.3717C112.122 52.4614 112.11 52.5511 112.097 52.6436C111.982 53.4894 111.866 54.3351 111.749 55.1807C111.689 55.6154 111.629 56.0502 111.57 56.4851C111.513 56.9048 111.455 57.3245 111.396 57.744C111.374 57.904 111.352 58.064 111.331 58.2241C111.301 58.4486 111.269 58.6728 111.238 58.897C111.229 58.9631 111.221 59.0291 111.212 59.0972C111.151 59.5166 111.047 59.8656 110.741 60.1717C110.461 60.1823 110.184 60.187 109.905 60.1873C109.821 60.1876 109.737 60.1879 109.65 60.1882C109.472 60.1887 109.294 60.1889 109.116 60.1889C108.843 60.1891 108.57 60.1908 108.297 60.1926C108.125 60.1928 107.952 60.193 107.78 60.1931C107.698 60.1938 107.616 60.1945 107.531 60.1951C106.953 60.193 106.953 60.193 106.746 59.986C106.619 59.1654 106.839 58.2644 106.956 57.4492C106.979 57.2877 107.001 57.1262 107.024 56.9648C107.085 56.5287 107.147 56.0926 107.209 55.6567C107.274 55.1997 107.338 54.7427 107.402 54.2857C107.51 53.5189 107.619 52.7523 107.728 51.9857C107.854 51.0993 107.979 50.2128 108.103 49.3263C108.211 48.5643 108.318 47.8025 108.426 47.0406C108.491 46.5859 108.555 46.1312 108.619 45.6764C108.679 45.2494 108.739 44.8224 108.8 44.3955C108.823 44.2388 108.845 44.082 108.867 43.9252C108.896 43.7114 108.927 43.4977 108.958 43.2841C108.975 43.1644 108.992 43.0448 109.009 42.9215C109.061 42.6593 109.109 42.4729 109.254 42.2503C109.572 42.0915 109.935 42.1403 110.285 42.1386ZM112.506 49.1217C112.599 49.3074 112.599 49.3074 112.599 49.3074L112.506 49.1217Z" fill="#FBFDFF"/>
<path d="M247.68 41.8785C247.865 42.2945 248.018 42.6984 248.139 43.1386C248.155 43.1966 248.172 43.2545 248.188 43.3142C248.242 43.507 248.295 43.7 248.348 43.893C248.386 44.033 248.425 44.173 248.464 44.313C248.548 44.6153 248.632 44.9176 248.715 45.22C248.848 45.7026 248.982 46.1849 249.116 46.6672C249.162 46.8347 249.208 47.0022 249.255 47.1697C249.278 47.2541 249.302 47.3385 249.326 47.4254C249.398 47.6873 249.471 47.9492 249.544 48.2111C249.915 49.5532 250.29 50.8946 250.665 52.2357C250.692 52.3337 250.72 52.4318 250.748 52.5328C250.912 53.1182 251.076 53.7036 251.24 54.2889C251.447 55.0306 251.655 55.7723 251.863 56.514C251.953 56.8379 252.044 57.1617 252.135 57.4855C252.175 57.6308 252.216 57.7761 252.256 57.9215C252.339 58.221 252.424 58.5196 252.513 58.8174C252.539 58.9073 252.566 58.9972 252.593 59.0898C252.627 59.2005 252.627 59.2005 252.661 59.3134C252.704 59.5649 252.676 59.742 252.603 59.9856C252.319 60.2704 251.982 60.2034 251.6 60.2058C251.518 60.2066 251.437 60.2075 251.353 60.2083C251.181 60.2097 251.009 60.2105 250.836 60.2108C250.573 60.2119 250.31 60.2165 250.046 60.2212C249.879 60.2221 249.711 60.2227 249.544 60.2232C249.465 60.225 249.387 60.2268 249.305 60.2287C249.232 60.2281 249.158 60.2276 249.082 60.227C248.985 60.2277 248.985 60.2277 248.886 60.2284C248.702 60.1713 248.702 60.1713 248.33 59.707C248.177 59.0329 248.023 58.3588 247.865 57.6642C246.026 57.6642 244.186 57.6642 242.291 57.6642C241.923 58.3996 241.555 59.135 241.176 59.8927C240.758 60.2061 240.758 60.2061 240.413 60.2029C240.337 60.2029 240.26 60.2029 240.182 60.2029C240.1 60.2014 240.019 60.2 239.935 60.1985C239.851 60.1981 239.767 60.1977 239.681 60.1973C239.413 60.1958 239.145 60.1923 238.877 60.1887C238.695 60.1873 238.513 60.1861 238.332 60.1849C237.886 60.1819 237.441 60.177 236.996 60.1713C236.797 59.7448 236.797 59.7448 236.915 59.4053C236.975 59.2882 237.037 59.1722 237.1 59.057C237.134 58.9927 237.168 58.9283 237.203 58.862C237.573 58.1653 237.969 57.4822 238.364 56.7991C238.685 56.243 238.999 55.6829 239.312 55.1222C239.731 54.3744 240.15 53.6275 240.572 52.882C240.993 52.1403 241.41 51.3974 241.827 50.6535C242.292 49.8214 242.76 48.9908 243.23 48.1614C243.489 47.7036 243.748 47.2452 244.004 46.7857C244.608 45.7022 245.22 44.6243 245.849 43.5548C245.899 43.4689 245.95 43.383 246.002 43.2945C246.074 43.1721 246.074 43.1721 246.147 43.0472C246.322 42.7441 246.488 42.4366 246.652 42.1273C246.882 41.763 247.296 41.8723 247.68 41.8785ZM246.1 49.957C245.579 50.9257 245.077 51.9012 244.602 52.8936C244.557 52.9877 244.512 53.0818 244.466 53.1788C244.254 53.5494 244.254 53.5494 244.149 53.9499C245.038 53.9499 245.927 53.9499 246.843 53.9499C246.788 53.3358 246.734 52.7758 246.62 52.1787C246.607 52.1142 246.595 52.0497 246.582 51.9832C246.544 51.7817 246.505 51.5803 246.466 51.3789C246.44 51.2404 246.413 51.1019 246.387 50.9634C246.323 50.6279 246.258 50.2924 246.193 49.957C246.162 49.957 246.132 49.957 246.1 49.957Z" fill="#FBFDFF"/>
<path d="M267.639 43.6533C267.901 43.881 267.927 43.9641 267.971 44.3105C267.92 44.7801 267.733 44.969 267.416 45.3022C267.314 45.4154 267.211 45.5287 267.109 45.6421C267.059 45.6967 267.009 45.7513 266.958 45.8075C266.718 46.0765 266.504 46.3644 266.289 46.6534C266.11 46.8697 265.988 46.8914 265.709 46.9388C265.257 46.9342 264.953 46.662 264.59 46.4179C263.787 45.9155 262.936 45.6317 261.987 45.7781C261.595 45.8969 261.33 46.0525 261.058 46.3585C260.907 46.7732 260.888 47.1213 261.024 47.5369C261.451 48.3677 262.456 48.8585 263.225 49.3387C264.835 50.3483 266.165 51.5878 266.711 53.4784C266.957 54.6759 266.792 55.8841 266.354 57.0138C266.323 57.0937 266.293 57.1735 266.262 57.2558C265.718 58.4986 264.586 59.4493 263.363 59.9762C261.47 60.7164 259.149 60.7316 257.274 59.9348C256.487 59.5779 255.458 59.0628 255.112 58.221C255.185 57.5602 255.622 57.0513 255.995 56.5205C256.059 56.4276 256.123 56.3346 256.189 56.2389C256.659 55.5606 256.659 55.5606 256.877 55.3424C257.321 55.2701 257.565 55.3426 257.923 55.5919C257.993 55.6425 258.063 55.693 258.135 55.745C259.044 56.3578 259.973 56.555 261.058 56.4567C261.472 56.2609 261.744 56.0085 261.987 55.621C262.149 55.0603 262.036 54.6491 261.801 54.1352C261.444 53.5471 260.995 53.1712 260.431 52.7888C260.281 52.6838 260.132 52.5786 259.982 52.4732C259.911 52.4235 259.84 52.3737 259.766 52.3224C258.367 51.336 257.03 50.1174 256.636 48.3817C256.42 46.7347 256.737 45.1993 257.72 43.8408C258.199 43.2753 258.738 42.8823 259.386 42.5281C259.452 42.491 259.519 42.4539 259.588 42.4157C262.239 41.0906 265.42 41.9396 267.639 43.6533Z" fill="#FBFDFF"/>
<path d="M232.636 42.111C232.712 42.1102 232.788 42.1093 232.865 42.1084C232.947 42.1094 233.028 42.1105 233.112 42.1116C233.196 42.1114 233.279 42.1113 233.366 42.1112C233.542 42.1113 233.719 42.1124 233.896 42.1143C234.168 42.117 234.439 42.1162 234.71 42.115C234.882 42.1156 235.054 42.1164 235.225 42.1174C235.348 42.117 235.348 42.117 235.472 42.1165C235.701 42.1201 235.701 42.1201 236.067 42.1576C236.302 42.5099 236.247 42.7323 236.193 43.1307C236.18 43.24 236.18 43.24 236.166 43.3516C236.134 43.6038 236.101 43.8557 236.067 44.1076C236.055 44.1995 236.043 44.2913 236.03 44.386C235.93 45.1399 235.825 45.8931 235.72 46.6463C235.703 46.7655 235.686 46.8847 235.669 47.0075C235.599 47.5091 235.529 48.0106 235.458 48.512C235.358 49.2217 235.259 49.9314 235.161 50.6413C235.091 51.1459 235.02 51.6503 234.949 52.1547C234.906 52.4535 234.865 52.7524 234.824 53.0514C234.186 57.6818 234.186 57.6818 232.537 59.2433C232.473 59.3044 232.409 59.3654 232.343 59.4283C231.109 60.495 229.439 60.5542 227.891 60.4505C226.823 60.2682 226.018 59.6379 225.383 58.7791C225.239 58.4903 225.262 58.2619 225.29 57.9433C225.455 57.7005 225.455 57.7005 225.684 57.4769C225.766 57.3956 225.848 57.3143 225.933 57.2306C226.063 57.1065 226.063 57.1065 226.196 56.9799C226.281 56.8951 226.367 56.8102 226.455 56.7228C227.172 56.0237 227.172 56.0237 227.52 55.9933C227.71 56.1061 227.71 56.1061 227.909 56.2661C228.278 56.5247 228.541 56.6398 228.994 56.6034C229.436 56.4855 229.716 56.2111 229.943 55.82C230.292 55.0109 230.375 54.1481 230.493 53.2831C230.519 53.0966 230.546 52.9101 230.572 52.7237C230.731 51.5992 230.883 50.4738 231.034 49.3483C231.133 48.6145 231.232 47.8808 231.332 47.1471C231.408 46.5917 231.482 46.0362 231.555 45.4805C231.602 45.129 231.649 44.7776 231.697 44.4262C231.72 44.2604 231.742 44.0946 231.763 43.9287C231.793 43.6997 231.824 43.4709 231.856 43.2421C231.864 43.1749 231.872 43.1077 231.881 43.0384C231.954 42.5221 232.055 42.1112 232.636 42.111Z" fill="#FBFDFF"/>
<path d="M200.941 42.1123C201.042 42.1135 201.042 42.1135 201.145 42.1148C201.259 42.1148 201.259 42.1148 201.376 42.1149C201.499 42.1178 201.499 42.1178 201.624 42.1207C201.708 42.1212 201.792 42.1217 201.879 42.1223C202.148 42.1244 202.416 42.129 202.685 42.1338C202.868 42.1356 203.05 42.1373 203.232 42.1388C203.679 42.1429 204.126 42.1493 204.572 42.157C204.805 42.6218 204.648 43.3052 204.578 43.7992C204.569 43.867 204.56 43.9348 204.55 44.0047C204.519 44.2298 204.487 44.4548 204.455 44.6798C204.432 44.842 204.41 45.0042 204.387 45.1664C204.326 45.6054 204.264 46.0443 204.202 46.4832C204.151 46.8498 204.099 47.2166 204.048 47.5833C203.927 48.4482 203.805 49.313 203.683 50.1778C203.557 51.0699 203.432 51.9621 203.308 52.8543C203.201 53.6209 203.093 54.3874 202.985 55.1539C202.921 55.6115 202.856 56.0691 202.793 56.5267C202.732 56.9567 202.672 57.3867 202.611 57.8165C202.589 57.9743 202.566 58.1321 202.545 58.2899C202.515 58.5053 202.484 58.7205 202.453 58.9358C202.436 59.0563 202.419 59.1768 202.402 59.3009C202.278 59.9575 202.278 59.9575 202.064 60.1713C201.785 60.183 201.508 60.1888 201.228 60.1901C201.144 60.1906 201.06 60.1912 200.974 60.1917C200.796 60.1926 200.618 60.1932 200.44 60.1936C200.167 60.1945 199.894 60.1973 199.621 60.2003C199.448 60.2009 199.276 60.2014 199.103 60.2017C198.98 60.2034 198.98 60.2034 198.854 60.2052C198.624 60.2044 198.624 60.2044 198.255 60.1713C198.053 59.868 198.049 59.8384 198.095 59.5016C198.106 59.4202 198.116 59.3388 198.127 59.255C198.14 59.1645 198.153 59.074 198.167 58.9807C198.18 58.8833 198.193 58.7859 198.206 58.6856C198.252 58.345 198.3 58.0046 198.348 57.6641C198.384 57.4031 198.419 57.1421 198.455 56.881C198.579 55.9699 198.706 55.0592 198.833 54.1486C198.844 54.0668 198.856 53.9849 198.867 53.9006C198.975 53.127 199.084 52.3535 199.192 51.58C199.33 50.5973 199.467 49.6146 199.603 48.6317C199.7 47.9359 199.797 47.2403 199.895 46.5447C199.953 46.1308 200.011 45.7168 200.068 45.3026C200.121 44.915 200.176 44.5275 200.231 44.1401C200.251 43.9981 200.271 43.856 200.29 43.7138C200.316 43.5199 200.344 43.3263 200.372 43.1327C200.387 43.0243 200.402 42.9159 200.418 42.8043C200.497 42.4766 200.593 42.1997 200.941 42.1123Z" fill="#FBFDFF"/>
<path d="M126.991 42.1123C127.091 42.1135 127.091 42.1135 127.194 42.1148C127.308 42.1148 127.308 42.1148 127.425 42.1149C127.548 42.1178 127.548 42.1178 127.673 42.1207C127.757 42.1212 127.841 42.1217 127.928 42.1223C128.197 42.1244 128.466 42.129 128.735 42.1338C128.917 42.1356 129.099 42.1373 129.281 42.1388C129.728 42.1429 130.175 42.1493 130.622 42.157C130.854 42.6218 130.697 43.3052 130.628 43.7992C130.618 43.867 130.609 43.9348 130.599 44.0047C130.568 44.2298 130.536 44.4548 130.504 44.6798C130.482 44.842 130.459 45.0042 130.437 45.1664C130.375 45.6054 130.314 46.0443 130.252 46.4832C130.2 46.8498 130.149 47.2166 130.097 47.5833C129.976 48.4482 129.855 49.313 129.733 50.1778C129.607 51.0699 129.482 51.9621 129.357 52.8543C129.25 53.6209 129.142 54.3874 129.034 55.1539C128.97 55.6115 128.906 56.0691 128.842 56.5267C128.782 56.9567 128.721 57.3867 128.66 57.8165C128.638 57.9743 128.616 58.1321 128.594 58.2899C128.564 58.5053 128.533 58.7205 128.503 58.9358C128.486 59.0563 128.469 59.1768 128.451 59.3009C128.327 59.9575 128.327 59.9575 128.113 60.1713C127.834 60.183 127.557 60.1888 127.278 60.1901C127.194 60.1906 127.11 60.1912 127.023 60.1917C126.845 60.1926 126.667 60.1932 126.489 60.1936C126.216 60.1945 125.943 60.1973 125.67 60.2003C125.498 60.2009 125.325 60.2014 125.152 60.2017C125.029 60.2034 125.029 60.2034 124.904 60.2052C124.674 60.2044 124.674 60.2044 124.304 60.1713C124.102 59.868 124.098 59.8384 124.144 59.5016C124.155 59.4202 124.166 59.3388 124.177 59.255C124.19 59.1645 124.203 59.074 124.216 58.9807C124.229 58.8833 124.242 58.7859 124.256 58.6856C124.302 58.345 124.35 58.0046 124.397 57.6641C124.433 57.4031 124.468 57.1421 124.504 56.881C124.628 55.9699 124.755 55.0592 124.882 54.1486C124.893 54.0668 124.905 53.9849 124.917 53.9006C125.025 53.127 125.133 52.3535 125.241 51.58C125.379 50.5973 125.516 49.6146 125.653 48.6317C125.749 47.9359 125.846 47.2403 125.944 46.5447C126.002 46.1308 126.06 45.7168 126.117 45.3026C126.171 44.915 126.225 44.5275 126.28 44.1401C126.3 43.9981 126.32 43.856 126.339 43.7138C126.366 43.5199 126.393 43.3263 126.421 43.1327C126.436 43.0243 126.451 42.9159 126.467 42.8043C126.547 42.4766 126.642 42.1997 126.991 42.1123Z" fill="#FBFDFF"/>
<path d="M66.5645 30.9916C66.6325 30.9892 66.7005 30.9868 66.7706 30.9844C67.1514 31.0391 67.3815 31.2112 67.6184 31.5081C68.3387 32.6764 68.8581 33.7945 68.8755 35.1818C68.8767 35.2492 68.878 35.3166 68.8794 35.3861C68.8757 35.8022 68.8197 36.0712 68.5619 36.4006C68.1071 36.6966 67.8386 36.6999 67.2613 36.772C67.1999 36.1898 67.1386 35.6076 67.0755 35.0077C67.0141 35.5593 66.9528 36.1108 66.8896 36.6791C66.3677 36.7835 66.3677 36.7835 66.0466 36.7031C65.9774 36.6865 65.9082 36.6699 65.8369 36.6527C65.7286 36.6256 65.7286 36.6256 65.618 36.5979C65.0198 36.457 64.4401 36.3315 63.8238 36.3077C63.742 36.304 63.6603 36.3003 63.576 36.2965C62.414 36.2698 61.3723 36.372 60.3051 36.83C59.5699 37.1378 58.932 37.1797 58.1393 37.155C56.9056 37.117 55.8173 37.2999 54.6264 37.6077C54.478 37.6457 54.478 37.6457 54.3266 37.6844C53.9373 37.7844 53.5482 37.8848 53.1604 37.9902C53.0344 38.0244 53.0344 38.0244 52.9059 38.0593C52.832 38.0797 52.7582 38.1001 52.6821 38.1211C52.4896 38.1648 52.4896 38.1648 52.2109 38.1648C52.2473 38.0595 52.2838 37.9542 52.3213 37.8456C52.7482 36.5572 53.0978 35.3135 53.1908 33.9525C53.1988 33.8368 53.2068 33.721 53.215 33.6017C53.2209 33.5141 53.2268 33.4265 53.2329 33.3363C53.3317 33.3316 53.4304 33.327 53.5322 33.3222C53.9033 33.3045 54.2743 33.2859 54.6454 33.2671C54.8051 33.2591 54.9648 33.2514 55.1246 33.2439C56.7797 33.1894 56.7797 33.1894 58.3367 32.6805C59.0332 32.3346 59.5424 32.259 60.3193 32.3696C60.72 32.4143 61.0477 32.3783 61.4432 32.2858C61.5099 32.2703 61.5767 32.2547 61.6454 32.2387C62.6281 32.0006 63.5989 31.7098 64.5696 31.4273C64.6393 31.4071 64.709 31.3868 64.7809 31.366C64.9127 31.3276 65.0445 31.2891 65.1762 31.2503C65.6387 31.1156 66.0816 31.0018 66.5645 30.9916Z" fill="#FBFDFF"/>
<path d="M276.201 28.6006C276.362 28.6667 276.362 28.6667 276.526 28.7341C278.271 29.5298 279.459 30.8975 280.133 32.686C280.691 34.341 280.511 36.2467 279.766 37.7993C278.887 39.5238 277.504 40.5351 275.747 41.2444C274.097 41.759 272.135 41.4852 270.622 40.7146C268.979 39.8221 267.853 38.3655 267.317 36.5793C266.858 34.7657 267.182 32.889 268.099 31.2891C269.011 29.8121 270.436 28.806 272.101 28.3337C273.437 28.0627 274.932 28.0787 276.201 28.6006ZM270.052 31.16C268.983 32.2891 268.586 33.6572 268.582 35.1768C268.648 36.505 269.348 37.823 270.308 38.73C271.495 39.665 272.769 40.0987 274.284 40.0021C275.406 39.8609 276.344 39.4256 277.223 38.722C277.31 38.6526 277.31 38.6526 277.399 38.5817C278.295 37.7786 278.849 36.5236 278.964 35.3444C279.048 33.7774 278.6 32.5091 277.619 31.2768C276.688 30.2554 275.353 29.701 273.995 29.6286C272.493 29.5962 271.165 30.1468 270.052 31.16Z" fill="#FBFDFF"/>
<path d="M16.3503 35.2852C16.4423 35.3158 16.5343 35.3464 16.629 35.378C16.7107 35.67 16.7107 35.67 16.7219 36.028C16.5355 36.2455 16.3833 36.3875 16.1587 36.5561C16.0379 36.6528 15.9172 36.7495 15.7965 36.8463C15.7342 36.8952 15.6718 36.944 15.6075 36.9943C15.3153 37.2265 15.0351 37.472 14.7535 37.7169C14.2934 38.1124 13.827 38.4993 13.3556 38.8816C13.0714 39.1147 12.7918 39.3528 12.5123 39.5914C12.0417 39.9922 11.5606 40.377 11.0726 40.7564C10.5296 41.1796 10.0016 41.6197 9.47548 42.0637C10.0371 41.6959 10.5852 41.3142 11.1245 40.9146C11.1998 40.859 11.275 40.8034 11.3526 40.7462C12.1728 40.1384 12.9845 39.5193 13.7952 38.8988C14.0165 38.7294 14.238 38.5603 14.4596 38.3912C14.5273 38.3394 14.5951 38.2877 14.6649 38.2343C14.7955 38.1346 14.9262 38.035 15.057 37.9355C15.3618 37.7032 15.6644 37.469 15.9635 37.2294C16.0192 37.1852 16.0748 37.141 16.1322 37.0955C16.2817 36.9766 16.4304 36.8567 16.579 36.7368C16.6568 36.6867 16.7346 36.6367 16.8148 36.5852C16.9068 36.6158 16.9988 36.6464 17.0935 36.678C17.2086 36.9203 17.3049 37.1523 17.3955 37.4035C17.4216 37.4708 17.4477 37.5381 17.4746 37.6075C17.687 38.1818 17.687 38.1818 17.5581 38.5352C17.3817 38.7249 17.3817 38.7249 17.1516 38.924C17.0674 38.9973 16.9832 39.0705 16.8965 39.146C16.5563 39.432 16.2115 39.7121 15.8658 39.9915C15.602 40.2109 15.3487 40.4386 15.0961 40.6709C14.6858 41.0479 14.2636 41.4038 13.83 41.7536C13.5932 41.9465 13.36 42.1426 13.1278 42.341C12.5095 42.869 11.877 43.3755 11.2345 43.8737C11.0431 44.0229 10.8529 44.1736 10.6629 44.3246C9.9401 44.8964 9.20781 45.448 8.44774 45.9695C8.37706 46.0182 8.30638 46.0668 8.23356 46.1169C6.33092 47.405 4.43019 47.1901 2.21509 46.8356C2.04323 46.7994 2.04323 46.7994 1.85742 46.7066C1.85742 46.6453 1.85742 46.584 1.85742 46.5209C2.05393 46.3774 2.25051 46.2451 2.45549 46.1146C2.58468 46.0304 2.71374 45.946 2.8427 45.8614C2.94391 45.7951 2.94391 45.7951 3.04715 45.7275C4.26051 44.9226 5.42724 44.0462 6.59549 43.178C6.65047 43.1372 6.70545 43.0963 6.7621 43.0543C8.25078 41.9474 9.71424 40.8075 11.1511 39.6343C11.498 39.3515 11.8475 39.0727 12.2013 38.7985C12.8972 38.2589 13.5626 37.6892 14.2248 37.1089C14.5136 36.8569 14.8048 36.6079 15.0961 36.3588C15.1473 36.315 15.1985 36.2712 15.2513 36.2261C15.3499 36.1417 15.4488 36.0575 15.5479 35.9737C15.6578 35.8787 15.7657 35.7816 15.8724 35.683C15.9295 35.6311 15.9866 35.5791 16.0455 35.5256C16.0972 35.4775 16.1488 35.4294 16.2021 35.3798C16.2755 35.333 16.2755 35.333 16.3503 35.2852ZM9.19677 42.1566C9.1048 42.2945 9.1048 42.2945 9.01097 42.4352C9.1336 42.3739 9.25623 42.3126 9.38258 42.2494C9.32127 42.2188 9.25995 42.1882 9.19677 42.1566Z" fill="#FBFDFF"/>
<path d="M271.371 31.1075C272.198 31.096 272.198 31.096 273.043 31.0842C273.216 31.0809 273.388 31.0775 273.566 31.074C273.705 31.0729 273.844 31.072 273.984 31.0712C274.089 31.0683 274.089 31.0683 274.197 31.0654C274.802 31.065 275.272 31.2478 275.739 31.6345C276.192 32.183 276.358 32.7105 276.294 33.4289C276.143 34.0077 275.903 34.4575 275.4 34.8043C275.18 34.9146 275.18 34.9146 274.994 34.9146C275.108 35.1449 275.222 35.3751 275.336 35.6052C275.37 35.6731 275.404 35.741 275.439 35.811C275.653 36.2399 275.877 36.6593 276.126 37.0692C276.202 37.236 276.202 37.236 276.202 37.6075C275.742 37.6075 275.282 37.6075 274.808 37.6075C274.733 37.4343 274.657 37.2611 274.58 37.0826C274.503 36.9153 274.426 36.748 274.348 36.5811C274.295 36.4653 274.243 36.3488 274.193 36.2317C274.121 36.0629 274.043 35.8966 273.964 35.7304C273.919 35.6297 273.874 35.5291 273.827 35.4253C273.535 35.0758 273.535 35.0758 272.578 35.1003C272.578 35.9277 272.578 36.755 272.578 37.6075C272.18 37.6075 271.781 37.6075 271.371 37.6075C271.371 35.4625 271.371 33.3175 271.371 31.1075ZM272.671 32.2217C272.671 32.8346 272.671 33.4475 272.671 34.0789C273.022 34.0875 273.022 34.0875 273.38 34.0963C273.452 34.0988 273.525 34.1014 273.599 34.104C274.118 34.1101 274.504 34.0038 274.889 33.632C275.035 33.3492 275.044 33.1865 274.994 32.8717C274.801 32.5537 274.611 32.3419 274.251 32.2217C274.127 32.2143 274.002 32.2117 273.878 32.2127C273.814 32.2129 273.751 32.2131 273.686 32.2134C273.606 32.2142 273.526 32.2151 273.444 32.2159C273.189 32.2179 272.934 32.2198 272.671 32.2217Z" fill="#FBFDFF"/>
<path d="M29.2644 14.95C29.3563 15.0112 29.4483 15.0725 29.5431 15.1357C29.5124 15.4115 29.4818 15.6872 29.4502 15.9714C29.2049 15.8488 28.9596 15.7262 28.707 15.6C28.6859 15.6861 28.6648 15.7723 28.6431 15.8611C28.5211 16.1571 28.5211 16.1571 28.3121 16.337C27.9912 16.4609 27.825 16.449 27.4992 16.3428C27.2565 16.1244 27.2234 16.0081 27.1973 15.6812C27.2205 15.4142 27.2205 15.4142 27.3134 15.2285C26.851 15.0855 26.4057 14.9958 25.9257 14.9383C25.8621 14.9303 25.7986 14.9223 25.7331 14.914C25.5787 14.8946 25.4241 14.8758 25.2695 14.8571C25.2695 14.7958 25.2695 14.7345 25.2695 14.6714C26.4951 14.3178 28.0871 14.4887 29.2644 14.95ZM27.685 15.2285C27.685 15.3817 27.685 15.535 27.685 15.6928C27.869 15.7847 27.869 15.7847 28.0566 15.8785C28.2461 15.7519 28.2461 15.7519 28.4282 15.6C28.4282 15.5387 28.4282 15.4774 28.4282 15.4142C28.1583 15.2976 27.9827 15.2285 27.685 15.2285Z" fill="#FBFDFF"/>
<path d="M32.2485 15.026C32.3618 15.0266 32.4751 15.0272 32.5918 15.0278C32.8872 15.0434 32.8872 15.0434 33.1659 15.1363C33.1659 15.1975 33.1659 15.2588 33.1659 15.322C32.9207 15.3526 32.6754 15.3833 32.4227 15.4148C32.4419 15.501 32.461 15.5872 32.4808 15.676C32.5156 15.972 32.5156 15.972 32.3298 16.2505C32.1034 16.297 32.1034 16.297 31.8653 16.2505C31.6969 16.0184 31.6969 16.0184 31.5866 15.7863C31.4333 15.8475 31.28 15.9088 31.1221 15.972C31.1221 15.7268 31.1221 15.4817 31.1221 15.2291C31.5082 15.0435 31.8224 15.021 32.2485 15.026ZM31.9988 15.5541C31.9548 15.6001 31.9107 15.646 31.8653 15.6934C32.0033 15.7853 32.0033 15.7853 32.144 15.8791C32.1747 15.7259 32.2053 15.5727 32.2369 15.4148C32.1216 15.4041 32.1216 15.4041 31.9988 15.5541Z" fill="#FBFDFF"/>
</svg>
