<svg width="49" height="45" viewBox="0 0 49 45" fill="none" xmlns="http://www.w3.org/2000/svg">
<path d="M17.2472 0.336376C17.3094 0.351419 17.3717 0.366461 17.4359 0.38196C19.4842 0.888725 21.7789 1.89183 22.9927 3.71513C23.4302 4.50861 23.5448 5.5053 23.6416 6.39352C23.65 6.47023 23.6585 6.54695 23.6672 6.62599C23.7499 7.55487 23.7236 8.49047 23.7168 9.42209C23.8287 9.29013 23.9399 9.1575 24.0506 9.02459C24.1126 8.9508 24.1746 8.87702 24.2384 8.801C24.375 8.61501 24.4399 8.51096 24.4691 8.28638C24.3202 8.16145 24.1712 8.03652 24.0177 7.9078C24.0628 7.65371 24.1566 7.50061 24.3186 7.30209C24.6325 7.34137 24.7891 7.43168 25.0192 7.64754C25.0717 7.69604 25.1241 7.74455 25.1782 7.79453C25.2173 7.83191 25.2564 7.86929 25.2966 7.9078C25.5952 7.78944 25.7793 7.58062 25.9878 7.34468C26.0243 7.30407 26.0607 7.26345 26.0983 7.22161C26.3247 6.96739 26.5416 6.70698 26.7542 6.44084C27.101 6.00698 27.4766 5.60375 27.8547 5.19777C28.184 4.84411 28.4977 4.47814 28.8097 4.10908C29.1824 3.66883 29.557 3.23176 29.9467 2.80655C30.0135 2.73335 30.0803 2.66015 30.1491 2.58474C30.2679 2.45568 30.3875 2.32741 30.5082 2.20025C30.5572 2.14735 30.6062 2.09445 30.6566 2.03995C30.6989 1.99544 30.7412 1.95094 30.7848 1.90508C30.8803 1.77757 30.8803 1.77757 30.8438 1.6176C30.7845 1.46216 30.716 1.31598 30.6378 1.16923C30.762 1.01932 30.8861 0.869405 31.014 0.714948C31.398 0.830753 31.6444 1.07051 31.9355 1.33486C32.0354 1.42391 32.1354 1.51284 32.2356 1.60163C32.2838 1.64445 32.3321 1.68728 32.3818 1.7314C32.6438 1.95985 32.9178 2.17227 33.1956 2.38066C33.1366 2.67303 33.0129 2.83595 32.8195 3.06209C32.6705 3.01212 32.5216 2.96215 32.3681 2.91066C32.0236 3.24929 31.6924 3.59396 31.3781 3.9612C31.0541 4.33778 30.7192 4.70476 30.3875 5.07443C30.132 5.35949 29.8772 5.64485 29.627 5.9345C29.3521 6.25227 29.0695 6.56286 28.7874 6.87413C28.6391 7.03895 28.4928 7.20505 28.3481 7.37307C28.1239 7.63293 27.8933 7.88659 27.6616 8.13968C27.3679 8.4606 27.0802 8.78526 26.8012 9.11923C27.0494 9.3441 27.2977 9.56898 27.5535 9.80066C27.3646 10.2759 27.3646 10.2759 27.1773 10.4064C26.9023 10.3752 26.7567 10.2455 26.5567 10.0609C26.5036 10.0124 26.4504 9.96391 26.3957 9.91394C26.3557 9.87656 26.3158 9.83918 26.2746 9.80066C25.8528 10.3216 25.8528 10.3216 25.4612 10.8654C25.2966 11.0878 25.2966 11.0878 25.0709 11.1635C27.3237 11.1827 29.5797 11.1383 31.8302 11.0352C33.856 10.9449 33.856 10.9449 34.6996 11.6169C34.8506 11.7692 34.8506 11.7692 34.9775 12.003C35.1315 12.2459 35.1315 12.2459 35.3925 12.2763C35.5352 12.2734 35.5352 12.2734 35.6808 12.2705C35.7334 12.2701 35.7859 12.2697 35.8401 12.2693C36.0135 12.2673 36.1866 12.262 36.3599 12.2566C36.4808 12.2544 36.6018 12.2523 36.7227 12.2504C36.9745 12.2459 37.2263 12.24 37.4781 12.2331C37.7897 12.2247 38.1011 12.2202 38.4128 12.2173C38.6485 12.215 38.8843 12.2113 39.12 12.2073C39.2312 12.2055 39.3425 12.2041 39.4538 12.2031C40.5633 12.1915 41.3999 11.8761 42.3653 11.3488C43.1955 10.9253 44.0867 10.9903 44.9924 11.0641C45.0802 11.0708 45.1679 11.0775 45.2584 11.0844C46.3819 11.1754 47.4999 11.3204 48.6175 11.4664C48.6423 11.5413 48.6671 11.6163 48.6927 11.6935C47.9107 11.656 47.9107 11.656 47.1129 11.6178C47.6342 11.6928 48.1555 11.7677 48.6927 11.8449C48.6175 12.3749 48.6175 12.3749 48.5422 12.4507C48.3971 12.4519 48.252 12.4478 48.107 12.4415C47.975 12.436 47.975 12.436 47.8403 12.4304C47.7477 12.4262 47.655 12.4219 47.5595 12.4175C47.4666 12.4136 47.3736 12.4096 47.2779 12.4056C47.0473 12.3957 46.8168 12.3855 46.5863 12.3749C46.633 12.381 46.6796 12.3871 46.7277 12.3934C46.9393 12.4213 47.1507 12.4502 47.3621 12.4791C47.4355 12.4886 47.509 12.4982 47.5847 12.508C47.6552 12.5178 47.7258 12.5276 47.7985 12.5376C47.896 12.5507 47.896 12.5507 47.9954 12.564C48.1661 12.6021 48.1661 12.6021 48.3918 12.7535C48.3198 12.8514 48.2477 12.9492 48.1755 13.0469C48.1353 13.1014 48.0952 13.1558 48.0538 13.2119C47.8512 13.475 47.7383 13.5382 47.4138 13.5864C47.2857 13.5977 47.1575 13.6066 47.0291 13.6136C45.8423 13.6876 44.6367 13.8114 43.5019 14.1921C43.597 14.1912 43.6922 14.1903 43.7902 14.1894C43.9151 14.1887 44.04 14.188 44.1649 14.1874C44.2276 14.1867 44.2902 14.1861 44.3548 14.1854C44.4454 14.1851 44.4454 14.1851 44.5378 14.1847C44.5933 14.1843 44.6489 14.1839 44.7061 14.1835C44.856 14.1921 44.856 14.1921 45.0817 14.2678C44.9727 14.5027 44.8446 14.7077 44.6915 14.9161C44.6293 15.0029 44.6293 15.0029 44.566 15.0915C44.1317 15.5238 43.4603 15.5896 42.886 15.7158C42.799 15.7358 42.7121 15.7559 42.6225 15.7765C41.0256 16.132 41.0256 16.132 40.3329 15.7679C40.2814 15.7436 40.2298 15.7193 40.1767 15.6943C39.9618 15.5929 39.7531 15.4865 39.5468 15.3683C38.9113 15.0368 38.2237 15.2623 37.5589 15.4035C37.4807 15.4198 37.4026 15.436 37.3221 15.4528C36.9976 15.5203 36.6731 15.5878 36.3493 15.6589C36.2395 15.6828 36.2395 15.6828 36.1275 15.7073C36.0625 15.7217 35.9975 15.7361 35.9306 15.7509C35.7534 15.7821 35.7534 15.7821 35.4525 15.7821C35.464 15.7086 35.4755 15.6351 35.4874 15.5594C35.5339 15.2322 35.5529 14.9052 35.57 14.5754C35.5733 14.5164 35.5765 14.4574 35.5799 14.3966C35.5877 14.2527 35.5954 14.1088 35.6029 13.9649C35.5533 13.9649 35.5036 13.9649 35.4525 13.9649C35.4478 14.0415 35.4432 14.118 35.4384 14.1968C35.302 15.272 34.7998 16.5131 33.9405 17.1943C33.3713 17.5963 32.845 17.7821 32.1556 17.7961C32.0922 17.7982 32.0287 17.8004 31.9633 17.8025C31.755 17.8093 31.5467 17.8146 31.3384 17.8199C31.192 17.8244 31.0457 17.8289 30.8993 17.8336C30.5144 17.8457 30.1295 17.8566 29.7446 17.8671C29.2803 17.8801 28.8161 17.8943 28.3519 17.9085C27.9899 17.9195 27.6279 17.9304 27.2659 17.9404C26.4825 17.9627 25.7024 17.9996 24.9205 18.0535C24.8956 17.6288 24.8708 17.204 24.8452 16.7664C24.5732 17.9467 24.3132 19.1212 24.1682 20.3249C24.1609 20.3797 24.1537 20.4345 24.1462 20.4909C24.0732 21.106 24.0846 21.7225 24.0883 22.3408C24.0886 22.4541 24.089 22.5674 24.0893 22.6807C24.0901 22.9554 24.0914 23.2302 24.093 23.5049C24.1426 23.405 24.1923 23.3051 24.2434 23.2021C24.2434 23.4519 24.2434 23.7018 24.2434 23.9592C24.1299 24.0086 24.0163 24.058 23.8993 24.1089C23.1071 24.4541 22.3159 24.7997 21.5352 25.1707C21.9802 25.0251 22.4185 24.8672 22.8562 24.7006C24.2083 24.1866 25.5772 23.7271 26.9516 23.2778C27.0037 23.2608 27.0557 23.2437 27.1092 23.2261C29.2491 22.5253 31.4255 21.8414 33.647 21.4607C33.647 21.3857 33.647 21.3107 33.647 21.2335C33.6966 21.2335 33.7463 21.2335 33.7974 21.2335C33.7974 21.2835 33.7974 21.3335 33.7974 21.3849C33.8827 21.3844 33.8827 21.3844 33.9696 21.3839C34.5054 21.3809 35.0411 21.3786 35.5768 21.3771C35.8522 21.3763 36.1277 21.3752 36.4031 21.3735C36.6689 21.3719 36.9347 21.371 37.2006 21.3706C37.3513 21.3702 37.5019 21.369 37.6526 21.3678C37.7445 21.3678 37.8363 21.3678 37.931 21.3678C38.0118 21.3674 38.0927 21.3671 38.176 21.3667C38.3903 21.3853 38.5109 21.4142 38.6873 21.5364C39.2928 22.7102 38.9631 24.2734 38.598 25.4877C38.2224 26.6588 37.6009 28.0183 36.5057 28.6535C35.99 28.8982 35.4852 29.0213 34.9259 29.1173C32.1793 29.6331 29.5254 30.6607 26.955 31.738C26.8416 31.7853 26.8416 31.7853 26.726 31.8335C26.6248 31.8796 26.6248 31.8796 26.5216 31.9267C26.3498 31.9849 26.3498 31.9849 26.1241 31.9092C26.1802 31.8739 26.1802 31.8739 26.2374 31.8378C27.3028 31.1658 28.3539 30.4792 29.3825 29.7514C29.4378 29.7122 29.4932 29.6731 29.5503 29.6328C29.6017 29.5962 29.6531 29.5596 29.706 29.5219C29.7516 29.4894 29.7972 29.457 29.8442 29.4235C29.9719 29.3308 29.9719 29.3308 30.1112 29.1835C27.9594 30.2274 25.9044 31.3834 24.1088 32.9879C23.5546 33.4736 22.9483 33.8554 22.3204 34.2374C21.6619 34.6407 21.0109 35.0519 20.3739 35.4888C20.1307 35.6533 20.0115 35.7044 19.7235 35.7035C19.6286 35.7035 19.6286 35.7035 19.5318 35.7035C19.4293 35.7029 19.4293 35.7029 19.3248 35.7023C19.2549 35.7022 19.1849 35.7021 19.1129 35.702C18.8891 35.7016 18.6652 35.7006 18.4414 35.6997C18.2899 35.6993 18.1384 35.699 17.9868 35.6986C17.6149 35.6978 17.243 35.6965 16.871 35.6949C16.9492 35.7037 17.0274 35.7125 17.108 35.7215C17.3985 35.7542 17.689 35.7872 17.9794 35.8202C18.1051 35.8344 18.2307 35.8486 18.3564 35.8627C18.5372 35.883 18.7179 35.9035 18.8987 35.9242C18.9547 35.9304 19.0107 35.9366 19.0685 35.9431C19.4772 35.99 19.4772 35.99 19.6654 36.0445C19.868 36.0866 20.0339 36.0456 20.2363 36.0061C20.3632 35.9818 20.3632 35.9818 20.4927 35.9571C20.5823 35.9393 20.6718 35.9215 20.7641 35.9032C20.9479 35.8675 21.1316 35.8318 21.3154 35.7961C21.4491 35.7699 21.4491 35.7699 21.5856 35.7431C21.8 35.7019 22.0146 35.6633 22.2299 35.6269C22.2853 35.6174 22.3407 35.6078 22.3977 35.598C22.5404 35.5737 22.6831 35.55 22.8258 35.5264C23.2066 35.4221 23.3145 35.1723 23.5099 34.8432C23.9061 34.2121 24.3438 33.7274 25.0709 33.4992C25.8979 33.3725 26.6315 33.6136 27.403 33.8778C27.5814 33.9384 27.7598 33.9991 27.9382 34.0595C28.0505 34.0978 28.1627 34.1368 28.2745 34.1764C29.0091 34.4315 29.7019 34.5107 30.478 34.5072C30.6108 34.5071 30.6108 34.5071 30.7462 34.507C31.3642 34.5006 31.96 34.4474 32.567 34.3306C32.9224 34.2635 33.2129 34.2461 33.5718 34.3321C33.8367 34.5988 33.9355 34.8126 33.9726 35.188C33.9421 35.533 33.8439 35.6646 33.6282 35.9316C33.5781 35.9942 33.5781 35.9942 33.527 36.058C33.2019 36.4584 32.8529 36.8375 32.5003 37.2134C32.3299 37.3951 32.1667 37.5817 32.0061 37.7724C31.6089 38.2312 31.1707 38.6835 30.5361 38.739C29.993 38.746 29.5115 38.6575 28.9875 38.52C28.9061 38.4996 28.8246 38.4792 28.7407 38.4582C28.3539 38.3608 27.9681 38.2597 27.5826 38.1574C26.9496 37.991 26.3546 37.8494 25.698 37.8256C25.5223 37.8149 25.5223 37.8149 25.3718 37.7392C25.2242 37.7999 25.2242 37.7999 25.0709 37.8907C25.0019 37.9276 25.0019 37.9276 24.9316 37.9653C24.3241 38.2993 23.7221 38.6374 23.1385 39.0122C22.4353 39.4627 21.7091 39.8717 20.9805 40.2788C20.8597 40.3463 20.739 40.4141 20.6185 40.4822C20.0582 40.7989 19.4884 41.077 18.8975 41.3309C18.8374 41.3569 18.7774 41.3828 18.7155 41.4095C18.4017 41.5408 18.1145 41.6374 17.7738 41.6764C17.8317 41.5691 17.8897 41.4618 17.9477 41.3546C18.0091 41.2405 18.0091 41.2405 18.0717 41.1242C18.1856 40.9143 18.3027 40.7065 18.4208 40.499C18.8849 39.6771 19.2659 38.8576 19.5793 37.9664C19.548 38.029 19.5168 38.0917 19.4846 38.1562C18.8506 39.4021 18.0846 40.5771 17.2615 41.7041C17.167 41.8346 17.0745 41.9663 16.9824 42.0984C15.5853 44.0997 15.5853 44.0997 14.9363 44.2303C14.3451 44.3004 13.7525 44.2451 13.166 44.1607C13.0951 44.1506 13.0241 44.1405 12.951 44.13C11.7851 43.956 10.6506 43.6884 9.52214 43.3468C9.44313 43.3232 9.36412 43.2996 9.28272 43.2753C7.71363 42.7839 7.71363 42.7839 7.31701 42.1307C6.81115 41.1386 6.69568 40.1527 6.68697 39.0548C6.68592 38.97 6.68487 38.8852 6.68379 38.7979C6.69487 36.8201 7.83986 35.47 9.04726 34.0292C9.08137 33.9885 9.11548 33.9477 9.15063 33.9057C9.6197 33.3464 10.0998 32.7993 10.5936 32.2621C10.7855 32.052 10.9716 31.8377 11.1569 31.6218C11.2791 31.4833 11.4031 31.3475 11.5289 31.2124C11.5693 31.169 11.6096 31.1255 11.6512 31.0808C11.7314 30.9946 11.812 30.9087 11.8928 30.8231C12.0566 30.6471 12.194 30.4947 12.3082 30.2814C12.5 29.9894 12.7679 29.816 13.0485 29.6141C13.1113 29.5684 13.1741 29.5226 13.2389 29.4754C15.1417 28.1007 17.1345 26.8805 19.2031 25.7764C19.2747 25.738 19.3463 25.6997 19.42 25.6601C20.3889 25.142 21.3667 24.6496 22.3627 24.1864C20.6052 24.7897 18.8731 25.4373 17.1862 26.2192C17.0999 26.2591 17.0137 26.299 16.9248 26.3401C16.8489 26.3756 16.7729 26.4112 16.6947 26.4478C16.5266 26.5199 16.3723 26.5721 16.194 26.6092C16.3118 26.3117 16.517 26.1278 16.7441 25.9136C19.5767 23.1475 21.1351 19.0502 21.6104 15.1764C21.5957 15.2332 21.5809 15.2901 21.5657 15.3487C21.4979 15.6084 21.4296 15.868 21.3612 16.1275C21.3264 16.2617 21.3264 16.2617 21.2908 16.3986C21.1739 16.8408 21.0541 17.2616 20.8581 17.6749C20.4469 17.5598 20.1132 17.364 19.7532 17.1402C19.6938 17.1035 19.6344 17.0669 19.5731 17.0291C19.0899 16.7254 18.6507 16.3913 18.2251 16.0092C18.2251 16.2136 18.5356 16.4208 18.673 16.5604C19.2836 17.162 19.9947 17.6586 20.7077 18.1292C19.7263 21.1196 18.1532 23.896 16.0778 26.2549C15.9958 26.3501 15.9165 26.4477 15.8387 26.5464C15.4609 27.0088 15.0772 27.2579 14.5436 27.5131C14.3901 27.59 14.2367 27.6672 14.0835 27.7446C13.9703 27.8014 13.9703 27.8014 13.8549 27.8594C13.5352 28.0241 13.2254 28.2037 12.9168 28.3885C12.8664 28.4186 12.8159 28.4486 12.7639 28.4796C12.5399 28.6143 12.321 28.7531 12.1061 28.902C11.9059 29.0321 11.9059 29.0321 11.7555 29.0321C11.7424 28.9851 11.7293 28.9382 11.7158 28.8898C11.1815 27.0033 10.4862 25.172 9.58297 23.4316C9.54379 23.3552 9.54379 23.3552 9.50381 23.2774C9.4483 23.1731 9.38966 23.0705 9.3286 22.9695C9.24252 22.8199 9.17161 22.6863 9.12249 22.5207C9.19184 22.2628 9.19184 22.2628 9.32937 22.0285C9.37398 21.9497 9.41858 21.8708 9.46454 21.7895C9.50062 21.731 9.53669 21.6724 9.57386 21.6121C10.1605 21.6539 10.7299 21.7573 11.3058 21.8751C11.4542 21.9054 11.6028 21.9349 11.7514 21.9643C13.2707 22.2717 13.2707 22.2717 13.4857 22.5964C13.4935 22.6542 13.5013 22.7119 13.5093 22.7715C13.5972 23.1176 13.7938 23.3269 14.0755 23.528C15.0893 24.079 16.7968 23.5047 17.849 23.2021C17.8592 23.1396 17.8694 23.0772 17.8799 23.0128C17.9188 22.7753 17.9578 22.5378 17.9969 22.3004C18.0142 22.1951 18.0316 22.0897 18.0488 21.9844C18.16 21.3085 18.276 20.6344 18.4147 19.9635C18.5228 19.2329 18.345 18.8056 17.9242 18.2049C17.6575 17.8836 17.3771 17.5633 16.9454 17.5021C16.3311 17.5026 15.7349 17.6095 15.1314 17.7128C14.971 17.7401 14.8105 17.7673 14.65 17.7938C14.5047 17.8178 14.3596 17.8426 14.2145 17.8673C13.9161 17.9047 13.6356 17.9079 13.3353 17.9021C13.3353 17.9521 13.3353 18.002 13.3353 18.0535C13.6707 18.0429 14.0061 18.0317 14.3415 18.0204C14.4356 18.0174 14.5298 18.0144 14.6268 18.0114C15.2353 17.9905 15.8347 17.9482 16.4385 17.8707C16.7796 17.8444 17.0097 17.8476 17.3054 18.0328C17.5021 18.2059 17.6754 18.3871 17.849 18.5835C17.8975 18.6298 17.946 18.676 17.9959 18.7237C18.2711 19.0175 18.3347 19.2765 18.3521 19.6766C18.3189 20.5067 18.2303 22.4398 17.6233 23.0507C17.2912 23.1028 16.9561 23.1334 16.6218 23.169C16.5293 23.1795 16.4367 23.1899 16.3413 23.2008C14.6354 23.3849 14.6354 23.3849 14.1196 23.0087C13.9714 22.8575 13.9371 22.7309 13.9371 22.5207C13.813 22.4957 13.6889 22.4707 13.561 22.4449C13.6603 22.37 13.7596 22.295 13.8619 22.2178C12.8744 21.3701 10.8727 21.5185 9.64909 21.5364C9.69358 21.2961 9.74829 21.0672 9.82511 20.8354C9.84449 20.776 9.86388 20.7165 9.88385 20.6553C9.90413 20.5931 9.92441 20.531 9.9453 20.4669C10.3887 19.106 10.3887 19.106 10.168 17.7297C10.0034 17.4119 9.86057 17.3172 9.52214 17.2017C8.9729 17.0956 8.40017 17.1334 7.84361 17.1449C7.88949 17.1529 7.93538 17.1609 7.98266 17.1691C8.19192 17.206 8.40095 17.2441 8.61 17.2822C8.68219 17.2947 8.75439 17.3073 8.82878 17.3202C9.51139 17.4462 9.51139 17.4462 9.79955 17.6749C10.2014 18.4838 9.75996 19.7583 9.49863 20.5521C9.39138 20.8723 9.27978 21.1905 9.16481 21.508C9.1378 21.5833 9.1108 21.6587 9.08298 21.7363C8.74351 22.6398 8.23001 23.4273 7.33111 23.8409C5.80159 24.4662 3.92354 23.5516 2.50238 22.9749C0.642589 22.1651 0.642589 22.1651 0.170299 21.3849C0.00399633 20.8551 -0.00412817 20.3078 0.00103449 19.7571C0.00179817 19.6382 0.00179817 19.6382 0.00257727 19.517C0.0374657 16.8416 0.0374657 16.8416 0.635481 16.1116C0.873834 15.9113 1.12084 15.7551 1.39276 15.607C1.44979 15.5756 1.50683 15.5442 1.56559 15.5119C2.58631 14.9596 3.63461 14.4591 4.68401 13.9649C4.73163 13.9425 4.77925 13.92 4.82832 13.8968C6.73868 12.998 10.199 11.4351 12.3573 11.8449C12.5133 11.9773 12.6465 12.1232 12.7849 12.2741C13.9941 13.4993 15.816 14.2984 17.4729 14.6464C17.4305 14.6289 17.3882 14.6114 17.3445 14.5934C16.5294 14.255 15.7329 13.915 14.9815 13.4471C14.8185 13.346 14.654 13.2475 14.4896 13.1487C13.3382 12.4477 12.3445 11.7694 11.9577 10.3969C11.8961 10.0477 11.8581 9.69987 11.8307 9.34638C11.7609 9.34013 11.6911 9.33388 11.6191 9.32745C11.3793 9.27066 11.3793 9.27066 11.243 9.1287C11.0865 8.84677 11.07 8.62729 11.0737 8.31004C11.0744 8.23479 11.0751 8.15954 11.0758 8.08201C11.0767 8.02452 11.0775 7.96703 11.0784 7.9078C11.0146 7.8875 10.9508 7.8672 10.8851 7.84629C10.6193 7.75367 10.3667 7.64439 10.1099 7.52923C9.27075 7.16469 8.41609 6.95954 7.50978 7.25477C7.0749 7.45826 6.88406 7.81191 6.63995 8.21066C6.5331 8.36302 6.42496 8.51446 6.31553 8.66495C6.26617 8.73366 6.21681 8.80237 6.16595 8.87316C6.03812 9.04352 6.03812 9.04352 5.88766 9.19495C5.87991 9.24336 5.87215 9.29177 5.86416 9.34164C5.78903 9.56847 5.63792 9.60365 5.43629 9.72495C5.31342 9.83449 5.19279 9.94664 5.07426 10.0609C4.59447 10.4989 4.19931 10.7745 3.53295 10.7427C2.59367 10.5881 1.84755 9.95507 1.14827 9.34638C1.19167 9.10647 1.25483 8.98429 1.42832 8.81519C1.48905 8.75517 1.48905 8.75517 1.55101 8.69393C1.59343 8.65313 1.63586 8.61234 1.67957 8.5703C1.72229 8.52834 1.765 8.48637 1.80902 8.44313C1.91426 8.33988 2.02018 8.23734 2.12624 8.13495C2.39694 8.25575 2.60922 8.42387 2.84091 8.60816C3.42927 9.06209 4.07133 9.4978 4.83447 9.4978C5.06624 9.46623 5.29197 9.42906 5.51152 9.34638C5.53635 9.2964 5.56117 9.24643 5.58675 9.19495C5.6364 9.19495 5.68605 9.19495 5.73721 9.19495C5.75495 9.14449 5.7727 9.09403 5.79098 9.04204C6.29868 7.85701 7.23624 6.5991 8.43485 6.07173C8.488 6.05299 8.54114 6.03425 8.59589 6.01495C8.15831 5.52937 7.42039 5.28135 6.79041 5.18209C6.35841 5.22177 6.08131 5.63144 5.81244 5.93923C5.71046 6.08476 5.61012 6.23146 5.51152 6.37932C5.23518 6.77443 4.99096 6.94284 4.53355 7.07495C4.48312 7.09164 4.4327 7.10833 4.38074 7.12552C4.23115 7.17003 4.08562 7.20091 3.93172 7.22638C3.84517 7.24131 3.84517 7.24131 3.75688 7.25654C3.57203 7.27438 3.43402 7.27548 3.25467 7.22638C3.06358 7.05553 2.97665 6.85526 2.87852 6.62066C2.85166 6.55908 2.8248 6.49749 2.79712 6.43404C2.24264 4.97721 2.20713 3.21619 2.50238 1.69923C2.69685 1.40565 2.83186 1.39819 3.16533 1.30647C3.25736 1.28041 3.34939 1.25435 3.44421 1.2275C3.67115 1.177 3.85237 1.16436 4.08218 1.16923C4.07683 1.22552 4.07149 1.28182 4.06598 1.33981C3.91842 2.94891 3.90251 4.38956 4.38309 5.93923C4.43275 5.93923 4.4824 5.93923 4.53355 5.93923C4.60996 5.86143 4.68309 5.78034 4.75454 5.69789C5.48878 4.94987 6.85112 4.64164 7.87182 4.6095C9.29485 4.6743 10.4002 5.51617 11.4546 6.39352C11.6422 6.30237 11.8068 6.20769 11.9812 6.09066C12.0805 6.09066 12.1798 6.09066 12.2821 6.09066C12.3069 6.21559 12.3317 6.34052 12.3573 6.46923C12.6844 4.86262 12.8745 3.25032 12.583 1.62352C12.6575 1.62352 12.732 1.62352 12.8087 1.62352C12.499 1.21343 12.2071 0.981752 11.7537 0.742157C11.7047 0.708192 11.6556 0.674227 11.605 0.639233C11.605 0.564276 11.605 0.489319 11.605 0.41209C11.716 0.375003 11.8274 0.338938 11.9389 0.303251C12.0008 0.283048 12.0628 0.262844 12.1266 0.242029C13.6563 -0.13648 15.724 -0.0450792 17.2472 0.336376ZM12.9591 1.85066C13.0344 2.00209 13.0344 2.00209 13.0344 2.00209L12.9591 1.85066ZM15.7426 6.3178C15.4619 7.16539 15.7275 8.11617 16.0729 8.90333C16.2781 9.30887 16.4669 9.65673 16.871 9.87638C17.2779 9.79943 17.6419 9.66589 18.0183 9.49307C18.0685 9.47051 18.1188 9.44794 18.1706 9.4247C18.3395 9.3487 18.508 9.27191 18.6765 9.19495C18.8763 9.10378 19.0761 9.01265 19.2759 8.92168C19.4066 8.86214 19.5371 8.80235 19.6675 8.74227C20.7016 8.26946 20.7016 8.26946 21.2343 8.36209C21.7502 8.5587 22.152 8.93021 22.5596 9.29373C22.6187 9.33609 22.6779 9.37845 22.7388 9.42209C22.8133 9.3971 22.8878 9.37212 22.9645 9.34638C23.0395 9.18565 23.0395 9.18565 23.0868 8.99146C23.1048 8.92715 23.1229 8.86283 23.1414 8.79656C23.2447 8.3577 23.2754 7.94945 23.2701 7.50084C23.2698 7.44511 23.2695 7.38938 23.2691 7.33196C23.2682 7.19581 23.2669 7.05966 23.2654 6.92352C22.6705 6.68282 22.086 6.53302 21.4553 6.42191C21.3663 6.40583 21.2773 6.38975 21.1856 6.37319C20.4768 6.24806 19.7697 6.15009 19.0527 6.09066C18.9549 6.08227 18.8572 6.07387 18.7564 6.06523C17.195 5.88864 17.195 5.88864 15.7426 6.3178ZM12.2069 6.92352C12.2821 7.07495 12.2821 7.07495 12.2821 7.07495L12.2069 6.92352ZM22.9645 11.6178C23.0398 11.7692 23.0398 11.7692 23.0398 11.7692L22.9645 11.6178ZM22.8893 11.7692C22.8651 11.8149 22.8409 11.8606 22.816 11.9077C21.1632 15.0199 21.1632 15.0199 20.3315 15.4035C20.1239 15.4256 19.9396 15.4181 19.7297 15.4035C19.9336 15.6087 20.0439 15.6199 20.3315 15.6307C20.8458 15.4799 21.1814 15.1066 21.5352 14.7221C21.574 14.6857 21.6128 14.6493 21.6527 14.6118C22.1913 14.03 22.4896 13.0967 22.8141 12.3749C22.8463 12.3045 22.8785 12.234 22.9116 12.1614C22.9858 11.9858 22.9858 11.9858 22.8893 11.7692ZM19.6545 37.5121C19.7297 37.6635 19.7297 37.6635 19.7297 37.6635L19.6545 37.5121Z" fill="#333333"/>
</svg>
