<svg width="230" height="52" viewBox="0 0 230 52" fill="none" xmlns="http://www.w3.org/2000/svg">
<path d="M20.7013 5.12568C20.7627 5.14044 20.8241 5.1552 20.8874 5.17041C22.9076 5.66761 25.1707 6.65179 26.3678 8.44068C26.7993 9.21919 26.9123 10.1971 27.0078 11.0685C27.0161 11.1438 27.0244 11.2191 27.033 11.2966C27.1146 12.208 27.0886 13.1259 27.0819 14.04C27.1923 13.9105 27.3019 13.7804 27.4112 13.65C27.4723 13.5776 27.5334 13.5052 27.5964 13.4306C27.731 13.2481 27.7951 13.146 27.8239 12.9257C27.677 12.8031 27.5301 12.6805 27.3787 12.5543C27.4232 12.305 27.5157 12.1547 27.6755 11.96C27.9851 11.9985 28.1395 12.0871 28.3664 12.2989C28.4182 12.3465 28.4699 12.3941 28.5232 12.4431C28.5618 12.4798 28.6003 12.5165 28.64 12.5543C28.9344 12.4381 29.116 12.2332 29.3217 12.0018C29.3576 11.9619 29.3936 11.9221 29.4307 11.881C29.654 11.6316 29.8679 11.3761 30.0775 11.115C30.4196 10.6893 30.79 10.2937 31.1629 9.89535C31.4876 9.54836 31.7971 9.1893 32.1048 8.8272C32.4724 8.39526 32.8418 7.96644 33.2261 7.54925C33.292 7.47744 33.3579 7.40562 33.4258 7.33162C33.5429 7.205 33.6609 7.07915 33.7799 6.95439C33.8282 6.90249 33.8765 6.85059 33.9263 6.79711C33.968 6.75345 34.0097 6.70978 34.0527 6.66479C34.1469 6.53969 34.1469 6.53969 34.1109 6.38274C34.0524 6.23023 33.9848 6.08681 33.9078 5.94283C34.0302 5.79574 34.1526 5.64866 34.2787 5.49711C34.6575 5.61073 34.9005 5.84597 35.1876 6.10533C35.2861 6.1927 35.3847 6.27995 35.4835 6.36707C35.5311 6.40908 35.5787 6.4511 35.6277 6.49438C35.8861 6.71852 36.1563 6.92693 36.4303 7.1314C36.3722 7.41825 36.2502 7.5781 36.0594 7.79997C35.9125 7.75094 35.7656 7.70191 35.6142 7.6514C35.2744 7.98364 34.9478 8.32181 34.6378 8.68211C34.3183 9.05159 33.9879 9.41164 33.6608 9.77434C33.4089 10.054 33.1576 10.334 32.9108 10.6182C32.6397 10.93 32.361 11.2347 32.0828 11.5401C31.9365 11.7018 31.7922 11.8648 31.6495 12.0296C31.4284 12.2846 31.201 12.5334 30.9725 12.7818C30.6828 13.0966 30.3991 13.4151 30.1239 13.7428C30.3687 13.9635 30.6136 14.1841 30.8658 14.4114C30.6795 14.8777 30.6795 14.8777 30.4948 15.0057C30.2236 14.9751 30.08 14.8478 29.8828 14.6668C29.8303 14.6192 29.7779 14.5716 29.7239 14.5225C29.6845 14.4859 29.6451 14.4492 29.6045 14.4114C29.1885 14.9225 29.1885 14.9225 28.8023 15.456C28.64 15.6743 28.64 15.6743 28.4174 15.7485C30.6392 15.7674 32.8641 15.7238 35.0837 15.6226C37.0816 15.534 37.0816 15.534 37.9136 16.1934C38.0626 16.3428 38.0626 16.3428 38.1877 16.5721C38.3396 16.8105 38.3396 16.8105 38.597 16.8403C38.7378 16.8375 38.7378 16.8375 38.8813 16.8347C38.9332 16.8343 38.985 16.8338 39.0384 16.8334C39.2094 16.8315 39.3802 16.8263 39.5511 16.821C39.6704 16.8188 39.7896 16.8168 39.9089 16.8149C40.1573 16.8105 40.4056 16.8047 40.6539 16.7979C40.9612 16.7897 41.2684 16.7852 41.5758 16.7824C41.8083 16.7802 42.0407 16.7766 42.2732 16.7726C42.3829 16.7709 42.4927 16.7695 42.6024 16.7686C43.6967 16.7572 44.5218 16.4477 45.4738 15.9303C46.2926 15.5148 47.1716 15.5786 48.0648 15.651C48.1514 15.6576 48.238 15.6641 48.3272 15.6709C49.4352 15.7602 50.5379 15.9025 51.64 16.0457C51.6645 16.1192 51.689 16.1928 51.7142 16.2685C50.943 16.2318 50.943 16.2318 50.1561 16.1943C50.6703 16.2678 51.1845 16.3413 51.7142 16.4171C51.64 16.9371 51.64 16.9371 51.5658 17.0114C51.4227 17.0126 51.2796 17.0086 51.1366 17.0024C51.0064 16.997 51.0064 16.997 50.8736 16.9915C50.7822 16.9874 50.6908 16.9832 50.5967 16.9789C50.505 16.975 50.4133 16.9711 50.3189 16.9671C50.0915 16.9575 49.8641 16.9474 49.6368 16.9371C49.6828 16.9431 49.7288 16.9491 49.7763 16.9552C49.9849 16.9826 50.1934 17.0109 50.4019 17.0393C50.4743 17.0486 50.5468 17.058 50.6214 17.0677C50.691 17.0773 50.7606 17.0868 50.8323 17.0967C50.9284 17.1095 50.9284 17.1095 51.0266 17.1226C51.1948 17.16 51.1948 17.16 51.4174 17.3085C51.3465 17.4046 51.2753 17.5005 51.2041 17.5964C51.1645 17.6498 51.1249 17.7033 51.0841 17.7583C50.8843 18.0164 50.7729 18.0784 50.4529 18.1257C50.3266 18.1368 50.2001 18.1456 50.0735 18.1524C48.903 18.225 47.714 18.3465 46.5948 18.72C46.6887 18.7191 46.7825 18.7182 46.8792 18.7174C47.0023 18.7167 47.1255 18.716 47.2487 18.7153C47.3105 18.7147 47.3723 18.7141 47.436 18.7134C47.5253 18.7131 47.5253 18.7131 47.6165 18.7127C47.6712 18.7123 47.726 18.7119 47.7825 18.7115C47.9303 18.72 47.9303 18.72 48.1529 18.7943C48.0454 19.0247 47.9191 19.2258 47.768 19.4303C47.7068 19.5155 47.7068 19.5155 47.6443 19.6024C47.216 20.0265 46.5538 20.0912 45.9874 20.215C45.9016 20.2346 45.8159 20.2542 45.7276 20.2745C44.1526 20.6233 44.1526 20.6233 43.4694 20.266C43.4186 20.2422 43.3677 20.2184 43.3153 20.1938C43.1034 20.0944 42.8976 19.9899 42.6942 19.874C42.0674 19.5487 41.3893 19.77 40.7336 19.9085C40.6565 19.9245 40.5795 19.9404 40.5001 19.9569C40.18 20.0231 39.86 20.0893 39.5406 20.1591C39.4323 20.1826 39.4323 20.1826 39.3219 20.2066C39.2578 20.2207 39.1937 20.2348 39.1277 20.2494C38.9529 20.28 38.9529 20.28 38.6561 20.28C38.6675 20.2079 38.6789 20.1358 38.6906 20.0615C38.7364 19.7405 38.7552 19.4196 38.7721 19.096C38.7753 19.0382 38.7785 18.9803 38.7818 18.9206C38.7896 18.7795 38.7971 18.6383 38.8045 18.4971C38.7556 18.4971 38.7066 18.4971 38.6561 18.4971C38.6515 18.5722 38.647 18.6473 38.6422 18.7246C38.5077 19.7795 38.0124 20.9972 37.165 21.6656C36.6036 22.0599 36.0846 22.2422 35.4047 22.256C35.3421 22.2581 35.2795 22.2601 35.215 22.2623C35.0096 22.2689 34.8041 22.2741 34.5987 22.2793C34.4543 22.2837 34.31 22.2882 34.1656 22.2928C33.786 22.3046 33.4064 22.3153 33.0268 22.3257C32.5689 22.3384 32.1111 22.3523 31.6533 22.3662C31.2963 22.3771 30.9392 22.3877 30.5822 22.3976C29.8096 22.4194 29.0402 22.4556 28.269 22.5085C28.2446 22.0918 28.2201 21.6751 28.1948 21.2457C27.9265 22.4037 27.6702 23.5561 27.5271 24.7371C27.52 24.7909 27.5128 24.8446 27.5054 24.9C27.4334 25.5035 27.4447 26.1083 27.4483 26.715C27.4486 26.8261 27.449 26.9372 27.4493 27.0484C27.4501 27.318 27.4514 27.5875 27.4529 27.8571C27.5019 27.7591 27.5508 27.661 27.6013 27.56C27.6013 27.8051 27.6013 28.0503 27.6013 28.3028C27.4893 28.3513 27.3773 28.3997 27.2619 28.4497C26.4806 28.7883 25.7003 29.1274 24.9303 29.4914C25.3692 29.3486 25.8015 29.1937 26.2331 29.0302C27.5667 28.5259 28.9167 28.0751 30.2723 27.6343C30.3236 27.6175 30.3749 27.6008 30.4277 27.5836C32.5381 26.896 34.6845 26.2249 36.8755 25.8514C36.8755 25.7779 36.8755 25.7043 36.8755 25.6285C36.9245 25.6285 36.9734 25.6285 37.0239 25.6285C37.0239 25.6776 37.0239 25.7266 37.0239 25.7771C37.1079 25.7766 37.1079 25.7766 37.1937 25.7761C37.7221 25.7731 38.2504 25.7709 38.7788 25.7694C39.0504 25.7686 39.322 25.7676 39.5937 25.7659C39.8558 25.7643 40.118 25.7634 40.3802 25.763C40.5288 25.7626 40.6774 25.7614 40.826 25.7603C40.9166 25.7603 41.0072 25.7603 41.1005 25.7602C41.1803 25.7599 41.26 25.7596 41.3422 25.7592C41.5536 25.7774 41.6725 25.8058 41.8465 25.9257C42.4437 27.0773 42.1185 28.6111 41.7584 29.8025C41.3879 30.9514 40.775 32.2853 39.6948 32.9085C39.1862 33.1486 38.6884 33.2694 38.1368 33.3635C35.428 33.8696 32.8106 34.8778 30.2756 35.9348C30.1638 35.9812 30.1638 35.9812 30.0497 36.0285C29.9499 36.0738 29.9499 36.0738 29.8481 36.1199C29.6787 36.1771 29.6787 36.1771 29.4561 36.1028C29.5115 36.0682 29.5115 36.0682 29.5679 36.0328C30.6185 35.3734 31.6552 34.6998 32.6696 33.9857C32.7243 33.9473 32.7789 33.9089 32.8352 33.8693C32.8858 33.8334 32.9365 33.7975 32.9887 33.7605C33.0337 33.7287 33.0787 33.6968 33.125 33.664C33.2509 33.573 33.2509 33.573 33.3884 33.4285C31.2662 34.4527 29.2394 35.5869 27.4686 37.1611C26.922 37.6376 26.324 38.0122 25.7047 38.3871C25.0553 38.7827 24.4133 39.1862 23.785 39.6149C23.5451 39.7763 23.4276 39.8264 23.1436 39.8255C23.05 39.8255 23.05 39.8255 22.9545 39.8255C22.8535 39.825 22.8535 39.825 22.7503 39.8244C22.6814 39.8243 22.6124 39.8242 22.5414 39.824C22.3206 39.8236 22.0999 39.8227 21.8791 39.8218C21.7297 39.8214 21.5802 39.821 21.4308 39.8207C21.064 39.8199 20.6971 39.8186 20.3303 39.8171C20.4074 39.8257 20.4846 39.8343 20.564 39.8432C20.8505 39.8753 21.137 39.9076 21.4235 39.94C21.5474 39.954 21.6713 39.9679 21.7953 39.9817C21.9736 40.0016 22.1518 40.0218 22.3301 40.042C22.3853 40.0481 22.4406 40.0542 22.4976 40.0605C22.9006 40.1066 22.9006 40.1066 23.0862 40.16C23.2861 40.2014 23.4497 40.1612 23.6493 40.1224C23.7745 40.0986 23.7745 40.0986 23.9022 40.0743C23.9905 40.0569 24.0788 40.0394 24.1698 40.0214C24.3511 39.9864 24.5323 39.9513 24.7135 39.9163C24.8455 39.8906 24.8455 39.8906 24.98 39.8643C25.1915 39.8239 25.4031 39.786 25.6155 39.7504C25.6701 39.741 25.7247 39.7316 25.781 39.722C25.9217 39.6981 26.0624 39.6749 26.2032 39.6517C26.5787 39.5494 26.6851 39.3043 26.8779 38.9814C27.2687 38.3623 27.7003 37.8867 28.4174 37.6628C29.233 37.5385 29.9565 37.775 30.7174 38.0343C30.8934 38.0937 31.0693 38.1532 31.2453 38.2125C31.356 38.2501 31.4666 38.2883 31.577 38.3272C32.3015 38.5775 32.9846 38.6552 33.7501 38.6518C33.881 38.6517 33.881 38.6517 34.0146 38.6516C34.6241 38.6453 35.2118 38.5931 35.8104 38.4785C36.1608 38.4127 36.4474 38.3956 36.8013 38.48C37.0626 38.7416 37.1601 38.9514 37.1966 39.3197C37.1666 39.6582 37.0697 39.7873 36.8569 40.0493C36.8075 40.1107 36.8075 40.1107 36.7572 40.1734C36.4365 40.5662 36.0924 40.9381 35.7446 41.3069C35.5765 41.4852 35.4156 41.6683 35.2571 41.8553C34.8654 42.3055 34.4332 42.7493 33.8074 42.8037C33.2718 42.8106 32.7969 42.7238 32.2801 42.5889C32.1998 42.5689 32.1195 42.5488 32.0368 42.5282C31.6552 42.4327 31.2748 42.3335 30.8945 42.2331C30.2703 42.0699 29.6835 41.9309 29.0359 41.9076C28.8626 41.8971 28.8626 41.8971 28.7142 41.8228C28.5686 41.8824 28.5686 41.8824 28.4174 41.9714C28.3494 42.0077 28.3494 42.0077 28.28 42.0447C27.6809 42.3723 27.0872 42.704 26.5116 43.0718C25.8181 43.5138 25.1019 43.915 24.3833 44.3145C24.2641 44.3807 24.1451 44.4472 24.0263 44.514C23.4737 44.8248 22.9117 45.0976 22.3289 45.3468C22.2697 45.3722 22.2105 45.3977 22.1494 45.4239C21.84 45.5527 21.5567 45.6475 21.2207 45.6857C21.2778 45.5804 21.335 45.4752 21.3922 45.37C21.4528 45.2581 21.4528 45.2581 21.5145 45.1439C21.6268 44.9379 21.7423 44.7341 21.8588 44.5305C22.3165 43.7241 22.6923 42.9201 23.0013 42.0457C22.9705 42.1072 22.9397 42.1686 22.908 42.232C22.2827 43.4543 21.5272 44.6071 20.7154 45.7128C20.6223 45.8409 20.531 45.9701 20.4402 46.0998C19.0623 48.0633 19.0623 48.0633 18.4222 48.1914C17.8392 48.2602 17.2547 48.206 16.6763 48.1232C16.6063 48.1132 16.5363 48.1033 16.4642 48.0931C15.3144 47.9223 14.1955 47.6597 13.0825 47.3246C13.0046 47.3015 12.9267 47.2783 12.8464 47.2545C11.2989 46.7723 11.2989 46.7723 10.9077 46.1314C10.4089 45.158 10.295 44.1908 10.2864 43.1135C10.2853 43.0304 10.2843 42.9472 10.2832 42.8615C10.2942 40.9211 11.4234 39.5964 12.6142 38.1828C12.6478 38.1428 12.6815 38.1028 12.7161 38.0616C13.1788 37.5129 13.6522 36.9761 14.1392 36.449C14.3285 36.2429 14.5121 36.0327 14.6948 35.8208C14.8153 35.6849 14.9377 35.5517 15.0617 35.4192C15.1015 35.3765 15.1413 35.3339 15.1823 35.29C15.2615 35.2055 15.3409 35.1212 15.4206 35.0372C15.5821 34.8645 15.7176 34.715 15.8303 34.5057C16.0194 34.2192 16.2837 34.0491 16.5604 33.851C16.6223 33.8061 16.6843 33.7612 16.7481 33.7149C18.6248 32.3661 20.5902 31.1689 22.6303 30.0857C22.7009 30.048 22.7715 30.0104 22.8443 29.9716C23.7998 29.4632 24.7642 28.9801 25.7465 28.5257C24.0132 29.1176 22.3048 29.753 20.6412 30.5201C20.5561 30.5593 20.471 30.5984 20.3834 30.6388C20.3085 30.6736 20.2336 30.7085 20.1564 30.7444C19.9907 30.8152 19.8384 30.8663 19.6626 30.9028C19.7788 30.6109 19.9811 30.4305 20.2051 30.2203C22.9987 27.5064 24.5357 23.4865 25.0045 19.6857C24.99 19.7415 24.9754 19.7973 24.9604 19.8547C24.8936 20.1096 24.8262 20.3642 24.7588 20.6189C24.7244 20.7505 24.7244 20.7505 24.6893 20.8848C24.5741 21.3187 24.4559 21.7316 24.2626 22.1371C23.857 22.0241 23.5279 21.8321 23.1729 21.6125C23.1143 21.5765 23.0556 21.5405 22.9952 21.5034C22.5187 21.2055 22.0855 20.8777 21.6658 20.5028C21.6658 20.7033 21.972 20.9066 22.1076 21.0436C22.7097 21.6338 23.411 22.1211 24.1142 22.5828C23.1463 25.5168 21.5948 28.2408 19.548 30.5551C19.4671 30.6486 19.389 30.7444 19.3122 30.8412C18.9396 31.2949 18.5611 31.5392 18.035 31.7896C17.8835 31.8651 17.7323 31.9408 17.5811 32.0168C17.4695 32.0725 17.4695 32.0725 17.3557 32.1294C17.0404 32.291 16.7349 32.4672 16.4305 32.6485C16.3808 32.678 16.331 32.7075 16.2797 32.7379C16.0588 32.8701 15.8429 33.0062 15.6309 33.1523C15.4336 33.28 15.4336 33.28 15.2852 33.28C15.2722 33.2339 15.2593 33.1878 15.246 33.1404C14.7191 31.2895 14.0334 29.4928 13.1425 27.7851C13.1039 27.7102 13.1039 27.7102 13.0645 27.6338C13.0097 27.5315 12.9519 27.4309 12.8917 27.3317C12.8068 27.185 12.7368 27.054 12.6884 26.8914C12.7568 26.6384 12.7568 26.6384 12.8924 26.4085C12.9364 26.3312 12.9804 26.2538 13.0257 26.1741C13.0613 26.1166 13.0969 26.0592 13.1336 26C13.7121 26.041 14.2737 26.1425 14.8417 26.258C14.9881 26.2878 15.1346 26.3167 15.2811 26.3456C16.7795 26.6471 16.7795 26.6471 16.9916 26.9657C16.9993 27.0224 17.0069 27.0791 17.0148 27.1375C17.1016 27.477 17.2954 27.6824 17.5733 27.8797C18.5731 28.4203 20.2572 27.8569 21.2948 27.56C21.3049 27.4987 21.315 27.4374 21.3254 27.3743C21.3637 27.1412 21.4022 26.9082 21.4407 26.6753C21.4578 26.5719 21.4749 26.4686 21.4919 26.3653C21.6015 25.7021 21.716 25.0407 21.8527 24.3825C21.9594 23.6657 21.7841 23.2465 21.369 22.6571C21.106 22.3418 20.8295 22.0275 20.4037 21.9675C19.7979 21.968 19.2098 22.0729 18.6146 22.1743C18.4564 22.2011 18.2982 22.2277 18.1398 22.2537C17.9966 22.2773 17.8535 22.3016 17.7103 22.3259C17.4161 22.3626 17.1394 22.3657 16.8432 22.36C16.8432 22.409 16.8432 22.458 16.8432 22.5085C17.174 22.4981 17.5048 22.4871 17.8356 22.476C17.9284 22.4731 18.0213 22.4702 18.117 22.4672C18.7171 22.4467 19.3082 22.4052 19.9037 22.3292C20.2402 22.3034 20.4671 22.3065 20.7587 22.4882C20.9527 22.658 21.1237 22.8359 21.2948 23.0285C21.3427 23.0739 21.3905 23.1193 21.4398 23.1661C21.7112 23.4543 21.7739 23.7084 21.791 24.101C21.7583 24.9155 21.6709 26.812 21.0723 27.4114C20.7447 27.4625 20.4142 27.4925 20.0846 27.5275C19.9933 27.5378 19.902 27.5481 19.8079 27.5587C18.1255 27.7393 18.1255 27.7393 17.6168 27.3702C17.4706 27.2219 17.4368 27.0976 17.4368 26.8914C17.3144 26.8669 17.1919 26.8424 17.0658 26.8171C17.1637 26.7436 17.2617 26.67 17.3626 26.5943C16.3887 25.7626 14.4145 25.9082 13.2077 25.9257C13.2516 25.6899 13.3056 25.4654 13.3814 25.238C13.4005 25.1796 13.4196 25.1213 13.4393 25.0612C13.4593 25.0002 13.4793 24.9392 13.4999 24.8764C13.9372 23.5412 13.9372 23.5412 13.7196 22.1908C13.5572 21.879 13.4163 21.7861 13.0825 21.6728C12.5409 21.5687 11.976 21.6058 11.4271 21.6171C11.4724 21.6249 11.5176 21.6328 11.5642 21.6409C11.7706 21.677 11.9768 21.7144 12.183 21.7518C12.2542 21.7641 12.3254 21.7764 12.3987 21.789C13.0719 21.9127 13.0719 21.9127 13.3561 22.1371C13.7524 22.9307 13.3171 24.1812 13.0594 24.96C12.9536 25.2741 12.8435 25.5864 12.7301 25.8978C12.7035 25.9718 12.6769 26.0457 12.6494 26.1219C12.3146 27.0083 11.8082 27.7809 10.9217 28.1868C9.41319 28.8002 7.56097 27.9028 6.15936 27.3371C4.32515 26.5426 4.32515 26.5426 3.85936 25.7771C3.69535 25.2572 3.68733 24.7203 3.69243 24.18C3.69318 24.0633 3.69318 24.0633 3.69395 23.9444C3.72836 21.3195 3.72836 21.3195 4.31814 20.6032C4.55322 20.4067 4.79683 20.2535 5.06501 20.1082C5.12126 20.0774 5.1775 20.0466 5.23546 20.0149C6.24213 19.473 7.27602 18.982 8.31098 18.4971C8.35794 18.4751 8.40491 18.453 8.4533 18.4303C10.3374 17.5484 13.7501 16.015 15.8787 16.4171C16.0325 16.547 16.164 16.6901 16.3004 16.8382C17.493 18.0402 19.2898 18.8242 20.9239 19.1657C20.8821 19.1485 20.8404 19.1314 20.7973 19.1137C19.9934 18.7817 19.2079 18.4481 18.4668 17.989C18.306 17.8898 18.1438 17.7932 17.9816 17.6962C16.8461 17.0085 15.8661 16.343 15.4846 14.9964C15.4238 14.6537 15.3863 14.3125 15.3594 13.9657C15.2905 13.9596 15.2216 13.9534 15.1507 13.9471C14.9142 13.8914 14.9142 13.8914 14.7797 13.7521C14.6253 13.4755 14.6091 13.2602 14.6128 12.9489C14.6135 12.8751 14.6141 12.8012 14.6148 12.7252C14.6157 12.6688 14.6165 12.6124 14.6174 12.5543C14.5545 12.5343 14.4916 12.5144 14.4267 12.4939C14.1646 12.403 13.9155 12.2958 13.6622 12.1828C12.8346 11.8252 11.9917 11.6239 11.0979 11.9135C10.669 12.1132 10.4808 12.4602 10.24 12.8514C10.1346 13.0009 10.028 13.1495 9.92005 13.2971C9.87137 13.3645 9.82269 13.4319 9.77253 13.5014C9.64646 13.6685 9.64646 13.6685 9.49807 13.8171C9.49042 13.8646 9.48277 13.9121 9.47489 13.961C9.40079 14.1836 9.25177 14.2181 9.05291 14.3371C8.93173 14.4446 8.81276 14.5546 8.69585 14.6668C8.22267 15.0964 7.83295 15.3669 7.17576 15.3356C6.2494 15.1839 5.51354 14.5629 4.82388 13.9657C4.86668 13.7303 4.92897 13.6104 5.10008 13.4445C5.15997 13.3856 5.15997 13.3856 5.22107 13.3255C5.26292 13.2855 5.30476 13.2455 5.34787 13.2043C5.39 13.1631 5.43213 13.1219 5.47554 13.0795C5.57933 12.9782 5.6838 12.8776 5.78839 12.7771C6.05537 12.8956 6.26473 13.0606 6.49323 13.2414C7.0735 13.6868 7.70673 14.1143 8.45936 14.1143C8.68795 14.0833 8.91057 14.0468 9.1271 13.9657C9.15159 13.9167 9.17607 13.8676 9.2013 13.8171C9.25027 13.8171 9.29923 13.8171 9.34968 13.8171C9.36719 13.7676 9.38469 13.7181 9.40272 13.6671C9.90343 12.5044 10.8281 11.2702 12.0102 10.7528C12.0626 10.7344 12.115 10.7161 12.169 10.6971C11.7375 10.2207 11.0097 9.97736 10.3884 9.87997C9.96234 9.9189 9.68905 10.3208 9.42388 10.6228C9.32331 10.7656 9.22435 10.9095 9.1271 11.0546C8.85457 11.4423 8.6137 11.6075 8.16259 11.7371C8.11286 11.7535 8.06312 11.7699 8.01188 11.7867C7.86435 11.8304 7.72081 11.8607 7.56904 11.8857C7.48368 11.9003 7.48368 11.9003 7.3966 11.9153C7.21429 11.9328 7.07819 11.9339 6.9013 11.8857C6.71284 11.7181 6.62711 11.5216 6.53033 11.2914C6.50384 11.231 6.47735 11.1705 6.45005 11.1083C5.90319 9.67895 5.86818 7.95116 6.15936 6.46283C6.35115 6.17478 6.48431 6.16746 6.81319 6.07747C6.90396 6.0519 6.99472 6.02633 7.08823 5.99999C7.31205 5.95044 7.49078 5.93804 7.71743 5.94283C7.71215 5.99806 7.70688 6.05328 7.70145 6.11019C7.55592 7.68893 7.54023 9.10239 8.0142 10.6228C8.06317 10.6228 8.11214 10.6228 8.16259 10.6228C8.23795 10.5465 8.31007 10.4669 8.38053 10.386C9.10468 9.65213 10.4483 9.34972 11.4549 9.31818C12.8584 9.38176 13.9485 10.2077 14.9884 11.0685C15.1734 10.9791 15.3357 10.8862 15.5077 10.7714C15.6057 10.7714 15.7036 10.7714 15.8045 10.7714C15.829 10.894 15.8535 11.0165 15.8787 11.1428C16.2013 9.56652 16.3888 7.98465 16.1013 6.38854C16.1747 6.38854 16.2482 6.38854 16.3239 6.38854C16.0185 5.98619 15.7306 5.75888 15.2834 5.52381C15.235 5.49048 15.1866 5.45716 15.1368 5.42283C15.1368 5.34928 15.1368 5.27574 15.1368 5.19997C15.2463 5.16358 15.3561 5.1282 15.466 5.09318C15.5271 5.07336 15.5882 5.05354 15.6512 5.03312C17.1598 4.66175 19.1991 4.75143 20.7013 5.12568ZM16.4723 6.6114C16.5465 6.75997 16.5465 6.75997 16.5465 6.75997L16.4723 6.6114ZM19.2174 10.9943C18.9406 11.8258 19.2025 12.7587 19.5432 13.531C19.7456 13.9289 19.9318 14.2702 20.3303 14.4857C20.7316 14.4102 21.0906 14.2792 21.4618 14.1096C21.5114 14.0875 21.5609 14.0653 21.612 14.0425C21.7786 13.968 21.9448 13.8926 22.111 13.8171C22.308 13.7277 22.505 13.6383 22.7021 13.549C22.831 13.4906 22.9597 13.4319 23.0883 13.373C24.1082 12.9091 24.1082 12.9091 24.6336 13C25.1423 13.1929 25.5386 13.5574 25.9406 13.914C25.999 13.9556 26.0573 13.9971 26.1174 14.04C26.1909 14.0155 26.2643 13.9909 26.34 13.9657C26.414 13.808 26.414 13.808 26.4606 13.6175C26.4784 13.5544 26.4962 13.4913 26.5145 13.4262C26.6163 12.9957 26.6466 12.5951 26.6414 12.155C26.6411 12.1003 26.6408 12.0456 26.6404 11.9893C26.6395 11.8557 26.6382 11.7221 26.6368 11.5885C26.0501 11.3524 25.4736 11.2054 24.8515 11.0964C24.7637 11.0806 24.676 11.0648 24.5855 11.0486C23.8865 10.9258 23.1891 10.8297 22.4819 10.7714C22.3855 10.7632 22.2891 10.7549 22.1898 10.7464C20.6498 10.5732 20.6498 10.5732 19.2174 10.9943ZM15.7303 11.5885C15.8045 11.7371 15.8045 11.7371 15.8045 11.7371L15.7303 11.5885ZM26.34 16.1943C26.4142 16.3428 26.4142 16.3428 26.4142 16.3428L26.34 16.1943ZM26.2658 16.3428C26.242 16.3877 26.2181 16.4325 26.1935 16.4787C24.5635 19.5321 24.5635 19.5321 23.7432 19.9085C23.5384 19.9302 23.3567 19.9228 23.1497 19.9085C23.3507 20.1098 23.4595 20.1209 23.7432 20.1314C24.2505 19.9834 24.5814 19.6172 24.9303 19.24C24.9686 19.2043 25.0068 19.1685 25.0463 19.1317C25.5774 18.5609 25.8716 17.6452 26.1916 16.9371C26.2234 16.868 26.2551 16.7988 26.2878 16.7276C26.361 16.5553 26.361 16.5553 26.2658 16.3428ZM23.0755 41.6C23.1497 41.7485 23.1497 41.7485 23.1497 41.7485L23.0755 41.6Z" fill="#1C1724"/>
<path d="M80.3748 34.6125C81.7382 35.7633 82.6058 37.288 82.8 39.0743C82.9242 41.7777 82.2993 44.0229 80.4815 46.0665C79.2778 47.3706 77.6058 48.2434 75.8269 48.3766C74.061 48.4423 72.5731 48.1183 71.245 46.8911C70.0786 45.7616 69.3092 44.1686 69.2791 42.5327C69.2444 40.1399 69.7062 37.9158 71.3742 36.1029C71.4114 36.0621 71.4486 36.0213 71.4869 35.9793C73.7212 33.555 77.5667 32.4342 80.3748 34.6125ZM74.1194 38.0343C74.0665 38.0855 74.0136 38.1368 73.9591 38.1896C73.0287 39.1535 72.6813 40.4614 72.6938 41.7712C72.7578 42.8744 73.1716 43.7423 73.971 44.4972C74.5499 44.9547 75.1716 45.0915 75.9 45.0172C77.0081 44.7942 77.861 44.1346 78.5165 43.2236C79.2715 42.0435 79.5471 40.7613 79.2944 39.3802C79.0772 38.4765 78.6009 37.6769 77.8291 37.1429C76.4875 36.4079 75.1092 37.0465 74.1194 38.0343Z" fill="#1C1724"/>
<path d="M64.4237 34.6125C65.787 35.7633 66.6547 37.288 66.8489 39.0743C66.973 41.7777 66.3482 44.0229 64.5303 46.0665C63.3266 47.3706 61.6547 48.2434 59.8757 48.3766C58.1098 48.4423 56.6219 48.1183 55.2938 46.8911C54.1275 45.7616 53.358 44.1686 53.328 42.5327C53.2933 40.1399 53.755 37.9158 55.4231 36.1029C55.4603 36.0621 55.4974 36.0213 55.5358 35.9793C57.7701 33.555 61.6155 32.4342 64.4237 34.6125ZM58.1682 38.0343C58.1153 38.0855 58.0624 38.1368 58.008 38.1896C57.0775 39.1535 56.7301 40.4614 56.7426 41.7712C56.8067 42.8744 57.2204 43.7423 58.0198 44.4972C58.5988 44.9547 59.2205 45.0915 59.9489 45.0172C61.0569 44.7942 61.9098 44.1346 62.5653 43.2236C63.3204 42.0435 63.5959 40.7613 63.3432 39.3802C63.1261 38.4765 62.6497 37.6769 61.8779 37.1429C60.5364 36.4079 59.1581 37.0465 58.1682 38.0343Z" fill="#1C1724"/>
<path d="M168.789 33.5029C169.048 33.7525 169.24 34.0342 169.439 34.3323C169.584 34.5459 169.743 34.748 169.902 34.9514C169.965 35.0323 170.027 35.1133 170.089 35.1943C170.12 35.2342 170.15 35.2741 170.182 35.3152C170.271 35.431 170.36 35.5468 170.448 35.6627C170.809 36.1326 171.171 36.6011 171.535 37.0686C172.016 37.6871 172.493 38.3079 172.97 38.9298C173.029 39.0066 173.088 39.0834 173.148 39.1625C173.178 39.2009 173.207 39.2393 173.237 39.2788C173.428 39.5262 173.619 39.7727 173.81 40.0188C173.881 40.1094 173.881 40.1094 173.953 40.2017C174.046 40.3211 174.139 40.4405 174.232 40.5598C174.274 40.6144 174.317 40.6691 174.361 40.7254C174.399 40.7741 174.437 40.8228 174.476 40.873C174.563 40.9884 174.645 41.1082 174.725 41.2286C174.887 41.0666 174.864 40.7206 174.893 40.4959C174.906 40.3923 174.906 40.3923 174.92 40.2866C174.94 40.136 174.959 39.9854 174.979 39.8348C175.01 39.5966 175.041 39.3584 175.072 39.1203C175.162 38.443 175.251 37.7656 175.339 37.0881C175.392 36.6742 175.447 36.2603 175.502 35.8466C175.523 35.6887 175.544 35.5307 175.564 35.3727C175.592 35.1517 175.621 34.9309 175.651 34.7101C175.659 34.6446 175.667 34.5791 175.676 34.5116C175.756 33.9281 175.756 33.9281 175.986 33.7257C176.125 33.689 176.125 33.689 176.282 33.6896C176.34 33.6892 176.399 33.6887 176.46 33.6883C176.523 33.6893 176.587 33.6904 176.652 33.6915C176.75 33.6916 176.75 33.6916 176.849 33.6917C176.987 33.6921 177.125 33.6933 177.263 33.6952C177.474 33.6979 177.685 33.6982 177.897 33.6982C178.031 33.6989 178.164 33.6998 178.298 33.7008C178.362 33.7009 178.425 33.7011 178.49 33.7013C178.937 33.7085 178.937 33.7085 179.102 33.8743C179.12 34.6163 178.962 35.3786 178.859 36.1131C178.841 36.2382 178.824 36.3632 178.807 36.4883C178.76 36.8251 178.713 37.1618 178.666 37.4984C178.627 37.7803 178.587 38.0623 178.548 38.3442C178.456 39.0092 178.363 39.6742 178.27 40.3392C178.174 41.0241 178.079 41.709 177.984 42.3939C177.902 42.9837 177.82 43.5734 177.737 44.163C177.688 44.5145 177.639 44.866 177.591 45.2176C177.545 45.5478 177.499 45.878 177.452 46.2081C177.435 46.3289 177.419 46.4498 177.402 46.5707C177.379 46.7362 177.356 46.9017 177.332 47.0671C177.32 47.1595 177.307 47.252 177.293 47.3472C177.156 48.1542 177.156 48.1542 176.951 48.36C176.668 48.4236 176.417 48.4235 176.135 48.36C175.885 48.1683 175.728 47.9287 175.555 47.6682C175.505 47.5975 175.454 47.5267 175.403 47.4538C175.299 47.3076 175.196 47.1607 175.095 47.0131C174.879 46.7017 174.654 46.3983 174.428 46.0943C174.343 45.9782 174.258 45.8622 174.173 45.7461C173.892 45.3635 173.604 44.9859 173.315 44.6086C172.896 44.0606 172.484 43.5083 172.077 42.9515C171.689 42.4219 171.291 41.8998 170.891 41.3792C170.496 40.864 170.496 40.864 170.323 40.594C170.216 40.405 170.216 40.405 170.051 40.3372C170.047 40.4063 170.044 40.4755 170.04 40.5468C169.995 41.3553 169.911 42.1551 169.812 42.9586C169.796 43.0924 169.78 43.2262 169.764 43.36C169.73 43.6379 169.696 43.9157 169.662 44.1935C169.619 44.5487 169.576 44.9041 169.533 45.2595C169.5 45.5347 169.467 45.8099 169.433 46.085C169.417 46.2161 169.401 46.3472 169.385 46.4783C169.363 46.661 169.341 46.8436 169.318 47.0262C169.312 47.0797 169.306 47.1332 169.299 47.1883C169.204 47.9453 169.204 47.9453 169.012 48.1372C168.787 48.1438 168.564 48.1457 168.339 48.1444C168.272 48.1443 168.204 48.1442 168.135 48.1441C167.919 48.1437 167.703 48.1427 167.486 48.1418C167.34 48.1414 167.194 48.1411 167.048 48.1408C166.689 48.14 166.329 48.1387 165.97 48.1372C165.801 47.8106 165.824 47.5477 165.876 47.1957C165.888 47.1104 165.888 47.1104 165.899 47.0235C165.925 46.8332 165.952 46.6432 165.98 46.4531C165.998 46.3167 166.017 46.1802 166.036 46.0438C166.087 45.6733 166.139 45.303 166.191 44.9328C166.246 44.5455 166.3 44.158 166.353 43.7705C166.444 43.1199 166.535 42.4694 166.626 41.819C166.732 41.0667 166.837 40.3142 166.942 39.5617C167.042 38.8381 167.143 38.1147 167.244 37.3912C167.287 37.0832 167.33 36.7751 167.373 36.467C167.424 36.1043 167.475 35.7417 167.526 35.3792C167.545 35.246 167.563 35.1128 167.582 34.9796C167.607 34.798 167.633 34.6164 167.659 34.4349C167.669 34.3555 167.669 34.3555 167.68 34.2745C167.718 34.0184 167.755 33.7955 167.899 33.5772C168.198 33.4277 168.47 33.4053 168.789 33.5029Z" fill="#1C1724"/>
<path d="M145.42 33.5029C145.679 33.7525 145.871 34.0342 146.069 34.3323C146.215 34.5459 146.374 34.748 146.533 34.9514C146.595 35.0323 146.658 35.1133 146.72 35.1943C146.75 35.2342 146.781 35.2741 146.813 35.3152C146.902 35.431 146.99 35.5468 147.079 35.6627C147.44 36.1326 147.802 36.6011 148.165 37.0686C148.646 37.6871 149.124 38.3079 149.601 38.9298C149.66 39.0066 149.718 39.0834 149.779 39.1625C149.809 39.2009 149.838 39.2393 149.868 39.2788C150.058 39.5262 150.249 39.7727 150.441 40.0188C150.512 40.1094 150.512 40.1094 150.583 40.2017C150.676 40.3211 150.77 40.4405 150.863 40.5598C150.905 40.6144 150.948 40.6691 150.992 40.7254C151.03 40.7741 151.068 40.8228 151.107 40.873C151.194 40.9884 151.276 41.1082 151.356 41.2286C151.518 41.0666 151.495 40.7206 151.523 40.4959C151.537 40.3923 151.537 40.3923 151.551 40.2866C151.571 40.136 151.59 39.9854 151.61 39.8348C151.64 39.5966 151.672 39.3584 151.703 39.1203C151.793 38.443 151.882 37.7656 151.97 37.0881C152.023 36.6742 152.078 36.2603 152.133 35.8466C152.154 35.6887 152.174 35.5307 152.195 35.3727C152.223 35.1517 152.252 34.9309 152.282 34.7101C152.29 34.6446 152.298 34.5791 152.306 34.5116C152.387 33.9281 152.387 33.9281 152.617 33.7257C152.755 33.689 152.755 33.689 152.912 33.6896C152.971 33.6892 153.03 33.6887 153.091 33.6883C153.154 33.6893 153.218 33.6904 153.283 33.6915C153.381 33.6916 153.381 33.6916 153.48 33.6917C153.618 33.6921 153.756 33.6933 153.894 33.6952C154.105 33.6979 154.316 33.6982 154.528 33.6982C154.661 33.6989 154.795 33.6998 154.929 33.7008C154.992 33.7009 155.056 33.7011 155.121 33.7013C155.568 33.7085 155.568 33.7085 155.733 33.8743C155.75 34.6163 155.593 35.3786 155.489 36.1131C155.472 36.2382 155.455 36.3632 155.438 36.4883C155.391 36.8251 155.344 37.1618 155.297 37.4984C155.257 37.7803 155.218 38.0623 155.179 38.3442C155.087 39.0092 154.994 39.6742 154.901 40.3392C154.805 41.0241 154.71 41.709 154.615 42.3939C154.533 42.9837 154.451 43.5734 154.368 44.163C154.319 44.5145 154.27 44.866 154.222 45.2176C154.176 45.5478 154.13 45.878 154.083 46.2081C154.066 46.3289 154.049 46.4498 154.033 46.5707C154.01 46.7362 153.987 46.9017 153.963 47.0671C153.95 47.1595 153.937 47.252 153.924 47.3472C153.787 48.1542 153.787 48.1542 153.582 48.36C153.299 48.4236 153.048 48.4235 152.765 48.36C152.516 48.1683 152.359 47.9287 152.186 47.6682C152.136 47.5975 152.085 47.5267 152.033 47.4538C151.93 47.3076 151.827 47.1607 151.726 47.0131C151.51 46.7017 151.285 46.3983 151.059 46.0943C150.974 45.9782 150.889 45.8622 150.804 45.7461C150.522 45.3635 150.235 44.9859 149.946 44.6086C149.527 44.0606 149.115 43.5083 148.708 42.9515C148.32 42.4219 147.922 41.8998 147.522 41.3792C147.127 40.864 147.127 40.864 146.953 40.594C146.847 40.405 146.847 40.405 146.682 40.3372C146.678 40.4063 146.675 40.4755 146.671 40.5468C146.626 41.3553 146.541 42.1551 146.443 42.9586C146.427 43.0924 146.411 43.2262 146.395 43.36C146.361 43.6379 146.327 43.9157 146.293 44.1935C146.249 44.5487 146.207 44.9041 146.164 45.2595C146.131 45.5347 146.097 45.8099 146.064 46.085C146.048 46.2161 146.032 46.3472 146.016 46.4783C145.994 46.661 145.972 46.8436 145.949 47.0262C145.943 47.0797 145.937 47.1332 145.93 47.1883C145.834 47.9453 145.834 47.9453 145.643 48.1372C145.418 48.1438 145.195 48.1457 144.97 48.1444C144.903 48.1443 144.835 48.1442 144.766 48.1441C144.55 48.1437 144.333 48.1427 144.117 48.1418C143.971 48.1414 143.825 48.1411 143.679 48.1408C143.319 48.14 142.96 48.1387 142.601 48.1372C142.432 47.8106 142.455 47.5477 142.507 47.1957C142.518 47.1104 142.518 47.1104 142.53 47.0235C142.556 46.8332 142.583 46.6432 142.61 46.4531C142.629 46.3167 142.648 46.1802 142.667 46.0438C142.718 45.6733 142.77 45.303 142.822 44.9328C142.877 44.5455 142.93 44.158 142.984 43.7705C143.075 43.1199 143.166 42.4694 143.257 41.819C143.363 41.0667 143.468 40.3142 143.573 39.5617C143.673 38.8381 143.774 38.1147 143.875 37.3912C143.918 37.0832 143.961 36.7751 144.004 36.467C144.055 36.1043 144.105 35.7417 144.157 35.3792C144.176 35.246 144.194 35.1128 144.213 34.9796C144.238 34.798 144.264 34.6164 144.289 34.4349C144.3 34.3555 144.3 34.3555 144.311 34.2745C144.349 34.0184 144.386 33.7955 144.53 33.5772C144.828 33.4277 145.101 33.4053 145.42 33.5029Z" fill="#1C1724"/>
<path d="M109.807 33.5029C110.065 33.7525 110.257 34.0342 110.456 34.3323C110.602 34.5459 110.761 34.748 110.92 34.9514C110.982 35.0323 111.044 35.1133 111.107 35.1943C111.137 35.2342 111.168 35.2741 111.199 35.3152C111.288 35.431 111.377 35.5468 111.466 35.6627C111.826 36.1326 112.189 36.6011 112.552 37.0686C113.033 37.6871 113.511 38.3079 113.987 38.9298C114.046 39.0066 114.105 39.0834 114.166 39.1625C114.195 39.2009 114.225 39.2393 114.255 39.2788C114.445 39.5262 114.636 39.7727 114.828 40.0188C114.898 40.1094 114.898 40.1094 114.97 40.2017C115.063 40.3211 115.156 40.4405 115.249 40.5598C115.292 40.6144 115.335 40.6691 115.378 40.7254C115.416 40.7741 115.454 40.8228 115.494 40.873C115.581 40.9884 115.662 41.1082 115.742 41.2286C115.904 41.0666 115.881 40.7206 115.91 40.4959C115.924 40.3923 115.924 40.3923 115.938 40.2866C115.957 40.136 115.977 39.9854 115.996 39.8348C116.027 39.5966 116.059 39.3584 116.09 39.1203C116.18 38.443 116.269 37.7656 116.356 37.0881C116.41 36.6742 116.465 36.2603 116.52 35.8466C116.541 35.6887 116.561 35.5307 116.581 35.3727C116.61 35.1517 116.639 34.9309 116.669 34.7101C116.677 34.6446 116.685 34.5791 116.693 34.5116C116.774 33.9281 116.774 33.9281 117.004 33.7257C117.142 33.689 117.142 33.689 117.299 33.6896C117.358 33.6892 117.417 33.6887 117.478 33.6883C117.541 33.6893 117.604 33.6904 117.669 33.6915C117.767 33.6916 117.767 33.6916 117.867 33.6917C118.005 33.6921 118.143 33.6933 118.28 33.6952C118.492 33.6979 118.703 33.6982 118.914 33.6982C119.048 33.6989 119.182 33.6998 119.316 33.7008C119.379 33.7009 119.443 33.7011 119.508 33.7013C119.954 33.7085 119.954 33.7085 120.12 33.8743C120.137 34.6163 119.979 35.3786 119.876 36.1131C119.859 36.2382 119.842 36.3632 119.824 36.4883C119.778 36.8251 119.731 37.1618 119.683 37.4984C119.644 37.7803 119.605 38.0623 119.566 38.3442C119.473 39.0092 119.38 39.6742 119.287 40.3392C119.192 41.0241 119.096 41.709 119.001 42.3939C118.919 42.9837 118.837 43.5734 118.755 44.163C118.706 44.5145 118.657 44.866 118.608 45.2176C118.562 45.5478 118.516 45.878 118.47 46.2081C118.453 46.3289 118.436 46.4498 118.42 46.5707C118.397 46.7362 118.373 46.9017 118.35 47.0671C118.337 47.1595 118.324 47.252 118.311 47.3472C118.174 48.1542 118.174 48.1542 117.968 48.36C117.686 48.4236 117.435 48.4235 117.152 48.36C116.903 48.1683 116.745 47.9287 116.573 47.6682C116.522 47.5975 116.472 47.5267 116.42 47.4538C116.317 47.3076 116.214 47.1607 116.112 47.0131C115.897 46.7017 115.671 46.3983 115.446 46.0943C115.361 45.9782 115.276 45.8622 115.191 45.7461C114.909 45.3635 114.621 44.9859 114.333 44.6086C113.914 44.0606 113.502 43.5083 113.095 42.9515C112.706 42.4219 112.309 41.8998 111.909 41.3792C111.514 40.864 111.514 40.864 111.34 40.594C111.234 40.405 111.234 40.405 111.068 40.3372C111.065 40.4063 111.061 40.4755 111.058 40.5468C111.013 41.3553 110.928 42.1551 110.83 42.9586C110.814 43.0924 110.797 43.2262 110.781 43.36C110.748 43.6379 110.714 43.9157 110.68 44.1935C110.636 44.5487 110.593 44.9041 110.551 45.2595C110.518 45.5347 110.484 45.8099 110.45 46.085C110.434 46.2161 110.419 46.3472 110.403 46.4783C110.381 46.661 110.359 46.8436 110.336 47.0262C110.33 47.0797 110.323 47.1332 110.317 47.1883C110.221 47.9453 110.221 47.9453 110.03 48.1372C109.805 48.1438 109.582 48.1457 109.357 48.1444C109.289 48.1443 109.222 48.1442 109.153 48.1441C108.936 48.1437 108.72 48.1427 108.504 48.1418C108.358 48.1414 108.212 48.1411 108.065 48.1408C107.706 48.14 107.347 48.1387 106.988 48.1372C106.819 47.8106 106.841 47.5477 106.894 47.1957C106.905 47.1104 106.905 47.1104 106.917 47.0235C106.943 46.8332 106.97 46.6432 106.997 46.4531C107.016 46.3167 107.035 46.1802 107.053 46.0438C107.104 45.6733 107.156 45.303 107.209 44.9328C107.263 44.5455 107.317 44.158 107.371 43.7705C107.461 43.1199 107.552 42.4694 107.644 41.819C107.75 41.0667 107.855 40.3142 107.959 39.5617C108.06 38.8381 108.161 38.1147 108.262 37.3912C108.305 37.0832 108.348 36.7751 108.391 36.467C108.441 36.1043 108.492 35.7417 108.544 35.3792C108.562 35.246 108.581 35.1128 108.599 34.9796C108.624 34.798 108.65 34.6164 108.676 34.4349C108.687 34.3555 108.687 34.3555 108.698 34.2745C108.735 34.0184 108.773 33.7955 108.917 33.5772C109.215 33.4277 109.487 33.4053 109.807 33.5029Z" fill="#1C1724"/>
<path d="M43.3102 33.6872C43.3607 33.6867 43.4113 33.6862 43.4634 33.6857C43.6311 33.6844 43.7986 33.6852 43.9662 33.6862C44.0833 33.686 44.2005 33.6857 44.3176 33.6854C44.5637 33.6849 44.8098 33.6856 45.0559 33.6869C45.3688 33.6886 45.6817 33.6877 45.9946 33.6859C46.237 33.6848 46.4794 33.6852 46.7218 33.6859C46.8369 33.6861 46.9521 33.6859 47.0673 33.6852C48.2676 33.6795 49.1945 33.9203 50.0854 34.7616C50.7902 35.5129 51.0117 36.3852 50.9943 37.3933C50.9319 38.1183 50.6784 38.7306 50.2292 39.2971C50.1882 39.351 50.1473 39.4049 50.1051 39.4605C49.7359 39.9131 49.296 40.2287 48.8178 40.555C48.5999 40.6968 48.5999 40.6968 48.4485 40.8571C48.5014 40.8886 48.5543 40.9201 48.6088 40.9526C49.5008 41.4995 50.0712 42.0941 50.3358 43.1414C50.514 44.2853 50.2301 45.417 49.5614 46.3543C48.8332 47.327 47.8445 47.8888 46.6679 48.1371C46.2057 48.196 45.74 48.1844 45.275 48.1786C45.1457 48.1783 45.0163 48.1781 44.8869 48.1781C44.6187 48.1776 44.3505 48.176 44.0823 48.1733C43.7381 48.1699 43.3941 48.1688 43.0499 48.1686C42.7841 48.1682 42.5183 48.1671 42.2526 48.1657C42.1255 48.165 41.9985 48.1645 41.8715 48.1642C41.6952 48.1635 41.5189 48.1618 41.3426 48.1599C41.2902 48.1598 41.2378 48.1598 41.1838 48.1597C40.8236 48.1541 40.8236 48.1541 40.6582 47.9885C40.6673 47.7855 40.6854 47.5932 40.7121 47.3923C40.7231 47.3025 40.7231 47.3025 40.7343 47.2108C40.7575 47.0242 40.7819 46.8378 40.8066 46.6514C40.8137 46.5968 40.8208 46.5422 40.8281 46.4859C40.8776 46.1053 40.9302 45.7252 40.9834 45.3451C41.0006 45.2209 41.0178 45.0968 41.035 44.9727C41.0906 44.5713 41.1467 44.17 41.2028 43.7688C41.2222 43.6296 41.2416 43.4905 41.261 43.3514C41.3418 42.7733 41.4226 42.1953 41.5037 41.6173C41.6195 40.7923 41.7347 39.9672 41.849 39.142C41.9298 38.5592 42.0113 37.9765 42.0933 37.3939C42.1421 37.0467 42.1906 36.6995 42.2385 36.3521C42.2833 36.0265 42.329 35.7011 42.3753 35.3757C42.3922 35.2563 42.4087 35.1369 42.4249 35.0174C42.4471 34.8545 42.4703 34.6917 42.4939 34.529C42.5066 34.4379 42.5193 34.3468 42.5325 34.2529C42.6489 33.7638 42.8242 33.6885 43.3102 33.6872ZM45.4808 36.6971C45.4277 37.0513 45.3749 37.4056 45.3223 37.7599C45.3044 37.8804 45.2864 38.0009 45.2683 38.1213C45.2423 38.2946 45.2166 38.468 45.191 38.6413C45.1829 38.695 45.1747 38.7487 45.1664 38.8041C45.1307 39.047 45.1098 39.2736 45.1098 39.52C45.3108 39.526 45.5116 39.5304 45.7126 39.5339C45.7691 39.5358 45.8255 39.5376 45.8836 39.5396C46.315 39.5451 46.6207 39.4736 46.9519 39.1747C46.9867 39.1323 47.0215 39.09 47.0574 39.0464C47.1108 38.9835 47.1108 38.9835 47.1652 38.9193C47.4384 38.5156 47.4894 38.0669 47.484 37.5885C47.4265 37.2955 47.3324 37.0653 47.1177 36.8503C46.7752 36.6737 46.4335 36.6881 46.0558 36.6925C45.9729 36.693 45.9729 36.693 45.8883 36.6935C45.7524 36.6944 45.6166 36.6957 45.4808 36.6971ZM44.7388 42.2685C44.4893 43.7097 44.4893 43.7097 44.3679 45.1657C44.5782 45.1738 44.7882 45.1796 44.9985 45.1843C45.0866 45.188 45.0866 45.188 45.1765 45.1918C45.6847 45.2001 46.0573 45.0714 46.447 44.7414C46.4801 44.7007 46.5132 44.6599 46.5473 44.6178C46.5816 44.5774 46.6158 44.537 46.6511 44.4954C46.948 44.0164 46.9459 43.4824 46.8905 42.9371C46.7198 42.5558 46.5314 42.4192 46.1485 42.2685C45.9034 42.2428 45.6619 42.2474 45.4159 42.2546C45.318 42.2561 45.318 42.2561 45.2182 42.2577C45.0584 42.2603 44.8986 42.2643 44.7388 42.2685Z" fill="#1C1724"/>
<path d="M132.213 33.8C132.327 33.839 132.327 33.839 132.444 33.8789C133.26 34.1847 134.239 34.7735 134.735 35.5085C134.782 35.8131 134.757 35.9239 134.573 36.1753C134.499 36.2528 134.424 36.329 134.348 36.404C134.288 36.4649 134.288 36.4649 134.227 36.527C134.142 36.6124 134.057 36.6971 133.971 36.7813C133.841 36.9102 133.713 37.0414 133.585 37.173C133.503 37.2558 133.42 37.3384 133.337 37.4208C133.28 37.4797 133.28 37.4797 133.222 37.5397C133.013 37.7409 132.896 37.8095 132.605 37.8434C132.311 37.8048 132.182 37.7151 131.953 37.5282C131.219 36.9588 130.538 36.8517 129.616 36.92C128.555 37.1331 127.707 37.8345 127.116 38.7214C126.38 39.9349 126.1 41.2627 126.42 42.6548C126.649 43.4646 127.061 44.2064 127.803 44.6364C127.912 44.6907 128.021 44.7436 128.132 44.7943C128.201 44.8264 128.27 44.8586 128.341 44.8918C129.016 45.0376 129.636 44.9345 130.284 44.72C130.288 44.6591 130.293 44.5982 130.297 44.5354C130.303 44.4554 130.31 44.3753 130.316 44.2928C130.322 44.2135 130.328 44.1343 130.334 44.0526C130.353 43.8704 130.381 43.7068 130.432 43.5314C130.347 43.5323 130.262 43.5331 130.175 43.534C130.064 43.5347 129.954 43.5354 129.843 43.536C129.787 43.5367 129.731 43.5373 129.673 43.5379C129.53 43.5386 129.388 43.5353 129.245 43.5314C129.22 43.5069 129.196 43.4824 129.171 43.4571C129.175 42.844 129.262 42.2296 129.347 41.6232C129.355 41.5583 129.364 41.4935 129.372 41.4266C129.381 41.3656 129.39 41.3045 129.4 41.2416C129.407 41.1871 129.415 41.1327 129.423 41.0766C129.479 40.8923 129.537 40.8264 129.69 40.7085C129.88 40.6812 129.88 40.6812 130.109 40.6821C130.195 40.6818 130.281 40.6816 130.369 40.6814C130.509 40.6828 130.509 40.6828 130.65 40.6842C130.745 40.6843 130.84 40.6844 130.938 40.6846C131.139 40.6849 131.34 40.686 131.541 40.6877C131.799 40.6898 132.057 40.6906 132.315 40.6909C132.561 40.6913 132.807 40.6924 133.052 40.6935C133.192 40.6939 133.192 40.6939 133.334 40.6944C133.42 40.6951 133.505 40.6958 133.593 40.6966C133.669 40.6971 133.745 40.6976 133.822 40.6981C133.993 40.7085 133.993 40.7085 134.067 40.7828C134.126 41.4071 134.012 42.0358 133.927 42.6525C133.912 42.7601 133.897 42.8677 133.883 42.9753C133.852 43.1995 133.821 43.4237 133.79 43.6479C133.751 43.934 133.712 44.2203 133.673 44.5066C133.643 44.7283 133.613 44.95 133.582 45.1717C133.568 45.2772 133.553 45.3827 133.539 45.4883C133.519 45.636 133.498 45.7836 133.478 45.9312C133.466 46.0149 133.455 46.0986 133.443 46.1849C133.319 46.886 133.319 46.886 133.106 47.0838C132.385 47.4738 131.655 47.7633 130.872 48.0025C130.812 48.0211 130.752 48.0396 130.689 48.0588C129.095 48.5311 127.359 48.5847 125.85 47.826C124.304 46.9341 123.265 45.5117 122.795 43.8001C122.264 41.6161 122.578 39.3178 123.68 37.3657C123.741 37.2572 123.741 37.2572 123.803 37.1466C124.791 35.4936 126.387 34.2039 128.255 33.7013C129.561 33.3878 130.94 33.3383 132.213 33.8Z" fill="#1C1724"/>
<path d="M88.0756 33.7106C88.1761 33.71 88.1761 33.71 88.2785 33.7094C88.4202 33.7087 88.5619 33.7082 88.7036 33.7079C88.921 33.7072 89.1384 33.7049 89.3558 33.7025C89.4932 33.702 89.6307 33.7016 89.7682 33.7014C89.8661 33.7 89.8661 33.7 89.9661 33.6986C90.1492 33.6993 90.1492 33.6993 90.4429 33.7257C90.7718 34.2197 90.5433 34.9554 90.4614 35.5115C90.4417 35.6496 90.4417 35.6496 90.4215 35.7905C90.3867 36.0339 90.3515 36.2773 90.3161 36.5206C90.2663 36.8635 90.2166 37.2066 90.1675 37.5497C90.1414 37.7319 90.115 37.9141 90.0882 38.0963C90.0763 38.1791 90.0645 38.262 90.0522 38.3473C90.0417 38.4197 90.0311 38.4922 90.0203 38.5668C89.9967 38.7871 89.9939 39.0015 89.9977 39.2229C90.5773 38.4659 91.155 37.708 91.7181 36.9386C92.4599 35.9254 92.4599 35.9254 92.8178 35.4758C93.0265 35.2107 93.216 34.9485 93.3826 34.6547C93.8815 33.8203 93.8815 33.8203 94.345 33.6586C94.878 33.5645 95.41 33.6035 95.9471 33.6375C96.1094 33.6426 96.2718 33.6471 96.4342 33.651C96.729 33.6603 97.0236 33.6709 97.318 33.6888C97.4061 33.694 97.4061 33.694 97.4959 33.6994C97.6397 33.7257 97.6397 33.7257 97.788 33.8743C97.8302 34.2212 97.8381 34.4409 97.6272 34.726C97.5539 34.8131 97.4791 34.8991 97.4032 34.9839C97.3207 35.0813 97.2384 35.1788 97.1562 35.2764C97.1134 35.3266 97.0706 35.3768 97.0265 35.4285C96.8151 35.6818 96.6183 35.9459 96.4201 36.2097C96.0611 36.6836 95.6915 37.1475 95.3151 37.6077C95.0059 37.9864 94.7065 38.3715 94.4102 38.7603C94.2456 38.9762 94.0787 39.1901 93.9109 39.4035C93.841 39.4925 93.7712 39.5817 93.7017 39.6711C93.551 39.8643 93.3991 40.0534 93.2385 40.2385C93.1897 40.2956 93.1409 40.3526 93.0907 40.4114C93.0481 40.4589 93.0055 40.5064 92.9617 40.5554C92.8708 40.7108 92.8708 40.7108 92.9395 40.8967C93.0689 41.2294 93.2247 41.5446 93.3851 41.8632C93.4194 41.9318 93.4536 42.0004 93.4889 42.071C93.5616 42.2164 93.6345 42.3617 93.7075 42.5069C93.8166 42.724 93.9252 42.9413 94.0337 43.1587C94.4577 44.0061 94.8917 44.8474 95.3349 45.6849C95.5151 46.0259 95.693 46.3682 95.8683 46.7118C95.9039 46.7797 95.9394 46.8475 95.9761 46.9174C96.2994 47.5541 96.2994 47.5541 96.23 47.9143C96.1111 48.0708 96.0466 48.1304 95.8511 48.164C95.7909 48.1635 95.7308 48.163 95.6688 48.1625C95.6005 48.1624 95.5322 48.1624 95.4618 48.1624C95.3883 48.1613 95.3148 48.1601 95.2391 48.1589C95.1637 48.1586 95.0882 48.1583 95.0105 48.158C94.7693 48.1567 94.5282 48.1539 94.287 48.1511C94.1236 48.15 93.9602 48.149 93.7968 48.148C93.396 48.1456 92.9953 48.1419 92.5945 48.1372C92.2273 47.4608 91.879 46.7813 91.5604 46.0804C91.4782 45.9012 91.3959 45.7221 91.3135 45.543C91.2919 45.496 91.2703 45.4491 91.2481 45.4007C90.9277 44.7048 90.5985 44.013 90.2703 43.3208C90.1907 43.1528 90.1111 42.9848 90.0316 42.8167C90.0079 42.7668 89.9841 42.7168 89.9596 42.6653C89.84 42.4122 89.7271 42.1585 89.6268 41.8972C89.6023 41.8972 89.5778 41.8972 89.5526 41.8972C89.5428 41.9689 89.5331 42.0407 89.5231 42.1146C89.4312 42.7913 89.3385 43.4679 89.2449 44.1444C89.1968 44.4921 89.149 44.8399 89.1019 45.1878C89.0565 45.5237 89.0102 45.8594 88.9634 46.195C88.9457 46.323 88.9282 46.451 88.9111 46.5791C88.8871 46.7586 88.862 46.938 88.8366 47.1174C88.8298 47.1702 88.823 47.2231 88.8159 47.2775C88.7671 47.6131 88.6842 47.8923 88.4397 48.1372C88.2166 48.1456 87.9953 48.1494 87.7722 48.1496C87.7051 48.1499 87.6381 48.1501 87.569 48.1504C87.4268 48.1508 87.2847 48.1509 87.1426 48.1509C86.9245 48.1511 86.7065 48.1524 86.4885 48.1538C86.3506 48.1541 86.2128 48.1542 86.075 48.1543C86.0095 48.1548 85.9439 48.1554 85.8764 48.1559C85.4147 48.1542 85.4147 48.1542 85.2493 47.9886C85.1477 47.3321 85.3241 46.6113 85.4173 45.9591C85.4353 45.83 85.4534 45.7008 85.4713 45.5716C85.5201 45.2227 85.5695 44.8739 85.619 44.5251C85.6708 44.1596 85.7221 43.7939 85.7736 43.4283C85.8599 42.8149 85.9467 42.2016 86.0337 41.5883C86.1343 40.8793 86.2341 40.1701 86.3336 39.4608C86.4191 38.8513 86.505 38.2418 86.5912 37.6323C86.6427 37.2685 86.694 36.9048 86.745 36.5409C86.7929 36.1993 86.8412 35.8577 86.89 35.5162C86.9079 35.3908 86.9255 35.2654 86.943 35.14C86.9668 34.9689 86.9913 34.798 87.0159 34.6271C87.0295 34.5313 87.043 34.4356 87.0569 34.337C87.0983 34.1272 87.137 33.9781 87.2526 33.8C87.5062 33.673 87.7965 33.712 88.0756 33.7106ZM89.8493 39.2972C89.9235 39.4457 89.9235 39.4457 89.9235 39.4457L89.8493 39.2972Z" fill="#1C1724"/>
<path d="M197.8 33.5029C197.948 33.8357 198.07 34.1588 198.167 34.511C198.18 34.5573 198.193 34.6037 198.206 34.6515C198.249 34.8057 198.291 34.9601 198.333 35.1145C198.364 35.2265 198.395 35.3385 198.426 35.4505C198.493 35.6923 198.56 35.9342 198.627 36.1761C198.733 36.5621 198.84 36.948 198.946 37.3339C198.984 37.4679 199.021 37.6019 199.058 37.7359C199.076 37.8034 199.095 37.8709 199.114 37.9405C199.172 38.15 199.23 38.3595 199.288 38.569C199.585 39.6426 199.884 40.7158 200.184 41.7886C200.206 41.8671 200.228 41.9455 200.25 42.0264C200.381 42.4947 200.512 42.9629 200.643 43.4312C200.809 44.0246 200.974 44.6179 201.14 45.2113C201.213 45.4704 201.285 45.7295 201.358 45.9885C201.39 46.1047 201.422 46.221 201.454 46.3373C201.521 46.5769 201.588 46.8158 201.659 47.054C201.681 47.1259 201.702 47.1978 201.724 47.2719C201.751 47.3605 201.751 47.3605 201.778 47.4508C201.812 47.652 201.79 47.7937 201.732 47.9886C201.504 48.2164 201.236 48.1628 200.93 48.1647C200.865 48.1654 200.8 48.1661 200.733 48.1668C200.596 48.1678 200.458 48.1685 200.321 48.1688C200.11 48.1697 199.9 48.1733 199.69 48.1771C199.556 48.1778 199.422 48.1783 199.289 48.1787C199.226 48.1801 199.163 48.1816 199.098 48.183C199.039 48.1826 198.98 48.1821 198.92 48.1817C198.842 48.1822 198.842 48.1822 198.763 48.1828C198.616 48.1372 198.616 48.1372 198.319 47.7657C198.197 47.2264 198.074 46.6871 197.948 46.1314C196.479 46.1314 195.01 46.1314 193.496 46.1314C193.203 46.7198 192.909 47.3081 192.606 47.9143C192.272 48.165 192.272 48.165 191.996 48.1625C191.936 48.1624 191.875 48.1624 191.812 48.1624C191.747 48.1613 191.682 48.1601 191.615 48.1589C191.548 48.1586 191.481 48.1583 191.412 48.158C191.198 48.1567 190.984 48.1539 190.77 48.1511C190.625 48.15 190.479 48.149 190.334 48.148C189.979 48.1456 189.623 48.1417 189.267 48.1372C189.109 47.7959 189.109 47.7959 189.203 47.5243C189.251 47.4307 189.3 47.3379 189.351 47.2457C189.378 47.1943 189.405 47.1428 189.433 47.0897C189.729 46.5324 190.045 45.9858 190.36 45.4394C190.617 44.9945 190.868 44.5464 191.118 44.0979C191.452 43.4996 191.787 42.9021 192.124 42.3057C192.459 41.7124 192.793 41.118 193.125 40.5229C193.497 39.8573 193.871 39.1928 194.246 38.5292C194.453 38.163 194.66 37.7963 194.864 37.4287C195.347 36.5619 195.835 35.6995 196.338 34.8439C196.378 34.7752 196.418 34.7065 196.46 34.6357C196.517 34.5378 196.517 34.5378 196.576 34.4378C196.716 34.1954 196.848 33.9494 196.979 33.7019C197.163 33.4105 197.494 33.4979 197.8 33.5029ZM196.538 39.9657C196.122 40.7406 195.721 41.5211 195.342 42.315C195.306 42.3903 195.27 42.4656 195.233 42.5431C195.064 42.8396 195.064 42.8396 194.98 43.16C195.69 43.16 196.4 43.16 197.132 43.16C197.087 42.6687 197.045 42.2208 196.953 41.7431C196.943 41.6915 196.934 41.6399 196.924 41.5867C196.893 41.4255 196.862 41.2643 196.831 41.1032C196.809 40.9924 196.788 40.8816 196.767 40.7708C196.716 40.5024 196.664 40.234 196.613 39.9657C196.588 39.9657 196.564 39.9657 196.538 39.9657Z" fill="#1C1724"/>
<path d="M213.741 34.923C213.949 35.1051 213.97 35.1717 214.005 35.4488C213.965 35.8245 213.815 35.9755 213.562 36.2421C213.48 36.3326 213.399 36.4233 213.317 36.514C213.277 36.5577 213.237 36.6014 213.196 36.6464C213.004 36.8615 212.834 37.0918 212.662 37.323C212.519 37.4961 212.422 37.5135 212.199 37.5514C211.838 37.5477 211.595 37.33 211.306 37.1347C210.664 36.7327 209.985 36.5057 209.227 36.6228C208.914 36.7179 208.702 36.8423 208.485 37.0871C208.364 37.4189 208.349 37.6974 208.457 38.0299C208.798 38.6945 209.601 39.0872 210.215 39.4713C211.501 40.279 212.563 41.2706 212.999 42.783C213.196 43.7411 213.064 44.7077 212.714 45.6114C212.69 45.6753 212.665 45.7392 212.64 45.805C212.206 46.7992 211.302 47.5598 210.325 47.9813C208.814 48.5735 206.96 48.5856 205.463 47.9482C204.834 47.6627 204.012 47.2506 203.736 46.5771C203.795 46.0485 204.143 45.6414 204.441 45.2168C204.492 45.1424 204.544 45.0681 204.596 44.9914C204.972 44.4488 204.972 44.4488 205.146 44.2743C205.5 44.2164 205.695 44.2744 205.981 44.4739C206.037 44.5143 206.092 44.5547 206.15 44.5964C206.876 45.0866 207.618 45.2444 208.485 45.1657C208.815 45.0091 209.032 44.8071 209.227 44.4971C209.356 44.0486 209.266 43.7196 209.078 43.3086C208.793 42.838 208.434 42.5373 207.984 42.2314C207.864 42.1474 207.745 42.0632 207.625 41.979C207.569 41.9391 207.512 41.8993 207.453 41.8583C206.335 41.0691 205.268 40.0943 204.953 38.7057C204.78 37.3881 205.034 36.1598 205.819 35.073C206.202 34.6206 206.632 34.3062 207.149 34.0228C207.202 33.9932 207.256 33.9635 207.31 33.9329C209.428 32.8729 211.968 33.552 213.741 34.923Z" fill="#1C1724"/>
<path d="M185.786 33.6885C185.846 33.6878 185.907 33.6871 185.969 33.6863C186.034 33.6872 186.099 33.688 186.166 33.6889C186.233 33.6888 186.299 33.6887 186.368 33.6885C186.51 33.6887 186.651 33.6895 186.792 33.6911C187.009 33.6932 187.225 33.6926 187.442 33.6916C187.579 33.6921 187.716 33.6927 187.854 33.6935C187.951 33.6932 187.951 33.6932 188.051 33.6929C188.233 33.6957 188.233 33.6957 188.526 33.7257C188.713 34.0075 188.669 34.1854 188.626 34.5041C188.616 34.5916 188.616 34.5916 188.605 34.6809C188.579 34.8826 188.553 35.0842 188.526 35.2857C188.516 35.3592 188.506 35.4327 188.496 35.5084C188.416 36.1115 188.333 36.7141 188.248 37.3167C188.235 37.412 188.222 37.5074 188.208 37.6056C188.152 38.0069 188.096 38.4081 188.039 38.8092C187.96 39.377 187.88 39.9448 187.802 40.5127C187.746 40.9163 187.69 41.3199 187.633 41.7234C187.599 41.9624 187.565 42.2016 187.533 42.4408C187.023 46.1451 187.023 46.1451 185.706 47.3943C185.655 47.4431 185.604 47.492 185.552 47.5423C184.566 48.3956 183.233 48.443 181.997 48.36C181.144 48.2142 180.5 47.7099 179.993 47.0229C179.878 46.7919 179.897 46.6091 179.919 46.3543C180.051 46.1601 180.051 46.1601 180.233 45.9811C180.299 45.9161 180.365 45.8511 180.432 45.7841C180.536 45.6848 180.536 45.6848 180.643 45.5836C180.711 45.5157 180.779 45.4478 180.85 45.3778C181.422 44.8186 181.422 44.8186 181.7 44.7943C181.851 44.8845 181.851 44.8845 182.011 45.0125C182.305 45.2194 182.515 45.3114 182.877 45.2824C183.23 45.188 183.454 44.9685 183.635 44.6556C183.913 44.0083 183.98 43.3181 184.074 42.6261C184.095 42.4769 184.116 42.3277 184.137 42.1786C184.265 41.279 184.385 40.3786 184.506 39.4783C184.585 38.8912 184.665 38.3042 184.744 37.7173C184.805 37.273 184.864 36.8285 184.923 36.384C184.96 36.1028 184.998 35.8217 185.036 35.5406C185.054 35.408 185.071 35.2753 185.089 35.1426C185.112 34.9594 185.137 34.7763 185.162 34.5933C185.169 34.5395 185.176 34.4857 185.183 34.4303C185.241 34.0173 185.322 33.6886 185.786 33.6885Z" fill="#1C1724"/>
<path d="M160.474 33.69C160.555 33.691 160.555 33.691 160.636 33.692C160.728 33.692 160.728 33.692 160.821 33.6921C160.919 33.6944 160.919 33.6944 161.019 33.6967C161.086 33.6971 161.154 33.6976 161.223 33.698C161.437 33.6997 161.652 33.7034 161.867 33.7072C162.012 33.7087 162.158 33.71 162.303 33.7112C162.66 33.7145 163.017 33.7196 163.374 33.7257C163.56 34.0976 163.434 34.6443 163.379 35.0395C163.371 35.0938 163.364 35.148 163.356 35.2039C163.331 35.384 163.306 35.564 163.28 35.744C163.262 35.8737 163.244 36.0035 163.226 36.1333C163.177 36.4845 163.128 36.8356 163.078 37.1867C163.037 37.48 162.996 37.7734 162.955 38.0668C162.858 38.7587 162.761 39.4506 162.664 40.1424C162.563 40.8561 162.463 41.5698 162.364 42.2836C162.278 42.8969 162.192 43.5101 162.106 44.1233C162.055 44.4893 162.003 44.8554 161.952 45.2215C161.905 45.5655 161.856 45.9095 161.807 46.2534C161.79 46.3796 161.772 46.5058 161.754 46.632C161.731 46.8044 161.706 46.9766 161.682 47.1488C161.668 47.2452 161.654 47.3416 161.64 47.4409C161.541 47.9661 161.541 47.9661 161.371 48.1372C161.148 48.1465 160.926 48.1512 160.703 48.1523C160.636 48.1527 160.569 48.1531 160.5 48.1535C160.358 48.1542 160.216 48.1547 160.074 48.155C159.856 48.1557 159.638 48.158 159.419 48.1604C159.282 48.1609 159.144 48.1613 159.006 48.1615C158.908 48.1629 158.908 48.1629 158.807 48.1643C158.624 48.1636 158.624 48.1636 158.329 48.1372C158.167 47.8945 158.164 47.8709 158.201 47.6014C158.209 47.5363 158.218 47.4712 158.227 47.4042C158.237 47.3317 158.247 47.2593 158.258 47.1847C158.269 47.1068 158.279 47.0289 158.29 46.9487C158.327 46.6761 158.365 46.4038 158.403 46.1314C158.432 45.9226 158.46 45.7138 158.488 45.505C158.587 44.7761 158.689 44.0476 158.79 43.319C158.799 43.2536 158.808 43.1881 158.818 43.1206C158.904 42.5018 158.99 41.8829 159.077 41.2641C159.187 40.478 159.297 39.6918 159.405 38.9055C159.483 38.3489 159.56 37.7924 159.638 37.2359C159.685 36.9048 159.731 36.5736 159.777 36.2423C159.819 35.9321 159.863 35.6222 159.907 35.3122C159.923 35.1986 159.938 35.0849 159.954 34.9712C159.975 34.8161 159.997 34.6612 160.019 34.5063C160.031 34.4196 160.044 34.3329 160.056 34.2436C160.119 33.9814 160.196 33.7599 160.474 33.69Z" fill="#1C1724"/>
<path d="M101.416 33.69C101.496 33.691 101.496 33.691 101.578 33.692C101.669 33.692 101.669 33.692 101.762 33.6921C101.86 33.6944 101.86 33.6944 101.961 33.6967C102.028 33.6971 102.095 33.6976 102.164 33.698C102.379 33.6997 102.594 33.7034 102.808 33.7072C102.954 33.7087 103.099 33.71 103.245 33.7112C103.602 33.7145 103.958 33.7196 104.315 33.7257C104.501 34.0976 104.375 34.6443 104.32 35.0395C104.313 35.0938 104.305 35.148 104.297 35.2039C104.273 35.384 104.247 35.564 104.222 35.744C104.204 35.8737 104.185 36.0035 104.167 36.1333C104.119 36.4845 104.069 36.8356 104.02 37.1867C103.979 37.48 103.938 37.7734 103.897 38.0668C103.8 38.7587 103.703 39.4506 103.605 40.1424C103.505 40.8561 103.405 41.5698 103.305 42.2836C103.22 42.8969 103.134 43.5101 103.048 44.1233C102.996 44.4893 102.945 44.8554 102.894 45.2215C102.846 45.5655 102.798 45.9095 102.749 46.2534C102.731 46.3796 102.713 46.5058 102.696 46.632C102.672 46.8044 102.648 46.9766 102.623 47.1488C102.609 47.2452 102.596 47.3416 102.582 47.4409C102.483 47.9661 102.483 47.9661 102.312 48.1372C102.089 48.1465 101.868 48.1512 101.645 48.1523C101.578 48.1527 101.511 48.1531 101.441 48.1535C101.299 48.1542 101.157 48.1547 101.015 48.155C100.797 48.1557 100.579 48.158 100.361 48.1604C100.223 48.1609 100.085 48.1613 99.9474 48.1615C99.8491 48.1629 99.8491 48.1629 99.7488 48.1643C99.5651 48.1636 99.5651 48.1636 99.2701 48.1372C99.1086 47.8945 99.1053 47.8709 99.1423 47.6014C99.1508 47.5363 99.1593 47.4712 99.1681 47.4042C99.1785 47.3317 99.1889 47.2593 99.1996 47.1847C99.21 47.1068 99.2205 47.0289 99.2313 46.9487C99.2681 46.6761 99.3063 46.4038 99.3443 46.1314C99.3729 45.9226 99.4012 45.7138 99.4295 45.505C99.5287 44.7761 99.63 44.0476 99.7315 43.319C99.7407 43.2536 99.7498 43.1881 99.7592 43.1206C99.8455 42.5018 99.9319 41.8829 100.019 41.2641C100.129 40.478 100.238 39.6918 100.347 38.9055C100.424 38.3489 100.502 37.7924 100.58 37.2359C100.626 36.9048 100.673 36.5736 100.718 36.2423C100.761 35.9321 100.804 35.6222 100.848 35.3122C100.864 35.1986 100.88 35.0849 100.895 34.9712C100.916 34.8161 100.938 34.6612 100.961 34.5063C100.973 34.4196 100.985 34.3329 100.997 34.2436C101.061 33.9814 101.137 33.7599 101.416 33.69Z" fill="#1C1724"/>
<path d="M53.1582 24.7929C53.2125 24.7909 53.2669 24.789 53.3228 24.787C53.627 24.8308 53.8107 24.9685 53.9998 25.2061C54.5751 26.1407 54.99 27.0352 55.0038 28.145C55.0048 28.1989 55.0058 28.2528 55.0069 28.3084C55.0039 28.6413 54.9593 28.8565 54.7534 29.12C54.3901 29.3568 54.1757 29.3594 53.7147 29.4171C53.6657 28.9514 53.6167 28.4856 53.5663 28.0057C53.5173 28.447 53.4683 28.8882 53.4179 29.3429C53.001 29.4263 53.001 29.4263 52.7446 29.362C52.6894 29.3487 52.6341 29.3354 52.5772 29.3217C52.4906 29.3 52.4906 29.3 52.4024 29.2779C51.9246 29.1652 51.4617 29.0648 50.9695 29.0457C50.9042 29.0427 50.8389 29.0398 50.7716 29.0367C49.8436 29.0154 49.0117 29.0971 48.1594 29.4636C47.5723 29.7098 47.0628 29.7433 46.4298 29.7236C45.4446 29.6931 44.5754 29.8395 43.6243 30.0857C43.5058 30.1161 43.5058 30.1161 43.3849 30.147C43.074 30.2271 42.7633 30.3074 42.4536 30.3917C42.3529 30.4191 42.3529 30.4191 42.2503 30.447C42.1913 30.4633 42.1323 30.4796 42.0716 30.4964C41.9179 30.5314 41.9179 30.5314 41.6953 30.5314C41.7244 30.4472 41.7535 30.3629 41.7834 30.2761C42.1244 29.2453 42.4036 28.2503 42.4778 27.1616C42.4842 27.069 42.4906 26.9763 42.4972 26.8809C42.5019 26.8108 42.5066 26.7408 42.5114 26.6686C42.5903 26.6648 42.6692 26.6611 42.7505 26.6573C43.0468 26.6432 43.3432 26.6283 43.6395 26.6133C43.767 26.6069 43.8946 26.6007 44.0222 26.5947C45.344 26.551 45.344 26.551 46.5874 26.1439C47.1436 25.8672 47.5503 25.8068 48.1707 25.8952C48.4908 25.931 48.7525 25.9022 49.0683 25.8282C49.1216 25.8158 49.1749 25.8033 49.2298 25.7905C50.0146 25.6001 50.7899 25.3674 51.565 25.1414C51.6207 25.1252 51.6764 25.109 51.7338 25.0923C51.8391 25.0616 51.9443 25.0308 52.0495 24.9998C52.4189 24.892 52.7726 24.801 53.1582 24.7929Z" fill="#1C1724"/>
<path d="M220.576 22.88C220.705 22.9329 220.705 22.9329 220.836 22.9868C222.229 23.6233 223.179 24.7175 223.716 26.1484C224.162 27.4723 224.018 28.9969 223.423 30.2389C222.721 31.6185 221.617 32.4276 220.214 32.9951C218.896 33.4067 217.329 33.1877 216.121 32.5712C214.809 31.8572 213.909 30.6919 213.481 29.263C213.115 27.8121 213.374 26.3108 214.106 25.0308C214.834 23.8492 215.973 23.0443 217.302 22.6664C218.369 22.4496 219.563 22.4625 220.576 22.88ZM215.665 24.9275C214.812 25.8308 214.495 26.9253 214.492 28.141C214.544 29.2035 215.103 30.2579 215.87 30.9835C216.818 31.7315 217.835 32.0785 219.045 32.0012C219.941 31.8883 220.69 31.54 221.392 30.9772C221.462 30.9216 221.462 30.9216 221.533 30.8649C222.249 30.2224 222.691 29.2184 222.783 28.275C222.85 27.0214 222.492 26.0068 221.709 25.021C220.966 24.2038 219.899 23.7603 218.814 23.7024C217.615 23.6765 216.554 24.117 215.665 24.9275Z" fill="#1C1724"/>
<path d="M13.0586 28.2286C13.132 28.2531 13.2055 28.2776 13.2811 28.3029C13.3464 28.5365 13.3464 28.5365 13.3553 28.8229C13.2065 28.9969 13.0849 29.1105 12.9055 29.2454C12.8091 29.3227 12.7127 29.4001 12.6163 29.4775C12.5665 29.5166 12.5167 29.5556 12.4654 29.5959C12.232 29.7816 12.0082 29.9781 11.7834 30.1739C11.4159 30.4904 11.0434 30.7999 10.667 31.1057C10.44 31.2922 10.2167 31.4827 9.99345 31.6736C9.61767 31.9942 9.23342 32.302 8.84375 32.6055C8.4101 32.9442 7.98842 33.2962 7.56824 33.6514C8.01675 33.3572 8.45444 33.0518 8.88518 32.7321C8.94528 32.6877 9.00538 32.6432 9.06729 32.5974C9.72238 32.1111 10.3706 31.6159 11.018 31.1195C11.1948 30.984 11.3717 30.8487 11.5486 30.7134C11.6027 30.672 11.6568 30.6306 11.7126 30.5879C11.8169 30.5082 11.9213 30.4285 12.0257 30.3489C12.2691 30.163 12.5108 29.9756 12.7496 29.7839C12.7941 29.7486 12.8386 29.7132 12.8844 29.6768C13.0038 29.5817 13.1225 29.4858 13.2412 29.3899C13.3033 29.3498 13.3655 29.3098 13.4295 29.2686C13.503 29.2931 13.5764 29.3176 13.6521 29.3429C13.744 29.5367 13.8209 29.7223 13.8932 29.9232C13.9141 29.9771 13.9349 30.0309 13.9564 30.0864C14.126 30.5459 14.126 30.5459 14.0231 30.8286C13.8822 30.9803 13.8822 30.9803 13.6985 31.1396C13.6312 31.1983 13.564 31.2569 13.4947 31.3172C13.2231 31.5461 12.9477 31.7701 12.6717 31.9936C12.4609 32.1691 12.2586 32.3513 12.057 32.5371C11.7293 32.8387 11.3921 33.1235 11.0458 33.4033C10.8567 33.5576 10.6705 33.7146 10.485 33.8732C9.99127 34.2957 9.48615 34.7009 8.97299 35.0994C8.82014 35.2188 8.6683 35.3394 8.51653 35.4601C7.93929 35.9175 7.35448 36.3588 6.74748 36.7761C6.69103 36.815 6.63459 36.8539 6.57643 36.894C5.05696 37.9244 3.53902 37.7526 1.77001 37.4689C1.63276 37.44 1.63276 37.44 1.48438 37.3657C1.48438 37.3167 1.48438 37.2677 1.48438 37.2171C1.64131 37.1023 1.7983 36.9966 1.962 36.8921C2.06517 36.8248 2.16824 36.7573 2.27123 36.6896C2.35205 36.6366 2.35205 36.6366 2.43451 36.5825C3.40351 35.9385 4.33527 35.2374 5.26824 34.5429C5.31216 34.5102 5.35607 34.4775 5.40131 34.4439C6.59018 33.5584 7.75892 32.6464 8.90641 31.7079C9.18348 31.4817 9.46258 31.2587 9.74507 31.0393C10.3009 30.6076 10.8323 30.1518 11.3611 29.6876C11.5917 29.486 11.8243 29.2867 12.057 29.0875C12.0978 29.0525 12.1387 29.0174 12.1809 28.9813C12.2596 28.9138 12.3386 28.8465 12.4178 28.7794C12.5055 28.7034 12.5917 28.6257 12.6769 28.5469C12.7225 28.5053 12.7681 28.4638 12.8151 28.421C12.8564 28.3825 12.8977 28.344 12.9402 28.3043C12.9988 28.2668 12.9988 28.2668 13.0586 28.2286ZM7.34566 33.7257C7.27221 33.836 7.27221 33.836 7.19728 33.9486C7.29521 33.8995 7.39315 33.8505 7.49405 33.8C7.44508 33.7755 7.39612 33.751 7.34566 33.7257Z" fill="#1C1724"/>
<path d="M216.719 24.8857C217.38 24.8765 217.38 24.8765 218.054 24.8672C218.192 24.8645 218.33 24.8618 218.472 24.859C218.583 24.8581 218.694 24.8573 218.805 24.8567C218.89 24.8544 218.89 24.8544 218.976 24.8521C219.459 24.8518 219.835 24.998 220.208 25.3074C220.569 25.7462 220.701 26.1682 220.651 26.7429C220.53 27.206 220.338 27.5658 219.937 27.8432C219.761 27.9315 219.761 27.9315 219.612 27.9315C219.703 28.1157 219.794 28.2999 219.886 28.484C219.913 28.5383 219.94 28.5926 219.967 28.6486C220.139 28.9917 220.317 29.3272 220.517 29.6551C220.577 29.7886 220.577 29.7886 220.577 30.0857C220.21 30.0857 219.842 30.0857 219.464 30.0857C219.404 29.9472 219.344 29.8086 219.282 29.6658C219.22 29.532 219.159 29.3982 219.097 29.2646C219.054 29.172 219.013 29.0788 218.973 28.9851C218.915 28.8501 218.853 28.717 218.79 28.5841C218.754 28.5035 218.718 28.423 218.681 28.34C218.447 28.0604 218.447 28.0604 217.683 28.08C217.683 28.7419 217.683 29.4038 217.683 30.0857C217.365 30.0857 217.047 30.0857 216.719 30.0857C216.719 28.3697 216.719 26.6537 216.719 24.8857ZM217.757 25.7772C217.757 26.2675 217.757 26.7577 217.757 27.2629C218.037 27.2698 218.037 27.2698 218.323 27.2768C218.381 27.2788 218.439 27.2809 218.499 27.283C218.913 27.2879 219.222 27.2028 219.529 26.9054C219.645 26.6792 219.653 26.549 219.612 26.2972C219.458 26.0427 219.307 25.8733 219.019 25.7772C218.92 25.7712 218.82 25.7692 218.721 25.7699C218.67 25.7701 218.62 25.7703 218.568 25.7705C218.504 25.7711 218.44 25.7718 218.374 25.7725C218.171 25.7741 217.967 25.7756 217.757 25.7772Z" fill="#1C1724"/>
<path d="M23.37 11.96C23.4435 12.0091 23.5169 12.0581 23.5926 12.1086C23.5681 12.3292 23.5436 12.5499 23.5184 12.7772C23.3225 12.6791 23.1267 12.5811 22.9248 12.48C22.908 12.549 22.8912 12.6179 22.8738 12.689C22.7765 12.9257 22.7765 12.9257 22.6095 13.0697C22.3532 13.1688 22.2205 13.1593 21.9603 13.0743C21.7665 12.8996 21.7401 12.8066 21.7192 12.545C21.7378 12.3315 21.7378 12.3315 21.8119 12.1829C21.4427 12.0685 21.087 11.9967 20.7037 11.9507C20.6529 11.9443 20.6022 11.9379 20.5499 11.9313C20.4266 11.9157 20.3031 11.9007 20.1797 11.8857C20.1797 11.8367 20.1797 11.7877 20.1797 11.7372C21.1585 11.4543 22.4298 11.591 23.37 11.96ZM22.1087 12.1829C22.1087 12.3055 22.1087 12.428 22.1087 12.5543C22.2556 12.6279 22.2556 12.6279 22.4055 12.7029C22.5568 12.6016 22.5568 12.6016 22.7023 12.48C22.7023 12.431 22.7023 12.382 22.7023 12.3315C22.4867 12.2381 22.3464 12.1829 22.1087 12.1829Z" fill="#1C1724"/>
<path d="M25.7551 12.0204C25.8455 12.0209 25.936 12.0213 26.0292 12.0218C26.2651 12.0343 26.2651 12.0343 26.4877 12.1086C26.4877 12.1576 26.4877 12.2066 26.4877 12.2572C26.2919 12.2817 26.096 12.3062 25.8942 12.3314C25.9095 12.4004 25.9248 12.4693 25.9405 12.5404C25.9684 12.7772 25.9684 12.7772 25.82 13C25.6391 13.0372 25.6391 13.0372 25.449 13C25.3145 12.8143 25.3145 12.8143 25.2264 12.6286C25.104 12.6776 24.9816 12.7266 24.8555 12.7772C24.8555 12.581 24.8555 12.3849 24.8555 12.1829C25.1639 12.0344 25.4147 12.0164 25.7551 12.0204ZM25.5557 12.4429C25.5205 12.4796 25.4853 12.5164 25.449 12.5543C25.5592 12.6278 25.5592 12.6278 25.6716 12.7029C25.6961 12.5803 25.7206 12.4577 25.7458 12.3314C25.6537 12.3229 25.6537 12.3229 25.5557 12.4429Z" fill="#1C1724"/>
</svg>
