<svg width="261" height="59" viewBox="0 0 261 59" fill="none" xmlns="http://www.w3.org/2000/svg">
<path d="M23.4905 5.81598C23.5602 5.83273 23.6299 5.84948 23.7017 5.86673C25.9942 6.43086 28.5623 7.54752 29.9208 9.57723C30.4104 10.4605 30.5386 11.5701 30.647 12.5588C30.6564 12.6442 30.6659 12.7296 30.6756 12.8176C30.7682 13.8517 30.7388 14.8932 30.7312 15.9303C30.8564 15.7834 30.9808 15.6357 31.1048 15.4878C31.1741 15.4056 31.2435 15.3235 31.3149 15.2389C31.4677 15.0318 31.5404 14.916 31.5731 14.666C31.4064 14.5269 31.2397 14.3878 31.0679 14.2446C31.1184 13.9617 31.2234 13.7913 31.4047 13.5703C31.756 13.614 31.9313 13.7145 32.1888 13.9548C32.2475 14.0088 32.3062 14.0628 32.3667 14.1185C32.4104 14.1601 32.4542 14.2017 32.4992 14.2446C32.8333 14.1128 33.0394 13.8803 33.2728 13.6177C33.3136 13.5725 33.3544 13.5273 33.3965 13.4807C33.6499 13.1977 33.8926 12.9078 34.1305 12.6115C34.5187 12.1285 34.939 11.6797 35.3621 11.2277C35.7307 10.834 36.0818 10.4266 36.431 10.0158C36.8481 9.5257 37.2674 9.03915 37.7034 8.56581C37.7782 8.48432 37.853 8.40283 37.93 8.31888C38.0629 8.17521 38.1968 8.03242 38.3319 7.89086C38.3867 7.83197 38.4416 7.77309 38.498 7.71241C38.5453 7.66287 38.5927 7.61332 38.6414 7.56228C38.7484 7.42033 38.7484 7.42033 38.7075 7.24226C38.6411 7.06922 38.5644 6.90649 38.477 6.74313C38.6159 6.57624 38.7548 6.40936 38.8979 6.23741C39.3277 6.36633 39.6035 6.63323 39.9293 6.9275C40.0411 7.02664 40.153 7.12563 40.2651 7.22448C40.3191 7.27215 40.3731 7.31982 40.4288 7.36893C40.7219 7.62325 41.0286 7.85971 41.3396 8.0917C41.2736 8.41716 41.1351 8.59853 40.9186 8.85027C40.7519 8.79464 40.5852 8.73901 40.4134 8.6817C40.0279 9.05867 39.6572 9.44236 39.3054 9.85116C38.9429 10.2704 38.568 10.6789 38.1968 11.0904C37.9109 11.4078 37.6257 11.7254 37.3456 12.0479C37.038 12.4016 36.7217 12.7473 36.406 13.0939C36.24 13.2773 36.0763 13.4622 35.9143 13.6493C35.6634 13.9386 35.4053 14.2209 35.1461 14.5027C34.8173 14.8599 34.4954 15.2213 34.1831 15.5931C34.4609 15.8435 34.7388 16.0938 35.025 16.3517C34.8137 16.8807 34.8137 16.8807 34.6041 17.026C34.2962 16.9912 34.1333 16.8469 33.9095 16.6414C33.85 16.5874 33.7905 16.5334 33.7292 16.4778C33.6845 16.4362 33.6398 16.3946 33.5937 16.3517C33.1217 16.9316 33.1217 16.9316 32.6834 17.537C32.4992 17.7846 32.4992 17.7846 32.2466 17.8688C34.7679 17.8902 37.2927 17.8407 39.8114 17.726C42.0786 17.6255 42.0786 17.6255 43.0228 18.3736C43.1918 18.5431 43.1918 18.5431 43.3337 18.8033C43.5062 19.0738 43.5062 19.0738 43.7983 19.1076C43.958 19.1044 43.958 19.1044 44.1209 19.1012C44.1797 19.1007 44.2386 19.1003 44.2992 19.0998C44.4932 19.0976 44.687 19.0917 44.8809 19.0857C45.0163 19.0832 45.1516 19.0809 45.2869 19.0787C45.5688 19.0738 45.8506 19.0672 46.1324 19.0595C46.4811 19.0502 46.8297 19.0451 47.1785 19.0419C47.4423 19.0393 47.7061 19.0352 47.9699 19.0308C48.0945 19.0288 48.219 19.0272 48.3435 19.0262C49.5853 19.0132 50.5216 18.6621 51.602 18.0751C52.5311 17.6037 53.5285 17.676 54.5421 17.7582C54.6404 17.7656 54.7386 17.7731 54.8399 17.7807C56.0972 17.8821 57.3485 18.0435 58.5992 18.206C58.627 18.2894 58.6548 18.3729 58.6834 18.4588C57.8082 18.4171 57.8082 18.4171 56.9154 18.3746C57.4988 18.458 58.0823 18.5414 58.6834 18.6274C58.5992 19.2174 58.5992 19.2174 58.515 19.3017C58.3526 19.3031 58.1902 19.2986 58.028 19.2915C57.8802 19.2854 57.8802 19.2854 57.7295 19.2791C57.6258 19.2744 57.5221 19.2697 57.4153 19.2648C57.3112 19.2604 57.2072 19.256 57.1 19.2515C56.842 19.2405 56.584 19.2291 56.326 19.2174C56.3782 19.2242 56.4305 19.231 56.4843 19.2379C56.721 19.2691 56.9576 19.3012 57.1942 19.3333C57.2765 19.344 57.3587 19.3546 57.4434 19.3656C57.5223 19.3764 57.6013 19.3873 57.6826 19.3985C57.7918 19.4131 57.7918 19.4131 57.9031 19.4279C58.0941 19.4703 58.0941 19.4703 58.3466 19.6388C58.2661 19.7478 58.1854 19.8567 58.1046 19.9654C58.0597 20.0261 58.0147 20.0867 57.9684 20.1492C57.7417 20.442 57.6153 20.5124 57.2521 20.566C57.1088 20.5786 56.9653 20.5885 56.8216 20.5963C55.4933 20.6786 54.1441 20.8165 52.8741 21.2403C52.9805 21.2393 53.087 21.2383 53.1967 21.2373C53.3365 21.2365 53.4762 21.2357 53.616 21.235C53.6862 21.2343 53.7564 21.2336 53.8286 21.2329C53.93 21.2325 53.93 21.2325 54.0334 21.232C54.0955 21.2316 54.1577 21.2312 54.2218 21.2307C54.3895 21.2403 54.3895 21.2403 54.6421 21.3246C54.5201 21.5861 54.3768 21.8142 54.2054 22.0463C54.1359 22.1429 54.1359 22.1429 54.0649 22.2415C53.5789 22.7227 52.8275 22.796 52.1847 22.9365C52.0874 22.9588 51.9901 22.9811 51.8899 23.004C50.1027 23.3998 50.1027 23.3998 49.3274 22.9945C49.2697 22.9674 49.212 22.9404 49.1525 22.9125C48.9121 22.7997 48.6785 22.6812 48.4477 22.5497C47.7363 22.1806 46.9669 22.4316 46.2228 22.5888C46.1353 22.6069 46.0479 22.625 45.9578 22.6437C45.5946 22.7188 45.2314 22.794 44.8691 22.8731C44.7462 22.8998 44.7462 22.8998 44.6208 22.927C44.5481 22.943 44.4754 22.9591 44.4005 22.9756C44.2021 23.0103 44.2021 23.0103 43.8654 23.0103C43.8783 22.9285 43.8912 22.8466 43.9045 22.7624C43.9565 22.3982 43.9777 22.0341 43.9969 21.667C44.0005 21.6013 44.0042 21.5356 44.0079 21.4679C44.0168 21.3078 44.0253 21.1476 44.0337 20.9874C43.9782 20.9874 43.9226 20.9874 43.8654 20.9874C43.8601 21.0726 43.8549 21.1578 43.8496 21.2455C43.6969 22.4424 43.1349 23.8241 42.1733 24.5824C41.5362 25.0298 40.9472 25.2367 40.1756 25.2523C40.1046 25.2546 40.0336 25.257 39.9604 25.2595C39.7273 25.267 39.4942 25.2729 39.261 25.2787C39.0972 25.2837 38.9334 25.2888 38.7696 25.2941C38.3388 25.3075 37.9081 25.3196 37.4773 25.3314C36.9577 25.3458 36.4382 25.3616 35.9186 25.3774C35.5135 25.3897 35.1083 25.4018 34.7032 25.4129C33.8264 25.4378 32.9533 25.4788 32.0783 25.5388C32.0505 25.066 32.0227 24.5932 31.9941 24.106C31.6896 25.4199 31.3987 26.7274 31.2363 28.0674C31.2282 28.1284 31.2201 28.1894 31.2117 28.2522C31.13 28.9369 31.1428 29.6232 31.1469 30.3115C31.1473 30.4376 31.1477 30.5637 31.148 30.6898C31.1489 30.9957 31.1504 31.3015 31.1521 31.6074C31.2077 31.4962 31.2633 31.3849 31.3205 31.2703C31.3205 31.5484 31.3205 31.8266 31.3205 32.1131C31.1934 32.1681 31.0663 32.2231 30.9354 32.2797C30.0488 32.664 29.1633 33.0487 28.2896 33.4617C28.7876 33.2996 29.2782 33.1239 29.7679 32.9384C31.2812 32.3663 32.8133 31.8548 34.3515 31.3546C34.4097 31.3356 34.4679 31.3166 34.5279 31.2971C36.9227 30.5169 39.3585 29.7555 41.8447 29.3317C41.8447 29.2483 41.8447 29.1648 41.8447 29.0788C41.9003 29.0788 41.9558 29.0788 42.0131 29.0788C42.0131 29.1345 42.0131 29.1901 42.0131 29.2474C42.1085 29.2469 42.1085 29.2469 42.2058 29.2463C42.8054 29.2429 43.4049 29.2403 44.0045 29.2387C44.3128 29.2378 44.621 29.2366 44.9292 29.2347C45.2268 29.2329 45.5243 29.2319 45.8218 29.2314C45.9904 29.231 46.1591 29.2296 46.3277 29.2283C46.4305 29.2283 46.5333 29.2283 46.6392 29.2283C46.7297 29.2279 46.8202 29.2275 46.9134 29.2271C47.1533 29.2478 47.2883 29.28 47.4857 29.416C48.1634 30.7227 47.7944 32.4629 47.3857 33.8146C46.9654 35.1183 46.2699 36.6317 45.0441 37.3388C44.4669 37.6112 43.902 37.7482 43.276 37.8551C40.2021 38.4293 37.2319 39.5733 34.3553 40.7725C34.2284 40.8251 34.2284 40.8251 34.0989 40.8788C33.9857 40.9302 33.9857 40.9302 33.8702 40.9826C33.6779 41.0474 33.6779 41.0474 33.4254 40.9631C33.4881 40.9238 33.4881 40.9238 33.5522 40.8837C34.7444 40.1355 35.9208 39.3712 37.072 38.561C37.134 38.5174 37.196 38.4738 37.2598 38.429C37.3173 38.3882 37.3748 38.3475 37.4341 38.3055C37.4851 38.2694 37.5362 38.2332 37.5888 38.196C37.7316 38.0928 37.7316 38.0928 37.8876 37.9288C35.4794 39.0909 33.1794 40.3777 31.1699 42.1639C30.5496 42.7046 29.871 43.1296 29.1683 43.5549C28.4313 44.0038 27.7028 44.4616 26.9898 44.9479C26.7177 45.1311 26.5843 45.1879 26.262 45.187C26.1558 45.187 26.1558 45.187 26.0475 45.187C25.9327 45.1863 25.9327 45.1863 25.8157 45.1856C25.7375 45.1855 25.6592 45.1854 25.5786 45.1853C25.3281 45.1848 25.0776 45.1838 24.8271 45.1827C24.6575 45.1823 24.4879 45.1819 24.3183 45.1815C23.9021 45.1806 23.4858 45.1791 23.0695 45.1774C23.1571 45.1872 23.2446 45.197 23.3347 45.207C23.6598 45.2434 23.985 45.2801 24.31 45.3168C24.4507 45.3327 24.5913 45.3485 24.7319 45.3642C24.9342 45.3867 25.1365 45.4096 25.3388 45.4326C25.4015 45.4395 25.4643 45.4465 25.5289 45.4536C25.9863 45.5059 25.9863 45.5059 26.1969 45.5665C26.4237 45.6135 26.6093 45.5678 26.8359 45.5238C26.9779 45.4968 26.9779 45.4968 27.1228 45.4692C27.2231 45.4494 27.3233 45.4296 27.4266 45.4092C27.6322 45.3694 27.8379 45.3297 28.0435 45.29C28.1932 45.2608 28.1932 45.2608 28.346 45.231C28.586 45.1851 28.8261 45.1421 29.067 45.1017C29.129 45.0911 29.191 45.0804 29.2549 45.0695C29.4145 45.0424 29.5743 45.0161 29.734 44.9897C30.1601 44.8737 30.2809 44.5956 30.4996 44.2292C30.9431 43.5267 31.4329 42.9872 32.2466 42.7331C33.1722 42.5921 33.9932 42.8604 34.8566 43.1546C35.0563 43.2221 35.2559 43.2895 35.4556 43.3568C35.5813 43.3995 35.7068 43.4428 35.832 43.487C36.6542 43.771 37.4294 43.8591 38.2981 43.8552C38.4467 43.8551 38.4467 43.8551 38.5982 43.855C39.2898 43.8479 39.9567 43.7886 40.636 43.6586C41.0337 43.5839 41.3589 43.5646 41.7605 43.6603C42.0571 43.9571 42.1677 44.1952 42.2091 44.6131C42.1751 44.9971 42.0651 45.1436 41.8237 45.4408C41.7676 45.5105 41.7676 45.5105 41.7104 45.5816C41.3465 46.0273 40.9561 46.4494 40.5614 46.8677C40.3707 47.0701 40.188 47.2778 40.0082 47.49C39.5637 48.0007 39.0733 48.5043 38.3631 48.5661C37.7553 48.5739 37.2164 48.4754 36.63 48.3223C36.5388 48.2996 36.4477 48.2769 36.3538 48.2534C35.9209 48.1451 35.4891 48.0325 35.0576 47.9187C34.3492 47.7334 33.6833 47.5757 32.9485 47.5493C32.7518 47.5374 32.7518 47.5374 32.5834 47.4531C32.4182 47.5207 32.4182 47.5207 32.2466 47.6217C32.1694 47.6628 32.1694 47.6628 32.0907 47.7048C31.4109 48.0766 30.7371 48.453 30.0839 48.8702C29.2969 49.3717 28.4842 49.827 27.6687 50.2802C27.5335 50.3554 27.3985 50.4308 27.2636 50.5066C26.6366 50.8592 25.9989 51.1688 25.3375 51.4514C25.2703 51.4803 25.2031 51.5092 25.1339 51.5389C24.7827 51.6851 24.4612 51.7926 24.0799 51.836C24.1447 51.7166 24.2096 51.5972 24.2746 51.4778C24.3433 51.3508 24.3433 51.3508 24.4134 51.2213C24.5407 50.9876 24.6719 50.7563 24.8041 50.5253C25.3234 49.6103 25.7498 48.6981 26.1005 47.706C26.0656 47.7757 26.0306 47.8455 25.9946 47.9174C25.285 49.3042 24.4277 50.6122 23.5065 51.8668C23.4008 52.0121 23.2973 52.1587 23.1942 52.3058C21.6306 54.5337 21.6306 54.5337 20.9042 54.679C20.2426 54.7571 19.5794 54.6955 18.923 54.6016C18.8436 54.5903 18.7642 54.579 18.6824 54.5674C17.3775 54.3736 16.1078 54.0758 14.8449 53.6955C14.7565 53.6693 14.668 53.643 14.5769 53.616C12.8209 53.0689 12.8209 53.0689 12.377 52.3417C11.8108 51.2373 11.6816 50.1399 11.6718 48.9176C11.6707 48.8232 11.6695 48.7289 11.6683 48.6316C11.6807 46.43 12.9621 44.927 14.3134 43.3231C14.3516 43.2778 14.3898 43.2324 14.4291 43.1856C14.9541 42.563 15.4914 41.954 16.044 41.3559C16.2588 41.122 16.4671 40.8835 16.6745 40.6431C16.8112 40.489 16.95 40.3378 17.0908 40.1874C17.136 40.1391 17.1811 40.0907 17.2277 40.0409C17.3175 39.945 17.4076 39.8493 17.4981 39.754C17.6814 39.5581 17.8351 39.3885 17.963 39.151C18.1776 38.826 18.4775 38.633 18.7915 38.4082C18.8618 38.3573 18.9321 38.3063 19.0045 38.2538C21.1341 36.7234 23.3644 35.3651 25.6796 34.136C25.7597 34.0933 25.8398 34.0506 25.9223 34.0066C27.0067 33.4298 28.101 32.8816 29.2157 32.366C27.2488 33.0376 25.3102 33.7585 23.4223 34.6289C23.3258 34.6733 23.2292 34.7177 23.1297 34.7635C23.0447 34.8031 22.9598 34.8426 22.8722 34.8834C22.6841 34.9637 22.5114 35.0217 22.3118 35.0631C22.4437 34.7319 22.6733 34.5272 22.9275 34.2888C26.0976 31.2095 27.8418 26.6484 28.3737 22.336C28.3572 22.3993 28.3407 22.4626 28.3237 22.5278C28.2479 22.8169 28.1714 23.1059 28.0949 23.3948C28.0559 23.5442 28.0559 23.5442 28.0161 23.6966C27.8853 24.1888 27.7512 24.6573 27.5318 25.1174C27.0715 24.9892 26.698 24.7713 26.2952 24.5221C26.2287 24.4813 26.1622 24.4405 26.0937 24.3984C25.5529 24.0604 25.0613 23.6885 24.585 23.2631C24.585 23.4906 24.9325 23.7213 25.0863 23.8767C25.7696 24.5464 26.5655 25.0993 27.3634 25.6231C26.265 28.952 24.5045 32.0427 22.1818 34.6686C22.09 34.7747 22.0013 34.8833 21.9142 34.9932C21.4914 35.5079 21.0619 35.7852 20.4648 36.0693C20.293 36.1549 20.1213 36.2409 19.9498 36.3271C19.8232 36.3903 19.8232 36.3903 19.694 36.4548C19.3362 36.6382 18.9895 36.8381 18.6441 37.0438C18.5876 37.0773 18.5312 37.1108 18.473 37.1452C18.2223 37.2952 17.9773 37.4497 17.7367 37.6154C17.5128 37.7603 17.5128 37.7603 17.3444 37.7603C17.3297 37.708 17.315 37.6557 17.2999 37.6019C16.702 35.5018 15.9238 33.4632 14.913 31.5258C14.8691 31.4408 14.8691 31.4408 14.8244 31.3541C14.7622 31.238 14.6966 31.1238 14.6283 31.0113C14.5319 30.8448 14.4526 30.6961 14.3976 30.5117C14.4752 30.2246 14.4752 30.2246 14.6291 29.9638C14.6791 29.8761 14.729 29.7883 14.7804 29.6978C14.8208 29.6326 14.8612 29.5674 14.9028 29.5003C15.5593 29.5469 16.1966 29.662 16.8411 29.7931C17.0072 29.8268 17.1735 29.8596 17.3398 29.8924C19.0402 30.2346 19.0402 30.2346 19.2808 30.596C19.2895 30.6603 19.2982 30.7246 19.3071 30.7909C19.4056 31.1762 19.6256 31.4092 19.9409 31.6331C21.0754 32.2465 22.9865 31.6072 24.1641 31.2703C24.1755 31.2007 24.1869 31.1312 24.1987 31.0596C24.2422 30.7952 24.2859 30.5308 24.3296 30.2665C24.349 30.1492 24.3684 30.032 24.3877 29.9148C24.5121 29.1623 24.642 28.4119 24.7972 27.6651C24.9181 26.8517 24.7192 26.3761 24.2483 25.7074C23.9498 25.3497 23.636 24.9931 23.1528 24.925C22.4653 24.9256 21.798 25.0445 21.1226 25.1596C20.943 25.19 20.7635 25.2202 20.5838 25.2497C20.4213 25.2765 20.2588 25.304 20.0964 25.3316C19.7625 25.3732 19.4485 25.3768 19.1125 25.3703C19.1125 25.4259 19.1125 25.4815 19.1125 25.5388C19.4878 25.527 19.8632 25.5145 20.2385 25.502C20.3439 25.4987 20.4493 25.4953 20.5579 25.4919C21.2388 25.4687 21.9097 25.4216 22.5854 25.3354C22.9672 25.3061 23.2248 25.3096 23.5556 25.5158C23.7758 25.7084 23.9698 25.9102 24.1641 26.1288C24.2183 26.1803 24.2726 26.2318 24.3285 26.2849C24.6365 26.612 24.7076 26.9003 24.7271 27.3457C24.69 28.2698 24.5908 30.4216 23.9115 31.1017C23.5398 31.1597 23.1647 31.1938 22.7907 31.2334C22.6871 31.2451 22.5835 31.2568 22.4767 31.2688C20.5676 31.4737 20.5676 31.4737 19.9902 31.0549C19.8244 30.8867 19.786 30.7457 19.786 30.5117C19.6471 30.4839 19.5082 30.4561 19.365 30.4274C19.4762 30.344 19.5873 30.2605 19.7018 30.1746C18.5967 29.2309 16.3564 29.3961 14.987 29.416C15.0368 29.1485 15.098 28.8937 15.184 28.6357C15.2057 28.5695 15.2274 28.5033 15.2497 28.4351C15.2724 28.3659 15.2951 28.2967 15.3185 28.2254C15.8148 26.7105 15.8148 26.7105 15.5678 25.1783C15.3835 24.8246 15.2237 24.7192 14.8449 24.5906C14.2302 24.4725 13.5892 24.5145 12.9663 24.5274C13.0177 24.5363 13.069 24.5452 13.1219 24.5543C13.3561 24.5954 13.5901 24.6378 13.824 24.6802C13.9048 24.6941 13.9856 24.7081 14.0689 24.7225C14.8329 24.8627 14.8329 24.8627 15.1554 25.1174C15.6051 26.0178 15.111 27.4366 14.8186 28.3203C14.6985 28.6767 14.5737 29.031 14.445 29.3844C14.4148 29.4683 14.3845 29.5521 14.3534 29.6386C13.9735 30.6444 13.3988 31.5209 12.3928 31.9814C10.681 32.6775 8.5791 31.6593 6.98858 31.0174C4.90716 30.1159 4.90716 30.1159 4.37858 29.2474C4.19246 28.6576 4.18337 28.0483 4.18915 27.4353C4.19 27.3029 4.19 27.3029 4.19087 27.1679C4.22992 24.1897 4.22992 24.1897 4.8992 23.377C5.16596 23.1541 5.4424 22.9803 5.74673 22.8154C5.81056 22.7804 5.87439 22.7455 5.94015 22.7095C7.08251 22.0947 8.25574 21.5375 9.43019 20.9874C9.48349 20.9624 9.53679 20.9374 9.59171 20.9116C11.7297 19.911 15.6024 18.1712 18.0179 18.6274C18.1925 18.7748 18.3416 18.9372 18.4965 19.1051C19.8497 20.469 21.8888 21.3586 23.7431 21.746C23.6957 21.7265 23.6483 21.7071 23.5995 21.687C22.6872 21.3104 21.7958 20.9318 20.9548 20.4109C20.7724 20.2984 20.5883 20.1887 20.4043 20.0787C19.1157 19.2984 18.0036 18.5433 17.5707 17.0154C17.5018 16.6267 17.4592 16.2395 17.4286 15.846C17.3504 15.839 17.2723 15.8321 17.1918 15.8249C16.9234 15.7617 16.9234 15.7617 16.7708 15.6037C16.5956 15.2898 16.5772 15.0455 16.5814 14.6923C16.5821 14.6086 16.5829 14.5248 16.5837 14.4385C16.5847 14.3745 16.5856 14.3105 16.5866 14.2446C16.5152 14.222 16.4438 14.1994 16.3702 14.1761C16.0728 14.073 15.7901 13.9513 15.5027 13.8231C14.5635 13.4173 13.607 13.1889 12.5927 13.5176C12.106 13.7441 11.8924 14.1378 11.6192 14.5817C11.4996 14.7513 11.3786 14.9199 11.2561 15.0874C11.2009 15.1639 11.1457 15.2404 11.0887 15.3192C10.9457 15.5088 10.9457 15.5088 10.7773 15.6774C10.7686 15.7313 10.7599 15.7852 10.751 15.8407C10.6669 16.0932 10.4978 16.1324 10.2721 16.2674C10.1346 16.3894 9.99961 16.5142 9.86695 16.6414C9.32999 17.129 8.88774 17.4358 8.14197 17.4003C7.09075 17.2282 6.25572 16.5236 5.4731 15.846C5.52167 15.5789 5.59236 15.4429 5.78652 15.2547C5.85449 15.1878 5.85449 15.1878 5.92383 15.1197C5.97131 15.0743 6.01879 15.0288 6.06771 14.9821C6.11552 14.9353 6.16333 14.8886 6.21259 14.8405C6.33037 14.7255 6.44892 14.6114 6.56761 14.4974C6.87058 14.6319 7.10815 14.819 7.36745 15.0242C8.02593 15.5295 8.7445 16.0146 9.59858 16.0146C9.85798 15.9794 10.1106 15.938 10.3563 15.846C10.3841 15.7904 10.4119 15.7347 10.4405 15.6774C10.4961 15.6774 10.5517 15.6774 10.6089 15.6774C10.6288 15.6212 10.6486 15.5651 10.6691 15.5072C11.2373 14.188 12.2866 12.7877 13.628 12.2006C13.6875 12.1798 13.747 12.1589 13.8083 12.1374C13.3185 11.5969 12.4927 11.3208 11.7876 11.2103C11.3041 11.2544 10.994 11.7105 10.6931 12.0531C10.579 12.2151 10.4667 12.3784 10.3563 12.543C10.0471 12.9829 9.77372 13.1703 9.26181 13.3174C9.20537 13.336 9.14894 13.3546 9.09079 13.3737C8.92337 13.4233 8.76049 13.4576 8.58826 13.486C8.4914 13.5026 8.4914 13.5026 8.39257 13.5196C8.1857 13.5394 8.03125 13.5406 7.83052 13.486C7.61666 13.2958 7.51937 13.0729 7.40955 12.8117C7.37949 12.7431 7.34942 12.6746 7.31845 12.6039C6.69788 10.9822 6.65815 9.02182 6.98858 7.33313C7.20622 7.00631 7.35733 6.998 7.73054 6.8959C7.83353 6.86689 7.93653 6.83788 8.04265 6.80799C8.29663 6.75177 8.49945 6.7377 8.75665 6.74313C8.75066 6.80579 8.74468 6.86845 8.73852 6.93302C8.57337 8.72428 8.55557 10.328 9.09342 12.0531C9.14899 12.0531 9.20456 12.0531 9.26181 12.0531C9.34733 11.9665 9.42917 11.8763 9.50913 11.7845C10.3309 10.9518 11.8556 10.6086 12.9979 10.5729C14.5905 10.645 15.8276 11.5822 17.0076 12.5588C17.2176 12.4574 17.4018 12.352 17.597 12.2217C17.7081 12.2217 17.8192 12.2217 17.9337 12.2217C17.9615 12.3608 17.9893 12.4998 18.0179 12.6431C18.384 10.8546 18.5967 9.05981 18.2705 7.24884C18.3539 7.24884 18.4372 7.24884 18.5231 7.24884C18.1765 6.79233 17.8498 6.53442 17.3424 6.2677C17.2875 6.22989 17.2326 6.19208 17.176 6.15313C17.176 6.06968 17.176 5.98624 17.176 5.90027C17.3002 5.85898 17.4249 5.81884 17.5496 5.77911C17.619 5.75662 17.6883 5.73413 17.7598 5.71096C19.4717 5.2896 21.7858 5.39135 23.4905 5.81598ZM18.6915 7.5017C18.7757 7.67027 18.7757 7.67027 18.7757 7.67027L18.6915 7.5017ZM21.8066 12.4746C21.4925 13.4181 21.7897 14.4765 22.1763 15.3528C22.406 15.8042 22.6173 16.1915 23.0695 16.436C23.5249 16.3503 23.9322 16.2017 24.3535 16.0093C24.4098 15.9842 24.466 15.9591 24.524 15.9332C24.713 15.8486 24.9016 15.7631 25.0902 15.6774C25.3138 15.5759 25.5374 15.4745 25.761 15.3732C25.9072 15.3069 26.0533 15.2404 26.1993 15.1735C27.3567 14.6472 27.3567 14.6472 27.9528 14.7503C28.5301 14.9691 28.9798 15.3827 29.436 15.7874C29.5022 15.8345 29.5684 15.8817 29.6366 15.9303C29.72 15.9025 29.8034 15.8746 29.8892 15.846C29.9732 15.6671 29.9732 15.6671 30.026 15.4509C30.0462 15.3793 30.0664 15.3077 30.0872 15.2339C30.2028 14.7454 30.2371 14.2909 30.2313 13.7915C30.2309 13.7295 30.2305 13.6674 30.2301 13.6035C30.2291 13.452 30.2276 13.3004 30.226 13.1488C29.5602 12.8809 28.906 12.7141 28.2001 12.5904C28.1005 12.5725 28.0009 12.5546 27.8983 12.5362C27.105 12.3969 26.3137 12.2879 25.5112 12.2217C25.4018 12.2124 25.2924 12.203 25.1796 12.1934C23.4321 11.9968 23.4321 11.9968 21.8066 12.4746ZM17.8495 13.1488C17.9337 13.3174 17.9337 13.3174 17.9337 13.3174L17.8495 13.1488ZM29.8892 18.3746C29.9734 18.5431 29.9734 18.5431 29.9734 18.5431L29.8892 18.3746ZM29.805 18.5431C29.778 18.594 29.7509 18.6449 29.723 18.6973C27.8732 22.1618 27.8732 22.1618 26.9425 22.5888C26.71 22.6134 26.5038 22.6051 26.2689 22.5888C26.497 22.8172 26.6205 22.8298 26.9425 22.8417C27.518 22.6738 27.8936 22.2583 28.2896 21.8303C28.333 21.7897 28.3764 21.7492 28.4211 21.7075C29.0238 21.0598 29.3577 20.0208 29.7208 19.2174C29.7569 19.139 29.7929 19.0605 29.83 18.9797C29.913 18.7842 29.913 18.7842 29.805 18.5431ZM26.1847 47.2003C26.2689 47.3688 26.2689 47.3688 26.2689 47.3688L26.1847 47.2003Z" fill="#333333"/>
<path d="M91.208 39.2719C92.7551 40.5775 93.7397 42.3075 93.9601 44.3343C94.1009 47.4016 93.3919 49.949 91.329 52.2677C89.9631 53.7473 88.0658 54.7376 86.0471 54.8888C84.0432 54.9633 82.3547 54.5957 80.8476 53.2034C79.524 51.9217 78.6509 50.1143 78.6168 48.2582C78.5774 45.5433 79.1014 43.0198 80.9943 40.9628C81.0365 40.9166 81.0787 40.8703 81.1222 40.8226C83.6576 38.0719 88.0213 36.8003 91.208 39.2719ZM84.1094 43.1543C84.0494 43.2124 83.9894 43.2705 83.9275 43.3304C82.8717 44.4241 82.4775 45.9081 82.4917 47.3942C82.5643 48.6459 83.0338 49.6307 83.941 50.4871C84.598 51.0062 85.3035 51.1615 86.1301 51.0771C87.3874 50.8242 88.3553 50.0757 89.0992 49.0421C89.956 47.7031 90.2687 46.2484 89.9819 44.6813C89.7355 43.656 89.1949 42.7488 88.3191 42.1428C86.7967 41.3089 85.2327 42.0335 84.1094 43.1543Z" fill="#333333"/>
<path d="M73.1069 39.2717C74.654 40.5774 75.6386 42.3073 75.859 44.3341C75.9998 47.4014 75.2908 49.9488 73.2279 52.2675C71.862 53.7471 69.9647 54.7374 67.946 54.8886C65.9421 54.9631 64.2537 54.5955 62.7465 53.2032C61.423 51.9216 60.5498 50.1141 60.5157 48.258C60.4763 45.5431 61.0003 43.0196 62.8932 40.9627C62.9354 40.9164 62.9776 40.8701 63.0211 40.8224C65.5565 38.0717 69.9203 36.8002 73.1069 39.2717ZM66.0083 43.1541C65.9483 43.2122 65.8883 43.2703 65.8265 43.3302C64.7706 44.4239 64.3764 45.9079 64.3906 47.394C64.4633 48.6457 64.9328 49.6305 65.84 50.4869C66.4969 51.006 67.2024 51.1613 68.029 51.0769C69.2864 50.824 70.2542 50.0755 70.9981 49.0419C71.8549 47.7029 72.1676 46.2482 71.8808 44.6811C71.6344 43.6558 71.0938 42.7486 70.218 42.1427C68.6957 41.3087 67.1316 42.0333 66.0083 43.1541Z" fill="#333333"/>
<path d="M191.54 38.0128C191.834 38.296 192.051 38.6156 192.277 38.9539C192.442 39.1963 192.623 39.4256 192.803 39.6564C192.874 39.7482 192.944 39.8401 193.015 39.932C193.05 39.9772 193.085 40.0225 193.12 40.0692C193.221 40.2005 193.322 40.3319 193.423 40.4634C193.832 40.9966 194.243 41.5281 194.655 42.0585C195.201 42.7603 195.743 43.4647 196.284 44.1703C196.351 44.2574 196.418 44.3446 196.487 44.4344C196.52 44.4779 196.553 44.5214 196.588 44.5663C196.803 44.8469 197.02 45.1267 197.238 45.4059C197.318 45.5087 197.318 45.5087 197.399 45.6135C197.505 45.7489 197.611 45.8844 197.716 46.0197C197.765 46.0817 197.813 46.1437 197.863 46.2076C197.906 46.2629 197.949 46.3182 197.993 46.3751C198.092 46.506 198.185 46.6419 198.276 46.7785C198.459 46.5948 198.433 46.2022 198.466 45.9473C198.481 45.8297 198.481 45.8297 198.497 45.7097C198.519 45.5389 198.542 45.368 198.564 45.1972C198.599 44.9269 198.634 44.6566 198.67 44.3864C198.772 43.618 198.873 42.8494 198.972 42.0807C199.033 41.611 199.095 41.1415 199.158 40.6721C199.181 40.4929 199.205 40.3137 199.228 40.1344C199.26 39.8836 199.293 39.6331 199.327 39.3825C199.336 39.3082 199.345 39.2339 199.354 39.1573C199.446 38.4953 199.446 38.4953 199.707 38.2657C199.864 38.224 199.864 38.224 200.042 38.2247C200.109 38.2242 200.176 38.2237 200.245 38.2232C200.317 38.2244 200.388 38.2256 200.462 38.2268C200.573 38.227 200.573 38.227 200.687 38.2271C200.843 38.2276 200.999 38.2289 201.156 38.231C201.396 38.2341 201.635 38.2345 201.875 38.2344C202.027 38.2352 202.179 38.2362 202.331 38.2374C202.403 38.2376 202.475 38.2378 202.549 38.2379C203.055 38.2461 203.055 38.2461 203.243 38.4343C203.263 39.2761 203.084 40.141 202.967 40.9745C202.947 41.1164 202.927 41.2582 202.908 41.4001C202.855 41.7822 202.801 42.1643 202.748 42.5463C202.703 42.8661 202.659 43.186 202.614 43.5059C202.509 44.2604 202.404 45.015 202.299 45.7694C202.19 46.5465 202.082 47.3236 201.974 48.1008C201.881 48.7699 201.788 49.439 201.694 50.108C201.639 50.5068 201.583 50.9057 201.528 51.3045C201.476 51.6792 201.423 52.0538 201.371 52.4284C201.352 52.5655 201.333 52.7026 201.314 52.8398C201.288 53.0276 201.261 53.2153 201.235 53.403C201.22 53.5079 201.205 53.6128 201.19 53.7208C201.035 54.6365 201.035 54.6365 200.802 54.87C200.481 54.9421 200.196 54.942 199.875 54.87C199.593 54.6525 199.414 54.3806 199.218 54.0851C199.161 54.0048 199.104 53.9245 199.045 53.8418C198.927 53.6759 198.811 53.5093 198.696 53.3418C198.451 52.9884 198.195 52.6442 197.939 52.2993C197.842 52.1676 197.746 52.0359 197.65 51.9042C197.33 51.4701 197.003 51.0417 196.676 50.6135C196.201 49.9918 195.733 49.3652 195.271 48.7334C194.83 48.1325 194.379 47.5401 193.925 46.9494C193.477 46.3649 193.477 46.3649 193.28 46.0585C193.16 45.844 193.16 45.844 192.972 45.7671C192.968 45.8456 192.964 45.9241 192.96 46.005C192.909 46.9223 192.813 47.8297 192.701 48.7415C192.682 48.8933 192.664 49.0451 192.646 49.1969C192.608 49.5122 192.569 49.8274 192.531 50.1425C192.481 50.5456 192.433 50.9488 192.384 51.352C192.347 51.6643 192.309 51.9765 192.27 52.2887C192.252 52.4374 192.234 52.5862 192.217 52.7349C192.192 52.9422 192.166 53.1494 192.14 53.3567C192.133 53.4174 192.126 53.478 192.119 53.5406C192.01 54.3994 192.01 54.3994 191.793 54.6171C191.538 54.6246 191.285 54.6268 191.029 54.6254C190.953 54.6252 190.876 54.6251 190.798 54.625C190.552 54.6245 190.307 54.6235 190.062 54.6224C189.896 54.622 189.73 54.6216 189.564 54.6212C189.156 54.6203 188.749 54.6188 188.341 54.6171C188.149 54.2466 188.175 53.9483 188.234 53.5489C188.247 53.4522 188.247 53.4522 188.261 53.3535C188.29 53.1376 188.321 52.922 188.352 52.7063C188.373 52.5516 188.394 52.3968 188.415 52.242C188.473 51.8216 188.532 51.4015 188.592 50.9814C188.654 50.5419 188.715 50.1023 188.776 49.6627C188.878 48.9245 188.982 48.1864 189.086 47.4484C189.206 46.5948 189.325 45.7411 189.444 44.8873C189.557 44.0663 189.672 43.2454 189.787 42.4246C189.836 42.0751 189.885 41.7255 189.933 41.376C189.99 40.9645 190.048 40.5531 190.106 40.1417C190.128 39.9906 190.149 39.8395 190.17 39.6883C190.198 39.4822 190.228 39.2763 190.257 39.0703C190.269 38.9802 190.269 38.9802 190.282 38.8883C190.324 38.5978 190.367 38.3449 190.53 38.0971C190.869 37.9276 191.177 37.9022 191.54 38.0128Z" fill="#333333"/>
<path d="M165.019 38.0128C165.313 38.296 165.53 38.6156 165.756 38.9539C165.921 39.1963 166.102 39.4256 166.282 39.6564C166.353 39.7482 166.423 39.8401 166.494 39.932C166.529 39.9772 166.564 40.0225 166.599 40.0692C166.7 40.2005 166.801 40.3319 166.902 40.4634C167.311 40.9966 167.722 41.5281 168.134 42.0585C168.68 42.7603 169.222 43.4647 169.763 44.1703C169.83 44.2574 169.897 44.3446 169.966 44.4344C169.999 44.4779 170.032 44.5214 170.067 44.5663C170.283 44.8469 170.499 45.1267 170.717 45.4059C170.797 45.5087 170.797 45.5087 170.878 45.6135C170.984 45.7489 171.09 45.8844 171.195 46.0197C171.244 46.0817 171.292 46.1437 171.342 46.2076C171.385 46.2629 171.428 46.3182 171.472 46.3751C171.571 46.506 171.664 46.6419 171.755 46.7785C171.938 46.5948 171.912 46.2022 171.945 45.9473C171.96 45.8297 171.96 45.8297 171.976 45.7097C171.998 45.5389 172.021 45.368 172.043 45.1972C172.078 44.9269 172.113 44.6566 172.149 44.3864C172.251 43.618 172.352 42.8494 172.451 42.0807C172.512 41.611 172.574 41.1415 172.637 40.6721C172.66 40.4929 172.684 40.3137 172.707 40.1344C172.739 39.8836 172.772 39.6331 172.806 39.3825C172.815 39.3082 172.824 39.2339 172.833 39.1573C172.925 38.4953 172.925 38.4953 173.186 38.2657C173.343 38.224 173.343 38.224 173.521 38.2247C173.588 38.2242 173.655 38.2237 173.724 38.2232C173.796 38.2244 173.867 38.2256 173.941 38.2268C174.052 38.227 174.052 38.227 174.166 38.2271C174.322 38.2276 174.478 38.2289 174.635 38.231C174.875 38.2341 175.114 38.2345 175.354 38.2344C175.506 38.2352 175.658 38.2362 175.81 38.2374C175.882 38.2376 175.954 38.2378 176.028 38.2379C176.534 38.2461 176.534 38.2461 176.722 38.4343C176.742 39.2761 176.563 40.141 176.446 40.9745C176.426 41.1164 176.406 41.2582 176.387 41.4001C176.334 41.7822 176.28 42.1643 176.227 42.5463C176.182 42.8661 176.138 43.186 176.093 43.5059C175.988 44.2604 175.883 45.015 175.778 45.7694C175.669 46.5465 175.561 47.3236 175.453 48.1008C175.36 48.7699 175.267 49.439 175.173 50.108C175.118 50.5068 175.062 50.9057 175.007 51.3045C174.955 51.6792 174.902 52.0538 174.85 52.4284C174.831 52.5655 174.812 52.7026 174.793 52.8398C174.767 53.0276 174.74 53.2153 174.714 53.403C174.699 53.5079 174.684 53.6128 174.669 53.7208C174.514 54.6365 174.514 54.6365 174.281 54.87C173.96 54.9421 173.675 54.942 173.354 54.87C173.072 54.6525 172.893 54.3806 172.697 54.0851C172.64 54.0048 172.583 53.9245 172.524 53.8418C172.406 53.6759 172.29 53.5093 172.175 53.3418C171.93 52.9884 171.674 52.6442 171.418 52.2993C171.321 52.1676 171.225 52.0359 171.129 51.9042C170.809 51.4701 170.482 51.0417 170.155 50.6135C169.68 49.9918 169.212 49.3652 168.75 48.7334C168.309 48.1325 167.858 47.5401 167.404 46.9494C166.956 46.3649 166.956 46.3649 166.759 46.0585C166.639 45.844 166.639 45.844 166.451 45.7671C166.447 45.8456 166.443 45.9241 166.439 46.005C166.388 46.9223 166.292 47.8297 166.18 48.7415C166.162 48.8933 166.143 49.0451 166.125 49.1969C166.087 49.5122 166.048 49.8274 166.01 50.1425C165.96 50.5456 165.912 50.9488 165.863 51.352C165.826 51.6643 165.788 51.9765 165.749 52.2887C165.731 52.4374 165.713 52.5862 165.696 52.7349C165.671 52.9422 165.645 53.1494 165.619 53.3567C165.612 53.4174 165.605 53.478 165.598 53.5406C165.489 54.3994 165.489 54.3994 165.272 54.6171C165.017 54.6246 164.764 54.6268 164.509 54.6254C164.432 54.6252 164.356 54.6251 164.277 54.625C164.031 54.6245 163.786 54.6235 163.541 54.6224C163.375 54.622 163.209 54.6216 163.043 54.6212C162.635 54.6203 162.228 54.6188 161.82 54.6171C161.628 54.2466 161.654 53.9483 161.713 53.5489C161.726 53.4522 161.726 53.4522 161.74 53.3535C161.769 53.1376 161.8 52.922 161.831 52.7063C161.852 52.5516 161.873 52.3968 161.894 52.242C161.952 51.8216 162.011 51.4015 162.071 50.9814C162.133 50.5419 162.194 50.1023 162.255 49.6627C162.357 48.9245 162.461 48.1864 162.565 47.4484C162.685 46.5948 162.804 45.7411 162.923 44.8873C163.036 44.0663 163.151 43.2454 163.266 42.4246C163.315 42.0751 163.364 41.7255 163.412 41.376C163.469 40.9645 163.527 40.5531 163.586 40.1417C163.607 39.9906 163.628 39.8395 163.649 39.6883C163.677 39.4822 163.707 39.2763 163.736 39.0703C163.748 38.9802 163.748 38.9802 163.761 38.8883C163.803 38.5978 163.846 38.3449 164.009 38.0971C164.348 37.9276 164.656 37.9022 165.019 38.0128Z" fill="#333333"/>
<path d="M124.606 38.0129C124.899 38.2961 125.117 38.6157 125.343 38.954C125.508 39.1963 125.689 39.4257 125.869 39.6565C125.94 39.7483 126.01 39.8401 126.081 39.932C126.116 39.9773 126.15 40.0226 126.186 40.0692C126.287 40.2006 126.388 40.332 126.489 40.4634C126.898 40.9966 127.309 41.5282 127.721 42.0586C128.267 42.7603 128.809 43.4648 129.35 44.1704C129.417 44.2575 129.484 44.3446 129.553 44.4344C129.586 44.4779 129.619 44.5215 129.654 44.5663C129.869 44.847 130.086 45.1267 130.304 45.406C130.384 45.5087 130.384 45.5087 130.465 45.6135C130.571 45.749 130.676 45.8844 130.782 46.0198C130.83 46.0818 130.879 46.1438 130.929 46.2077C130.972 46.263 131.015 46.3182 131.059 46.3752C131.158 46.506 131.251 46.642 131.342 46.7786C131.525 46.5948 131.499 46.2022 131.532 45.9473C131.547 45.8298 131.547 45.8298 131.563 45.7098C131.585 45.539 131.608 45.3681 131.63 45.1972C131.665 44.9269 131.7 44.6567 131.736 44.3865C131.838 43.618 131.939 42.8495 132.038 42.0807C132.099 41.6111 132.161 41.1416 132.224 40.6721C132.247 40.4929 132.271 40.3137 132.294 40.1345C132.326 39.8837 132.359 39.6332 132.393 39.3826C132.402 39.3083 132.411 39.234 132.42 39.1574C132.512 38.4954 132.512 38.4954 132.773 38.2658C132.93 38.2241 132.93 38.2241 133.108 38.2248C133.175 38.2243 133.242 38.2238 133.311 38.2232C133.383 38.2244 133.454 38.2257 133.528 38.2269C133.639 38.227 133.639 38.227 133.753 38.2271C133.909 38.2276 134.065 38.229 134.222 38.2311C134.461 38.2341 134.701 38.2345 134.941 38.2345C135.093 38.2353 135.245 38.2363 135.396 38.2374C135.468 38.2376 135.54 38.2378 135.615 38.238C136.121 38.2462 136.121 38.2462 136.309 38.4343C136.329 39.2762 136.15 40.1411 136.033 40.9745C136.013 41.1164 135.993 41.2583 135.974 41.4002C135.921 41.7823 135.867 42.1643 135.814 42.5463C135.769 42.8662 135.725 43.186 135.68 43.5059C135.575 44.2605 135.47 45.015 135.364 45.7695C135.256 46.5466 135.148 47.3237 135.04 48.1008C134.947 48.77 134.854 49.439 134.76 50.1081C134.705 50.5069 134.649 50.9057 134.594 51.3046C134.542 51.6792 134.489 52.0539 134.437 52.4284C134.418 52.5656 134.398 52.7027 134.38 52.8398C134.354 53.0276 134.327 53.2154 134.301 53.4031C134.286 53.508 134.271 53.6128 134.256 53.7209C134.101 54.6365 134.101 54.6365 133.867 54.87C133.547 54.9421 133.262 54.942 132.941 54.87C132.659 54.6525 132.48 54.3806 132.284 54.0851C132.227 54.0048 132.17 53.9245 132.111 53.8418C131.993 53.676 131.877 53.5093 131.761 53.3418C131.517 52.9885 131.261 52.6443 131.005 52.2993C130.908 52.1676 130.812 52.0359 130.715 51.9042C130.396 51.4702 130.069 51.0417 129.742 50.6136C129.267 49.9918 128.799 49.3652 128.337 48.7334C127.896 48.1326 127.445 47.5401 126.991 46.9495C126.543 46.3649 126.543 46.3649 126.346 46.0586C126.225 45.8441 126.225 45.8441 126.037 45.7672C126.034 45.8457 126.03 45.9242 126.026 46.005C125.975 46.9224 125.879 47.8298 125.767 48.7415C125.748 48.8934 125.73 49.0452 125.712 49.197C125.674 49.5122 125.635 49.8274 125.596 50.1426C125.547 50.5457 125.498 50.9489 125.45 51.3521C125.413 51.6644 125.375 51.9766 125.336 52.2888C125.318 52.4375 125.3 52.5862 125.282 52.735C125.258 52.9423 125.232 53.1495 125.206 53.3567C125.199 53.4174 125.192 53.4781 125.185 53.5406C125.076 54.3995 125.076 54.3995 124.859 54.6172C124.604 54.6247 124.35 54.6269 124.095 54.6254C124.019 54.6253 123.942 54.6252 123.864 54.6251C123.618 54.6246 123.373 54.6235 123.128 54.6224C122.962 54.622 122.796 54.6216 122.63 54.6213C122.222 54.6204 121.814 54.6189 121.407 54.6172C121.215 54.2467 121.241 53.9483 121.3 53.549C121.313 53.4523 121.313 53.4523 121.326 53.3536C121.356 53.1377 121.387 52.9221 121.418 52.7064C121.439 52.5516 121.46 52.3968 121.481 52.242C121.539 51.8217 121.598 51.4015 121.658 50.9814C121.72 50.542 121.781 50.1023 121.842 49.6627C121.944 48.9245 122.048 48.1865 122.152 47.4485C122.272 46.5949 122.391 45.7412 122.51 44.8874C122.623 44.0664 122.738 43.2455 122.853 42.4247C122.902 42.0751 122.951 41.7256 122.999 41.376C123.056 40.9645 123.114 40.5531 123.172 40.1418C123.194 39.9907 123.215 39.8396 123.236 39.6884C123.264 39.4823 123.294 39.2763 123.323 39.0704C123.335 38.9803 123.335 38.9803 123.348 38.8884C123.39 38.5978 123.433 38.345 123.596 38.0972C123.935 37.9277 124.243 37.9022 124.606 38.0129Z" fill="#333333"/>
<path d="M49.1476 38.2221C49.205 38.2215 49.2624 38.2209 49.3215 38.2203C49.5117 38.2188 49.7018 38.2198 49.892 38.2209C50.025 38.2207 50.1579 38.2204 50.2908 38.22C50.5701 38.2195 50.8494 38.2202 51.1287 38.2218C51.4837 38.2237 51.8387 38.2226 52.1938 38.2206C52.4689 38.2193 52.7439 38.2197 53.019 38.2206C53.1497 38.2208 53.2804 38.2206 53.4111 38.2198C54.7732 38.2133 55.8251 38.4865 56.836 39.4411C57.6358 40.2935 57.8871 41.2832 57.8674 42.427C57.7966 43.2497 57.509 43.9444 56.9992 44.5871C56.9527 44.6483 56.9062 44.7095 56.8584 44.7725C56.4394 45.2861 55.9402 45.6442 55.3975 46.0144C55.1502 46.1752 55.1502 46.1752 54.9785 46.3571C55.0385 46.3929 55.0985 46.4286 55.1604 46.4655C56.1726 47.086 56.8199 47.7607 57.1202 48.9489C57.3224 50.2468 57.0002 51.5308 56.2414 52.5943C55.415 53.698 54.293 54.3354 52.9579 54.6171C52.4334 54.684 51.9049 54.6708 51.3773 54.6642C51.2305 54.6639 51.0837 54.6637 50.9369 54.6636C50.6325 54.6631 50.3281 54.6612 50.0237 54.6582C49.6332 54.6543 49.2428 54.6531 48.8523 54.6528C48.5506 54.6524 48.249 54.6512 47.9474 54.6495C47.8033 54.6488 47.6591 54.6482 47.515 54.6478C47.3149 54.6471 47.1149 54.6452 46.9149 54.643C46.8554 54.6429 46.7959 54.6429 46.7347 54.6428C46.3259 54.6365 46.3259 54.6365 46.1382 54.4486C46.1486 54.2182 46.169 54 46.1993 53.7721C46.2118 53.6701 46.2118 53.6701 46.2246 53.5661C46.2509 53.3544 46.2785 53.1429 46.3066 52.9314C46.3146 52.8695 46.3227 52.8075 46.331 52.7437C46.3872 52.3118 46.4469 51.8805 46.5072 51.4492C46.5267 51.3084 46.5462 51.1675 46.5657 51.0267C46.6289 50.5713 46.6925 50.116 46.7562 49.6607C46.7782 49.5029 46.8002 49.345 46.8223 49.1872C46.9139 48.5313 47.0056 47.8755 47.0977 47.2196C47.2291 46.2836 47.3598 45.3474 47.4895 44.4112C47.5812 43.7499 47.6737 43.0888 47.7667 42.4277C47.8221 42.0338 47.8772 41.6398 47.9314 41.2457C47.9823 40.8763 48.0342 40.507 48.0867 40.1378C48.1058 40.0024 48.1246 39.8669 48.143 39.7313C48.1682 39.5464 48.1946 39.3618 48.2213 39.1772C48.2357 39.0738 48.2502 38.9704 48.265 38.8639C48.3972 38.3089 48.5961 38.2235 49.1476 38.2221ZM51.6108 41.6371C51.5505 42.039 51.4906 42.441 51.4309 42.843C51.4106 42.9797 51.3902 43.1164 51.3697 43.2531C51.3402 43.4497 51.311 43.6464 51.2819 43.8431C51.2727 43.904 51.2635 43.9649 51.254 44.0277C51.2135 44.3034 51.1898 44.5604 51.1898 44.84C51.4179 44.8469 51.6457 44.8519 51.8739 44.8558C51.9379 44.8579 52.0019 44.86 52.0679 44.8622C52.5575 44.8686 52.9044 44.7874 53.2802 44.4482C53.3197 44.4002 53.3592 44.3522 53.3999 44.3027C53.4604 44.2313 53.4604 44.2313 53.5222 44.1585C53.8322 43.7004 53.8901 43.1913 53.884 42.6486C53.8188 42.3161 53.7119 42.0549 53.4683 41.811C53.0796 41.6105 52.6919 41.6269 52.2633 41.6319C52.1692 41.6324 52.1692 41.6324 52.0732 41.633C51.919 41.634 51.7649 41.6355 51.6108 41.6371ZM50.7688 47.9586C50.4857 49.5937 50.4857 49.5937 50.3479 51.2457C50.5865 51.2549 50.8248 51.2615 51.0635 51.2668C51.1635 51.271 51.1635 51.271 51.2654 51.2753C51.8421 51.2848 52.2649 51.1388 52.7073 50.7644C52.7448 50.7181 52.7824 50.6718 52.821 50.6241C52.8599 50.5783 52.8988 50.5324 52.9388 50.4852C53.2757 49.9417 53.2733 49.3358 53.2104 48.7171C53.0167 48.2845 52.8029 48.1295 52.3685 47.9586C52.0904 47.9293 51.8163 47.9346 51.5371 47.9428C51.4261 47.9445 51.4261 47.9445 51.3128 47.9462C51.1315 47.9492 50.9501 47.9537 50.7688 47.9586Z" fill="#333333"/>
<path d="M150.032 38.3498C150.163 38.3941 150.163 38.3941 150.295 38.4393C151.221 38.7863 152.332 39.4543 152.895 40.2883C152.948 40.6339 152.92 40.7595 152.711 41.0449C152.627 41.1327 152.542 41.2192 152.455 41.3044C152.387 41.3734 152.387 41.3734 152.318 41.4439C152.222 41.5407 152.125 41.6369 152.028 41.7325C151.88 41.8786 151.735 42.0275 151.59 42.1769C151.496 42.2708 151.402 42.3645 151.308 42.458C151.244 42.5248 151.244 42.5248 151.178 42.5929C150.941 42.8211 150.808 42.8991 150.478 42.9375C150.144 42.8937 149.997 42.7919 149.738 42.5798C148.905 41.9338 148.132 41.8123 147.086 41.8898C145.882 42.1316 144.92 42.9274 144.249 43.9337C143.414 45.3105 143.096 46.8171 143.459 48.3965C143.719 49.3154 144.186 50.1571 145.028 50.6449C145.152 50.7066 145.276 50.7665 145.402 50.824C145.48 50.8605 145.558 50.8971 145.639 50.9347C146.405 51.1002 147.108 50.9831 147.843 50.7398C147.849 50.6707 147.854 50.6016 147.859 50.5304C147.866 50.4395 147.873 50.3487 147.88 50.2551C147.887 50.1651 147.894 50.0752 147.901 49.9825C147.923 49.7758 147.954 49.5902 148.012 49.3912C147.916 49.3922 147.819 49.3931 147.72 49.3941C147.595 49.3949 147.469 49.3957 147.344 49.3965C147.28 49.3972 147.216 49.3979 147.151 49.3986C146.989 49.3993 146.827 49.3956 146.665 49.3912C146.637 49.3634 146.609 49.3356 146.581 49.3069C146.585 48.6112 146.685 47.9141 146.78 47.2261C146.79 47.1525 146.8 47.0789 146.81 47.0031C146.82 46.9338 146.83 46.8645 146.84 46.7931C146.849 46.7314 146.858 46.6696 146.867 46.6059C146.931 46.3968 146.997 46.3221 147.17 46.1883C147.385 46.1574 147.385 46.1574 147.645 46.1583C147.743 46.158 147.84 46.1578 147.941 46.1575C148.099 46.1591 148.099 46.1591 148.26 46.1607C148.368 46.1608 148.475 46.161 148.587 46.1611C148.815 46.1615 149.043 46.1628 149.271 46.1646C149.563 46.167 149.856 46.1679 150.149 46.1683C150.428 46.1687 150.707 46.17 150.986 46.1712C151.144 46.1717 151.144 46.1717 151.306 46.1723C151.402 46.1731 151.499 46.1739 151.599 46.1747C151.685 46.1753 151.771 46.1759 151.859 46.1765C152.053 46.1883 152.053 46.1883 152.137 46.2726C152.204 46.981 152.075 47.6943 151.977 48.3939C151.961 48.516 151.944 48.6381 151.928 48.7602C151.893 49.0146 151.858 49.269 151.823 49.5234C151.778 49.848 151.734 50.1728 151.69 50.4976C151.656 50.7492 151.621 51.0008 151.587 51.2523C151.57 51.372 151.554 51.4917 151.538 51.6115C151.515 51.7791 151.492 51.9466 151.468 52.1141C151.455 52.209 151.442 52.304 151.429 52.4019C151.288 53.1974 151.288 53.1974 151.046 53.4218C150.228 53.8643 149.4 54.1928 148.512 54.4641C148.443 54.4852 148.375 54.5063 148.304 54.528C146.495 55.0639 144.525 55.1247 142.813 54.264C141.058 53.2519 139.879 51.638 139.346 49.6961C138.743 47.218 139.1 44.6103 140.35 42.3955C140.419 42.2724 140.419 42.2724 140.489 42.1469C141.61 40.2714 143.422 38.808 145.542 38.2378C147.023 37.8821 148.588 37.8259 150.032 38.3498Z" fill="#333333"/>
<path d="M99.9456 38.2486C100.06 38.2479 100.06 38.2479 100.176 38.2471C100.337 38.2463 100.497 38.2458 100.658 38.2454C100.905 38.2446 101.152 38.242 101.398 38.2394C101.554 38.2388 101.71 38.2384 101.866 38.238C101.977 38.2365 101.977 38.2365 102.091 38.2349C102.299 38.2357 102.299 38.2357 102.632 38.2657C103.005 38.8262 102.746 39.6609 102.653 40.2918C102.63 40.4486 102.63 40.4486 102.608 40.6085C102.568 40.8846 102.528 41.1607 102.488 41.4367C102.431 41.8259 102.375 42.2151 102.319 42.6044C102.29 42.8112 102.26 43.0179 102.229 43.2246C102.216 43.3186 102.202 43.4126 102.189 43.5094C102.177 43.5916 102.165 43.6738 102.152 43.7585C102.126 44.0084 102.122 44.2517 102.127 44.5028C102.784 43.644 103.44 42.784 104.079 41.9111C104.921 40.7615 104.921 40.7615 105.327 40.2514C105.564 39.9505 105.779 39.6531 105.968 39.3197C106.534 38.373 106.534 38.373 107.06 38.1895C107.665 38.0828 108.268 38.127 108.878 38.1656C109.062 38.1714 109.246 38.1765 109.431 38.1809C109.765 38.1914 110.099 38.2035 110.434 38.2238C110.534 38.2297 110.534 38.2297 110.636 38.2358C110.799 38.2657 110.799 38.2657 110.967 38.4343C111.015 38.8279 111.024 39.0771 110.785 39.4006C110.701 39.4995 110.616 39.597 110.53 39.6933C110.437 39.8038 110.343 39.9144 110.25 40.0252C110.202 40.0821 110.153 40.139 110.103 40.1977C109.863 40.4851 109.64 40.7847 109.415 41.084C109.007 41.6218 108.588 42.1481 108.161 42.6702C107.81 43.0999 107.47 43.5368 107.134 43.978C106.947 44.2229 106.758 44.4657 106.567 44.7078C106.488 44.8088 106.409 44.91 106.33 45.0114C106.159 45.2306 105.986 45.4451 105.804 45.6552C105.749 45.7199 105.694 45.7847 105.637 45.8514C105.588 45.9053 105.54 45.9592 105.49 46.0147C105.387 46.191 105.387 46.191 105.465 46.402C105.612 46.7795 105.789 47.1371 105.971 47.4986C106.01 47.5764 106.048 47.6542 106.088 47.7344C106.171 47.8993 106.254 48.0642 106.336 48.2289C106.46 48.4753 106.584 48.7219 106.707 48.9685C107.188 49.9299 107.68 50.8846 108.183 51.8347C108.388 52.2217 108.59 52.61 108.789 52.9999C108.829 53.0769 108.869 53.1539 108.911 53.2332C109.278 53.9556 109.278 53.9556 109.199 54.3643C109.064 54.5418 108.991 54.6095 108.769 54.6475C108.701 54.647 108.633 54.6464 108.562 54.6458C108.485 54.6458 108.407 54.6458 108.327 54.6458C108.244 54.6445 108.16 54.6432 108.075 54.6418C107.989 54.6415 107.903 54.6411 107.815 54.6407C107.541 54.6393 107.268 54.6361 106.994 54.6329C106.809 54.6317 106.623 54.6305 106.438 54.6295C105.983 54.6267 105.528 54.6225 105.073 54.6171C104.657 53.8498 104.262 53.0788 103.9 52.2835C103.807 52.0802 103.713 51.8769 103.62 51.6737C103.595 51.6204 103.571 51.5672 103.546 51.5123C103.182 50.7227 102.809 49.9378 102.436 49.1524C102.346 48.9618 102.255 48.7712 102.165 48.5805C102.138 48.5238 102.111 48.4671 102.083 48.4087C101.948 48.1215 101.82 47.8337 101.706 47.5371C101.678 47.5371 101.65 47.5371 101.622 47.5371C101.611 47.6186 101.599 47.7 101.588 47.7839C101.484 48.5517 101.379 49.3193 101.272 50.0868C101.218 50.4814 101.164 50.876 101.11 51.2708C101.059 51.6518 101.006 52.0327 100.953 52.4135C100.933 52.5587 100.913 52.704 100.894 52.8493C100.866 53.053 100.838 53.2566 100.809 53.4601C100.801 53.52 100.794 53.58 100.786 53.6418C100.73 54.0225 100.636 54.3393 100.359 54.6171C100.106 54.6267 99.8544 54.631 99.6012 54.6313C99.5251 54.6316 99.449 54.6318 99.3706 54.6321C99.2093 54.6326 99.048 54.6328 98.8867 54.6327C98.6393 54.6329 98.3919 54.6345 98.1445 54.6361C97.9881 54.6363 97.8317 54.6365 97.6753 54.6366C97.6009 54.6372 97.5266 54.6378 97.4499 54.6384C96.926 54.6364 96.926 54.6364 96.7383 54.4486C96.623 53.7037 96.8231 52.8859 96.9289 52.1459C96.9494 51.9993 96.9698 51.8528 96.9903 51.7062C97.0456 51.3103 97.1016 50.9146 97.1578 50.5188C97.2166 50.1041 97.2749 49.6892 97.3332 49.2744C97.4312 48.5785 97.5296 47.8826 97.6284 47.1867C97.7425 46.3822 97.8558 45.5775 97.9687 44.7728C98.0657 44.0812 98.1632 43.3897 98.261 42.6982C98.3195 42.2854 98.3777 41.8727 98.4356 41.4599C98.4899 41.0722 98.5448 40.6847 98.6002 40.2972C98.6204 40.1549 98.6404 40.0126 98.6602 39.8703C98.6873 39.6762 98.715 39.4823 98.743 39.2884C98.7584 39.1798 98.7737 39.0711 98.7896 38.9592C98.8364 38.7212 98.8804 38.5521 99.0115 38.35C99.2994 38.2059 99.6288 38.2501 99.9456 38.2486ZM101.958 44.5871C102.043 44.7557 102.043 44.7557 102.043 44.7557L101.958 44.5871Z" fill="#333333"/>
<path d="M224.46 38.0128C224.628 38.3905 224.766 38.7571 224.876 39.1567C224.891 39.2093 224.906 39.2619 224.921 39.3161C224.969 39.4911 225.017 39.6663 225.065 39.8414C225.1 39.9685 225.136 40.0956 225.171 40.2226C225.247 40.497 225.323 40.7715 225.398 41.046C225.519 41.4839 225.64 41.9218 225.761 42.3596C225.803 42.5116 225.845 42.6636 225.887 42.8157C225.909 42.8923 225.93 42.9689 225.952 43.0478C226.017 43.2855 226.083 43.5232 226.149 43.761C226.486 44.9791 226.825 46.1967 227.165 47.414C227.19 47.503 227.215 47.592 227.24 47.6837C227.389 48.2151 227.537 48.7464 227.686 49.2777C227.874 49.9509 228.062 50.6242 228.251 51.2974C228.333 51.5914 228.415 51.8853 228.497 52.1792C228.534 52.3111 228.571 52.443 228.607 52.575C228.682 52.8468 228.759 53.1179 228.84 53.3882C228.864 53.4698 228.888 53.5513 228.913 53.6354C228.943 53.7359 228.943 53.7359 228.975 53.8384C229.013 54.0667 228.988 54.2274 228.922 54.4486C228.664 54.707 228.359 54.6462 228.012 54.6484C227.939 54.6492 227.865 54.6499 227.789 54.6507C227.633 54.6519 227.477 54.6527 227.321 54.653C227.082 54.654 226.843 54.6581 226.604 54.6624C226.453 54.6632 226.301 54.6638 226.15 54.6642C226.078 54.6659 226.007 54.6675 225.933 54.6692C225.866 54.6687 225.799 54.6682 225.731 54.6676C225.643 54.6683 225.643 54.6683 225.553 54.6689C225.386 54.6171 225.386 54.6171 225.049 54.1957C224.91 53.5838 224.771 52.9719 224.628 52.3414C222.961 52.3414 221.294 52.3414 219.576 52.3414C219.243 53.009 218.91 53.6765 218.566 54.3643C218.187 54.6487 218.187 54.6487 217.874 54.6458C217.805 54.6458 217.736 54.6458 217.665 54.6458C217.591 54.6445 217.517 54.6432 217.441 54.6418C217.365 54.6415 217.289 54.6411 217.211 54.6407C216.968 54.6393 216.725 54.6362 216.482 54.6329C216.318 54.6317 216.153 54.6305 215.988 54.6295C215.585 54.6267 215.181 54.6223 214.777 54.6171C214.597 54.2299 214.597 54.2299 214.704 53.9218C214.759 53.8155 214.815 53.7102 214.872 53.6057C214.903 53.5473 214.933 53.4889 214.965 53.4287C215.301 52.7963 215.66 52.1762 216.018 51.5562C216.309 51.0514 216.593 50.543 216.877 50.0341C217.256 49.3553 217.636 48.6773 218.019 48.0007C218.4 47.3274 218.778 46.6531 219.156 45.9778C219.577 45.2226 220.001 44.4687 220.427 43.7158C220.662 43.3003 220.896 42.8842 221.128 42.4671C221.676 41.4836 222.231 40.5052 222.801 39.5345C222.846 39.4565 222.892 39.3785 222.939 39.2982C223.005 39.1871 223.005 39.1871 223.071 39.0737C223.23 38.7986 223.38 38.5195 223.528 38.2387C223.737 37.9081 224.112 38.0072 224.46 38.0128ZM223.028 45.3457C222.556 46.2249 222.101 47.1104 221.671 48.0112C221.63 48.0966 221.589 48.182 221.547 48.27C221.355 48.6064 221.355 48.6064 221.26 48.97C222.066 48.97 222.872 48.97 223.702 48.97C223.651 48.4125 223.603 47.9043 223.499 47.3623C223.488 47.3037 223.477 47.2452 223.465 47.1849C223.431 47.0019 223.395 46.8191 223.36 46.6363C223.336 46.5106 223.312 46.3849 223.288 46.2592C223.23 45.9546 223.171 45.6501 223.113 45.3457C223.085 45.3457 223.057 45.3457 223.028 45.3457Z" fill="#333333"/>
<path d="M242.548 39.6241C242.785 39.8308 242.808 39.9063 242.849 40.2207C242.803 40.647 242.633 40.8184 242.346 41.1209C242.253 41.2236 242.16 41.3264 242.067 41.4294C242.022 41.4789 241.977 41.5285 241.93 41.5795C241.713 41.8237 241.519 42.085 241.324 42.3473C241.162 42.5437 241.051 42.5634 240.799 42.6064C240.389 42.6022 240.114 42.3552 239.785 42.1336C239.057 41.6775 238.286 41.42 237.426 41.5528C237.07 41.6607 236.83 41.8019 236.584 42.0796C236.447 42.4561 236.43 42.7721 236.553 43.1493C236.939 43.9034 237.851 44.3489 238.547 44.7848C240.006 45.7012 241.212 46.8262 241.706 48.5423C241.93 49.6293 241.78 50.726 241.383 51.7514C241.355 51.8239 241.328 51.8963 241.3 51.971C240.807 53.0991 239.781 53.9621 238.672 54.4403C236.957 55.1122 234.853 55.126 233.155 54.4028C232.441 54.0788 231.508 53.6112 231.195 52.8471C231.262 52.2474 231.657 51.7854 231.995 51.3036C232.053 51.2193 232.111 51.1349 232.171 51.048C232.597 50.4323 232.597 50.4323 232.795 50.2343C233.197 50.1686 233.418 50.2344 233.742 50.4608C233.806 50.5066 233.869 50.5525 233.934 50.5997C234.758 51.1559 235.6 51.335 236.584 51.2457C236.958 51.068 237.205 50.8389 237.426 50.4871C237.572 49.9782 237.47 49.605 237.257 49.1385C236.934 48.6047 236.526 48.2635 236.015 47.9164C235.88 47.8211 235.744 47.7256 235.609 47.63C235.544 47.5848 235.479 47.5396 235.413 47.4931C234.145 46.5977 232.933 45.4916 232.576 43.9161C232.38 42.4211 232.668 41.0275 233.559 39.7944C233.993 39.2811 234.481 38.9243 235.068 38.6028C235.129 38.5691 235.189 38.5355 235.251 38.5008C237.654 37.298 240.537 38.0686 242.548 39.6241Z" fill="#333333"/>
<path d="M210.827 38.2234C210.895 38.2226 210.964 38.2218 211.035 38.221C211.108 38.222 211.182 38.2229 211.258 38.2239C211.334 38.2238 211.41 38.2236 211.488 38.2235C211.648 38.2236 211.808 38.2246 211.969 38.2264C212.215 38.2288 212.46 38.2281 212.706 38.227C212.862 38.2275 213.018 38.2282 213.173 38.2291C213.284 38.2288 213.284 38.2288 213.397 38.2284C213.604 38.2316 213.604 38.2316 213.936 38.2657C214.149 38.5854 214.099 38.7873 214.05 39.1489C214.038 39.2482 214.038 39.2482 214.026 39.3494C213.997 39.5784 213.967 39.807 213.936 40.0357C213.925 40.1191 213.914 40.2024 213.903 40.2883C213.812 40.9727 213.717 41.6564 213.621 42.34C213.606 42.4482 213.591 42.5564 213.575 42.6679C213.512 43.1232 213.448 43.5784 213.384 44.0335C213.294 44.6777 213.204 45.3219 213.115 45.9663C213.051 46.4243 212.987 46.8821 212.923 47.3399C212.884 47.6112 212.846 47.8825 212.809 48.1539C212.231 52.3569 212.231 52.3569 210.737 53.7743C210.679 53.8297 210.621 53.8851 210.561 53.9422C209.443 54.9104 207.93 54.9641 206.527 54.87C205.559 54.7045 204.829 54.1324 204.254 53.3528C204.123 53.0907 204.144 52.8834 204.17 52.5943C204.319 52.3739 204.319 52.3739 204.526 52.1709C204.601 52.0971 204.675 52.0233 204.752 51.9473C204.87 51.8347 204.87 51.8347 204.99 51.7198C205.068 51.6428 205.145 51.5657 205.225 51.4864C205.875 50.8518 205.875 50.8518 206.19 50.8243C206.362 50.9267 206.362 50.9267 206.543 51.0719C206.877 51.3066 207.115 51.411 207.526 51.378C207.926 51.271 208.181 51.0219 208.386 50.6669C208.702 49.9325 208.778 49.1494 208.884 48.3642C208.908 48.1949 208.932 48.0256 208.956 47.8564C209.101 46.8358 209.238 45.8142 209.375 44.7926C209.465 44.1265 209.555 43.4605 209.645 42.7946C209.713 42.2905 209.781 41.7862 209.847 41.2818C209.89 40.9628 209.933 40.6438 209.976 40.3249C209.996 40.1744 210.016 40.0239 210.036 39.8733C210.063 39.6654 210.091 39.4577 210.119 39.25C210.127 39.189 210.135 39.128 210.142 39.0652C210.209 38.5965 210.3 38.2235 210.827 38.2234Z" fill="#333333"/>
<path d="M182.104 38.2251C182.195 38.2262 182.195 38.2262 182.288 38.2274C182.391 38.2274 182.391 38.2274 182.497 38.2274C182.608 38.2301 182.608 38.2301 182.722 38.2327C182.798 38.2332 182.874 38.2337 182.953 38.2342C183.197 38.236 183.44 38.2403 183.684 38.2446C183.849 38.2463 184.014 38.2478 184.179 38.2492C184.584 38.2529 184.989 38.2587 185.394 38.2656C185.605 38.6875 185.462 39.3079 185.399 39.7563C185.391 39.8179 185.383 39.8794 185.374 39.9428C185.346 40.1471 185.317 40.3513 185.288 40.5556C185.267 40.7028 185.247 40.85 185.226 40.9972C185.171 41.3957 185.115 41.7941 185.059 42.1925C185.012 42.5253 184.965 42.8582 184.919 43.1911C184.809 43.9761 184.699 44.7612 184.588 45.5461C184.474 46.3558 184.361 47.1657 184.248 47.9755C184.151 48.6714 184.053 49.3671 183.956 50.0629C183.897 50.4782 183.839 50.8935 183.781 51.3089C183.727 51.6993 183.672 52.0895 183.616 52.4797C183.596 52.6229 183.576 52.7661 183.556 52.9093C183.529 53.1048 183.501 53.3003 183.474 53.4956C183.458 53.605 183.443 53.7144 183.427 53.8271C183.315 54.423 183.315 54.423 183.121 54.6171C182.868 54.6277 182.617 54.633 182.363 54.6342C182.287 54.6347 182.211 54.6352 182.133 54.6356C181.971 54.6364 181.81 54.637 181.649 54.6373C181.401 54.6381 181.154 54.6408 180.907 54.6434C180.75 54.644 180.594 54.6444 180.437 54.6447C180.326 54.6463 180.326 54.6463 180.212 54.6479C180.004 54.6471 180.004 54.6471 179.669 54.6171C179.486 54.3418 179.482 54.315 179.524 54.0092C179.533 53.9353 179.543 53.8615 179.553 53.7854C179.565 53.7032 179.577 53.6211 179.589 53.5364C179.601 53.448 179.613 53.3596 179.625 53.2686C179.667 52.9594 179.71 52.6504 179.753 52.3414C179.785 52.1044 179.818 51.8675 179.85 51.6305C179.962 50.8036 180.077 49.9769 180.192 49.1504C180.203 49.0761 180.213 49.0018 180.224 48.9252C180.322 48.2231 180.42 47.5209 180.518 46.8188C180.643 45.9269 180.767 45.0349 180.891 44.1427C180.978 43.5112 181.066 42.8797 181.155 42.2484C181.208 41.8726 181.26 41.4968 181.312 41.1209C181.36 40.7691 181.41 40.4173 181.46 40.0657C181.478 39.9368 181.496 39.8078 181.513 39.6788C181.537 39.5028 181.562 39.327 181.587 39.1513C181.601 39.0529 181.615 38.9545 181.629 38.8532C181.701 38.5557 181.788 38.3045 182.104 38.2251Z" fill="#333333"/>
<path d="M115.085 38.2252C115.177 38.2263 115.177 38.2263 115.27 38.2274C115.373 38.2275 115.373 38.2275 115.479 38.2275C115.59 38.2301 115.59 38.2301 115.704 38.2328C115.78 38.2333 115.856 38.2337 115.935 38.2342C116.179 38.2361 116.422 38.2403 116.666 38.2446C116.831 38.2463 116.996 38.2479 117.161 38.2492C117.566 38.253 117.971 38.2588 118.376 38.2657C118.587 38.6876 118.444 39.3079 118.381 39.7564C118.373 39.8179 118.364 39.8795 118.356 39.9429C118.327 40.1472 118.299 40.3514 118.27 40.5556C118.249 40.7029 118.229 40.8501 118.208 40.9973C118.153 41.3958 118.097 41.7942 118.041 42.1926C117.994 42.5254 117.947 42.8583 117.901 43.1911C117.791 43.9762 117.681 44.7612 117.57 45.5462C117.456 46.3559 117.343 47.1657 117.23 47.9756C117.133 48.6714 117.035 49.3672 116.937 50.0629C116.879 50.4783 116.821 50.8936 116.763 51.309C116.709 51.6993 116.654 52.0896 116.598 52.4798C116.578 52.6229 116.558 52.7662 116.538 52.9094C116.511 53.1049 116.483 53.3003 116.455 53.4957C116.44 53.6051 116.425 53.7145 116.409 53.8271C116.297 54.4231 116.297 54.4231 116.103 54.6171C115.85 54.6277 115.599 54.633 115.345 54.6343C115.269 54.6347 115.193 54.6352 115.115 54.6357C114.953 54.6365 114.792 54.6371 114.631 54.6374C114.383 54.6382 114.136 54.6408 113.889 54.6435C113.732 54.644 113.576 54.6445 113.419 54.6448C113.308 54.6463 113.308 54.6463 113.194 54.6479C112.985 54.6472 112.985 54.6472 112.651 54.6171C112.467 54.3418 112.464 54.315 112.506 54.0093C112.515 53.9354 112.525 53.8616 112.535 53.7855C112.547 53.7033 112.559 53.6211 112.571 53.5365C112.583 53.4481 112.594 53.3597 112.607 53.2686C112.649 52.9594 112.692 52.6504 112.735 52.3414C112.767 52.1045 112.8 51.8675 112.832 51.6306C112.944 50.8036 113.059 49.977 113.174 49.1504C113.185 49.0761 113.195 49.0018 113.206 48.9253C113.304 48.2231 113.402 47.521 113.5 46.8189C113.625 45.9269 113.749 45.0349 113.873 44.1428C113.96 43.5112 114.048 42.8798 114.137 42.2484C114.19 41.8727 114.242 41.4969 114.294 41.121C114.342 40.7691 114.391 40.4174 114.441 40.0658C114.46 39.9368 114.477 39.8079 114.495 39.6788C114.519 39.5029 114.544 39.3271 114.569 39.1513C114.583 39.053 114.597 38.9546 114.611 38.8532C114.683 38.5558 114.769 38.3045 115.085 38.2252Z" fill="#333333"/>
<path d="M60.3243 28.1304C60.386 28.1283 60.4476 28.1261 60.5111 28.1238C60.8562 28.1735 61.0647 28.3297 61.2794 28.5993C61.9322 29.6597 62.4029 30.6746 62.4186 31.9338C62.4198 31.995 62.421 32.0562 62.4222 32.1192C62.4188 32.4969 62.3681 32.7411 62.1345 33.0401C61.7223 33.3088 61.4789 33.3117 60.9558 33.3772C60.9002 32.8487 60.8446 32.3203 60.7874 31.7758C60.7318 32.2764 60.6762 32.7771 60.619 33.2929C60.1459 33.3876 60.1459 33.3876 59.855 33.3147C59.7923 33.2996 59.7296 33.2845 59.6649 33.269C59.5668 33.2443 59.5668 33.2443 59.4666 33.2192C58.9244 33.0913 58.3991 32.9774 57.8406 32.9558C57.7665 32.9524 57.6923 32.949 57.616 32.9456C56.5629 32.9214 55.6189 33.0141 54.6518 33.4299C53.9855 33.7092 53.4074 33.7473 52.689 33.7249C51.571 33.6903 50.5847 33.8564 49.5054 34.1358C49.3709 34.1702 49.3709 34.1702 49.2337 34.2054C48.8809 34.2962 48.5283 34.3873 48.1768 34.483C48.0627 34.514 48.0627 34.514 47.9462 34.5457C47.8793 34.5642 47.8123 34.5827 47.7434 34.6018C47.569 34.6415 47.569 34.6415 47.3164 34.6415C47.3494 34.5459 47.3824 34.4503 47.4164 34.3518C47.8033 33.1823 48.1201 32.0533 48.2044 30.818C48.2116 30.7129 48.2189 30.6078 48.2263 30.4995C48.2317 30.42 48.237 30.3405 48.2425 30.2586C48.3321 30.2544 48.4216 30.2502 48.5138 30.2458C48.8501 30.2298 49.1864 30.213 49.5226 30.1959C49.6674 30.1886 49.8121 30.1816 49.9569 30.1748C51.4569 30.1253 51.4569 30.1253 52.8679 29.6634C53.499 29.3494 53.9605 29.2808 54.6646 29.3812C55.0278 29.4218 55.3248 29.3891 55.6831 29.3052C55.7436 29.2911 55.8041 29.2769 55.8664 29.2624C56.757 29.0463 57.6367 28.7823 58.5164 28.5259C58.5796 28.5075 58.6428 28.4891 58.7079 28.4702C58.8274 28.4354 58.9468 28.4004 59.0662 28.3652C59.4853 28.2429 59.8867 28.1397 60.3243 28.1304Z" fill="#333333"/>
<path d="M250.307 25.9602C250.453 26.0202 250.453 26.0202 250.602 26.0814C252.183 26.8036 253.26 28.0451 253.87 29.6685C254.376 31.1707 254.213 32.9005 253.538 34.3098C252.742 35.8751 251.489 36.7931 249.896 37.4369C248.4 37.904 246.623 37.6555 245.251 36.956C243.763 36.1459 242.742 34.8237 242.256 33.2024C241.841 31.5562 242.134 29.8528 242.965 28.4006C243.791 27.0599 245.083 26.1466 246.592 25.7179C247.803 25.4719 249.158 25.4865 250.307 25.9602ZM244.734 28.2834C243.766 29.3082 243.406 30.55 243.402 31.9294C243.462 33.1349 244.097 34.3313 244.967 35.1546C246.043 36.0032 247.197 36.397 248.57 36.3093C249.586 36.1811 250.437 35.786 251.233 35.1474C251.312 35.0843 251.312 35.0843 251.393 35.02C252.205 34.291 252.707 33.1518 252.812 32.0815C252.887 30.6591 252.481 29.5079 251.592 28.3894C250.749 27.4623 249.539 26.9591 248.308 26.8933C246.946 26.8639 245.743 27.3637 244.734 28.2834Z" fill="#333333"/>
<path d="M14.8173 32.0285C14.9006 32.0563 14.984 32.0841 15.0699 32.1128C15.1439 32.3778 15.1439 32.3778 15.1541 32.7028C14.9851 32.9002 14.8472 33.0291 14.6436 33.1822C14.5342 33.2699 14.4248 33.3577 14.3154 33.4456C14.2589 33.4899 14.2024 33.5342 14.1442 33.5799C13.8793 33.7906 13.6254 34.0135 13.3702 34.2357C12.9532 34.5948 12.5305 34.946 12.1034 35.2929C11.8458 35.5045 11.5924 35.7207 11.3391 35.9373C10.9126 36.3011 10.4766 36.6503 10.0344 36.9947C9.5423 37.3789 9.06378 37.7783 8.58697 38.1814C9.09593 37.8475 9.59261 37.501 10.0814 37.1383C10.1496 37.0879 10.2178 37.0374 10.2881 36.9854C11.0314 36.4337 11.767 35.8718 12.5017 35.3086C12.7023 35.1549 12.903 35.0013 13.1038 34.8478C13.1652 34.8008 13.2266 34.7539 13.2899 34.7055C13.4083 34.615 13.5267 34.5245 13.6452 34.4342C13.9214 34.2234 14.1957 34.0107 14.4667 33.7932C14.5172 33.7531 14.5676 33.713 14.6196 33.6717C14.7551 33.5638 14.8898 33.455 15.0245 33.3461C15.095 33.3007 15.1656 33.2553 15.2383 33.2085C15.3216 33.2363 15.405 33.2641 15.4908 33.2928C15.5951 33.5127 15.6824 33.7233 15.7645 33.9513C15.7881 34.0124 15.8118 34.0735 15.8362 34.1365C16.0286 34.6578 16.0286 34.6578 15.9118 34.9785C15.752 35.1507 15.752 35.1507 15.5435 35.3314C15.4672 35.3979 15.3909 35.4644 15.3123 35.5329C15.004 35.7926 14.6915 36.0468 14.3782 36.3004C14.1391 36.4995 13.9095 36.7062 13.6807 36.9171C13.3089 37.2593 12.9262 37.5824 12.5332 37.8999C12.3186 38.0749 12.1073 38.253 11.8969 38.433C11.3366 38.9123 10.7634 39.3721 10.1811 39.8242C10.0076 39.9597 9.8353 40.0965 9.66307 40.2335C9.00803 40.7525 8.34439 41.2532 7.65558 41.7266C7.59153 41.7708 7.52748 41.8149 7.46148 41.8604C5.73722 43.0296 4.01468 42.8346 2.00724 42.5127C1.85149 42.4799 1.85149 42.4799 1.68311 42.3956C1.68311 42.34 1.68311 42.2844 1.68311 42.2271C1.86119 42.0968 2.03934 41.9768 2.2251 41.8583C2.34218 41.7819 2.45915 41.7053 2.57602 41.6285C2.66773 41.5683 2.66773 41.5683 2.7613 41.5069C3.86091 40.7763 4.91826 39.9809 5.97698 39.1928C6.0268 39.1557 6.07663 39.1187 6.12797 39.0805C7.47709 38.0758 8.80335 37.0411 10.1055 35.9762C10.4199 35.7195 10.7366 35.4665 11.0572 35.2176C11.6879 34.7278 12.291 34.2107 12.891 33.6839C13.1527 33.4552 13.4167 33.2291 13.6807 33.0031C13.7271 32.9633 13.7735 32.9235 13.8213 32.8826C13.9107 32.806 14.0003 32.7296 14.0901 32.6534C14.1897 32.5673 14.2875 32.4791 14.3842 32.3896C14.4359 32.3425 14.4877 32.2954 14.541 32.2468C14.5879 32.2031 14.6347 32.1594 14.6829 32.1144C14.7494 32.0719 14.7494 32.0719 14.8173 32.0285ZM8.33439 38.2656C8.25104 38.3908 8.25104 38.3908 8.16601 38.5185C8.27714 38.4629 8.38828 38.4072 8.50278 38.3499C8.44721 38.3221 8.39165 38.2943 8.33439 38.2656Z" fill="#333333"/>
<path d="M245.93 28.2357C246.68 28.2252 246.68 28.2252 247.445 28.2146C247.602 28.2115 247.758 28.2085 247.919 28.2053C248.045 28.2043 248.172 28.2034 248.298 28.2027C248.393 28.2001 248.393 28.2001 248.491 28.1975C249.04 28.1972 249.465 28.363 249.889 28.714C250.299 29.2119 250.449 29.6907 250.392 30.3428C250.254 30.8682 250.037 31.2765 249.582 31.5913C249.382 31.6914 249.382 31.6914 249.213 31.6914C249.317 31.9004 249.42 32.1094 249.524 32.3183C249.554 32.3799 249.585 32.4415 249.616 32.505C249.81 32.8943 250.013 33.275 250.239 33.6471C250.308 33.7985 250.308 33.7985 250.308 34.1357C249.891 34.1357 249.474 34.1357 249.045 34.1357C248.977 33.9784 248.908 33.8212 248.838 33.6592C248.768 33.5074 248.699 33.3555 248.628 33.204C248.58 33.0989 248.533 32.9932 248.488 32.8869C248.422 32.7337 248.351 32.5827 248.28 32.4318C248.239 32.3405 248.198 32.2491 248.156 32.155C247.891 31.8377 247.891 31.8377 247.024 31.8599C247.024 32.6109 247.024 33.3619 247.024 34.1357C246.663 34.1357 246.302 34.1357 245.93 34.1357C245.93 32.1887 245.93 30.2417 245.93 28.2357ZM247.108 29.2471C247.108 29.8034 247.108 30.3597 247.108 30.9328C247.426 30.9406 247.426 30.9406 247.75 30.9486C247.816 30.9509 247.882 30.9532 247.95 30.9556C248.42 30.9611 248.77 30.8647 249.119 30.5272C249.25 30.2705 249.259 30.1228 249.213 29.8371C249.039 29.5484 248.867 29.3562 248.54 29.2471C248.427 29.2404 248.315 29.238 248.202 29.2389C248.144 29.2391 248.087 29.2393 248.028 29.2395C247.955 29.2403 247.883 29.241 247.808 29.2418C247.577 29.2436 247.346 29.2453 247.108 29.2471Z" fill="#333333"/>
<path d="M26.5212 13.57C26.6046 13.6256 26.6879 13.6813 26.7738 13.7386C26.746 13.9889 26.7182 14.2392 26.6896 14.4971C26.4673 14.3859 26.245 14.2746 26.016 14.16C25.9969 14.2382 25.9778 14.3165 25.9582 14.3971C25.8477 14.6657 25.8477 14.6657 25.6582 14.829C25.3674 14.9415 25.2168 14.9307 24.9215 14.8343C24.7015 14.6361 24.6716 14.5305 24.6479 14.2338C24.6689 13.9914 24.6689 13.9914 24.7531 13.8229C24.3341 13.693 23.9305 13.6116 23.4955 13.5595C23.4379 13.5522 23.3803 13.5449 23.321 13.5374C23.181 13.5198 23.041 13.5027 22.9009 13.4857C22.9009 13.4301 22.9009 13.3745 22.9009 13.3172C24.0116 12.9962 25.4543 13.1513 26.5212 13.57ZM25.0899 13.8229C25.0899 13.9619 25.0899 14.101 25.0899 14.2443C25.2566 14.3277 25.2566 14.3277 25.4267 14.4129C25.5984 14.298 25.5984 14.298 25.7635 14.16C25.7635 14.1044 25.7635 14.0487 25.7635 13.9914C25.5188 13.8855 25.3597 13.8229 25.0899 13.8229Z" fill="#333333"/>
<path d="M29.2254 13.6387C29.3281 13.6392 29.4308 13.6398 29.5366 13.6403C29.8043 13.6545 29.8043 13.6545 30.0568 13.7388C30.0568 13.7944 30.0568 13.85 30.0568 13.9073C29.8346 13.9351 29.6123 13.963 29.3833 13.9916C29.4007 14.0698 29.418 14.1481 29.4359 14.2287C29.4675 14.4973 29.4675 14.4973 29.2991 14.7502C29.0939 14.7923 29.0939 14.7923 28.8781 14.7502C28.7255 14.5395 28.7255 14.5395 28.6256 14.3288C28.4866 14.3844 28.3477 14.44 28.2046 14.4973C28.2046 14.2748 28.2046 14.0523 28.2046 13.823C28.5545 13.6545 28.8392 13.6342 29.2254 13.6387ZM28.9992 14.118C28.9592 14.1598 28.9193 14.2015 28.8781 14.2445C29.0032 14.3279 29.0032 14.3279 29.1307 14.413C29.1585 14.274 29.1863 14.1349 29.2149 13.9916C29.1104 13.9819 29.1104 13.9819 28.9992 14.118Z" fill="#333333"/>
</svg>
