<svg width="134" height="134" viewBox="0 0 134 134" fill="none" xmlns="http://www.w3.org/2000/svg">
<g clip-path="url(#clip0_1947_4471)">
<path d="M67.0012 76.3801C65.5204 76.3801 64.1003 76.9683 63.0532 78.0154C62.0061 79.0624 61.4179 80.4826 61.4179 81.9634V123.838C61.4179 125.319 62.0061 126.739 63.0532 127.786C64.1003 128.833 65.5204 129.422 67.0012 129.422C68.482 129.422 69.9021 128.833 70.9492 127.786C71.9963 126.739 72.5845 125.319 72.5845 123.838V81.9634C72.5845 80.4826 71.9963 79.0624 70.9492 78.0154C69.9021 76.9683 68.482 76.3801 67.0012 76.3801ZM41.8762 68.0051C40.3954 68.0051 38.9753 68.5933 37.9282 69.6404C36.8811 70.6874 36.2929 72.1076 36.2929 73.5884V104.297C36.2929 105.778 36.8811 107.198 37.9282 108.245C38.9753 109.292 40.3954 109.88 41.8762 109.88C43.357 109.88 44.7771 109.292 45.8242 108.245C46.8713 107.198 47.4595 105.778 47.4595 104.297V73.5884C47.4595 72.1076 46.8713 70.6874 45.8242 69.6404C44.7771 68.5933 43.357 68.0051 41.8762 68.0051ZM92.1262 68.0051C90.6454 68.0051 89.2253 68.5933 88.1782 69.6404C87.1311 70.6874 86.5429 72.1076 86.5429 73.5884V104.297C86.5429 105.778 87.1311 107.198 88.1782 108.245C89.2253 109.292 90.6454 109.88 92.1262 109.88C93.607 109.88 95.0271 109.292 96.0742 108.245C97.1213 107.198 97.7095 105.778 97.7095 104.297V73.5884C97.7095 72.1076 97.1213 70.6874 96.0742 69.6404C95.0271 68.5933 93.607 68.0051 92.1262 68.0051ZM12.117 5.58338C10.8495 4.95038 9.44201 4.6493 8.0264 4.70832C6.61079 4.76734 5.2333 5.18454 4.02282 5.92086C2.81235 6.65719 1.80846 7.68858 1.10511 8.91851C0.401761 10.1484 0.0219371 11.5367 0.00118489 12.9534V16.75C-0.0273356 18.4401 0.459614 20.0987 1.3972 21.5051C2.33479 22.9114 3.67853 23.9989 5.24952 24.6225L10.8329 26.9117C9.36293 28.1463 8.39085 29.8722 8.09702 31.7692C7.90721 32.8984 7.94786 34.0543 8.21653 35.1674C8.4852 36.2804 8.97633 37.3276 9.66035 38.2459L13.9037 43.8292C14.6836 44.8656 15.6965 45.7038 16.8604 46.2761C18.0244 46.8484 19.3067 47.1387 20.6037 47.1234C21.6318 47.1455 22.6542 46.9646 23.6123 46.591C24.5704 46.2173 25.4454 45.6583 26.187 44.9459L30.0954 39.8651C30.4936 39.398 30.7115 38.8038 30.7095 38.1901V17.8667C30.7183 17.3772 30.5929 16.8946 30.3468 16.4714C30.1008 16.0482 29.7434 15.7004 29.3137 15.4659L12.117 5.58338ZM97.0953 21.3842C96.9191 21.2755 96.7162 21.2179 96.5091 21.2179C96.302 21.2179 96.0991 21.2755 95.9229 21.3842L72.5845 36.0126C70.9073 37.0507 68.9738 37.6007 67.0012 37.6007C65.0286 37.6007 63.0951 37.0507 61.4179 36.0126L38.0795 21.3842C37.9029 21.2924 37.7066 21.2449 37.5075 21.2458C37.3085 21.2467 37.1126 21.296 36.9368 21.3894C36.761 21.4828 36.6106 21.6175 36.4984 21.7819C36.3862 21.9464 36.3157 22.1356 36.2929 22.3334V50.25C36.2928 52.1358 37.0381 53.9452 38.3663 55.2839C39.6945 56.6225 41.498 57.382 43.3837 57.3967H90.6187C92.5044 57.382 94.3079 56.6225 95.6361 55.2839C96.9643 53.9452 97.7096 52.1358 97.7095 50.25V22.3334C97.7009 22.1348 97.6394 21.9422 97.5314 21.7753C97.4235 21.6085 97.2729 21.4735 97.0953 21.3842Z" fill="#3E63F5"/>
<path d="M90.6172 4.5783H43.3822C41.5016 4.5783 39.698 5.32536 38.3682 6.65515C37.0384 7.98494 36.2913 9.78852 36.2913 11.6691C36.2571 11.7782 36.2571 11.8951 36.2913 12.0041L64.9338 29.9825C65.5028 30.3392 66.1607 30.5284 66.8322 30.5284C67.5037 30.5284 68.1616 30.3392 68.7305 29.9825L97.373 11.9483C97.3975 11.9059 97.4104 11.8577 97.4104 11.8087C97.4104 11.7597 97.3975 11.7116 97.373 11.6691C97.375 9.84515 96.6741 8.09054 95.416 6.76997C94.1578 5.44941 92.4391 4.66447 90.6172 4.5783ZM130.036 5.5833C128.765 4.86915 127.333 4.49402 125.876 4.49402C124.419 4.49402 122.986 4.86915 121.716 5.5833L104.687 15.4658C104.257 15.7003 103.9 16.0481 103.654 16.4713C103.408 16.8946 103.283 17.3771 103.291 17.8666V38.19C103.289 38.8037 103.507 39.398 103.906 39.865L107.814 44.9458C109.328 46.3591 111.326 47.1384 113.397 47.1233C114.694 47.1386 115.976 46.8483 117.14 46.276C118.304 45.7038 119.317 44.8655 120.097 43.8291L124.396 38.2458C125.063 37.3303 125.54 36.2906 125.799 35.1878C126.058 34.0851 126.094 32.9417 125.904 31.825C125.61 29.928 124.638 28.202 123.168 26.9675L128.751 24.6783C130.331 24.0513 131.681 22.9553 132.62 21.5378C133.558 20.1203 134.04 18.4494 134 16.75V12.8416C134.018 11.3931 133.663 9.96433 132.969 8.69299C132.274 7.42164 131.264 6.35065 130.036 5.5833Z" fill="#3E63F5"/>
</g>
<defs>
<clipPath id="clip0_1947_4471">
<rect width="134" height="134" fill="white"/>
</clipPath>
</defs>
</svg>
