<svg width="110" height="117" viewBox="0 0 110 117" fill="none" xmlns="http://www.w3.org/2000/svg">
<g clip-path="url(#clip0_2482_5414)">
<path fill-rule="evenodd" clip-rule="evenodd" d="M2.99117 0.118643C3.04205 0.272052 3.22795 0.272052 3.27883 0.118643C3.30055 0.0535275 3.23592 0 3.135 0C3.03408 0 2.96945 0.0532516 2.99117 0.118643ZM106.721 0.118643C106.772 0.272052 106.958 0.272052 107.009 0.118643C107.031 0.0535275 106.966 0 106.865 0C106.764 0 106.699 0.0532516 106.721 0.118643ZM106.175 0.241426C106.23 0.406423 106.48 0.497199 106.48 0.352067C106.48 0.292746 106.402 0.21411 106.306 0.177413C106.199 0.136026 106.148 0.160582 106.175 0.241426ZM106.948 0.404215C106.754 0.482575 106.776 0.772562 106.975 0.772562C107.066 0.772562 107.14 0.722897 107.14 0.662196C107.14 0.601495 107.239 0.55183 107.36 0.55183C107.481 0.55183 107.58 0.502165 107.58 0.441464C107.58 0.328063 107.192 0.305162 106.948 0.404215ZM2.0075 0.824158C1.7941 1.07221 1.84415 1.21403 2.145 1.21403C2.29625 1.21403 2.42 1.15912 2.42 1.0918C2.42 1.02475 2.4893 0.996329 2.57428 1.02916C2.67327 1.06724 2.71892 1.02226 2.70187 0.902794C2.66805 0.666059 2.1901 0.611979 2.0075 0.824158ZM107.816 0.933144C107.958 1.08241 108.091 1.15719 108.111 1.0998C108.157 0.968461 107.859 0.662196 107.686 0.662196C107.615 0.662196 107.674 0.78415 107.816 0.933144ZM1.54 1.37957C1.54 1.47063 1.46575 1.54512 1.375 1.54512C1.28425 1.54512 1.21 1.59479 1.21 1.65549C1.21 1.82738 1.37803 1.78572 1.57795 1.56416C1.7853 1.33432 1.81005 1.21403 1.65 1.21403C1.5895 1.21403 1.54 1.28852 1.54 1.37957ZM108.24 1.27969C108.24 1.42786 108.71 1.99321 109.014 2.21035C109.24 2.37149 109.34 2.39825 109.34 2.29754C109.339 2.1022 108.763 1.43476 108.594 1.43476C108.521 1.43476 108.46 1.38509 108.46 1.32439C108.46 1.26369 108.41 1.21403 108.35 1.21403C108.29 1.21403 108.24 1.24355 108.24 1.27969ZM0.7975 2.04122C0.6424 2.21808 0.610775 2.64878 0.75295 2.64878C0.9064 2.64878 1.21 2.25836 1.21 2.06081C1.21 1.83704 0.985875 1.82656 0.7975 2.04122ZM0.55 3.36616C0.4378 3.50164 0.4455 3.53171 0.591525 3.53171C0.6897 3.53171 0.77 3.45721 0.77 3.36616C0.77 3.27511 0.7513 3.20061 0.728475 3.20061C0.70565 3.20061 0.62535 3.27511 0.55 3.36616ZM109.684 3.45915C109.617 3.54054 109.591 3.63656 109.627 3.67215C109.733 3.77893 110 3.63049 110 3.46466C110 3.26959 109.844 3.26683 109.684 3.45915ZM0 3.75244C0 3.81314 0.055275 3.86281 0.122925 3.86281C0.1903 3.86281 0.220825 3.95855 0.1903 4.07526C0.151525 4.22426 0.1804 4.27034 0.287375 4.22895C0.474925 4.15693 0.484275 3.95138 0.308 3.77452C0.1474 3.61338 0 3.6029 0 3.75244ZM0.011 5.15961C0.00495 5.41759 0.0495 5.62866 0.11 5.62866C0.236775 5.62866 0.236775 5.36351 0.11 4.96647C0.0352 4.73194 0.02035 4.76119 0.011 5.15961ZM60.1103 30.4478C59.3791 30.7811 58.7771 31.6662 58.5888 32.6852C58.5076 33.1233 58.366 33.2202 57.8066 33.2202C57.4959 33.2202 57.4236 33.272 57.3207 33.5678C57.0881 34.2372 57.1989 34.4342 57.8086 34.4342C58.2021 34.4342 58.2819 34.6952 58.1235 35.4639C58.0462 35.8386 57.8537 36.8898 57.6958 37.8003C57.0309 41.6289 56.774 42.1813 55.7318 42.0216C55.2676 41.9507 55.135 42.0116 54.9428 42.3849C54.5834 43.0822 54.8752 43.3738 55.9312 43.3738C57.6807 43.3738 58.4455 42.3491 58.9493 39.3295C59.0087 38.9741 59.1333 38.2611 59.2262 37.7452C59.3194 37.2292 59.4759 36.3352 59.5741 35.7586C59.7949 34.4626 59.8175 34.4342 60.629 34.4342C61.273 34.4342 61.2832 34.4292 61.4455 34.0399C61.7086 33.4078 61.5816 33.2202 60.8911 33.2202C60.1609 33.2202 59.9819 33.0521 60.1612 32.5359C60.3941 31.8651 60.7954 31.5647 61.4573 31.5647C62.0683 31.5647 62.4784 31.201 62.4797 30.658C62.4806 30.2047 60.943 30.0681 60.1103 30.4478ZM41.1903 30.4886C41.1615 30.5645 41.1505 32.7621 41.1664 35.3723L41.195 40.118H41.91H42.625L42.6536 35.385C42.6742 31.9827 42.6473 30.6097 42.5576 30.5013C42.3957 30.3054 41.2646 30.2946 41.1903 30.4886ZM82.115 33.1167C78.9949 33.4356 78.1748 38.435 80.9974 39.9279C81.689 40.2938 84.1231 40.3807 84.755 40.062C85.5547 39.6589 85.0982 38.598 84.2298 38.8419C82.791 39.2461 81.3381 38.7964 81.0587 37.861C80.8244 37.0772 80.8087 37.083 83.1539 37.083C85.6991 37.083 85.6697 37.1001 85.4609 35.7453C85.1584 33.7822 84.0584 32.918 82.115 33.1167ZM29.315 33.2833C28.3855 33.7684 28.0825 34.3925 28.1446 35.6948C28.1713 36.2541 28.9592 36.892 30.0561 37.2424C31.5909 37.7327 31.9803 38.0663 31.652 38.6093C31.2634 39.2522 30.3498 39.2663 29.0021 38.6504C28.2923 38.3262 28.1427 38.3856 27.9741 39.0591C27.5861 40.6097 32.2363 40.7181 33.0333 39.1772C33.7241 37.8415 32.9956 36.6382 31.13 36.0345C29.6667 35.5607 29.2581 35.0953 29.8545 34.5807C30.2384 34.2496 30.8789 34.2427 31.8409 34.5594C32.6398 34.8227 32.7874 34.7774 32.9846 34.2107C33.2835 33.3498 30.5242 32.6523 29.315 33.2833ZM35.475 33.2066C34.6929 33.4083 34.4842 33.5852 34.4985 34.0338C34.5205 34.7269 34.7432 34.8541 35.4885 34.6C37.0403 34.0708 38.4714 34.5365 38.2322 35.4929C38.1678 35.7506 38.1337 35.7586 37.1082 35.7586C34.551 35.7586 33.137 37.5746 34.3244 39.3342C34.9734 40.2957 38.5033 40.6743 39.5656 39.8959C40.0056 39.5737 39.8706 34.7399 39.4039 34.113C38.7428 33.2243 36.9809 32.8179 35.475 33.2066ZM45.8601 33.2549C43.0111 34.3222 43.1714 39.2859 46.0823 40.1362C46.7605 40.3344 48.6376 40.2932 49.2437 40.0673C50.1358 39.7342 49.649 38.5842 48.7281 38.8494C47.273 39.2682 45.958 38.8234 45.5444 37.7728C45.2867 37.118 45.3989 37.083 47.7496 37.083C50.0808 37.083 50.05 37.0943 50.05 36.2312C50.05 33.9563 47.957 32.4694 45.8601 33.2549ZM52.47 33.1851C50.1875 34.1483 50.5733 36.439 53.1614 37.2899C54.3785 37.69 54.67 37.8817 54.67 38.2824C54.67 39.1774 53.1325 39.364 51.8779 38.6212C51.3912 38.3329 51.1896 38.3958 50.9787 38.9018C50.6264 39.748 51.5221 40.2265 53.46 40.2276C55.0363 40.2287 55.4111 40.0772 55.8858 39.247C56.7333 37.7645 56.1198 36.7215 53.9751 35.9983C52.8712 35.6261 52.58 35.4118 52.58 34.9714C52.58 34.3073 53.7793 34.1166 54.9255 34.5984C55.9152 35.0142 56.4237 33.8644 55.4626 33.3835C55.0457 33.1749 52.841 33.0287 52.47 33.1851ZM63.745 33.2039C61.138 34.0589 60.8286 38.6634 63.2893 39.9839C63.948 40.3374 65.7379 40.3407 66.385 39.9897C68.7349 38.7153 68.6647 34.5087 66.275 33.3733C65.7201 33.1095 64.3186 33.0157 63.745 33.2039ZM71.665 33.2075C71.544 33.2489 71.3092 33.3512 71.1431 33.4345C70.8774 33.5681 70.8158 33.5634 70.6324 33.397C70.4778 33.2566 70.2721 33.2166 69.8346 33.2417L69.245 33.2753L69.2159 36.6341C69.1834 40.3727 69.1397 40.1688 69.974 40.1716C70.7028 40.174 70.7121 40.1456 70.7506 37.7973C70.7954 35.0732 71.0639 34.5445 72.4026 34.5445C73.1998 34.5445 73.7179 33.3692 73.0048 33.1774C72.6946 33.0938 71.9466 33.1106 71.665 33.2075ZM75.3934 33.3741C72.298 34.8205 73.1288 39.9966 76.4973 40.2521C78.3497 40.3928 79.1007 40.0852 78.7971 39.3099L78.6269 38.8753L77.4559 38.8897C75.6979 38.9112 75.1275 38.3806 75.1325 36.7287C75.1377 34.951 76.0964 34.1271 77.7961 34.4389C78.5059 34.5691 79.0584 34.0004 78.7619 33.4445C78.5285 33.0066 76.2809 32.9597 75.3934 33.3741ZM47.6685 34.493C48.0961 34.7018 48.3761 35.0743 48.4209 35.4945L48.455 35.8138H47.025H45.595L45.6153 35.513C45.6753 34.6257 46.7979 34.068 47.6685 34.493ZM65.7575 34.6389C66.751 35.3488 66.7211 38.1488 65.7126 38.8119C64.7438 39.4489 63.563 38.821 63.2973 37.5275C62.8353 35.2779 64.2791 33.5827 65.7575 34.6389ZM83.2439 34.5443C83.6426 34.7882 83.9985 35.4203 83.8929 35.6968C83.8338 35.851 83.6316 35.8714 82.4197 35.8447L81.015 35.8138L81.0516 35.5378C81.1795 34.5688 82.3886 34.0209 83.2439 34.5443ZM38.1084 37.0774C38.3567 37.2844 38.3501 38.6529 38.0999 38.8615C37.3711 39.4683 35.6133 38.9517 35.5517 38.113C35.4808 37.1453 37.3032 36.407 38.1084 37.0774ZM19.3971 74.7729C19.2737 74.864 19.2525 75.9387 19.2764 80.9534L19.305 87.0236L20.7265 87.0545C22.4568 87.0923 22.3336 87.2413 22.3207 85.125C22.3083 83.0683 22.2085 83.216 23.6131 83.216C26.9948 83.216 28.7224 81.6256 28.5753 78.6473C28.4677 76.4726 27.1576 74.9964 25.135 74.7707C24.0438 74.6491 19.5627 74.6507 19.3971 74.7729ZM32.5534 74.8251C32.4483 74.9178 31.5637 77.0051 30.5874 79.4635C29.6112 81.9219 28.7661 84.0327 28.7095 84.1541C28.6528 84.2755 28.4543 84.7721 28.2681 85.2577C28.0819 85.7433 27.8528 86.3073 27.7591 86.5109C27.5105 87.0512 27.621 87.0884 29.3752 87.0542L30.9584 87.0236L31.3021 86.1958L31.6459 85.3681L33.6826 85.338C36.017 85.3038 35.882 85.2503 36.2428 86.3481L36.465 87.0236L38.1425 87.0539C39.6245 87.081 39.82 87.0639 39.82 86.9066C39.82 86.8089 39.0484 84.7837 38.1054 82.4064C37.1624 80.0291 36.1169 77.3886 35.7822 76.5388C35.4475 75.689 35.1101 74.9255 35.0322 74.8425C34.818 74.6135 32.8086 74.5994 32.5534 74.8251ZM41.3597 74.6993C41.1483 74.7702 41.2156 87.0556 41.4277 87.0983C41.5253 87.1179 42.1812 87.1091 42.8852 87.0788L44.165 87.0236L44.22 85.2577C44.2503 84.2865 44.3121 83.5043 44.3575 83.5195C44.4029 83.5346 44.4813 83.547 44.5316 83.547C44.5819 83.547 44.938 84.0064 45.323 84.5679C45.708 85.1294 46.2644 85.9116 46.5594 86.3062L47.096 87.0236L48.7493 87.0788C51.0458 87.1555 51.0331 87.3955 48.8763 84.6863C47.5318 82.9971 47.4818 82.8528 48.1759 82.6652C51.3788 81.7999 51.1486 76.1111 47.8646 74.9722C47.2238 74.75 41.877 74.5257 41.3597 74.6993ZM51.0018 74.699C50.834 74.7313 50.8167 74.8833 50.8442 76.0786L50.875 77.4217L52.03 77.4769L53.185 77.5321L53.24 82.2778L53.295 87.0236L54.6846 87.0788C55.4488 87.1091 56.1542 87.1179 56.2521 87.0983C56.4127 87.0661 56.4303 86.6075 56.4316 82.4078C56.4325 79.8476 56.4715 77.6927 56.518 77.6193C56.5727 77.5329 56.9921 77.4742 57.6988 77.4537L58.795 77.4217L58.8261 76.1227C58.8517 75.0538 58.828 74.8127 58.6932 74.7608C58.5205 74.6943 51.326 74.6364 51.0018 74.699ZM60.3562 74.6982C60.184 74.7313 60.17 75.1973 60.17 80.9096V87.0851L61.6275 87.0545L63.085 87.0236L63.1142 83.5195C63.1315 81.4286 63.1848 80.0153 63.2464 80.0153C63.3848 80.0153 63.4986 80.1828 64.9734 82.5537C65.6719 83.6767 66.5918 85.1543 67.0175 85.8371L67.7916 87.0788H69.1391C70.2663 87.0788 70.4974 87.0503 70.5532 86.9041C70.686 86.5573 70.6285 74.8463 70.4938 74.7627C70.3183 74.654 67.8425 74.6328 67.6956 74.7387C67.6123 74.7989 67.592 75.8567 67.628 78.2398C67.6805 81.7152 67.6547 82.1244 67.3962 81.9092C67.3186 81.8444 66.3512 80.3117 65.2462 78.503C62.6071 74.1822 63.0528 74.6626 61.6822 74.6626C61.0552 74.6626 60.4585 74.6786 60.3562 74.6982ZM72.9671 74.7729C72.8437 74.8643 72.8225 75.9376 72.8464 80.9534L72.875 87.0236H76.285H79.695V85.6992V84.3748L77.9427 84.3442C75.8447 84.3077 75.9 84.3386 75.9 83.2046C75.9 82.1608 75.7532 82.2318 77.99 82.1942L79.585 82.1675V80.7879V79.4083L77.99 79.3816C75.7424 79.3438 75.8843 79.4122 75.9228 78.3841L75.955 77.5321L77.825 77.4769L79.695 77.4217L79.7263 76.1619C79.7434 75.4688 79.711 74.8552 79.654 74.7981C79.5102 74.6538 73.161 74.63 72.9671 74.7729ZM81.8771 74.7729C81.7536 74.864 81.7325 75.939 81.7564 80.9534L81.785 87.0236L83.237 87.0542L84.6887 87.0851L84.7649 86.6787C84.8067 86.4552 84.8136 85.6807 84.7806 84.9575C84.7165 83.5639 84.8474 83.1939 85.2176 83.7209C86.122 85.0091 87.4932 86.932 87.5564 87.0012C87.681 87.1381 91.0132 87.1146 91.0588 86.9767C91.091 86.8801 88.9729 84.1207 88.3017 83.3845C88.0192 83.075 88.1026 82.8733 88.5811 82.7072C91.7298 81.6145 91.7747 76.5021 88.6479 75.1178C87.7519 74.7211 82.3221 74.4446 81.8771 74.7729ZM24.7472 77.6963C25.9471 78.3105 25.798 79.9033 24.5044 80.2888C23.8026 80.4976 22.6226 80.512 22.4582 80.3133C22.3281 80.156 22.2596 77.7909 22.3795 77.5964C22.5156 77.3754 24.2643 77.4491 24.7472 77.6963ZM46.5003 77.6938C47.625 78.2059 47.7576 79.8473 46.7332 80.5793C46.3094 80.8817 44.6726 81.0274 44.3853 80.7882C44.1708 80.6096 44.1416 77.8204 44.352 77.6094C44.5676 77.393 45.9602 77.4477 46.5003 77.6938ZM86.974 77.6908C88.1056 78.2064 88.2662 79.7687 87.2663 80.5338C86.8456 80.8558 85.1444 81.0572 84.9019 80.8138C84.7787 80.6902 84.7421 77.787 84.8612 77.5933C84.9863 77.3905 86.4644 77.4587 86.974 77.6908ZM34.2158 80.0429C34.4042 80.6651 34.6549 81.465 34.7729 81.8204C35.0669 82.7049 34.994 82.7745 33.77 82.7745C32.5526 82.7745 32.4849 82.7099 32.7734 81.8256C32.8906 81.4672 33.1138 80.7313 33.2698 80.19C33.5176 79.3302 33.7029 78.9117 33.8352 78.9117C33.8563 78.9117 34.0277 79.4207 34.2158 80.0429ZM44.825 91.6763C42.1556 92.1057 40.7113 94.6496 41.4213 97.6725C42.1174 100.635 45.9016 101.924 48.3665 100.038C48.8164 99.6936 48.8186 99.5794 48.386 99.0711C47.9798 98.5943 47.8679 98.58 47.325 98.9368C44.7807 100.609 42.039 97.8899 43.1654 94.8118C43.7456 93.2264 45.6247 92.5548 47.1213 93.3983C47.4163 93.5647 47.7161 93.7007 47.7873 93.7007C48.0112 93.7007 48.6431 92.964 48.6021 92.7505C48.4776 92.1015 46.2033 91.4548 44.825 91.6763ZM20.8549 91.8877C19.7128 92.3076 19.2057 93.0807 19.2676 94.308C19.3331 95.6065 19.8195 96.0888 21.67 96.6891C23.2744 97.2098 23.5884 97.4835 23.5601 98.3361C23.5229 99.4591 21.1255 99.9574 20.1262 99.0499C19.8509 98.8002 19.6622 98.8537 19.3251 99.2775C18.1409 100.767 22.9779 101.505 24.5119 100.069C26.2207 98.4696 25.2964 96.2298 22.567 95.3562C21.0259 94.8629 20.4886 94.2721 20.9781 93.6083C21.4352 92.9883 22.4306 92.823 23.43 93.2005C24.3273 93.5398 24.4192 93.5393 24.7024 93.1917C25.2189 92.5579 24.9989 92.2444 23.7762 91.8722C23.1171 91.6714 21.4186 91.6805 20.8549 91.8877ZM62.1044 91.8833C61.0189 92.2941 60.2784 93.113 60.6925 93.4441C61.3487 93.9684 61.3165 93.9656 61.9487 93.5501C63.475 92.5468 65.0785 93.0181 65.0573 94.4639C65.0441 95.3706 64.3836 96.1787 61.9028 98.3228C60.6705 99.3876 60.5333 99.6023 60.6581 100.27L60.7307 100.657L63.8327 100.628L66.935 100.599L66.9691 100.059C67.0181 99.285 66.9983 99.277 65.084 99.3145C62.8169 99.3586 62.7877 99.3186 64.2249 98.1385C66.9017 95.9406 67.5106 94.002 65.9923 92.5126C65.2336 91.7685 63.2536 91.4481 62.1044 91.8833ZM70.5408 92.0008C67.6522 93.4033 67.7564 99.3205 70.6929 100.623C71.7453 101.091 73.6549 100.837 74.5718 100.109C76.3307 98.7108 76.4825 94.5293 74.8404 92.7058C73.9294 91.694 71.869 91.356 70.5408 92.0008ZM86.496 91.9983C83.5909 93.4091 83.2433 99.1437 85.9782 100.544C87.5991 101.374 89.9808 100.663 90.7074 99.1315C92.0087 96.3889 89.4363 93.903 86.5835 95.1462C85.9565 95.4197 85.9095 95.413 85.9125 95.0527C85.9238 93.6265 87.6348 92.575 89.1 93.0937C89.3571 93.1848 89.6346 93.2592 89.7166 93.2592C89.9088 93.2592 90.3273 92.4398 90.2451 92.2246C90.0331 91.6705 87.4874 91.5171 86.496 91.9983ZM26.7339 92.038C26.4501 92.57 26.686 93.1133 27.225 93.1696L27.555 93.2041L27.5844 96.2314C27.6158 99.4872 27.6249 99.4348 27.0399 99.4381C26.689 99.44 26.5653 99.7201 26.6695 100.277L26.7399 100.654H28.4831C30.3622 100.654 30.36 100.654 30.36 100.047C30.36 99.5816 30.2448 99.4397 29.8667 99.4397C29.26 99.4397 29.2537 99.4039 29.2856 96.1704L29.315 93.2041L29.6995 93.1674C30.3677 93.1039 30.6867 92.2284 30.1472 91.9387C29.7228 91.7108 26.8639 91.7939 26.7339 92.038ZM32.2561 91.9164C32.1475 91.9856 32.1236 92.9373 32.1461 96.3018L32.175 100.599L32.8625 100.631C33.4617 100.66 33.5505 100.639 33.5544 100.466C33.5566 100.357 33.569 99.0052 33.5819 97.4625C33.5989 95.3783 33.6394 94.646 33.7387 94.6126C33.8148 94.587 34.6107 95.6942 35.5965 97.1968C36.545 98.6429 37.4682 100.014 37.6483 100.244L37.9756 100.663L38.8152 100.631L39.655 100.599L39.6839 96.3625C39.7158 91.6846 39.7364 91.8234 39.009 91.8261C38.2558 91.8289 38.2866 91.7003 38.2544 94.9752C38.2324 97.2048 38.1917 97.9498 38.0925 97.9498C38.0196 97.9498 37.2586 96.882 36.4012 95.5769C35.5438 94.2719 34.6695 92.9419 34.4586 92.6219C33.9587 91.8631 32.8812 91.5182 32.2561 91.9164ZM50.5076 91.9216C50.3368 92.0301 50.2972 100.394 50.4664 100.564C50.5178 100.615 51.7693 100.644 53.2474 100.628L55.935 100.599V99.9916V99.3846L54.073 99.3542C51.8449 99.3178 51.9194 99.3586 51.9214 98.1846C51.9241 96.6903 51.8042 96.791 53.5791 96.791C55.2651 96.791 55.33 96.7628 55.33 96.0294C55.33 95.5256 55.0732 95.4486 53.5015 95.4812C51.8831 95.5149 51.9241 95.5433 51.9216 94.3833C51.9189 93.1012 51.8408 93.1489 53.947 93.1489C55.9306 93.1489 55.88 93.1679 55.88 92.4263C55.88 92.1702 55.8132 92.0171 55.6671 91.9387C55.4092 91.8002 50.7229 91.7848 50.5076 91.9216ZM79.9068 91.9688C79.1846 92.25 77.22 93.3205 77.1658 93.4629C77.077 93.6946 77.5605 94.4733 77.7931 94.4733C77.9045 94.4733 78.3395 94.2994 78.76 94.087C79.9505 93.4855 79.86 93.2904 79.86 96.4577V99.2149L79.6125 99.272C79.4764 99.3032 78.969 99.3415 78.485 99.3567L77.605 99.3846V99.9916V100.599L80.4323 100.628L83.2593 100.657L83.3308 100.275C83.473 99.5145 83.2813 99.2692 82.5748 99.3076C81.438 99.3694 81.51 99.6218 81.51 95.5769C81.51 92.2058 81.5007 92.048 81.2972 91.9387C81.0178 91.7886 80.3311 91.8035 79.9068 91.9688ZM72.9729 93.1919C73.9981 93.6218 74.503 95.1586 74.2591 97.108C73.8878 100.075 70.9057 100.432 70.2292 97.5917C69.5448 94.718 71.0097 92.3689 72.9729 93.1919ZM88.649 96.2888C89.7364 96.8528 89.5499 98.9034 88.3663 99.3995C86.4089 100.22 84.7547 97.3329 86.6234 96.3575C87.1478 96.0838 88.1864 96.0485 88.649 96.2888ZM0.011 111.773C0.020625 112.143 0.03135 112.157 0.11 111.911C0.23595 111.517 0.23595 111.359 0.11 111.359C0.0495 111.359 0.00495 111.546 0.011 111.773ZM109.746 113.416C109.658 113.505 109.758 113.677 109.897 113.677C109.954 113.677 110 113.602 110 113.511C110 113.341 109.87 113.292 109.746 113.416ZM0.66 114.398C0.66 114.719 1.562 115.51 1.77595 115.378C1.86533 115.322 1.84608 115.257 1.71078 115.158C1.60463 115.08 1.55072 114.963 1.5906 114.898C1.63048 114.834 1.606 114.781 1.53642 114.781C1.46658 114.781 1.28398 114.681 1.12998 114.56C0.858825 114.346 0.66 114.277 0.66 114.398ZM109.026 114.841C108.884 114.99 108.825 115.112 108.896 115.112C109.069 115.112 109.367 114.805 109.321 114.674C109.301 114.617 109.168 114.691 109.026 114.841ZM108.422 115.424C108.215 115.654 108.19 115.774 108.35 115.774C108.41 115.774 108.46 115.699 108.46 115.608C108.46 115.517 108.534 115.443 108.625 115.443C108.716 115.443 108.79 115.393 108.79 115.332C108.79 115.161 108.622 115.202 108.422 115.424ZM1.8744 115.493C1.69538 115.709 1.83535 116.105 2.09083 116.105C2.36775 116.105 2.45382 115.939 2.26023 115.778C2.17388 115.706 2.13015 115.577 2.16342 115.49C2.2418 115.285 2.0449 115.287 1.8744 115.493ZM107.579 115.941C107.471 116.071 107.406 116.079 107.284 115.977C107.161 115.874 107.135 115.88 107.161 116.003C107.262 116.472 108.13 116.372 108.13 115.892C108.13 115.715 107.737 115.75 107.579 115.941ZM3.14655 116.391C3.058 116.622 3.06213 116.657 3.17818 116.657C3.31568 116.657 3.42045 116.345 3.3066 116.275C3.25518 116.243 3.18313 116.295 3.14655 116.391ZM106.505 116.346C106.573 116.551 106.81 116.585 106.81 116.39C106.81 116.294 106.732 116.215 106.636 116.215C106.54 116.215 106.481 116.274 106.505 116.346ZM105.93 116.708C105.93 116.807 105.995 116.846 106.095 116.807C106.186 116.772 106.26 116.699 106.26 116.645C106.26 116.591 106.186 116.546 106.095 116.546C106.004 116.546 105.93 116.619 105.93 116.708ZM3.3704 116.734C3.24637 116.858 3.29478 116.988 3.465 116.988C3.55575 116.988 3.63 116.941 3.63 116.884C3.63 116.745 3.45812 116.645 3.3704 116.734ZM106.44 116.734C106.316 116.858 106.365 116.988 106.535 116.988C106.626 116.988 106.7 116.941 106.7 116.884C106.7 116.745 106.528 116.645 106.44 116.734Z" fill="#EFF3F6"/>
<path fill-rule="evenodd" clip-rule="evenodd" d="M5.005 0.119734C4.8235 0.175468 4.52815 0.198645 4.34857 0.171606C4.14452 0.140427 3.89317 0.201956 3.67785 0.335499C3.48865 0.452763 3.30137 0.516499 3.26177 0.476768C3.22245 0.437036 3.19 0.487528 3.19 0.588513C3.19 0.689774 3.1405 0.772548 3.08 0.772548C3.0195 0.772548 2.97 0.85284 2.97 0.951065C2.97 1.07495 2.9029 1.11192 2.75 1.07164C2.607 1.03412 2.53 1.06833 2.53 1.16904C2.53 1.26175 2.40817 1.32962 2.2275 1.33707C2.04132 1.34507 1.99897 1.36935 2.1175 1.40053C2.35262 1.46206 2.37352 1.65548 2.145 1.65548C2.05425 1.65548 1.98 1.72997 1.98 1.82103C1.98 1.91208 1.90575 1.98657 1.815 1.98657C1.72425 1.98657 1.65 2.06328 1.65 2.15709C1.65 2.25062 1.58812 2.31933 1.5125 2.30939C1.166 2.26442 1.03592 2.31519 1.21 2.42804C1.32 2.49922 1.32907 2.53564 1.2375 2.53675C1.1583 2.53758 1.1 2.67912 1.1 2.8695C1.1 3.09023 1.045 3.2006 0.935 3.2006C0.825 3.2006 0.77 3.31097 0.77 3.5317C0.77 3.75243 0.715 3.8628 0.605 3.8628C0.5005 3.8628 0.44 3.96847 0.44 4.15058C0.44 4.35199 0.3938 4.42042 0.285725 4.37876C0.100925 4.30785 -0.01485 4.65522 0.121825 4.87154C0.253275 5.07958 0.2442 5.73902 0.11 5.73902C0.03685 5.73902 0 23.3976 0 58.494C0 97.638 0.032175 111.249 0.1243 111.249C0.206525 111.249 0.229625 111.417 0.192775 111.746C0.1507 112.121 0.174075 112.242 0.288475 112.242C0.394625 112.242 0.44 112.391 0.44 112.739C0.44 113.113 0.4818 113.235 0.60995 113.235C0.703175 113.235 0.77165 113.298 0.76175 113.373C0.724075 113.664 0.775775 113.787 0.935 113.787C1.02575 113.787 1.1 113.842 1.1 113.91C1.1 113.977 1.02575 114.003 0.935 113.968C0.84425 113.933 0.77 113.949 0.77 114.004C0.77 114.059 0.880825 114.119 1.0164 114.138C1.1605 114.159 1.27847 114.265 1.30075 114.394C1.32137 114.516 1.41817 114.677 1.51525 114.753C1.6126 114.829 1.65027 114.891 1.59912 114.891C1.54825 114.891 1.62057 114.99 1.76 115.112C1.89942 115.233 2.08312 115.332 2.16837 115.332C2.25335 115.332 2.2979 115.373 2.2671 115.423C2.2363 115.473 2.30477 115.594 2.4189 115.692C2.56602 115.818 2.64 115.832 2.673 115.739C2.73872 115.556 2.86825 115.703 2.88942 115.985C2.89987 116.124 2.96367 116.199 3.04507 116.168C3.12097 116.139 3.21282 116.163 3.24912 116.222C3.28542 116.281 3.3737 116.294 3.4452 116.251C3.51917 116.207 3.5101 116.253 3.42402 116.36C3.2868 116.529 3.3143 116.546 3.72295 116.546C4.08457 116.546 4.1602 116.58 4.10767 116.718C4.05432 116.857 4.13215 116.888 4.52347 116.883C4.7883 116.879 5.07925 116.879 5.17 116.882C5.26075 116.884 5.47112 116.854 5.6375 116.814C5.83 116.768 5.94 116.786 5.94 116.865C5.94 117.047 104.183 117.041 104.365 116.859C104.456 116.767 104.568 116.762 104.744 116.84C105.11 117.001 105.931 116.899 105.856 116.701C105.814 116.593 105.882 116.546 106.083 116.546C106.259 116.546 106.37 116.485 106.37 116.388C106.37 116.284 106.513 116.217 106.782 116.194C107.07 116.171 107.185 116.113 107.161 116.003C107.133 115.872 107.156 115.87 107.305 115.995C107.403 116.076 107.474 116.097 107.463 116.041C107.412 115.769 107.496 115.662 107.772 115.651C107.959 115.643 108.001 115.619 107.882 115.587C107.647 115.526 107.626 115.332 107.855 115.332C107.946 115.332 108.02 115.258 108.02 115.167C108.02 115.076 108.094 115.001 108.185 115.001C108.276 115.001 108.35 114.927 108.35 114.836C108.35 114.745 108.402 114.67 108.465 114.67C108.528 114.67 108.684 114.573 108.811 114.453C108.939 114.334 109.086 114.263 109.139 114.296C109.192 114.329 109.228 114.315 109.22 114.265C109.155 113.893 109.25 113.456 109.395 113.456C109.506 113.456 109.56 113.344 109.56 113.113C109.56 112.845 109.598 112.785 109.735 112.838C109.883 112.895 109.899 112.839 109.837 112.475C109.792 112.21 109.81 112.016 109.882 111.971C110.053 111.865 110.049 5.11986 109.878 5.01419C109.806 4.96977 109.781 4.78408 109.816 4.5661C109.862 4.28108 109.837 4.19389 109.71 4.19389C109.605 4.19389 109.552 4.10229 109.564 3.94557C109.598 3.52232 109.566 3.42133 109.395 3.42133C109.292 3.42133 109.23 3.31704 109.23 3.14542C109.23 2.99366 109.18 2.8695 109.12 2.8695C108.907 2.8695 108.625 2.48046 108.66 2.2349C108.684 2.06797 108.639 1.98657 108.523 1.98657C108.428 1.98657 108.35 1.91208 108.35 1.82103C108.35 1.72997 108.276 1.65548 108.185 1.65548C108.094 1.65548 108.02 1.58098 108.02 1.48993C108.02 1.39888 107.946 1.32438 107.855 1.32438C107.764 1.32438 107.69 1.27471 107.69 1.21401C107.69 1.15331 107.566 1.10365 107.415 1.10365C107.244 1.10365 107.14 1.04101 107.14 0.938097C107.14 0.826352 107.029 0.772548 106.798 0.772548C106.54 0.772548 106.472 0.732265 106.52 0.606999C106.567 0.482838 106.502 0.44145 106.256 0.44145C105.93 0.44145 105.808 0.28004 106.067 0.193127C106.508 0.0452366 5.48652 -0.0281568 5.005 0.119734ZM39.3258 11.6988C42.4941 12.2423 45.2042 13.6625 47.4823 15.9733C48.7858 17.2954 48.6887 17.2681 49.4846 16.5358C55.179 11.2968 64.8651 12.3927 69.2552 18.773C69.5522 19.2045 69.8976 19.6835 70.0227 19.8377L70.2504 20.1178L70.9577 19.8341C77.2189 17.323 84.8724 19.2749 89.2587 24.5007C97.4825 34.299 92.4954 49.1487 80.08 51.8314C79.0586 52.0522 75.2873 52.1253 74.1768 51.9457L73.609 51.8538L73.0405 52.6989C70.0375 57.164 63.94 59.181 59.0807 57.3166C57.7794 56.8175 57.8487 56.7962 57.2819 57.8654C51.9896 67.8472 37.4462 67.4777 32.6648 57.2402C32.1706 56.1821 32.1645 56.1777 31.4083 56.3178C27.7962 56.9886 23.2122 55.3913 20.4215 52.4898C14.999 46.8526 15.9505 37.089 22.3377 32.8286C23.0983 32.3215 23.1946 32.1692 22.9936 31.792C22.5181 30.9005 22 28.0774 22 26.3775C22 17.1647 30.2824 10.1479 39.3258 11.6988ZM24.9862 74.6526C27.4868 75.0602 28.6498 76.4116 28.6514 78.9117C28.6531 81.7922 27.1634 83.1497 23.8425 83.2946C22.9287 83.3343 22.4364 83.3986 22.4295 83.4789C22.424 83.5468 22.4279 84.3055 22.4386 85.1655C22.465 87.302 22.5596 87.1891 20.743 87.1891C19.5044 87.1891 19.2629 87.1618 19.2068 87.0145C19.0352 86.5661 19.1359 74.848 19.313 74.6706C19.5467 74.4358 23.5771 74.4233 24.9862 74.6526ZM34.8961 74.5963C35.0864 74.6689 35.2407 74.9148 35.4676 75.5069C35.6389 75.953 35.8438 76.467 35.9232 76.6492C36.0027 76.8313 36.6913 78.5695 37.4536 80.512C38.2156 82.4544 38.8842 84.143 38.9389 84.2644C38.9936 84.3858 39.193 84.8825 39.3816 85.3681C39.5706 85.8537 39.771 86.3374 39.8274 86.4428C39.8838 86.5482 39.93 86.7592 39.93 86.9118V87.1891H38.2385C36.3382 87.1891 36.4257 87.2255 36.1152 86.3062C35.7959 85.3606 35.9653 85.4233 33.7219 85.4233H31.7069L31.4559 86.113C31.0472 87.2363 31.1259 87.1993 29.213 87.1643L27.555 87.1339L27.5828 86.858C27.5979 86.7063 27.6581 86.4828 27.7164 86.3614C27.8201 86.1456 30.8619 78.5701 31.2397 77.5873C32.1552 75.2053 32.4236 74.632 32.6521 74.5712C32.9992 74.4791 34.6365 74.4973 34.8961 74.5963ZM46.7882 74.662C48.5328 74.9261 49.4906 75.5891 50.1842 77.0136C51.1758 79.0502 50.0962 82.3214 48.3018 82.7168C47.5907 82.8735 47.6297 82.9693 49.2178 84.9688C51.1142 87.3563 51.1379 87.1891 48.9032 87.1891H47.0965L46.052 85.7268C44.2104 83.1483 44.344 83.1737 44.3052 85.3957L44.275 87.1339H42.735H41.195L41.1664 80.9534C41.1397 75.2412 41.1518 74.7625 41.3248 74.635C41.5987 74.433 45.3989 74.452 46.7882 74.662ZM58.7471 74.6113C58.9391 74.7142 58.96 74.8532 58.96 76.0239C58.96 77.6273 58.9944 77.5873 57.6191 77.5873H56.5422L56.5136 82.3606L56.485 87.1339L54.8985 87.1646C53.7028 87.1877 53.2898 87.1607 53.2227 87.0542C53.1734 86.9766 53.1325 84.8149 53.1316 82.2502L53.13 77.5873H52.052C51.3601 77.5873 50.9267 77.5398 50.842 77.4548C50.611 77.2231 50.6635 74.7558 50.9025 74.6162C51.1668 74.462 58.4603 74.4573 58.7471 74.6113ZM62.8958 74.6902C63.0168 74.7964 63.5726 75.6283 64.1311 76.5388C64.6896 77.4493 65.2608 78.3681 65.4008 78.5806C65.5405 78.793 65.9774 79.5132 66.3715 80.1809C66.7653 80.8486 67.1913 81.5191 67.3178 81.6708L67.548 81.9467L67.5163 78.3284C67.4894 75.2086 67.5078 74.6954 67.65 74.6052C67.9055 74.4429 70.2111 74.47 70.4396 74.6377C70.6505 74.7923 70.7396 86.8925 70.5314 87.1014C70.4795 87.1535 69.8236 87.1822 69.0737 87.1651L67.7105 87.1339L66.6429 85.4233C66.0558 84.4824 65.1153 82.9676 64.5529 82.0571C63.5734 80.4711 63.4617 80.3194 63.289 80.3381C63.2472 80.3428 63.2087 81.8739 63.2038 83.7402L63.195 87.1339H61.655H60.115L60.0864 80.9534C60.0597 75.2412 60.0718 74.7625 60.2448 74.635C60.5553 74.4062 62.6213 74.4493 62.8958 74.6902ZM79.6471 74.6113C79.9048 74.7498 79.9747 77.2073 79.728 77.4548C79.6361 77.547 79.0498 77.5873 77.798 77.5873H76.0004L76.0325 78.3874L76.065 79.1876L77.7623 79.2182C79.8669 79.256 79.75 79.1636 79.75 80.7879C79.75 82.4122 79.8669 82.3198 77.7623 82.3576L76.065 82.3882V83.2711V84.154L77.8173 84.1847C78.881 84.2032 79.6265 84.2625 79.7148 84.3359C79.9455 84.5282 79.9199 87.0321 79.6859 87.1221C79.3342 87.2575 72.9817 87.1968 72.842 87.0567C72.6932 86.9074 72.647 74.9832 72.7941 74.7619C72.8387 74.6951 72.9492 74.6121 73.04 74.5776C73.3469 74.4603 79.4238 74.4912 79.6471 74.6113ZM87.181 74.6488C91.5208 75.3027 92.6527 80.7377 88.8525 82.6757C88.5046 82.8531 88.22 83.0245 88.22 83.0565C88.22 83.1161 90.7912 86.3539 91.0481 86.6177C91.5368 87.1196 91.2994 87.1963 89.3568 87.1643L87.524 87.1339L86.3907 85.5336C85.0979 83.7079 85.058 83.6574 84.9183 83.6574C84.8603 83.6574 84.8023 84.4123 84.7852 85.3957L84.755 87.1339H83.215H81.675L81.6467 80.9899C81.6214 75.5129 81.637 74.8267 81.7919 74.6714C82.0212 74.4413 85.7026 74.4258 87.181 74.6488ZM22.4328 77.7804C22.3806 79.1768 22.4337 80.1651 22.5657 80.2565C22.8327 80.4413 24.5019 80.2716 24.9106 80.0181C25.7389 79.5043 25.5964 78.1377 24.6741 77.7512C24.0787 77.5017 22.4425 77.523 22.4328 77.7804ZM44.3828 77.8356C44.349 77.9722 44.3355 78.6799 44.3531 79.4083L44.385 80.7327L45.2386 80.765C46.9235 80.8287 47.8197 79.6886 47.1328 78.3554C46.7569 77.6259 44.5384 77.2068 44.3828 77.8356ZM84.8768 77.7619C84.84 77.8579 84.81 78.4994 84.81 79.1876C84.81 80.8519 84.7718 80.7879 85.7675 80.7879C87.868 80.7879 88.6545 78.6631 86.8923 77.749C86.444 77.5164 84.967 77.5257 84.8768 77.7619ZM33.6097 79.4911C33.5236 79.6884 33.369 80.1478 33.2665 80.512C33.1639 80.8762 32.9884 81.4658 32.8765 81.822C32.6139 82.6589 32.6197 82.6641 33.77 82.6641C34.9665 82.6641 34.9558 82.6809 34.5502 81.4244C34.3687 80.8618 34.1401 80.116 34.0422 79.767C33.8352 79.0278 33.817 79.0162 33.6097 79.4911ZM47.3995 91.8399C48.7066 92.2908 48.9676 92.7298 48.3227 93.3925C47.8846 93.8425 47.6916 93.8991 47.4185 93.6571C46.4654 92.8114 44.2788 93.0873 43.6186 94.1364C41.7541 97.0997 44.413 100.613 47.2125 98.8846C47.8959 98.4627 47.9553 98.4688 48.4426 99.0134C48.9717 99.605 48.9288 99.8119 48.18 100.274C45.4333 101.97 42.0238 100.654 41.3009 97.6187C40.3356 93.5649 43.5553 90.5142 47.3995 91.8399ZM24.2434 91.9382C25.171 92.328 25.2796 92.5416 24.8501 93.1279C24.4788 93.6342 24.3114 93.6797 23.815 93.4088C23.3216 93.1395 21.7525 93.0691 21.4005 93.3006C20.4834 93.9038 20.875 94.7362 22.2733 95.1556C24.6812 95.8779 25.5863 96.8787 25.3443 98.551C25.025 100.755 21.9868 101.75 19.6185 100.426C18.7792 99.9562 18.7426 99.8197 19.2835 99.1782L19.6438 98.7508L20.1553 98.9847C21.8925 99.7786 23.4336 99.4262 23.4498 98.2315C23.4589 97.5616 23.0956 97.2517 21.8273 96.8481C19.4133 96.0796 18.5724 94.7999 19.3506 93.0802C19.9675 91.7174 22.3795 91.1543 24.2434 91.9382ZM65.0559 91.7963C66.2387 92.2199 66.9963 93.4756 66.8299 94.7368C66.6765 95.8992 66.2153 96.5437 64.4385 98.0786C63.1136 99.2231 63.1009 99.2058 65.2875 99.2436L67.045 99.2742L67.0785 99.8624C67.1322 100.803 67.2746 100.764 63.7904 100.764C60.3842 100.764 60.5 100.791 60.5 100.004C60.5 99.5228 60.6787 99.2129 61.1974 98.7955C63.5442 96.906 64.8161 95.5182 64.9547 94.6954C65.2099 93.1806 63.1939 92.5791 61.8018 93.7545C61.3833 94.1077 61.3423 94.1044 60.8245 93.6731C60.2539 93.1977 60.2781 93.0139 60.9826 92.4668C62.1068 91.5941 63.7406 91.3253 65.0559 91.7963ZM73.7371 91.8168C77.1713 93.2937 76.7423 100.138 73.1692 100.882C69.768 101.59 67.4679 98.311 68.5979 94.3643C69.2458 92.1015 71.64 90.9148 73.7371 91.8168ZM89.6871 91.7941C90.4038 92.0518 90.5003 92.261 90.1744 92.8495C89.8892 93.3644 89.8799 93.3663 88.715 93.1389C87.5801 92.9177 86.6588 93.3486 86.2268 94.303C85.8668 95.0979 85.9752 95.4199 86.4913 95.0905C88.432 93.8522 91.1124 95.3623 91.0973 97.6852C91.0814 100.124 88.8299 101.563 86.2518 100.783C83.9308 100.08 83.2507 95.5502 85.0902 93.0432C86.0392 91.7497 88.0467 91.2042 89.6871 91.7941ZM30.228 91.8466C30.4491 92.0684 30.3996 93.1456 30.1675 93.1651C30.0616 93.1743 29.9007 93.1916 29.81 93.204C29.7192 93.2165 29.5831 93.2339 29.5075 93.243C29.4013 93.2554 29.37 93.9236 29.37 96.1704C29.37 99.3158 29.3628 99.2778 29.975 99.3473C30.3009 99.384 30.305 99.3928 30.305 100.047V100.709H28.49H26.675L26.5738 100.298C26.4327 99.7248 26.6214 99.3294 27.0355 99.3294C27.6012 99.3294 27.61 99.2811 27.61 96.2209C27.61 93.1892 27.5674 92.9723 27.0138 93.1853C26.6082 93.3415 26.3519 92.4693 26.6634 91.9922C26.8716 91.6733 29.9307 91.5483 30.228 91.8466ZM33.8984 91.8344C34.0216 91.9006 35.0006 93.2907 36.0739 94.9236C37.147 96.5567 38.0578 97.8601 38.0977 97.8201C38.1375 97.7801 38.17 96.4414 38.17 94.8449C38.17 91.5596 38.1252 91.7141 39.0758 91.7141C39.8522 91.7141 39.82 91.5185 39.82 96.2391C39.82 101.109 39.8997 100.764 38.7739 100.764C37.7685 100.764 37.9588 100.964 35.7453 97.5872C34.6995 95.9919 33.8033 94.7268 33.7538 94.7765C33.7043 94.8262 33.6506 96.1812 33.6344 97.7878L33.605 100.709L32.9631 100.742C32.5847 100.762 32.2575 100.722 32.1656 100.646C31.9544 100.47 31.9319 92.0574 32.142 91.8466C32.3075 91.6805 33.5948 91.6713 33.8984 91.8344ZM55.7455 91.886C56.0142 92.0747 56.0805 92.6627 55.8761 93.0457C55.7705 93.2435 55.6292 93.2592 53.963 93.2592C51.8903 93.2592 52.03 93.1754 52.03 94.4206C52.03 95.4285 51.997 95.4086 53.5873 95.3703C55.215 95.3311 55.33 95.3843 55.33 96.1759C55.33 96.919 55.325 96.9209 53.5945 96.8903C51.9623 96.8616 52.0132 96.821 52.0531 98.1253L52.085 99.1638L53.947 99.1942C55.0924 99.2129 55.8651 99.2711 55.9545 99.3456C56.1371 99.4977 56.147 100.452 55.968 100.632C55.8286 100.772 50.7928 100.831 50.4441 100.697C50.2161 100.609 50.1757 92.0736 50.402 91.8466C50.6206 91.6272 55.4279 91.6625 55.7455 91.886ZM81.447 91.8877C81.5972 92.038 81.62 92.5283 81.62 95.5827V99.1045L81.8675 99.1608C82.0036 99.1917 82.3864 99.2298 82.7178 99.2455C83.4295 99.2794 83.611 99.5471 83.4276 100.292L83.325 100.709L80.5335 100.738C77.3861 100.772 77.44 100.785 77.44 99.9916C77.44 99.3004 77.5459 99.2342 78.7108 99.1961L79.695 99.1638L79.75 96.5285C79.8135 93.48 79.8713 93.6157 78.7526 94.186C77.7425 94.7009 77.6234 94.6932 77.2717 94.0914C76.8806 93.422 76.9323 93.3619 78.6629 92.4718C80.2527 91.654 81.048 91.487 81.447 91.8877ZM71.4389 93.2548C69.8481 93.9013 69.7485 98.357 71.3069 99.1815C73.0246 100.09 74.4331 98.4031 74.2002 95.716C74.0245 93.6866 72.8819 92.6685 71.4389 93.2548ZM87.1753 96.2518C86.9333 96.3098 86.5439 96.4908 86.3096 96.6535L85.8839 96.9496L85.9408 97.5803C86.1594 99.9987 89.2375 100.157 89.2375 97.7503C89.2375 96.4938 88.4749 95.9398 87.1753 96.2518Z" fill="#333333"/>
<path fill-rule="evenodd" clip-rule="evenodd" d="M4.56463 0.110391L4.34463 0.205305L4.56463 0.201994C4.68563 0.200339 4.90838 0.158952 5.05963 0.110391L5.33463 0.0220978L5.05963 0.0187869C4.90838 0.0171314 4.68563 0.0582427 4.56463 0.110391ZM105.435 0.137706C105.677 0.200891 105.906 0.301048 105.944 0.36037C105.983 0.419967 106.082 0.443144 106.164 0.411966C106.362 0.33802 105.579 -0.00356224 105.246 0.0113372C105.083 0.0187869 105.149 0.0632092 105.435 0.137706ZM106.553 0.515158C106.426 0.642079 106.473 0.772586 106.645 0.772586C106.735 0.772586 106.81 0.698089 106.81 0.607037C106.81 0.434591 106.68 0.387961 106.553 0.515158ZM2.76531 0.872744C2.65475 0.941722 2.64953 0.986421 2.74523 1.04574C2.8962 1.13928 3.0095 1.0565 2.95368 0.893437C2.93058 0.826666 2.85303 0.818112 2.76531 0.872744ZM107.14 0.938135C107.14 1.02919 107.214 1.10368 107.305 1.10368C107.395 1.10368 107.47 1.02919 107.47 0.938135C107.47 0.847084 107.395 0.772586 107.305 0.772586C107.214 0.772586 107.14 0.847084 107.14 0.938135ZM1.93728 1.60723C1.90015 1.7038 1.8149 1.74491 1.7434 1.70076C1.66695 1.65303 1.64523 1.66931 1.6895 1.74132C1.7302 1.80727 1.66393 1.93115 1.5421 2.01669C1.42055 2.10194 1.35373 2.20486 1.3936 2.24487C1.51955 2.37124 1.64963 2.32406 1.64963 2.15216C1.64963 2.06111 1.72388 1.98661 1.81463 1.98661C1.90538 1.98661 1.97963 1.91212 1.97963 1.82106C1.97963 1.73001 2.05388 1.65551 2.14463 1.65551C2.23538 1.65551 2.30963 1.60585 2.30963 1.54515C2.30963 1.36801 2.0096 1.41823 1.93728 1.60723ZM108.652 2.382C108.572 2.46201 108.968 2.86954 109.125 2.86954C109.188 2.86954 109.151 2.74703 109.042 2.59721C108.837 2.31468 108.761 2.27274 108.652 2.382ZM0.76963 3.03509C0.76963 3.12614 0.84388 3.20064 0.93463 3.20064C1.02538 3.20064 1.09963 3.12614 1.09963 3.03509C1.09963 2.94404 1.02538 2.86954 0.93463 2.86954C0.84388 2.86954 0.76963 2.94404 0.76963 3.03509ZM109.26 3.20064C109.251 3.32204 109.31 3.42137 109.391 3.42137C109.485 3.42137 109.518 3.34053 109.482 3.20064C109.45 3.07924 109.391 2.97991 109.35 2.97991C109.31 2.97991 109.269 3.07924 109.26 3.20064ZM0.43963 3.69728C0.43963 3.78834 0.51388 3.86283 0.60463 3.86283C0.69538 3.86283 0.76963 3.78834 0.76963 3.69728C0.76963 3.60623 0.69538 3.53174 0.60463 3.53174C0.51388 3.53174 0.43963 3.60623 0.43963 3.69728ZM109.78 4.66575C109.78 4.82385 109.831 4.98526 109.894 5.02444C109.969 5.07106 109.983 4.98774 109.934 4.78273C109.832 4.35976 109.78 4.31975 109.78 4.66575ZM34.3746 11.6985C27.0877 13.0389 21.9996 19.0743 21.9996 26.3775C21.9996 28.0774 22.5177 30.9006 22.9932 31.792C23.1942 32.1692 23.098 32.3215 22.3373 32.8287C15.9502 37.0891 14.9987 46.8526 20.4211 52.4898C23.2118 55.3913 27.7958 56.9886 31.4079 56.3179C32.1642 56.1777 32.1702 56.1821 32.6644 57.2402C37.4458 67.4778 51.9892 67.8472 57.2816 57.8655C57.8484 56.7963 57.7791 56.8175 59.0804 57.3167C63.9396 59.181 70.0372 57.1641 73.0402 52.6989L73.6086 51.8538L74.1765 51.9457C75.2869 52.1253 79.0583 52.0522 80.0796 51.8315C92.4951 49.1488 97.4822 34.299 89.2583 24.5007C84.8721 19.2749 77.2185 17.3231 70.9573 19.8342L70.25 20.1178L70.0223 19.8378C69.8972 19.6835 69.5518 19.2045 69.2548 18.773C64.8647 12.3927 55.1787 11.2968 49.4842 16.5359C48.6884 17.2682 48.7855 17.2955 47.482 15.9733C44.0216 12.4634 39.043 10.8396 34.3746 11.6985ZM62.2668 30.3545C62.8583 30.6721 62.261 31.5647 61.4569 31.5647C60.795 31.5647 60.3938 31.8652 60.1608 32.5359C59.9815 33.0522 60.1606 33.2202 60.8907 33.2202C61.5812 33.2202 61.7083 33.4078 61.4451 34.0399C61.2828 34.4292 61.2727 34.4342 60.6286 34.4342C59.8171 34.4342 59.7945 34.4626 59.5737 35.7586C59.4755 36.3353 59.3191 37.2292 59.2258 37.7452C59.1329 38.2611 59.0083 38.9741 58.9489 39.3295C58.4451 42.3491 57.6803 43.3739 55.9308 43.3739C54.8748 43.3739 54.583 43.0822 54.9424 42.385C55.1347 42.0117 55.2672 41.9507 55.7314 42.0216C56.7737 42.1813 57.0305 41.629 57.6955 37.8004C57.8533 36.8899 58.0458 35.8386 58.1231 35.4639C58.2815 34.6952 58.2017 34.4342 57.8082 34.4342C57.1985 34.4342 57.0877 34.2372 57.3204 33.5678C57.4232 33.2721 57.4955 33.2202 57.8063 33.2202C58.3656 33.2202 58.5073 33.1233 58.5884 32.6852C58.9277 30.8503 60.8833 29.6115 62.2668 30.3545ZM42.5573 30.5013C42.6469 30.6098 42.6739 31.9827 42.6532 35.385L42.6246 40.1181H41.9096H41.1946L41.166 35.3723C41.1501 32.7622 41.1611 30.5645 41.19 30.4886C41.2642 30.2947 42.3953 30.3054 42.5573 30.5013ZM84.013 33.3719C84.8127 33.7869 85.2758 34.546 85.4606 35.7454C85.6693 37.1001 85.6987 37.083 83.1536 37.083C80.8084 37.083 80.8241 37.0772 81.0584 37.8611C81.3378 38.7964 82.7906 39.2462 84.2294 38.8419C85.0978 38.598 85.5543 39.6589 84.7546 40.062C84.1227 40.3807 81.6887 40.2938 80.997 39.9279C78.7308 38.7291 78.7352 34.5862 81.0042 33.4164C81.8031 33.0044 83.2633 32.9829 84.013 33.3719ZM32.1983 33.2831C32.9017 33.5149 33.1316 33.7861 32.9842 34.2107C32.7871 34.7774 32.6394 34.8227 31.8405 34.5595C30.8786 34.2427 30.2381 34.2496 29.8542 34.5807C29.2577 35.0953 29.6664 35.5608 31.1296 36.0345C32.9952 36.6382 33.7237 37.8415 33.0329 39.1772C32.236 40.7182 27.5857 40.6097 27.9737 39.0591C28.1423 38.3856 28.2919 38.3263 29.0017 38.6505C30.3495 39.2663 31.263 39.2522 31.6516 38.6094C31.9799 38.0664 31.5905 37.7328 30.0558 37.2425C28.9588 36.8921 28.1709 36.2541 28.1442 35.6949C28.0406 33.522 29.781 32.4868 32.1983 33.2831ZM38.7848 33.5024C39.7168 34.2593 39.8521 34.8329 39.7993 37.8004C39.7586 40.0946 39.8268 39.9765 38.4268 40.1757C35.5695 40.5827 34.1178 39.9489 34.01 38.2473C33.9058 36.6062 34.9609 35.7586 37.1079 35.7586C38.1333 35.7586 38.1674 35.7506 38.2318 35.4929C38.471 34.5366 37.0399 34.0708 35.4881 34.6C34.5454 34.9215 33.9357 33.8832 34.8146 33.4531C35.8195 32.9617 38.1545 32.9906 38.7848 33.5024ZM48.6771 33.46C49.4831 33.9756 50.0496 35.1196 50.0496 36.2312C50.0496 37.0943 50.0804 37.083 47.7493 37.083C45.3986 37.083 45.2864 37.118 45.544 37.7728C45.9576 38.8235 47.2727 39.2682 48.7277 38.8494C49.6487 38.5842 50.1354 39.7343 49.2433 40.0673C48.0672 40.506 45.9109 40.2767 45.0188 39.6178C43.432 38.4457 43.4587 34.9378 45.0639 33.7097C45.9714 33.0152 47.7858 32.8899 48.6771 33.46ZM55.4622 33.3835C56.4233 33.8644 55.9148 35.0142 54.9251 34.5984C53.7789 34.1166 52.5796 34.3073 52.5796 34.9714C52.5796 35.4118 52.8709 35.6262 53.9747 35.9984C56.1194 36.7215 56.733 37.7645 55.8854 39.247C55.4108 40.0772 55.0359 40.2287 53.4596 40.2276C51.5217 40.2265 50.626 39.7481 50.9783 38.9018C51.1892 38.3958 51.3908 38.3329 51.8776 38.6212C53.1321 39.364 54.6696 39.1775 54.6696 38.2824C54.6696 37.8818 54.3781 37.69 53.161 37.2899C50.573 36.439 50.1871 34.1484 52.4696 33.1851C52.8406 33.0287 55.0453 33.1749 55.4622 33.3835ZM66.2746 33.3733C68.6644 34.5087 68.7345 38.7153 66.3846 39.9898C65.7376 40.3407 63.9476 40.3374 63.289 39.984C60.8283 38.6634 61.1376 34.059 63.7446 33.2039C64.3183 33.0157 65.7197 33.1095 66.2746 33.3733ZM73.0044 33.1774C73.7175 33.3692 73.1994 34.5446 72.4022 34.5446C71.0635 34.5446 70.7951 35.0732 70.7503 37.7973C70.7118 40.1456 70.7024 40.1741 69.9737 40.1716C69.1393 40.1688 69.183 40.3727 69.2155 36.6341L69.2446 33.2754L69.8342 33.2417C70.2718 33.2166 70.4775 33.2566 70.632 33.397C70.8154 33.5634 70.877 33.5681 71.1427 33.4346C71.7617 33.1239 72.4511 33.0284 73.0044 33.1774ZM78.3097 33.1796C78.7577 33.2696 78.9021 33.5356 78.7462 33.9842C78.5894 34.4348 78.3634 34.5432 77.7958 34.4389C76.096 34.1271 75.1373 34.951 75.1321 36.7287C75.1272 38.3806 75.6975 38.9112 77.4556 38.8897L78.6265 38.8753L78.7968 39.3099C79.0256 39.894 78.8094 40.1236 77.9278 40.2339C74.8698 40.6175 73.1705 38.9443 73.5916 35.965C73.9031 33.7615 75.7569 32.6673 78.3097 33.1796ZM46.3646 34.4963C45.9486 34.7074 45.6414 35.124 45.615 35.513L45.5946 35.8138H47.0246H48.4546L48.4205 35.4945C48.3243 34.594 47.2248 34.0601 46.3646 34.4963ZM64.1351 34.5203C63.0489 35.1215 62.8671 37.6337 63.8398 38.6094C64.6035 39.3758 65.7942 39.122 66.2463 38.0964C67.1566 36.032 65.7398 33.6324 64.1351 34.5203ZM81.7632 34.5396C81.357 34.7882 81.1032 35.1441 81.0512 35.5379L81.0146 35.8138L82.4193 35.8447C84.0058 35.8797 84.1078 35.827 83.7817 35.1408C83.4258 34.392 82.4699 34.1073 81.7632 34.5396ZM36.4096 36.9817C34.8122 37.4433 35.407 39.135 37.137 39.05C38.176 38.9989 38.2796 38.9007 38.2796 37.9659C38.2796 36.9525 37.6529 36.6225 36.4096 36.9817ZM19.3126 74.6706C19.1355 74.848 19.0349 86.5661 19.2065 87.0145C19.2626 87.1618 19.504 87.1891 20.7426 87.1891C22.5408 87.1891 22.4482 87.2943 22.416 85.2925L22.3921 83.823L22.3615 85.2026C22.3153 87.278 22.4776 87.0906 20.7591 87.0545L19.3046 87.0236L19.2763 80.9598C19.2593 77.3313 19.2887 74.8552 19.35 74.7937C19.4075 74.736 20.6959 74.6897 22.2933 74.6874C23.9948 74.6852 24.9361 74.6496 24.6396 74.5986C23.6243 74.4239 19.5029 74.4794 19.3126 74.6706ZM32.6518 74.5713C32.5511 74.598 32.3946 74.7785 32.3042 74.9725C31.9912 75.6429 31.5702 76.7416 31.6106 76.7825C31.6332 76.8048 31.8127 76.4116 32.0099 75.9084C32.4964 74.667 32.5173 74.6527 33.8172 74.6739C35.0429 74.6938 35.0503 74.6982 35.4174 75.6322C35.5555 75.9834 35.6858 76.2533 35.7073 76.232C35.833 76.1056 35.1268 74.6847 34.8944 74.5958C34.6356 74.4973 32.998 74.4791 32.6518 74.5713ZM41.331 74.6256C41.0305 74.8541 41.0877 87.1213 41.3893 87.1489C41.5255 87.1613 41.5337 87.1511 41.4168 87.1147C41.1891 87.0437 41.1594 74.7225 41.3871 74.7106C42.0243 74.677 46.4801 74.7189 46.9608 74.7628C47.5449 74.816 47.5535 74.8133 47.1346 74.7065C46.3943 74.5172 41.562 74.4499 41.331 74.6256ZM50.9021 74.6163C50.6632 74.7559 50.6106 77.2231 50.8416 77.4549C50.9263 77.5398 51.3597 77.5873 52.0516 77.5873H53.1296V82.2136C53.1296 84.7581 53.1596 86.9185 53.1965 87.0145C53.2531 87.1627 53.4737 87.1858 54.654 87.1668L56.0446 87.1445L54.6696 87.084L53.2946 87.0236L53.2396 82.2779L53.1846 77.5321L52.0296 77.4769L50.8746 77.4218L50.8438 76.0698C50.8199 75.0296 50.8455 74.717 50.9538 74.7145C53.048 74.6632 58.6808 74.725 58.7556 74.8C58.8114 74.856 58.843 75.4688 58.826 76.1619L58.7946 77.4218L57.6396 77.483L56.4846 77.544L57.5901 77.5658C58.999 77.5931 58.9596 77.6375 58.9596 76.024C58.9596 74.8533 58.9387 74.7142 58.7468 74.6113C58.46 74.4573 51.1664 74.462 50.9021 74.6163ZM60.2444 74.635C60.0715 74.7625 60.0594 75.2412 60.086 80.9535L60.1146 87.134H61.6546H63.1946L63.1982 84.0437L63.2018 80.9535L63.1432 83.9885L63.0846 87.0236L61.6271 87.0545L60.1696 87.0851V80.9016C60.1696 76.0314 60.1988 74.7164 60.3071 74.7114C62.7607 74.5972 62.7945 74.6036 63.2854 75.2721C63.4853 75.5442 63.4856 75.5439 63.3019 75.2144C62.9386 74.5627 62.7788 74.4971 61.5534 74.4971C60.8294 74.4971 60.3654 74.5459 60.2444 74.635ZM67.6026 74.6706C67.48 74.7934 67.4357 75.0265 67.45 75.4708L67.4703 76.0974L67.5116 75.4937C67.5341 75.1617 67.5957 74.8381 67.6483 74.7746C67.755 74.6458 70.2767 74.6383 70.5237 74.7664C70.6067 74.8094 70.5787 74.7664 70.4612 74.6709C70.1519 74.4193 67.8531 74.419 67.6026 74.6706ZM73.0396 74.5776C72.9489 74.6121 72.8383 74.6952 72.7938 74.7619C72.6467 74.9832 72.6929 86.9074 72.8416 87.0567C72.9813 87.1969 79.3338 87.2576 79.6856 87.1221C79.9196 87.0322 79.9452 84.5282 79.7144 84.3359C79.6262 84.2625 78.8806 84.2032 77.8169 84.1847L76.0646 84.1541V83.2711V82.3882L77.7619 82.3576C79.8665 82.3198 79.7496 82.4122 79.7496 80.7879C79.7496 79.1636 79.8665 79.256 77.7619 79.2182L76.0646 79.1876L76.0322 78.3875L76 77.5873H77.7977C79.0495 77.5873 79.6358 77.547 79.7276 77.4549C79.9743 77.2074 79.9045 74.7498 79.6468 74.6113C79.4235 74.4913 73.3465 74.4604 73.0396 74.5776ZM81.8039 74.659C81.6328 74.8306 81.6202 75.3433 81.6463 80.9899L81.6746 87.134H83.2133C84.6708 87.134 84.7527 87.1224 84.7744 86.9132C84.7926 86.7358 84.7857 86.7309 84.7398 86.8887C84.6878 87.0661 84.5426 87.0821 83.2333 87.0542L81.7846 87.0236L81.7563 80.9598C81.739 77.3106 81.7687 74.8552 81.8306 74.7931C81.9392 74.6841 86.3191 74.6579 87.4161 74.7597C88.009 74.8146 88.0233 74.8108 87.6146 74.7065C86.7459 74.4844 82.0165 74.4457 81.8039 74.659ZM79.6537 74.7981C79.7106 74.8552 79.743 75.4688 79.726 76.1619L79.6946 77.4218L77.8246 77.4769L75.9546 77.5321L75.9225 78.3842C75.884 79.4122 75.7421 79.3438 77.9896 79.3816L79.5846 79.4083V80.7879V82.1675L77.9896 82.1943C75.7528 82.2318 75.8996 82.1609 75.8996 83.2047C75.8996 84.3387 75.8444 84.3078 77.9423 84.3442L79.6946 84.3748V85.6992V87.0236H76.2846H72.8746L72.846 80.9535C72.8221 75.9376 72.8433 74.8643 72.9668 74.773C73.1606 74.6301 79.5098 74.6538 79.6537 74.7981ZM26.3501 75.0864C27.3756 75.5695 27.9718 76.2455 28.3829 77.3911C28.4976 77.7115 28.5936 77.8881 28.5958 77.7835C28.6153 76.8371 27.1518 75.1623 26.0696 74.893C25.9184 74.8555 26.0446 74.9424 26.3501 75.0864ZM47.7396 74.9385C47.8304 74.9973 47.9789 75.0456 48.0696 75.0456C48.2162 75.0456 48.2162 75.0337 48.0696 74.9385C47.9789 74.8798 47.8304 74.8315 47.7396 74.8315C47.5931 74.8315 47.5931 74.8433 47.7396 74.9385ZM88.7146 75.1386C90.4859 75.9881 91.3648 78.1665 90.8159 80.3465C90.7777 80.4982 90.8178 80.4485 90.9047 80.2361C91.6835 78.3342 90.2722 75.4062 88.3296 74.8944C88.1784 74.8544 88.3516 74.9645 88.7146 75.1386ZM49.278 75.8501C49.7713 76.3733 49.99 76.5427 49.7056 76.1815C49.4804 75.8954 49.2505 75.6683 49.0046 75.4882C48.8836 75.3996 49.0066 75.5626 49.278 75.8501ZM67.5652 79.0116L67.5396 81.9258L67.2921 81.7155L67.0446 81.5053L67.2567 81.7561C67.6183 82.1846 67.6543 81.9076 67.6221 78.9594L67.5908 76.0974L67.5652 79.0116ZM49.9473 76.719C50.0164 76.8484 50.1629 77.2085 50.2732 77.5192C50.3835 77.8298 50.4773 77.9984 50.4817 77.8939C50.4907 77.6789 49.9867 76.4837 49.8868 76.4837C49.8511 76.4837 49.8783 76.5896 49.9473 76.719ZM36.1357 77.4218C36.2977 77.8467 36.4809 78.3334 36.5427 78.5033C36.6046 78.6736 36.675 78.7925 36.6995 78.768C36.7531 78.7141 36.045 76.8536 35.9254 76.7336C35.8789 76.6873 35.9738 76.9968 36.1357 77.4218ZM31.3675 77.2057C31.2971 77.3605 31.2416 77.547 31.244 77.6201C31.2462 77.693 31.3213 77.584 31.4107 77.3773C31.5985 76.943 31.5589 76.7844 31.3675 77.2057ZM64.7979 77.7529C64.9337 77.9957 65.0921 78.244 65.1499 78.3047C65.3146 78.478 64.9379 77.7788 64.7335 77.5321C64.6329 77.4107 64.6618 77.51 64.7979 77.7529ZM22.3643 77.6701C22.3266 77.7763 22.2711 77.9082 22.2408 77.9631C22.2103 78.018 22.2427 78.0274 22.3126 77.9841C22.3824 77.9408 22.4396 77.8304 22.4396 77.7388C22.4396 77.5572 24.2362 77.5556 24.6946 77.7363C24.8217 77.7865 24.7986 77.7517 24.6396 77.6541C24.2181 77.3947 22.4575 77.4071 22.3643 77.6701ZM44.3516 77.6094C44.1685 77.7931 44.1685 80.5821 44.3516 80.7658C44.435 80.8494 44.7894 80.8908 45.3141 80.8782L46.1446 80.8577L45.2646 80.7954L44.3846 80.7327L44.3527 79.4083C44.3076 77.5269 44.268 77.6041 45.293 77.5589L46.1446 77.5214L45.3141 77.499C44.787 77.4849 44.4355 77.5252 44.3516 77.6094ZM84.8831 77.5506C84.8426 77.5909 84.8105 77.6778 84.8113 77.7438C84.8124 77.8185 84.8446 77.8136 84.8971 77.7305C84.946 77.653 85.3225 77.5818 85.8029 77.5594L86.6246 77.5208L85.7906 77.4987C85.3316 77.4869 84.9232 77.51 84.8831 77.5506ZM46.5552 77.8147C47.5884 78.3618 47.5642 80.0813 46.5162 80.5992C46.3118 80.7002 46.2112 80.7841 46.2926 80.7854C47.1404 80.7998 47.7295 79.1636 47.194 78.2823C47.0015 77.9659 46.4634 77.5793 46.2326 77.5923C46.1842 77.5948 46.3294 77.6949 46.5552 77.8147ZM86.9643 77.7959C87.5429 78.1499 87.7788 78.5456 87.7865 79.1749C87.7923 79.639 87.8118 79.6936 87.8965 79.482C88.1525 78.8408 87.3839 77.5881 86.7346 77.5881C86.6741 77.5881 86.7775 77.6817 86.9643 77.7959ZM56.4558 82.3526C56.4316 86.7328 56.4162 87.0661 56.2371 87.113C56.0567 87.1605 56.057 87.1643 56.2407 87.1765C56.5438 87.196 56.544 87.1944 56.5121 82.2779L56.4822 77.6425L56.4558 82.3526ZM25.1927 78.0983C25.3838 78.3748 25.4239 78.5657 25.3931 79.0538C25.372 79.3893 25.3918 79.6407 25.4371 79.6123C25.6604 79.4732 25.5177 78.3701 25.2367 78.0624L24.9537 77.7529L25.1927 78.0983ZM31.0375 78.0886C30.8533 78.4945 30.8885 78.5812 31.0876 78.2123C31.1808 78.0398 31.2363 77.8781 31.211 77.853C31.186 77.8276 31.1079 77.9339 31.0375 78.0886ZM22.3673 78.9669C22.3679 79.4525 22.3871 79.6374 22.4102 79.3777C22.4336 79.1184 22.4333 78.721 22.4097 78.4948C22.386 78.2688 22.367 78.4813 22.3673 78.9669ZM28.6365 78.9117C28.6365 79.367 28.656 79.5532 28.6797 79.3256C28.7036 79.0979 28.7036 78.7255 28.6797 78.4978C28.656 78.2702 28.6365 78.4564 28.6365 78.9117ZM50.5273 78.9669C50.5279 79.4525 50.5471 79.6374 50.5702 79.3777C50.5936 79.1184 50.5933 78.721 50.5697 78.4948C50.546 78.2688 50.527 78.4813 50.5273 78.9669ZM66.0029 79.7394C66.6797 80.8646 67.164 81.5837 66.9696 81.1742C66.8106 80.8398 65.5002 78.7208 65.3655 78.5806C65.2783 78.4895 65.5651 79.011 66.0029 79.7394ZM33.6187 79.1457C33.5202 79.2869 33.4416 79.4782 33.444 79.5709C33.4465 79.6636 33.526 79.596 33.6206 79.4205C33.7542 79.1733 33.8145 79.136 33.8895 79.2549C33.9426 79.3394 33.9863 79.3587 33.9863 79.298C33.9863 78.9752 33.7936 78.8954 33.6187 79.1457ZM30.3192 79.8644C30.1616 80.2731 30.0511 80.6257 30.0734 80.648C30.0956 80.6704 30.2428 80.3542 30.4001 79.9456C30.5576 79.5369 30.6682 79.1843 30.6459 79.162C30.6236 79.1396 30.4765 79.4558 30.3192 79.8644ZM34.0012 79.5187C33.9954 79.5794 34.1095 80.0016 34.2545 80.4568C34.3994 80.9121 34.5226 81.2349 34.5281 81.1742C34.5339 81.1135 34.4197 80.6913 34.2748 80.2361C34.1299 79.7808 34.0067 79.458 34.0012 79.5187ZM37.0124 79.6567C37.0542 79.7629 37.1882 80.1139 37.31 80.437C37.4315 80.7598 37.5534 81.0018 37.5803 80.9744C37.6383 80.9165 37.0718 79.4635 36.9913 79.4635C36.961 79.4635 36.9704 79.5504 37.0124 79.6567ZM24.9146 80.0154C24.7331 80.1359 24.641 80.235 24.71 80.2353C24.8302 80.2361 25.4127 79.8051 25.2996 79.799C25.2694 79.7974 25.0961 79.8948 24.9146 80.0154ZM87.531 80.1105C87.4287 80.2844 87.1829 80.5068 86.9849 80.6047C86.7833 80.7043 86.706 80.7841 86.8094 80.7854C87.019 80.7882 87.7796 80.1097 87.7796 79.9196C87.7796 79.7303 87.7345 79.7651 87.531 80.1105ZM28.4649 80.1809C28.4264 80.363 28.3662 80.6113 28.3307 80.7327C28.2955 80.8541 28.3439 80.7863 28.4385 80.5818C28.5334 80.3774 28.5936 80.129 28.573 80.03C28.551 79.9257 28.5053 79.9894 28.4649 80.1809ZM50.2859 80.3365C50.0406 81.1568 49.4356 81.9374 48.6227 82.482C48.4731 82.5822 48.4084 82.6641 48.4788 82.6641C48.9903 82.6641 50.571 80.5744 50.4671 80.0358C50.4473 79.9334 50.3659 80.0689 50.2859 80.3365ZM22.3296 80.0956C22.3296 80.4325 23.5484 80.5879 24.3096 80.3481C24.4623 80.3001 24.1666 80.2871 23.6447 80.3189C22.8552 80.3669 22.6748 80.3459 22.5172 80.1878C22.4141 80.0843 22.3296 80.0429 22.3296 80.0956ZM63.1396 80.1875C63.1396 80.2822 63.1861 80.3307 63.243 80.2954C63.3453 80.232 63.4292 80.3037 63.7545 80.7327C63.9124 80.9413 63.9146 80.938 63.7917 80.6776C63.5274 80.118 63.1396 79.8264 63.1396 80.1875ZM84.8377 80.6776C84.8723 80.8061 85.0772 80.845 85.7534 80.8514L86.6246 80.8597L85.8029 80.8186C85.3335 80.7948 84.9408 80.7203 84.8869 80.6447C84.8206 80.5509 84.8061 80.5606 84.8377 80.6776ZM29.3179 82.3568C28.5325 84.3188 28.5463 84.281 28.653 84.1842C28.766 84.0815 30.0393 80.8712 29.9876 80.8194C29.9664 80.7979 29.665 81.4898 29.3179 82.3568ZM32.8113 81.6913C32.4947 82.7287 32.5349 82.7745 33.7611 82.7745C34.6815 82.7745 34.9846 82.6796 34.9763 82.3937C34.9744 82.33 34.9224 82.3648 34.8608 82.471C34.7382 82.6821 32.8561 82.7671 32.7329 82.567C32.6999 82.5135 32.7739 82.1614 32.8971 81.7845C33.0205 81.4076 33.1061 81.0534 33.0876 80.9976C33.0689 80.9416 32.9446 81.2539 32.8113 81.6913ZM63.9792 81.119C64.1503 81.473 65.4923 83.6111 65.6419 83.7678C65.7288 83.8589 65.4615 83.3818 65.0473 82.7075C64.332 81.5425 63.8065 80.7609 63.9792 81.119ZM37.6441 81.2294C37.9708 82.1377 38.4202 83.222 38.4554 83.1867C38.5079 83.134 37.7742 81.2338 37.6625 81.1336C37.6196 81.0953 37.6114 81.1383 37.6441 81.2294ZM90.2766 81.3767C90.1086 81.6341 89.6796 82.0643 89.2646 82.3921L89.0446 82.5659L89.2646 82.4586C89.6887 82.2519 90.7334 81.119 90.4999 81.119C90.4697 81.119 90.3693 81.2349 90.2766 81.3767ZM34.544 81.4098C34.5416 81.4788 34.612 81.7023 34.7002 81.9065C34.7888 82.1107 34.863 82.2216 34.8652 82.1526C34.8677 82.0836 34.7973 81.8601 34.709 81.656C34.6205 81.4518 34.5462 81.3409 34.544 81.4098ZM27.4955 81.9509C27.2879 82.1658 26.8248 82.4887 26.4665 82.6683C26.1079 82.8482 25.8736 82.9952 25.9456 82.9952C26.2302 82.9952 27.1375 82.4387 27.5494 82.0116C27.7887 81.7635 27.9592 81.5605 27.9286 81.5605C27.8978 81.5605 27.7031 81.7362 27.4955 81.9509ZM47.8026 82.8377C47.5658 83.075 47.4916 82.9475 48.8757 84.6858C50.6654 86.9342 50.6821 86.959 50.4869 87.0826C50.3505 87.1693 50.3552 87.1861 50.5171 87.1875C50.9032 87.1908 50.681 86.8114 49.2205 84.9727C47.7363 83.104 47.661 82.955 48.1084 82.7737C48.285 82.7022 48.2979 82.6763 48.1601 82.671C48.0584 82.6672 47.8975 82.7422 47.8026 82.8377ZM88.3571 82.7778C88.0593 82.8981 88.042 83.1001 88.3046 83.3884C89.1717 84.3392 91.0901 86.8923 91.0387 87.0269C91.0046 87.116 91.0244 87.1891 91.0832 87.1891C91.2383 87.1891 91.2136 86.788 91.0477 86.6177C90.7961 86.3592 88.2196 83.1166 88.2196 83.0584C88.2196 83.0275 88.3558 82.9282 88.5221 82.8377C88.8538 82.6572 88.7498 82.6194 88.3571 82.7778ZM25.1896 83.1056C24.9685 83.1765 24.9578 83.1947 25.1346 83.1972C25.2556 83.1989 25.4536 83.1578 25.5746 83.1056C25.8549 82.9848 25.5658 82.9848 25.1896 83.1056ZM22.4031 83.2896C22.3626 83.3299 22.3305 83.4168 22.3313 83.4828C22.3324 83.5567 22.3654 83.5512 22.4176 83.4684C22.4726 83.3815 22.9069 83.3219 23.6535 83.2985L24.8046 83.2626L23.6406 83.2391C23.0001 83.2265 22.4432 83.2491 22.4031 83.2896ZM44.2716 83.5766C44.2441 83.6514 44.2089 84.4576 44.1932 85.3681L44.1646 87.0236L42.8996 87.0862L41.6346 87.1489L42.9546 87.1414L44.2746 87.134L44.3049 85.3957C44.3373 83.5369 44.3398 83.5283 44.7509 83.9058L45.0213 84.1541L44.834 83.86C44.6162 83.5181 44.3431 83.3807 44.2716 83.5766ZM84.7425 83.7046C84.7093 83.7913 84.704 83.9775 84.731 84.1185C84.7681 84.3136 84.7832 84.2893 84.7948 84.0161C84.8187 83.4373 85.0016 83.5355 85.6228 84.4606C85.8582 84.8116 86.095 85.1259 86.1489 85.1592C86.2031 85.1929 85.9927 84.8439 85.6814 84.3836C85.1322 83.5716 84.8668 83.3796 84.7425 83.7046ZM65.8817 84.1817C65.9422 84.2879 66.378 84.9956 66.8505 85.7544L67.7096 87.134H69.128C70.1893 87.134 70.5534 87.0986 70.5748 86.9932C70.5905 86.916 70.5781 86.9036 70.5473 86.9657C70.5135 87.0338 69.9536 87.0788 69.1415 87.0788H67.7918L66.8323 85.5337C66.3049 84.6838 65.8503 83.9885 65.8225 83.9885C65.7948 83.9885 65.8214 84.0754 65.8817 84.1817ZM38.8549 84.3196C39.0664 84.8982 39.3029 85.4269 39.3356 85.3938C39.3898 85.3394 39.007 84.3486 38.8904 84.2418C38.8376 84.1935 38.8217 84.2286 38.8549 84.3196ZM45.06 84.3472C45.2564 84.6725 45.8944 85.5337 45.9389 85.5337C45.9659 85.5337 45.786 85.2357 45.5396 84.8715C45.1601 84.3108 44.801 83.9182 45.06 84.3472ZM28.0969 85.4448C27.9281 85.8882 27.7493 86.2982 27.6998 86.3559C27.6501 86.4136 27.6107 86.5377 27.6121 86.6318C27.6135 86.7259 27.685 86.6539 27.7711 86.4718C28.0637 85.8529 28.4894 84.7241 28.4467 84.6811C28.4231 84.6576 28.2658 85.0011 28.0969 85.4448ZM31.499 85.7268C31.4057 85.9544 31.238 86.3517 31.1258 86.6097L30.922 87.0788H29.3427C28.2306 87.0788 27.7205 87.0379 27.6179 86.9408C27.5002 86.8294 27.4818 86.8349 27.5225 86.9684C27.5637 87.1042 27.8698 87.1395 29.2217 87.1643C31.1241 87.1994 31.0469 87.2358 31.4555 86.1131L31.7066 85.4233H33.7146C35.9309 85.4233 35.8445 85.3954 36.0681 86.179C36.1432 86.4428 36.2306 86.6329 36.2622 86.6012C36.3431 86.5201 36.0664 85.7384 35.8748 85.5061C35.7337 85.335 35.4851 85.3129 33.6921 85.3129H31.6684L31.499 85.7268ZM86.7487 86.0579C87.4549 87.0694 87.566 87.1911 87.7692 87.1765C87.9281 87.1649 87.9281 87.1591 87.7678 87.116C87.6705 87.0901 87.3091 86.6737 86.9645 86.1909C86.62 85.708 86.3133 85.3129 86.2834 85.3129C86.2531 85.3129 86.4627 85.6482 86.7487 86.0579ZM39.3835 85.5486C39.3813 85.5872 39.452 85.7858 39.5402 85.99C39.6288 86.1942 39.7011 86.2869 39.7014 86.1959C39.7019 86.0369 39.3915 85.4051 39.3835 85.5486ZM46.6754 86.6097L47.0623 87.134L48.6933 87.1386L50.3246 87.1433L48.7186 87.1083L47.1129 87.073L46.7595 86.5794C46.5651 86.3076 46.3795 86.0855 46.3473 86.0855C46.3149 86.0855 46.4625 86.3214 46.6754 86.6097ZM39.78 86.7422L39.8471 87.0788H38.1889C36.7256 87.0788 36.5174 87.0562 36.4184 86.8856C36.3568 86.7794 36.3049 86.7446 36.3029 86.8084C36.2936 87.1304 36.5942 87.1891 38.2466 87.1891H39.9296V86.8647C39.9296 86.6862 39.881 86.5098 39.8213 86.4729C39.7542 86.4312 39.7385 86.5336 39.78 86.7422ZM88.6871 87.1607C89.0955 87.182 89.7638 87.182 90.1721 87.1607C90.5805 87.1395 90.2464 87.1221 89.4296 87.1221C88.6129 87.1221 88.2788 87.1395 88.6871 87.1607ZM45.4571 91.5696C45.563 91.5972 45.7363 91.5972 45.8421 91.5696C45.948 91.5417 45.8614 91.5191 45.6496 91.5191C45.4379 91.5191 45.3513 91.5417 45.4571 91.5696ZM20.9546 91.7732C20.7049 91.8938 20.6917 91.9128 20.8996 91.851C21.2599 91.7439 23.3911 91.7456 23.8146 91.8532C24.0973 91.9249 24.0894 91.9142 23.7596 91.7787C23.2352 91.5632 21.3966 91.5596 20.9546 91.7732ZM43.8437 91.8259C43.5464 91.9426 43.2494 92.0952 43.1837 92.1656C43.0938 92.2616 43.1221 92.2635 43.2989 92.1722C43.6476 91.9928 44.4493 91.7357 44.8246 91.6833C45.1381 91.6391 45.1354 91.6363 44.7696 91.6256C44.5579 91.6192 44.1413 91.7095 43.8437 91.8259ZM46.5296 91.7114C46.7414 91.7564 47.0631 91.8256 47.2446 91.8651C47.5452 91.9305 47.5403 91.9227 47.1896 91.7787C46.9779 91.6918 46.6561 91.6225 46.4746 91.6248C46.1537 91.6292 46.1554 91.6314 46.5296 91.7114ZM62.2046 91.7732C61.9549 91.8938 61.9417 91.9128 62.1496 91.851C62.3009 91.806 62.9444 91.7693 63.5796 91.7693C64.2149 91.7693 64.8584 91.806 65.0096 91.851C65.2175 91.9128 65.2043 91.8938 64.9546 91.7732C64.7382 91.6686 64.2652 91.6137 63.5796 91.6137C62.8941 91.6137 62.4211 91.6686 62.2046 91.7732ZM70.5798 91.8736C70.0221 92.1476 69.3651 92.7146 69.1654 93.0937C69.1014 93.2151 69.2559 93.0813 69.5084 92.7963C70.217 91.9967 70.9197 91.7141 72.1987 91.7141C74.1911 91.7141 75.3087 92.6178 75.8012 94.627C75.9068 95.0585 75.9964 95.3121 76.0003 95.1907C76.0776 92.6757 72.9016 90.7324 70.5798 91.8736ZM88.2746 91.7133C88.9401 91.7528 89.5836 91.8193 89.7046 91.8615C89.8256 91.9037 89.7761 91.8651 89.5946 91.776C89.3639 91.6626 88.9341 91.6179 88.1646 91.6278L87.0646 91.6419L88.2746 91.7133ZM26.681 91.9594C26.4178 92.3363 26.4896 93.0752 26.8006 93.195C26.9337 93.2463 26.9318 93.216 26.7899 93.0126C26.593 92.7303 26.5704 92.3435 26.7335 92.0381C26.8699 91.782 29.723 91.7117 30.1743 91.9528C30.3915 92.069 30.4001 92.0637 30.2637 91.8976C29.9986 91.5754 26.912 91.6283 26.681 91.9594ZM32.1416 91.8466C31.9315 92.0574 31.9541 100.47 32.1653 100.646C32.4425 100.877 33.5983 100.752 33.6247 100.488C33.6431 100.307 33.6368 100.303 33.5892 100.466C33.5403 100.634 33.4278 100.659 32.8531 100.631L32.1746 100.599L32.1458 96.3018C32.1133 91.4446 32.0319 91.8287 33.0948 91.8262C33.7622 91.8245 33.8131 91.8438 34.1846 92.2384C34.5556 92.6324 34.5625 92.6349 34.3293 92.2933C33.9437 91.7285 32.5442 91.4426 32.1416 91.8466ZM38.3621 91.8334C38.1864 91.936 38.1696 92.2009 38.1696 94.8585C38.1696 96.6812 38.1284 97.7967 38.0596 97.8395C37.9991 97.877 37.9485 97.8676 37.9472 97.8185C37.9458 97.7694 37.8416 97.6049 37.7153 97.4532L37.4857 97.1773L37.7131 97.5636C38.182 98.3598 38.2224 98.1667 38.2541 94.9752C38.2862 91.7004 38.2554 91.8289 39.0087 91.8262C39.736 91.8234 39.7154 91.6846 39.6835 96.3625L39.6546 100.599L38.8052 100.631L37.956 100.663L37.4607 99.9687C36.845 99.1051 36.592 98.7834 36.6976 98.9983C36.8584 99.3261 37.7519 100.599 37.8768 100.679C38.0893 100.815 39.543 100.777 39.6876 100.632C39.8771 100.442 39.8771 92.0367 39.6876 91.8466C39.5276 91.686 38.6294 91.6772 38.3621 91.8334ZM50.4016 91.8466C50.329 91.9194 50.2696 92.0224 50.2696 92.0753C50.2696 92.128 50.3475 92.0933 50.4426 91.9981C50.5892 91.8507 50.9819 91.8245 53.0348 91.8245C55.7234 91.8245 55.8796 91.8576 55.8796 92.4263C55.8796 93.1679 55.9302 93.1489 53.9467 93.1489C51.8404 93.1489 51.9185 93.1012 51.9213 94.3834C51.9238 95.5433 51.8828 95.5149 53.5012 95.4812C54.3512 95.4636 54.9749 95.4997 55.1314 95.5761C55.378 95.6962 55.3789 95.6948 55.1646 95.5212C54.9845 95.3753 54.7057 95.348 53.6222 95.3714C51.9914 95.4067 52.0296 95.4296 52.0296 94.4206C52.0296 93.1754 51.8899 93.2593 53.9626 93.2593C55.9748 93.2593 55.9896 93.2532 55.9896 92.4451C55.9896 91.7514 55.8387 91.7141 53.0172 91.7141C51.2321 91.7141 50.4965 91.7514 50.4016 91.8466ZM79.6625 91.9487C79.4029 92.0778 79.2131 92.2058 79.2406 92.2334C79.2681 92.261 79.4147 92.202 79.5665 92.1021C79.927 91.8654 80.9602 91.758 81.2715 91.9252C81.508 92.0521 81.5096 92.077 81.5096 95.577C81.5096 99.5173 81.4739 99.3484 82.3 99.3145C82.5874 99.3026 82.6063 99.2902 82.3896 99.256C82.2384 99.232 82.0033 99.1881 81.8671 99.1583L81.6196 99.1045V95.5828C81.6196 92.5284 81.5968 92.0381 81.4467 91.8877C81.1895 91.6297 80.2397 91.6623 79.6625 91.9487ZM19.9875 92.2759C19.6099 92.588 19.2425 93.1197 19.2546 93.3365C19.2571 93.3851 19.3577 93.2378 19.4782 93.009C19.5983 92.7803 19.9006 92.4451 20.1497 92.2641C20.3989 92.0831 20.557 91.9349 20.5012 91.9349C20.4453 91.9349 20.2143 92.0883 19.9875 92.2759ZM24.5571 92.1631C25.1558 92.4804 24.9853 93.2827 24.2733 93.4966L24.0346 93.5683L24.2725 93.5793C24.6152 93.5953 25.2224 92.7541 25.0719 92.4721C24.9683 92.2778 24.4191 91.9294 24.2326 91.9398C24.1842 91.9423 24.3303 92.043 24.5571 92.1631ZM61.0221 92.4332C60.2744 93.0223 60.2483 93.1936 60.8327 93.6803C61.312 94.0796 61.5391 94.079 61.8876 93.677C62.0891 93.4447 62.0847 93.4452 61.7333 93.69C61.3464 93.9598 61.3337 93.9571 60.6921 93.4441C60.3635 93.1815 60.4752 92.9458 61.1717 92.4313C61.5413 92.1584 61.8012 91.9349 61.7492 91.9349C61.6973 91.9349 61.37 92.1592 61.0221 92.4332ZM65.5046 92.1128C65.6256 92.2069 65.8044 92.3419 65.902 92.413C65.9996 92.484 66.21 92.735 66.3695 92.9712C66.529 93.2074 66.6596 93.3534 66.6596 93.2962C66.6596 93.0148 65.6584 91.9434 65.3946 91.9423C65.3341 91.9421 65.3836 92.0188 65.5046 92.1128ZM85.8975 92.2091C85.2947 92.6056 84.2052 94.2346 84.4073 94.4374C84.4351 94.4653 84.514 94.3171 84.5828 94.1083C84.7755 93.5217 85.3924 92.724 85.9726 92.3099C86.5661 91.8866 86.5072 91.808 85.8975 92.2091ZM90.1367 92.1084C90.3525 92.3248 90.3547 92.2966 90.0811 92.8344C89.8716 93.2466 89.8243 93.2786 89.5036 93.2223C89.1975 93.1688 89.1843 93.1757 89.3961 93.2797C89.739 93.4477 89.9367 93.3349 90.1977 92.8217C90.4271 92.3708 90.3679 91.9349 90.0778 91.9349C90.0151 91.9349 90.0418 92.013 90.1367 92.1084ZM42.4596 92.7626C42.1923 93.0358 41.9985 93.2593 42.0287 93.2593C42.059 93.2593 42.3023 93.0358 42.5696 92.7626C42.8369 92.4895 43.0308 92.266 43.0006 92.266C42.9703 92.266 42.7269 92.4895 42.4596 92.7626ZM48.4271 92.4401C48.8834 92.9839 47.9335 94.0318 47.4094 93.5628C47.2782 93.4455 47.2771 93.4535 47.4008 93.618C47.6236 93.9132 47.8755 93.8517 48.3224 93.3925C48.7934 92.9083 48.8256 92.713 48.4821 92.4211C48.2349 92.2111 48.2349 92.2111 48.4271 92.4401ZM78.0862 92.7624C76.9727 93.3318 76.899 93.4538 77.2771 94.1014C77.5477 94.5644 77.9784 94.7594 78.1423 94.4932C78.1731 94.4435 78.0633 94.4228 77.8989 94.4468C77.6456 94.4843 77.5626 94.4239 77.3541 94.0517C77.0241 93.4629 77.0838 93.3699 78.1139 92.8661C78.6012 92.6277 79.0231 92.3951 79.0514 92.3493C79.1243 92.2307 79.1309 92.2279 78.0862 92.7624ZM34.5982 92.8178C34.7734 93.1362 36.2196 95.3021 36.3302 95.4114C36.5037 95.583 36.3379 95.3088 35.4953 94.0318C34.8006 92.9789 34.3568 92.378 34.5982 92.8178ZM50.3189 96.3495C50.3189 98.383 50.3337 99.2149 50.3519 98.1982C50.37 97.1814 50.37 95.5176 50.3519 94.5009C50.3337 93.4841 50.3189 94.316 50.3189 96.3495ZM21.8896 93.0386C21.6971 93.1003 21.8459 93.1263 22.3846 93.1249C22.9566 93.1233 23.0697 93.1012 22.8246 93.0386C22.4 92.9301 22.2271 92.9301 21.8896 93.0386ZM62.7876 93.1031C62.503 93.1908 62.2415 93.3098 62.206 93.3674C62.1705 93.4251 62.3149 93.3994 62.5269 93.3106C62.739 93.2218 63.174 93.1439 63.4936 93.1379C63.9498 93.1293 64.0155 93.1078 63.7996 93.0386C63.4245 92.918 63.3778 92.921 62.7876 93.1031ZM87.6468 93.0187C87.5434 93.0601 87.8319 93.0959 88.2881 93.0984C88.7443 93.1009 89.027 93.0672 88.9162 93.0234C88.6616 92.9227 87.8943 92.9199 87.6468 93.0187ZM45.4585 93.1177C45.626 93.1431 45.8735 93.1426 46.0085 93.1163C46.1438 93.0901 46.0071 93.0692 45.7046 93.07C45.4021 93.0708 45.2913 93.0923 45.4585 93.1177ZM71.9685 93.1177C72.136 93.1431 72.3835 93.1426 72.5185 93.1163C72.6538 93.0901 72.5171 93.0692 72.2146 93.07C71.9121 93.0708 71.8013 93.0923 71.9685 93.1177ZM21.0745 93.4886C20.7495 93.8759 20.7269 94.0821 20.9662 94.4733C21.0776 94.6554 21.1086 94.6742 21.058 94.5285C20.8576 93.9515 20.8768 93.8169 21.209 93.4836C21.3924 93.2996 21.5013 93.1489 21.451 93.1489C21.4004 93.1489 21.231 93.3018 21.0745 93.4886ZM29.3331 93.2226C29.1925 93.3633 29.2486 99.1639 29.3916 99.3073C29.4642 99.3802 29.6829 99.4398 29.8776 99.4398C30.072 99.4398 30.2565 99.4905 30.2873 99.5529C30.3181 99.6152 30.3308 99.6026 30.3154 99.5253C30.3002 99.448 30.1429 99.3678 29.9661 99.3473C29.3636 99.2773 29.3696 99.309 29.3696 96.1796C29.3696 93.9612 29.4021 93.2645 29.5071 93.222C29.5839 93.1908 29.5921 93.1624 29.5256 93.1577C29.4598 93.1528 29.3732 93.182 29.3331 93.2226ZM44.3079 93.3741C43.6465 93.7245 42.9951 94.8014 43.0168 95.508C43.0209 95.6371 43.0938 95.4829 43.179 95.1653C43.4232 94.2559 43.8168 93.7247 44.4737 93.4179C44.7878 93.2711 44.9704 93.1528 44.8796 93.155C44.7889 93.1569 44.5318 93.2557 44.3079 93.3741ZM46.6946 93.3178C47.2457 93.517 47.3211 93.5159 46.9696 93.3145C46.8184 93.2278 46.5956 93.1572 46.4746 93.1577C46.3536 93.1583 46.4526 93.2303 46.6946 93.3178ZM64.3766 93.3426C64.9403 93.6933 65.1144 94.3169 64.8534 95.0508C64.7729 95.2773 64.7489 95.4368 64.8004 95.4048C65.4125 95.0251 64.9068 93.1348 64.1973 93.1519C64.1299 93.1533 64.2105 93.2394 64.3766 93.3426ZM71.0946 93.3572C70.7321 93.661 70.2891 94.364 70.2946 94.6267C70.2976 94.7771 70.3529 94.7084 70.4508 94.4333C70.6155 93.9695 71.0951 93.4008 71.4446 93.2549C71.5854 93.1961 71.6052 93.1616 71.4996 93.1597C71.4089 93.1577 71.2266 93.2469 71.0946 93.3572ZM73.0946 93.3542C73.5476 93.6348 73.7777 93.9148 73.9752 94.4256C74.1072 94.7674 74.1295 94.7892 74.0791 94.5285C73.9947 94.0909 73.6166 93.5435 73.2478 93.3249C72.8312 93.0783 72.692 93.1048 73.0946 93.3542ZM86.7212 93.5068C86.0507 94.0972 85.628 95.3587 86.1021 95.3546C86.2548 95.3532 86.2633 95.3328 86.1426 95.2563C85.7754 95.0229 86.3098 93.8674 87.0011 93.4C87.2052 93.2618 87.3171 93.1489 87.2497 93.1489C87.1823 93.1489 86.9445 93.3098 86.7212 93.5068ZM68.8066 93.7344C68.723 93.935 68.6262 94.2454 68.5915 94.4242C68.5228 94.7782 68.5679 94.6902 68.8638 93.8939C69.084 93.3009 69.0392 93.1759 68.8066 93.7344ZM19.1561 94.1074C19.1341 95.0158 19.7719 96.2392 20.2671 96.2392C20.329 96.2392 20.2506 96.1376 20.0936 96.0137C19.5222 95.5626 19.3167 95.1388 19.2428 94.2575L19.1729 93.4248L19.1561 94.1074ZM41.6014 93.9273C41.0659 94.7876 41.0401 98.167 41.5664 98.4934C41.6102 98.5207 41.5598 98.2108 41.4542 97.805C41.1374 96.5865 41.2268 94.9476 41.6561 94.1044C41.8414 93.7405 41.8005 93.6078 41.6014 93.9273ZM78.7596 94.087C78.4874 94.2333 78.3037 94.3552 78.3515 94.358C78.4684 94.3646 79.3096 93.9308 79.3096 93.8641C79.3096 93.791 79.3143 93.789 78.7596 94.087ZM66.7996 94.3629C66.7996 94.6361 66.8211 94.7478 66.8472 94.6113C66.8736 94.4747 66.8736 94.2512 66.8472 94.1146C66.8211 93.978 66.7996 94.0898 66.7996 94.3629ZM79.7485 96.5703L79.6946 99.1639L78.7104 99.1961C77.5483 99.2342 77.4396 99.3013 77.4396 99.983C77.4396 100.782 77.3687 100.764 80.4894 100.764H83.2751L83.3824 100.481C83.5372 100.072 83.5144 99.6246 83.326 99.378C83.1767 99.1823 83.1731 99.195 83.2828 99.5253C83.3491 99.7242 83.3706 100.06 83.331 100.272L83.2589 100.657L80.4319 100.628L77.6046 100.599V99.9916V99.3846L78.6686 99.3294C79.9985 99.2604 79.8687 99.5689 79.8332 96.5589L79.8024 93.9767L79.7485 96.5703ZM33.5991 94.7238C33.5697 94.8008 33.5598 96.0548 33.5771 97.5106L33.6088 100.157L33.6343 97.4874C33.6481 96.019 33.7036 94.7901 33.7578 94.7567C33.8117 94.7233 34.2608 95.3162 34.7558 96.0744C35.2508 96.8326 35.6776 97.4532 35.7043 97.4532C35.7631 97.4532 35.3721 96.8246 34.5196 95.5494C33.8873 94.6035 33.7069 94.4418 33.5991 94.7238ZM84.1986 94.9639C84.1571 95.1854 84.148 95.3913 84.1782 95.4216C84.2085 95.452 84.2671 95.2958 84.3086 95.0742C84.3498 94.8527 84.3592 94.6466 84.3289 94.6162C84.2987 94.5859 84.2398 94.7423 84.1986 94.9639ZM87.3946 94.7925C87.2076 94.8334 87.5178 94.8645 88.1096 94.8645C88.7014 94.8645 89.0116 94.8334 88.8246 94.7925C88.6431 94.7525 88.3214 94.7203 88.1096 94.7203C87.8979 94.7203 87.5761 94.7525 87.3946 94.7925ZM68.3828 95.4578C68.3424 95.8468 68.33 96.1859 68.3553 96.2116C68.4235 96.2797 68.5613 95.0654 68.5049 94.8954C68.4782 94.8154 68.4235 95.0684 68.3828 95.4578ZM66.5609 95.4109C66.3533 96.1197 65.5759 97.0288 64.2391 98.1267C62.8259 99.2872 62.8517 99.3382 64.8306 99.3057L66.2746 99.2817L64.9016 99.2466C63.1421 99.2019 63.141 99.1992 64.4382 98.0787C66.0546 96.6823 66.8618 95.6288 66.7493 95.0616C66.7303 94.965 66.6453 95.1223 66.5609 95.4109ZM70.1403 95.3286C70.0551 95.846 70.068 96.9833 70.1631 97.3218C70.2025 97.462 70.2346 96.9778 70.2346 96.2458C70.2346 94.755 70.2346 94.7553 70.1403 95.3286ZM74.1652 95.2459C74.1652 95.4583 74.1878 95.5452 74.2155 95.439C74.243 95.3328 74.243 95.159 74.2155 95.0527C74.1878 94.9465 74.1652 95.0334 74.1652 95.2459ZM86.508 95.0864C86.2979 95.2552 86.2982 95.2563 86.5146 95.1565C86.6356 95.1007 86.8089 95.0273 86.8996 94.9937C87.0421 94.9404 87.0413 94.931 86.893 94.9236C86.799 94.9186 86.6257 94.992 86.508 95.0864ZM21.7796 95.0632C21.7796 95.1416 23.2388 95.5844 23.2987 95.5243C23.3232 95.4997 23.0534 95.3954 22.699 95.2925C22.3445 95.1898 21.9928 95.0822 21.9171 95.0536C21.8415 95.0249 21.7796 95.0293 21.7796 95.0632ZM89.5396 95.0665C89.5396 95.0925 89.7082 95.2136 89.9142 95.3355C90.3143 95.5723 90.8379 96.3639 90.974 96.938C91.0384 97.209 91.0596 97.2305 91.0684 97.0338C91.0906 96.5297 90.3949 95.4633 89.8639 95.1877C89.6857 95.0952 89.5396 95.0406 89.5396 95.0665ZM23.8696 95.862C24.1419 96.0173 24.5131 96.2775 24.6946 96.44L25.0246 96.7358L24.6946 96.3669C24.5131 96.1641 24.1809 95.9034 23.9565 95.7875C23.3576 95.4785 23.2935 95.5334 23.8696 95.862ZM36.7435 96.1183C36.9327 96.4265 37.1348 96.7079 37.1931 96.7444C37.2514 96.7805 37.1447 96.5578 36.9558 96.2496C36.7666 95.9415 36.5645 95.66 36.5062 95.6236C36.4479 95.5874 36.5546 95.8101 36.7435 96.1183ZM84.0798 96.7358C84.0801 97.3428 84.0985 97.5771 84.1208 97.2565C84.143 96.9356 84.143 96.4389 84.1202 96.1528C84.0977 95.8664 84.0795 96.1288 84.0798 96.7358ZM42.9274 96.2943C42.9285 96.5371 42.9511 96.6235 42.9775 96.4861C43.0039 96.349 43.0028 96.1503 42.9753 96.0446C42.9478 95.9392 42.926 96.0515 42.9274 96.2943ZM74.2774 96.2943C74.2785 96.5371 74.3011 96.6235 74.3275 96.4861C74.3539 96.349 74.3528 96.1503 74.3253 96.0446C74.2978 95.9392 74.276 96.0515 74.2774 96.2943ZM63.4146 96.8492C62.9306 97.3003 62.1312 98.0058 61.6379 98.4167C60.5153 99.3523 60.259 99.8862 60.6135 100.551C60.7647 100.834 66.7507 100.887 66.9822 100.607C67.2077 100.335 67.0867 99.2836 66.8246 99.2378C66.6154 99.2011 66.6143 99.2066 66.804 99.3506C66.9597 99.4687 66.996 99.623 66.969 100.05L66.9346 100.599L63.8324 100.628L60.7304 100.657L60.6578 100.27C60.5332 99.6028 60.6704 99.3873 61.9024 98.3204C63.1083 97.2755 64.4489 96.0182 64.3496 96.0248C64.3194 96.027 63.8986 96.3978 63.4146 96.8492ZM86.8171 96.2425C86.4662 96.384 86.5091 96.4679 86.8721 96.3501C87.0385 96.2963 87.2736 96.2301 87.3946 96.2033C87.5673 96.1649 87.5555 96.1531 87.3396 96.1487C87.1884 96.1453 86.9533 96.1876 86.8171 96.2425ZM20.5204 96.3589C20.5823 96.4596 21.6661 96.8313 21.7249 96.7722C21.7477 96.7496 21.4741 96.6285 21.1174 96.5029C20.7605 96.3774 20.4921 96.3128 20.5204 96.3589ZM88.8532 96.5606C89.0906 96.799 89.2151 97.0352 89.2261 97.2686C89.2413 97.5931 89.2459 97.5969 89.2877 97.3216C89.3392 96.985 89.073 96.5123 88.7276 96.3269C88.5782 96.2469 88.6225 96.3294 88.8532 96.5606ZM68.3888 96.9565C68.4227 97.3207 68.468 97.6394 68.49 97.6648C68.5668 97.7537 68.5065 96.8429 68.4177 96.5703C68.3616 96.3989 68.3506 96.5451 68.3888 96.9565ZM55.1897 96.5998C55.1305 96.7543 54.9108 96.7896 53.8218 96.8189L52.5246 96.8539L53.7896 96.876C55.0623 96.898 55.3973 96.8288 55.3082 96.5609C55.2733 96.4555 55.2408 96.4662 55.1897 96.5998ZM86.1142 96.687C85.8684 96.9019 85.8673 96.9077 86.0961 96.7965C86.2286 96.7322 86.3678 96.6301 86.4049 96.5697C86.5133 96.3942 86.3945 96.442 86.1142 96.687ZM22.3846 97.0244C23.7385 97.5693 23.8749 98.9533 22.6107 99.322C22.336 99.402 22.32 99.4216 22.5238 99.4298C23.3306 99.4621 23.8897 98.018 23.2921 97.4455C23.0358 97.1999 22.1883 96.7866 21.9631 96.7971C21.8924 96.8004 22.0821 96.9027 22.3846 97.0244ZM43.0184 96.9703C42.9959 97.5757 43.6322 98.742 44.1314 99.0099C44.2592 99.0786 44.1586 98.9268 43.9075 98.6724C43.5792 98.3397 43.4023 98.034 43.2775 97.5831C43.0415 96.733 43.0283 96.7013 43.0184 96.9703ZM74.1561 97.2038C74.1471 97.4002 74.0453 97.8099 73.9304 98.1143C73.8151 98.4183 73.7618 98.6418 73.8118 98.6106C73.9752 98.5094 74.2661 97.4678 74.2188 97.1533C74.1751 96.8622 74.1718 96.8647 74.1561 97.2038ZM85.8274 97.398C85.8285 97.6408 85.8511 97.7272 85.8775 97.5898C85.9039 97.4526 85.9028 97.254 85.8753 97.1483C85.8478 97.0429 85.826 97.1552 85.8274 97.398ZM51.9408 98.0743C51.9136 99.3758 51.8165 99.3175 54.0726 99.3542L55.9346 99.3846V99.9916V100.599L53.2396 100.628C50.8034 100.655 50.5314 100.64 50.4071 100.469C50.2875 100.305 50.2696 100.303 50.2696 100.455C50.2696 100.74 50.4968 100.764 53.2267 100.764C56.153 100.764 56.0996 100.779 56.0996 99.983C56.0996 99.2452 56.0537 99.2284 53.9467 99.1942L52.0846 99.1639L52.0233 98.1154L51.9617 97.0669L51.9408 98.0743ZM75.8595 97.5508C75.8171 97.8168 75.8056 98.0577 75.8339 98.0861C75.9079 98.1603 76.0413 97.3828 75.9841 97.2109C75.9579 97.132 75.9018 97.2849 75.8595 97.5508ZM25.3252 98.1154C25.3252 98.3278 25.3478 98.4147 25.3755 98.3085C25.403 98.2023 25.403 98.0285 25.3755 97.9222C25.3478 97.816 25.3252 97.9029 25.3252 98.1154ZM68.5335 97.9247C68.5285 98.175 69.1228 99.4958 69.2862 99.597C69.3544 99.6393 69.309 99.5021 69.1855 99.2922C69.062 99.0822 68.866 98.6446 68.7494 98.3198C68.6328 97.9948 68.5357 97.8171 68.5335 97.9247ZM36.1558 98.2343C36.2653 98.4211 36.425 98.6322 36.5108 98.7034C36.5966 98.7745 36.5284 98.6217 36.3588 98.3637C36.0026 97.8221 35.8621 97.7324 36.1558 98.2343ZM84.1557 98.0315C84.1282 98.9175 85.5282 100.764 86.227 100.764C86.323 100.764 86.2042 100.66 85.963 100.532C85.1319 100.091 84.7027 99.5374 84.3608 98.4644C84.2511 98.1206 84.1587 97.9258 84.1557 98.0315ZM89.2261 98.1833C89.1942 98.8488 88.6646 99.2977 87.7323 99.4489L87.1746 99.5391L87.7604 99.5049C88.6401 99.4533 89.3845 98.7988 89.2899 98.1598L89.2426 97.8395L89.2261 98.1833ZM90.9861 98.2602C90.9061 99.7656 89.5193 100.808 87.5866 100.815C86.7503 100.818 86.5512 100.844 86.8166 100.914C88.6899 101.407 91.2804 99.7739 91.0477 98.2462L91.0026 97.9498L90.9861 98.2602ZM70.5924 98.5566C70.8245 98.9956 71.4202 99.4423 71.7634 99.4348C71.9075 99.432 71.8288 99.3711 71.5546 99.2739C71.1468 99.1291 70.8933 98.9075 70.5314 98.3797C70.4524 98.2647 70.4799 98.3441 70.5924 98.5566ZM75.4621 98.8686C75.3114 99.2143 74.9666 99.7154 74.6921 99.9866C74.3101 100.364 74.2766 100.421 74.5477 100.231C75.0411 99.8843 75.8658 98.6049 75.7685 98.3361C75.75 98.2845 75.612 98.5243 75.4621 98.8686ZM86.0221 98.3783C86.013 98.7307 86.8991 99.5874 87.0825 99.4036C87.1067 99.3791 86.9849 99.3002 86.8114 99.2281C86.6381 99.1561 86.3901 98.9136 86.2605 98.689C86.1307 98.4647 86.0235 98.3248 86.0221 98.3783ZM25.2045 98.7544C25.1649 99.4262 24.5615 100.169 23.7596 100.534C23.4874 100.658 23.329 100.76 23.4076 100.762C24.1174 100.774 25.3918 99.3887 25.2661 98.7414C25.2207 98.5072 25.2193 98.5074 25.2045 98.7544ZM47.1896 98.8929C46.9174 99.07 46.745 99.2157 46.8066 99.2168C46.8682 99.2182 47.1008 99.0949 47.3233 98.9431C47.8034 98.6159 47.9233 98.6049 48.2261 98.8603C48.4544 99.0532 48.4544 99.0532 48.2451 98.8052C47.9748 98.4848 47.7941 98.5 47.1896 98.8929ZM41.6913 98.7378C41.6905 98.8068 41.7914 98.9807 41.916 99.1241C42.0936 99.3289 42.1181 99.3374 42.0295 99.1639C41.8387 98.7894 41.6932 98.6059 41.6913 98.7378ZM19.259 99.2075C18.8121 99.7734 19.0272 100.444 19.6517 100.431C19.7028 100.43 19.5838 100.326 19.3871 100.2C18.9334 99.908 18.9378 99.7069 19.4097 99.1914C19.6179 98.9638 19.7457 98.7776 19.6932 98.7776C19.641 98.7776 19.4454 98.971 19.259 99.2075ZM73.2709 99.0629C73.0652 99.2094 72.7682 99.3363 72.6109 99.3443C72.3626 99.3575 72.3565 99.3658 72.5647 99.4064C72.8293 99.458 73.3606 99.2201 73.5836 98.9503C73.7706 98.7243 73.7205 98.7423 73.2709 99.0629ZM20.1296 99.0436C20.3265 99.2408 21.4692 99.5543 21.9402 99.5402C22.1242 99.5347 21.9191 99.4654 21.4846 99.3865C21.0498 99.3073 20.53 99.1605 20.3296 99.0604C20.0356 98.9139 19.9968 98.9106 20.1296 99.0436ZM27.449 99.2116C27.4092 99.2764 27.2301 99.3294 27.0508 99.3294C26.6202 99.3294 26.4299 99.7151 26.5734 100.298L26.6746 100.709H28.4806C29.8558 100.709 30.2931 100.675 30.3148 100.568C30.3302 100.491 30.3181 100.479 30.2873 100.541C30.2527 100.611 29.5679 100.654 28.4855 100.654H26.7395L26.6691 100.277C26.5649 99.7201 26.6887 99.44 27.0396 99.4381C27.3652 99.4362 27.6971 99.2701 27.5898 99.1625C27.5524 99.1249 27.4889 99.147 27.449 99.2116ZM44.5826 99.2259C44.8719 99.402 45.8647 99.4787 46.3096 99.3595C46.638 99.2715 46.5731 99.2577 45.8696 99.2651C45.4159 99.2701 44.8961 99.2364 44.7146 99.1901C44.4517 99.1227 44.4248 99.1302 44.5826 99.2259ZM48.5567 99.2822C48.8944 99.6208 48.7393 99.8589 47.8496 100.368C47.5774 100.524 47.4058 100.652 47.4682 100.652C47.6945 100.655 48.8396 99.86 48.8396 99.7C48.8396 99.4665 48.6328 99.1087 48.4978 99.1087C48.4351 99.1087 48.4618 99.1868 48.5567 99.2822ZM42.6241 99.9436C43.5341 100.761 45.2886 101.192 46.567 100.91C46.8836 100.84 46.6768 100.817 45.742 100.818C44.2491 100.82 43.4232 100.564 42.6843 99.873C42.4297 99.6346 42.1882 99.442 42.1478 99.4447C42.1076 99.4475 42.3219 99.6718 42.6241 99.9436ZM69.4492 99.8561C69.5361 99.9974 70.1796 100.475 70.1796 100.399C70.1796 100.371 69.9979 100.21 69.7759 100.04C69.5537 99.8699 69.4066 99.7871 69.4492 99.8561ZM19.8557 100.533C20.0573 100.735 21.2701 100.985 21.9952 100.974C23.2745 100.954 23.2602 100.82 21.9779 100.809C21.0968 100.802 20.5908 100.744 20.2407 100.612C19.969 100.508 19.7958 100.473 19.8557 100.533ZM70.3452 100.545C70.6653 101.064 73.3358 101.099 73.99 100.593C74.135 100.481 74.0659 100.489 73.7546 100.623C73.1452 100.883 71.2827 100.886 70.698 100.626C70.4689 100.524 70.3103 100.487 70.3452 100.545ZM109.853 111.985C109.813 112.025 109.783 112.162 109.787 112.288C109.793 112.5 109.802 112.497 109.899 112.254C110.007 111.984 109.984 111.853 109.853 111.985ZM0.179755 112.408C0.21468 112.499 0.28728 112.573 0.341455 112.573C0.395355 112.573 0.43963 112.499 0.43963 112.408C0.43963 112.317 0.36703 112.242 0.278205 112.242C0.179755 112.242 0.141255 112.307 0.179755 112.408ZM109.23 113.622C109.23 113.713 109.296 113.787 109.376 113.787C109.457 113.787 109.523 113.713 109.523 113.622C109.523 113.531 109.457 113.456 109.376 113.456C109.296 113.456 109.23 113.531 109.23 113.622ZM108.68 114.56C108.68 114.621 108.605 114.67 108.515 114.67C108.424 114.67 108.35 114.745 108.35 114.836C108.35 114.927 108.275 115.001 108.185 115.001C108.094 115.001 108.02 115.076 108.02 115.167C108.02 115.258 107.945 115.332 107.855 115.332C107.764 115.332 107.69 115.382 107.69 115.443C107.69 115.62 107.99 115.57 108.062 115.381C108.099 115.284 108.184 115.243 108.256 115.287C108.333 115.335 108.354 115.318 108.309 115.246C108.269 115.18 108.298 115.085 108.375 115.036C108.624 114.876 108.938 114.45 108.807 114.45C108.737 114.45 108.68 114.499 108.68 114.56ZM5.38963 116.878C5.26451 116.959 5.31098 116.985 5.58213 116.986C5.77876 116.987 5.93963 116.938 5.93963 116.878C5.93963 116.737 5.60578 116.737 5.38963 116.878ZM104.335 116.878C104.294 116.943 104.416 116.987 104.631 116.986C104.906 116.985 104.954 116.958 104.83 116.878C104.616 116.739 104.42 116.739 104.335 116.878Z" fill="#05A4E3"/>
</g>
<defs>
<clipPath id="clip0_2482_5414">
<rect width="110" height="117" fill="white"/>
</clipPath>
</defs>
</svg>
